<?xml version="1.0" encoding="UTF-8"?><svg id="Layer_2" xmlns="http://www.w3.org/2000/svg" viewBox="0 0 230.1 350.46"><path d="M78.79,306.94c-1.17,0-3.29-.54-4.33-4.17-.87-3.04-1.34-9.12-1.68-13.56-.06-.75-.11-1.44-.16-2.04-.43-5.2-.55-10.49-.67-15.6-.11-4.69-.22-9.54-.57-14.28-.39-5.25-1-10.6-1.6-15.77-1.21-10.48-2.45-21.26-1.92-32.09-3.81,6.2-7.32,12.56-10.46,18.94-.28.56-.78,1.86-1.31,3.22-1.71,4.4-2.44,6.08-3.15,6.74-.51.47-1.16.72-1.88.72-2.07,0-4.5-2.13-4.64-4.07-.07-1.01.21-1.98.45-2.83.16-.53.3-1.04.34-1.46,1.11-13.55,2.43-28.08,4.63-42.53,0-.05.02-.1.03-.14l14.49-56.94c-.83.63-1.65,1.29-2.46,1.93-1.6,1.28-3.26,2.61-4.97,3.74l-.54.36c-2.1,1.42-5.28,3.57-8.07,3.57-2.07,0-3.58-1.17-4.26-3.31-.71-2.25.33-5.94,1.57-9.84.14-.43.26-.83.36-1.17,3.63-12.04,9.83-25.51,15.31-37.4.91-1.97,1.8-3.91,2.66-5.8,1.74-3.81,3.62-7.65,5.44-11.35,1.21-2.46,2.44-4.98,3.64-7.5-.5.15-.99.3-1.48.45-1.44.44-2.81.85-4.1,1.35-.68.26-1.74.75-2.97,1.32-4.44,2.06-8.32,3.76-10.79,3.76-.52,0-.96-.07-1.36-.22-1.67-.62-2.26-1.77-2.46-2.62-.8-3.38,3.1-8.14,7.44-12.79.26-.28.47-.51.64-.69,3.85-4.27,8.72-9.02,13.01-12.7.58-.49,1.99-1.5,3.48-2.57,1.04-.74,2.39-1.71,3.02-2.2-.05-.29-.15-.7-.22-1-.21-.87-.46-1.85-.39-2.78.19-2.71.94-5.51,1.66-8.21.36-1.35.7-2.63.97-3.88.75-3.48,1.43-6.41,2.78-9.85,1.52-3.86,2.11-4.49,2.64-4.82.2-.13.42-.2.65-.23,1.36-.15,2.74-.22,4.24-.22,3.77,0,7.54.47,11.19.92,2.71.34,5.51.69,8.25.83,1.14.06,2.33.09,3.63.09,2.79,0,5.67-.14,8.46-.27,2.82-.13,5.74-.27,8.59-.27,1.02,0,2.04.02,3.06.06.2,0,19.68,1.05,21.68,4.2.05.08.1.18.13.27.89,2.34.02,4.34-.68,5.94-.28.64-.54,1.24-.68,1.81l-.52,2.18c-1.49,6.17-3.02,12.55-4.04,18.46-.19,1.09-.69,4.44-.86,5.96.7.34,1.67.85,2.24,1.72.45.69,2.19,6.67,2.2,6.73,1.08,4.18,1.41,8.56,1.72,12.8.22,2.91.44,5.93.91,8.78,1.73,10.54,7.29,22.7,12.19,33.43,1,2.19,1.96,4.3,2.85,6.31.91,2.04,1.08,5.25-.33,7.43-.87,1.33-2.21,2.06-3.78,2.06-.41,0-.83-.05-1.27-.15-5.25-1.17-10.75-4.86-16.07-8.44-2.42-1.62-4.74-3.18-6.95-4.45,11.82,22.99,26.35,40.9,44.52,60.7.42.46,1.12,1.04,1.85,1.65,1.97,1.64,4.21,3.51,4.37,5.67.15,2-.84,5.21-3.44,5.75-.15.03-.3.04-.48.04-1.15,0-4.12-.72-8.55-1.88l-1.03-.27c-5.01-1.27-10.26-3.11-15.33-4.88-5.26-1.84-10.7-3.75-15.69-4.93.32,1.7,1.29,5.54,4.13,14.28,8.51,26.24,20.92,54.63,35.9,82.12.08.14.13.29.16.45.5,2.72.17,4.86-.93,6.19-.54.65-1.54,1.42-3.24,1.42-.82,0-1.74-.19-2.74-.55-3.17-1.16-12.88-8.43-15.19-10.48-5.57-4.95-12.73-13.23-17.56-19.33-3-3.78-5.75-7.8-8.42-11.69-1.47-2.14-2.97-4.33-4.51-6.48-2.6,9.84-4.04,20.78-4.52,34.12-.05,1.42,0,3.38.04,5.64.22,10.11.15,18.76-2.94,22.31-.93,1.07-1.97,1.61-3.09,1.61-3.18,0-5.24-4.28-6.83-8.46-5.51-14.49-8.94-31.92-12.26-48.79-.84-4.27-1.64-8.35-2.46-12.28l-10.11,32.72c-1.44,5.38-2.59,11.15-3.71,16.73-1.57,7.87-3.19,16.01-5.73,23.56-.12.36-.24.75-.37,1.15-.88,2.82-2.08,6.68-5.3,7.74-.5.16-.99.25-1.46.25h0Z" style="fill:#e01a83;"/><path d="M91.79,7.93c6.47,0,12.9,1.41,19.36,1.75,1.23.06,2.47.09,3.71.09,5.65,0,11.42-.54,17.05-.54,1,0,2,.02,3,.06,3.09.13,19.22,1.53,20.48,3.5.98,2.56-.88,4.65-1.41,6.86-1.59,6.64-3.44,14.06-4.59,20.74-.17.99-1.05,6.7-.92,7.03.14.33,1.9.78,2.52,1.73.21.31,1.78,5.43,2,6.28,1.79,6.92,1.44,14.4,2.6,21.45,2.13,12.93,9.9,28.27,15.15,40.11,1.21,2.73.62,7.39-2.74,7.39-.29,0-.61-.04-.94-.11-8.35-1.86-17.83-10.77-25.68-14.32l-.49.98c1.36.14.86,1.38,1.32,2.28,12.07,23.57,27.2,42.05,44.91,61.35,1.6,1.74,5.67,4.21,5.84,6.42.11,1.44-.61,3.82-2.25,4.16-.05,0-.1.01-.18.01-1.4,0-7.65-1.7-9.21-2.1-10.4-2.64-21.65-7.68-31.63-9.96-.4-.09-.76-.27-1.01-.27s-.39.16-.4.72c-.04,2.31,3.41,12.98,4.36,15.9,9.13,28.16,21.88,56.44,36,82.37.58,3.15,0,5.84-2.69,5.84-.62,0-1.36-.14-2.23-.46-2.78-1.02-12.2-7.96-14.71-10.19-5.58-4.95-12.69-13.22-17.38-19.14-5.26-6.63-9.7-13.9-14.73-20.61-3.58,12.15-4.95,24.8-5.41,37.44-.23,6.28,1.32,22.6-2.54,27.03-.67.77-1.33,1.1-1.95,1.1-2.6,0-4.7-5.58-5.45-7.56-7.13-18.74-10.91-43.39-15.15-63.23-.13-.62-.28-2.09-.97-2.27l-11.53,37.31c-3.52,13.13-5.12,27.44-9.42,40.26-.9,2.69-1.83,6.99-4.71,7.94-.36.12-.68.17-.99.17-1.55,0-2.42-1.44-2.89-3.08-.98-3.41-1.46-11.41-1.78-15.31-.82-9.93-.51-19.94-1.24-29.87-1.3-17.6-5.02-35.12-3.12-52.9-.11-.05-.21-.07-.29-.07-.4,0-.46.57-.7.95-4.62,7.23-8.94,14.86-12.72,22.56-.86,1.74-3.22,8.68-4.14,9.53-.24.22-.54.32-.86.32-1.31,0-3.06-1.56-3.15-2.68-.09-1.31.68-2.74.79-4.06,1.16-14.2,2.47-28.33,4.62-42.43l15.49-60.84c-3.71,2.28-7.09,5.55-10.7,7.95-1.72,1.14-5.2,3.68-7.78,3.68-1.26,0-2.3-.6-2.83-2.26-.73-2.3,1.18-7.61,1.94-10.12,4.19-13.91,11.8-29.64,17.9-43,3.38-7.4,7.19-14.67,10.59-22.06-2.86,1.16-6.12,1.89-8.98,2.98-2.64,1.01-9.99,4.98-13.22,4.98-.32,0-.61-.04-.84-.13-5.32-1.98,4.26-11.54,6.2-13.69,3.77-4.18,8.6-8.9,12.87-12.57,1.16-1,6.77-4.8,6.96-5.18.39-.79-.66-2.93-.55-4.4.28-3.87,1.78-8.07,2.6-11.88.73-3.38,1.4-6.29,2.71-9.62.35-.88,1.48-3.74,2.05-4.11,1.36-.15,2.72-.21,4.08-.21M91.79,4.93h0c-1.55,0-2.99.07-4.4.23-.46.05-.91.21-1.3.46-.93.6-1.69,1.62-3.22,5.54-1.39,3.54-2.08,6.53-2.85,10.08-.26,1.21-.6,2.47-.95,3.81-.74,2.77-1.5,5.64-1.71,8.49-.08,1.17.2,2.32.43,3.25,0,0,0,.01,0,.02-.67.49-1.55,1.12-2.22,1.6-1.84,1.32-3,2.15-3.59,2.65-4.34,3.72-9.25,8.52-13.15,12.83-.16.17-.37.4-.62.67-5.34,5.73-8.7,10.33-7.8,14.16.4,1.71,1.61,3.01,3.4,3.68.56.21,1.2.31,1.88.31,2.78,0,6.65-1.69,11.42-3.9,1.15-.54,2.25-1.04,2.87-1.28.71-.27,1.44-.52,2.21-.76-.72,1.48-1.44,2.95-2.15,4.4-1.82,3.71-3.71,7.55-5.46,11.38-.86,1.88-1.75,3.81-2.65,5.78-5.5,11.93-11.73,25.46-15.39,37.61-.1.34-.22.72-.36,1.15-1.36,4.3-2.42,8.07-1.57,10.75.88,2.77,2.95,4.35,5.69,4.35,3,0,6.04-1.89,8.91-3.82.19-.13.37-.25.53-.36,1.39-.93,2.74-1.96,4.05-3l-13.4,52.65c-.02.1-.04.19-.06.29-2.2,14.49-3.53,29.06-4.64,42.64-.02.27-.15.73-.28,1.17-.27.92-.6,2.07-.51,3.35.2,2.71,3.29,5.47,6.14,5.47,1.1,0,2.13-.4,2.91-1.12.95-.88,1.64-2.43,3.53-7.3.5-1.28,1.01-2.6,1.26-3.1,2.3-4.69,4.81-9.36,7.49-13.96.03,9.01,1.05,17.92,2.06,26.62.59,5.16,1.21,10.49,1.6,15.71.35,4.7.46,9.53.57,14.21.12,5.14.24,10.45.68,15.69.05.59.1,1.28.16,2.03.35,4.5.82,10.67,1.73,13.85,1.36,4.74,4.49,5.25,5.77,5.25.63,0,1.28-.11,1.93-.32,3.95-1.3,5.34-5.77,6.26-8.72.12-.39.24-.77.36-1.12,2.56-7.64,4.19-15.82,5.77-23.74,1.11-5.54,2.25-11.27,3.69-16.64l8.36-27.06c.42,2.12.85,4.29,1.29,6.51,3.18,16.14,6.78,34.42,12.31,48.97l.02.06c1.16,3.06,3.59,9.43,8.23,9.43,1.08,0,2.69-.37,4.22-2.13,3.45-3.96,3.54-12.54,3.31-23.34-.05-2.24-.09-4.18-.04-5.55.42-11.81,1.61-21.72,3.69-30.63.88,1.26,1.75,2.53,2.61,3.78,2.68,3.91,5.46,7.95,8.48,11.77,4.88,6.15,12.1,14.5,17.74,19.52,2.26,2.01,12.21,9.5,15.67,10.77,1.18.43,2.25.64,3.26.64,1.78,0,3.33-.7,4.39-1.96,1.4-1.68,1.83-4.24,1.25-7.42-.06-.31-.16-.62-.32-.9-14.93-27.41-27.31-55.72-35.79-81.86-1.93-5.96-2.98-9.58-3.55-11.76,4.19,1.14,8.58,2.68,13.18,4.29,5.1,1.79,10.38,3.63,15.46,4.92.24.06.59.15,1.01.26,5.51,1.44,7.76,1.93,8.93,1.93.28,0,.54-.03.79-.08,3.52-.73,4.83-4.72,4.63-7.32-.21-2.8-2.71-4.88-4.91-6.71-.66-.55-1.35-1.12-1.71-1.51-16.75-18.26-30.4-34.9-41.66-55.42.71.47,1.42.95,2.15,1.44,5.43,3.65,11.05,7.43,16.58,8.66.54.12,1.08.18,1.59.18,2.1,0,3.89-.97,5.04-2.74,1.53-2.36,1.72-6,.45-8.86-.9-2.02-1.85-4.12-2.86-6.33-4.86-10.64-10.37-22.71-12.07-33.05-.46-2.79-.67-5.63-.89-8.65-.32-4.31-.65-8.76-1.76-13.07-.01-.06-1.75-6.2-2.4-7.18-.51-.78-1.22-1.33-1.88-1.73.21-1.6.56-3.94.72-4.87,1.01-5.87,2.55-12.24,4.03-18.4l.52-2.15c.1-.44.34-.98.59-1.56.77-1.76,1.81-4.17.7-7.08-.07-.19-.16-.37-.27-.54-.85-1.34-2.32-2.55-11.68-3.81-4.74-.63-9.63-1.02-11.2-1.08-.99-.04-2.01-.06-3.12-.06-2.89,0-5.82.14-8.66.28-2.77.13-5.64.27-8.39.27-1.28,0-2.44-.03-3.55-.09-2.68-.14-5.33-.47-8.14-.82-3.69-.46-7.51-.94-11.38-.94h0Z" style="fill:#e01a83;"/><path d="M155.38,12.8c.98,2.56-.88,4.65-1.41,6.86-1.59,6.64-3.44,14.06-4.59,20.74-.17.99-1.05,6.7-.92,7.03s1.9.78,2.52,1.73c.21.31,1.78,5.43,2,6.28,1.79,6.92,1.44,14.4,2.6,21.45,2.13,12.93,9.9,28.27,15.15,40.11,1.32,2.97.5,8.21-3.68,7.28-8.35-1.86-17.83-10.77-25.68-14.32l-.49.98c1.36.14.86,1.38,1.32,2.28,12.07,23.57,27.2,42.05,44.91,61.35,1.6,1.74,5.67,4.21,5.84,6.42.11,1.44-.61,3.82-2.25,4.16-.93.19-7.74-1.67-9.38-2.08-10.4-2.64-21.65-7.68-31.63-9.96-.79-.18-1.39-.69-1.41.45-.04,2.31,3.41,12.98,4.36,15.9,9.13,28.16,21.88,56.44,36,82.37.71,3.88-.32,7.06-4.92,5.38-2.78-1.02-12.2-7.96-14.71-10.19-5.58-4.95-12.69-13.22-17.38-19.14-5.26-6.63-9.7-13.9-14.73-20.61-3.58,12.15-4.95,24.8-5.41,37.44-.23,6.28,1.32,22.6-2.53,27.03-3.47,3.99-6.47-4.01-7.4-6.47-7.13-18.74-10.91-43.39-15.15-63.23-.13-.62-.28-2.09-.97-2.27l-11.53,37.31c-3.52,13.13-5.12,27.44-9.42,40.26-.9,2.69-1.83,6.99-4.71,7.94-2.19.72-3.31-.95-3.88-2.91-.98-3.41-1.46-11.41-1.78-15.31-.82-9.93-.51-19.94-1.24-29.87-1.3-17.6-5.02-35.12-3.12-52.9-.67-.31-.69.42-.99.87-4.62,7.23-8.94,14.86-12.72,22.56-.86,1.74-3.22,8.68-4.14,9.53-1.2,1.12-3.91-.96-4.01-2.36-.09-1.31.68-2.74.79-4.06,1.16-14.2,2.47-28.33,4.62-42.43l15.49-60.84c-3.71,2.28-7.09,5.55-10.7,7.95-2.56,1.7-9,6.48-10.61,1.42-.73-2.3,1.18-7.61,1.94-10.12,4.19-13.91,11.8-29.64,17.9-43,3.38-7.4,7.19-14.67,10.59-22.06-2.86,1.16-6.12,1.89-8.98,2.98-2.9,1.11-11.51,5.81-14.06,4.86-5.32-1.98,4.26-11.54,6.2-13.69,3.77-4.18,8.6-8.9,12.87-12.57,1.16-1,6.77-4.8,6.96-5.18.39-.79-.66-2.93-.55-4.4.28-3.87,1.78-8.07,2.6-11.88.73-3.38,1.4-6.29,2.71-9.62.35-.88,1.48-3.74,2.05-4.11,7.86-.85,15.63,1.13,23.44,1.54,7.8.41,15.96-.71,23.76-.4,3.09.13,19.22,1.53,20.48,3.5ZM148.06,58.8c-.3,4.88-4.41,2.82-4.58-.86-.19-4.06.6-11.13,1.12-15.34,1.07-8.58,3.04-17.99,6.07-26.06l-.39-1.14c-14.94-2.63-30.13-.44-45.15-1.91-5.07-.5-10.47-2.41-15.79-1.88-.64.19-2.66,7.82-2.89,8.91-.9,4.23-2.07,10.81-2.16,15.17-.04,2.16.95,4.01.17,6.01-1.47.89-3.12.81-4.69,1.73-3.09,1.81-19.74,18.05-20.89,20.9-.15.36-.3.87.09.83,4.64-1.66,9.1-3.98,13.73-5.66,1.75-.63,7.1-2.73,8.5-2.76,1.3-.03,2.32.52,2.77,1.79-7.94,17.57-16.57,35-23.94,52.86-2.94,7.12-5.76,14.3-7.66,21.76,4.84-1.44,16.59-14.05,20.97-13.11.79.17,2.54,1.04,2.64,1.85-5.53,16.61-9.34,33.68-13.32,50.73-1.81,7.75-3.85,15.28-5.14,23.25-1.26,7.76-1.74,15.71-3.02,23.48,1.11.05,1.05-.97,1.43-1.58,2.46-3.94,10.89-20.41,14.09-21.81,1.46-.64,4.16-.35,4.8,1.31.05,9.2-.66,18.42-.13,27.63.65,11.08,2.83,22.15,3.65,33.23.88,11.94.21,24.06,2.27,35.89,5.79-23.78,11.51-47.54,19.2-70.9.61-1.87,4.42-13.72,5.24-14.07.94-.41,3.56.49,4.05,1.59l6.05,29.36,10.61,40.13c.87.33.79-1.08.85-1.65.21-2.37-.42-5.03-.37-7.32.29-13.37,1.87-32.05,5.95-44.67,1.57-4.87,3.2-7.57,8.11-3.84,9.86,13.7,20.64,29.79,33.47,40.88.63.54,5.48,4.24,5.79,4.08-6.91-14.8-14.07-29.56-20.1-44.73-4.14-10.41-7.86-21.22-11.32-31.81-1.46-4.47-6.2-15.93-5.32-20.29.18-.87.57-1.68,1.07-2.4,4.79-1.59,8.95.14,13.54,1.57,7.83,2.45,15.41,6.05,23.79,6.61-4.66-6.54-10.93-11.66-16.13-17.72-7.9-9.22-16.32-23.21-22.39-33.83-1.64-2.87-8.53-15.21-8.83-17.81-.79-6.85,6.66-3.47,10.11-1.56,2.51,1.39,19.21,12.84,20.37,12.11-.3-1.79-1.06-4.1-1.74-5.77-4.65-11.41-10.61-22.81-12.42-35.19-.81-5.59-.35-11.45-1.26-16.97-.11-.66.62-.89-.86-1Z"/><path d="M148.06,58.8c1.48.11.75.35.86,1,.92,5.53.45,11.39,1.26,16.97,1.81,12.38,7.77,23.79,12.42,35.19.68,1.68,1.44,3.98,1.74,5.77-1.16.73-17.87-10.72-20.37-12.11-3.44-1.91-10.9-5.29-10.11,1.56.3,2.61,7.19,14.94,8.83,17.81,6.07,10.62,14.49,24.61,22.39,33.83,5.19,6.06,11.47,11.18,16.13,17.72-8.38-.55-15.96-4.16-23.79-6.61-4.59-1.43-8.75-3.16-13.54-1.57-.5.72-.89,1.54-1.07,2.4-.88,4.36,3.86,15.82,5.32,20.29,3.46,10.58,7.18,21.39,11.32,31.81,6.03,15.18,13.19,29.93,20.1,44.73-.32.16-5.16-3.54-5.79-4.08-12.84-11.09-23.62-27.18-33.47-40.88-4.91-3.72-6.54-1.02-8.11,3.84-4.07,12.63-5.66,31.3-5.95,44.67-.05,2.29.58,4.95.37,7.32-.05.57.03,1.98-.85,1.65l-10.61-40.13-6.05-29.36c-.5-1.11-3.11-2-4.05-1.59-.82.35-4.63,12.21-5.24,14.07-7.68,23.36-13.41,47.13-19.2,70.9-2.06-11.83-1.39-23.94-2.27-35.89-.82-11.08-3-22.15-3.65-33.23-.54-9.22.17-18.43.13-27.63-.65-1.66-3.34-1.95-4.8-1.31-3.2,1.39-11.62,17.86-14.09,21.81-.38.61-.33,1.63-1.43,1.58,1.28-7.77,1.76-15.73,3.02-23.48,1.3-7.97,3.33-15.5,5.14-23.25,3.98-17.04,7.79-34.12,13.32-50.73-.1-.81-1.85-1.68-2.64-1.85-4.39-.94-16.13,11.67-20.97,13.11,1.91-7.47,4.73-14.64,7.66-21.76,7.37-17.87,15.99-35.29,23.94-52.86-.45-1.27-1.47-1.83-2.77-1.79-1.4.03-6.75,2.13-8.5,2.76-4.63,1.68-9.08,4-13.73,5.66-.39.04-.23-.47-.09-.83,1.15-2.85,17.8-19.09,20.89-20.9,1.57-.92,3.22-.85,4.69-1.73.77-1.99-.22-3.85-.17-6.01.09-4.36,1.26-10.94,2.16-15.17.23-1.09,2.26-8.72,2.89-8.91,5.32-.53,10.72,1.39,15.79,1.88,15.01,1.47,30.21-.72,45.15,1.91l.39,1.14c-3.02,8.07-4.99,17.48-6.07,26.06-.53,4.21-1.31,11.28-1.12,15.34.17,3.68,4.27,5.74,4.58.86ZM137.79,72.46c-.75-1.35-2.72-2.52-3.6-3.7-6.08-8.17-10.02-15.77-10.52-26.18-.19-4.03,1.36-17.19-2.48-19.33-1.44-.8-8.64.62-10.35,1.28-.92.36-2.05,1.32-2.64,2.13-3.07,4.28-6,12.52-8.77,17.6-11.46,20.96-20,38.15-28.38,60.7-.58,1.56-2.14,2.83-2.01,4.68l1.92.8c4.56-4.32,10.26-9.4,16.79-9.61l-15.83,71.56c.01.74,2.11,1.69,2.81,1.03,1.49-1.26,18.16-18.14,19.19-16.97-1.54,11.02-1.84,22.22-3.01,33.26-.59,5.6-1.98,11.13-2.54,16.73-.21,2.1-1.19,8.7.87,9.64l1.91-.41c6.74-15.64,11.51-31.84,21.53-45.84l10.06,36.91c4.75,7.69,5.57-2.25,5.84-6.39,1.18-18.32-.78-39.8-1.2-58.35-.03-1.35-.75-9.88-.32-10.24,5.03,4.51,8.91,10.63,14.75,14.37,2.27,1.45,3.22,1.89,3.88-1.2-4.2-8.08-9.53-15.56-13.92-23.51-4.2-7.61-11.97-21.22-14.38-29.05-.57-1.85-1.91-6.2-.07-7.52,1.11-.8,7.89-1.07,10.07-1.64,4.06-1.06,13.34-5.4,10.39-10.74Z" style="fill:#fff;"/><path d="M137.79,72.46c2.95,5.33-6.33,9.67-10.39,10.74-2.18.57-8.96.84-10.07,1.64-1.84,1.32-.5,5.67.07,7.52,2.41,7.83,10.18,21.44,14.38,29.05,4.39,7.96,9.72,15.43,13.92,23.51-.66,3.09-1.61,2.65-3.88,1.2-5.84-3.74-9.72-9.86-14.75-14.37-.43.35.29,8.89.32,10.24.42,18.55,2.38,40.02,1.2,58.35-.27,4.14-1.09,14.08-5.84,6.39l-10.06-36.91c-10.02,14-14.79,30.2-21.53,45.84l-1.91.41c-2.06-.94-1.08-7.54-.87-9.64.56-5.6,1.95-11.13,2.54-16.73,1.16-11.04,1.46-22.23,3.01-33.26-1.02-1.18-17.7,15.71-19.19,16.97-.69.66-2.79-.29-2.81-1.03l15.83-71.56c-6.53.22-12.22,5.29-16.79,9.61l-1.92-.8c-.12-1.85,1.43-3.13,2.01-4.68,8.39-22.55,16.93-39.73,28.38-60.7,2.77-5.07,5.7-13.31,8.77-17.6.58-.82,1.72-1.78,2.64-2.13,1.71-.66,8.91-2.08,10.35-1.28,3.84,2.14,2.29,15.31,2.48,19.33.5,10.41,4.43,18.02,10.52,26.18.88,1.18,2.86,2.35,3.6,3.7ZM119.87,26.54c-.3-.34-7.45.87-8.33,1.18-4.47,1.58-5.29,7.87-7.15,11.79-8,16.87-17.39,33.11-24.82,50.26-1.84,4.25-3.29,8.69-4.76,13.07,1.84-.65,3.27-2.09,5.03-2.91s10.57-4.14,10.92-.81c-5.13,23.08-8.2,46.43-15.17,69.01,3.52-2.14,15.77-15.98,19.44-15.55.55.06,1.66.77,1.89,1.28l-4.62,51.6c4.26-12.13,9.31-25.4,16.9-35.86,1.92-2.64,4.03-6.41,7.1-2.76,1.74,10.83,6.03,20.94,8.2,31.67.08.39-.05,1.62.64.92-.2-10.04.14-20.12-.11-30.15-.29-11.58-3-29.58-1.7-40.25.11-.92.3-1.89.68-2.74,4.32-.79,6.71,3.59,8.96,6.36.34.42,1.19,1.75,1.8,1.09-1.41-2.49-3.26-4.76-4.64-7.26-4.38-7.91-17.41-31.26-17.66-38.96-.28-8.58,6.14-6.46,12.05-7.46,3.67-.62,7.45-2.32,10.09-4.97-4.88-6.79-10.75-13.53-13.09-21.79-2.47-8.72-.22-17.92-1.62-26.75Z"/><path d="M119.87,26.54c1.4,8.83-.85,18.03,1.62,26.75,2.34,8.26,8.21,15,13.09,21.79-2.63,2.65-6.41,4.36-10.09,4.97-5.91.99-12.33-1.13-12.05,7.46.25,7.7,13.28,31.05,17.66,38.96,1.38,2.5,3.23,4.77,4.64,7.26-.61.66-1.45-.67-1.8-1.09-2.25-2.77-4.65-7.15-8.96-6.36-.38.85-.56,1.82-.68,2.74-1.3,10.67,1.41,28.67,1.7,40.25.25,10.03-.09,20.11.11,30.15-.69.7-.56-.53-.64-.92-2.17-10.72-6.46-20.84-8.2-31.67-3.07-3.65-5.18.12-7.1,2.76-7.59,10.46-12.64,23.74-16.9,35.86l4.62-51.6c-.23-.52-1.34-1.22-1.89-1.28-3.67-.42-15.92,13.41-19.44,15.55,6.97-22.58,10.03-45.93,15.17-69.01-.34-3.33-9.14-.02-10.92.81s-3.18,2.27-5.03,2.91c1.48-4.38,2.93-8.83,4.76-13.07,7.43-17.16,16.82-33.4,24.82-50.26,1.86-3.92,2.68-10.21,7.15-11.79.88-.31,8.03-1.51,8.33-1.18Z" style="fill:#fff;"/></svg>