<?xml version="1.0" encoding="UTF-8"?><svg id="Layer_1" xmlns="http://www.w3.org/2000/svg" viewBox="0 0 230.1 350.46"><path d="M83.32,307.06c-1.15,0-3.24-.53-4.33-4.08-.93-3.02-1.53-9.09-1.96-13.53-.07-.75-.14-1.44-.2-2.03-.54-5.19-.77-10.48-.99-15.59-.21-4.69-.42-9.54-.87-14.27-.5-5.24-1.22-10.58-1.93-15.73-1.42-10.45-2.89-21.2-2.58-32.04-3.69,6.28-7.06,12.71-10.07,19.15-.26.57-.74,1.87-1.24,3.25-1.62,4.44-2.31,6.13-3.01,6.81-.51.5-1.18.76-1.93.76-2.04,0-4.48-2.08-4.66-3.98-.09-1.01.17-1.98.39-2.84.14-.54.28-1.04.31-1.47.83-13.57,1.85-28.12,3.75-42.62,0-.05.02-.1.03-.14l13.32-57.22c-.82.65-1.62,1.32-2.42,1.98-1.58,1.31-3.21,2.67-4.89,3.84l-.53.37c-1.98,1.4-5.29,3.73-8.1,3.73-2.01,0-3.51-1.14-4.21-3.22-.76-2.24.21-5.95,1.37-9.87.13-.43.24-.83.34-1.17,3.38-12.11,9.3-25.71,14.53-37.7.87-1.99,1.72-3.95,2.54-5.85,1.66-3.85,3.46-7.72,5.21-11.46,1.16-2.48,2.34-5.03,3.49-7.58-.49.16-.98.32-1.47.48-1.44.47-2.79.91-4.08,1.43-.67.27-1.72.79-2.94,1.38-4.46,2.18-8.35,3.98-10.82,3.98-.47,0-.88-.06-1.26-.19-1.68-.59-2.29-1.72-2.51-2.57-.87-3.36,2.93-8.21,7.17-12.94.25-.28.46-.52.62-.7,3.77-4.35,8.53-9.2,12.74-12.97.56-.5,1.96-1.54,3.43-2.64,1.02-.76,2.35-1.76,2.98-2.26-.05-.29-.16-.7-.24-1-.23-.86-.5-1.84-.45-2.77.14-2.71.83-5.53,1.49-8.24.33-1.36.65-2.65.89-3.9.68-3.5,1.3-6.45,2.58-9.91,1.55-4.21,2.14-4.61,2.53-4.87.19-.13.41-.21.64-.24,1.65-.21,3.36-.32,5.22-.32,3.44,0,6.88.36,10.22.7,2.72.28,5.52.57,8.26.66.67.02,1.34.03,2.02.03,3.31,0,6.74-.23,10.07-.46,3.37-.23,6.85-.47,10.24-.47.47,0,.93,0,1.39.01.2,0,19.69.65,21.76,3.75.06.08.1.17.14.27.94,2.32.11,4.33-.55,5.96-.27.64-.52,1.25-.64,1.82l-.47,2.15c-1.36,6.21-2.77,12.64-3.67,18.58-.17,1.09-.6,4.46-.73,5.97.71.33,1.69.82,2.27,1.67.46.67,2.32,6.62,2.34,6.68,1.17,4.16,1.58,8.54,1.98,12.77.28,2.91.56,5.92,1.09,8.76,1.95,10.5,7.75,22.54,12.87,33.16,1.04,2.17,2.05,4.27,2.99,6.26.96,2.05,1.19,5.27-.21,7.48-.86,1.35-2.21,2.09-3.82,2.09-.37,0-.76-.04-1.16-.12-5.28-1.06-10.85-4.64-16.24-8.1-2.45-1.57-4.8-3.09-7.04-4.31,12.3,22.74,27.19,40.35,45.76,59.77.43.46,1.14,1.02,1.88,1.61,2.01,1.6,4.28,3.42,4.49,5.58.19,2-.73,5.22-3.33,5.81-.16.04-.34.06-.55.06-1.18,0-4.14-.65-8.52-1.7l-1.03-.25c-5.04-1.17-10.32-2.9-15.43-4.57-5.3-1.73-10.77-3.52-15.78-4.61.36,1.7,1.41,5.51,4.42,14.19,9.05,26.05,22.04,54.19,37.58,81.36.08.14.14.29.17.45.56,2.73.27,4.89-.83,6.24-.54.67-1.56,1.46-3.3,1.46-.79,0-1.68-.17-2.64-.5-3.2-1.09-13.05-8.16-15.41-10.17-5.67-4.83-12.99-12.96-17.96-18.96-3.07-3.71-5.92-7.68-8.66-11.51-1.51-2.11-3.06-4.27-4.64-6.38-2.39,9.89-3.61,20.86-3.82,34.21-.02,1.42.06,3.37.16,5.64.43,10.1.53,18.76-2.48,22.37-.93,1.11-1.98,1.68-3.12,1.68-3.15,0-5.27-4.21-6.93-8.33-5.81-14.37-9.6-31.73-13.27-48.52-.93-4.25-1.81-8.31-2.71-12.22l-9.43,32.92c-1.33,5.42-2.36,11.21-3.36,16.81-1.41,7.9-2.86,16.07-5.24,23.67-.11.36-.22.75-.34,1.16-.82,2.84-1.94,6.72-5.13,7.85-.52.18-1.04.28-1.53.28Z" style="fill:#e01a83;"/><path d="M91.18,7.83c6.15,0,12.29,1.17,18.43,1.36.69.02,1.38.03,2.07.03,6.71,0,13.62-.93,20.31-.93.46,0,.91,0,1.36.01,3.09.06,19.25,1.13,20.55,3.08,1.03,2.54-.78,4.67-1.27,6.89-1.46,6.67-3.15,14.13-4.16,20.83-.15,1-.91,6.72-.77,7.05.15.33,1.92.74,2.56,1.67.21.31,1.89,5.4,2.13,6.24,1.93,6.88,1.73,14.37,3.04,21.4,2.39,12.89,10.48,28.06,15.97,39.79,1.28,2.73.76,7.44-2.67,7.44-.27,0-.56-.03-.87-.09-8.38-1.69-18.05-10.4-25.97-13.79l-.46.99c1.37.12.89,1.37,1.36,2.25,12.55,23.32,28.07,41.48,46.17,60.41,1.64,1.71,5.75,4.09,5.97,6.3.14,1.44-.53,3.83-2.17,4.21-.05.01-.13.02-.22.02-1.48,0-7.65-1.55-9.21-1.91-10.45-2.42-21.81-7.23-31.83-9.31-.4-.08-.75-.25-1.01-.25s-.4.16-.39.73c0,2.31,3.68,12.91,4.68,15.8,9.71,27.97,23.04,55.98,37.7,81.61.65,3.17.12,5.9-2.66,5.9-.61,0-1.32-.13-2.15-.42-2.8-.96-12.36-7.71-14.92-9.89-5.68-4.84-12.96-12.95-17.78-18.77-5.39-6.52-9.99-13.7-15.15-20.3-3.32,12.23-4.44,24.89-4.63,37.55-.1,6.29,1.79,22.56-1.98,27.07-.67.8-1.33,1.14-1.97,1.14-2.59,0-4.78-5.49-5.57-7.45-7.51-18.59-11.81-43.15-16.45-62.9-.15-.62-.33-2.09-1.01-2.25l-10.76,37.54c-3.24,13.2-4.56,27.54-8.59,40.45-.85,2.71-1.69,7.03-4.54,8.04-.37.13-.72.19-1.03.19-1.52,0-2.4-1.41-2.9-3.02-1.05-3.39-1.7-11.37-2.1-15.27-1.03-9.91-.92-19.92-1.86-29.84-1.67-17.57-5.74-35.01-4.21-52.83-.11-.05-.2-.07-.28-.07-.41,0-.45.57-.69.96-4.47,7.32-8.63,15.05-12.26,22.82-.82,1.76-3.04,8.75-3.94,9.62-.24.24-.55.34-.89.34-1.31,0-3.06-1.51-3.17-2.62-.12-1.31.62-2.75.7-4.07.87-14.22,1.89-28.37,3.74-42.52l14.23-61.14c-3.66,2.35-6.97,5.7-10.54,8.17-1.72,1.19-5.19,3.84-7.78,3.84-1.22,0-2.25-.59-2.8-2.2-.78-2.29,1.02-7.63,1.73-10.16,3.9-13.99,11.19-29.88,17-43.36,3.22-7.47,6.89-14.81,10.13-22.27-2.84,1.22-6.08,2.02-8.92,3.17-2.64,1.07-10,5.26-13.2,5.26-.29,0-.55-.03-.76-.11-5.36-1.87,4.02-11.62,5.92-13.81,3.69-4.26,8.41-9.07,12.61-12.83,1.14-1.02,6.67-4.93,6.85-5.33.38-.79-.72-2.91-.65-4.39.2-3.87,1.61-8.1,2.36-11.93.66-3.39,1.27-6.31,2.51-9.68.33-.89,1.4-3.77,1.96-4.15,1.68-.22,3.36-.3,5.03-.3M91.18,4.83c-1.93,0-3.71.11-5.42.33-.46.06-.9.22-1.29.48-.94.63-1.64,1.63-3.11,5.6-1.31,3.57-1.95,6.58-2.64,10.14-.24,1.22-.55,2.48-.88,3.83-.68,2.79-1.39,5.67-1.53,8.53-.06,1.17.25,2.32.5,3.24,0,0,0,.01,0,.02-.66.51-1.52,1.15-2.18,1.64-1.81,1.35-2.96,2.21-3.53,2.72-4.26,3.81-9.07,8.71-12.88,13.1-.15.18-.36.41-.61.68-5.22,5.83-8.49,10.5-7.5,14.32.44,1.7,1.67,2.98,3.47,3.61.53.18,1.12.28,1.75.28,2.79,0,6.68-1.79,11.48-4.14,1.14-.56,2.22-1.09,2.85-1.34.7-.28,1.43-.55,2.19-.8-.69,1.49-1.38,2.98-2.06,4.45-1.75,3.75-3.55,7.63-5.22,11.49-.82,1.9-1.67,3.85-2.53,5.83-5.25,12.04-11.2,25.69-14.61,37.91-.09.34-.21.73-.33,1.15-1.27,4.33-2.25,8.12-1.35,10.78.92,2.69,2.97,4.24,5.64,4.24,3.04,0,6.1-1.98,8.97-4.01.19-.13.36-.26.52-.37,1.38-.95,2.7-2.02,3.99-3.08l-12.31,52.91c-.02.1-.04.19-.05.29-1.9,14.54-2.93,29.12-3.76,42.72-.02.27-.14.73-.26,1.17-.25.93-.56,2.09-.44,3.36.25,2.69,3.3,5.34,6.15,5.34,1.14,0,2.19-.42,2.98-1.18.93-.9,1.59-2.47,3.38-7.37.47-1.29.95-2.62,1.19-3.13,2.21-4.73,4.62-9.45,7.2-14.11.21,9.01,1.42,17.9,2.61,26.58.7,5.14,1.43,10.46,1.92,15.67.45,4.69.66,9.52.86,14.19.22,5.13.46,10.44,1,15.68.06.59.13,1.28.2,2.03.44,4.5,1.04,10.65,2.02,13.81,1.43,4.63,4.51,5.14,5.77,5.14.67,0,1.35-.12,2.03-.36,3.92-1.39,5.22-5.88,6.08-8.85.11-.4.22-.77.33-1.12,2.4-7.69,3.87-15.91,5.28-23.85.99-5.56,2.02-11.31,3.34-16.72l7.8-27.22c.47,2.11.94,4.27,1.42,6.48,3.51,16.07,7.49,34.28,13.32,48.7l.03.06c1.21,3.01,3.74,9.26,8.32,9.26,1.11,0,2.74-.38,4.27-2.21,3.37-4.03,3.28-12.61,2.83-23.4-.09-2.24-.18-4.18-.16-5.55.18-11.82,1.16-21.75,3.06-30.7.91,1.25,1.8,2.5,2.69,3.73,2.76,3.85,5.62,7.84,8.73,11.59,5,6.05,12.4,14.25,18.14,19.14,2.3,1.96,12.4,9.25,15.89,10.44,1.13.39,2.16.58,3.12.58,1.82,0,3.4-.71,4.46-2.01,1.39-1.71,1.79-4.3,1.14-7.49-.06-.31-.18-.61-.34-.89-15.5-27.1-28.45-55.14-37.47-81.11-2.05-5.92-3.18-9.51-3.79-11.68,4.21,1.05,8.64,2.5,13.27,4.01,5.14,1.68,10.45,3.42,15.56,4.6.24.06.59.14,1.01.24,4.61,1.1,7.54,1.74,8.87,1.74.32,0,.61-.03.88-.09,3.51-.8,4.73-4.82,4.48-7.42-.27-2.79-2.81-4.82-5.05-6.61-.67-.54-1.37-1.1-1.74-1.48-17.13-17.91-31.11-34.27-42.79-54.55.72.45,1.44.92,2.18,1.39,5.51,3.54,11.2,7.2,16.76,8.31.49.1.98.15,1.46.15,2.1,0,3.95-1.02,5.08-2.79,1.77-2.79,1.4-6.58.3-8.92-.94-2.01-1.94-4.08-2.99-6.27-5.08-10.54-10.83-22.49-12.75-32.79-.52-2.78-.78-5.62-1.07-8.63-.41-4.3-.83-8.74-2.03-13.03-.02-.06-1.88-6.16-2.55-7.13-.53-.77-1.25-1.31-1.91-1.69.18-1.61.48-3.95.62-4.88.89-5.89,2.29-12.29,3.65-18.47l.47-2.16c.1-.44.32-.99.56-1.57.73-1.78,1.73-4.21.56-7.09-.08-.19-.17-.37-.28-.53-.88-1.32-2.38-2.5-11.76-3.56-4.75-.54-9.65-.82-11.22-.85-.47,0-.95-.01-1.42-.01-3.44,0-6.95.24-10.34.47-3.3.23-6.71.46-9.96.46-.66,0-1.32,0-1.97-.03-2.68-.09-5.34-.36-8.15-.65-3.37-.35-6.86-.71-10.37-.71h0Z" style="fill:#e01a83;"/><path d="M153.9,11.39c1.03,2.54-.78,4.67-1.27,6.89-1.46,6.67-3.15,14.13-4.16,20.83-.15,1-.91,6.72-.77,7.05s1.92.74,2.56,1.67c.21.31,1.89,5.4,2.13,6.24,1.93,6.88,1.73,14.37,3.04,21.4,2.39,12.89,10.48,28.06,15.97,39.79,1.38,2.94.67,8.2-3.53,7.35-8.38-1.69-18.05-10.4-25.97-13.79l-.47.99c1.37.12.89,1.37,1.36,2.25,12.55,23.32,28.07,41.48,46.17,60.41,1.64,1.71,5.75,4.09,5.97,6.3.14,1.44-.53,3.83-2.17,4.21-.92.21-7.78-1.51-9.42-1.89-10.45-2.42-21.81-7.23-31.83-9.31-.79-.16-1.4-.67-1.4.47,0,2.31,3.68,12.91,4.68,15.8,9.71,27.97,23.04,55.98,37.7,81.61.79,3.86-.17,7.07-4.81,5.48-2.8-.96-12.36-7.71-14.92-9.89-5.68-4.84-12.96-12.95-17.78-18.77-5.39-6.52-9.99-13.7-15.15-20.3-3.32,12.23-4.44,24.89-4.63,37.55-.1,6.29,1.79,22.56-1.98,27.07-3.39,4.06-6.55-3.88-7.54-6.31-7.51-18.59-11.81-43.15-16.45-62.9-.15-.62-.33-2.09-1.01-2.25l-10.76,37.54c-3.24,13.2-4.56,27.54-8.59,40.45-.85,2.71-1.69,7.03-4.54,8.04-2.17.77-3.33-.88-3.94-2.83-1.05-3.39-1.7-11.37-2.1-15.27-1.03-9.91-.92-19.92-1.86-29.84-1.67-17.57-5.74-35.01-4.21-52.83-.68-.29-.69.43-.97.89-4.47,7.32-8.63,15.05-12.26,22.82-.82,1.76-3.04,8.75-3.94,9.62-1.18,1.14-3.93-.88-4.06-2.28-.12-1.31.62-2.75.7-4.07.87-14.22,1.89-28.37,3.74-42.52l14.23-61.14c-3.66,2.35-6.97,5.7-10.54,8.17-2.53,1.75-8.87,6.67-10.58,1.64-.78-2.29,1.02-7.63,1.73-10.16,3.9-13.99,11.19-29.88,17-43.36,3.22-7.47,6.89-14.81,10.13-22.27-2.84,1.22-6.08,2.02-8.92,3.17-2.88,1.17-11.38,6.05-13.96,5.15-5.36-1.87,4.02-11.62,5.92-13.81,3.69-4.26,8.41-9.07,12.61-12.83,1.14-1.02,6.67-4.93,6.85-5.33.38-.79-.72-2.91-.65-4.38.2-3.87,1.61-8.1,2.36-11.93.66-3.39,1.27-6.31,2.51-9.68.33-.89,1.4-3.77,1.96-4.15,7.84-1.01,15.65.81,23.46,1.06,7.8.25,15.95-1.04,23.74-.89,3.09.06,19.25,1.13,20.55,3.08ZM147.54,57.53c-.2,4.89-4.35,2.91-4.59-.77-.27-4.06.37-11.14.8-15.36.9-8.6,2.67-18.05,5.53-26.18l-.42-1.13c-14.99-2.32-30.14.19-45.18-.97-5.08-.39-10.52-2.19-15.82-1.56-.63.2-2.5,7.87-2.71,8.96-.81,4.25-1.84,10.85-1.84,15.21,0,2.16,1.03,3.99.3,6-1.45.92-3.1.88-4.65,1.83-3.06,1.88-19.36,18.45-20.46,21.33-.14.36-.28.88.11.83,4.61-1.76,9.01-4.17,13.61-5.94,1.74-.67,7.04-2.87,8.44-2.94,1.3-.06,2.33.48,2.81,1.74-7.58,17.73-15.84,35.33-22.84,53.35-2.79,7.18-5.46,14.41-7.21,21.92,4.81-1.54,16.29-14.39,20.7-13.54.79.15,2.56.99,2.67,1.8-5.19,16.72-8.64,33.87-12.27,50.99-1.65,7.79-3.53,15.35-4.66,23.35-1.1,7.78-1.42,15.74-2.53,23.54,1.11.03,1.03-.99,1.4-1.61,2.38-3.99,10.47-20.63,13.63-22.09,1.45-.67,4.15-.44,4.83,1.21.24,9.2-.28,18.43.45,27.63.88,11.06,3.28,22.09,4.33,33.15,1.13,11.92.7,24.05,3.01,35.83,5.29-23.89,10.53-47.77,17.73-71.28.58-1.88,4.14-13.81,4.95-14.18.94-.43,3.57.41,4.09,1.51l6.66,29.22,11.43,39.9c.88.31.77-1.1.81-1.67.17-2.37-.52-5.02-.52-7.32.01-13.37,1.21-32.08,5.02-44.79,1.47-4.9,3.05-7.63,8.03-4.01,10.14,13.49,21.25,29.36,34.31,40.18.64.53,5.56,4.13,5.87,3.96-7.21-14.66-14.68-29.26-21.02-44.31-4.35-10.33-8.29-21.06-11.97-31.56-1.55-4.43-6.53-15.8-5.74-20.18.16-.87.54-1.69,1.02-2.42,4.76-1.69,8.95-.05,13.57,1.29,7.88,2.28,15.53,5.73,23.92,6.11-4.79-6.44-11.17-11.43-16.49-17.38-8.09-9.06-16.8-22.86-23.09-33.36-1.7-2.83-8.84-15.03-9.19-17.63-.94-6.83,6.59-3.61,10.07-1.77,2.54,1.34,19.47,12.45,20.62,11.69-.34-1.79-1.14-4.07-1.86-5.74-4.88-11.31-11.08-22.58-13.14-34.93-.93-5.57-.58-11.44-1.61-16.94-.12-.65.6-.91-.88-.98Z"/><path d="M147.54,57.53c1.48.08.76.33.88.98,1.03,5.51.68,11.37,1.61,16.94,2.06,12.35,8.26,23.62,13.14,34.93.72,1.66,1.52,3.95,1.86,5.74-1.15.75-18.08-10.35-20.62-11.69-3.48-1.84-11.01-5.06-10.07,1.77.36,2.6,7.5,14.79,9.19,17.63,6.29,10.5,15,24.3,23.09,33.36,5.32,5.95,11.7,10.94,16.49,17.38-8.39-.38-16.04-3.83-23.92-6.11-4.62-1.34-8.81-2.98-13.57-1.29-.48.73-.86,1.55-1.02,2.42-.79,4.38,4.18,15.74,5.74,20.18,3.68,10.51,7.62,21.24,11.97,31.56,6.34,15.05,13.81,29.65,21.02,44.31-.31.17-5.23-3.43-5.87-3.96-13.06-10.82-24.17-26.69-34.31-40.18-4.98-3.62-6.56-.89-8.03,4.01-3.81,12.71-5.01,31.41-5.02,44.79,0,2.29.68,4.94.52,7.32-.04.57.07,1.98-.81,1.67l-11.43-39.9-6.66-29.22c-.52-1.1-3.15-1.94-4.09-1.51-.81.37-4.37,12.3-4.95,14.18-7.2,23.51-12.43,47.39-17.73,71.28-2.31-11.78-1.88-23.91-3.01-35.83-1.05-11.06-3.45-22.08-4.33-33.15-.73-9.2-.21-18.43-.45-27.63-.68-1.65-3.38-1.88-4.83-1.21-3.17,1.46-11.25,18.1-13.63,22.09-.37.62-.29,1.64-1.4,1.61,1.11-7.8,1.43-15.76,2.53-23.54,1.13-8,3.01-15.56,4.66-23.35,3.63-17.12,7.09-34.27,12.27-50.99-.11-.81-1.88-1.64-2.67-1.8-4.41-.85-15.88,12.01-20.7,13.54,1.75-7.51,4.42-14.74,7.21-21.92,7-18.01,15.26-35.61,22.84-53.35-.47-1.26-1.51-1.79-2.81-1.74-1.4.06-6.71,2.27-8.44,2.94-4.59,1.77-9,4.18-13.61,5.94-.39.05-.24-.47-.11-.83,1.09-2.88,17.4-19.45,20.46-21.33,1.55-.95,3.2-.91,4.65-1.83.73-2.01-.3-3.85-.3-6,0-4.36,1.03-10.96,1.84-15.21.21-1.09,2.08-8.76,2.71-8.96,5.31-.64,10.74,1.17,15.82,1.56,15.04,1.16,30.19-1.34,45.18.97l.42,1.13c-2.86,8.13-4.63,17.58-5.53,26.18-.44,4.22-1.08,11.3-.8,15.36.25,3.68,4.39,5.66,4.59.77ZM137.55,71.4c-.77-1.33-2.77-2.46-3.68-3.63-6.25-8.04-10.34-15.56-11.05-25.96-.27-4.02,1-17.22-2.88-19.28-1.45-.77-8.62.8-10.32,1.49-.91.37-2.03,1.36-2.59,2.19-2.98,4.35-5.74,12.64-8.41,17.77-11.02,21.2-19.21,38.55-27.13,61.27-.55,1.57-2.08,2.88-1.91,4.72l1.94.76c4.47-4.41,10.06-9.61,16.59-9.96l-14.35,71.87c.03.74,2.15,1.65,2.83.97,1.46-1.29,17.78-18.51,18.83-17.36-1.32,11.05-1.39,22.25-2.32,33.31-.47,5.61-1.75,11.16-2.19,16.78-.16,2.1-1.01,8.72,1.07,9.62l1.9-.45c6.41-15.77,10.85-32.07,20.58-46.28l10.82,36.7c4.91,7.59,5.52-2.36,5.71-6.51.8-18.34-1.6-39.77-2.4-58.31-.06-1.35-.95-9.87-.53-10.23,5.12,4.4,9.13,10.44,15.04,14.06,2.3,1.41,3.26,1.82,3.86-1.28-4.36-7.99-9.85-15.36-14.4-23.22-4.36-7.52-12.4-20.97-14.97-28.75-.61-1.84-2.04-6.16-.22-7.52,1.1-.82,7.87-1.23,10.03-1.84,4.04-1.15,13.22-5.68,10.17-10.95Z" style="fill:#fff;"/><path d="M137.55,71.4c3.06,5.27-6.13,9.8-10.17,10.95-2.16.62-8.94,1.02-10.03,1.84-1.81,1.36-.38,5.68.22,7.52,2.57,7.78,10.62,21.23,14.97,28.75,4.55,7.86,10.04,15.23,14.4,23.22-.6,3.1-1.56,2.68-3.86,1.28-5.92-3.61-9.92-9.66-15.04-14.06-.42.36.47,8.88.53,10.23.8,18.54,3.21,39.97,2.4,58.31-.18,4.15-.8,14.1-5.71,6.51l-10.82-36.7c-9.73,14.21-14.17,30.5-20.58,46.28l-1.9.45c-2.08-.9-1.24-7.52-1.07-9.62.44-5.61,1.72-11.17,2.19-16.78.93-11.06,1-22.26,2.32-33.31-1.05-1.15-17.37,16.07-18.83,17.36-.68.68-2.8-.23-2.83-.97l14.35-71.87c-6.53.35-12.11,5.55-16.59,9.96l-1.94-.76c-.16-1.85,1.37-3.16,1.91-4.72,7.92-22.72,16.11-40.07,27.13-61.27,2.67-5.13,5.43-13.43,8.41-17.77.57-.83,1.68-1.81,2.59-2.19,1.7-.7,8.87-2.27,10.32-1.49,3.88,2.06,2.61,15.26,2.88,19.28.71,10.4,4.8,17.92,11.05,25.96.91,1.17,2.91,2.29,3.68,3.63ZM118.69,25.87c-.31-.33-7.43,1.02-8.3,1.35-4.43,1.67-5.13,7.98-6.9,11.93-7.65,17.03-16.71,33.46-23.78,50.77-1.75,4.28-3.11,8.76-4.49,13.17,1.83-.68,3.23-2.16,4.97-3.02s10.49-4.36,10.9-1.04c-4.66,23.18-7.24,46.59-13.74,69.31,3.47-2.22,15.44-16.3,19.12-15.95.55.05,1.67.73,1.92,1.24l-3.55,51.69c4.01-12.21,8.78-25.59,16.15-36.21,1.86-2.68,3.9-6.49,7.04-2.91,1.97,10.79,6.46,20.82,8.85,31.49.09.39-.02,1.62.66.91-.4-10.03-.28-20.12-.73-30.14-.53-11.57-3.61-29.51-2.53-40.21.09-.92.26-1.9.62-2.76,4.3-.88,6.79,3.45,9.09,6.18.35.41,1.22,1.72,1.82,1.05-1.46-2.46-3.36-4.7-4.79-7.16-4.54-7.82-18.06-30.89-18.46-38.58-.46-8.58,6.01-6.59,11.9-7.7,3.66-.69,7.4-2.48,9.98-5.18-5.02-6.68-11.03-13.3-13.54-21.51-2.65-8.67-.59-17.91-2.17-26.71Z"/><path d="M118.69,25.87c1.58,8.8-.48,18.04,2.17,26.71,2.51,8.21,8.52,14.83,13.54,21.51-2.58,2.7-6.32,4.49-9.98,5.18-5.89,1.11-12.35-.87-11.9,7.7.41,7.69,13.92,30.77,18.46,38.58,1.43,2.47,3.33,4.71,4.79,7.16-.6.67-1.47-.64-1.82-1.05-2.31-2.72-4.8-7.05-9.09-6.18-.36.86-.53,1.83-.62,2.76-1.08,10.7,2,28.63,2.53,40.21.46,10.03.33,20.11.73,30.14-.68.71-.57-.51-.66-.91-2.39-10.68-6.89-20.7-8.85-31.49-3.14-3.58-5.18.23-7.04,2.91-7.37,10.62-12.15,23.99-16.15,36.21l3.55-51.69c-.25-.51-1.37-1.19-1.92-1.24-3.68-.35-15.64,13.74-19.12,15.95,6.5-22.72,9.08-46.13,13.74-69.31-.41-3.32-9.14.17-10.9,1.04s-3.14,2.33-4.97,3.02c1.39-4.41,2.74-8.88,4.49-13.17,7.07-17.31,16.13-33.74,23.78-50.77,1.78-3.95,2.47-10.26,6.9-11.93.87-.33,8-1.68,8.3-1.35Z" style="fill:#fff;"/></svg>