<?xml version="1.0" encoding="UTF-8"?><svg id="Layer_8" xmlns="http://www.w3.org/2000/svg" viewBox="0 0 230.1 350.46"><path d="M87.14,295.26c-6.48,0-8.53-8.81-9.63-13.54l-.05-.2c-2.25-9.66-3.9-23.3-4.41-36.5-.56-14.51,1.05-29.37,4.92-45.23-2.64,4.12-4.93,8.71-6.2,11.4-.62,1.32-1.65,4.14-2.84,7.4-4.01,10.99-6.11,16.1-7.95,17.32-.54.36-1.21.72-2.06.72-.29,0-.58-.04-.88-.13-.05-.01-.1-.03-.14-.05-1.02-.42-1.9-1.14-2.46-2.03-1.84-2.9-.62-18.45-.6-18.6,1.25-13.26,3.73-26.56,6.12-39.43,1.93-10.36,3.92-21.08,5.26-31.67,0-.07.02-.13.04-.2l6.7-25.34c-6.21,6.62-10.25,15.69-11.85,19.74-.29.73-.55,1.82-.82,2.98-.88,3.71-1.97,8.33-5.79,8.33-.23,0-.48-.02-.73-.06-.18-.03-.36-.09-.52-.19-2.68-1.59-2.47-7.28-1.33-15.35l.12-.88c.78-5.9,2.24-11.54,3.64-16.99.45-1.74.9-3.48,1.33-5.24.72-2.94,1.41-5.83,2.1-8.7,4.03-16.86,7.83-32.78,15.18-49.28,1.27-2.86,2.71-5.75,4.35-8.74-1.35.84-2.68,1.8-3.98,2.75-1.79,1.3-3.63,2.64-5.53,3.64-2.7,1.42-4.77,2.11-6.34,2.11-1.93,0-2.82-1.04-3.18-1.66-1.89-3.24,1.27-10.15,6.59-19.53l.33-.57c1.32-2.33,2.82-4.58,4.27-6.75,1.8-2.69,3.66-5.47,5.12-8.36,1.07-2.12,1.99-4.42,2.87-6.64.94-2.36,1.91-4.81,3.08-7.06.26-.5.78-.81,1.33-.81.07,0,.14,0,.22.02,1.06.15,2.13.45,3.16.73,1.19.33,2.31.64,3.33.72.57.05,1.16.07,1.82.07,1.94,0,4.04-.21,6.08-.4,2.07-.2,4.2-.41,6.21-.41.29,0,.58,0,.87.01,11.95.39,26.67,1.74,34.38,2.51,11.34,1.14,15.4,5.43,20.71,15.27,1.96,3.63,4.96,10.85,6.33,14.88.37,1.09,1.49,6.07-.32,8.61-.67.94-1.67,1.46-2.83,1.46-1.09,0-2.03-.7-2.91-1.57,2.6,13.91,3.65,25.62,3.19,35.71-.02.52-.04,1.03-.06,1.53-.14,3.96-.27,7.71-3.39,11.33,1.38,2.4,2.64,4.86,3.86,7.24,2.66,5.19,5.17,10.09,8.9,14.56,12.42,14.87,31.19,37.35,47.22,51.76.62.56,1.26.97,1.83,1.34,1.07.7,2.18,1.41,2.46,2.8.25,1.25-.23,2.61-1.65,4.72-.28.42-.75.66-1.24.66-.07,0-.13,0-.2-.01l-3.49-.47c-.27-.04-.52-.14-.73-.31-4.47-3.53-9.39-6.67-14.14-9.7-3.75-2.39-7.62-4.87-11.28-7.53-5.28-3.84-10.23-8.19-15.01-12.39-2.52-2.22-5.1-4.47-7.73-6.67,2.08,3.34,4.15,6.51,6.2,9.49,1.12,1.63,2.92,3.99,5,6.72,5.75,7.53,12.91,16.91,13.95,21.57.51,2.29.17,4.28-1.02,5.92-2.96,4.08-10.26,4.77-16.12,5.34-1.81.17-3.37.32-4.46.55-7.16,1.48-15.45,5.29-21.95,8.5,3.62,2.4,7.48,4.58,11.23,6.69,4.68,2.63,9.51,5.36,13.95,8.56,10.29,7.41,22.69,17.16,27.16,26.81,1.73,3.72,1.83,7.24.29,9.65-.89,1.4-2.74,3.06-6.5,3.06h0c-.51,0-1.04-.03-1.59-.09-12.34-1.39-32.88-10.54-42.93-15.99-2.94-1.6-5.78-3.42-8.52-5.19-3-1.94-6.09-3.93-9.29-5.58-2.37,10.11-.67,20.89,1.12,29.29.28,1.3.84,3.18,1.5,5.36,2.21,7.33,3.8,13.18,2.65,16.24-.11.29-1.11,2.84-2.88,2.84-.04,0-.11,0-.15,0-.06,0-.11-.01-.17-.02-1-.2-1.76-.69-2.38-1.08-2.33-1.5-5.83-8.56-11.48-21.06-.89-1.96-1.66-3.66-2.13-4.63-.1-.2-.31-.44-.53-.68-.34-.37-.72-.8-.99-1.37-1.6-3.3-3.12-6.71-4.6-10-1.52-3.4-3.08-6.88-4.74-10.29l-4.4,36.28c-4.2,22.83-11.55,28.35-15.56,29.62-.8.25-1.58.38-2.33.38Z" style="fill:#e01a83;"/><path d="M83.2,3.44c2.13.31,4.47,1.29,6.59,1.47.63.05,1.28.07,1.94.07,4,0,8.39-.82,12.29-.82.28,0,.55,0,.82.01,10.53.34,23.76,1.45,34.28,2.51,10.98,1.1,14.56,5.26,19.54,14.49,1.93,3.56,4.91,10.78,6.23,14.65.64,1.88,1.51,8.07-1.73,8.09,0,0,0,0,0,0-1.47,0-3.61-3.58-4.54-3.58-.22,0-.37.19-.43.67,2.46,12.34,4.34,25.85,3.77,38.48-.23,4.98.08,8.85-3.8,12.72,4.59,7.71,7.59,15.93,13.47,22.96,13.74,16.46,31.62,37.76,47.37,51.92,2.89,2.6,5.63,2.14,2.4,6.91l-3.49-.47c-8.06-6.36-17.19-11.25-25.47-17.27-10.24-7.45-19.02-16.64-29.16-24.12,3.29,5.63,6.8,11.25,10.49,16.62,4.16,6.06,17.39,21.79,18.73,27.76,2.17,9.72-14.67,8.81-20.44,10.01-7.43,1.53-15.82,5.41-22.65,8.79-.71.35-1.37.18-1.42,1.34,8.55,5.97,18.28,10.21,26.73,16.3,8.77,6.31,22.17,16.49,26.68,26.23,2.55,5.49,1.27,10.58-4.84,10.58-.45,0-.92-.03-1.42-.08-11.66-1.31-31.82-10.09-42.38-15.82-6.69-3.62-12.69-8.4-19.51-11.61-2.93,10.29-1.55,21.49.64,31.76,1.03,4.8,5.69,16.8,4.21,20.76-.18.48-.92,1.86-1.48,1.86,0,0-.02,0-.03,0-.7-.14-1.27-.5-1.85-.87-3.07-1.98-10.87-20.58-13.08-25.1-.38-.77-1.15-1.28-1.52-2.05-3.96-8.17-7.31-16.69-11.58-24.71l-4.99,41.17c-1.49,8.1-5.77,25.6-14.52,28.37-.67.21-1.3.31-1.88.31-5.37,0-7.22-8.29-8.21-12.57-2.53-10.85-3.94-25.04-4.37-36.21-.68-17.53,1.86-34.31,6.55-51.22-.03,0-.06,0-.08,0-.85,0-1.8,1.63-2.27,2.27-3.09,4.19-6.08,9.81-8.32,14.54-2,4.24-7.68,22.4-10.26,24.11-.4.27-.79.47-1.23.47-.14,0-.29-.02-.45-.07-.71-.29-1.35-.8-1.76-1.44-1.26-1.99-.66-14.63-.38-17.66,2.25-23.87,8.38-47.27,11.37-71.05l8-30.3c-7.14,5.56-12.67,15.36-16,23.76-1.22,3.08-1.61,10.37-5.22,10.37-.15,0-.32-.01-.48-.04-2.59-1.53-.88-11.82-.49-14.74,1.02-7.65,3.14-14.72,4.94-22.07,4.94-20.18,8.66-38.57,17.19-57.72,1.95-4.39,4.22-8.65,6.65-12.78-5.1,1.64-9.35,6.1-13.88,8.48-2.58,1.36-4.4,1.94-5.65,1.94-6.29,0,2.41-14.88,5.04-19.52,2.93-5.18,6.73-9.86,9.43-15.17,2.26-4.45,3.71-9.41,5.94-13.68M83.19.44c-1.11,0-2.14.61-2.66,1.61-1.21,2.32-2.19,4.8-3.14,7.2-.87,2.19-1.77,4.46-2.81,6.52-1.43,2.81-3.18,5.44-5.04,8.21-1.47,2.19-2.98,4.46-4.33,6.84l-.32.57c-6.77,11.93-8.56,17.63-6.58,21.02.52.9,1.8,2.41,4.48,2.41,1.85,0,4.09-.73,7.04-2.28,1.62-.85,3.17-1.92,4.68-3.01-.56,1.15-1.09,2.29-1.6,3.43-7.41,16.62-11.23,32.61-15.27,49.53-.68,2.87-1.38,5.76-2.1,8.7-.43,1.75-.88,3.49-1.32,5.23-1.42,5.49-2.88,11.17-3.67,17.16-.03.24-.07.53-.12.86-1.29,9.14-1.37,14.83,2.06,16.85.32.19.67.32,1.04.38.33.05.65.08.97.08,5.01,0,6.36-5.71,7.25-9.49.26-1.1.51-2.14.76-2.77,1.15-2.9,3.58-8.46,7.17-13.74l-4.86,18.41c-.03.13-.06.26-.08.39-1.33,10.55-3.32,21.24-5.24,31.58-2.4,12.9-4.89,26.23-6.14,39.56-.01.16-1.36,16.08.83,19.54.73,1.15,1.85,2.08,3.16,2.61.09.04.19.07.28.1.43.13.87.19,1.31.19,1.26,0,2.2-.52,2.89-.97,2.18-1.44,4.13-5.99,8.54-18.06,1.13-3.09,2.19-6.02,2.79-7.27.41-.87.83-1.73,1.25-2.56-2.35,12.37-3.28,24.2-2.83,35.81.51,13.28,2.17,27.03,4.45,36.78l.05.19c1.11,4.77,3.42,14.7,11.09,14.7.9,0,1.84-.15,2.79-.45,10.09-3.19,14.71-20.59,16.57-30.68.01-.06.02-.12.03-.18l3.77-31.12c.85,1.86,1.69,3.72,2.51,5.56,1.48,3.3,3,6.72,4.62,10.05.37.76.86,1.32,1.23,1.72.12.13.28.31.32.38.45.91,1.21,2.6,2.09,4.56,6.03,13.33,9.37,19.98,12.04,21.7.64.41,1.61,1.04,2.9,1.3.11.02.23.04.34.05.08,0,.18.01.26.01,2.72,0,4.05-3.17,4.29-3.81,1.31-3.51-.26-9.34-2.62-17.2-.62-2.06-1.2-4-1.47-5.24-1.64-7.7-3.21-17.44-1.53-26.7,2.48,1.38,4.9,2.95,7.42,4.57,2.76,1.78,5.62,3.63,8.62,5.25,10.15,5.5,30.92,14.75,43.48,16.16.6.07,1.19.1,1.76.1,3.46,0,6.22-1.33,7.76-3.75,1.82-2.85,1.75-6.89-.2-11.09-4.63-9.97-17.21-19.88-27.65-27.4-4.51-3.25-9.38-5.99-14.09-8.65-2.96-1.67-5.99-3.38-8.91-5.2,5.98-2.88,13.05-5.94,19.2-7.21,1.01-.21,2.6-.36,4.29-.52,6.17-.59,13.84-1.32,17.2-5.95,1-1.38,2.03-3.73,1.28-7.13-1.03-4.61-6.8-12.42-14.22-22.15-2.07-2.71-3.86-5.05-4.96-6.66-.14-.2-.28-.4-.41-.6,4.72,4.15,9.61,8.42,14.84,12.23,3.7,2.69,7.59,5.18,11.36,7.58,4.72,3.02,9.61,6.14,14.02,9.62.42.33.93.55,1.46.62l3.49.47c.13.02.27.03.4.03.99,0,1.92-.49,2.48-1.32,1.23-1.81,2.31-3.77,1.88-5.86-.41-2.01-1.91-2.98-3.12-3.77-.54-.35-1.11-.72-1.64-1.2-15.95-14.34-34.68-36.77-47.07-51.61-3.62-4.34-6.1-9.17-8.71-14.28-1.08-2.11-2.19-4.27-3.39-6.41,2.81-3.76,2.95-7.64,3.08-11.42.02-.49.03-1,.06-1.52.43-9.41-.43-20.18-2.62-32.79.27.06.54.09.83.09,1.68-.01,3.11-.75,4.06-2.09,2.16-3.03,1.07-8.34.52-9.97-1.39-4.09-4.44-11.42-6.43-15.11-5.48-10.13-9.94-14.85-21.88-16.05-7.73-.77-22.49-2.13-34.49-2.52-.3,0-.61-.01-.92-.01-2.08,0-4.26.21-6.36.42-2,.2-4.07.4-5.93.4-.61,0-1.17-.02-1.7-.06-.88-.07-1.94-.36-3.05-.67-1.08-.3-2.2-.61-3.35-.77-.14-.02-.29-.03-.43-.03h0Z" style="fill:#e01a83;"/><path d="M158.66,21.17c1.93,3.56,4.91,10.78,6.23,14.65.64,1.88,1.51,8.07-1.73,8.09-1.81.01-4.64-5.44-4.98-2.91,2.46,12.34,4.34,25.85,3.77,38.48-.23,4.98.08,8.85-3.8,12.72,4.59,7.71,7.59,15.93,13.47,22.96,13.74,16.46,31.62,37.76,47.37,51.92,2.89,2.6,5.63,2.14,2.4,6.91l-3.49-.47c-8.06-6.36-17.19-11.25-25.47-17.27-10.24-7.45-19.02-16.64-29.16-24.12,3.29,5.63,6.8,11.25,10.49,16.62,4.16,6.06,17.39,21.79,18.73,27.76,2.17,9.72-14.67,8.81-20.44,10.01-7.43,1.53-15.82,5.41-22.65,8.79-.71.35-1.37.18-1.42,1.34,8.55,5.96,18.28,10.21,26.73,16.3,8.77,6.31,22.17,16.49,26.68,26.23,2.73,5.89,1.07,11.32-6.26,10.5-11.66-1.31-31.82-10.09-42.38-15.82-6.69-3.62-12.69-8.4-19.51-11.61-2.93,10.29-1.55,21.49.64,31.76,1.02,4.8,5.69,16.8,4.21,20.76-.18.49-.95,1.91-1.5,1.86-.7-.14-1.27-.5-1.85-.87-3.07-1.98-10.87-20.58-13.08-25.1-.38-.77-1.15-1.28-1.52-2.05-3.96-8.17-7.31-16.69-11.58-24.71l-4.99,41.17c-1.49,8.1-5.77,25.6-14.52,28.37-6.84,2.16-8.99-7.52-10.1-12.26-2.53-10.85-3.94-25.03-4.37-36.21-.68-17.53,1.86-34.31,6.55-51.22-.87-.11-1.87,1.6-2.36,2.26-3.09,4.19-6.08,9.81-8.32,14.54-2,4.24-7.68,22.4-10.26,24.11-.53.35-1.03.6-1.68.41-.71-.29-1.35-.8-1.76-1.44-1.26-1.99-.66-14.63-.38-17.66,2.25-23.87,8.38-47.27,11.37-71.05l8-30.3c-7.14,5.56-12.67,15.36-16,23.76-1.27,3.21-1.64,11-5.7,10.32-2.59-1.53-.88-11.82-.49-14.74,1.01-7.65,3.14-14.72,4.94-22.07,4.94-20.18,8.66-38.57,17.19-57.72,1.95-4.39,4.22-8.65,6.65-12.78-5.1,1.64-9.35,6.1-13.88,8.48-15.61,8.22-3.75-12.03-.61-17.59,2.93-5.18,6.73-9.86,9.43-15.17,2.26-4.45,3.71-9.41,5.94-13.68,2.13.31,4.47,1.29,6.59,1.47,4.75.39,10.33-.88,15.05-.73,10.53.34,23.76,1.45,34.28,2.51,10.98,1.1,14.55,5.26,19.54,14.49ZM158.1,32.59c-2.7-5.43-6.84-17.44-12.7-19.77-4.38-1.74-8.42-.85-12.75-1.2-11.51-.92-22.88-1.71-34.44-1.98-4.78-.11-11.09.38-14.78-2.67-2.94,15.07-15.29,25.88-18.72,40.59,5.5-2.49,10.05-7.02,15.45-9.57,1.61-.76,6.49-3.04,7.72-1.14s-4.98,10.65-6.03,12.86c-10.8,22.71-14.51,46.97-20.27,71.12-.57,2.38-2.21,4.5-2.1,7.16l8.81-12.37c1.27-1.53,7.75-8.68,9.05-8.92,4.15-.76,3.53,3.18,3.12,5.88-1.61,10.76-6.15,23.11-8.33,34.22-4.61,23.47-6.85,48.14-10.86,71.73l.97,2.11c1.46-6.83,13.8-32.13,20.02-33.96,5.44-1.6,2.96,6.61,2.42,9.62-2.21,12.13-5.43,24.14-5.76,36.56-.29,10.84,2.23,43.11,5.82,52.69.27.72,1.85,3.32,2.49,3.57,1.29.24,2.38-.86,3.27-1.65,10.33-9.19,11.47-42.86,13.14-56.76,1.09-9.12,1.52-22.61,9.86-7.65,3.6,6.46,6.07,13.9,9.31,20.56,2.31,4.73,5.69,9.15,7.34,14.38.94-.17.29-1.44.17-2.03-2.02-10.45-4.71-26.2-.73-36.31,1.41-3.59,3.62-2.32,6.85-1.39,17.43,9.94,38.72,23.86,58.93,26.67,5.45.76,2.96-3.21,1.24-6.25-4.32-7.66-20.04-19.83-27.74-24.91-7.91-5.23-17.77-9.56-25.28-15.41-1.76-1.37-2.1-3.83-.25-5.24,8.45-3.48,16.77-8.96,25.72-11.04,4.89-1.14,10.39-1.07,15.1-2.38,1.09-.3,2.83-.63,3.24-1.8.27-2.85-21.3-31.96-24.46-37.15-1.67-2.74-9.22-14.81-6.46-17.3,3.63-.67,5.97,1.68,8.72,3.48,10.73,7.01,19.62,17.9,30.53,24.57.5.31,1.45,1.44,1.64.3-4.14-3.62-7.36-8.73-11.01-12.96-6.82-7.89-15.86-15.75-21.82-24.09-2.76-3.85-3.91-7.6-6.06-11.61-1.28-2.39-6.22-9.58-6.66-11.25-1.56-5.87,3.69-3.5,4.59-6.69,1.69-5.97-.02-24.79-.91-31.61-.51-3.91-4.37-19.98-3.28-22.34,1.33-2.87,4.3.52,5.86,1.34Z"/><path d="M158.1,32.59c-1.56-.81-4.53-4.21-5.86-1.34-1.09,2.36,2.77,18.43,3.28,22.34.89,6.82,2.6,25.64.91,31.61-.9,3.19-6.15.81-4.59,6.69.44,1.67,5.38,8.86,6.66,11.25,2.14,4.01,3.3,7.76,6.06,11.61,5.97,8.34,15,16.2,21.82,24.09,3.65,4.23,6.87,9.34,11.01,12.96-.19,1.15-1.13.01-1.64-.3-10.91-6.67-19.8-17.56-30.53-24.57-2.76-1.8-5.1-4.15-8.72-3.48-2.76,2.48,4.79,14.56,6.46,17.3,3.16,5.19,24.73,34.3,24.46,37.15-.41,1.17-2.15,1.49-3.24,1.8-4.71,1.31-10.21,1.24-15.1,2.38-8.95,2.09-17.27,7.56-25.72,11.04-1.85,1.41-1.51,3.87.25,5.24,7.51,5.85,17.37,10.19,25.28,15.41,7.7,5.09,23.42,17.25,27.74,24.91,1.71,3.04,4.21,7.01-1.24,6.25-20.21-2.81-41.49-16.73-58.93-26.67-3.23-.93-5.43-2.19-6.85,1.39-3.98,10.11-1.29,25.86.73,36.31.11.59.77,1.86-.17,2.03-1.66-5.23-5.04-9.65-7.34-14.38-3.24-6.66-5.7-14.09-9.31-20.56-8.34-14.95-8.76-1.46-9.86,7.65-1.67,13.9-2.81,47.57-13.14,56.76-.89.79-1.98,1.9-3.27,1.65-.64-.25-2.22-2.84-2.49-3.57-3.59-9.58-6.11-41.85-5.82-52.69.33-12.43,3.55-24.44,5.76-36.56.55-3.01,3.02-11.22-2.42-9.62-6.23,1.83-18.56,27.13-20.02,33.96l-.97-2.11c4.02-23.59,6.25-48.26,10.86-71.73,2.18-11.11,6.72-23.45,8.33-34.22.4-2.7,1.03-6.65-3.12-5.88-1.3.24-7.77,7.39-9.05,8.92l-8.81,12.37c-.11-2.66,1.53-4.78,2.1-7.16,5.77-24.16,9.48-48.41,20.27-71.12,1.05-2.21,7.27-10.94,6.03-12.86s-6.11.38-7.72,1.14c-5.4,2.55-9.95,7.08-15.45,9.57,3.42-14.7,15.78-25.52,18.72-40.59,3.69,3.06,10,2.56,14.78,2.67,11.57.27,22.93,1.06,34.44,1.98,4.32.35,8.36-.54,12.75,1.2,5.86,2.33,10.01,14.34,12.7,19.77ZM140.56,77.61c-4.57-10.96-7.01-22.25-10.57-33.49-1.88-5.94-3.41-12.3-8.06-16.77-4.35-4.18-15.02-5.52-21.01-5.46.51,1.64.85,3.34.86,5.07.08,12.65-8.21,29.99-13.06,42.02-1.02,2.54-6.71,14.02-6.75,15.32-.02.97,1.22,2.97,2.36,2.92,7.87-2.5,15.38-6.54,23.67-7.46-2.21,10.14-7.98,18.97-11.31,28.71-3.6,10.53-4.49,19.91-6.78,30.37-.89,4.09-6.2,18.16-4.23,21.19.24.36.46.79.84,1.02,2.37,1.93,18.94-5.29,19.4-4.3-4.25,11.29-3.8,23.45-6.26,35.12-2.45,11.67-8.32,24.18-10.19,35.61-.21,1.29-.39,3.15,1.12,3.76,3.05,1.24,3.78-4.39,4.74-6.28,4.57-8.95,10.58-16.99,16.9-24.76,1.55-.46,7.43,6.81,8.69,8.34,1.09,1.32,3.33,7.24,5.79,3.35,3.34-5.28,1.67-32.37,3.43-33.34,4.88,1.81,9.93,11.81,16.15,9.47,8.45-3.18-.38-15.39-1.47-20.77-3.37-16.58,19.01-.33,22.92-4.04,2.34-2.21-.79-7.18-2.11-9.7-6.67-12.72-16.15-24.11-22.85-36.82-1.21-2.29-8.77-18.72-7.37-19.79,3.08-.63,10.37,5.38,12.79,3.23.6-.73,1.2-1.63,1.33-2.59.25-1.83-7.69-16.82-8.98-19.92Z" style="fill:#fff;"/><path d="M140.56,77.61c1.29,3.1,9.23,18.09,8.98,19.92-.13.96-.73,1.86-1.33,2.59-2.42,2.15-9.71-3.86-12.79-3.23-1.4,1.07,6.16,17.51,7.37,19.79,6.7,12.71,16.17,24.1,22.85,36.82,1.32,2.52,4.45,7.49,2.11,9.7-3.92,3.71-26.29-12.54-22.92,4.04,1.09,5.38,9.92,17.59,1.47,20.77-6.22,2.34-11.27-7.66-16.15-9.47-1.75.97-.08,28.06-3.43,33.34-2.47,3.9-4.71-2.02-5.79-3.35-1.25-1.53-7.13-8.8-8.69-8.34-6.32,7.77-12.32,15.8-16.9,24.76-.96,1.89-1.69,7.52-4.74,6.28-1.51-.61-1.34-2.47-1.12-3.76,1.88-11.43,7.74-23.95,10.19-35.61,2.45-11.67,2.01-23.82,6.26-35.12-.46-.99-17.03,6.23-19.4,4.3-.38-.23-.6-.66-.84-1.02-1.97-3.03,3.34-17.1,4.23-21.19,2.29-10.46,3.18-19.85,6.78-30.37,3.33-9.75,9.1-18.58,11.31-28.71-8.29.91-15.81,4.96-23.67,7.46-1.14.05-2.39-1.95-2.36-2.92.03-1.31,5.72-12.79,6.75-15.32,4.84-12.03,13.13-29.36,13.06-42.02-.01-1.73-.35-3.43-.86-5.07,5.99-.06,16.66,1.28,21.01,5.46,4.65,4.47,6.18,10.83,8.06,16.77,3.56,11.24,6,22.53,10.57,33.49ZM149.78,154.36c3.91.57,8.36,2.78,12.35,3.52-6.02-13.81-16.26-25.35-23.18-38.56-2.44-4.67-10.12-21.38-8.14-25.89,1.85-4.22,9.75.78,12.73,1.12-2.61-7.36-7.07-13.83-9.75-21.15-4.24-11.59-6.01-25.25-10.23-36.34-3.44-9.05-9.71-10.44-18.71-11.58-.48,3.55-.15,7.18-.65,10.75-1.3,9.21-6.36,20.95-9.83,29.85-1.85,4.76-3.92,9.66-6.38,14.17,5.86-.84,10.98-4.04,16.9-4.78,1.99-.25,8.52-.99,8.67,1.92.11,2.12-3.82,12.48-4.9,15.27-2.21,5.76-5.37,11.27-7.39,17.11-3.21,9.3-4.15,17.81-6.22,27.05-1.47,6.56-3.38,13.17-5.21,19.68,3.52-.25,19.12-7.57,20.56-2.39-.05,4.37-2.1,8.4-2.92,12.66-1.06,5.51-1.03,11.41-1.9,16.96-1.3,8.34-3.17,16.58-5.7,24.67l9.97-12.02c6.97-4.63,12.63,9.22,14.05,8.32,1.38-8.13,0-16.44,1.24-24.58.81-5.35,2.04-8.36,8.12-5.49,4.43,2.09,6.53,8.01,11.62,8.75,1.4-.73-4.21-12.58-4.66-14.55-1.61-7.08.69-15.76,9.52-14.47Z"/><path d="M149.78,154.36c-8.83-1.29-11.14,7.39-9.52,14.47.45,1.97,6.06,13.82,4.66,14.55-5.1-.74-7.19-6.66-11.62-8.75-6.08-2.87-7.31.14-8.12,5.49-1.24,8.14.14,16.45-1.24,24.58-1.43.9-7.08-12.95-14.05-8.32l-9.97,12.02c2.53-8.08,4.39-16.33,5.7-24.67.87-5.55.84-11.45,1.9-16.96.82-4.26,2.88-8.29,2.92-12.66-1.44-5.18-17.05,2.14-20.56,2.39,1.83-6.52,3.74-13.12,5.21-19.68,2.07-9.24,3.01-17.74,6.22-27.05,2.02-5.84,5.18-11.36,7.39-17.11,1.07-2.8,5.01-13.16,4.9-15.27-.15-2.92-6.68-2.18-8.67-1.92-5.92.75-11.04,3.94-16.9,4.78,2.45-4.51,4.53-9.41,6.38-14.17,3.46-8.9,8.53-20.65,9.83-29.85.5-3.56.17-7.19.65-10.75,9,1.14,15.26,2.53,18.71,11.58,4.22,11.09,5.99,24.75,10.23,36.34,2.68,7.32,7.13,13.79,9.75,21.15-2.98-.34-10.89-5.34-12.73-1.12-1.98,4.52,5.7,21.23,8.14,25.89,6.92,13.21,17.16,24.75,23.18,38.56-3.99-.74-8.44-2.95-12.35-3.52Z" style="fill:#fff;"/></svg>