<?xml version="1.0" encoding="UTF-8"?><svg id="Layer_9" xmlns="http://www.w3.org/2000/svg" viewBox="0 0 230.1 350.46"><path d="M170.06,342.46c-.36,0-.73-.06-1.09-.19-2.17-.74-5.09-5.63-11.19-18.67-.41-.88-.75-1.6-.98-2.08-2.02-4.17-4.01-8.37-6.01-12.58-6.6-13.92-13.42-28.32-21.54-41.75-.04-.07-.08-.14-.11-.21l-10.25-25.3-50.17,83.21c-.48.7-1.79,3.49-2.85,5.74-3.1,6.6-3.45,7.14-4.22,7.49-.5.23-1.01.34-1.51.34-.69,0-1.71-.22-2.62-1.29-1.34-1.58-1.85-4.48-1.56-6.26,4.11-24.89,9.85-52.69,16.15-78.29,1.08-4.4,2.56-9.18,4.13-14.24,2.55-8.25,5.18-16.75,6.18-23.98l-9.48,13.38s-.06.08-.09.12c-7.07,8.11-13.02,15.18-18.2,21.61-.27.33-.71,1.02-1.18,1.75-2.27,3.53-4.18,6.24-6.38,6.24-1.07-.04-1.88-.46-2.45-1.21-1.47-1.96-.77-5.7.1-9.09l.07-.25c2.48-9.85,5.24-19.83,7.91-29.48,4.03-14.58,8.2-29.65,11.49-44.58.01-.06.03-.12.05-.17l8.2-23.37c-1.01,1.81-2.06,3.6-3.17,5.33-1.99,3.1-8.72,13.27-11.66,14-.43.11-.85.16-1.25.16-2.27,0-3.9-1.7-4.36-4.54-.03-.21-.02-.42.03-.62l18.65-71.15s.02-.08.04-.12l7.1-19.89c-1.03.81-2,1.81-2.92,2.75-.36.37-.72.73-1.06,1.08-2.41,2.38-4.63,5.06-6.78,7.66-1.76,2.13-3.59,4.33-5.53,6.39-.15.16-.34.29-.54.37-.26.1-.55.16-.84.16-1.74,0-3.67-1.99-4-3.29-.4-1.57.52-4.75,2.59-10.84.45-1.31.83-2.44,1.02-3.1l.67-2.41c3.33-12.07,8.91-32.28,16.66-39.64,2.45-2.32,5.26-3.45,7.98-4.54,1.45-.58,2.83-1.13,4.15-1.85-1.69-4.2-.92-8.47-.17-12.62.24-1.34.5-2.73.65-4.07.03-.23-.07-.79-.15-1.23-.25-1.44-.66-3.86,1.48-4.72.54-.22,1.07-.33,1.58-.33,1.77,0,2.72,1.27,3.28,2.03.11.14.26.35.35.45.18.06.89.24,3.04.24,4.15,0,10.79-.64,15.64-1.1,2.56-.24,4.59-.44,5.67-.49l1.71-.08c2.26-.11,4.82-.23,7.46-.23,6.63,0,11.11.8,14.12,2.53,1.17.67,1.87,1.55,2.1,2.61.4,1.89-.89,3.65-1.93,5.06-.37.5-.72.98-.9,1.33-1.98,3.89-5.81,13.45-5.86,16.29-.01.73,2,1.73,2.87,2.16l.37.18c3.55,1.78,10.15,3.03,14.83,3.34.39.03.8.04,1.23.04,1.25,0,2.68-.09,4.21-.18,1.71-.1,3.48-.21,5.21-.21,3.39,0,5.78.43,7.5,1.36,1.44.77,2.11,3.28,3.55,10.94.48,2.56.98,5.2,1.37,6.18.5,1.26,1.41,2.58,2.29,3.85.47.69.94,1.37,1.35,2.03.98,1.6,2.21,3.47,3.51,5.46,3.54,5.4,7.55,11.52,9.29,16.15.89,2.36.79,4.52-.3,6.09-.97,1.41-2.63,2.18-4.66,2.18-.68,0-1.4-.09-2.14-.26-3.4-.78-6.77-2.29-10.04-3.75-2.53-1.13-5.13-2.29-7.7-3.09.13.4.25.8.38,1.19.33,1.08.65,2.09,1.11,3.01,2.36,4.72,5.28,9.57,8.1,14.26,3.9,6.48,7.94,13.18,10.82,20.02,1.12,2.66,1.99,5.54,2.84,8.32.79,2.61,1.61,5.31,2.61,7.73,2.35,5.69,5.71,11.2,8.97,16.52,2.5,4.09,5.08,8.32,7.13,12.52.86,1.77,1.69,5.13.45,7.11-.61.97-1.62,1.5-2.84,1.5-.23,0-.48-.02-.75-.06-2.29-.36-6.01-2.61-9.6-4.79-1.73-1.05-3.37-2.04-4.45-2.56-6.6-3.17-13.21-6.12-18.6-8.31l-.29-.12c-1.17-.48-2.3-.93-3.03-1.16.14.93.53,2.42.7,3.08,4.59,17.59,11.38,35.25,17.94,52.32,5.97,15.54,12.15,31.61,16.64,47.55l.05.17c1.3,4.62,2.53,10.27.42,13.05-.78,1.02-1.92,1.57-3.31,1.57h0c-.39,0-.8-.04-1.22-.13-5.56-1.08-13.39-9.55-19.69-16.35-1.7-1.84-3.17-3.43-4.31-4.55-5.43-5.33-10.76-10.36-16.41-15.68l-1.34-1.27c0,2.7.21,7.11.53,11.11,1.25,15.96,3.34,34.95,6.37,58.04.39,2.98,1.4,6.98,2.48,11.22,1.51,5.97,3.07,12.15,2.94,15.89-.08,2.19-1.07,7.89-4.64,7.89Z" style="fill:#e01a83;"/><path d="M92.65,3.74c1.49,0,2.02,1.66,2.77,2.22.49.36,1.93.5,3.91.5,6.38,0,18.29-1.45,21.37-1.59,2.55-.11,5.79-.31,9.11-.31,4.96,0,10.1.45,13.38,2.33,3.43,1.97-.31,5.03-1.32,7.02-1.72,3.39-5.97,13.53-6.02,16.95-.03,1.82,2.58,2.96,4.06,3.7,3.95,1.99,10.95,3.2,15.41,3.49.42.03.86.04,1.33.04,2.7,0,6.19-.39,9.41-.39,2.62,0,5.07.26,6.79,1.18,1.69.91,3.09,13.48,4.23,16.35.84,2.12,2.57,4.17,3.76,6.11,3.59,5.86,10.34,15.17,12.67,21.35,1.41,3.73-.24,6.24-3.55,6.24-.56,0-1.16-.07-1.81-.22-6.86-1.57-13.68-6.28-20.64-7.56,1.28,2.2,1.58,4.8,2.7,7.05,5.6,11.24,13.95,22.47,18.88,34.19,2.14,5.09,3.36,10.99,5.44,16.04,4.22,10.23,11.48,19.57,16.13,29.13.98,2.02,1.85,6.46-1.04,6.46-.16,0-.34-.01-.52-.04-3.08-.48-10.37-5.65-13.63-7.22-5.85-2.81-12.7-5.92-18.69-8.35-2.27-.92-3.73-1.53-4.55-1.53-1.24,0-1.05,1.37-.08,5.1,8.81,33.72,25.2,66.55,34.59,99.9.76,2.71,3.74,12.88-1.39,12.88-.28,0-.6-.03-.93-.1-6.57-1.29-18.1-15.46-23.24-20.5-6.58-6.46-13.2-12.65-19.94-19.01-.84.76,0,12.32.17,14.36,1.47,18.65,3.94,39.53,6.38,58.12.96,7.35,5.63,20.82,5.4,26.86-.07,1.8-.91,6.44-3.14,6.44-.19,0-.39-.03-.6-.11-2.71-.93-9.62-16.49-11.31-19.98-8.85-18.24-17.04-36.95-27.61-54.45l-11.37-28.08-51.72,85.78c-1.12,1.61-5.7,12.31-6.4,12.63-.32.14-.62.21-.89.21-2.13,0-3.01-3.93-2.7-5.81,4.17-25.24,10.01-53.34,16.13-78.17,3.03-12.29,9.41-28.37,10.58-40.43.05-.56.19-2.19-.66-2.25l-11.78,16.62c-6.07,6.96-12.34,14.33-18.23,21.65-1.24,1.54-4.29,7.43-6.39,7.43-.01,0-.03,0-.04,0-3.14-.11-1.19-7.09-.78-8.69,6.23-24.73,13.93-49.24,19.41-74.1l12.88-36.7-2.79,3.57c-2.52,4.59-4.91,9.38-7.73,13.77-1.6,2.49-8.53,12.8-10.76,13.35-.32.08-.62.12-.89.12-1.74,0-2.59-1.5-2.88-3.28l18.65-71.15,8.37-23.43c-3.06.65-5.51,3.62-7.71,5.79-4.45,4.39-8.06,9.54-12.35,14.08-.09.04-.19.05-.29.05-.96,0-2.36-1.44-2.54-2.16-.49-1.95,2.87-10.57,3.6-13.17,3.02-10.83,8.92-33.77,16.92-41.37,3.82-3.63,8.75-4.11,13.04-6.87-2.92-5.47-.61-11.36.04-17.11.15-1.34-1.1-4.13.4-4.73.38-.15.72-.22,1.02-.22M92.65.74c-.69,0-1.41.15-2.13.43-3.26,1.3-2.64,4.98-2.4,6.36.05.28.12.7.13.87-.15,1.26-.38,2.55-.63,3.91-.69,3.77-1.45,7.96-.21,12.14-.92.43-1.87.81-2.86,1.21-2.85,1.14-5.81,2.32-8.46,4.84-8.05,7.65-13.7,28.11-17.07,40.33-.24.86-.46,1.66-.67,2.41-.17.63-.57,1.79-.99,3.03-2.26,6.64-3.12,9.73-2.62,11.69.45,1.76,2.85,4.42,5.45,4.42.48,0,.95-.09,1.39-.26.41-.16.78-.41,1.09-.73,1.98-2.09,3.81-4.31,5.59-6.46,2.02-2.44,3.94-4.75,6.04-6.9l-4.94,13.84c-.03.08-.05.16-.08.25l-18.65,71.15c-.11.4-.13.82-.06,1.24.69,4.28,3.47,5.8,5.84,5.8.52,0,1.07-.07,1.61-.21,1.52-.38,3.27-1.69,7.29-7.06.5-.67,1-1.35,1.48-2.02l-3.93,11.19c-.04.11-.07.23-.1.35-3.28,14.89-7.45,29.95-11.47,44.51-2.67,9.66-5.43,19.64-7.92,29.51l-.06.25c-1.01,3.92-1.69,7.89.15,10.36.83,1.12,2.08,1.76,3.5,1.81.04,0,.11,0,.15,0,2.96,0,5.04-2.87,7.64-6.92.43-.66.87-1.35,1.09-1.62,5.17-6.41,11.11-13.47,18.16-21.56.07-.08.13-.15.19-.24l5.5-7.76c-1.26,5.44-3.08,11.31-4.86,17.05-1.57,5.08-3.06,9.88-4.15,14.33-6.32,25.63-12.06,53.48-16.18,78.4-.35,2.13.19,5.47,1.9,7.48,1,1.18,2.33,1.82,3.76,1.82.71,0,1.43-.16,2.13-.48,1.34-.61,1.8-1.49,4.96-8.22.96-2.05,2.29-4.87,2.67-5.44.03-.04.08-.12.1-.16l48.62-80.64,9.12,22.52c.06.15.13.29.21.43,8.08,13.36,14.88,27.72,21.46,41.61,1.96,4.14,3.99,8.41,6.02,12.6.23.48.57,1.19.97,2.06,7.25,15.51,9.67,18.63,12.06,19.45.52.18,1.05.27,1.57.27,4.58,0,6.02-6.1,6.13-9.33.15-3.96-1.37-9.96-2.98-16.31-1.02-4.01-2.07-8.16-2.44-11.05-3.03-23.07-5.11-42.03-6.36-57.96-.21-2.65-.36-5.25-.45-7.45,5.18,4.88,10.12,9.55,15.13,14.47,1.12,1.1,2.57,2.67,4.26,4.5,7.91,8.55,14.92,15.72,20.5,16.81.52.1,1.03.15,1.51.15,1.85,0,3.45-.77,4.5-2.16,2.49-3.29,1.31-9.11-.18-14.36l-.05-.17c-4.51-16.01-10.7-32.11-16.68-47.68-6.55-17.04-13.32-34.65-17.89-52.16-.03-.11-.06-.21-.08-.32.13.05.27.11.4.16l.29.12c5.36,2.17,11.94,5.11,18.52,8.27,1.02.49,2.62,1.46,4.32,2.49,4.56,2.77,7.74,4.61,10.14,4.98.33.05.67.08.98.08,1.74,0,3.24-.8,4.11-2.21,1.69-2.69.56-6.65-.37-8.57-2.08-4.27-4.68-8.53-7.2-12.65-3.22-5.28-6.56-10.73-8.86-16.31-.97-2.35-1.74-4.89-2.56-7.59-.86-2.82-1.74-5.74-2.89-8.47-2.92-6.94-6.98-13.69-10.92-20.22-2.94-4.88-5.71-9.48-8.04-14.15-.17-.35-.32-.72-.47-1.11,1.55.61,3.12,1.31,4.73,2.04,3.33,1.49,6.77,3.03,10.31,3.84.85.2,1.69.29,2.48.29,2.54,0,4.63-1,5.89-2.83,1.37-1.98,1.54-4.63.47-7.47-1.81-4.79-5.86-10.98-9.44-16.45-1.29-1.97-2.51-3.84-3.48-5.41-.44-.71-.92-1.42-1.39-2.1-.83-1.21-1.69-2.45-2.13-3.55-.34-.84-.86-3.64-1.28-5.9-1.49-7.96-2.21-10.85-4.32-11.98-1.95-1.05-4.56-1.54-8.21-1.54-1.77,0-3.56.11-5.3.21-1.5.09-2.91.18-4.12.18-.43,0-.8-.01-1.14-.03-4.42-.29-10.92-1.51-14.26-3.18l-.38-.19c-.49-.24-1.55-.76-2-1.16.33-2.82,3.65-11.3,5.67-15.27.12-.24.47-.71.77-1.12,1.15-1.56,2.72-3.71,2.19-6.26-.22-1.03-.88-2.49-2.82-3.6-3.25-1.86-7.97-2.73-14.87-2.73-2.68,0-5.26.13-7.54.24-.59.03-1.16.06-1.7.08-1.12.05-3.16.24-5.75.49-4.82.46-11.41,1.09-15.49,1.09-1.17,0-1.84-.05-2.21-.1-.64-.86-1.97-2.62-4.47-2.62h0Z" style="fill:#e01a83;"/><path d="M180.85,61.34c3.59,5.86,10.34,15.17,12.67,21.35,1.64,4.35-.87,7.05-5.36,6.02-6.86-1.57-13.68-6.28-20.64-7.56,1.28,2.2,1.58,4.8,2.7,7.05,5.6,11.24,13.95,22.47,18.88,34.19,2.14,5.09,3.36,10.99,5.44,16.04,4.22,10.23,11.48,19.57,16.13,29.13,1.04,2.14,1.95,6.97-1.57,6.42-3.08-.48-10.37-5.65-13.63-7.22-5.85-2.81-12.7-5.92-18.69-8.35-5.7-2.31-6.25-2.63-4.63,3.58,8.81,33.72,25.2,66.55,34.59,99.9.8,2.86,4.08,14.04-2.32,12.79-6.57-1.29-18.1-15.46-23.24-20.5-6.58-6.46-13.2-12.65-19.94-19.01-.84.76,0,12.32.17,14.36,1.47,18.65,3.94,39.53,6.38,58.12.96,7.35,5.63,20.82,5.4,26.86-.07,1.95-1.06,7.26-3.74,6.34-2.71-.93-9.62-16.49-11.31-19.98-8.85-18.24-17.04-36.95-27.61-54.45l-11.37-28.08-51.72,85.78c-1.12,1.61-5.7,12.31-6.4,12.63-2.78,1.26-3.94-3.48-3.59-5.6,4.17-25.24,10.01-53.34,16.13-78.17,3.03-12.29,9.41-28.37,10.58-40.43.05-.56.19-2.19-.66-2.25l-11.78,16.62c-6.07,6.96-12.34,14.33-18.23,21.65-1.25,1.55-4.33,7.5-6.43,7.43-3.14-.11-1.19-7.09-.78-8.69,6.23-24.73,13.93-49.24,19.41-74.1l12.88-36.7-2.79,3.57c-2.51,4.59-4.9,9.38-7.73,13.77-1.6,2.49-8.53,12.8-10.75,13.35-2.34.58-3.44-1.1-3.77-3.16l18.65-71.15,8.36-23.43c-3.05.65-5.51,3.62-7.71,5.79-4.45,4.39-8.06,9.54-12.35,14.08-.94.37-2.63-1.31-2.84-2.1-.49-1.95,2.87-10.57,3.6-13.17,3.02-10.83,8.92-33.77,16.92-41.37,3.82-3.63,8.75-4.11,13.04-6.87-2.92-5.47-.61-11.36.04-17.11.15-1.34-1.1-4.13.4-4.73,2.31-.92,2.89,1.33,3.79,2,2.05,1.53,21.24-.91,25.28-1.09,6.38-.28,17.02-1.12,22.48,2.02,3.43,1.97-.31,5.03-1.32,7.02-1.72,3.39-5.97,13.53-6.02,16.95-.03,1.82,2.58,2.96,4.06,3.7,3.95,1.99,10.95,3.2,15.41,3.49,4.76.31,13.33-1.43,17.54.83,1.69.91,3.09,13.48,4.23,16.35.84,2.12,2.57,4.17,3.76,6.11ZM139.55,10.02c-2.1-3.04-37.79,1.91-43.44,1.11.7,3.98,3.65,15.68,1.91,18.9-.88,1.63-4.77.68-7.28,1.62-8.2,3.07-11.7,6.56-15.42,14.59l-9.54,28.74c.27.92.92.41,1.44-.05,4.46-3.99,11.79-15.06,18.55-8.89l-24.58,88.76c1.57-.58,2.75-2.99,3.68-4.47,2.65-4.27,14.32-25.83,18.45-26.37,5.84-.77,3.5,5.37,2.49,8.98-2.95,10.58-7.84,21-11.15,31.5-6.76,21.48-12.2,44.46-18.11,66.22-.73,2.69-1.07,5.83-2.09,8.54,4.26-3.99,8.67-9,12.36-13.64,4.51-5.66,9.13-13.96,14.16-18.73,2.13-2.02,4.58-4.75,7.42-1.99,1.42,1.38.49,7.47.16,9.71-1.9,12.88-6.88,26.07-9.82,38.8l-13.25,64.45,53.08-86.13c5.22-1.89,7.69,10.56,9.12,14.04,9.62,23.45,23.42,45.48,34.12,68.32,1.21,2.58,2.64,6.22,3.26,8.9l1.18-.05c-3.06-10.14-3.09-21-4.34-31.49-1.99-16.62-5.51-34.99-5.87-51.58-.13-5.95-1.45-16.29,7.47-10.32,10.51,7.04,22.1,21.59,31.27,30.69.81.81,7.87,7.58,8.33,7.27l-11.01-33.23c-7.53-17.97-13.51-36.45-19.24-55.05-1.67-5.44-6.51-16.48-6.64-21.63-.11-4.37,2.14-6.49,6.53-5.68,4.65.86,17.29,6.62,22.18,8.86,2.76,1.27,5.23,3.03,7.97,4.32-5.43-9.48-10.74-18.62-14.66-28.86-1.61-4.2-2.58-8.7-4.31-12.86-4.82-11.6-20.67-33.51-21.53-44.22-.43-5.31,3.02-3.68,6.94-2.6,6.57,1.8,12.76,5.89,19.52,7.27l-15.59-26.05c-1.6-2.4-1.88-13.25-3.27-14.53-2.12-1.96-11.39-.11-14.52-.36-5.62-.44-15.01-2.46-19.65-5.62-4.3-2.93-4.77-4.56-3.49-9.46,1.51-5.8,4.73-12.28,7.2-17.75Z"/><path d="M139.55,10.02c-2.46,5.47-5.69,11.95-7.2,17.75-1.27,4.9-.8,6.54,3.49,9.46,4.64,3.16,14.03,5.18,19.65,5.62,3.13.25,12.4-1.6,14.52.36,1.38,1.28,1.67,12.13,3.27,14.53l15.59,26.05c-6.76-1.38-12.95-5.47-19.52-7.27-3.91-1.07-7.36-2.71-6.94,2.6.86,10.7,16.71,32.61,21.53,44.22,1.73,4.16,2.7,8.66,4.31,12.86,3.92,10.24,9.23,19.39,14.66,28.86-2.74-1.29-5.2-3.05-7.97-4.32-4.89-2.24-17.52-8.01-22.18-8.86-4.39-.81-6.64,1.31-6.53,5.68.13,5.15,4.96,16.2,6.64,21.63,5.73,18.6,11.71,37.08,19.24,55.05l11.01,33.23c-.46.3-7.52-6.47-8.33-7.27-9.18-9.1-20.76-23.66-31.27-30.69-8.92-5.97-7.6,4.36-7.47,10.32.36,16.59,3.88,34.97,5.87,51.58,1.25,10.49,1.28,21.34,4.34,31.49l-1.18.05c-.63-2.67-2.06-6.32-3.26-8.9-10.7-22.84-24.5-44.87-34.12-68.32-1.43-3.48-3.89-15.93-9.12-14.04l-53.08,86.13,13.25-64.45c2.94-12.73,7.91-25.92,9.82-38.8.33-2.23,1.27-8.32-.16-9.71-2.84-2.76-5.29-.03-7.42,1.99-5.03,4.78-9.66,13.07-14.16,18.73-3.69,4.63-8.1,9.65-12.36,13.64,1.02-2.71,1.36-5.85,2.09-8.54,5.91-21.76,11.35-44.74,18.11-66.22,3.31-10.51,8.2-20.93,11.15-31.5,1.01-3.62,3.35-9.75-2.49-8.98-4.13.54-15.8,22.1-18.45,26.37-.92,1.48-2.1,3.89-3.68,4.47l24.58-88.76c-6.75-6.17-14.09,4.89-18.55,8.89-.52.46-1.17.97-1.44.05l9.54-28.74c3.73-8.03,7.23-11.52,15.42-14.59,2.51-.94,6.4,0,7.28-1.62,1.74-3.23-1.21-14.92-1.91-18.9,5.65.79,41.34-4.16,43.44-1.11ZM125.54,39.85c-1.91-2.31-7.32-2.01-9.96-1.03-2.82,1.04-3.9,3.21-7.21,3.2.72,9.87-5.63,17.39-9.48,25.86-5.01,11.01-12.22,26.56-15.22,37.99-.54,2.07-1.3,4.04,1.05,5.1,5.77-3.13,11.14-7.09,17.51-8.99l.94.91-4.29,35.69c-1.86,10.35-5.06,20.15-7.49,30.41-.52,2.2-2.4,9.7-2.22,11.31.18,1.6,2.3,1.46,3.41,1.12,6.1-4.34,11.8-9.35,18.43-12.8.28.32-.38,7.27-.56,8.47-2.42,16.33-6.95,32.09-11.05,48.03-.89,3.46-3.54,9.58-3.82,12.79-.23,2.65,1.22,5.45,3.71,3.42,6.37-13.79,17.8-24.91,27.62-36.31.83,0,.86.66,1.12,1.22,1.98,4.15,4.68,10.84,5.94,15.23,1.66,5.77,5.11,26.58,9.33,29.68.61.45,1.22.85,2.01.84.85-1.55,1.65-2.78,2.17-4.54,1.21-4.07,2.28-12.18,2.8-16.6,1.63-13.82-.73-27.79.87-41.54,2.44-1.6,20.77,16.49,23.53,18.97,1.59-.35,2.16-1.73,2.24-3.27-3.76-8.83-6.97-17.99-10.82-26.76-6.82-15.53-21.17-38.67-20.62-55.61.04-1.12.26-2.19.52-3.27.62-1.69,11.87,5.66,12.92,6.19,2.04,1.03,12.06,6.28,13.55,4.88.7-.9.72-1.91.71-2.98-.04-3.35-8.4-14.5-10.63-18.27-12.47-21.07-22.07-43.08-33.77-64.25-.52-.94-2.69-4.41-3.26-5.1Z" style="fill:#fff;"/><path d="M125.54,39.85c.57.69,2.74,4.15,3.26,5.1,11.7,21.17,21.31,43.18,33.77,64.25,2.22,3.76,10.59,14.92,10.63,18.27.01,1.08-.01,2.08-.71,2.98-1.49,1.4-11.51-3.86-13.55-4.88-1.05-.53-12.31-7.88-12.92-6.19-.26,1.08-.49,2.15-.52,3.27-.55,16.94,13.8,40.08,20.62,55.61,3.85,8.78,7.06,17.93,10.82,26.76-.08,1.54-.66,2.92-2.24,3.27-2.76-2.48-21.09-20.57-23.53-18.97-1.6,13.75.76,27.72-.87,41.54-.52,4.42-1.58,12.53-2.8,16.6-.52,1.75-1.33,2.98-2.17,4.54-.79.01-1.4-.4-2.01-.84-4.22-3.09-7.67-23.91-9.33-29.68-1.26-4.39-3.96-11.07-5.94-15.23-.27-.56-.29-1.23-1.12-1.22-9.82,11.4-21.26,22.52-27.62,36.31-2.49,2.03-3.94-.77-3.71-3.42.28-3.21,2.93-9.33,3.82-12.79,4.1-15.94,8.63-31.7,11.05-48.03.18-1.19.84-8.15.56-8.47-6.63,3.45-12.34,8.46-18.43,12.8-1.12.34-3.23.48-3.41-1.12-.18-1.62,1.7-9.11,2.22-11.31,2.44-10.26,5.63-20.06,7.49-30.41l4.29-35.69-.94-.91c-6.37,1.9-11.73,5.86-17.51,8.99-2.35-1.06-1.59-3.03-1.05-5.1,3-11.44,10.21-26.98,15.22-37.99,3.85-8.47,10.2-15.99,9.48-25.86,3.31,0,4.39-2.16,7.21-3.2,2.64-.98,8.05-1.28,9.96,1.03ZM138.45,74.03c-5.32-10.38-10.33-20.83-15.35-31.35-2.05-2.27-6.67-.56-8.76.96-5.03,3.65-4.65,9.47-6.85,14.93-1.44,3.57-3.92,7.33-5.49,11.04-4.75,11.24-9.23,22.62-13.69,33.98,1.01,1.18,15.73-9.32,18.59-4.01-1.02,25.59-5.31,50.55-12.5,75.08,4.45-2.21,13.42-11.14,18.36-10.15.59.12,1.44.57,1.83,1.02,1.06,1.22.01,10.64-.27,12.94-1,8.31-2.8,18.1-4.81,26.26-1.58,6.41-4.52,12.58-5.16,19.31l21.55-24.29c.89-1,3.31-.03,4.16.62.65.5,5.58,12.84,6.22,14.68,2.89,8.28,4.24,17.01,7.04,25.32.28.83-.39,1.41,1.18,1.4.46-6.81,1.97-13.54,2.27-20.38.37-8.19-2.33-29.13,1.03-35.33,2.38-4.38,11.81,2.77,14.33,4.61,1.91,1.39,3.79,3.58,5.77,5.03,1.16-.87-.89-2.42-1.35-3.53-7.21-17.42-23.37-46.67-24.98-64.03-.24-2.57-.68-11.83,1.36-13.18,9.19-.99,15.8,6.75,24,9.25-10.59-16.13-19.69-33.06-28.48-50.2Z"/><path d="M138.45,74.03c8.79,17.14,17.88,34.06,28.48,50.2-8.2-2.49-14.81-10.23-24-9.25-2.04,1.35-1.6,10.6-1.36,13.18,1.61,17.35,17.78,46.61,24.98,64.03.46,1.11,2.5,2.66,1.35,3.53-1.98-1.45-3.87-3.64-5.77-5.03-2.53-1.85-11.96-8.99-14.33-4.61-3.36,6.2-.66,27.14-1.03,35.33-.31,6.84-1.82,13.57-2.27,20.38-1.57,0-.9-.57-1.18-1.4-2.8-8.31-4.15-17.04-7.04-25.32-.64-1.84-5.56-14.18-6.22-14.68-.85-.65-3.28-1.62-4.16-.62l-21.55,24.29c.64-6.73,3.58-12.89,5.16-19.31,2.01-8.17,3.81-17.95,4.81-26.26.28-2.3,1.32-11.73.27-12.94-.39-.45-1.23-.9-1.83-1.02-4.94-.99-13.91,7.94-18.36,10.15,7.2-24.53,11.48-49.49,12.5-75.08-2.86-5.31-17.58,5.19-18.59,4.01,4.45-11.36,8.94-22.73,13.69-33.98,1.57-3.71,4.05-7.47,5.49-11.04,2.2-5.45,1.82-11.28,6.85-14.93,2.1-1.52,6.72-3.23,8.76-.96,5.03,10.52,10.03,20.97,15.35,31.35Z" style="fill:#fff;"/></svg>