<?xml version="1.0" encoding="UTF-8"?><svg id="Layer_6" xmlns="http://www.w3.org/2000/svg" viewBox="0 0 230.1 350.46"><path d="M149.98,327.8c-.28-.03-.54-.14-.76-.31-5.25-4.09-8.52-9.94-11.69-15.6-.77-1.38-1.54-2.75-2.33-4.08-15.44-26.05-26.7-54.29-34.79-75.97-.29-.77-.64-1.57-1.02-2.41-.41-.91-.83-1.87-1.21-2.87-.31,1.46-.54,2.99-.77,4.48-.32,2.12-.66,4.32-1.21,6.38-1.34,4.99-3.22,9.94-5.04,14.72-2.57,6.77-5.23,13.76-6.47,21.14-.11.65-.18,1.99-.25,3.41-.31,6.2-.68,10.33-2.85,11.35-.37.17-.78.26-1.22.26-1.38,0-2.86-.88-3.55-1.71-1.16-1.4-4.18-15.67-4.21-15.81-2.18-11.33-3.61-24.49-4.35-40.23-.8-16.96-1.28-38.63,1.66-60.42l-8.81,15.64c-.2.36-.54.62-.95.72-.52.13-1.03.2-1.51.2-1.3,0-2.43-.49-3.27-1.42-1.57-1.74-2.09-4.94-1.6-9.76,1.14-11.03,2.46-22.12,3.73-31.23.95-6.87,2.67-12.62,4.49-18.72.69-2.31,1.4-4.7,2.07-7.17l1.07-3.93c2.86-10.52,5.8-21.34,9.3-31.94-.05.06-.46.53-.46.53-2.34,2.68-5,6.02-7.91,9.91-.35.47-1.13,1.71-1.97,3.02-3.98,6.27-5,7.61-6.04,7.94-.34.11-.68.16-1.01.16-1.96,0-2.88-1.75-3.42-2.8-.15-.29-.22-.65-.16-.98.95-5.38,3.02-10.64,5.02-15.72,1.04-2.64,2.11-5.38,3-8.05,1.01-3.06,1.88-6.22,2.8-9.57,1.95-7.09,3.97-14.41,7.39-20.66,1.52-2.78,4.69-8.57,10.07-8.57.15,0,.29,0,.44.01.71-3,1.08-6.13,1.44-9.17.37-3.12.74-6.35,1.5-9.51,1.42-5.95,2.71-10.19,7.52-14.74.17-.16.31-.66.37-.85.09-.31.22-.77.71-1.09.24-.16.57-.25.86-.25.49,0,.87.21,1.36.47.23.12.71.38.89.41.15,0,.62-.14.97-.24.64-.19,1.37-.4,2.13-.43.74-.03,1.52-.04,2.33-.04,13.28,0,37.64,3.57,44.69,16.94,1.83,3.47,6.04,20.99,6.57,25.25.46,3.63-.27,7.99-3.69,9.36-.58.23-3.47.63-3.87.63-.09,0-.22-.01-.31-.03l-9.19-1.75s.02.04.03.06c4.59,9.86,12.39,18.19,19.94,26.24,5.56,5.93,11.31,12.06,15.72,18.77,4.55,6.9,4.57,7.47,4.58,7.84.07,2.35-.43,4.04-1.54,5.18-.99,1.02-2.44,1.54-4.29,1.54-.14,0-.27,0-.42,0-6.89-.26-13.69-4.31-20.26-8.21-2.74-1.63-5.38-3.2-7.92-4.44l4.3,10.51c6.57,16.11,16.1,30.84,25.33,45.08l2.53,3.91c.43.66,1.02,1.41,1.66,2.2,2.12,2.65,4.75,5.95,3.64,9.48-.98,3.12-3.38,4.7-7.14,4.7-2.49,0-5.3-.69-7.78-1.3-.62-.15-1.23-.3-1.81-.44.04.05.09.09.13.13,2.37,2.33,4.76,4.64,7.15,6.96,8.09,7.83,16.45,15.92,24,24.66,1.8,2.08,8,9.33,12.33,15.33.17.23.35.47.53.72,1.76,2.36,4.71,6.32,1.6,9.86-.76.86-1.72,1.3-2.87,1.3-.6,0-1.16-.11-1.7-.22l-.17-.03c-8.33-1.64-15.97-4.79-23.36-7.83-6.63-2.73-12.9-5.31-19.44-6.78-.1-.02-.21-.05-.32-.07,1.33,2.56,2.82,5.09,4.27,7.54,1.39,2.36,2.83,4.81,4.14,7.28,10.39,19.73,18.99,34.43,30.66,52.43l.13.21c2.64,4.06,5.19,8.66,4.09,11.93-.44,1.3-1.41,2.25-2.81,2.76-.46.17-.97.25-1.52.25h0c-3.45,0-8.19-3.23-12.8-6.71l-.34-.26c-11.05-8.33-22.34-18.67-33.25-28.67-2.69-2.47-5.34-4.89-7.92-7.23-2.05-1.85-4.17-3.67-6.33-5.42.74,12.29,3.96,24.35,7.09,36.03,1.1,4.12,2.24,8.39,3.26,12.6l.31,1.28c3.34,13.66,4.53,19.96,4.12,21.74-.17.74-1.72,4.19-3.87,4.19-.05,0-.16,0-.21-.01Z" style="fill:#e01a83;"/><path d="M94.61,3.63c.28,0,1.4.83,2.14.88.03,0,.06,0,.08,0,.82,0,2.09-.63,3.18-.67.72-.02,1.48-.04,2.27-.04,13.8,0,36.91,3.9,43.36,16.14,1.71,3.24,5.89,20.62,6.41,24.74.32,2.57.04,6.66-2.76,7.78-.31.12-2.97.52-3.31.52-.01,0-.02,0-.03,0l-10.62-2.02-.77.97c.16.51.36.99.59,1.46,8.12,17.42,25.46,29.55,35.77,45.2.6.91,4.32,6.65,4.33,7.07.1,3.43-1.13,5.18-4.33,5.18-.12,0-.24,0-.36,0-10.52-.4-21.35-10.45-31.02-13.99l5.7,13.91c7.21,17.69,17.75,33.38,27.98,49.23,1.89,2.92,6.29,6.74,5.13,10.42-.88,2.79-3.06,3.65-5.71,3.65-4.29,0-9.8-2.26-12.98-2.26-.09,0-.18,0-.26,0,1.05.92,1.76,2.27,2.73,3.22,10.49,10.31,21.36,20.29,31.07,31.53,3.84,4.44,8.84,10.51,12.25,15.23,1.77,2.44,4.78,5.8,2.22,8.71-.53.61-1.12.79-1.74.79-.5,0-1.03-.12-1.57-.23-15.49-3.05-28.62-11.42-42.76-14.59-.42-.09-.87-.19-1.27-.19-.62,0-1.15.23-1.33,1.07,2.73,5.48,6.17,10.63,9.03,16.04,10.18,19.33,18.87,34.26,30.73,52.55,1.74,2.69,7.2,10.85,2.16,12.67-.31.11-.65.16-1.02.16-3.57,0-9.76-4.8-12.24-6.67-13.76-10.37-28.21-24.17-41.07-35.82-2.89-2.61-5.89-5.14-8.97-7.52.41,17.98,6.37,34.96,10.52,52.2.87,3.62,4.98,19.96,4.43,22.33-.19.84-1.51,3.03-2.4,3.03-.02,0-.04,0-.05,0-6.27-4.88-9.68-12.56-13.65-19.26-14.1-23.79-24.97-49.72-34.68-75.73-1.06-2.84-2.96-5.93-3.12-9.2-.06-.02-.11-.03-.17-.03-.66,0-1.06,1.28-1.2,1.74-1.26,4.14-1.44,8.98-2.57,13.2-3.2,11.93-9.39,23.2-11.54,36-.44,2.64-.14,12.67-2.26,13.65-.17.08-.37.12-.58.12-.86,0-1.93-.6-2.4-1.17-.71-.86-3.49-13.05-3.89-15.13-2.51-13.01-3.7-26.78-4.33-40.02-1.07-22.65-1.04-45.9,2.91-68.27l-12.87,22.83c-.42.1-.8.15-1.15.15-3.96,0-3.71-6.25-3.38-9.53,1.03-9.94,2.35-21.29,3.72-31.17,1.3-9.39,4.11-16.83,6.52-25.69,3.79-13.9,7.45-27.79,12.26-41.37-1.88,1.07-3.5,3.02-4.92,4.64-2.72,3.12-5.5,6.69-7.98,10-1.21,1.62-6.19,10.08-7.25,10.42-.2.06-.38.09-.56.09-1.06,0-1.62-1.09-2.1-2.02,1.42-8.02,5.39-15.76,7.97-23.56,3.21-9.71,5.2-21.04,10.09-29.98,1.86-3.41,4.57-7.79,8.75-7.79.5,0,1.02.06,1.56.19,1.81-6.56,1.7-13.43,3.27-20.01,1.44-6.06,2.66-9.81,7.09-14,.64-.6.79-1.72.87-1.77.01,0,.02-.01.04-.01M94.61.63h0c-.58,0-1.2.18-1.69.5-.95.62-1.22,1.54-1.33,1.93-.02.08-.06.22-.1.31-4.99,4.78-6.34,9.19-7.8,15.34-.77,3.24-1.16,6.52-1.53,9.68-.32,2.72-.62,5.33-1.15,7.86-5.79.49-9.03,6.41-10.62,9.32-3.5,6.39-5.54,13.81-7.52,20.97-.92,3.33-1.79,6.48-2.79,9.5-.87,2.63-1.94,5.35-2.97,7.97-2.03,5.15-4.12,10.48-5.1,16.01-.12.65-.01,1.32.29,1.91.62,1.19,1.89,3.63,4.76,3.63.48,0,.97-.08,1.46-.23,1.52-.48,2.48-1.68,6.85-8.57.78-1.23,1.59-2.5,1.9-2.92,1.17-1.57,2.31-3.05,3.39-4.44-2.53,8.25-4.78,16.55-6.99,24.67l-1.06,3.9c-.67,2.45-1.38,4.83-2.07,7.13-1.83,6.15-3.57,11.96-4.54,18.94-1.27,9.12-2.59,20.23-3.73,31.28-.54,5.27.1,8.84,1.97,10.92,1.13,1.25,2.65,1.92,4.39,1.92.6,0,1.23-.08,1.87-.24.8-.2,1.49-.72,1.89-1.44l5.14-9.13c-1.96,19.33-1.51,38.15-.79,53.24.75,15.82,2.18,29.05,4.38,40.45.21,1.09,1.02,4.72,1.86,8.17,1.76,7.22,2.18,7.73,2.67,8.31.9,1.08,2.76,2.25,4.7,2.25.66,0,1.28-.13,1.85-.4,2.95-1.38,3.37-5.69,3.72-12.64.07-1.31.13-2.67.23-3.24,1.21-7.23,3.85-14.16,6.39-20.85,1.83-4.82,3.73-9.8,5.08-14.86.52-1.94.85-3.97,1.15-5.94.07.17.13.34.2.5,8.11,21.74,19.41,50.06,34.91,76.21.78,1.31,1.52,2.64,2.31,4.05,3.24,5.79,6.59,11.77,12.08,16.05.44.34.97.56,1.53.62.12.01.24.02.37.02,3.34,0,5.14-4.52,5.33-5.35.42-1.8-.12-6.05-4.12-22.41l-.31-1.29c-1.02-4.24-2.16-8.51-3.27-12.64-2.8-10.49-5.69-21.28-6.76-32.22,1.2,1.02,2.38,2.06,3.54,3.11,2.58,2.33,5.22,4.76,7.91,7.22,10.94,10.03,22.25,20.39,33.37,28.77l.34.26c4.82,3.64,9.82,7.02,13.7,7.02.73,0,1.41-.11,2.03-.34,2.34-.84,3.32-2.47,3.73-3.69,1.3-3.87-1.28-8.64-4.26-13.22l-.13-.21c-11.64-17.96-20.22-32.63-30.59-52.32-1.32-2.51-2.77-4.97-4.17-7.35-.87-1.48-1.76-2.99-2.62-4.51,5.39,1.49,10.69,3.67,16.25,5.96,7.45,3.07,15.16,6.24,23.64,7.91l.17.03c.58.12,1.24.25,1.99.25,1.57,0,2.96-.63,4-1.81,3.91-4.45.24-9.38-1.53-11.75-.18-.24-.35-.48-.52-.7-4.37-6.04-10.61-13.34-12.42-15.43-7.6-8.79-15.98-16.91-24.09-24.75-1.13-1.1-2.28-2.21-3.44-3.33,1.57.32,3.18.55,4.7.55,5.88,0,7.89-3.61,8.57-5.76,1.35-4.29-1.69-8.09-3.9-10.87-.61-.76-1.18-1.48-1.57-2.08-.84-1.3-1.68-2.6-2.53-3.91-9.19-14.19-18.69-28.86-25.2-44.83l-2.73-6.67c1.37.77,2.77,1.61,4.19,2.46,6.73,4.01,13.69,8.15,20.97,8.42.16,0,.32,0,.47,0,2.28,0,4.08-.67,5.37-2,1.4-1.45,2.04-3.5,1.96-6.27-.03-.85-.04-1.36-4.83-8.62-4.49-6.81-10.28-12.99-15.88-18.97-6.78-7.24-13.77-14.69-18.36-23.23l6.21,1.18c.18.04.4.05.59.05.5,0,3.59-.4,4.43-.74,4.21-1.69,5.15-6.76,4.62-10.94-.49-3.94-4.69-21.89-6.73-25.77C140.92,4.54,115.9.81,102.29.8c-.81,0-1.61.01-2.38.04-.94.03-1.81.28-2.5.49-.12.04-.28.08-.41.12-.11-.06-.24-.12-.32-.17-.56-.3-1.2-.65-2.07-.65h0Z" style="fill:#e01a83;"/><path d="M135.35,50.97l-.77.97c.16.51.36.99.59,1.46,8.12,17.42,25.46,29.55,35.77,45.2.6.91,4.32,6.65,4.33,7.07.11,3.56-1.22,5.3-4.69,5.17-10.52-.4-21.35-10.45-31.02-13.99l5.7,13.91c7.21,17.69,17.75,33.38,27.98,49.23,1.89,2.92,6.29,6.74,5.13,10.42-2.34,7.44-13.94,1.18-18.95,1.4,1.05.92,1.76,2.27,2.73,3.22,10.49,10.31,21.36,20.29,31.07,31.53,3.84,4.44,8.84,10.51,12.25,15.23,1.77,2.44,4.78,5.8,2.22,8.71-.96,1.1-2.08.81-3.32.56-15.49-3.05-28.62-11.42-42.76-14.59-1.07-.24-2.3-.5-2.6.87,2.73,5.48,6.17,10.63,9.03,16.04,10.18,19.33,18.87,34.26,30.73,52.55,1.74,2.69,7.2,10.85,2.16,12.67-3.27,1.18-10.52-4.45-13.26-6.51-13.76-10.37-28.21-24.17-41.07-35.82-2.89-2.61-5.89-5.14-8.97-7.52.41,17.98,6.37,34.96,10.52,52.2.87,3.62,4.98,19.96,4.43,22.33-.2.86-1.57,3.12-2.46,3.02-6.26-4.88-9.68-12.56-13.65-19.26-14.1-23.79-24.97-49.72-34.68-75.73-1.06-2.84-2.96-5.93-3.12-9.2-.76-.24-1.22,1.21-1.37,1.71-1.26,4.14-1.44,8.98-2.57,13.2-3.2,11.93-9.39,23.2-11.54,36-.44,2.64-.14,12.67-2.26,13.65-.89.41-2.4-.35-2.98-1.05-.71-.86-3.49-13.05-3.89-15.13-2.51-13.01-3.7-26.78-4.33-40.02-1.07-22.65-1.04-45.9,2.91-68.27l-12.87,22.83c-5.15,1.28-4.89-5.81-4.52-9.38,1.03-9.94,2.35-21.29,3.72-31.17s4.11-16.83,6.52-25.69c3.79-13.9,7.45-27.79,12.26-41.37-1.88,1.07-3.5,3.02-4.92,4.64-2.72,3.12-5.5,6.69-7.98,10-1.21,1.62-6.19,10.08-7.25,10.42-1.43.45-2.1-.85-2.66-1.92,1.42-8.02,5.39-15.76,7.97-23.56,3.21-9.71,5.2-21.04,10.09-29.98,2.09-3.81,5.22-8.84,10.31-7.6,1.81-6.56,1.7-13.43,3.27-20.01,1.44-6.06,2.66-9.81,7.09-14,.64-.6.78-1.72.87-1.77.18-.12,1.4.82,2.18.87.81.05,2.14-.63,3.26-.66,13.38-.46,38.81,3.16,45.64,16.1,1.71,3.24,5.89,20.62,6.41,24.74.32,2.57.04,6.66-2.76,7.78-.32.13-3.17.55-3.34.52l-10.62-2.02ZM147.67,48.36l-4.69-23.37c-1.63-3.51-2.7-6.54-6.12-8.77-7.38-4.81-32.7-10.37-41.09-7.93-1.04.3-1.14,2.14-3.05.69l-.84.55c-1.13,4.91-2.72,9.67-3.44,14.69-.87,6.01-.48,12.25-2.4,18.14-.67,1.17-3.93.21-5.69,1.15-1.25.67-3.12,3.85-3.86,5.19-6.09,11.06-6.96,25.12-12.28,36.58,1.17.51,1.28-.4,1.86-1,4.51-4.71,7.78-9.76,13.31-13.71,1.99-1.42,3.84-3.32,5.94-.7-2.93,8.8-6.21,17.37-8.86,26.26-5.56,18.64-10.9,38.66-13.21,57.95-.7,5.82-.33,12.23-1.79,18.08l6.09-11.07c3.03-3.24,8.15-15.86,13.19-9.64-3.84,13.84-5.34,28.35-5.7,42.66-.45,18.22.27,38.72,1.97,56.87.31,3.31,1.25,15.19,2.17,17.46.12.28.55.82.7.68,1.33-11.8,7.93-22.8,10.85-33.95,1.13-4.3,2.04-15.82,5.46-18.45,3.58-2.76,5.81,1.81,7.02,4.43,11.65,25.19,20.01,52.81,33.83,77.24l9.62,15.85c-2.57-16.87-8.61-32.97-11.23-49.87-.48-3.11-2.95-19.02-.23-20.23,9.53,1.1,16.17,10.84,23.07,16.7,11.02,9.36,23.38,20.44,34.7,29.06,1.15.87,3.19,2.61,4.61,2.41-7.11-10.43-14.18-20.87-20.32-31.91-8.26-14.86-15.94-30.3-23.45-45.5l.13-2.23c1.17-2.38,9.49-.38,11.71.19,11.99,3.06,23.58,10.29,35.94,12.05-4.16-4.78-7.64-10.3-11.79-15.06-9.87-11.32-20.9-21.65-31.56-32.14-1.12-1.1-8.21-8.48-8.36-9.09-.26-1.05-.1-3.34,1.28-3.52,4.46,1.1,9.42,1.12,13.84,1.96,2.62.5,5.06,2.43,7.74,1.24l-14.65-21.44c-6.62-11.23-12.9-22.99-18.06-34.94-.91-2.11-6.11-14.85-6.19-16.01-.49-7.36,9.55-2.86,13.15-1.1,7.01,3.43,12.24,8.14,20.29,10.24.33.08,1.43.76,1.56-.16s-9.5-13.02-10.74-14.4c-2.75-3.05-6.34-5.71-9.04-8.64-4.62-5.02-16.49-21.07-18.41-27.2-4.29-13.66,9.9-5.7,17.04-6.28ZM64.42,86.97l.2-1.06-.52-.1-.2,1.06.52.1Z"/><path d="M147.67,48.36c-7.14.59-21.33-7.37-17.04,6.28,1.93,6.13,13.79,22.19,18.41,27.2,2.7,2.93,6.29,5.58,9.04,8.64,1.24,1.38,10.86,13.51,10.74,14.4s-1.23.24-1.56.16c-8.04-2.09-13.28-6.81-20.29-10.24-3.6-1.76-13.64-6.26-13.15,1.1.08,1.16,5.28,13.9,6.19,16.01,5.16,11.95,11.44,23.71,18.06,34.94l14.65,21.44c-2.68,1.19-5.13-.74-7.74-1.24-4.42-.84-9.38-.86-13.84-1.96-1.38.18-1.54,2.47-1.28,3.52.15.61,7.24,7.99,8.36,9.09,10.67,10.49,21.69,20.82,31.56,32.14,4.15,4.76,7.63,10.27,11.79,15.06-12.36-1.76-23.95-8.98-35.94-12.05-2.22-.57-10.53-2.57-11.71-.19l-.13,2.23c7.51,15.19,15.19,30.64,23.45,45.5,6.14,11.04,13.21,21.49,20.32,31.91-1.41.2-3.46-1.54-4.61-2.41-11.33-8.62-23.69-19.7-34.7-29.06-6.91-5.87-13.55-15.61-23.07-16.7-2.72,1.21-.25,17.12.23,20.23,2.62,16.9,8.66,32.99,11.23,49.87l-9.62-15.85c-13.82-24.42-22.19-52.05-33.83-77.24-1.21-2.62-3.43-7.2-7.02-4.43-3.42,2.63-4.33,14.15-5.46,18.45-2.92,11.15-9.52,22.15-10.85,33.95-.15.14-.58-.39-.7-.68-.92-2.27-1.86-14.15-2.17-17.46-1.7-18.14-2.42-38.65-1.97-56.87.35-14.31,1.86-28.82,5.7-42.66-5.03-6.22-10.16,6.4-13.19,9.64l-6.09,11.07c1.46-5.85,1.09-12.26,1.79-18.08,2.31-19.29,7.64-39.31,13.21-57.95,2.65-8.89,5.93-17.46,8.86-26.26-2.09-2.62-3.95-.73-5.94.7-5.53,3.95-8.8,9.01-13.31,13.71-.57.6-.69,1.51-1.86,1,5.32-11.47,6.19-25.52,12.28-36.58.74-1.34,2.61-4.52,3.86-5.19,1.76-.94,5.02.03,5.69-1.15,1.92-5.89,1.53-12.14,2.4-18.14.72-5.02,2.31-9.78,3.44-14.69l.84-.55c1.91,1.46,2.02-.38,3.05-.69,8.39-2.44,33.71,3.12,41.09,7.93,3.42,2.23,4.49,5.26,6.12,8.77l4.69,23.37ZM122.1,26.03c-2.12-1.56-10.08-2.23-11.39.31-.94,1.82-1.62,6.83-2.48,9.25-4.88,13.7-12.73,26.53-18.31,40.3-.93,2.29-5.79,9.28-1.46,10.47,2.9.79,4.45-2.58,7.27-1.94-1.87,4.7-2.94,9.65-4.47,14.47-3.32,10.46-7.78,20.66-11.18,31.08-.86,2.63-3.29,9.44,1.44,9.64,1.73.07,12.55-5.76,12.93-5.14-1.1,2.61-1.69,5.34-2.12,8.14-2.14,13.89-3.64,27.95-5.19,41.88-.42,3.74-3.22,16.71-2.22,19.06.57,1.34,2.48,1.82,3.75,1.14,2.22-3.64,4.5-7.35,7.39-10.51,2.45-2.67,7.49-6.84,10.48-9.05.46-.34,2.24-1.76,2.69-1.13.72,9.83,5.26,18.87,7.78,28.21,1.81,6.7,3.61,23.16,7.58,27.87,3.21,3.8,5.2-1.9,5.58-4.46,1.13-7.55-.15-21.94-.41-30.24-.24-7.66-1.78-15.4-.41-23.05,4.98,2.55,8.85,6.86,13.7,9.85,3.56,2.2,11.47,8.11,12.32.96-12.26-16.74-26.02-33.42-30.41-54.26l15.74,6.92c2.09.03,2.02-2.47,2.72-3.99-4.68-8.61-10.44-16.64-13.89-25.91-8-21.49-9.81-54.37-8.08-77.2.32-4.21,2.4-8.3.64-12.68Z" style="fill:#fff;"/><rect x="64" y="85.85" width=".53" height="1.07" transform="translate(17.26 -10.48) rotate(10.76)" style="fill:#fff;"/><path d="M122.1,26.03c1.76,4.38-.32,8.47-.64,12.68-1.73,22.83.08,55.71,8.08,77.2,3.45,9.26,9.2,17.3,13.89,25.91-.69,1.51-.63,4.01-2.72,3.99l-15.74-6.92c4.39,20.84,18.15,37.52,30.41,54.26-.85,7.15-8.76,1.24-12.32-.96-4.84-2.99-8.72-7.3-13.7-9.85-1.37,7.65.17,15.39.41,23.05.26,8.29,1.54,22.68.41,30.24-.38,2.56-2.37,8.26-5.58,4.46-3.98-4.7-5.77-21.16-7.58-27.87-2.52-9.34-7.06-18.38-7.78-28.21-.45-.62-2.23.79-2.69,1.13-2.99,2.2-8.02,6.37-10.48,9.05-2.9,3.16-5.17,6.87-7.39,10.51-1.27.68-3.18.19-3.75-1.14-1.01-2.35,1.8-15.32,2.22-19.06,1.56-13.93,3.05-27.99,5.19-41.88.43-2.79,1.01-5.53,2.12-8.14-.38-.62-11.2,5.21-12.93,5.14-4.74-.2-2.3-7.01-1.44-9.64,3.39-10.43,7.86-20.62,11.18-31.08,1.53-4.82,2.6-9.77,4.47-14.47-2.81-.64-4.37,2.74-7.27,1.94-4.33-1.18.53-8.18,1.46-10.47,5.58-13.77,13.42-26.59,18.31-40.3.86-2.42,1.54-7.43,2.48-9.25,1.31-2.54,9.28-1.87,11.39-.31ZM136.04,138.51c-.77-2.41-3.13-4.67-4.25-6.58-13.57-23.19-16.22-59.9-14.32-86.35.39-5.39,1.62-10.58,1.75-15.97-.56-2.96-7.32.22-7.83,1.27-.62,1.28-.58,4.06-1.09,5.71-2.74,8.97-6.13,15.5-9.66,23.81-2.61,6.15-4.77,12.52-7.71,18.53.79,1.8,2.72-.38,4.31-.45,1.14-.05,2.26.34,3.36.52-.25,4.98-1.44,9.78-2.78,14.59-2.07,7.45-4.77,15.95-7.23,23.31-.72,2.16-6.27,14.78-5.68,15.74,4.57-.11,11-7.07,14.55-1.82l-8.25,61.29,15.06-12.83c2.01-1.07,4.31-1.79,6.28-.18l12.77,44.78c.43-14.07-1.77-28.09-.29-42.11,1.25-7.29,6.1-4.33,10.34-1.45,2.85,1.94,5.7,5.62,9.14,6.25-9.15-12.1-18.28-25.38-22.55-40.1-.57-1.98-3.53-12.34-1.65-13.21,5.97-.75,10.59,3.15,15.73,5.24Z"/><path d="M136.04,138.51c-5.14-2.09-9.76-6-15.73-5.24-1.88.88,1.07,11.24,1.65,13.21,4.27,14.72,13.4,27.99,22.55,40.1-3.44-.63-6.29-4.31-9.14-6.25-4.24-2.88-9.09-5.84-10.34,1.45-1.48,14.01.72,28.04.29,42.11l-12.77-44.78c-1.97-1.61-4.27-.89-6.28.18l-15.06,12.83,8.25-61.29c-3.55-5.25-9.99,1.71-14.55,1.82-.59-.96,4.96-13.59,5.68-15.74,2.46-7.36,5.16-15.86,7.23-23.31,1.33-4.8,2.52-9.61,2.78-14.59-1.1-.19-2.23-.57-3.36-.52-1.59.07-3.52,2.25-4.31.45,2.94-6.01,5.09-12.38,7.71-18.53,3.53-8.31,6.92-14.84,9.66-23.81.51-1.66.47-4.43,1.09-5.71.51-1.05,7.27-4.23,7.83-1.27-.12,5.39-1.36,10.58-1.75,15.97-1.91,26.45.75,63.17,14.32,86.35,1.12,1.91,3.48,4.17,4.25,6.58Z" style="fill:#fff;"/></svg>