<?xml version="1.0" encoding="UTF-8"?><svg id="Layer_4" xmlns="http://www.w3.org/2000/svg" viewBox="0 0 230.1 350.46"><path d="M104.5,294.25c-3.12,0-5.69-4.3-7.8-8.5-2.38-4.75-4.5-10.85-6.29-18.13-3.65-14.79-5.31-30.09-6.91-44.89-.69-6.37-1.4-12.92-2.27-19.39-.27.44-.6,1-.99,1.71l-.21.38c-1.83,3.18-3.69,7.32-5.5,11.33-2.45,5.45-4.99,11.09-7.67,14.91-1.01,1.45-2.4,2.31-3.72,2.31-.67,0-1.93-.23-2.87-1.78-1.03-1.7-.5-6.19,1.07-15.59.36-2.13.67-3.97.76-4.96.08-.78.04-1.59,0-2.46-.04-.9-.08-1.83,0-2.78.78-8.7,1.25-17.61,1.7-26.21.96-18.37,1.96-37.37,6.09-55.78,1.4-6.25,3.55-12.34,5.66-18.23-.22.14-.41.26-.55.36-3.74,2.57-7.32,5.63-10.77,8.6-2.88,2.47-5.86,5.03-8.96,7.32-.14.1-.3.18-.46.23-.59.18-1.16.27-1.67.27-1.22,0-2.23-.49-2.92-1.42-2.06-2.78-.56-9.01,1.37-15.33.13-.43.24-.79.32-1.06,3.05-10.67,7.37-22.7,13.2-36.77,1.69-4.07,3.63-8.1,5.51-11.99.73-1.52,1.48-3.06,2.21-4.61-1.96,1.04-4.18,2.31-4.86,2.73-.32.2-.96.68-1.69,1.24-4.28,3.23-8.74,6.39-12.03,6.39-1.84,0-3.2-1.03-3.72-2.82-.66-2.29,1.72-6.82,5.15-12.98.85-1.53,1.58-2.84,1.96-3.64.77-1.66,1.72-3.96,2.82-6.63,4.77-11.56,11.97-29.03,20-31.88.57-.2,1.01-.29,1.4-.29.73,0,1.35.35,1.66.95.6,1.15-.2,2.31-1.21,3.77-.02.02-.03.04-.05.07.27,0,.53-.02.8-.02.65-.02,1.3-.04,1.95-.04.91,0,1.67.04,2.38.13,1.55.19,2.91.73,4.22,1.25,1.18.47,2.3.92,3.41,1.02.65.06,1.4.09,2.24.09,3.43,0,7.9-.5,12.22-.99,3.66-.41,7.12-.8,9.9-.89l1.27-.04c5.07-.16,10.81-.35,16.44-.35,4.73,0,8.57.13,11.76.4,1.87.16,4.7.4,6.29,2.31.07.08.13.18.18.28,1.08,2.12.06,5.31-.92,8.39-.36,1.14-.71,2.21-.83,2.96-3.81,21.92,5.8,52.24,22.35,70.52.19.21.44.35.75.54.77.45,1.94,1.13,2.31,3.08.24,1.26.11,3.06-.96,4.35-.73.89-1.75,1.36-2.95,1.37-2.11,0-5.54-1.26-9.17-2.59-2.87-1.05-5.83-2.14-7.76-2.45-.41-.06-2.12-.19-3.82-.19-.81,0-1.42.03-1.88.07,2.82,4.4,6.06,8.62,9.66,12.58,1.96,2.15,4.47,4.39,6.9,6.54,2.99,2.66,6.08,5.41,8.34,8.17,1.31,1.6,1.81,3.19,1.49,4.71-.61,2.85-3.8,4.44-6.62,5.84-.94.47-1.83.91-2.42,1.31-3.97,2.71-7.68,5.97-11.27,9.13-2.92,2.57-5.91,5.21-9.09,7.59,4.84,2.53,10.24,3.53,15.92,4.58,3.29.61,6.69,1.24,9.96,2.19,7.97,2.33,18.41,7.17,23.74,12.73,2.38,2.49,5.65,5.9,1.78,10.6-4.75,5.79-16.61,9-26.13,11.59-3.15.86-6.13,1.66-8.37,2.44-4.05,1.41-10.21,3.99-11.94,5.3,4.27,8.22,9.09,16.32,13.76,24.16,3.87,6.5,7.87,13.21,11.54,19.98.83,1.54,1.76,3.18,2.7,4.87,2.36,4.21,4.81,8.57,6.53,12.38,2.18,4.82,2.57,8.03,1.23,10.12-.9,1.4-2.47,2.11-4.66,2.11-2.45,0-5.76-.88-10.13-2.69-10.44-4.34-21.68-16.15-27.45-22.81-4.3-4.96-7.92-10.5-11.42-15.85-2.83-4.33-5.74-8.79-8.98-12.88-4.12,4.33-6.33,10.71-7.66,15.29-1.87,6.45-3.05,14.13-4.31,22.25-1.71,11.1-3.48,22.57-7.19,30.91-.97,2.17-2.28,3.27-3.9,3.27h0Z" style="fill:#e01a83;"/><path d="M81.9,5.38c1.59,0-2.63,4.09-1.9,4.76.41.02.83.03,1.25.03,1.26,0,2.53-.08,3.8-.08.74,0,1.47.03,2.2.12,2.75.34,5.05,2.03,7.67,2.28.72.07,1.52.1,2.38.1,6.41,0,16.13-1.69,22.17-1.88,5.22-.17,11.57-.39,17.66-.39,4.15,0,8.18.1,11.64.39,1.76.15,4.09.36,5.26,1.77,1.16,2.29-1.43,7.71-1.9,10.41-4.12,23.74,6.68,54.06,22.72,71.79.98,1.08,2.33.93,2.7,2.88.32,1.68-.32,3.93-2.44,3.95,0,0-.02,0-.03,0-3.37,0-12.18-4.3-16.65-5.02-.51-.08-2.29-.21-4.06-.21-2.06,0-4.1.17-4.13.8,3.13,5.11,6.76,9.91,10.8,14.35,4.42,4.86,11.18,9.76,15.19,14.66,4.41,5.39-4.11,7.54-7.24,9.67-7.91,5.39-14.44,12.64-22.27,18.1,8.42,5.36,18.78,5.32,28.21,8.07,7.34,2.14,17.78,6.8,23.07,12.33,2.61,2.73,4.62,5.07,1.71,8.61-5.99,7.29-24.93,10.47-33.83,13.57-2.05.71-13.2,4.87-13.2,6.59,7.9,15.37,17.5,29.8,25.74,44.98,2.87,5.28,6.79,11.85,9.19,17.15,3.45,7.61,1.74,10.11-2.07,10.11-2.55,0-6.04-1.12-9.55-2.58-9.55-3.97-20.12-14.6-26.89-22.41-8.08-9.31-13.59-20.52-21.39-29.96-4.8,4.23-7.48,11.05-9.23,17.09-4.53,15.61-5.18,38.94-11.42,52.97-.76,1.71-1.63,2.38-2.53,2.38-2.51,0-5.25-5.26-6.46-7.67-2.71-5.4-4.73-11.95-6.18-17.82-5.41-21.94-6.37-44.55-9.53-66.86-.08-.07-.17-.11-.27-.11-1.04,0-2.94,3.71-3.33,4.4-4.32,7.53-8.53,19.61-13.09,26.12-.64.92-1.59,1.67-2.49,1.67-.57,0-1.13-.3-1.59-1.06-1.28-2.11,1.68-15.95,2.05-19.62.17-1.74-.14-3.51.01-5.25,2.46-27.27,1.73-54.9,7.76-81.8,1.65-7.37,4.33-14.44,6.86-21.53-.02-.02-.05-.03-.1-.03-.63,0-3.46,1.78-3.95,2.12-6.94,4.76-13,10.95-19.77,15.95-.47.14-.88.2-1.24.2-5.12,0-.63-12.95.21-15.89,3.48-12.17,8.31-24.95,13.14-36.61,2.83-6.85,6.35-13.42,9.38-20.17-.01-.01-.04-.02-.07-.02-.84,0-7.67,3.88-8.63,4.48-1.75,1.11-9.03,7.39-12.92,7.39-1.09,0-1.92-.5-2.28-1.74-.74-2.55,5.56-12.42,7.03-15.58,4.04-8.7,12.79-34.48,21.96-37.74.4-.14.7-.21.9-.21M81.9,2.38h0c-.56,0-1.17.12-1.9.38-7.99,2.84-14.44,17.1-20.88,32.73-1.09,2.65-2.04,4.95-2.8,6.57-.35.75-1.11,2.11-1.91,3.55-4.35,7.8-6.04,11.49-5.28,14.13.71,2.45,2.64,3.91,5.16,3.91,3.75,0,8.44-3.3,12.93-6.69.65-.49,1.32-.99,1.59-1.16.14-.09.37-.23.67-.4-.06.12-.12.24-.17.36-1.89,3.91-3.85,7.95-5.55,12.07-5.85,14.13-10.18,26.21-13.25,36.93-.08.27-.18.62-.31,1.04-2.36,7.73-3.46,13.52-1.14,16.65.97,1.31,2.43,2.03,4.12,2.03.66,0,1.37-.11,2.1-.33.33-.1.65-.26.93-.46,3.14-2.32,6.14-4.9,9.04-7.39,2.38-2.05,4.82-4.14,7.32-6.07-1.57,4.52-3.05,9.14-4.11,13.88-4.16,18.53-5.16,37.59-6.12,56.03-.45,8.6-.92,17.48-1.7,26.16-.09,1.06-.05,2.04-.01,2.98.03.81.07,1.57,0,2.25-.09.94-.41,2.84-.75,4.86-1.78,10.61-2.15,14.5-.88,16.61.96,1.59,2.48,2.5,4.15,2.5,1.83,0,3.63-1.08,4.95-2.95,2.75-3.93,5.32-9.64,7.8-15.15,1.45-3.23,2.95-6.54,4.41-9.35.61,4.98,1.16,9.97,1.68,14.86,1.61,14.85,3.27,30.2,6.95,45.09,1.82,7.39,3.98,13.6,6.41,18.44,2.31,4.61,5.2,9.32,9.14,9.32,1.56,0,3.74-.72,5.27-4.16,3.79-8.52,5.58-20.09,7.3-31.29,1.24-8.08,2.42-15.7,4.26-22.06,1.7-5.85,3.73-10.25,6.15-13.34,2.76,3.64,5.31,7.53,7.79,11.33,3.52,5.4,7.17,10.98,11.54,16.02,5.86,6.76,17.29,18.76,28.01,23.21,4.55,1.89,8.05,2.81,10.7,2.81,3.4,0,5.1-1.52,5.92-2.79,1.65-2.56,1.29-6.23-1.12-11.55-1.75-3.87-4.21-8.25-6.59-12.5-.96-1.71-1.87-3.33-2.69-4.85-3.69-6.8-7.7-13.53-11.58-20.04-4.42-7.42-8.98-15.08-13.07-22.84,2.28-1.25,6.92-3.19,10.45-4.42,2.19-.76,5.14-1.56,8.27-2.41,9.73-2.64,21.84-5.93,26.9-12.08,4.71-5.73.44-10.2-1.86-12.59-5.52-5.77-16.24-10.75-24.4-13.14-3.35-.98-6.78-1.61-10.11-2.23-4.71-.87-9.23-1.71-13.33-3.42,2.5-1.99,4.89-4.09,7.22-6.15,3.72-3.27,7.23-6.37,11.13-9.02.51-.35,1.35-.77,2.25-1.21,2.97-1.48,6.66-3.31,7.42-6.87.43-1.99-.17-4-1.79-5.98-2.33-2.85-5.47-5.64-8.51-8.34-2.4-2.13-4.88-4.34-6.79-6.44-2.92-3.21-5.61-6.61-8.02-10.13,1.34.03,2.46.12,2.71.16,1.78.29,4.68,1.35,7.48,2.38,3.92,1.44,7.31,2.68,9.65,2.68,0,0,.05,0,.06,0,1.62-.01,3.08-.69,4.09-1.92,1.18-1.44,1.66-3.53,1.28-5.58-.49-2.62-2.14-3.58-3.03-4.1-.15-.09-.35-.2-.4-.25-7.69-8.5-14.19-20.06-18.29-32.55-4.25-12.93-5.56-25.97-3.69-36.7.11-.64.45-1.72.79-2.76,1.08-3.37,2.19-6.86.83-9.53-.1-.2-.22-.38-.36-.55-1.98-2.4-5.32-2.68-7.32-2.84-3.23-.27-7.12-.4-11.89-.4-5.66,0-11.41.18-16.49.35l-1.27.04c-2.84.09-6.33.48-10.02.9-4.28.48-8.7.98-12.05.98-.79,0-1.5-.03-2.1-.09-.89-.08-1.87-.47-3-.92-1.33-.53-2.84-1.13-4.59-1.35-.77-.09-1.59-.14-2.56-.14-.03,0-.06,0-.08,0,.37-.94.47-1.93-.08-2.96-.57-1.1-1.69-1.75-2.99-1.75h0Z" style="fill:#e01a83;"/><path d="M75.9,48.78c-.36-.33-7.7,3.84-8.7,4.46-2.25,1.42-13.55,11.33-15.19,5.65-.74-2.55,5.56-12.42,7.03-15.58,4.04-8.71,12.79-34.48,21.96-37.74,3.63-1.29-1.83,3.79-1,4.56,2.39.14,4.87-.22,7.25.07,2.75.34,5.05,2.03,7.67,2.28,6.12.58,17.71-1.57,24.55-1.78,8.77-.28,20.75-.71,29.3,0,1.76.15,4.09.36,5.26,1.77,1.16,2.29-1.43,7.71-1.9,10.41-4.12,23.74,6.68,54.06,22.72,71.79.98,1.08,2.33.93,2.7,2.88.32,1.68-.32,3.93-2.44,3.95-3.35.02-12.2-4.3-16.68-5.02-1.09-.18-8.13-.58-8.19.59,3.13,5.12,6.76,9.91,10.8,14.35,4.42,4.86,11.18,9.76,15.19,14.66,4.41,5.39-4.11,7.54-7.24,9.67-7.91,5.39-14.44,12.64-22.27,18.1,8.42,5.36,18.78,5.32,28.21,8.07,7.34,2.14,17.78,6.8,23.07,12.33,2.61,2.73,4.62,5.07,1.71,8.61-5.99,7.29-24.93,10.47-33.83,13.57-2.05.71-13.2,4.87-13.2,6.59,7.9,15.37,17.5,29.8,25.74,44.98,2.87,5.28,6.79,11.85,9.19,17.15,5.75,12.69-2.85,11.17-11.62,7.53-9.55-3.97-20.12-14.6-26.89-22.41-8.08-9.31-13.59-20.52-21.39-29.96-4.8,4.23-7.48,11.05-9.23,17.09-4.53,15.61-5.18,38.94-11.42,52.97-2.9,6.5-7.35-2.02-8.99-5.29-2.71-5.4-4.73-11.95-6.18-17.82-5.41-21.94-6.37-44.55-9.53-66.87-.93-.85-3.18,3.54-3.61,4.29-4.32,7.53-8.53,19.61-13.09,26.12-1.05,1.5-2.9,2.56-4.08.62-1.28-2.11,1.68-15.95,2.05-19.62.17-1.74-.14-3.51.01-5.25,2.46-27.27,1.73-54.9,7.76-81.8,1.65-7.37,4.33-14.44,6.86-21.53-.29-.3-3.52,1.72-4.05,2.08-6.94,4.76-13,10.95-19.77,15.95-7.02,2.09-1.93-12.53-1.03-15.69,3.48-12.17,8.31-24.95,13.14-36.61,2.83-6.85,6.35-13.42,9.38-20.17ZM79.86,45.4c.91.91.77,2.79.46,3.97-1.62,6.22-6.98,15.46-9.54,22.09-5.34,13.82-9.65,28.1-14.78,42l.3.88c5.5-4.84,11.65-10.53,18.03-14.16,5.46-3.1,9.73-5.15,8.33,3.66-.96,6.05-4.53,13.9-6,20.34-5.68,24.87-5.8,50.72-7.7,75.96-.43,5.74-.66,11.51-1.24,17.23l11.1-20.21c7.38-6.07,8.36,3.48,9.29,8.88,1.71,9.97,2.18,20.27,3.67,30.29,2.4,16.17,5.19,32.77,11.64,47.78,1.54.18.92-.03,1.17-.86,5.12-16.94,6.22-36.51,12.26-52.72,2.06-5.54,7.57-18.79,15.03-12.37,5.39,4.64,12.6,18.27,17.77,24.66,5.94,7.33,18.05,19.88,26.29,24.05,1.08.55,8.41,3.62,8.8,3.19.18-.84-.17-1.43-.47-2.16-8.3-20.33-24.56-40.05-33.77-59.88-3.98-8.57-1.95-9.67,6.01-13.32,9.75-4.47,20.05-5.41,29.54-9.08,1.63-.63,10.74-4.91,10.36-6.55-5.87-7.03-14.63-11.2-23.38-13.51-6.71-1.77-14.4-1.98-21.05-4.11-4.05-1.29-13.26-4.29-10.53-9.81,9.36-8.05,18.47-16.73,29.25-22.96l-.4-1.5c-7.66-7.49-18.51-16.49-23.85-25.76-8.35-14.51,10.84-11.54,18.97-9.32-7.47-11.62-14.73-24.12-17.4-37.9-1.06-5.47-2.32-14.96-1.93-20.36.47-6.45,2.6-13.32,4.11-19.59-9.23.66-18.54.19-27.82.56-7.85.31-20.22,2.45-27.51,1.81-2.84-.25-4.72-1.99-7.02-2.33-3.75-.57-7.78,1.08-11.09-1.72-6.61,8.27-9.07,18.78-13.14,28.33-2.16,5.05-5.13,9.75-7.03,14.92l5.7-3.33c2.64-2.66,14.4-10.23,17.56-7.07Z"/><path d="M79.86,45.4c-3.16-3.16-14.92,4.41-17.56,7.07l-5.7,3.33c1.9-5.16,4.87-9.86,7.03-14.92,4.07-9.55,6.53-20.06,13.14-28.33,3.31,2.8,7.35,1.16,11.09,1.72,2.3.35,4.18,2.08,7.02,2.33,7.29.64,19.66-1.5,27.51-1.81,9.28-.37,18.58.1,27.82-.56-1.52,6.26-3.64,13.14-4.11,19.59-.39,5.4.87,14.89,1.93,20.36,2.67,13.78,9.93,26.28,17.4,37.9-8.12-2.21-27.31-5.19-18.97,9.32,5.33,9.27,16.18,18.27,23.85,25.76l.4,1.5c-10.79,6.23-19.89,14.91-29.25,22.96-2.73,5.52,6.48,8.52,10.53,9.81,6.66,2.12,14.34,2.34,21.05,4.11,8.75,2.31,17.51,6.48,23.38,13.51.37,1.64-8.73,5.92-10.36,6.55-9.5,3.66-19.79,4.61-29.54,9.08-7.97,3.65-10,4.75-6.01,13.32,9.21,19.83,25.46,39.55,33.77,59.88.3.73.64,1.33.47,2.16-.39.43-7.72-2.65-8.8-3.19-8.23-4.17-20.35-16.71-26.29-24.05-5.18-6.39-12.38-20.02-17.77-24.66-7.46-6.42-12.96,6.83-15.03,12.37-6.04,16.21-7.14,35.78-12.26,52.72-.25.83.37,1.04-1.17.86-6.45-15.01-9.24-31.61-11.64-47.78-1.49-10.02-1.95-20.31-3.67-30.29-.93-5.4-1.91-14.95-9.29-8.88l-11.1,20.21c.58-5.73.81-11.49,1.24-17.23,1.9-25.24,2.03-51.1,7.7-75.96,1.47-6.44,5.04-14.29,6-20.34,1.4-8.8-2.87-6.76-8.33-3.66-6.38,3.63-12.53,9.32-18.03,14.16l-.3-.88c5.14-13.9,9.44-28.18,14.78-42,2.56-6.63,7.91-15.87,9.54-22.09.31-1.19.45-3.06-.46-3.97ZM143.58,141.67c.97-1.42,1.27-3.99.24-5.42-2.29-3.18-15.53-7.15-15.83-12.3-.08-1.33,4.02-12.5,4.61-15.83,1.97-11.21.27-22.1,1.9-32.64,1.56-10.11,6.92-19.72,5.72-30.45-.38-3.39-1.87-8.39-4.78-10.44-6.98-4.89-27.69-6.83-35.54-4.27-4.39,1.43-2.51,2.46-3.34,4.8-4.33,12.09-15.6,24.87-20.45,38.72-1.02,2.93-2.86,6.87,1.57,7.41,7.63-6.12,16.71-13.96,26.91-14.33-3.12,9.34-5.69,18.85-7.43,28.56-4.26,23.67-6.08,47.71-11.32,71.24-.27,2.49.64,6.11,3.7,5.49,2-.41,7.22-5.95,9.61-7.42,1.08-.66,7.77-4.18,8.37-3.62-1.82,5.21-5.04,10.03-6.6,15.35-3.35,11.46-3.26,43.31-2.2,55.8.21,2.49,1.43,8.65,4.38,5.51,2.63-13.05,7.59-27.78,14.83-39.02,4.45-6.91,7.71-9.76,16.38-6.79,4.68,1.6,17.64,9.43,15.37-1.92-8.33-7.52-18.89-13.4-25.08-22.87,4.69-7.44,8.86-15.33,14.78-21.89.92-1.02,3.49-2.59,4.22-3.67Z" style="fill:#fff;"/><path d="M143.58,141.67c-.73,1.08-3.29,2.65-4.22,3.67-5.91,6.55-10.09,14.45-14.78,21.89,6.19,9.47,16.76,15.35,25.08,22.87,2.27,11.35-10.69,3.53-15.37,1.92-8.67-2.97-11.93-.12-16.38,6.79-7.24,11.24-12.2,25.96-14.83,39.02-2.95,3.14-4.17-3.02-4.38-5.51-1.06-12.49-1.16-44.34,2.2-55.8,1.56-5.32,4.78-10.13,6.6-15.35-.6-.56-7.29,2.95-8.37,3.62-2.39,1.46-7.6,7.01-9.61,7.42-3.06.62-3.97-2.99-3.7-5.49,5.24-23.52,7.06-47.57,11.32-71.24,1.75-9.71,4.31-19.22,7.43-28.56-10.2.37-19.28,8.21-26.91,14.33-4.43-.54-2.59-4.48-1.57-7.41,4.84-13.86,16.11-26.63,20.45-38.72.84-2.33-1.05-3.36,3.34-4.8,7.84-2.56,28.56-.62,35.54,4.27,2.92,2.04,4.4,7.04,4.78,10.44,1.2,10.73-4.16,20.34-5.72,30.45-1.63,10.54.08,21.44-1.9,32.64-.59,3.33-4.69,14.51-4.61,15.83.3,5.14,13.54,9.11,15.83,12.3,1.03,1.43.73,3.99-.24,5.42ZM135.34,183.66c-4.38-3.53-15.76-11.45-15.59-17.53.05-1.91,5.55-8.45,6.95-10.62,3.86-5.94,6.56-12.23,12.97-16.3.36-1.42-10.47-6.53-12.3-8.18-7.55-6.8-1.95-10.79-.26-18.44,2.96-13.42.89-26.81,3.37-39.36,1.82-9.19,9.62-25.38,4.44-34.06-1.25-2.1-6.64-3.75-9.06-4.4-8.26-2.22-17.32-1.37-25.72-.39-1.44.59-8.26,14.53-9.55,17.08-3.46,6.83-7.13,13.67-9.44,21l11.89-6.83c3.4-1.08,12.49-5.13,15.31-2.23,2.63,2.72-2.07,12.82-2.92,16.37-4.43,18.48-5.36,37.19-8.56,55.83-1.69,9.87-4.9,19.79-5.48,29.64,3.09-2.38,6.06-5.13,9.66-6.73,2.66-1.19,10.85-4.31,11.6.15.63,3.7-5.38,14-6.76,18.17-3.46,10.44-2.75,23.12-2.48,33.77.08,3.22-.12,6.46-.02,9.68l11-23.23c3.29-4.2,5.67-9.35,11.59-10.06,7.57-.91,12.61,3.56,19.54,5.19-2.89-3.32-6.75-5.76-10.18-8.54Z"/><path d="M135.34,183.66c3.43,2.77,7.3,5.22,10.18,8.54-6.92-1.63-11.97-6.11-19.54-5.19-5.91.71-8.3,5.86-11.59,10.06l-11,23.23c-.1-3.21.11-6.46.02-9.68-.28-10.65-.99-23.33,2.48-33.77,1.38-4.16,7.38-14.46,6.76-18.17-.75-4.46-8.94-1.34-11.6-.15-3.59,1.6-6.57,4.35-9.66,6.73.58-9.86,3.78-19.78,5.48-29.64,3.2-18.64,4.13-37.35,8.56-55.83.85-3.55,5.55-13.66,2.92-16.37-2.82-2.9-11.91,1.14-15.31,2.23l-11.89,6.83c2.31-7.33,5.98-14.17,9.44-21,1.29-2.55,8.11-16.5,9.55-17.08,8.4-.99,17.46-1.83,25.72.39,2.42.65,7.81,2.3,9.06,4.4,5.19,8.68-2.62,24.87-4.44,34.06-2.48,12.55-.41,25.94-3.37,39.36-1.69,7.65-7.29,11.63.26,18.44,1.83,1.65,12.65,6.76,12.3,8.18-6.41,4.07-9.12,10.36-12.97,16.3-1.41,2.17-6.9,8.7-6.95,10.62-.16,6.08,11.22,13.99,15.59,17.53Z" style="fill:#fff;"/></svg>