<?xml version="1.0" encoding="UTF-8"?><svg id="Layer_7" xmlns="http://www.w3.org/2000/svg" viewBox="0 0 230.1 350.46"><path d="M115.65,302.81c-3.72,0-4.56-6.06-5.06-11.75-.05-.61-.09-1.07-.13-1.31-.54-3.09-1.09-6.18-1.64-9.28-3.33-18.59-6.77-37.81-6.09-57.28.22-6.28,1.06-12.56,1.88-18.64.19-1.38.37-2.78.55-4.19l-1.16,2.04s-.05.09-.09.13c-1.62,2.25-4.17,11.58-6.42,19.81-3.75,13.73-5.35,19.02-7.24,20.11-.61.35-1.23.53-1.83.53-4.02,0-4.32-7.2-4.43-9.91v-.13c-.47-10.86.38-22.34,1.21-33.43.98-13.05,1.98-26.54.89-39.32,0-.09,0-.19,0-.28l2.93-28.06-1.16,2.53c-.41,1.07-1.21,3.48-2.13,6.26-4.56,13.78-7.09,20.56-9.08,21.79-.54.34-1.15.65-1.92.65-.33,0-.67-.06-1.01-.18-4.63-.98-3.47-9.51-2.78-14.62.09-.63.16-1.18.2-1.59.8-7.55,1.47-15.53,2.12-23.25,1.3-15.34,2.63-31.21,5.09-45.82.52-3.07,1.27-6.15,2-9.14.73-2.99,1.49-6.08,1.99-9.09.49-2.95.8-6.08,1.11-9.1.35-3.5.71-7.09,1.35-10.62-1.99,1.93-4.33,4.87-6.22,7.23-3.3,4.13-5.24,6.49-6.82,7.06-.54.2-1.07.29-1.58.29-1,0-1.9-.38-2.61-1.1-1.58-1.62-1.65-4.38-1.64-5.19.16-7.45,2.9-18.31,8.15-32.28.93-2.48,2.39-3.07,3.36-3.46.76-.31.99-.4,1.17-1.79.07-.51.02-1.41-.03-2.28-.12-2.24-.24-4.55.95-5.81.5-.53,1.16-.81,1.91-.81s1.57.28,2.52.86c.47.29.74.81.72,1.36l-.03.64s40.91-1.63,40.93-1.63c.15,0,.3.02.44.07,1.18.37,3.38.87,5.91,1.45,12.6,2.88,23.15,5.61,24.68,9.91,1.11,3.12-.47,4.78-1.51,5.89-.61.65-.99,1.07-1.11,1.63-1,4.76,1.92,12.23,4.74,19.46,2.77,7.1,5.39,13.8,4.48,18.36-.59,2.94-2.44,4.56-5.22,4.56-2.48,0-5.35-1.24-8.12-2.43-.08-.03-.16-.07-.24-.1,7.87,9.59,15.26,19.65,22.99,31.3.23.35.71.97,1.25,1.7,4.17,5.48,8.5,11.67,7.21,15.66-.31.97-1.1,2.25-3.1,2.86-.23.07-.48.11-.75.11-.72,0-1.66-.28-2.91-.86,0,0,.01.02.02.03,1.9,3.02,4.06,6.43,4.58,8.33.34,1.24.28,2.31.22,3.26-.04.74-.08,1.37.09,1.94.81,2.67,4.93,9.97,6.49,12.72l.06.11c5.73,10.16,12.28,20.41,18.62,30.33,4.81,7.52,9.78,15.3,14.35,22.98.19.31.43.71.71,1.16,2.16,3.53,4.12,6.84,4.31,8.65.08.78.24,3.45-1.18,5.03-.63.7-1.47,1.08-2.43,1.08-.31,0-.64-.04-.97-.12-.12-.03-.23-.07-.33-.12l-25.72-13.26c4.1,17.42,8.8,35.86,15.99,54.44.68,1.77,1.65,3.84,2.67,6.04,3.67,7.9,8.25,17.73,5.36,24.98-1.41,3.52-3.59,5.31-6.5,5.31h0c-1.77,0-3.74-.65-6.2-2.06-4.8-2.75-10.35-9.79-16.97-21.52-2.28-4.04-4.27-8.3-6.2-12.43-2.36-5.04-4.79-10.23-7.74-15.01-2.68,8.55-3.48,17.48-3.93,25.93-.19,3.7-.02,7.88.15,11.93.21,4.93.42,10.04-.02,14.46-.07.67-1.19,5.92-1.65,6.76-.54.97-2.81,2.51-3.92,2.65-.12.02-.24.02-.36.02-2.41,0-4.01-2.84-5.58-6-.15-.3-.28-.56-.39-.78-11.07-20.94-18.07-43.81-23.7-64.01-.97,2.31-2.12,5.53-2.58,7.06-3.53,11.63-6.81,26.43-8.34,37.71-.16,1.2-.34,3.56-.55,6.29-1.2,15.68-2.28,23.98-4.85,25.82-.73.52-1.47.79-2.2.79Z" style="fill:#e01a83;"/><path d="M81.48,3.04c.44,0,1.01.19,1.74.64l-.12,2.28,42.51-1.69c5.32,1.64,27.83,5.38,29.62,10.43,1.3,3.67-2.13,4.12-2.67,6.71-2.09,9.99,10.93,29.22,9.21,37.83-.5,2.5-1.91,3.35-3.75,3.35-3.91,0-9.77-3.88-12.91-4.16,9.6,11.34,18.07,22.86,26.29,35.25,1.76,2.65,13.24,15.8,6.18,17.96-.09.03-.19.04-.31.04-1.62,0-5.56-2.53-6.88-3.38l-.38,1.15c.44.02.91.11,1.15.53,1.54,2.69,5.69,8.69,6.35,11.09.54,1.96-.19,3.57.32,5.24.87,2.87,5,10.16,6.68,13.13,10.12,17.92,22.41,35.58,32.98,53.33,1.19,1.99,4.61,7.27,4.82,9.2.19,1.77-.17,4.45-2.12,4.45-.19,0-.39-.02-.61-.08l-28.61-14.75c4.64,19.85,9.43,38.77,16.79,57.81,3.1,8.03,11.46,21.34,8.03,29.92-1.25,3.13-3,4.36-5.11,4.36-1.62,0-3.46-.72-5.45-1.86-6.19-3.54-12.88-14.69-16.41-20.95-5.55-9.84-9.27-20.77-15.67-30.1-3.45,9.34-4.48,19.33-5,29.25-.44,8.29.93,18.39.14,26.32-.08.81-1.2,5.7-1.47,6.18-.31.56-2.17,1.81-2.8,1.89-.06,0-.11.01-.17.01-1.95,0-3.82-4.42-4.64-5.97-11.21-21.21-18.15-43.99-24.5-67.04,0,0,0,0-.01,0-1.06,0-4.09,8.93-4.52,10.34-3.42,11.26-6.81,26.3-8.39,37.95-.7,5.16-1.53,28.77-4.78,31.09-.49.35-.93.51-1.33.51-3.2,0-3.44-10.28-3.71-11.81-3.8-21.91-8.5-43.77-7.71-66.25.36-10.08,2.31-20.02,3.25-30l-4.79,8.41c-3.64,5.07-10.2,37.77-13.18,39.49-.4.23-.75.33-1.08.33-2.65,0-2.87-7-2.94-8.6-1.01-23.46,4.15-48.97,2.1-72.82l3.88-37.13-4.96,10.82c-1.75,4.49-8.08,25.82-10.64,27.4-.4.25-.74.42-1.13.42-.18,0-.38-.04-.6-.13-3.9-.67-1.82-11.44-1.49-14.61,2.37-22.39,3.51-47,7.21-68.98,1.02-6.08,2.98-12.15,3.99-18.24,1.26-7.6,1.32-15.79,3.25-23.38-4.54,1.44-12.95,15.26-15.82,16.29-.39.14-.75.21-1.07.21-2.08,0-2.79-2.67-2.75-4.77.2-9.44,4.71-22.87,8.06-31.78,1.48-3.93,4.06-1.29,4.61-5.59.28-2.21-.97-7.59,1.34-7.59M89.76,231.24l.76-1.72-1.19-.11-.15,1.78.58.05M81.48.04h0c-1.15,0-2.22.45-3,1.27-1.64,1.73-1.5,4.37-1.36,6.93.04.73.09,1.63.04,2.01-.03.24-.07.42-.1.53-.05.02-.1.04-.15.06-1.06.43-3.04,1.23-4.2,4.32-5.31,14.13-8.09,25.16-8.25,32.78-.03,1.23.12,4.29,2.06,6.27,1,1.02,2.27,1.56,3.68,1.56.68,0,1.38-.13,2.09-.38,1.96-.71,3.91-3.07,7.48-7.53.78-.97,1.78-2.22,2.83-3.48-.24,1.94-.43,3.87-.63,5.78-.31,3.14-.61,6.1-1.09,9-.49,2.96-1.24,6.02-1.96,8.98-.74,3.01-1.5,6.13-2.02,9.25-2.47,14.67-3.81,30.57-5.11,45.94-.65,7.71-1.32,15.68-2.12,23.22-.04.4-.11.93-.2,1.54-.76,5.62-2.03,14.96,3.87,16.28.46.15.93.23,1.4.23,1.15,0,2.01-.44,2.71-.87,2.11-1.3,4.01-5.52,8.83-19.95l-1.67,15.99c-.02.19-.02.38,0,.57,1.09,12.66.08,26.09-.89,39.08-.83,11.14-1.69,22.66-1.22,33.61v.13c.14,3.1.48,11.34,5.94,11.34.86,0,1.73-.25,2.57-.73,2.29-1.32,3.67-5.42,7.93-21.01,1-3.66,2.19-8,3.31-11.68-.48,3.98-.88,8.02-1.02,12.08-.69,19.63,2.77,38.93,6.11,57.6.55,3.09,1.11,6.17,1.64,9.26.02.15.07.72.11,1.18.43,4.91,1.14,13.12,6.55,13.12,1.05,0,2.08-.36,3.07-1.06,2.84-2.02,4.01-7.81,5.47-26.92.21-2.71.39-5.05.54-6.21,1.53-11.21,4.78-25.92,8.29-37.48.2-.65.53-1.64.92-2.73,5.44,19.17,12.24,40.38,22.59,59.96.11.2.23.45.37.74,1.35,2.72,3.38,6.84,6.92,6.84.19,0,.38-.01.56-.04,1.59-.21,4.28-2.03,5.04-3.42.63-1.15,1.76-6.63,1.83-7.33.45-4.53.23-9.68.03-14.67-.17-4.01-.34-8.16-.15-11.79.38-7.25,1.03-14.85,2.92-22.23,2.11,3.77,3.97,7.74,5.9,11.87,1.94,4.15,3.95,8.44,6.25,12.53,6.75,11.98,12.49,19.2,17.53,22.08,2.69,1.54,4.9,2.26,6.94,2.26,2.47,0,5.84-1.08,7.9-6.25,3.13-7.85-1.59-18.01-5.39-26.17-1.01-2.17-1.96-4.22-2.63-5.94-6.72-17.38-11.26-34.65-15.17-51.07l22.82,11.77c.21.11.44.19.67.25.45.11.89.16,1.32.16,1.37,0,2.63-.56,3.54-1.57,1.79-1.99,1.68-4.99,1.56-6.19-.21-1.94-1.69-4.65-4.53-9.28-.27-.44-.51-.83-.69-1.14-4.58-7.69-9.56-15.48-14.37-23.01-6.32-9.9-12.86-20.13-18.58-30.26l-.05-.09c-1.39-2.45-5.6-9.92-6.37-12.44-.09-.31-.06-.82-.03-1.41.06-1.01.14-2.27-.27-3.75-.38-1.39-1.39-3.25-2.81-5.6.3-.02.59-.08.87-.16,2.04-.62,3.5-1.99,4.09-3.83,1.51-4.68-2.85-10.98-7.45-17.03-.53-.7-.99-1.31-1.2-1.62-6.59-9.93-12.93-18.72-19.54-27.04,1.24.37,2.47.6,3.66.6,3.52,0,5.96-2.1,6.69-5.77,1-4.99-1.7-11.89-4.55-19.2-2.61-6.69-5.57-14.28-4.67-18.61.04-.17.42-.58.73-.91,1.13-1.2,3.24-3.44,1.83-7.42-1.64-4.61-9.61-7.18-25.76-10.87-2.51-.57-4.68-1.07-5.81-1.42-.29-.09-.58-.13-.88-.13-.04,0-.08,0-.12,0l-39.4,1.57c-.21-.71-.67-1.32-1.32-1.72-1.19-.73-2.27-1.08-3.31-1.08h0Z" style="fill:#e01a83;"/><path d="M83.22,3.69l-.12,2.28,42.51-1.69c5.32,1.64,27.83,5.38,29.62,10.43,1.3,3.67-2.13,4.12-2.67,6.71-2.09,9.99,10.93,29.22,9.21,37.83-1.56,7.8-12.04-.39-16.67-.8,9.61,11.34,18.07,22.86,26.29,35.25,1.76,2.65,13.24,15.8,6.18,17.96-1.35.41-5.78-2.43-7.19-3.34l-.38,1.15c.44.02.91.11,1.15.53,1.54,2.69,5.69,8.69,6.35,11.09.54,1.96-.19,3.57.32,5.24.87,2.87,5,10.16,6.68,13.13,10.12,17.92,22.41,35.58,32.98,53.33,1.19,1.99,4.61,7.27,4.81,9.2s-.24,4.97-2.73,4.37l-28.61-14.75c4.64,19.85,9.43,38.77,16.79,57.81,3.1,8.03,11.46,21.34,8.03,29.92-2.21,5.54-5.98,5.12-10.56,2.5-6.19-3.54-12.88-14.69-16.41-20.95-5.55-9.84-9.27-20.77-15.67-30.1-3.45,9.34-4.48,19.33-5,29.25-.44,8.29.93,18.39.14,26.32-.08.81-1.2,5.7-1.47,6.18-.31.56-2.17,1.81-2.8,1.89-2.01.27-3.96-4.36-4.81-5.96-11.21-21.21-18.15-43.99-24.5-67.04-1.05-.08-4.11,8.93-4.54,10.34-3.42,11.26-6.81,26.3-8.39,37.95-.7,5.16-1.53,28.77-4.78,31.09-4.47,3.18-4.74-9.58-5.04-11.3-3.8-21.91-8.5-43.77-7.71-66.25.36-10.08,2.31-20.02,3.25-30l-4.79,8.41c-3.64,5.07-10.2,37.77-13.18,39.49-3.66,2.11-3.94-6.47-4.02-8.27-1.01-23.46,4.15-48.97,2.1-72.82l3.88-37.13-4.96,10.82c-1.75,4.49-8.08,25.82-10.64,27.4-.59.36-1.04.57-1.73.3-3.9-.67-1.82-11.44-1.49-14.61,2.37-22.39,3.51-46.99,7.21-68.98,1.02-6.08,2.98-12.15,3.99-18.24,1.26-7.6,1.32-15.79,3.25-23.38-4.54,1.44-12.95,15.26-15.82,16.29-2.91,1.05-3.86-2.14-3.81-4.56.2-9.44,4.71-22.87,8.06-31.78,1.48-3.93,4.06-1.29,4.61-5.59.34-2.63-1.5-9.75,3.09-6.95ZM157.19,57.4c-1.63-10.22-7.7-19.95-9.05-30.14-.51-3.89-1.45-8.48,2.45-10.88.16-1.64-16.12-5.5-18.44-6.02-9.73-2.19-18.57,3.55-28.34,2.45-6.81-.76-13.55-2.53-20.48-2.64-.08,6.01-3.7,5.02-5.72,10.5-3.04,8.26-5.4,16.8-6.07,25.6,3.73-3.4,12.33-15,17.13-15.76,3.96-.63,2.84,4.48,2.52,7-1.95,15.17-4.94,30.35-7.58,45.43l-6.31,65.1,17.35-40.56c.9-1.17,2.48-.72,3.52-.07.73,1.42-2.84,15.07-3.29,17.91-3.26,20.46-2.65,37.61-3.3,57.83-.49,15.2-1.77,30.47-2.2,45.64,1.52.31.95.09,1.28-.76,4.14-10.56,5.52-20.85,10.87-31.71,1.19-2.42,4.93-9.7,6.42-11.39,1.12-1.26,2.58-1.01,3.55.27,0,5.46-.59,10.98-1.12,16.41-1.14,11.77-2.32,21.67-1.73,33.89.82,16.88,3.6,33.89,7.8,50.2,1.91-17.54,4.85-35.05,9.84-51.99,1.09-3.7,4.6-18.81,10.45-16.26,4.59,9.9,6.73,21.11,10.38,31.54,4.44,12.69,9.92,25.06,16.71,36.68.43-15.2-.59-31.16,2.63-46.13.97-4.53,3.9-18.66,10.56-11.74,8.46,13.74,14.1,31.06,24.33,43.51,2.59,3.15,5.25,6.96,9.51,7.7.24-1.13,1.03-2.28,1.18-3.39.92-6.52-8.37-23.95-11.05-31.01-4.84-12.75-8.61-27.54-11.7-40.87-.72-3.11-3.71-14.6-2.41-16.71.28-.46.89-.88,1.42-.98,4.2-.8,16.26,7.9,20.44,10.2,1.64.9,4.35,2.33,6.18,2.53-9.02-13.71-17.13-27.86-25.42-42.05-4.28-7.33-14.57-21.45-16.57-29.08-.49-1.88.31-3.48-.18-5.36-1.3-5-8.57-12.22-10.86-17.34-.51-1.15-2.27-5.09-.81-5.94,1.63-.48,2.86-.45,4.45.14.65.24,7.06,5.41,6.8,4.22-6.62-9.11-12.45-18.93-19.41-27.79-4.98-6.34-11.45-11.91-15.34-19.1-1.26-2.32-2.32-4.27-1.26-6.87,7.58.24,13.21,7.43,20.87,7.79ZM90.51,229.51l-1.19-.11-.15,1.78.58.05.76-1.72Z"/><path d="M157.19,57.4c-7.66-.35-13.29-7.55-20.87-7.79-1.06,2.61,0,4.55,1.26,6.87,3.89,7.19,10.36,12.76,15.34,19.1,6.96,8.87,12.79,18.69,19.41,27.79.26,1.19-6.15-3.98-6.8-4.22-1.59-.58-2.83-.62-4.45-.14-1.45.86.3,4.79.81,5.94,2.29,5.12,9.55,12.34,10.86,17.34.49,1.88-.31,3.49.18,5.36,2,7.63,12.29,21.75,16.57,29.08,8.28,14.19,16.39,28.33,25.42,42.05-1.83-.2-4.54-1.63-6.18-2.53-4.18-2.3-16.24-11-20.44-10.2-.53.1-1.14.52-1.42.98-1.29,2.12,1.69,13.6,2.41,16.71,3.09,13.33,6.86,28.12,11.7,40.87,2.68,7.06,11.97,24.49,11.05,31.01-.16,1.11-.94,2.26-1.18,3.39-4.26-.73-6.93-4.54-9.51-7.7-10.22-12.45-15.87-29.77-24.33-43.51-6.66-6.92-9.59,7.21-10.56,11.74-3.21,14.97-2.2,30.93-2.63,46.13-6.78-11.62-12.26-23.98-16.71-36.68-3.65-10.42-5.79-21.64-10.38-31.54-5.84-2.55-9.36,12.56-10.45,16.26-4.99,16.94-7.92,34.45-9.84,51.99-4.2-16.31-6.98-33.32-7.8-50.2-.59-12.22.59-22.13,1.73-33.89.52-5.43,1.11-10.95,1.12-16.41-.97-1.28-2.43-1.54-3.55-.27-1.49,1.69-5.23,8.97-6.42,11.39-5.35,10.87-6.73,21.16-10.87,31.71-.33.85.24,1.07-1.28.76.43-15.17,1.72-30.44,2.2-45.64.65-20.22.04-37.37,3.3-57.83.45-2.84,4.01-16.49,3.29-17.91-1.04-.66-2.62-1.11-3.52.07l-17.35,40.56,6.31-65.1c2.64-15.08,5.63-30.26,7.58-45.43.32-2.52,1.44-7.63-2.52-7-4.8.76-13.4,12.36-17.13,15.76.67-8.8,3.03-17.35,6.07-25.6,2.02-5.48,5.64-4.49,5.72-10.5,6.93.11,13.62-1.25,20.48-1.36,9.78-.16,18.61-.64,28.34,1.55,2.32.52,18.6,4.38,18.44,6.02-3.9,2.4-2.96,6.98-2.45,10.88,1.34,10.2,7.42,19.92,9.05,30.14ZM124.04,16.9c-2.16-2.37-16.8-3.42-18.41-.26-.51,2.02,2.64.14,2.94.55-2.74,8.4-2.13,17.22-3.46,25.75-1.51,9.69-4.91,22.29-7.09,32.28-.46,2.12-5.47,12.21.45,11.09,1.42-.27,12.94-9.38,13.75-8.29-.46,23.13.4,46.16.51,69.25.03,6.77-.74,14.2-.62,20.9.06,3.3.24,12.02,5.15,8.78l10.44-22.68c1.67,12.22,3.68,24.89,7.11,36.73,1.1,3.8,3.24,11.33,4.93,14.6,2.92,5.67,5.5,2.93,6.41-2.09,2.58-14.18,1.28-30.01,4.5-44.23.91-.12,1.27.44,1.9.88,4.71,3.26,9.08,7.95,14,11.4,2.07,1.45,17.17,11.09,18.23,11,1.44-.13,2.02-2.31,1.91-3.61-.21-2.43-6.25-7.65-7.11-10.59-10.82-17.34-18.79-36.03-28.07-54.14-3.64-7.11-7.81-13.97-11.74-20.91,3.74-3.15,10.44-5.35,7.46-11.85-1.08-2.36-16.72-11.64-20.09-14.01-1.06-.75-3.92-2.57-4.36-3.51-1.63-10.19-1.85-21.05.87-31.09.35-1.28,1.49-2.37,1.83-3.73.63-2.55.32-10.3-1.43-12.22Z" style="fill:#fff;"/><path d="M124.04,16.9c1.75,1.93,2.07,9.67,1.43,12.22-.34,1.36-1.48,2.46-1.83,3.73-2.72,10.05-2.5,20.9-.87,31.09.44.94,3.3,2.76,4.36,3.51,3.37,2.37,19.01,11.66,20.09,14.01,2.98,6.5-3.72,8.7-7.46,11.85,3.94,6.94,8.1,13.8,11.74,20.91,9.29,18.11,17.26,36.79,28.07,54.14.86,2.94,6.9,8.17,7.11,10.59.11,1.3-.46,3.48-1.91,3.61-1.06.09-16.17-9.55-18.23-11-4.91-3.46-9.28-8.15-14-11.4-.63-.44-1-1-1.9-.88-3.22,14.22-1.92,30.05-4.5,44.23-.91,5.02-3.49,7.76-6.41,2.09-1.68-3.27-3.83-10.79-4.93-14.6-3.43-11.84-5.44-24.51-7.11-36.73l-10.44,22.68c-4.9,3.24-5.09-5.48-5.15-8.78-.11-6.7.65-14.13.62-20.9-.11-23.09-.97-46.12-.51-69.25-.81-1.09-12.33,8.02-13.75,8.29-5.92,1.11-.91-8.97-.45-11.09,2.18-9.99,5.58-22.59,7.09-32.28,1.33-8.53.72-17.35,3.46-25.75-.3-.42-3.45,1.47-2.94-.55,1.61-3.15,16.26-2.11,18.41.26ZM121.52,19.01l-10.09-.57c-2.83,8.01-1.55,16.48-2.76,24.82-1.03,7.14-3.38,14.11-4.85,21.16-1.01,4.83-.97,10.34-3.12,14.99,3.23-.1,12.88-10.13,15.16-5.26l1.33,90.6,10.03-19.05c1.37-1.42,3.17-.45,4.76.05.12,7.29,1.24,15.13,2.61,22.33,1.43,7.52,3.81,18.39,6.41,25.47.32.87.66,1.86,1.63,2.21-.44-3.58.5-7.55.76-11.12.61-8.38.45-17.09,2.61-25.27.66-2.5,1.11-5.54,4.21-5.54,4.28,0,11.17,7.5,14.81,10.23,2.9,2.18,6.27,3.78,8.93,6.29l.38-.87c-3.7-7.4-8.58-14.22-12.5-21.47-5.73-10.58-10.34-22.12-15.81-33.02-2.53-5.05-9.75-15.5-10.84-20.1-.84-3.53-.24-4.55,2.56-6.45,1.67-1.14,6.55-2.16,5.48-4.67l-22.57-15.26c-2.19-1.45-2.38-4.21-2.66-6.59-.99-8.36-.98-19.7,1.16-27.82,1.41-5.35,5.02-9.1,2.36-15.06Z"/><path d="M121.52,19.01c2.66,5.96-.96,9.71-2.36,15.06-2.14,8.13-2.14,19.46-1.16,27.82.28,2.37.47,5.14,2.66,6.59l22.57,15.26c1.07,2.51-3.81,3.53-5.48,4.67-2.8,1.91-3.4,2.92-2.56,6.45,1.09,4.61,8.31,15.06,10.84,20.1,5.47,10.9,10.08,22.44,15.81,33.02,3.93,7.25,8.8,14.07,12.5,21.47l-.38.87c-2.66-2.51-6.03-4.11-8.93-6.29-3.64-2.73-10.53-10.23-14.81-10.23-3.1,0-3.55,3.04-4.21,5.54-2.16,8.18-2,16.89-2.61,25.27-.26,3.57-1.2,7.54-.76,11.12-.97-.35-1.31-1.33-1.63-2.21-2.6-7.08-4.98-17.95-6.41-25.47-1.37-7.19-2.49-15.04-2.61-22.33-1.59-.5-3.38-1.46-4.76-.05l-10.03,19.05-1.33-90.6c-2.28-4.87-11.93,5.16-15.16,5.26,2.15-4.65,2.11-10.17,3.12-14.99,1.47-7.05,3.81-14.02,4.85-21.16,1.21-8.34-.07-16.81,2.76-24.82l10.09.57Z" style="fill:#fff;"/></svg>