<?xml version="1.0" encoding="UTF-8"?><svg id="Layer_5" xmlns="http://www.w3.org/2000/svg" viewBox="0 0 230.1 350.46"><path d="M68.3,261.95c-1.2,0-2.43-.77-3.99-2.51-.25-.28-.39-.66-.38-1.04.22-9.12.46-18.55,1.08-28.06,1.81-27.42,4.02-52.41,12.75-80.73.13-.41.29-.78.47-1.13-1.1.72-2.17,1.48-3.17,2.31-1.15.96-3.16,3-5.5,5.37-7.28,7.4-12.65,12.64-15.59,12.82-.12,0-.23.01-.34.01-1.44,0-2.7-.55-3.63-1.6-1.11-1.25-1.64-3.14-1.41-5.04.02-.14.05-.28.11-.41,4.88-11.43,8.97-23.43,12.92-35.04,2.86-8.39,5.82-17.07,9.06-25.49,1.09-2.84,2.35-5.64,3.57-8.34,1.38-3.08,2.81-6.25,3.97-9.46-3.43,1.6-6.98,4.2-10.43,6.73-3.69,2.71-7.51,5.51-11.39,7.27-.04.02-.09.04-.14.05-.67.23-1.28.34-1.84.34-1.17,0-2.14-.5-2.75-1.41-1.52-2.28-.57-7.51,2.8-15.54,1.32-3.13,2.92-5.48,4.46-7.75.95-1.4,1.93-2.84,2.86-4.47,3.15-5.55,6.26-12.26,9.27-18.74.95-2.05,1.88-4.04,2.78-5.94.15-.33.35-.78.54-1.24-2.3.43-4.65,1.06-7.11,1.9-1.39.48-3.51,1.55-5.56,2.58-3.07,1.55-5.97,3.01-7.74,3.25l-.12.02c-.29.04-.63.09-.98.09-.67,0-1.25-.16-1.78-.5-3.02-2.14-1.63-4.84-1.04-5.99,2.51-4.87,9.91-13.62,14.8-19.41.73-.86,1.39-1.64,1.96-2.33,1.29-1.54,2.93-3.16,4.52-4.73,1.98-1.95,4.02-3.98,5.32-5.77.4-.55.69-1.5.93-2.26.31-1.01.54-1.74,1.16-2.17,1.39-.99,7.71-1.34,9.62-1.43,3.22-.14,6.77-.21,10.85-.21s8.26.07,12.27.14c1.51.03,3,.05,4.48.07l3.98.05c9.24.11,18.79.23,27.64,1.32,3.89.48,6.57,1.78,8.18,3.97.15.21.25.45.28.7.21,1.63.44,3.26.67,4.88.82,5.83,1.66,11.84,1.56,17.96.49-.13,1-.19,1.51-.19,1.28,0,2.52.4,3.58,1.16.07.05.13.1.19.16,1.23,1.24,1.61,4.5-.26,16.94l-.09.57c-.46,3.14-1.36,6.68-2.23,10.11-1.11,4.4-2.26,8.94-2.48,12.54-.21,3.52.51,3.73,2.87,4.42.93.27,1.99.58,3.15,1.14,4.98,2.4,21.56,11.06,25.94,21.82,1.3,3.2.47,7.42-2.03,10.28-2.68,3.06-9.72,6.2-16.52,9.23-3.3,1.47-6.41,2.86-8.41,3.99-4.59,2.61-9.53,5.91-15.42,10.34,4.58,3.23,8.87,7.14,12.86,10.93,12.86,12.22,27.04,26.38,34.64,38.75,2.73,4.44,3.49,7.26,2.44,9.13-.45.8-1.44,1.76-3.6,1.76s-5.49-.99-9.96-3.02c-3.8-1.73-9.17-5.43-14.86-9.35-8.6-5.92-19.3-13.3-24.48-13.3-.12,0-.24,0-.36.01-1.86.14-2.11.69-1.94,4.19.03.55.05,1.11.06,1.66.16,19.69,6.06,46.72,11.48,63.5.1.32.41.99.73,1.7,1.83,4.02,3.37,7.83,2.12,10.23-.34.65-1.04,1.48-2.46,1.75-.09.02-.22.03-.31.03h0c-2.08,0-12.48-8.44-12.58-8.52-7.4-6.76-16.58-17.64-22.39-25.41-2.42-3.23-4.92-7.4-7.34-11.43-3.03-5.04-6.16-10.25-9.06-13.55-.11-.12-.21-.25-.31-.37-10.33,15.08-17.87,32.14-25.17,48.65-2.23,5.04-4.53,10.26-6.88,15.33-.47,1.07-1.35,1.7-2.41,1.7Z" style="fill:#e01a83;"/><path d="M99.2,7.45c5.64,0,11.31.13,16.73.21,10.17.15,21.39.11,31.45,1.36,2.63.33,5.49,1.12,7.16,3.37,1.1,8.59,2.72,16.99,2.08,25.73.06,0,.11.01.15.01.72,0,.27-1,1.13-1.38.6-.27,1.24-.4,1.87-.4.96,0,1.9.3,2.71.88,1.55,1.56-.34,13.39-.76,16.24-1.04,7.07-4.33,16.19-4.72,22.79-.37,6.34,2.78,5.03,6.86,7,8.35,4.02,21.57,12.12,25.2,21.03,1.16,2.85.18,6.49-1.77,8.73-3.76,4.3-18.57,9.51-24.55,12.91-5.95,3.38-11.84,7.58-17.25,11.7,5.16,3.38,9.9,7.69,14.4,11.96,11.08,10.53,26.5,25.61,34.4,38.45,3.99,6.48,3.06,8.6.11,8.6-2.33,0-5.93-1.33-9.34-2.88-9.75-4.43-30.9-22.78-39.96-22.78-.16,0-.32,0-.47.02-4.25.33-3.29,3.91-3.26,7.36.15,19.01,5.67,45.74,11.55,63.95.66,2.05,5.84,10.95,1.55,11.74-.01,0-.02,0-.03,0-1.08,0-10.26-6.94-11.57-8.13-7.2-6.58-16.27-17.27-22.2-25.21-5.38-7.2-11.12-18.98-16.48-25.07-.51-.58-.81-1.26-1.62-1.26-.11,0-.24.01-.37.04-13.97,20.04-22.65,43.12-32.86,65.19-.26.6-.63.83-1.05.83-.97,0-2.19-1.25-2.87-2.01.23-9.34.47-18.68,1.08-28,1.89-28.63,4.17-52.74,12.69-80.38.49-1.59,1.9-2.75,1.34-4.8-2.2,1.36-4.43,2.72-6.44,4.38-3.9,3.24-16.46,17.62-20.22,17.85-.09,0-.17,0-.25,0-2.62,0-3.83-2.55-3.54-4.97,8.43-19.76,14.3-40.55,22-60.57,2.66-6.92,6.25-13.46,8.46-20.51-.16-.03-.31-.04-.46-.04-.62,0-1.12.25-1.71.5-7.48,3.17-14.96,10.88-22.58,14.34-.52.18-.98.26-1.36.26-4.75,0,.44-12.51,1.44-14.87,2.05-4.87,4.77-7.7,7.25-12.07,4.19-7.4,8.38-16.95,12.1-24.78.29-.61,1.52-3.46,1.24-3.73-3.3.43-6.52,1.25-9.66,2.33-3.46,1.19-10.34,5.4-13.02,5.77-.31.04-.61.09-.9.09-.33,0-.66-.06-.98-.27-1.68-1.19-1.33-2.43-.51-4.04,2.8-5.45,12.26-16.3,16.58-21.46,2.84-3.39,7.47-7.21,9.9-10.59.98-1.35,1.28-3.76,1.74-4.08.93-.66,7.19-1.08,8.82-1.15,3.54-.16,7.15-.21,10.78-.21M99.2,4.45c-4.1,0-7.67.07-10.91.22-5.68.25-9.19.83-10.42,1.7-1.03.73-1.37,1.81-1.72,2.95-.18.59-.46,1.47-.71,1.82-1.23,1.7-3.22,3.67-5.16,5.58-1.61,1.59-3.28,3.24-4.61,4.83-.57.68-1.23,1.46-1.96,2.32-4.94,5.84-12.41,14.67-14.99,19.69-1.71,3.32-1.22,5.96,1.44,7.85.04.03.09.06.14.09.77.49,1.64.73,2.58.73.46,0,.87-.06,1.19-.1l.12-.02c1.89-.26,4.36-1.46,8.21-3.4,2-1.01,4.08-2.06,5.37-2.5,1.37-.47,2.71-.88,4.02-1.21-.68,1.44-1.37,2.93-2.07,4.44-3,6.46-6.1,13.13-9.22,18.63-.89,1.58-1.82,2.93-2.79,4.37-1.59,2.33-3.23,4.75-4.61,8.02-5.4,12.84-3.41,15.83-2.67,16.95.89,1.34,2.31,2.08,4,2.08.73,0,1.49-.14,2.32-.42.09-.03.19-.07.28-.11,4.02-1.82,7.9-4.67,11.65-7.42,2.28-1.67,4.48-3.29,6.63-4.63-.77,1.83-1.59,3.66-2.43,5.54-1.22,2.72-2.49,5.54-3.6,8.42-3.25,8.44-6.21,17.13-9.08,25.54-3.95,11.58-8.03,23.55-12.89,34.94-.11.26-.19.54-.22.82-.28,2.33.38,4.65,1.78,6.22,1.21,1.36,2.89,2.11,4.75,2.11.14,0,.29,0,.43-.01,3.22-.19,7.52-4.07,16.57-13.27,1.79-1.82,3.51-3.57,4.67-4.64-7.93,27.08-10.04,51.25-11.79,77.67-.63,9.54-.87,19.41-1.09,28.12-.02.76.26,1.51.77,2.08,1.26,1.4,2.97,3.01,5.1,3.01,1.64,0,3.05-.96,3.78-2.58,2.35-5.08,4.66-10.3,6.89-15.34,7-15.84,14.23-32.2,23.92-46.76,2.56,3.21,5.3,7.77,7.96,12.2,2.44,4.06,4.97,8.27,7.43,11.56,5.86,7.84,15.11,18.8,22.58,25.62.81.74,3.56,2.86,6.13,4.73,5.49,3.99,6.41,4.19,7.46,4.19.18,0,.4-.02.59-.05,1.56-.29,2.81-1.19,3.51-2.53,1.56-3-.09-7.17-2.09-11.54-.27-.58-.6-1.31-.67-1.55-5.38-16.67-11.25-43.52-11.41-63.05,0-.6-.03-1.17-.06-1.73-.04-.83-.1-2.05.03-2.54.1-.03.26-.06.52-.08.08,0,.16,0,.24,0,4.71,0,15.64,7.53,23.63,13.03,5.75,3.96,11.18,7.7,15.1,9.48,4.67,2.12,8.13,3.15,10.58,3.15,3.05,0,4.39-1.58,4.91-2.53,1.34-2.4.58-5.69-2.47-10.65-7.7-12.52-21.96-26.76-34.89-39.05-3.55-3.37-7.33-6.84-11.36-9.86,5.13-3.78,9.52-6.69,13.63-9.02,1.94-1.1,5.02-2.47,8.28-3.93,6.95-3.1,14.14-6.3,17.04-9.61,2.85-3.26,3.79-8.13,2.29-11.83-4.58-11.25-21.57-20.15-26.68-22.61-1.27-.61-2.44-.95-3.38-1.23-.57-.17-1.44-.42-1.62-.59h0s-.28-.46-.17-2.3c.2-3.46,1.34-7.94,2.43-12.27.88-3.46,1.78-7.05,2.26-10.26l.09-.58c1.99-13.25,1.51-16.53-.16-18.22-.12-.12-.25-.23-.38-.33-1.32-.95-2.86-1.44-4.46-1.44h-.01c-.06-5.63-.83-11.12-1.58-16.48-.23-1.62-.45-3.24-.66-4.87-.07-.51-.26-.99-.56-1.4-1.87-2.54-4.88-4.03-9.2-4.57-8.93-1.11-18.53-1.22-27.81-1.34-1.34-.02-2.66-.03-3.97-.05-1.48-.02-2.97-.05-4.48-.07-4.01-.07-8.16-.14-12.29-.14h0Z" style="fill:#e01a83;"/><path d="M80.54,81.46c-.84-.16-1.44.15-2.17.46-7.48,3.17-14.96,10.88-22.58,14.34-6.98,2.36-1-12.06.07-14.61,2.05-4.87,4.77-7.7,7.25-12.07,4.19-7.4,8.38-16.95,12.1-24.78.29-.61,1.52-3.46,1.24-3.73-3.3.43-6.52,1.25-9.66,2.33-3.46,1.19-10.34,5.4-13.02,5.77-.66.09-1.27.21-1.89-.18-1.68-1.19-1.33-2.43-.51-4.04,2.8-5.45,12.26-16.3,16.58-21.46,2.84-3.39,7.47-7.21,9.9-10.59.98-1.35,1.28-3.76,1.74-4.09.93-.66,7.19-1.08,8.82-1.15,9.04-.4,18.6-.13,27.5,0,10.17.15,21.39.11,31.45,1.36,2.63.33,5.49,1.12,7.16,3.37,1.1,8.59,2.72,16.99,2.08,25.73.94.14.37-.96,1.28-1.37,1.52-.68,3.24-.48,4.58.48,1.55,1.56-.34,13.39-.76,16.24-1.04,7.07-4.33,16.19-4.72,22.79-.37,6.34,2.78,5.03,6.86,7,8.35,4.03,21.57,12.12,25.2,21.03,1.16,2.85.18,6.49-1.77,8.73-3.76,4.3-18.57,9.51-24.55,12.91-5.95,3.38-11.84,7.58-17.25,11.7,5.16,3.38,9.91,7.69,14.4,11.96,11.08,10.53,26.5,25.61,34.4,38.45,7.14,11.61-1.5,9.23-9.23,5.72-9.93-4.51-31.65-23.44-40.43-22.76-4.25.33-3.29,3.91-3.26,7.36.15,19.01,5.67,45.74,11.55,63.95.66,2.05,5.84,10.95,1.55,11.74-.9.17-10.28-6.92-11.6-8.13-7.2-6.58-16.27-17.27-22.2-25.21-5.38-7.2-11.12-18.98-16.48-25.07-.58-.66-.89-1.45-1.99-1.22-13.97,20.04-22.65,43.12-32.86,65.19-.88,1.99-2.95-.1-3.92-1.18.23-9.34.47-18.68,1.08-28,1.89-28.63,4.17-52.74,12.69-80.38.49-1.59,1.9-2.75,1.34-4.8-2.2,1.36-4.43,2.72-6.44,4.38-3.9,3.24-16.46,17.62-20.22,17.85-2.79.17-4.1-2.46-3.8-4.96,8.43-19.76,14.3-40.55,22-60.57,2.66-6.92,6.25-13.46,8.46-20.51ZM145.25,143.75c-3.25-2.48-9.62-3.96-6.77-9.3,7.95-4.76,15.39-10.69,23.56-15.06,5.44-2.91,12.45-4.97,17.69-8.06,4.45-2.62,5.6-3.02,2.28-7.59-3.67-5.06-9.8-9.3-15.28-12.23-8.28-4.42-16.05-3.94-15.39-15.61.2-3.55,3.13-11.49,2.92-13.46-.13-1.18-2.06-2.5-2.35-5.28-1.36-13.19-.06-25.23-1.72-38.73-.13-1.09.67-2.31.29-3.13-.84-1.82-8.04-1.19-10.38-1.37-13.98-1.08-28.22-.93-42.28-1-5.74-.03-11.54.07-17.28.33-8.85,9.27-15.92,19.94-23.99,29.86-.11,1.5.21.65,1.01.43,5.53-1.54,9.48-4.17,15.84-5.23,1.58-.26,7.77-1.76,8.24.15-.24,1.21-.57,2.42-1,3.58-3.38,9.22-9.93,22.21-14.51,31.14-2.84,5.55-7.58,10.31-8.41,17.04,6.63-3.56,13.32-9.76,20.47-12.58,2.6-1.03,6.89-2.92,8.21.6l-29.27,80.19c.57.79,2.3-.7,2.71-1.09,5.75-5.4,10.72-11.8,17.58-16.07,2.66-1.66,5.8-4.06,8.96-2.16.98.84.6,2.27.44,3.37-1.19,8.3-5.63,19.35-7.66,28.06-4.45,19.16-5.43,38.54-6.82,58.15-.32,4.56-.56,9.16-.6,13.74l11.97-25.77c3.87-6.62,6.96-14.31,11.19-20.41,3.87-5.58,8.05-10.12,14.07-3.36,5.09,5.71,10.52,16.78,15.52,23.42,4.56,6.06,10.04,12.41,15.15,18.05,2.44,2.69,5.49,5.55,8.15,8.08-3.48-16.38-8.38-32.71-9.93-49.47-.5-5.44-1.33-16.02-.62-21.09,1.17-8.34,12.01-5.48,17.29-3.19,12.15,5.27,21.71,16.27,34.23,21.07.17-.96-.46-1.57-.92-2.29-7.82-11.98-31-34.85-42.61-43.71Z"/><path d="M145.25,143.75c11.61,8.86,34.78,31.74,42.61,43.71.47.72,1.09,1.33.92,2.29-12.51-4.8-22.07-15.8-34.23-21.07-5.28-2.29-16.12-5.15-17.29,3.19-.71,5.08.12,15.66.62,21.09,1.55,16.76,6.45,33.09,9.93,49.47-2.66-2.53-5.71-5.39-8.15-8.08-5.11-5.64-10.58-11.99-15.15-18.05-5-6.64-10.43-17.72-15.52-23.42-6.02-6.76-10.2-2.22-14.07,3.36-4.23,6.11-7.32,13.79-11.19,20.41l-11.97,25.77c.04-4.58.27-9.18.6-13.74,1.39-19.61,2.36-39,6.82-58.15,2.02-8.7,6.46-19.75,7.66-28.06.16-1.11.54-2.54-.44-3.37-3.16-1.89-6.3.51-8.96,2.16-6.86,4.27-11.83,10.68-17.58,16.07-.42.39-2.15,1.88-2.71,1.09l29.27-80.19c-1.32-3.52-5.61-1.63-8.21-.6-7.15,2.83-13.84,9.03-20.47,12.58.84-6.73,5.57-11.49,8.41-17.04,4.58-8.94,11.13-21.93,14.51-31.14.43-1.16.76-2.37,1-3.58-.47-1.92-6.66-.42-8.24-.15-6.36,1.06-10.31,3.68-15.84,5.23-.81.22-1.13,1.07-1.01-.43,8.07-9.91,15.14-20.58,23.99-29.86,5.75-.27,11.54-.36,17.28-.33,14.06.07,28.3-.08,42.28,1,2.34.18,9.53-.45,10.38,1.37.38.81-.42,2.03-.29,3.13,1.66,13.5.36,25.54,1.72,38.73.29,2.78,2.22,4.1,2.35,5.28.21,1.98-2.72,9.91-2.92,13.46-.66,11.67,7.11,11.19,15.39,15.61,5.48,2.93,11.61,7.17,15.28,12.23,3.31,4.57,2.17,4.97-2.28,7.59-5.24,3.09-12.25,5.15-17.69,8.06-8.17,4.37-15.61,10.3-23.56,15.06-2.85,5.35,3.52,6.82,6.77,9.3ZM99.86,26.43c-4.87,8.08-11.09,15.37-16.28,23.22-1.6,2.42-4.93,6.25-3.07,9.17,1.29,2.03,6.02.4,7.92.36,4.16-.08,10.16-.44,14.09,0,.84.09,1.56.03,1.98.95-8.39,19.78-13.79,40.66-20.98,60.89-.18,2.85-.89,6.95,3.13,6.68,1.51-.1,10.35-6.37,12.98-7.53,2.81-1.25,5.47-1.7,8.41-2.41-2.86,7.65-5.83,15.46-7.91,23.39-1.71,6.53-2.54,13.29-4.18,19.82-2.54,10.12-6.48,20.75-8.23,30.98-.37,2.15-.34,4.78,2.5,4.84,1.8.04,6.37-9.66,7.67-11.63,3.35-5.1,7.39-11,12.21-14.7,1.43-.02,4.92,21.11,8.26,23.34,4.71,3.14,3.45-7.23,3.74-9.59.75-5.95,1.48-11.72,4.78-16.87,3.68-5.74,8.05-3.6,13.94-4.78,3.96-5.92-6.44-10.97-9.97-15.22-1.68-2.03-3.78-5.07-3.94-7.77-.25-4.37,7.99-13.24,11.6-15.62,3.9-2.58,17.32-7.23,18.95-9.72,1.51-2.31.86-4.76-.59-6.97-2.85-4.36-9-10.7-12.56-14.95-.6-.72-.75-1.73-1.15-2.2-3.59-4.21-7.56-8.64-12.23-11.63.95-5.44,1.77-10.97,3.15-16.33,1.51-5.85,6.13-15.4,6.18-20.81.03-3.47-7.22-9.81-10.34-11.3-6.98-3.35-15.97-4.38-23.63-4.75l-.07-2.25-1.49-.54-17.36,4.53-.38,1.77,12.87-2.34Z" style="fill:#fff;"/><path d="M99.86,26.43l-12.87,2.34.38-1.77,17.36-4.53,1.49.54.07,2.25c7.66.37,16.65,1.4,23.63,4.75,3.12,1.5,10.37,7.83,10.34,11.3-.05,5.41-4.67,14.96-6.18,20.81-1.38,5.36-2.2,10.89-3.15,16.33,4.67,2.99,8.64,7.42,12.23,11.63.4.47.55,1.48,1.15,2.2,3.56,4.25,9.71,10.59,12.56,14.95,1.45,2.22,2.1,4.67.59,6.97-1.63,2.49-15.05,7.14-18.95,9.72-3.6,2.39-11.85,11.25-11.6,15.62.15,2.7,2.26,5.74,3.94,7.77,3.52,4.25,13.93,9.3,9.97,15.22-5.89,1.18-10.26-.96-13.94,4.78-3.3,5.15-4.04,10.92-4.78,16.87-.3,2.36.97,12.73-3.74,9.59-3.34-2.23-6.83-23.36-8.26-23.34-4.82,3.7-8.86,9.6-12.21,14.7-1.3,1.97-5.87,11.68-7.67,11.63-2.85-.07-2.87-2.69-2.5-4.84,1.75-10.22,5.7-20.86,8.23-30.98,1.64-6.53,2.47-13.29,4.18-19.82,2.08-7.93,5.05-15.75,7.91-23.39-2.94.71-5.6,1.17-8.41,2.41-2.63,1.16-11.48,7.43-12.98,7.53-4.02.28-3.3-3.83-3.13-6.68,7.19-20.23,12.59-41.11,20.98-60.89-.42-.92-1.14-.86-1.98-.95-3.94-.44-9.94-.07-14.09,0-1.9.03-6.63,1.66-7.92-.36-1.86-2.92,1.47-6.75,3.07-9.17,5.19-7.84,11.41-15.13,16.28-23.22ZM142.35,96.89c-2.28-1.67-3.74-4.36-5.62-6.37-1.95-2.09-10.05-8.96-10.42-10.65-2.18-9.72,7.36-28.02,9.27-37.96.09-3.52-5.7-7.07-8.65-8.31-7.46-3.14-16.34-3.83-24.33-4.12-1.79.56-7.44,11.04-8.94,13.3-1.92,2.92-6.95,8.63-8.12,11.19-.28.6-.42,1.07-.3,1.74,6.64-.61,14.05-1.11,20.63.14,1.92.36,3.09,1.07,3.35,3.14l-20.46,61.41c.33.81,1.1.07,1.57-.18,4.43-2.36,9.57-5.7,14.66-6.4,2.22-.3,7.87-.88,8.35,1.91s-5.02,14.67-6.17,18.42c-4.67,15.23-5.79,31.48-11.99,46.25,1.53.38,1.03-.5,1.51-1.1,3.55-4.4,9.32-15.61,16.19-12.8,2.65,1.09,3.67,8.56,4.52,11.29.2.63.37,2.12,1.18,2.03.89-9.9,5.39-22.34,17.56-21.08-3.16-3.9-7.77-6.51-10.67-10.69-6.09-8.79-2.83-14.32,3.09-21.63,6.14-7.58,15.47-11.47,24.54-14.52.1-.65.02-1.16-.29-1.75-2.1-3.96-8.5-8.62-10.46-13.25Z"/><path d="M142.35,96.89c1.96,4.64,8.36,9.3,10.46,13.25.31.59.38,1.1.29,1.75-9.06,3.05-18.4,6.94-24.54,14.52-5.92,7.31-9.18,12.84-3.09,21.63,2.9,4.19,7.51,6.79,10.67,10.69-12.17-1.26-16.67,11.18-17.56,21.08-.81.09-.99-1.4-1.18-2.03-.85-2.73-1.87-10.21-4.52-11.29-6.86-2.81-12.64,8.39-16.19,12.8-.48.6.02,1.48-1.51,1.1,6.2-14.77,7.32-31.02,11.99-46.25,1.15-3.74,6.65-15.66,6.17-18.42s-6.14-2.22-8.35-1.91c-5.09.7-10.24,4.05-14.66,6.4-.47.25-1.24.99-1.57.18l20.46-61.41c-.26-2.07-1.43-2.77-3.35-3.14-6.58-1.25-13.99-.75-20.63-.14-.11-.67.03-1.13.3-1.74,1.18-2.56,6.2-8.27,8.12-11.19,1.49-2.26,7.15-12.74,8.94-13.3,7.99.29,16.87.99,24.33,4.12,2.95,1.24,8.74,4.8,8.65,8.31-1.91,9.94-11.45,28.24-9.27,37.96.38,1.69,8.48,8.55,10.42,10.65,1.88,2.02,3.34,4.71,5.62,6.37Z" style="fill:#fff;"/></svg>