<?xml version="1.0" encoding="UTF-8"?><svg id="Layer_3" xmlns="http://www.w3.org/2000/svg" viewBox="0 0 230.1 350.46"><path d="M120.33,292.09c-.21,0-.42-.05-.62-.13-6.96-3.17-8.87-10.85-10.54-17.62-.47-1.91-.92-3.71-1.46-5.34-4.28-13.05-7.93-26.52-11.46-39.54-1.88-6.92-3.82-14.08-5.83-21.08-2.34-8.14-3.78-16.75-4.37-26.19l-18.78,27.38c-.15.22-.37.4-.61.51-.84.38-1.65.58-2.41.58h0c-3.67,0-5.79-4.12-5.95-11.6-.35-15.92,7.03-43.83,21.94-82.96,1.97-5.17,4.29-10.15,7.05-15.11-.47.35-.93.7-1.34,1.01-3.99,3.03-5.75,4.28-7.04,4.33-.08,0-.15,0-.23,0-1.43,0-2.75-.63-3.7-1.79-1.14-1.37-1.62-3.36-1.27-5.19,1.11-5.78,4.28-10.73,7.35-15.51,1.94-3.02,3.76-5.87,5.02-8.82,1.49-3.5,4.89-14.11,6.3-19.75-2.62,2-4.78,4.58-7.04,7.28l-.38.46c-.25.3-.61.49-1,.53-.26.03-.51.04-.74.04-1.98,0-3.5-.9-4.28-2.54-1.51-3.16.11-8.5,2.01-11.27-.49-3.82-.89-7.91-1.28-11.87-.69-6.98-1.4-14.2-2.6-20.65-.06-.3-.35-.7-.64-1.08-.44-.58-.93-1.24-1-2.1-.05-.62.14-1.24.39-2.02.36-1.12.81-2.52.29-3.41-.24-.41-.27-.91-.09-1.34.18-.44.56-.76,1.02-.87.24-.06.49-.09.72-.09,2.03,0,2.79,1.95,3.17,3.22,4.57-1.35,9.16-1.53,12.73-1.53,1.97,0,3.97.06,5.9.12,1.91.06,3.88.12,5.8.12,1.63,0,3.06-.04,4.4-.14,3.42-.24,6.8-.58,10.08-.91,6.09-.61,11.84-1.19,17.98-1.19,2.74,0,5.32.12,7.87.35,3.77.35,6.56.75,8.12,2.67,1.21,1.49,1.52,3.64,1.08,7.41-.29,2.46-1.21,5.16-2.19,8.02-1.17,3.44-2.39,6.99-2.41,10.03-.02,2.5,1.11,4.82,2.31,7.27,1.85,3.78,3.91,8.01.91,12.79l4.19,1.6c.29.11.53.3.7.56,3.3,4.85-1.66,8.99-5.29,12.02-1.63,1.36-3.8,3.17-4.06,4.23,1.57,1.23,7.78,5.11,9.2,5.89,2.98,1.64,6.11,2.85,9.43,4.13,2.95,1.13,5.99,2.31,8.9,3.81,2.9,1.5,9.66,5.45,9.82,9.85.05,1.26-.43,3.09-2.96,4.64-1.03.63-3.84,1.32-8.71,2.48-2.24.53-5.26,1.25-7.22,1.83,2.44,1.69,5.02,3.23,7.54,4.72,2.62,1.55,5.32,3.16,7.88,4.95,4.84,3.39,20.57,15.19,19.56,24.88-.38,3.66-2.96,6.53-7.67,8.53-5.35,2.28-11.37,3.28-17.19,4.26-3.34.56-6.5,1.09-9.49,1.84-2.29.57-3.24,1.05-3.62,1.3,1.53,7.13,3.81,13.87,6.43,19.04,1.95,3.86,6.08,8.99,10.46,14.43,7.55,9.38,15.35,19.09,15.71,26.35.16,3.18-.42,5.41-1.76,6.82-1,1.04-2.36,1.58-4.05,1.58-2.74,0-5.93-1.39-8.75-2.61-2.7-1.17-6.87-3.47-11.28-5.91-6.99-3.85-15.69-8.65-18.95-9.1-.34-.05-.72-.07-1.2-.07-.14,0-.28,0-.42,0,.38,4.42,4.69,20.59,6.23,25.6.45,1.47,1.27,3.47,2.15,5.6,2.12,5.17,4.52,11.02,4.03,14.6-.18,1.31-.72,2.44-1.57,3.28-.08.08-.17.15-.27.21-.51.31-1.09.47-1.72.47-1.65,0-3.31-1.12-4.52-1.95-.21-.14-.4-.27-.57-.38-6.22-4-15.77-13.54-19.95-18.02-1.79-1.93-3.47-4.03-5.1-6.06-2.83-3.54-5.74-7.18-9.28-9.89-.47,4.64-.41,9.32-.3,13.45.24,9.18,1.1,18.53,1.93,27.58.61,6.67,1.25,13.56,1.63,20.34.39,6.91-.42,10.08-2.71,10.6-.11.02-.22.04-.33.04Z" style="fill:#e01a83;"/><path d="M137.81,7.54c2.53,0,5.1.1,7.73.35,6.8.64,8.68,1.34,7.85,8.42-.62,5.26-4.56,12.36-4.61,18.21-.07,7.58,8.89,13.18,2.33,20.77l6.04,2.31c4.37,6.42-10.56,11.59-9.59,16.04.13.58,8.66,5.85,9.96,6.56,5.83,3.21,12.38,4.87,18.37,7.96,3.37,1.74,13.46,7.77,6.76,11.87-1.99,1.22-18.14,4.13-18.08,5.32,5.51,4.21,11.82,7.21,17.49,11.17,8.14,5.69,29.97,23.23,12.17,30.8-8.17,3.47-18.11,3.93-26.46,6.02-1.19.3-4.56,1.17-4.86,2.4,1.39,6.68,3.61,13.98,6.7,20.07,5.32,10.5,25.47,29.24,26.01,40.17.25,5.21-1.65,6.82-4.32,6.82-2.45,0-5.55-1.35-8.22-2.51-6.92-3-24.93-14.31-30.56-15.09-.47-.06-.94-.08-1.41-.08-.58,0-1.16.03-1.73.03,0,0-.02,0-.03,0-1.27,1.27,5.1,24.13,6.14,27.52,1.53,4.95,6.75,14.96,6.12,19.56-.12.9-.48,1.77-1.13,2.41-.29.18-.6.25-.93.25-1.43,0-3.17-1.37-4.29-2.09-5.77-3.71-14.86-12.62-19.67-17.78-5.47-5.87-9.75-13.3-16.66-17.57-.78,5.29-.76,10.76-.62,16.12.42,16.02,2.66,32.03,3.56,47.96.09,1.66.47,8.6-1.55,9.05-8.13-3.7-8.73-14.54-11.19-22.06-6.54-19.94-11.48-40.38-17.28-60.57-2.86-9.95-4.17-19.94-4.53-30.3l-21.3,31.05c-.66.3-1.26.44-1.79.44-3.76,0-4.38-6.9-4.45-10.14-.47-21.49,13.88-61.51,21.84-82.39,2.64-6.93,5.92-13.46,9.8-19.75-.06-.05-.13-.07-.23-.07-1.81,0-10.46,7.94-12.36,8.03-.05,0-.1,0-.16,0-2.49,0-3.97-2.74-3.5-5.19,1.73-9.03,8.94-16.2,12.27-24.02,1.81-4.24,6.11-17.94,6.91-22.36.07-.38.1-.9-.19-.9-.03,0-.07,0-.11.02-4.21,2.33-7.22,6.04-10.26,9.68-.21.02-.4.03-.59.03-5.58,0-3.1-8.93-.7-11.9-1.38-10.58-2.03-22.78-3.97-33.2-.23-1.24-1.54-2.14-1.62-3.04-.09-1,1.74-3.91.48-6.06.13-.03.25-.05.36-.05,1.75,0,1.79,3.53,2.29,3.58,4.41-1.54,8.99-1.89,13.61-1.89,3.89,0,7.81.25,11.7.25,1.5,0,3.01-.04,4.5-.14,9.59-.66,18.49-2.09,27.95-2.09M137.81,4.54s0,0,0,0c-6.21,0-12.27.61-18.13,1.2-3.26.33-6.63.67-10.03.9-1.3.09-2.7.13-4.29.13-1.9,0-3.86-.06-5.76-.12-1.94-.06-3.95-.13-5.94-.13-3.33,0-7.52.16-11.81,1.23-.65-1.4-1.83-2.92-4.1-2.92h0c-.36,0-.72.05-1.09.14-.92.23-1.68.88-2.04,1.75-.37.87-.3,1.87.18,2.68.18.31-.27,1.73-.42,2.19-.28.87-.54,1.69-.46,2.61.11,1.28.8,2.2,1.3,2.87.13.17.31.42.38.55,1.18,6.36,1.89,13.52,2.57,20.44.37,3.79.76,7.69,1.22,11.38-1.83,3.01-3.59,8.54-1.81,12.26,1.03,2.15,3.08,3.39,5.63,3.39.29,0,.59-.02.89-.05.78-.08,1.5-.46,2-1.06l.38-.46c1.01-1.21,2.01-2.4,3.03-3.52-1.59,5.43-3.73,11.87-4.82,14.43-1.21,2.83-3,5.63-4.9,8.6-3.14,4.9-6.4,9.98-7.56,16.04-.44,2.29.16,4.69,1.59,6.43,1.24,1.5,2.97,2.33,4.86,2.33.1,0,.19,0,.29,0,1.08-.05,2.2-.57,3.96-1.76-1.52,3.12-2.88,6.27-4.11,9.49-14.98,39.3-22.39,67.41-22.03,83.52.25,11.37,4.78,13.07,7.45,13.07.98,0,2-.24,3.04-.71.49-.23.92-.58,1.22-1.03l16.38-23.88c.73,7.91,2.09,15.25,4.1,22.25,2.01,6.99,3.95,14.15,5.82,21.06,3.54,13.04,7.19,26.53,11.49,39.62.52,1.58.96,3.36,1.42,5.24,1.67,6.75,3.75,15.15,11.38,18.62.39.18.82.27,1.24.27.22,0,.45-.02.67-.07,3.96-.9,4.2-6.37,3.88-12.15-.38-6.8-1.02-13.71-1.63-20.39-.83-9.02-1.68-18.35-1.93-27.48-.08-3.22-.14-6.78.06-10.37,2.44,2.27,4.6,4.98,6.85,7.8,1.64,2.06,3.34,4.18,5.17,6.15,4.22,4.53,13.89,14.18,20.24,18.26.17.11.35.23.54.36,1.37.93,3.26,2.2,5.37,2.2.91,0,1.75-.23,2.5-.69.2-.12.38-.26.55-.43,1.08-1.07,1.77-2.5,1.99-4.14.55-3.98-1.83-9.77-4.12-15.38-.86-2.09-1.67-4.07-2.1-5.47-1.33-4.31-4.95-17.78-5.93-23.55,3.26.68,11.81,5.4,18.12,8.87,4.44,2.45,8.64,4.77,11.34,5.94l.07.03c2.95,1.28,6.29,2.73,9.34,2.73,2.64,0,4.25-1.11,5.14-2.04,1.64-1.72,2.35-4.31,2.18-7.92-.38-7.75-8.34-17.64-16.04-27.22-4.32-5.37-8.41-10.45-10.29-14.17-2.42-4.79-4.55-10.95-6.04-17.53.49-.18,1.21-.42,2.26-.68,2.93-.73,6.06-1.26,9.37-1.81,5.91-.99,12.02-2.01,17.53-4.36,6.54-2.78,8.27-6.84,8.57-9.75,1.07-10.22-13.77-21.78-20.2-26.27-2.6-1.82-5.33-3.44-7.97-5-1.61-.96-3.18-1.89-4.7-2.85,1.35-.34,2.77-.68,3.96-.96,5.59-1.33,7.98-1.95,9.15-2.66,3.15-1.93,3.73-4.31,3.67-5.97-.18-5-6.74-9.12-10.63-11.12-2.98-1.54-6.07-2.73-9.05-3.88-3.27-1.26-6.36-2.45-9.25-4.04-1.1-.6-5.58-3.39-7.9-4.97.77-.83,2.1-1.94,2.99-2.69,3.61-3.01,9.64-8.04,5.57-14.01-.34-.51-.84-.89-1.41-1.11l-2.61-1c2.13-4.87-.02-9.27-1.68-12.65-1.12-2.29-2.17-4.45-2.16-6.6.02-2.8,1.2-6.24,2.33-9.56,1-2.93,1.95-5.71,2.26-8.33.36-3.08.44-6.25-1.4-8.53-1.92-2.38-5-2.83-9.14-3.22-2.6-.24-5.22-.36-8.01-.36h0Z" style="fill:#e01a83;"/><path d="M91.43,96.87c-1.11-.93-10.58,7.87-12.59,7.96-2.58.12-4.14-2.69-3.66-5.19,1.73-9.03,8.94-16.2,12.27-24.02,1.81-4.24,6.11-17.94,6.91-22.36.08-.42.11-1.01-.3-.88-4.21,2.33-7.22,6.04-10.26,9.68-6.34.64-3.77-8.8-1.3-11.87-1.37-10.58-2.03-22.78-3.97-33.2-.23-1.24-1.54-2.14-1.62-3.04-.09-1,1.74-3.91.48-6.06,2.11-.52,2.13,3.48,2.66,3.53,9.56-3.34,19.88-1.09,29.81-1.78,12.15-.84,23.21-2.91,35.68-1.74,6.8.64,8.68,1.34,7.85,8.42-.62,5.26-4.56,12.36-4.61,18.21-.07,7.58,8.89,13.18,2.34,20.77l6.04,2.31c4.37,6.42-10.56,11.59-9.59,16.04.13.58,8.66,5.85,9.96,6.56,5.83,3.21,12.38,4.87,18.37,7.96,3.37,1.74,13.46,7.77,6.76,11.87-1.99,1.22-18.14,4.13-18.08,5.32,5.51,4.21,11.82,7.21,17.49,11.17,8.14,5.69,29.97,23.23,12.17,30.8-8.17,3.47-18.11,3.93-26.46,6.02-1.19.3-4.56,1.17-4.86,2.4,1.39,6.68,3.61,13.98,6.7,20.07,5.32,10.5,25.47,29.24,26.01,40.17.49,10-6.95,6.73-12.54,4.3-6.92-3-24.93-14.31-30.56-15.09-1.05-.14-2.12-.05-3.17-.05-1.27,1.27,5.1,24.13,6.14,27.52,1.53,4.95,6.75,14.96,6.12,19.56-.12.9-.48,1.77-1.13,2.41-1.51.93-3.85-.96-5.22-1.84-5.77-3.71-14.86-12.62-19.67-17.78-5.47-5.87-9.75-13.3-16.66-17.57-.78,5.29-.76,10.76-.62,16.12.42,16.02,2.66,32.03,3.56,47.96.09,1.66.47,8.6-1.55,9.05-8.13-3.7-8.73-14.54-11.19-22.06-6.54-19.94-11.48-40.38-17.28-60.57-2.86-9.95-4.17-19.94-4.53-30.3l-21.3,31.05c-5.36,2.46-6.16-6-6.24-9.69-.47-21.49,13.88-61.51,21.84-82.39,2.64-6.93,5.92-13.46,9.8-19.75ZM81.49,96.86c5.14-3.07,10.84-9.32,17.31-7.08,3.26,2.51-4.71,12.51-6.05,15.13-7.24,14.16-13.08,33.37-17.99,48.74-5,15.67-9.76,32-9.66,48.58l21.77-31.48c1.2-.26,3.46-.5,4.27.45,1.11,1.29,1.64,17.31,2.12,20.71,1.5,10.52,5.67,19.58,8.41,29.64,5.06,18.63,7.91,39.19,14.65,57.35.57,1.53,1.15,3.9,2.6,4.71-.9-6.29-1.9-12.68-2.33-19.03-.85-12.54-1.92-28.61-1.68-41.01.03-1.74.58-9.19,1.68-9.91.46-.3,1.19-.27,1.75-.3.18-.85-1.09-.64-1.77-1.43-1.57-1.81-2.43-6.66-3.09-9.2-3.81-14.51-7.98-40.19-2.18-54.08.59-1.4,2.09-2.02,1.79-3.77-4.13.38-8,1.57-11.86,3.06-8.67,3.36-20.97,14.24-13.99-4.63,3.41-9.22,10.19-19.6,14.25-29.06,6-13.98,9.55-28.88,19.22-41.1l-.87-1.22c-3.36-.82-9.97.69-12.75-.8-4.2-2.26,3.39-15.21,4.53-18.16,2.28-5.89,3.73-12.11,6.14-17.85.87-2.08,2.2-4.01,2.93-6.13-.46-.42-12.63,3.79-11.7.3l1.75-1.46c-1.76.2-3.86-.89-4.38,1.16l-1.45-1.46c-.03-1.2,8.85-1.37,10.17-1.52,3.6-.42,5.53-1.79,9.75-.86,4.82,1.06,3.78,4.72,4.93,8.53,1,3.31,2.46,5.79,2.67,9.66.35,6.28-2.51,16.94-1.64,22.1.09.54.46,1.05.43,1.62,9.75-3.18,8.35,11.67,11.07,17.3.3,4.26,1.01,8.54.61,12.83-.38,4.22-2.67,7.94-2.68,12.02.19.7,4.03,4.56,4.9,5.23,4.98,3.83,12.06,6.71,16.49,10.87,2.04,1.92,3.19,6.38.85,8.42-4.93,3.05-20.16,4.73-23.39,8.79-1.3,1.63-1.09,10.62-.67,13.05.71,4.12,4.94,13.61,6.93,17.65,2.09,4.24,4.93,8.49,7.42,12.52.49,1.97-.42,4.72-2.77,3.95-3.31-1.08-15.33-16.77-19.27-14.27-.67,1.76-1.51,3.4-2.12,5.19-3.21,9.42-4.63,20.44-7.7,29.77-.45,1.37-1.27,1.91-1.95,3.01,10.1,3.51,16.18,14.71,23.61,22.05,4.05,4,9,7.2,12.96,11.32.74-.4.14-1.67-.06-2.28-2.34-7.17-11.61-33.44-10.48-39.28,1.29-6.67,7.51-5.6,12.57-3.79,3.36,1.2,8.9,4.45,12.52,6.2,2.75,1.33,17.98,9.97,19.67,9.01.83-.68-.03-2.39-.36-3.16-5.03-11.75-14.09-19.38-20.94-29.39-3.33-4.85-11.35-23.32-11.12-28.72.14-3.36,1.5-5.16,4.53-6.46,8.25-2.16,16.91-2.9,25.1-5.33,10.01-2.96,10.68-3.65,4.14-11.96-7.83-9.96-21.83-14.73-31.13-22.75-1.9-1.64-3.91-3.84-3.46-6.58,4.68-3.33,10.21-3.67,15.55-5.22,1.18-.34,3.61-.83,4.23-1.9-9.75-5.31-23.66-8.78-31.88-16.4-7.37-6.84.06-12.99,6.14-16.99l-.34-1.15c-2.89.51-11.91-2.51-9.51-6.36.38-.62,7.43-2.5,7.39-5.15-1.4-3.94-4.01-7.39-4.49-11.68-.93-8.24,3.36-16.52,5.15-24.19-.82-1.21-23.36-.81-26.57-.62-4.42.26-9.47,1.46-14.07,1.72-6.03.34-13.23-1.05-19.12-.38-2.91.33-5.66,1.72-8.65,1.59.47,6.88,2.31,13.51,3.44,20.26.22,1.3-.08,2.66.14,3.96.51,3.07,2.34,7.19,2.28,10.04-.04,2.02-1.65,3.08-1.76,4.96,1.73-1.33,3.11-2.88,4.95-4.11,1.63-1.09,10.67-6.65,10.81-2.08.07,2.18-3.52,10.3-4.36,13.22-1.27,4.42-1.97,9.75-3.53,14.03-2.68,7.35-8.08,13.74-10.81,21.09ZM109.57,68.18h10.82c1.42,0,4.61,2.24,4.87,3.93.51,3.29-9.08,14.8-9.96,19.08-6.22,19.36-14.73,37.63-23.88,55.72,9.02-3.24,18.72-8.31,28.59-6.06.74,5.04-3.88,8.28-5.46,12.81-3.31,9.5-.12,30.97,2.19,41.1.37,1.63.87,4.68,2.18,5.72,1.79-6.59,3.09-13.89,5.11-20.36,3.29-10.57,5.64-12.42,15.96-5.98-3.18-9.22-7.83-18.26-7-28.39.49-6.02,1.9-7.94,7.29-10.27,4.61-1.99,9.84-2.63,14.47-4.25.79-.28,3.71-.86,3.37-1.85-6.32-7.55-24.65-11.46-22.66-23.89.44-2.72,2.35-5.4,2.72-8.4,1.03-8.33-2.45-17.86-4.05-25.98-.67-.49-3.91,2.08-6.33-.97-3.66-4.59.68-21.62-.08-28.61-.42-3.88-2.83-8.01-3.21-12.01-.71-.95-.92-.34-1.39.38-3.38,5.12-4.89,14.91-7.09,21.01-.92,2.55-7.65,16.03-6.45,17.26Z"/><path d="M81.49,96.86c2.72-7.35,8.13-13.74,10.81-21.09,1.56-4.28,2.26-9.61,3.53-14.03.84-2.92,4.42-11.04,4.36-13.22-.14-4.57-9.18.99-10.81,2.08-1.84,1.23-3.23,2.78-4.95,4.11.12-1.87,1.73-2.94,1.76-4.96.05-2.85-1.77-6.97-2.28-10.04-.22-1.3.08-2.66-.14-3.96-1.14-6.75-2.98-13.38-3.44-20.26,2.99.13,5.74-1.25,8.65-1.59,5.89-.67,13.09.72,19.12.38,4.6-.26,9.65-1.45,14.07-1.72,3.2-.19,25.75-.59,26.57.62-1.8,7.67-6.09,15.95-5.15,24.19.49,4.29,3.09,7.73,4.49,11.68.04,2.65-7,4.54-7.39,5.15-2.4,3.85,6.62,6.87,9.51,6.36l.34,1.15c-6.08,4-13.51,10.15-6.14,16.99,8.22,7.62,22.13,11.09,31.88,16.4-.62,1.07-3.06,1.56-4.23,1.9-5.34,1.55-10.88,1.89-15.55,5.22-.46,2.74,1.56,4.94,3.46,6.58,9.29,8.02,23.29,12.79,31.13,22.75,6.54,8.31,5.87,9-4.14,11.96-8.19,2.43-16.84,3.17-25.1,5.33-3.03,1.3-4.39,3.1-4.53,6.46-.22,5.4,7.8,23.87,11.12,28.72,6.86,10.01,15.91,17.64,20.94,29.39.33.77,1.2,2.48.36,3.16-1.69.96-16.92-7.68-19.67-9.01-3.63-1.75-9.16-5-12.52-6.2-5.06-1.8-11.28-2.88-12.57,3.79-1.13,5.84,8.14,32.11,10.48,39.28.2.61.8,1.88.06,2.28-3.96-4.13-8.91-7.32-12.96-11.32-7.43-7.34-13.5-18.53-23.61-22.05.69-1.11,1.5-1.65,1.95-3.01,3.07-9.33,4.49-20.35,7.7-29.77.61-1.79,1.46-3.43,2.12-5.19,3.94-2.5,15.97,13.19,19.27,14.27,2.36.77,3.26-1.98,2.77-3.95-2.49-4.03-5.33-8.28-7.42-12.52-1.99-4.04-6.22-13.53-6.93-17.65-.42-2.43-.63-11.43.67-13.05,3.24-4.06,18.46-5.75,23.39-8.79,2.35-2.04,1.2-6.5-.85-8.42-4.43-4.16-11.51-7.05-16.49-10.87-.87-.67-4.7-4.52-4.9-5.23.01-4.08,2.3-7.81,2.68-12.02.39-4.29-.31-8.58-.61-12.83-2.72-5.63-1.32-20.49-11.07-17.3.03-.57-.34-1.08-.43-1.62-.87-5.16,1.99-15.81,1.64-22.1-.21-3.86-1.67-6.34-2.67-9.66-1.15-3.81-.11-7.47-4.93-8.53-4.22-.92-6.15.44-9.75.86-1.32.15-10.2.32-10.17,1.52l1.45,1.46c.52-2.05,2.62-.96,4.38-1.16l-1.75,1.46c-.93,3.5,11.24-.72,11.7-.3-.74,2.12-2.06,4.06-2.93,6.13-2.42,5.74-3.86,11.96-6.14,17.85-1.14,2.95-8.72,15.9-4.53,18.16,2.78,1.5,9.39-.02,12.75.8l.87,1.22c-9.67,12.22-13.22,27.12-19.22,41.1-4.06,9.46-10.85,19.84-14.25,29.06-6.97,18.87,5.32,7.99,13.99,4.63,3.86-1.49,7.73-2.68,11.86-3.06.31,1.75-1.2,2.36-1.79,3.77-5.8,13.89-1.62,39.58,2.18,54.08.67,2.54,1.52,7.39,3.09,9.2.69.79,1.95.58,1.77,1.43-.56.03-1.29,0-1.75.3-1.1.72-1.64,8.17-1.68,9.91-.25,12.4.83,28.47,1.68,41.01.43,6.35,1.43,12.74,2.33,19.03-1.45-.8-2.03-3.18-2.6-4.71-6.74-18.16-9.59-38.72-14.65-57.35-2.73-10.07-6.91-19.12-8.41-29.64-.48-3.4-1.02-19.41-2.12-20.71-.81-.94-3.07-.7-4.27-.45l-21.77,31.48c-.1-16.58,4.65-32.91,9.66-48.58,4.91-15.37,10.75-34.58,17.99-48.74,1.34-2.62,9.31-12.63,6.05-15.13-6.48-2.24-12.17,4-17.31,7.08Z" style="fill:#fff;"/><path d="M109.57,68.18c-1.2-1.23,5.53-14.71,6.45-17.26,2.2-6.1,3.71-15.89,7.09-21.01.48-.72.69-1.33,1.39-.38.38,4,2.79,8.13,3.21,12.01.76,6.98-3.58,24.02.08,28.61,2.43,3.05,5.66.48,6.33.97,1.6,8.12,5.09,17.65,4.05,25.98-.37,3-2.28,5.68-2.72,8.4-2,12.43,16.33,16.34,22.66,23.89.34.99-2.58,1.58-3.37,1.85-4.63,1.62-9.86,2.26-14.47,4.25-5.38,2.33-6.8,4.25-7.29,10.27-.82,10.12,3.82,19.17,7,28.39-10.31-6.44-12.67-4.59-15.96,5.98-2.01,6.47-3.32,13.77-5.11,20.36-1.3-1.04-1.8-4.09-2.18-5.72-2.31-10.13-5.5-31.59-2.19-41.1,1.58-4.53,6.2-7.77,5.46-12.81-9.87-2.25-19.57,2.82-28.59,6.06,9.15-18.09,17.66-36.36,23.88-55.72.88-4.28,10.46-15.79,9.96-19.08-.26-1.69-3.45-3.93-4.87-3.93h-10.82Z" style="fill:#fff;"/><path d="M120.33,292.09c-.21,0-.42-.05-.62-.13-6.96-3.17-8.87-10.85-10.54-17.62-.47-1.91-.92-3.71-1.46-5.34-4.28-13.05-7.93-26.52-11.46-39.54-1.88-6.92-3.82-14.08-5.83-21.08-2.34-8.14-3.78-16.75-4.37-26.19l-18.78,27.38c-.15.22-.37.4-.61.51-.84.38-1.65.58-2.41.58h0c-3.67,0-5.79-4.12-5.95-11.6-.35-15.92,7.03-43.83,21.94-82.96,1.97-5.17,4.29-10.15,7.05-15.11-.47.35-.93.7-1.34,1.01-3.99,3.03-5.75,4.28-7.04,4.33-.08,0-.15,0-.23,0-1.43,0-2.75-.63-3.7-1.79-1.14-1.37-1.62-3.36-1.27-5.19,1.11-5.78,4.28-10.73,7.35-15.51,1.94-3.02,3.76-5.87,5.02-8.82,1.49-3.5,4.89-14.11,6.3-19.75-2.62,2-4.78,4.58-7.04,7.28l-.38.46c-.25.3-.61.49-1,.53-.26.03-.51.04-.74.04-1.98,0-3.5-.9-4.28-2.54-1.51-3.16.11-8.5,2.01-11.27-.49-3.82-.89-7.91-1.28-11.87-.69-6.98-1.4-14.2-2.6-20.65-.06-.3-.35-.7-.64-1.08-.44-.58-.93-1.24-1-2.1-.05-.62.14-1.24.39-2.02.36-1.12.81-2.52.29-3.41-.24-.41-.27-.91-.09-1.34.18-.44.56-.76,1.02-.87.24-.06.49-.09.72-.09,2.03,0,2.79,1.95,3.17,3.22,4.57-1.35,9.16-1.53,12.73-1.53,1.97,0,3.97.06,5.9.12,1.91.06,3.88.12,5.8.12,1.63,0,3.06-.04,4.4-.14,3.42-.24,6.8-.58,10.08-.91,6.09-.61,11.84-1.19,17.98-1.19,2.74,0,5.32.12,7.87.35,3.77.35,6.56.75,8.12,2.67,1.21,1.49,1.52,3.64,1.08,7.41-.29,2.46-1.21,5.16-2.19,8.02-1.17,3.44-2.39,6.99-2.41,10.03-.02,2.5,1.11,4.82,2.31,7.27,1.85,3.78,3.91,8.01.91,12.79l4.19,1.6c.29.11.53.3.7.56,3.3,4.85-1.66,8.99-5.29,12.02-1.63,1.36-3.8,3.17-4.06,4.23,1.57,1.23,7.78,5.11,9.2,5.89,2.98,1.64,6.11,2.85,9.43,4.13,2.95,1.13,5.99,2.31,8.9,3.81,2.9,1.5,9.66,5.45,9.82,9.85.05,1.26-.43,3.09-2.96,4.64-1.03.63-3.84,1.32-8.71,2.48-2.24.53-5.26,1.25-7.22,1.83,2.44,1.69,5.02,3.23,7.54,4.72,2.62,1.55,5.32,3.16,7.88,4.95,4.84,3.39,20.57,15.19,19.56,24.88-.38,3.66-2.96,6.53-7.67,8.53-5.35,2.28-11.37,3.28-17.19,4.26-3.34.56-6.5,1.09-9.49,1.84-2.29.57-3.24,1.05-3.62,1.3,1.53,7.13,3.81,13.87,6.43,19.04,1.95,3.86,6.08,8.99,10.46,14.43,7.55,9.38,15.35,19.09,15.71,26.35.16,3.18-.42,5.41-1.76,6.82-1,1.04-2.36,1.58-4.05,1.58-2.74,0-5.93-1.39-8.75-2.61-2.7-1.17-6.87-3.47-11.28-5.91-6.99-3.85-15.69-8.65-18.95-9.1-.34-.05-.72-.07-1.2-.07-.14,0-.28,0-.42,0,.38,4.42,4.69,20.59,6.23,25.6.45,1.47,1.27,3.47,2.15,5.6,2.12,5.17,4.52,11.02,4.03,14.6-.18,1.31-.72,2.44-1.57,3.28-.08.08-.17.15-.27.21-.51.31-1.09.47-1.72.47-1.65,0-3.31-1.12-4.52-1.95-.21-.14-.4-.27-.57-.38-6.22-4-15.77-13.54-19.95-18.02-1.79-1.93-3.47-4.03-5.1-6.06-2.83-3.54-5.74-7.18-9.28-9.89-.47,4.64-.41,9.32-.3,13.45.24,9.18,1.1,18.53,1.93,27.58.61,6.67,1.25,13.56,1.63,20.34.39,6.91-.42,10.08-2.71,10.6-.11.02-.22.04-.33.04Z" style="fill:#e01a83;"/><path d="M137.81,7.54c2.53,0,5.1.1,7.73.35,6.8.64,8.68,1.34,7.85,8.42-.62,5.26-4.56,12.36-4.61,18.21-.07,7.58,8.89,13.18,2.33,20.77l6.04,2.31c4.37,6.42-10.56,11.59-9.59,16.04.13.58,8.66,5.85,9.96,6.56,5.83,3.21,12.38,4.87,18.37,7.96,3.37,1.74,13.46,7.77,6.76,11.87-1.99,1.22-18.14,4.13-18.08,5.32,5.51,4.21,11.82,7.21,17.49,11.17,8.14,5.69,29.97,23.23,12.17,30.8-8.17,3.47-18.11,3.93-26.46,6.02-1.19.3-4.56,1.17-4.86,2.4,1.39,6.68,3.61,13.98,6.7,20.07,5.32,10.5,25.47,29.24,26.01,40.17.25,5.21-1.65,6.82-4.32,6.82-2.45,0-5.55-1.35-8.22-2.51-6.92-3-24.93-14.31-30.56-15.09-.47-.06-.94-.08-1.41-.08-.58,0-1.16.03-1.73.03,0,0-.02,0-.03,0-1.27,1.27,5.1,24.13,6.14,27.52,1.53,4.95,6.75,14.96,6.12,19.56-.12.9-.48,1.77-1.13,2.41-.29.18-.6.25-.93.25-1.43,0-3.17-1.37-4.29-2.09-5.77-3.71-14.86-12.62-19.67-17.78-5.47-5.87-9.75-13.3-16.66-17.57-.78,5.29-.76,10.76-.62,16.12.42,16.02,2.66,32.03,3.56,47.96.09,1.66.47,8.6-1.55,9.05-8.13-3.7-8.73-14.54-11.19-22.06-6.54-19.94-11.48-40.38-17.28-60.57-2.86-9.95-4.17-19.94-4.53-30.3l-21.3,31.05c-.66.3-1.26.44-1.79.44-3.76,0-4.38-6.9-4.45-10.14-.47-21.49,13.88-61.51,21.84-82.39,2.64-6.93,5.92-13.46,9.8-19.75-.06-.05-.13-.07-.23-.07-1.81,0-10.46,7.94-12.36,8.03-.05,0-.1,0-.16,0-2.49,0-3.97-2.74-3.5-5.19,1.73-9.03,8.94-16.2,12.27-24.02,1.81-4.24,6.11-17.94,6.91-22.36.07-.38.1-.9-.19-.9-.03,0-.07,0-.11.02-4.21,2.33-7.22,6.04-10.26,9.68-.21.02-.4.03-.59.03-5.58,0-3.1-8.93-.7-11.9-1.38-10.58-2.03-22.78-3.97-33.2-.23-1.24-1.54-2.14-1.62-3.04-.09-1,1.74-3.91.48-6.06.13-.03.25-.05.36-.05,1.75,0,1.79,3.53,2.29,3.58,4.41-1.54,8.99-1.89,13.61-1.89,3.89,0,7.81.25,11.7.25,1.5,0,3.01-.04,4.5-.14,9.59-.66,18.49-2.09,27.95-2.09M137.81,4.54s0,0,0,0c-6.21,0-12.27.61-18.13,1.2-3.26.33-6.63.67-10.03.9-1.3.09-2.7.13-4.29.13-1.9,0-3.86-.06-5.76-.12-1.94-.06-3.95-.13-5.94-.13-3.33,0-7.52.16-11.81,1.23-.65-1.4-1.83-2.92-4.1-2.92h0c-.36,0-.72.05-1.09.14-.92.23-1.68.88-2.04,1.75-.37.87-.3,1.87.18,2.68.18.31-.27,1.73-.42,2.19-.28.87-.54,1.69-.46,2.61.11,1.28.8,2.2,1.3,2.87.13.17.31.42.38.55,1.18,6.36,1.89,13.52,2.57,20.44.37,3.79.76,7.69,1.22,11.38-1.83,3.01-3.59,8.54-1.81,12.26,1.03,2.15,3.08,3.39,5.63,3.39.29,0,.59-.02.89-.05.78-.08,1.5-.46,2-1.06l.38-.46c1.01-1.21,2.01-2.4,3.03-3.52-1.59,5.43-3.73,11.87-4.82,14.43-1.21,2.83-3,5.63-4.9,8.6-3.14,4.9-6.4,9.98-7.56,16.04-.44,2.29.16,4.69,1.59,6.43,1.24,1.5,2.97,2.33,4.86,2.33.1,0,.19,0,.29,0,1.08-.05,2.2-.57,3.96-1.76-1.52,3.12-2.88,6.27-4.11,9.49-14.98,39.3-22.39,67.41-22.03,83.52.25,11.37,4.78,13.07,7.45,13.07.98,0,2-.24,3.04-.71.49-.23.92-.58,1.22-1.03l16.38-23.88c.73,7.91,2.09,15.25,4.1,22.25,2.01,6.99,3.95,14.15,5.82,21.06,3.54,13.04,7.19,26.53,11.49,39.62.52,1.58.96,3.36,1.42,5.24,1.67,6.75,3.75,15.15,11.38,18.62.39.18.82.27,1.24.27.22,0,.45-.02.67-.07,3.96-.9,4.2-6.37,3.88-12.15-.38-6.8-1.02-13.71-1.63-20.39-.83-9.02-1.68-18.35-1.93-27.48-.08-3.22-.14-6.78.06-10.37,2.44,2.27,4.6,4.98,6.85,7.8,1.64,2.06,3.34,4.18,5.17,6.15,4.22,4.53,13.89,14.18,20.24,18.26.17.11.35.23.54.36,1.37.93,3.26,2.2,5.37,2.2.91,0,1.75-.23,2.5-.69.2-.12.38-.26.55-.43,1.08-1.07,1.77-2.5,1.99-4.14.55-3.98-1.83-9.77-4.12-15.38-.86-2.09-1.67-4.07-2.1-5.47-1.33-4.31-4.95-17.78-5.93-23.55,3.26.68,11.81,5.4,18.12,8.87,4.44,2.45,8.64,4.77,11.34,5.94l.07.03c2.95,1.28,6.29,2.73,9.34,2.73,2.64,0,4.25-1.11,5.14-2.04,1.64-1.72,2.35-4.31,2.18-7.92-.38-7.75-8.34-17.64-16.04-27.22-4.32-5.37-8.41-10.45-10.29-14.17-2.42-4.79-4.55-10.95-6.04-17.53.49-.18,1.21-.42,2.26-.68,2.93-.73,6.06-1.26,9.37-1.81,5.91-.99,12.02-2.01,17.53-4.36,6.54-2.78,8.27-6.84,8.57-9.75,1.07-10.22-13.77-21.78-20.2-26.27-2.6-1.82-5.33-3.44-7.97-5-1.61-.96-3.18-1.89-4.7-2.85,1.35-.34,2.77-.68,3.96-.96,5.59-1.33,7.98-1.95,9.15-2.66,3.15-1.93,3.73-4.31,3.67-5.97-.18-5-6.74-9.12-10.63-11.12-2.98-1.54-6.07-2.73-9.05-3.88-3.27-1.26-6.36-2.45-9.25-4.04-1.1-.6-5.58-3.39-7.9-4.97.77-.83,2.1-1.94,2.99-2.69,3.61-3.01,9.64-8.04,5.57-14.01-.34-.51-.84-.89-1.41-1.11l-2.61-1c2.13-4.87-.02-9.27-1.68-12.65-1.12-2.29-2.17-4.45-2.16-6.6.02-2.8,1.2-6.24,2.33-9.56,1-2.93,1.95-5.71,2.26-8.33.36-3.08.44-6.25-1.4-8.53-1.92-2.38-5-2.83-9.14-3.22-2.6-.24-5.22-.36-8.01-.36h0Z" style="fill:#e01a83;"/><path d="M91.43,96.87c-1.11-.93-10.58,7.87-12.59,7.96-2.58.12-4.14-2.69-3.66-5.19,1.73-9.03,8.94-16.2,12.27-24.02,1.81-4.24,6.11-17.94,6.91-22.36.08-.42.11-1.01-.3-.88-4.21,2.33-7.22,6.04-10.26,9.68-6.34.64-3.77-8.8-1.3-11.87-1.37-10.58-2.03-22.78-3.97-33.2-.23-1.24-1.54-2.14-1.62-3.04-.09-1,1.74-3.91.48-6.06,2.11-.52,2.13,3.48,2.66,3.53,9.56-3.34,19.88-1.09,29.81-1.78,12.15-.84,23.21-2.91,35.68-1.74,6.8.64,8.68,1.34,7.85,8.42-.62,5.26-4.56,12.36-4.61,18.21-.07,7.58,8.89,13.18,2.34,20.77l6.04,2.31c4.37,6.42-10.56,11.59-9.59,16.04.13.58,8.66,5.85,9.96,6.56,5.83,3.21,12.38,4.87,18.37,7.96,3.37,1.74,13.46,7.77,6.76,11.87-1.99,1.22-18.14,4.13-18.08,5.32,5.51,4.21,11.82,7.21,17.49,11.17,8.14,5.69,29.97,23.23,12.17,30.8-8.17,3.47-18.11,3.93-26.46,6.02-1.19.3-4.56,1.17-4.86,2.4,1.39,6.68,3.61,13.98,6.7,20.07,5.32,10.5,25.47,29.24,26.01,40.17.49,10-6.95,6.73-12.54,4.3-6.92-3-24.93-14.31-30.56-15.09-1.05-.14-2.12-.05-3.17-.05-1.27,1.27,5.1,24.13,6.14,27.52,1.53,4.95,6.75,14.96,6.12,19.56-.12.9-.48,1.77-1.13,2.41-1.51.93-3.85-.96-5.22-1.84-5.77-3.71-14.86-12.62-19.67-17.78-5.47-5.87-9.75-13.3-16.66-17.57-.78,5.29-.76,10.76-.62,16.12.42,16.02,2.66,32.03,3.56,47.96.09,1.66.47,8.6-1.55,9.05-8.13-3.7-8.73-14.54-11.19-22.06-6.54-19.94-11.48-40.38-17.28-60.57-2.86-9.95-4.17-19.94-4.53-30.3l-21.3,31.05c-5.36,2.46-6.16-6-6.24-9.69-.47-21.49,13.88-61.51,21.84-82.39,2.64-6.93,5.92-13.46,9.8-19.75ZM81.49,96.86c5.14-3.07,10.84-9.32,17.31-7.08,3.26,2.51-4.71,12.51-6.05,15.13-7.24,14.16-13.08,33.37-17.99,48.74-5,15.67-9.76,32-9.66,48.58l21.77-31.48c1.2-.26,3.46-.5,4.27.45,1.11,1.29,1.64,17.31,2.12,20.71,1.5,10.52,5.67,19.58,8.41,29.64,5.06,18.63,7.91,39.19,14.65,57.35.57,1.53,1.15,3.9,2.6,4.71-.9-6.29-1.9-12.68-2.33-19.03-.85-12.54-1.92-28.61-1.68-41.01.03-1.74.58-9.19,1.68-9.91.46-.3,1.19-.27,1.75-.3.18-.85-1.09-.64-1.77-1.43-1.57-1.81-2.43-6.66-3.09-9.2-3.81-14.51-7.98-40.19-2.18-54.08.59-1.4,2.09-2.02,1.79-3.77-4.13.38-8,1.57-11.86,3.06-8.67,3.36-20.97,14.24-13.99-4.63,3.41-9.22,10.19-19.6,14.25-29.06,6-13.98,9.55-28.88,19.22-41.1l-.87-1.22c-3.36-.82-9.97.69-12.75-.8-4.2-2.26,3.39-15.21,4.53-18.16,2.28-5.89,3.73-12.11,6.14-17.85.87-2.08,2.2-4.01,2.93-6.13-.46-.42-12.63,3.79-11.7.3l1.75-1.46c-1.76.2-3.86-.89-4.38,1.16l-1.45-1.46c-.03-1.2,8.85-1.37,10.17-1.52,3.6-.42,5.53-1.79,9.75-.86,4.82,1.06,3.78,4.72,4.93,8.53,1,3.31,2.46,5.79,2.67,9.66.35,6.28-2.51,16.94-1.64,22.1.09.54.46,1.05.43,1.62,9.75-3.18,8.35,11.67,11.07,17.3.3,4.26,1.01,8.54.61,12.83-.38,4.22-2.67,7.94-2.68,12.02.19.7,4.03,4.56,4.9,5.23,4.98,3.83,12.06,6.71,16.49,10.87,2.04,1.92,3.19,6.38.85,8.42-4.93,3.05-20.16,4.73-23.39,8.79-1.3,1.63-1.09,10.62-.67,13.05.71,4.12,4.94,13.61,6.93,17.65,2.09,4.24,4.93,8.49,7.42,12.52.49,1.97-.42,4.72-2.77,3.95-3.31-1.08-15.33-16.77-19.27-14.27-.67,1.76-1.51,3.4-2.12,5.19-3.21,9.42-4.63,20.44-7.7,29.77-.45,1.37-1.27,1.91-1.95,3.01,10.1,3.51,16.18,14.71,23.61,22.05,4.05,4,9,7.2,12.96,11.32.74-.4.14-1.67-.06-2.28-2.34-7.17-11.61-33.44-10.48-39.28,1.29-6.67,7.51-5.6,12.57-3.79,3.36,1.2,8.9,4.45,12.52,6.2,2.75,1.33,17.98,9.97,19.67,9.01.83-.68-.03-2.39-.36-3.16-5.03-11.75-14.09-19.38-20.94-29.39-3.33-4.85-11.35-23.32-11.12-28.72.14-3.36,1.5-5.16,4.53-6.46,8.25-2.16,16.91-2.9,25.1-5.33,10.01-2.96,10.68-3.65,4.14-11.96-7.83-9.96-21.83-14.73-31.13-22.75-1.9-1.64-3.91-3.84-3.46-6.58,4.68-3.33,10.21-3.67,15.55-5.22,1.18-.34,3.61-.83,4.23-1.9-9.75-5.31-23.66-8.78-31.88-16.4-7.37-6.84.06-12.99,6.14-16.99l-.34-1.15c-2.89.51-11.91-2.51-9.51-6.36.38-.62,7.43-2.5,7.39-5.15-1.4-3.94-4.01-7.39-4.49-11.68-.93-8.24,3.36-16.52,5.15-24.19-.82-1.21-23.36-.81-26.57-.62-4.42.26-9.47,1.46-14.07,1.72-6.03.34-13.23-1.05-19.12-.38-2.91.33-5.66,1.72-8.65,1.59.47,6.88,2.31,13.51,3.44,20.26.22,1.3-.08,2.66.14,3.96.51,3.07,2.34,7.19,2.28,10.04-.04,2.02-1.65,3.08-1.76,4.96,1.73-1.33,3.11-2.88,4.95-4.11,1.63-1.09,10.67-6.65,10.81-2.08.07,2.18-3.52,10.3-4.36,13.22-1.27,4.42-1.97,9.75-3.53,14.03-2.68,7.35-8.08,13.74-10.81,21.09ZM109.57,68.18h10.82c1.42,0,4.61,2.24,4.87,3.93.51,3.29-9.08,14.8-9.96,19.08-6.22,19.36-14.73,37.63-23.88,55.72,9.02-3.24,18.72-8.31,28.59-6.06.74,5.04-3.88,8.28-5.46,12.81-3.31,9.5-.12,30.97,2.19,41.1.37,1.63.87,4.68,2.18,5.72,1.79-6.59,3.09-13.89,5.11-20.36,3.29-10.57,5.64-12.42,15.96-5.98-3.18-9.22-7.83-18.26-7-28.39.49-6.02,1.9-7.94,7.29-10.27,4.61-1.99,9.84-2.63,14.47-4.25.79-.28,3.71-.86,3.37-1.85-6.32-7.55-24.65-11.46-22.66-23.89.44-2.72,2.35-5.4,2.72-8.4,1.03-8.33-2.45-17.86-4.05-25.98-.67-.49-3.91,2.08-6.33-.97-3.66-4.59.68-21.62-.08-28.61-.42-3.88-2.83-8.01-3.21-12.01-.71-.95-.92-.34-1.39.38-3.38,5.12-4.89,14.91-7.09,21.01-.92,2.55-7.65,16.03-6.45,17.26Z"/><path d="M81.49,96.86c2.72-7.35,8.13-13.74,10.81-21.09,1.56-4.28,2.26-9.61,3.53-14.03.84-2.92,4.42-11.04,4.36-13.22-.14-4.57-9.18.99-10.81,2.08-1.84,1.23-3.23,2.78-4.95,4.11.12-1.87,1.73-2.94,1.76-4.96.05-2.85-1.77-6.97-2.28-10.04-.22-1.3.08-2.66-.14-3.96-1.14-6.75-2.98-13.38-3.44-20.26,2.99.13,5.74-1.25,8.65-1.59,5.89-.67,13.09.72,19.12.38,4.6-.26,9.65-1.45,14.07-1.72,3.2-.19,25.75-.59,26.57.62-1.8,7.67-6.09,15.95-5.15,24.19.49,4.29,3.09,7.73,4.49,11.68.04,2.65-7,4.54-7.39,5.15-2.4,3.85,6.62,6.87,9.51,6.36l.34,1.15c-6.08,4-13.51,10.15-6.14,16.99,8.22,7.62,22.13,11.09,31.88,16.4-.62,1.07-3.06,1.56-4.23,1.9-5.34,1.55-10.88,1.89-15.55,5.22-.46,2.74,1.56,4.94,3.46,6.58,9.29,8.02,23.29,12.79,31.13,22.75,6.54,8.31,5.87,9-4.14,11.96-8.19,2.43-16.84,3.17-25.1,5.33-3.03,1.3-4.39,3.1-4.53,6.46-.22,5.4,7.8,23.87,11.12,28.72,6.86,10.01,15.91,17.64,20.94,29.39.33.77,1.2,2.48.36,3.16-1.69.96-16.92-7.68-19.67-9.01-3.63-1.75-9.16-5-12.52-6.2-5.06-1.8-11.28-2.88-12.57,3.79-1.13,5.84,8.14,32.11,10.48,39.28.2.61.8,1.88.06,2.28-3.96-4.13-8.91-7.32-12.96-11.32-7.43-7.34-13.5-18.53-23.61-22.05.69-1.11,1.5-1.65,1.95-3.01,3.07-9.33,4.49-20.35,7.7-29.77.61-1.79,1.46-3.43,2.12-5.19,3.94-2.5,15.97,13.19,19.27,14.27,2.36.77,3.26-1.98,2.77-3.95-2.49-4.03-5.33-8.28-7.42-12.52-1.99-4.04-6.22-13.53-6.93-17.65-.42-2.43-.63-11.43.67-13.05,3.24-4.06,18.46-5.75,23.39-8.79,2.35-2.04,1.2-6.5-.85-8.42-4.43-4.16-11.51-7.05-16.49-10.87-.87-.67-4.7-4.52-4.9-5.23.01-4.08,2.3-7.81,2.68-12.02.39-4.29-.31-8.58-.61-12.83-2.72-5.63-1.32-20.49-11.07-17.3.03-.57-.34-1.08-.43-1.62-.87-5.16,1.99-15.81,1.64-22.1-.21-3.86-1.67-6.34-2.67-9.66-1.15-3.81-.11-7.47-4.93-8.53-4.22-.92-6.15.44-9.75.86-1.32.15-10.2.32-10.17,1.52l1.45,1.46c.52-2.05,2.62-.96,4.38-1.16l-1.75,1.46c-.93,3.5,11.24-.72,11.7-.3-.74,2.12-2.06,4.06-2.93,6.13-2.42,5.74-3.86,11.96-6.14,17.85-1.14,2.95-8.72,15.9-4.53,18.16,2.78,1.5,9.39-.02,12.75.8l.87,1.22c-9.67,12.22-13.22,27.12-19.22,41.1-4.06,9.46-10.85,19.84-14.25,29.06-6.97,18.87,5.32,7.99,13.99,4.63,3.86-1.49,7.73-2.68,11.86-3.06.31,1.75-1.2,2.36-1.79,3.77-5.8,13.89-1.62,39.58,2.18,54.08.67,2.54,1.52,7.39,3.09,9.2.69.79,1.95.58,1.77,1.43-.56.03-1.29,0-1.75.3-1.1.72-1.64,8.17-1.68,9.91-.25,12.4.83,28.47,1.68,41.01.43,6.35,1.43,12.74,2.33,19.03-1.45-.8-2.03-3.18-2.6-4.71-6.74-18.16-9.59-38.72-14.65-57.35-2.73-10.07-6.91-19.12-8.41-29.64-.48-3.4-1.02-19.41-2.12-20.71-.81-.94-3.07-.7-4.27-.45l-21.77,31.48c-.1-16.58,4.65-32.91,9.66-48.58,4.91-15.37,10.75-34.58,17.99-48.74,1.34-2.62,9.31-12.63,6.05-15.13-6.48-2.24-12.17,4-17.31,7.08Z" style="fill:#fff;"/><path d="M109.57,68.18c-1.2-1.23,5.53-14.71,6.45-17.26,2.2-6.1,3.71-15.89,7.09-21.01.48-.72.69-1.33,1.39-.38.38,4,2.79,8.13,3.21,12.01.76,6.98-3.58,24.02.08,28.61,2.43,3.05,5.66.48,6.33.97,1.6,8.12,5.09,17.65,4.05,25.98-.37,3-2.28,5.68-2.72,8.4-2,12.43,16.33,16.34,22.66,23.89.34.99-2.58,1.58-3.37,1.85-4.63,1.62-9.86,2.26-14.47,4.25-5.38,2.33-6.8,4.25-7.29,10.27-.82,10.12,3.82,19.17,7,28.39-10.31-6.44-12.67-4.59-15.96,5.98-2.01,6.47-3.32,13.77-5.11,20.36-1.3-1.04-1.8-4.09-2.18-5.72-2.31-10.13-5.5-31.59-2.19-41.1,1.58-4.53,6.2-7.77,5.46-12.81-9.87-2.25-19.57,2.82-28.59,6.06,9.15-18.09,17.66-36.36,23.88-55.72.88-4.28,10.46-15.79,9.96-19.08-.26-1.69-3.45-3.93-4.87-3.93h-10.82Z" style="fill:#fff;"/></svg>