<?xml version="1.0" encoding="UTF-8"?><svg id="Layer_11" xmlns="http://www.w3.org/2000/svg" viewBox="0 0 230.1 350.46"><path d="M103.41,325.7c-.17,0-.35-.02-.53-.05-4.04-.81-4.45-7.22-4.75-11.89-.07-1.08-.13-2.02-.22-2.63-3.81-24.89-7.88-53.78-7.86-81.7,0-8.84.73-17.6,1.63-25.91-4.81,6.66-8.38,14.42-11.85,21.96-1.46,3.16-2.96,6.43-4.53,9.56-1.3,2.59-2.76,5.12-4.18,7.57-1.79,3.08-3.63,6.27-5.13,9.56-3.66,8.02-6.39,16.44-9.14,28.14-.09.4-.34.74-.69.94-1.05.63-1.98.93-2.82.93-.92,0-1.72-.36-2.31-1.05-1.63-1.89-1.2-5.73-.58-9.83.05-.36.1-.68.14-.96,1.51-11.06,4.23-21.57,6.86-31.74,1.89-7.3,3.83-14.84,5.32-22.51,1.38-7.12,2.26-14.54,3.11-21.71.78-6.59,1.59-13.41,2.79-20.02,1.48-8.16,3.45-16.34,5.47-24.13-.7.82-1.55,1.84-2.42,2.9-4.39,5.3-6.03,7.14-7.13,7.53-.61.22-1.2.33-1.75.33-1.14,0-2.14-.47-2.89-1.35-2.68-3.17-1.7-11.47-.54-18.36l.09-.55c.96-5.86,2.51-11.72,4.01-17.39,1.35-5.1,2.75-10.38,3.69-15.59,1.2-6.66,2.21-14.01,3.19-21.12.41-2.94.81-5.85,1.21-8.65.48-3.31.83-6.68,1.17-9.94,1.04-9.98,2.12-20.28,7.09-29.85-.55.25-1.12.52-1.67.78-2.29,1.1-4.67,2.23-6.62,2.23-1.75,0-2.66-.89-3.12-1.63-1.67-2.71.82-9.14,4.52-17.93,1.09-2.58,2.02-4.8,2.36-6.01.15-.53.34-1.71.54-2.96,1.01-6.29,1.72-9.05,3.47-9.78.19-.08.38-.12.58-.12.17,0,.34.03.5.09,4.31,1.54,7.73,2.49,12.43,2.78,1.54.1,3.13.14,4.87.14,4.93,0,9.97-.38,15.3-.78,5.33-.4,10.84-.82,16.23-.82,9.44,0,16.81,1.31,23.17,4.12,6.38,2.82,7.26,7.93,8.12,12.87.35,2.04.71,4.15,1.46,6.18.48,1.32,2.58,5.05,4.43,8.35,3.7,6.59,3.99,7.25,3.92,8.02-.06.71-.86,2.89-1.41,3.51-.62.69-1.58,1.03-2.95,1.03-2.18,0-5.38-.85-8.47-1.66-1.73-.46-3.5-.93-4.9-1.18,1.72,3.64,4.31,6.91,6.83,10.09,1.46,1.84,2.97,3.74,4.31,5.7,8.5,12.49,15.31,26.55,21.88,40.14,6.98,14.43,14.21,29.36,23.42,42.25.35.49,1.55,1.78,2.52,2.82,2.34,2.51,2.6,2.81,2.69,3.45.22,1.58-.59,6.38-3.35,6.84-.11.02-.23.03-.35.03h0c-1.87,0-4.17-2.49-8.63-8.08-.75-.94-1.4-1.76-1.74-2.12-3.08-3.29-6.3-6.85-9.42-10.3-5.85-6.46-11.9-13.15-17.68-18.85-1.55-1.54-4.59-4.26-6.46-5.64-.25,5.51.56,11.1,1.34,16.52,1.16,8.02,2.36,16.3.27,24.66,6.54,6.78,12.5,14.2,18.26,21.38,1.48,1.84,2.95,3.68,4.44,5.51.38.47,1.08,1.16,1.82,1.88,2.45,2.41,4.2,4.25,4.41,5.98.22,1.87-.14,3.39-1.02,4.38-.5.56-1.43,1.24-2.98,1.24-.38,0-.79-.04-1.21-.12-2.62-.5-9.9-3.81-15.94-6.64l-.36-.17c-1.5-.7-3.09-1.68-4.64-2.63-1.13-.69-2.29-1.41-3.38-1.99,1.01,3.42,2.31,6.8,3.57,10.08,1.13,2.92,2.29,5.95,3.26,9.01,8.15,25.91,14.22,53.31,18.05,81.46.32,2.38,3.12,23.42,1.75,29.61-.74,3.37-2.15,5.07-4.17,5.07-2.52,0-4.77-2.81-7.24-6.21l-.36-.49c-13.61-18.61-29.08-48.56-37.64-72.83-.1-.29-.4-1.29-.83-2.69-.8-2.63-2.84-9.39-4.14-12.94-4.17,7.52-8.64,16.25-11.84,25.57-4.61,13.42-8.1,27.38-11.48,40.88-2.37,9.48-4.82,19.27-7.64,28.82l-.13.46c-1.12,3.92-2.55,8.11-5.41,8.11Z" style="fill:#e01a83;"/><path d="M79.93,4.3c4.46,1.59,8.03,2.56,12.84,2.87,1.63.1,3.28.15,4.96.15,10.09,0,20.97-1.6,31.53-1.6,7.86,0,15.54.89,22.57,3.99,8.08,3.56,6.15,11.03,8.77,18.19,1.05,2.88,8.34,14.84,8.26,15.72-.04.45-.75,2.32-1.04,2.64-.33.37-.98.53-1.83.53-3.82,0-11.83-3.05-15.1-3.05-.21,0-.41.01-.58.04,2.48,7.01,8.11,12.28,12.2,18.3,17.49,25.69,27.36,57.3,45.32,82.42.84,1.17,4.9,5.24,4.95,5.61.18,1.3-.66,4.91-2.11,5.15-.03,0-.07,0-.1,0-1.95,0-7.78-8.13-9.27-9.73-8.76-9.37-18.21-20.37-27.14-29.19-1-.99-7.26-6.87-8.67-6.87-.08,0-.14.02-.19.06-1.43,14.75,5.34,29.19,1.3,43.85,8.38,8.59,15.67,18.13,23.2,27.4,1.41,1.74,5.68,5.15,5.9,7.1.26,2.27-.43,3.95-2.52,3.95-.28,0-.59-.03-.92-.09-2.87-.55-12.7-5.18-15.95-6.7-3.05-1.43-6.6-4.12-9.65-5.4-.23-.1-.4-.14-.54-.14-.36,0-.44.32-.41.9,1.87,7.18,5.12,13.87,7.34,20.92,8.32,26.46,14.25,53.7,17.99,81.21.84,6.16,2.94,23.79,1.78,29.08-.63,2.85-1.6,3.9-2.71,3.9-2.11,0-4.72-3.8-6.38-6.08-14.34-19.62-29.36-49.54-37.43-72.44-.47-1.33-5.36-18.31-6.29-18.31-.01,0-.03,0-.04.01-5.13,9.09-9.92,18.35-13.32,28.25-7.87,22.91-12.31,46.65-19.13,69.76-.47,1.6-1.96,7.49-4.11,7.49-.08,0-.16,0-.24-.02-3.72-.75-3.3-10.15-3.78-13.27-4.07-26.55-7.86-54.55-7.85-81.47,0-10.34,1.01-20.68,2.2-30.94-8.94,10.21-13.72,23.76-19.8,35.88-2.92,5.81-6.61,11.21-9.33,17.18-4.22,9.25-6.91,18.53-9.24,28.42-.84.5-1.52.72-2.06.72-3.13,0-1.64-7.42-1.27-10.14,2.59-18.89,8.6-35.77,12.16-54.17,2.65-13.72,3.41-27.99,5.9-41.74,1.73-9.55,4.12-19.05,6.61-28.42-.04-.05-.1-.07-.17-.07-.58,0-2.04,1.44-2.23,1.63-2,1.97-8.83,10.96-10.27,11.49-.46.17-.87.24-1.24.24-5.23,0-2.35-15.45-1.85-18.52,1.81-11.07,5.71-21.92,7.7-32.95,1.7-9.45,3.02-20.22,4.41-29.82,2.13-14.69,1.63-29.23,9.86-42.38-.1-.02-.21-.02-.33-.02-2.59,0-7.96,3.92-11.04,3.92-.79,0-1.44-.26-1.84-.92-1.99-3.23,5.83-18.4,7.05-22.75.61-2.16,1.38-11.02,3.15-11.77M79.93,1.3c-.4,0-.79.08-1.17.24-2.52,1.06-3.3,4.3-4.37,10.93-.19,1.15-.38,2.34-.5,2.79-.31,1.12-1.28,3.41-2.3,5.83-4.12,9.78-6.47,15.95-4.42,19.3.93,1.51,2.49,2.35,4.4,2.35,1.64,0,3.41-.62,5.18-1.41-3.61,8.68-4.56,17.76-5.48,26.59-.34,3.24-.69,6.59-1.17,9.88-.41,2.81-.81,5.73-1.22,8.68-.98,7.09-1.99,14.41-3.18,21.04-.93,5.14-2.32,10.39-3.66,15.47-1.51,5.7-3.07,11.6-4.04,17.53l-.09.54c-1.82,10.84-1.56,16.7.87,19.58,1.03,1.22,2.46,1.88,4.03,1.88.73,0,1.49-.14,2.26-.42,1.26-.46,2.55-1.74,5.96-5.81-1.44,5.84-2.79,11.84-3.87,17.83-1.2,6.65-2.01,13.49-2.8,20.1-.85,7.15-1.73,14.54-3.09,21.6-1.47,7.62-3.42,15.14-5.3,22.42-2.64,10.21-5.37,20.77-6.89,31.92-.04.27-.08.58-.14.93-.68,4.46-1.12,8.66.93,11.04.87,1.01,2.1,1.57,3.45,1.57,1.13,0,2.3-.38,3.59-1.15.7-.42,1.2-1.1,1.38-1.89,2.73-11.6,5.43-19.93,9.05-27.86,1.47-3.22,3.3-6.38,5.06-9.44,1.43-2.47,2.9-5.02,4.22-7.64,1.58-3.15,3.09-6.43,4.55-9.61,2.59-5.62,5.23-11.35,8.38-16.64-.6,6.49-1.02,13.19-1.02,19.96-.01,28.04,4.06,56.99,7.88,81.93.08.54.14,1.49.21,2.49.33,5.16.78,12.23,5.95,13.27.27.05.55.08.83.08,4.24,0,5.88-5.76,6.86-9.2l.13-.45c2.83-9.57,5.28-19.39,7.65-28.88,3.37-13.47,6.85-27.4,11.44-40.76,2.75-8.02,6.47-15.61,10.11-22.36,1.14,3.48,2.44,7.76,3.02,9.69.5,1.66.73,2.41.85,2.74,8.59,24.39,24.15,54.5,37.84,73.22l.35.48c2.21,3.04,4.96,6.83,8.45,6.83,1.94,0,4.5-1.08,5.64-6.25,1.39-6.31-1.2-26.21-1.73-30.14-3.84-28.23-9.93-55.72-18.1-81.71-.98-3.11-2.15-6.16-3.29-9.1-.82-2.12-1.61-4.18-2.33-6.24,1.57.96,3.18,1.95,4.74,2.68l.36.17c6.51,3.04,13.53,6.23,16.3,6.76.51.1,1.01.15,1.49.15,2.11,0,3.4-.95,4.1-1.74.82-.92,1.73-2.64,1.39-5.55-.26-2.23-2.09-4.17-4.85-6.88-.68-.66-1.38-1.35-1.71-1.76-1.49-1.83-2.96-3.67-4.44-5.51-5.61-7-11.41-14.22-17.77-20.88,1.88-8.35.7-16.51-.44-24.42-.65-4.53-1.28-8.88-1.37-13.19,1.45,1.24,3,2.66,3.94,3.59,5.74,5.68,11.78,12.34,17.62,18.79,3.13,3.45,6.36,7.02,9.44,10.32.29.32.96,1.15,1.66,2.03,5.09,6.38,7.34,8.65,9.8,8.65.2,0,.4-.02.59-.05,3.91-.65,4.88-6.44,4.59-8.53-.16-1.13-.6-1.61-3.08-4.27-.84-.9-2.11-2.27-2.4-2.67-9.14-12.79-16.33-27.65-23.29-42.03-6.6-13.64-13.43-27.75-21.99-40.33-1.37-2.01-2.9-3.93-4.37-5.79-1.85-2.33-3.63-4.58-5.09-6.94.54.14,1.08.28,1.6.42,3.19.84,6.48,1.71,8.86,1.71,1.8,0,3.17-.51,4.07-1.53.85-.95,1.71-3.48,1.79-4.37.11-1.27-.2-1.93-4.1-8.89-1.64-2.92-3.89-6.92-4.33-8.13-.7-1.9-1.05-3.94-1.39-5.92-.88-5.09-1.87-10.85-8.99-13.99-6.57-2.9-14.12-4.24-23.78-4.25-5.45,0-10.99.42-16.34.82-5.3.4-10.31.78-15.18.78-1.71,0-3.27-.05-4.77-.14-4.52-.29-7.83-1.21-12.02-2.7-.33-.12-.67-.17-1.01-.17h0Z" style="fill:#e01a83;"/><path d="M150.31,43.78c2.48,7.01,8.11,12.28,12.2,18.3,17.49,25.69,27.36,57.3,45.32,82.42.84,1.17,4.9,5.24,4.95,5.61.18,1.3-.66,4.91-2.11,5.15-1.84.31-7.85-8.09-9.38-9.72-8.76-9.37-18.21-20.37-27.14-29.19-1.06-1.04-7.98-7.55-8.86-6.81-1.43,14.75,5.34,29.19,1.3,43.85,8.38,8.59,15.67,18.13,23.2,27.4,1.41,1.74,5.68,5.15,5.9,7.1.3,2.57-.63,4.39-3.44,3.85-2.87-.55-12.7-5.18-15.95-6.69-3.05-1.43-6.6-4.12-9.65-5.4-.82-.34-.98-.05-.95.76,1.87,7.18,5.12,13.87,7.34,20.92,8.32,26.46,14.25,53.7,17.99,81.21.84,6.16,2.94,23.79,1.78,29.08-1.83,8.3-6.55,1.29-9.09-2.19-14.34-19.62-29.36-49.54-37.43-72.44-.47-1.35-5.5-18.81-6.33-18.3-5.13,9.09-9.92,18.35-13.32,28.25-7.87,22.91-12.31,46.65-19.13,69.76-.49,1.65-2.06,7.93-4.34,7.47-3.72-.75-3.3-10.15-3.78-13.27-4.07-26.55-7.86-54.55-7.85-81.47,0-10.34,1.01-20.68,2.2-30.94-8.94,10.21-13.71,23.76-19.8,35.88-2.92,5.81-6.61,11.21-9.33,17.18-4.22,9.25-6.91,18.53-9.24,28.42-5.73,3.42-3.76-6.23-3.32-9.41,2.59-18.89,8.6-35.77,12.16-54.17,2.65-13.72,3.41-27.99,5.9-41.74,1.73-9.55,4.12-19.05,6.61-28.42-.38-.43-2.18,1.35-2.4,1.57-2,1.97-8.83,10.96-10.27,11.49-6.89,2.5-3.63-14.99-3.09-18.28,1.81-11.07,5.71-21.92,7.7-32.95,1.7-9.45,3.02-20.22,4.41-29.82,2.13-14.69,1.63-29.23,9.86-42.38-3.04-.48-11.17,6.29-13.21,2.98-1.99-3.23,5.83-18.4,7.05-22.75.61-2.16,1.38-11.02,3.15-11.77,4.46,1.59,8.03,2.56,12.84,2.87,18.72,1.19,41.02-5.42,59.06,2.54,8.08,3.56,6.15,11.03,8.77,18.19,1.05,2.88,8.34,14.84,8.26,15.72-.04.45-.75,2.32-1.04,2.64-1.92,2.15-14.14-3.03-17.51-2.48ZM162.21,41.57c-2.19-4.37-5.76-9.31-7.16-13.95-.99-3.28-.67-10.13-2.51-12.18-.8-.89-4.57-2.35-5.83-2.69-17.03-4.6-35.98.13-53.3-.84-4.39-.25-9.45-.38-12.71-3.71.59,9.54-6.02,18.24-7.61,26.86-.26,1.42.81.68,1.84.31,1.68-.6,12.73-6.4,13.11-3.25-3.05,8.42-7.08,16.16-8.62,25.2-1.08,6.33-.73,13.14-1.55,19.68-1.16,9.2-2.76,19.47-4.29,28.66-2.23,13.37-6.97,26.77-8.3,40.21-.15,1.47.05,3.16.17,4.64,4.16-4.01,9.53-12.89,16.22-9.34-.35,11.36-4.47,22.25-6.34,33.42-2.35,14.1-3.21,29.06-5.85,43.1-1.6,8.51-4.64,16.75-6.25,25.26l6.5-10.55c5.48-9.67,9.19-20.25,15.08-29.66,3.04-4.86,6.82-9.13,9.71-14.09l3.73-.09c1.57,1.25-1.37,22.45-1.55,25.69-1.14,19.98.83,43.72,3.12,63.72,1.22,10.65,3.57,21.17,4.52,31.85l2.44-7.09c7.09-25.86,13.11-55.81,26.12-79.38,2.46-4.46,7.42-14.81,11.82-5.61,3.66,7.65,6.14,18.72,9.55,27.03,5.92,14.44,13.89,28.46,21.75,41.94,3.83,6.56,7.86,13.24,12.11,19.44-.21-5.31-.22-10.66-.74-15.95-2.66-27.05-8.77-56.79-16.78-82.72-2.3-7.44-5.65-14.76-7.9-22.04-.6-1.93-3.25-11.06-2-12.21.79-.02,1.75-.33,2.5-.18,3.78.74,12.16,6.42,16.39,8.29,1.52.67,3.98,1.7,5.62,1.79-6.3-8.09-12.97-15.87-19.56-23.72-1.66-1.97-3.93-2.83-4.87-5.54-1.35-3.87.03-2.78,1.06-4.08,3.18-4-2.26-33.25-1.75-41.13.32-4.88,1.97-5.17,6.6-4.22,2.99.62,6.89,4.15,9.22,6.27,5,4.56,9.43,10.54,14.07,15.51l.37-.82c-11.9-18.62-18.91-40.32-30.92-58.75-5.06-7.76-12.33-15.35-15.5-24.34-.34-.97-.61-2.02-.7-3.05.49-1.36,8.43-.1,10.14.2,1.43.24,8.26,2.44,8.82,2.12ZM63.04,244.68l.13-1.15-.56-.06-.13,1.15.56.06Z"/><path d="M162.21,41.57c-.56.32-7.39-1.87-8.82-2.12-1.72-.29-9.65-1.56-10.14-.2.09,1.03.35,2.08.7,3.05,3.18,8.99,10.44,16.58,15.5,24.34,12.02,18.43,19.02,40.13,30.92,58.75l-.37.82c-4.64-4.97-9.07-10.95-14.07-15.51-2.32-2.12-6.22-5.65-9.22-6.27-4.63-.95-6.28-.66-6.6,4.22-.52,7.88,4.93,37.13,1.75,41.13-1.03,1.3-2.41.2-1.06,4.08.95,2.72,3.22,3.57,4.87,5.54,6.6,7.85,13.26,15.63,19.56,23.72-1.64-.09-4.1-1.12-5.62-1.79-4.23-1.87-12.61-7.56-16.39-8.29-.75-.15-1.71.16-2.5.18-1.26,1.15,1.4,10.28,2,12.21,2.25,7.28,5.6,14.6,7.9,22.04,8.01,25.93,14.12,55.67,16.78,82.72.52,5.29.54,10.65.74,15.95-4.25-6.21-8.28-12.88-12.11-19.44-7.86-13.48-15.83-27.5-21.75-41.94-3.4-8.31-5.89-19.38-9.55-27.03-4.41-9.21-9.36,1.14-11.82,5.61-13.02,23.57-19.03,53.52-26.12,79.38l-2.44,7.09c-.95-10.68-3.3-21.2-4.52-31.85-2.29-19.99-4.27-43.73-3.12-63.72.19-3.24,3.12-24.43,1.55-25.69l-3.73.09c-2.89,4.96-6.67,9.23-9.71,14.09-5.89,9.41-9.6,19.99-15.08,29.66l-6.5,10.55c1.6-8.51,4.64-16.75,6.25-25.26,2.64-14.04,3.5-29,5.85-43.1,1.86-11.17,5.99-22.07,6.34-33.42-6.7-3.55-12.07,5.33-16.22,9.34-.12-1.48-.32-3.17-.17-4.64,1.33-13.44,6.07-26.84,8.3-40.21,1.54-9.19,3.13-19.46,4.29-28.66.83-6.54.47-13.35,1.55-19.68,1.54-9.04,5.57-16.79,8.62-25.2-.38-3.14-11.44,2.66-13.11,3.25-1.03.37-2.1,1.1-1.84-.31,1.59-8.62,8.2-17.32,7.61-26.86,3.26,3.33,8.32,3.47,12.71,3.71,17.32.98,36.27-3.76,53.3.84,1.25.34,5.03,1.79,5.83,2.69,1.84,2.05,1.51,8.9,2.51,12.18,1.4,4.65,4.97,9.59,7.16,13.95ZM136.2,66.14l5.72.91c5.91-3.77,1.71-10.97-.71-15.72-2.86-5.64-6.48-9.56-8.08-16.11-.68-2.79-.89-10.94-2.38-12.28-3.7-3.34-19.97,2.19-25,2.69-.22,1.04-1.97,2.39-2.13,2.95-.28.97,1.49,1.51,1.28,3.44-.5,4.55-4.4,12.76-5.83,17.68-6.02,20.74-15.22,42.22-18.55,63.12-.5,3.12-2.64,11.56,2.33,11.61,3.2.03,19.02-14.87,20.4-12.93-2.5,9.07-3.27,18.54-5.36,27.68-1.97,8.63-5.11,17.04-7.3,25.59-.54,2.11-1.75,5.84-1.58,7.82.09,1.12,1.32,3.15,2.6,2.66,1.79-.67,9.22-9.18,11.69-11.02.6-.45,5.96-3.44,6.19-3.09-3.21,13.67-.44,27.67-1.01,41.55-.33,7.93-2.06,16.88-1.55,24.89.2,3.16,3.31,7.39,5.87,3.44,3.86-12.76,8.82-24.89,15.4-36.45,1.78-3.12,3.5-6.47,5.61-9.38,1.16-1.6,5.95-7.62,7.86-7.03l18.66,27.6c5.87,4.26,3.64-7.17,2.98-10.29-4.06-19.26-11.73-38.32-17.19-57.16-.76-2.61-4.87-16.98-3.87-18.47,6.52-3.33,17.08-1.58,15.54-12.45-.38-2.67-8.64-14.66-10.59-18.3-3.98-7.45-7.13-15.45-11.01-22.96Z" style="fill:#fff;"/><rect x="54.54" y="243.5" width=".57" height="1.15" transform="translate(26.81 -4.51) rotate(6.23)" style="fill:#fff;"/><path d="M136.2,66.14c3.88,7.5,7.03,15.51,11.01,22.96,1.95,3.65,10.21,15.63,10.59,18.3,1.53,10.87-9.02,9.12-15.54,12.45-1,1.49,3.11,15.86,3.87,18.47,5.46,18.84,13.13,37.9,17.19,57.16.66,3.11,2.88,14.55-2.98,10.29l-18.66-27.6c-1.91-.59-6.7,5.43-7.86,7.03-2.11,2.91-3.83,6.26-5.61,9.38-6.58,11.56-11.54,23.7-15.4,36.45-2.56,3.95-5.67-.28-5.87-3.44-.51-8.01,1.22-16.97,1.55-24.89.57-13.87-2.21-27.87,1.01-41.55-.23-.35-5.58,2.64-6.19,3.09-2.47,1.84-9.9,10.35-11.69,11.02-1.29.48-2.51-1.54-2.6-2.66-.17-1.98,1.04-5.71,1.58-7.82,2.19-8.56,5.33-16.97,7.3-25.59,2.09-9.14,2.86-18.61,5.36-27.68-1.38-1.95-17.2,12.96-20.4,12.93-4.97-.05-2.83-8.49-2.33-11.61,3.33-20.9,12.53-42.38,18.55-63.12,1.43-4.92,5.33-13.13,5.83-17.68.21-1.92-1.56-2.47-1.28-3.44.16-.57,1.91-1.92,2.13-2.95,5.03-.51,21.29-6.03,25-2.69,1.49,1.34,1.7,9.49,2.38,12.28,1.6,6.55,5.22,10.48,8.08,16.11,2.41,4.75,6.62,11.95.71,15.72l-5.72-.91ZM128.31,26.21c-.7-.89-20.32,2.39-21.39,4.49-.23.45-.48,4.35-.79,5.54-3,11.44-5.76,23.89-9.15,35.07-4.19,13.82-9.71,24.86-12.33,39.62-.49,2.74-.5,5.6-.91,8.35,5.42-3.18,9.86-8.45,15.49-11.15,9.12-4.38,8.93-1.16,7.73,7-1.2,8.16-2.91,18.25-4.66,26.28-1.64,7.53-4.98,14.72-5.93,22.39,2.14-1.09,3.73-3.01,5.76-4.28,2.13-1.33,10.77-6.42,12.18-2.51.8,2.21-1.55,14.55-1.69,18.17-.26,6.94,1.05,14.26,1.09,21.19.03,5.27-1.07,10.66-1.05,15.56,0,.87-.07,1.79.95,2.12.14-2.11.97-4.04,1.8-5.94,3.7-8.45,12.47-25.28,18.74-31.65,10.37-10.52,15.03,4.13,20.3,11.25.2.26,1.18,2.16,1.55,1.51-2-5.65-2.88-11.68-4.52-17.4-3.26-11.36-7.87-22.35-11.02-33.73-1.34-4.84-4.76-16.25-3.22-20.61,2.24-6.33,15.91-3.38,15.54-8.22-4.05-8.07-9.03-15.55-13.11-23.61-1.88-3.72-10.1-20.39-9.48-23.38.48-2.31,3.39-1.91,5.09-1.47.82.21,5.12,3.11,5.4,1.44-3.82-12.33-14.59-22.04-12.38-36.05Z"/><path d="M128.31,26.21c-2.22,14,8.56,23.71,12.38,36.05-.29,1.68-4.58-1.22-5.4-1.44-1.7-.44-4.61-.84-5.09,1.47-.62,3,7.6,19.66,9.48,23.38,4.08,8.06,9.06,15.54,13.11,23.61.38,4.84-13.3,1.88-15.54,8.22-1.54,4.36,1.88,15.77,3.22,20.61,3.15,11.38,7.76,22.37,11.02,33.73,1.64,5.72,2.52,11.75,4.52,17.4-.36.64-1.35-1.25-1.55-1.51-5.27-7.12-9.93-21.78-20.3-11.25-6.27,6.36-15.03,23.19-18.74,31.65-.83,1.9-1.66,3.83-1.8,5.94-1.02-.33-.95-1.25-.95-2.12-.01-4.9,1.08-10.29,1.05-15.56-.04-6.93-1.35-14.26-1.09-21.19.13-3.62,2.48-15.97,1.69-18.17-1.41-3.91-10.05,1.18-12.18,2.51s-3.61,3.19-5.76,4.28c.94-7.66,4.29-14.85,5.93-22.39,1.75-8.03,3.45-18.11,4.66-26.28,1.2-8.16,1.39-11.38-7.73-7-5.63,2.7-10.07,7.97-15.49,11.15.42-2.75.43-5.6.91-8.35,2.61-14.77,8.13-25.8,12.33-39.62,3.39-11.18,6.15-23.63,9.15-35.07.31-1.2.57-5.09.79-5.54,1.06-2.1,20.69-5.38,21.39-4.49Z" style="fill:#fff;"/></svg>