<?xml version="1.0" encoding="UTF-8"?><svg id="Layer_1" xmlns="http://www.w3.org/2000/svg" viewBox="0 0 244 523"><path d="M151.495,417.997c.596,2.818-1.869,7.532-.406,10.051.325.542,6.854,3.604,8.886,6.475,5.066,7.18,9.049,20.319,13.682,28.203,3.278,5.608,10.484,15.334,14.792,20.753,1.95,2.438,9.048,9.292,13.383,14.06.298-4.714,1.057-9.59,2.547-14.711-7.017-7.802-12.49-16.797-18.098-25.737,0,0,18.775-17.8,19.615-16.689,1.517,2.005,7.396,8.778,10.999,13.492,2.493-4.199,5.31-7.992,8.643-11.135l-32.511-46.165-.189-13.844c-3.116-.894-6.611-.108-8.128-3.82-15.117-31.86-24.274-64.641-33.594-98.533-.867-3.17-4.416-10.404-4.606-12.408-.244-2.872,3.712-6.584,4.741-9.374,13.709-37.062,18.558-94.795,4.308-131.911-6.394-16.662-22.92-31.779-31.183-49.687-2.113-4.579-.677-8.832-9.238-6.258-5.283,1.571-1.924,7.071-2.222,10.295-.46,4.741-6.908,31.426-10.728,32.646-3.631,1.165-7.044-2.953-10.187-4.308-3.955-1.68-23.624-7.802-24.247-9.97,7.667-22.622,23.787-41.803,39.121-59.711,1.3-1.517,1.788-3.874,3.413-5.689,3.604-4.064,10.024-6.637,12.761-9.455,2.384-2.465,3.63-7.017,2.519-10.268-.84-2.492-13.302-4.687-16.472-5.147-23.57-3.522-54.184-.488-77.618,4.118-4.497.867-17.664,3.956-20.698,6.61-2.818,2.438-2.953,14.765-3.034,19.127-1.273,78.865,12.977,131.586,53.507,198.015,6.367,10.458,18.91,25.169,23.976,35.22,1.517,3.007.975,6.773,2.872,9.645,2.736,4.118,8.155,5.012,12.516,3.982l3.252,10.62-6.421,5.988c.271,10.864,7.531,6.529,10.999,8.588,1.002.569,8.155,18.07,9.347,20.834,8.94,20.779,12.625,42.805,21.728,62.555,2.709,5.879,10.674,17.773,11.893,23.462l.081.081ZM184.358,406.7c4.741,4.795,8.1,14.711,12.977,19.885-4.389,3.82-6.936,9.51-10.539,13.763-1.3,1.544-4.524,5.906-6.394,4.497l-11.053-21.89c1.192-8.101,8.507-11.65,12.245-17.42,1.707-.461,1.816.244,2.764,1.165ZM165.664,366.766c4.769,5.635,6.204,14.305,9.049,21.132-.19,3.332-4.714,4.741-6.367,6.61-.948,1.084-7.721,10.268-8.371,9.835l-9.97-21.078,13.953-10.81,2.844,5.69-1.111-11.379h-.027ZM107.525,122.423c-.136-1.436-1.842-2.763-1.842-3.468,0-1.381,12.76-19.587,12.164-24.464.488-.379,1.788,1.138,2.249,1.707,23.922,28.311,32.402,53.588,30.099,90.758-1.138,18.288-5.283,50.554-14.359,66.24-2.303,3.983-3.847,7.776-8.913,5.31,4.389-8.859,11.46-19.641,2.194-27.823-3.847-3.387-18.07-7.098-18.26-10.322-.948-15.524,19.886-35.707,15.551-49.633-2.682-8.696-31.616-6.556-32.51-15.334-.813-7.992,15.09-17.935,13.627-32.998v.027ZM106.495,264.846c-1.327,2.005-10.484,8.371-12.299,5.933-.948-1.246-.596-4.145-1.436-5.689-.623-1.192-2.411-1.463-3.197-2.736-25.412-41.207-53.778-91.328-62.691-138.955-5.635-29.991-5.852-62.122-5.689-92.628,6.204-1.219,12.056-3.874,18.314-5.039,9.157-1.707,27.444-3.928,37.197-4.714,4.389-.325,19.615-.298,23.381.677.65.163,2.384,1.382,1.3,2.113-8.48,8.371-14.792,18.748-21.701,28.447-1.03,1.463-3.034,1.896-3.576,2.655-6.096,8.615-22.866,38.416-22.08,48.088.379,4.579,6.204,7.505,9.997,9.455,8.967,4.579,19.669,5.852,28.338,11.569,1.029,5.743-4.958,8.669-6.909,11.405-2.492,3.441-6.61,13.519-6.827,17.637-.921,16.31,18.937,24.085,32.456,24.546.731.948-5.202,7.911-5.933,9.428-3.901,7.911-8.67,26.848-7.613,35.463,1.598,13.384,22.378,14.738,22.595,17.177-2.113,7.531-7.342,12.841-11.379,19.343-1.111,1.761-1.002,4.064-2.167,5.798l-.082.027ZM116.763,292.642l-3.495-12.462,23.896-2.276c1.327,4.714-2.005,7.234-5.771,9.591-2.113,1.355-13.058,6.529-14.657,5.147h.027ZM121.233,304.129l18.802-7.965,8.48,27.282-18.206,2.953-9.076-22.242v-.028ZM154.259,334.852l4.416,17.42c-1.978,2.113-14.169,12.652-15.768,11.053l-6.827-23.922,18.206-4.578-.027.027Z" style="fill:none;"/><path d="M196.847,506.208c-1.977-2.167-5.256-8.236-7.613-10.674-2.98-3.062-5.662-5.825-6.773-7.207-4.253-5.337-11.839-15.578-15.442-21.673-2.303-3.929-4.389-8.805-6.394-13.519-2.275-5.31-4.605-10.81-6.962-14.142-.678-.759-3.549-2.466-4.66-3.089-2.005-1.165-3.441-2.005-4.552-3.901-2.33-4.01-1.49-8.263-.921-11.108.109-.569.244-1.138.298-1.652-.758-2.683-4.199-8.697-6.529-12.734-1.923-3.359-3.684-6.475-4.741-8.75-4.958-10.756-8.399-22.162-11.704-33.188-2.953-9.835-5.987-19.994-10.105-29.558l-1.03-2.465c-2.98-7.125-5.12-12.083-6.366-14.792-8.832-.461-13.302-5.608-13.546-15.036l2.438-5.825,2.899-2.682-.081-.271c-5.5-.569-10.376-3.278-13.329-7.721-1.951-2.953-2.465-5.988-2.845-8.182-.135-.813-.325-1.924-.515-2.276-2.601-5.174-7.802-12.218-12.787-19.045-4.064-5.527-8.046-11-10.891-15.633C13.597,173.735-1.222,118.955.078,38.952c.271-15.199,1.707-21.376,5.662-24.843,4.931-4.308,19.831-7.477,24.274-8.344C59.274.021,89.292-1.551,110.261,1.592c20.157,3.034,21.701,7.586,22.622,10.295,2.005,5.879.217,13.492-4.28,18.097-1.843,1.924-4.2,3.386-6.692,4.931-2.14,1.355-4.579,2.845-5.852,4.281-.19.217-.542.948-.786,1.409-.596,1.192-1.3,2.682-2.546,4.145-12.896,15.09-27.336,31.996-35.383,51.15,3.63,1.436,8.426,3.116,10.999,4.01,2.98,1.057,5.473,1.923,6.665,2.438,1.463.623,2.709,1.436,3.847,2.195,2.601-6.936,6.069-20.59,6.394-24.166-.027-.081-.162-.542-.244-1.03-2.059-10.566,3.17-14.494,7.938-15.93,3.441-1.029,7.938-1.951,11.975.244,4.01,2.167,5.12,5.987,5.798,8.263.162.596.352,1.246.65,1.896,3.63,7.857,9.265,15.497,14.711,22.893,6.367,8.642,12.95,17.583,16.661,27.255,15.389,40.123,9.293,100.701-4.28,137.356-.732,1.978-1.924,3.712-2.98,5.256-.298.434-.705,1.03-1.03,1.517.353.813.921,2.14,1.463,3.468,1.084,2.574,2.141,5.202,2.574,6.854,8.751,31.806,17.799,64.669,32.646,96.231,1.761.271,2.763.461,3.766.732l5.608,7.314.162,11.46,31.129,44.215,12.191,15.415c-2.573,2.411-9.319,10.701-13.437,19.479l-6.854,14.278c-1.22,4.199-12.869,29.99-13.167,34.569l-13.736-15.93.054.027ZM176.745,451.672c1.084,2.465,2.14,4.714,3.197,6.61l.379-5.364c-1.219-.108-2.411-.542-3.576-1.219v-.027ZM177.585,422.141l5.337,10.566c.488-.731.948-1.408,1.409-2.113.948-1.436,1.95-2.98,3.088-4.497-1.192-1.897-2.275-3.874-3.332-5.798-.677-1.219-1.355-2.465-2.032-3.63-2.194,2.194-3.712,3.766-4.497,5.472h.027ZM202.835,423.902l-.271,5.338,3.955-.082-3.684-5.229v-.027ZM158.702,423.74c1.381.867,2.628,1.707,3.766,2.546l-.732-4.47c1.165-7.775,5.825-12.435,9.591-16.174,1.517-1.517,2.953-2.953,3.847-4.307l4.497-3.251c2.276-.596,4.362-.515,6.231.216l-.515-1.571-.108-7.667c-.975-.325-1.978-.786-2.98-1.436l.108.677c-.352,6.096-5.174,9.293-7.504,10.81l-2.168,2.222c-5.77,7.477-9.807,12.625-15.252,10.376.704,1.653,1.246,3.224,1.544,4.66.569,2.709.081,5.256-.325,7.342v.027ZM178.127,411.305s.054.054.081.081l-.081-.081ZM188.015,402.852l-3.63,3.847,3.739-3.712-.109-.135ZM159.596,385.567l2.248,4.714c.326-.406.569-.704.705-.867,1.111-1.246,2.33-2.113,3.441-2.844-.353-1.057-.705-2.141-1.057-3.197-.163-.515-.325-1.03-.488-1.517l-4.849,3.738v-.027ZM138.437,369.231c1.598,5.147,3.251,10.132,5.147,14.982l1.68-7.017,13.953-10.81.948.217,9.048-3.847c-1.3-3.224-2.546-6.475-3.765-9.726l-1.165,4.497s-13.302,13.519-20.726,13.681l-5.147-2.004.027.027ZM191.673,375.624s0,.055.027.055c0,0,0-.028-.027-.055ZM145.643,344.956l1.951,6.827c.867-.704,1.707-1.408,2.465-2.059l-1.408-5.526-3.035.758h.027ZM125.677,330.679c1.327,3.197,2.546,6.393,3.684,9.617l3.793-6.583-1.571.271-5.879-3.305h-.027ZM152.389,327.374l5.31,3.169c-.867-2.736-1.734-5.445-2.573-8.182l-3.17,5.121.406-.108h.027ZM131.258,308.247l3.901,9.536,3.386-.542-3.332-10.674-3.955,1.68ZM108.338,303.018c1.327.244,2.763.677,4.172,1.517.758.433,1.327.786,2.005,1.598l2.33-5.662c-1.924-.135-3.685-.731-5.121-1.978l-1.056-1.679-2.33,6.231v-.027ZM140.225,290.528l6.556,3.035c-.812-2.953-1.625-5.906-2.438-8.859-.948,2.411-2.492,4.307-4.118,5.824ZM99.018,278.5l6.881,3.955-.054-.163,6.692-9.753,23.895-2.275,3.36,2.302c-.542-1.49-.84-2.682-.949-3.847-.379-4.497,2.141-8.181,3.983-10.836.488-.678.975-1.355,1.273-1.951,1.003-2.736,1.978-5.608,2.899-8.588-1.327,3.576-2.845,6.881-4.497,9.753-2.357,4.118-7.803,13.79-18.938,8.398l-3.278-9.644c-.487.704-.975,1.381-1.463,2.059-1.219,1.706-2.465,3.44-3.603,5.255-.488,2.005-1.002,4.037-2.33,6.042-1.842,2.763-8.236,7.694-13.871,9.347v-.054ZM95.496,257.368c1.165.731,2.709,1.842,3.82,3.684.271-.189.488-.379.677-.542.542-2.086,1.03-3.792,2.141-5.553,1.3-2.087,2.709-4.091,4.145-6.069,1.3-1.788,2.492-3.495,3.522-5.175-7.451-2.682-18.558-7.91-20.021-20.264-1.3-10.621,4.091-31.156,8.344-39.772.027-.081.081-.162.135-.27-7.396-2.032-15.09-5.744-20.509-11.677-4.931-5.391-7.315-11.975-6.909-19.046.352-6.123,5.256-17.501,8.29-21.701.975-1.354,2.14-2.411,3.251-3.413-2.682-1.111-5.554-2.059-8.534-3.007-4.416-1.436-8.967-2.926-13.384-5.175-4.768-2.438-13.438-6.881-14.169-15.686-1.165-14.305,20.346-48.766,23.462-53.155,1.273-1.788,2.899-2.682,3.901-3.224l4.281-6.069c2.899-4.226,5.852-8.507,9.049-12.679-3.82,0-7.64,0-9.753.162-9.32.732-27.255,2.899-36.357,4.606-2.872.542-5.662,1.436-8.453,2.33-1.192.379-2.384.758-3.576,1.111-.081,29.449.515,58.112,5.581,85.231,8.534,45.623,35.572,93.955,61.065,135.352ZM118.768,217.082c1.463.704,3.332,1.49,4.66,2.059,4.226,1.788,8.236,3.495,10.81,5.771.921.812,1.761,1.652,2.492,2.519,3.062-12.95,4.985-27.959,5.798-40.936,1.978-31.833-4.118-53.778-22.134-77.619-1.355,2.439-3.008,5.202-4.931,8.399-.352.569-.677,1.111-.975,1.598.325.813.596,1.734.704,2.791,1.138,11.595-5.093,20.4-9.645,26.821-1.029,1.463-2.411,3.414-3.251,4.876,2.411.867,6.448,1.734,9.13,2.33,9.672,2.086,19.696,4.227,22.351,12.815,3.251,10.403-2.411,21.213-7.884,31.671-3.115,5.96-6.312,12.055-7.125,16.905ZM116.98,183.434c-1.002,1.734-2.303,3.467-3.63,5.255-.65.867-1.246,1.653-1.545,2.141-1.192,2.411-2.465,6.123-3.603,10.213,1.274-2.682,2.655-5.364,4.037-7.992,1.653-3.142,3.386-6.475,4.714-9.59l.027-.027ZM116.14,172.434l.894.434c1.436,1.815,1.924,3.603,1.788,5.391.542-2.032.678-3.82.244-5.229-.325-.054-1.436-.298-2.926-.623v.027ZM94.629,137.188c-.65.65-1.273,1.219-1.788,1.679-.488.434-.948.813-1.273,1.219-.867,1.22-2.167,3.983-3.278,6.773,1.273-2.519,2.98-4.93,4.66-7.287.542-.786,1.111-1.572,1.653-2.357l.027-.027ZM119.798,86.932c.433.108.894.271,1.354.461-.379-.65-.731-1.273-1.083-1.924-.082.461-.163.948-.271,1.463ZM16.604,25.433c-.108.46-.244,1.111-.379,2.005l2.276-2.736c-.732.271-1.382.515-1.896.732ZM106.17,16.547c1.49,1.3,2.71,3.088,3.089,5.283l-1.87,4.443c2.141-1.788,4.471-3.224,6.448-4.47,1.355-.84,3.197-2.005,3.739-2.547.108-.108.19-.217.271-.379-2.574-.731-6.394-1.544-9.834-2.059-.596-.081-1.22-.19-1.843-.271Z" style="fill:currentColor;"/><path d="M76.071,54.964c-6.096,8.615-22.893,38.444-22.08,48.088.379,4.579,6.204,7.505,9.997,9.455,8.967,4.606,19.669,5.852,28.338,11.596,1.029,5.716-4.931,8.669-6.909,11.405-2.492,3.441-6.61,13.492-6.827,17.61-.921,16.31,18.937,24.085,32.429,24.573.731.921-5.202,7.911-5.933,9.428-3.902,7.911-8.67,26.821-7.613,35.436,1.625,13.383,22.378,14.738,22.595,17.176-2.114,7.559-7.342,12.842-11.379,19.344-1.084,1.761-1.002,4.064-2.167,5.798-1.355,2.005-10.512,8.371-12.327,5.933-.948-1.246-.596-4.118-1.436-5.689-.623-1.192-2.411-1.463-3.197-2.71-25.412-41.207-53.778-91.327-62.691-138.955-5.608-29.99-5.852-62.122-5.689-92.627,6.204-1.246,12.056-3.874,18.287-5.039,9.157-1.707,27.444-3.955,37.197-4.714,4.416-.352,19.615-.298,23.381.65.65.163,2.384,1.382,1.3,2.14-8.48,8.371-14.792,18.748-21.701,28.447-1.03,1.463-3.034,1.896-3.576,2.655Z" style="fill:none;"/><path d="M95.523,279.041c-3.061,0-5.771-1.328-7.505-3.631-1.517-2.004-1.951-4.28-2.167-5.96-.948-.704-1.978-1.625-2.818-2.98-26.442-42.86-54.645-93.169-63.72-141.61-5.689-30.37-5.987-63.124-5.798-94.09l6.204-7.505c2.736-.542,5.364-1.409,8.046-2.249,3.414-1.084,6.827-2.14,10.349-2.818,9.753-1.815,28.447-4.064,38.01-4.822,3.549-.298,20.427-.515,25.873.867,3.035.786,6.584,3.495,7.315,7.559l-3.468,8.344c-5.066,5.12-9.943,12.245-15.144,19.804-1.571,2.276-3.143,4.579-4.741,6.827-1.382,1.951-3.143,3.088-4.335,3.766-7.613,11.216-20.292,36.168-19.913,41.884.542.515,4.308,2.438,5.716,3.17,3.441,1.761,7.234,2.98,11.243,4.307,5.96,1.924,12.137,3.929,17.935,7.803l3.332,5.039c1.517,8.371-4.254,13.627-7.017,16.147-.488.433-.948.812-1.273,1.219-1.734,2.411-5.174,11.026-5.337,13.465-.162,2.953.759,5.445,2.926,7.802,5.093,5.581,15.009,8.372,22.08,8.642l5.743,2.872c4.227,5.256.38,10.431-3.684,15.903-.65.867-1.246,1.626-1.544,2.113-3.36,6.8-7.505,24.085-6.692,30.75.515,4.172,6.556,6.502,12.706,8.534,4.172,1.381,9.374,3.088,9.916,8.859l-.244,2.763c-1.842,6.584-5.473,11.65-8.67,16.12-1.219,1.707-2.465,3.414-3.576,5.229-.46,2.005-.975,4.009-2.275,5.987-2.276,3.36-11.027,9.78-17.15,9.943h-.271l-.054-.054ZM95.523,257.367c1.165.732,2.682,1.842,3.793,3.685.488-.38.894-.705,1.165-.976,0-1.436.488-3.224,1.653-5.093,1.3-2.113,2.736-4.118,4.145-6.096,1.3-1.815,2.519-3.495,3.549-5.174-7.451-2.682-18.558-7.911-20.048-20.265-1.3-10.647,4.091-31.156,8.371-39.771.027-.081.081-.163.135-.271-7.396-2.032-15.063-5.744-20.509-11.677-4.931-5.391-7.315-11.974-6.908-19.045.325-6.096,5.256-17.475,8.29-21.701.975-1.355,2.113-2.411,3.224-3.414-2.682-1.111-5.554-2.059-8.534-3.034-4.416-1.436-8.995-2.926-13.411-5.175-4.768-2.438-13.438-6.881-14.169-15.659-1.165-14.088,20.427-48.82,23.462-53.154,1.273-1.788,2.926-2.682,3.901-3.224,1.246-1.653,2.763-3.874,4.308-6.069,2.899-4.199,5.852-8.507,9.049-12.652-3.847-.054-7.667,0-9.726.163-9.022.704-27.255,2.899-36.385,4.606-2.872.542-5.689,1.463-8.48,2.33-1.165.379-2.357.759-3.522,1.084-.108,29.395.488,58.004,5.581,85.231,8.534,45.596,35.572,93.955,61.065,135.352Z" style="fill:none;"/><path d="M126.95,258.533c4.389-8.859,11.46-19.642,2.194-27.824-3.847-3.386-18.07-7.071-18.26-10.322-.948-15.523,19.859-35.707,15.551-49.632-2.709-8.697-31.643-6.556-32.537-15.334-.786-7.992,15.09-17.935,13.627-32.971-.135-1.463-1.815-2.764-1.815-3.468,0-1.382,12.76-19.588,12.137-24.491.488-.379,1.788,1.138,2.249,1.707,23.949,28.311,32.402,53.588,30.099,90.785-1.111,18.26-5.256,50.554-14.359,66.213-2.303,3.982-3.874,7.775-8.913,5.31" style="fill:none;"/><path d="M129.822,267.068c-1.87,0-3.929-.461-6.259-1.598l-3.522-10.35,1.436-2.79c5.148-9.997,5.663-13.113,2.574-15.822-.894-.704-4.47-2.221-6.61-3.115-7.424-3.143-13.844-5.879-14.224-12.49-.569-9.401,4.308-18.775,9.049-27.823,3.82-7.315,8.182-15.605,6.827-19.967-.813-.163-7.125-1.517-10.864-2.303-9.807-2.113-20.969-4.497-21.971-14.548-.623-6.231,3.116-11.514,6.719-16.608,3.414-4.822,6.963-9.807,6.963-15.198-.921-1.301-1.924-3.035-1.924-5.419,0-2.573.894-4.091,4.307-9.726,2.032-3.332,7.396-12.218,7.884-14.846l3.034-6.069c1.084-.786,6.692-4.416,12.815,2.953,25.331,29.937,34.271,56.893,31.86,96.15-.488,8.046-3.549,49.226-15.388,69.626-1.842,3.224-5.662,9.997-12.679,9.997l-.027-.054ZM118.768,217.083c1.463.705,3.359,1.49,4.687,2.059,4.226,1.788,8.236,3.495,10.81,5.771.948.813,1.761,1.68,2.492,2.519,3.062-12.95,4.985-27.959,5.771-40.936,1.977-31.86-4.118-53.804-22.107-77.618-1.355,2.438-2.98,5.201-4.904,8.371-.352.569-.677,1.138-1.002,1.626.352.84.623,1.788.704,2.844,1.138,11.515-5.12,20.319-9.672,26.767-1.029,1.436-2.411,3.387-3.251,4.85,2.411.867,6.448,1.734,9.13,2.33,9.672,2.086,19.696,4.226,22.351,12.814,3.224,10.431-2.411,21.24-7.884,31.698-3.115,5.96-6.312,12.083-7.125,16.932v-.027Z" style="fill:currentColor;"/><path d="M204.812,480.959c2.303-7.234,5.852-14.278,8.859-21.268.922-2.113,2.141-3.901,3.251-5.77-3.603-4.714-9.509-11.487-10.999-13.492-.84-1.111-1.598-4.389-2.113-4.172l-17.502,20.861c5.608,8.94,11.081,17.935,18.098,25.737.19-.65.217-1.246.433-1.896h-.027Z" style="fill:none;"/><path d="M198.635,488.028c-6.989-7.802-12.489-16.58-17.799-25.087l-1.084-1.734.623-9.048,17.502-20.861,2.817-2.113,6.177-.055c3.306,1.382,4.416,4.281,5.148,6.204.596,1.193,1.896,2.737,3.441,4.579,2.411,2.872,5.391,6.448,7.558,9.293l.515,8.615-.921,1.517c-.677,1.084-1.355,2.14-1.897,3.386l-2.6,5.852c-2.276,5.039-4.416,9.781-5.934,14.603l-.406,1.842-13.112,2.953-.028.054ZM195.791,457.794c2.032,3.224,4.036,6.339,6.123,9.374.704-1.626,1.435-3.251,2.167-4.85l2.519-5.635c.298-.732.651-1.409,1.003-2.086-1.355-1.653-2.736-3.305-3.956-4.768-.189-.244-.379-.461-.568-.678l-7.261,8.67-.027-.027Z" style="fill:none;"/><path d="M186.823,440.347c-1.3,1.545-4.524,5.906-6.393,4.498l-11.054-21.891c1.192-8.1,8.48-11.649,12.246-17.447,1.706-.434,1.815.244,2.763,1.192,4.741,4.795,8.101,14.684,12.977,19.886-4.362,3.82-6.935,9.509-10.512,13.762" style="fill:none;"/><path d="M181.134,452.946c-1.842,0-3.63-.651-5.364-1.951l-2.249-2.682-11.053-21.891-.732-4.578c1.138-7.803,5.825-12.462,9.564-16.228,1.517-1.517,2.953-2.953,3.847-4.308l4.551-3.278c3.983-1.002,7.369,0,10.051,3.116,3.278,3.305,5.635,7.612,7.911,11.785,1.761,3.196,3.576,6.529,5.31,8.371l-.542,11.081c-1.869,1.625-3.495,4.118-5.229,6.718-1.435,2.168-2.871,4.308-4.443,6.177l-5.906-4.957,5.527,5.391c-3.901,4.795-7.667,7.206-11.216,7.206l-.027.028ZM177.585,422.115l5.337,10.593c.461-.678.921-1.382,1.409-2.086.948-1.436,1.977-2.98,3.115-4.498-1.165-1.869-2.248-3.847-3.305-5.77-.677-1.246-1.382-2.52-2.059-3.685-2.194,2.195-3.711,3.766-4.497,5.473v-.027ZM178.912,412.145s.027.027.055.054c0,0-.028-.054-.055-.054ZM192.702,445.333l-5.879-4.985,5.906,4.958-.027.027Z" style="fill:none;"/><path d="M148.542,323.445l-18.206,2.953-9.075-22.27,18.774-7.965,8.507,27.282Z" style="fill:none;"/><path d="M131.583,334.012l-8.372-4.714-9.076-22.27,4.118-9.997,18.775-7.965,10.349,4.795,8.507,27.282-6.123,9.916-18.205,2.953h.027ZM131.258,308.247l3.901,9.536,3.386-.541-3.332-10.675-3.955,1.68Z" style="fill:none;"/><path d="M168.319,394.509c-.975,1.084-7.721,10.268-8.371,9.861l-9.97-21.077,13.98-10.81,2.817,5.689-1.111-11.405c4.769,5.635,6.205,14.331,9.049,21.131-.189,3.333-4.714,4.741-6.366,6.611" style="fill:none;"/><path d="M160.029,412.281c-1.354,0-2.79-.461-4.362-1.518l-2.682-3.115-9.97-21.105,2.249-9.401,13.98-10.81.948.217,11.351-4.795c4.227,5.012,6.259,11.297,8.074,16.851.704,2.168,1.381,4.335,2.221,6.313l.569,3.386c-.352,6.096-5.174,9.293-7.504,10.837l-.813.488-1.463,1.869c-4.795,6.177-8.344,10.783-12.598,10.783ZM159.596,385.568l2.221,4.714c.325-.407.596-.732.732-.894,1.083-1.219,2.303-2.086,3.413-2.818-.352-1.056-.704-2.113-1.056-3.197-.163-.514-.325-1.029-.515-1.544l-4.849,3.739h.054Z" style="fill:none;"/><path d="M154.259,334.851l4.416,17.42c-1.978,2.113-14.169,12.625-15.768,11.054l-6.827-23.923,18.206-4.578-.027.027Z" style="fill:none;"/><path d="M143.584,371.209l-6.068-2.33-2.059-3.414-6.827-23.922,5.526-9.59,18.206-4.579,9.347,5.581,4.416,17.42-1.842,7.152s-13.33,13.492-20.699,13.655v.027ZM145.643,344.957l1.951,6.827c.867-.677,1.707-1.382,2.465-2.059l-1.408-5.527-3.008.759Z" style="fill:none;"/><path d="M137.191,277.904c1.327,4.714-2.005,7.233-5.771,9.59-2.113,1.355-13.058,6.53-14.657,5.148l-3.495-12.462,23.896-2.276h.027Z" style="fill:none;"/><path d="M117.874,300.498c-2.33,0-4.497-.569-6.204-2.059l-2.33-3.712-3.495-12.462,6.692-9.753,23.895-2.276,8.155,5.581c2.98,10.566-5.744,16.12-9.049,18.206-2.113,1.328-10.674,6.475-17.691,6.475h.027Z" style="fill:none;"/><path d="M151.495,417.996c.596,2.818-1.869,7.532-.406,10.052.325.541,6.854,3.603,8.886,6.475,5.066,7.179,9.049,20.319,13.682,28.202,3.278,5.608,10.484,15.334,14.792,20.753,1.95,2.438,11.189,18.504,15.524,23.245.298-4.714,6.745-15.741,8.236-20.861,5.499-9.32,9.617-17.556,12.083-24.979l-20.482-24.654c.515-.243,1.273,3.062,2.113,4.173,1.517,2.004,14.765,17.149,18.369,21.863,2.492-4.199,6.827-7.857,10.159-10.972l-41.369-54.672-.19-13.844c-3.116-.894-6.611-.109-8.128-3.82-15.117-31.86-24.274-64.642-33.594-98.534-.867-3.17-4.416-10.403-4.605-12.408-.244-2.872,3.711-6.583,4.741-9.374,13.708-37.062,18.558-94.795,4.307-131.911-6.393-16.661-22.92-31.779-31.183-49.687-2.113-4.579-.677-8.832-9.238-6.258-5.283,1.571-1.923,7.071-2.222,10.295-.46,4.741-6.908,31.427-10.728,32.646-3.63,1.165-7.044-2.953-10.187-4.308-3.955-1.679-23.624-7.802-24.247-9.969,7.667-22.622,23.787-41.803,39.121-59.711,1.3-1.517,1.788-3.874,3.414-5.689,3.603-4.064,10.024-6.638,12.76-9.455,2.384-2.465,3.63-7.017,2.519-10.268-.839-2.493-13.302-4.687-16.471-5.147-23.571-3.522-54.185-.488-77.619,4.118-4.497.867-17.664,3.955-20.698,6.611-2.818,2.438-2.953,14.765-3.034,19.127-1.273,78.865,12.977,131.586,53.507,198.016,6.367,10.457,18.91,25.168,23.976,35.219,1.517,3.008.975,6.773,2.872,9.645,2.736,4.118,8.155,5.012,12.517,3.983l3.251,10.62-6.421,5.987c.271,10.864,7.532,6.529,10.999,8.588,1.003.569,8.155,18.071,9.347,20.834,8.94,20.78,12.625,42.805,21.728,62.556,2.709,5.879,10.674,17.772,11.893,23.461l.027.054ZM184.358,406.699c4.741,4.795,8.1,14.711,12.977,19.886-4.389,3.82-6.936,9.509-10.539,13.762-1.3,1.545-4.524,5.906-6.393,4.498l-11.054-21.891c1.192-8.1,8.507-11.649,12.246-17.42,1.706-.46,1.815.244,2.763,1.165ZM165.664,366.765c4.769,5.636,6.205,14.305,9.049,21.132-.189,3.333-4.714,4.741-6.366,6.611-.949,1.083-7.722,10.268-8.372,9.834l-9.97-21.078,13.953-10.809,2.844,5.689-1.11-11.379h-.028ZM107.525,122.423c-.135-1.436-1.842-2.764-1.842-3.468,0-1.382,12.76-19.588,12.164-24.464.488-.379,1.788,1.138,2.249,1.707,23.922,28.312,32.402,53.588,30.099,90.758-1.138,18.287-5.283,50.553-14.359,66.24-2.303,3.982-3.847,7.775-8.913,5.31,4.389-8.859,11.46-19.642,2.194-27.824-3.847-3.386-18.07-7.098-18.26-10.322-.948-15.524,19.886-35.707,15.551-49.632-2.682-8.697-31.616-6.557-32.51-15.334-.813-7.993,15.09-17.935,13.627-32.999v.028ZM106.495,264.845c-1.327,2.005-10.484,8.372-12.299,5.933-.948-1.246-.596-4.145-1.436-5.689-.623-1.192-2.411-1.463-3.197-2.736-25.412-41.207-53.778-91.327-62.691-138.955-5.635-29.991-5.852-62.122-5.689-92.628,6.204-1.219,12.056-3.874,18.314-5.039,9.157-1.707,27.444-3.928,37.197-4.714,4.389-.325,19.615-.298,23.381.677.65.163,2.384,1.382,1.3,2.113-8.48,8.371-14.792,18.748-21.701,28.447-1.03,1.463-3.034,1.896-3.576,2.655-6.096,8.615-22.866,38.417-22.08,48.089.379,4.578,6.204,7.504,9.997,9.455,8.967,4.578,19.669,5.852,28.338,11.568,1.03,5.743-4.958,8.669-6.909,11.406-2.493,3.44-6.61,13.519-6.827,17.637-.921,16.309,18.937,24.084,32.456,24.545.731.948-5.202,7.911-5.933,9.428-3.901,7.911-8.67,26.848-7.613,35.463,1.598,13.384,22.378,14.738,22.595,17.177-2.113,7.531-7.342,12.841-11.379,19.343-1.111,1.761-1.002,4.064-2.167,5.798l-.082.027ZM116.763,292.642l-3.494-12.463,23.895-2.275c1.327,4.714-2.005,7.233-5.771,9.59-2.113,1.355-13.058,6.529-14.657,5.148h.027ZM121.234,304.129l18.801-7.965,8.48,27.281-18.206,2.953-9.075-22.242v-.027ZM154.259,334.851l4.416,17.42c-1.978,2.113-14.169,12.652-15.768,11.054l-6.827-23.923,18.206-4.578-.027.027Z" style="fill:#1d1d1b;"/><path d="M76.071,54.964c-6.096,8.615-22.893,38.444-22.08,48.088.379,4.579,6.204,7.505,9.997,9.455,8.967,4.606,19.669,5.852,28.338,11.596,1.029,5.716-4.931,8.669-6.909,11.405-2.492,3.441-6.61,13.492-6.827,17.61-.921,16.31,18.937,24.085,32.429,24.573.731.921-5.202,7.911-5.933,9.428-3.902,7.911-8.67,26.821-7.613,35.436,1.625,13.383,22.378,14.738,22.595,17.176-2.114,7.559-7.342,12.842-11.379,19.344-1.084,1.761-1.002,4.064-2.167,5.798-1.355,2.005-10.512,8.371-12.327,5.933-.948-1.246-.596-4.118-1.436-5.689-.623-1.192-2.411-1.463-3.197-2.71-25.412-41.207-53.778-91.327-62.691-138.955-5.608-29.99-5.852-62.122-5.689-92.627,6.204-1.246,12.056-3.874,18.287-5.039,9.157-1.707,27.444-3.955,37.197-4.714,4.416-.352,19.615-.298,23.381.65.65.163,2.384,1.382,1.3,2.14-8.48,8.371-14.792,18.748-21.701,28.447-1.03,1.463-3.034,1.896-3.576,2.655Z" style="fill:#fff;"/><path d="M126.95,258.533c4.389-8.859,11.46-19.642,2.194-27.824-3.847-3.386-18.07-7.071-18.26-10.322-.948-15.523,19.859-35.707,15.551-49.632-2.709-8.697-31.643-6.556-32.537-15.334-.786-7.992,15.09-17.935,13.627-32.971-.135-1.463-1.815-2.764-1.815-3.468,0-1.382,12.76-19.588,12.137-24.491.488-.379,1.788,1.138,2.249,1.707,23.949,28.311,32.402,53.588,30.099,90.785-1.111,18.26-5.256,50.554-14.359,66.213-2.303,3.982-3.874,7.775-8.913,5.31" style="fill:#fff;"/><path d="M204.812,480.959c2.303-7.234,5.852-14.278,8.859-21.268.922-2.113,2.141-3.901,3.251-5.77-3.603-4.714-9.509-11.487-10.999-13.492-.84-1.111-1.598-4.389-2.113-4.172l-17.502,20.861c5.608,8.94,11.081,17.935,18.098,25.737.19-.65.217-1.246.433-1.896h-.027Z" style="fill:#fff;"/><path d="M186.823,440.347c-1.3,1.545-4.524,5.906-6.393,4.498l-11.054-21.891c1.192-8.1,8.48-11.649,12.246-17.447,1.706-.434,1.815.244,2.763,1.192,4.741,4.795,8.101,14.684,12.977,19.886-4.362,3.82-6.935,9.509-10.512,13.762" style="fill:#fff;"/><path d="M148.542,323.445l-18.206,2.953-9.075-22.27,18.774-7.965,8.507,27.282Z" style="fill:#fff;"/><path d="M168.319,394.509c-.975,1.084-7.721,10.268-8.371,9.861l-9.97-21.077,13.98-10.81,2.817,5.689-1.111-11.405c4.769,5.635,6.205,14.331,9.049,21.131-.189,3.333-4.714,4.741-6.366,6.611" style="fill:#fff;"/><path d="M154.259,334.851l4.416,17.42c-1.978,2.113-14.169,12.625-15.768,11.054l-6.827-23.923,18.206-4.578-.027.027Z" style="fill:#fff;"/><path d="M137.191,277.904c1.327,4.714-2.005,7.233-5.771,9.59-2.113,1.355-13.058,6.53-14.657,5.148l-3.495-12.462,23.896-2.276h.027Z" style="fill:#fff;"/><path d="M110.166,328.828c22.468-12.841,46.171-23.519,70.697-31.78.857-.288,1.828-.578,2.638-.201.871.39,1.274,1.359,1.603,2.263,3.171,8.394,6.323,16.82,9.493,25.214-30.714,12.002-60.535,26.372-89.053,42.944-3.775-10.528-7.543-21.029-11.319-31.557l15.181-6.025" style="fill:currentColor;"/><path d="M103.586,372.619l-14.008-39.003,18.463-7.307,2.683,6.795-11.88,4.708,8.656,24.106c26.449-15.106,54.111-28.44,82.424-39.681l-8.126-21.61c-24.571,8.302-49.1,19.912-71.074,32.478l-2.683-6.795c22.639-12.944,46.958-24.383,71.661-32.721,1.035-.364,3.14-1.074,5.342-.051,2.264,1.035,3.108,3.219,3.505,4.275l10.745,28.591-3.36,1.304c-30.458,11.904-60.252,26.268-88.554,42.697l-3.795,2.215Z" style="fill:#1c1b1a;"/><path d="M94.44,343.652l-5.035,2.35c-.802.387-1.612.748-2.441,1.141-1.461.678-2.807,1.467-3.94,2.624-.782.778-1.597,1.963-1.508,3.13.064.976.753,1.953,1.207,2.795.454.842.875,1.665,1.322,2.48.186.375.379.777.612,1.112.648.931,1.742,1.204,2.822,1.11,2.041-.21,3.781-1.218,5.48-2.272,1.798-1.11,3.576-2.185,5.374-3.294,1.096-.664,2.255-1.516,2.952-2.612.361-.551.957-1.705.46-2.393-.512-.741-1.484-.877-2.312-.795-1.299.123-2.617.593-3.733,1.291-1.116.699-2.283,1.41-3.406,2.082-.531.342-1.096.664-1.627,1.006-.288.192-.61.364-.9.554-.144.096-.268.158-.413.253l-.17.103c-.485.301-.209.17.855-.401l1.273-.428-.158.043c.722-.053,1.438-.133,2.16-.186l-.147-.017.782.272s-.161-.071-.234-.136l.507.516c-.332-.392-.535-.934-.795-1.374-.282-.519-.557-1.013-.812-1.54-.275-.493-.516-.967-.791-1.46-.235-.447-.562-.927-.697-1.429l.185.687s-.057-.211-.014-.365l-.177.813.051-.127-.468.892.058-.101-.747.911.092-.082-1.005.896c-2.247,1.23-2.957,1.649-2.101,1.247l.249-.124.428-.2.954-.455,1.915-.886,3.83-1.771c1.283-.601,2.538-1.308,3.508-2.336.534-.541,1.495-1.708,1.392-2.617-.268-2.254-3.599-1.468-4.908-.86l.072-.047Z" style="fill:#1c1b1a;"/><path d="M81.723,352.927c-16.866-1.38-34.133,7.733-42.561,22.403.829.969,2.355.642,3.586.792,1.231.149,2.511,1.847,1.415,2.511.98.275,1.995.569,2.976.843-1.486,1.11-3.049,2.354-3.553,4.164-.503,1.809.722,4.146,2.577,3.986.915-.077,1.679-.709,2.372-1.292,2.804-2.317,5.934-4.268,9.245-5.756,2.706-1.213,5.595-2.162,8.004-3.947,1.703-1.254,3.106-2.88,4.598-4.389,4.808-4.871,10.572-8.612,16.318-12.317" style="fill:currentColor;"/><path d="M83.886,348.967c-19.622-1.402-39.353,9.397-49.245,26.306-.675,1.174-.723,2.577.397,3.467.903.721,1.897,1.048,3.036,1.167.266.042,1.259.256,1.528.098.61-.364-.313.624-.022-.816l1.104-2.001-.332.345c-1.419,1.461-1.813,4.205.556,4.899.981.275,1.996.569,2.976.843l.409-5.841c-3.521,2.709-9.002,9.18-3.744,13.124,2.875,2.146,6.947.537,9.503-1.23,2.556-1.767,4.889-3.73,7.744-5.124,2.677-1.319,5.547-2.235,8.14-3.757,3.087-1.797,5.45-4.279,7.944-6.796,4.281-4.303,9.404-7.586,14.473-10.855,1.64-1.066,4.312-3.348,3.082-5.597-1.169-2.125-4.886-1.093-6.375-.096-4.151,2.68-8.302,5.36-12.181,8.42-1.989,1.559-3.856,3.253-5.648,5.014-1.343,1.327-2.587,2.91-4.174,3.963-1.705,1.14-3.725,1.742-5.567,2.579-2.376,1.067-4.717,2.266-6.914,3.681-1.18.773-2.328,1.564-3.434,2.402-.497.361-.962.741-1.426,1.122,2.718.515,3.71.304,3.041-.707.007.027-.177-1.285-.359-.698.143-.52,1.254-1.132,1.633-1.405,1.715-1.314,3.579-4.909.408-5.841-.98-.274-1.995-.568-2.976-.842l.557,4.899c1.732-1.772,2.228-4.345.322-6.157-.649-.619-1.414-1.038-2.294-1.254-.794-.211-2.122.119-2.735-.368l.397,3.467c7.371-12.599,21.393-19.559,35.843-18.52,2.512.174,5.524-1.689,6.691-3.876,1.167-2.186.007-3.86-2.332-4.023l-.026.007Z" style="fill:#1c1b1a;"/><path d="M122.454,349.797l-5.644,2.714c-1.303.635-1.796.91-2.395-.261-.387-.804-.225-1.045.273-1.719.414-.565.23-.828-.166-1.771-.682-1.689-2.408-5.251-3.595-7.655-.495-.888-.585-1.118-1.149-1.108-.605-.036-1.093.153-1.59-.848-.532-1.132-.142-1.578,1.233-2.261,1.355-.649,3.912-1.68,5.699-2.616.644-.344.804-.699,1.428-1.01.802-.386,1.25-.195,2.641,1.387.864,1.101,1.378,1.643,1.626,2.143.339.731.004,1.275-.745,1.648-.704.332-1.236-.064-2.493-1.257-.939-.853-1.056-.764-2.964.147-1.658.788-1.553.76-.446,3.071.912,1.909.776,2.145,2.033,1.551.954-.456.83-.706.436-1.537-.325-.678-.324-.991.256-1.26.605-.277,1.105.212,1.91,1.301,1.286,1.723,2.144,3.223,1.079,3.794-.539.315-.833.168-1.381-.394-.414-.484-.548-.561-1.396-.134-1.204.581-1.079.519.005,2.751,1.204,2.569.978,2.573,3.182,1.497,1.533-.726,1.716-.889,1.464-2.24-.324-1.728-.39-2.391.341-2.73.875-.435,1.39-.205,1.777.599.215.481.49,1.4.845,2.609.556,2.062.565,2.515-.283,2.941-.678.325-1.158.227-1.987.622l.007.026Z" style="fill:#1c1b1a;"/><path d="M115.345,353.121c-.378,0-.676-.23-.989-.842-.411-.855-.209-1.129.278-1.79.351-.479.255-.703-.063-1.445-.034-.08-.071-.167-.11-.26-.75-1.856-2.763-5.969-3.593-7.651l-.086-.154c-.404-.729-.508-.916-.967-.916h-.035c-.1-.006-.192-.006-.282-.006-.48,0-.933,0-1.369-.88-.565-1.203-.091-1.678,1.262-2.35.511-.245,1.202-.548,1.933-.869,1.243-.545,2.651-1.163,3.766-1.746.308-.165.506-.335.697-.499.2-.172.406-.35.732-.512.861-.413,1.343-.165,2.721,1.402.274.349.511.64.716.892.45.552.747.917.92,1.267.334.719.065,1.319-.775,1.737-.75.354-1.329-.092-2.569-1.268-.881-.803-.989-.751-2.753.093l-.136.065c-.742.353-1.103.534-1.199.806-.112.316.129.817.609,1.814l.174.362c.125.262.231.493.323.694.305.668.458,1.004.683,1.085.188.071.451-.03.939-.261.889-.425.797-.618.41-1.435-.185-.386-.286-.685-.199-.929.061-.171.214-.309.48-.433.642-.293,1.156.19,1.992,1.32.867,1.163,1.73,2.462,1.548,3.278-.059.265-.224.472-.491.614-.583.343-.909.16-1.46-.405-.396-.464-.496-.535-1.318-.121-.474.229-.734.354-.801.547-.084.245.115.651.554,1.54.085.173.179.364.282.575.094.2.179.385.257.555.442.959.665,1.44.985,1.554.314.114.758-.106,1.643-.54l.208-.102c1.493-.708,1.674-.849,1.428-2.169-.314-1.675-.42-2.432.378-2.802.44-.219.803-.276,1.107-.173.298.103.546.365.757.803.219.487.489,1.393.85,2.619.551,2.041.587,2.564-.316,3.02-.332.159-.612.219-.91.281-.308.065-.626.133-1.028.318l.006.025-.049.024-5.729,2.754c-.602.294-1.043.51-1.409.51ZM109.819,339.929c.532,0,.664.237,1.079.985l.087.157c.833,1.687,2.847,5.802,3.599,7.662.038.092.075.178.109.258.314.733.444,1.037.048,1.577-.48.65-.642.87-.266,1.651.555,1.087.976.882,2.22.271l5.681-2.73-.007-.026.049-.024c.441-.21.78-.281,1.108-.351.289-.062.562-.119.878-.271.78-.393.812-.767.247-2.863-.346-1.18-.628-2.122-.841-2.599-.194-.402-.417-.644-.681-.733-.266-.089-.595-.036-1.006.167-.682.316-.633.908-.305,2.657.257,1.381.051,1.577-1.501,2.313l-.207.102c-.919.449-1.381.675-1.746.546-.374-.133-.604-.631-1.062-1.624-.078-.169-.163-.354-.256-.553-.102-.21-.196-.401-.281-.573-.469-.952-.663-1.346-.56-1.643.085-.246.362-.38.867-.623.861-.434,1.037-.364,1.477.15.53.542.792.674,1.297.379.236-.127.375-.299.426-.527.17-.764-.676-2.03-1.525-3.169-.792-1.072-1.27-1.54-1.829-1.279-.231.107-.362.221-.411.356-.062.172-.007.407.188.814.396.835.542,1.143-.467,1.625-.533.252-.811.349-1.042.266-.277-.102-.438-.453-.758-1.155-.092-.201-.197-.432-.322-.693l-.174-.361c-.512-1.062-.745-1.548-.615-1.917.119-.336.526-.529,1.267-.882l.136-.064c1.771-.846,1.955-.933,2.902-.07,1.302,1.235,1.778,1.549,2.42,1.245.774-.385,1.015-.91.713-1.56-.166-.335-.459-.694-.903-1.24-.206-.252-.443-.544-.715-.891-1.406-1.599-1.81-1.73-2.56-1.367-.311.153-.501.318-.704.492-.197.169-.399.344-.722.516-1.119.587-2.53,1.205-3.774,1.751-.73.32-1.42.623-1.928.867-1.351.671-1.714,1.079-1.201,2.172.475.958.928.773,1.533.811.013,0,.025,0,.037,0Z" style="fill:#1b1a19;"/><path d="M129.968,344.45c-2.543-3.228-4.81-5.851-7.031-8.94-.728-.91-1.003-1.091-1.582-1.133-.559-.076-.993-.215-1.373-.992-.573-1.179.031-1.568,2.439-2.728,2.46-1.174,3.174-1.367,3.72-.181.276.606.117.962-.335,1.594-.428.512-.223.855.396,1.68,1.378,1.955,3.614,5.097,5.17,6.974.814.916.882,1.067,1.185.929.349-.18.157-.468-.039-1.408-.783-2.796-1.622-6.116-2.446-8.645-.242-.899-.407-1.195-1.083-1.183-.48-.097-.917-.036-1.263-.794-.49-.974-.159-1.432,2.222-2.585,1.703-.828,2.215-.824,2.74.282.284.633.071,1.002-.124,1.536-.299.677-.201.935.084,1.992,1.114,3.502,2.01,7.032,2.809,11.044.377,1.714.127,1.837-1.947,2.766-1.828.89-2.238,1.369-3.595-.194l.053-.014Z" style="fill:#1c1b1a;"/><path d="M131.455,345.549c-.482,0-.935-.285-1.591-1.04l-.069-.08.06-.017c-.83-1.051-1.633-2.042-2.409-3-1.586-1.958-3.084-3.808-4.562-5.863-.739-.924-.991-1.066-1.533-1.105-.544-.074-1.024-.202-1.428-1.029-.208-.429-.257-.746-.159-1.029.197-.565.99-.999,2.629-1.789,1.722-.822,2.534-1.133,3.102-.927.289.104.507.345.707.778.284.624.133,1-.342,1.661-.384.459-.259.73.396,1.602,1.488,2.113,3.643,5.133,5.167,6.971.105.12.201.228.285.323.55.626.605.684.821.589.209-.108.186-.238.054-.771-.039-.156-.085-.342-.131-.562-.235-.841-.472-1.713-.722-2.637-.564-2.084-1.147-4.238-1.723-6.002-.238-.885-.392-1.137-.978-1.137h-.041c-.088-.016-.16-.027-.23-.038-.405-.062-.788-.121-1.095-.795-.201-.398-.248-.685-.156-.954.165-.487.796-.938,2.41-1.719.962-.467,1.609-.704,2.072-.544.294.104.521.36.757.857.262.584.116.964-.052,1.403-.023.06-.047.121-.07.185-.274.623-.208.869.041,1.786l.045.165c1.11,3.49,2.004,7.002,2.811,11.05.391,1.775.074,1.917-1.985,2.84-.195.096-.377.187-.544.271-.648.327-1.105.558-1.538.558ZM130.035,344.501c1.126,1.269,1.552,1.051,2.897.371.168-.085.35-.177.548-.272,2.063-.925,2.279-1.021,1.911-2.692-.806-4.044-1.698-7.552-2.808-11.039l-.046-.168c-.252-.929-.328-1.209-.035-1.871.021-.06.045-.122.068-.183.171-.445.294-.768.056-1.3-.219-.461-.423-.696-.681-.787-.419-.146-1.039.085-1.969.537-1.577.765-2.19,1.193-2.343,1.642-.079.233-.034.488.15.854.278.61.61.661.994.721.073.012.147.022.224.038h.043c.688,0,.856.362,1.091,1.23.575,1.764,1.158,3.92,1.724,6.005.25.924.486,1.796.723,2.641.047.223.092.406.13.562.126.507.189.762-.125.924-.312.142-.427.01-.979-.621-.084-.095-.179-.203-.286-.324-1.528-1.844-3.685-4.866-5.174-6.979-.612-.814-.863-1.199-.393-1.762.459-.641.578-.969.325-1.523-.185-.398-.379-.617-.631-.709-.52-.183-1.346.134-3,.923-1.604.772-2.38,1.193-2.561,1.711-.086.248-.039.533.153.928.375.77.802.885,1.321.955.61.045.899.25,1.625,1.157,1.478,2.056,2.975,3.903,4.559,5.86.797.982,1.62,1.999,2.473,3.081l.062.079-.048.013Z" style="fill:#1b1a19;"/><path d="M147.579,337.771l-5.644,2.714c-1.303.635-1.796.91-2.395-.262-.386-.803-.225-1.045.247-1.711.414-.565.23-.829-.166-1.771-.682-1.689-2.409-5.251-3.596-7.655-.468-.895-.585-1.119-1.149-1.108-.604-.036-1.118.16-1.589-.848-.533-1.133-.142-1.578,1.232-2.262,1.355-.649,3.911-1.678,5.7-2.615.643-.344.803-.699,1.427-1.01.803-.386,1.251-.196,2.641,1.387.864,1.1,1.371,1.616,1.627,2.142.339.732.003,1.276-.746,1.648-.705.332-1.236-.063-2.493-1.256-.939-.853-1.083-.758-2.991.154-1.658.787-1.552.758-.447,3.07.912,1.91.804,2.138,2.033,1.551.954-.455.831-.706.436-1.536-.324-.679-.35-.984.229-1.254.605-.276,1.105.212,1.91,1.301,1.287,1.724,2.145,3.224,1.08,3.795-.539.315-.833.168-1.381-.394-.414-.484-.541-.535-1.37-.141-1.203.58-1.079.518.005,2.751,1.204,2.569.952,2.58,3.181,1.496,1.533-.725,1.716-.889,1.465-2.239-.325-1.728-.39-2.391.34-2.73.882-.409,1.364-.198,1.777.598.215.482.491,1.401.846,2.61.556,2.062.564,2.514-.291,2.915-.678.325-1.158.226-1.98.647l.06.013Z" style="fill:#1c1b1a;"/><path d="M140.47,341.095c-.378,0-.677-.229-.989-.843-.408-.849-.216-1.121.251-1.779.352-.48.256-.705-.062-1.448-.035-.08-.071-.166-.11-.259-.718-1.775-2.56-5.556-3.594-7.651-.457-.872-.562-1.07-1.048-1.07h-.041c-.101-.006-.188-.004-.287-.005-.482.003-.95.002-1.363-.882-.564-1.201-.09-1.677,1.264-2.35.512-.245,1.204-.55,1.938-.871,1.24-.544,2.646-1.161,3.76-1.743.309-.165.506-.335.696-.499.2-.172.406-.35.733-.512.858-.412,1.343-.166,2.721,1.403.279.354.517.644.726.897.442.538.734.894.911,1.259.333.72.064,1.32-.776,1.737-.744.354-1.327-.089-2.568-1.267-.887-.808-.995-.754-2.809.114l-.108.052c-.741.352-1.102.533-1.197.804-.112.316.128.815.606,1.811l.177.367c.113.237.211.45.298.638.324.702.487,1.055.72,1.139.187.07.449-.029.927-.258.891-.425.798-.619.408-1.439-.192-.403-.293-.696-.208-.933.06-.167.203-.296.465-.418.648-.29,1.156.192,1.992,1.321.867,1.163,1.729,2.463,1.548,3.278-.059.266-.225.473-.491.615-.584.343-.908.159-1.46-.405-.387-.453-.473-.519-1.294-.128-.473.229-.732.354-.799.547-.084.245.116.651.555,1.542.085.172.179.362.28.572.104.223.197.425.282.609.425.927.639,1.392.95,1.503.311.112.754-.108,1.639-.539l.221-.107c1.493-.707,1.674-.848,1.43-2.168-.315-1.675-.421-2.431.377-2.802.88-.406,1.42-.226,1.865.627.217.487.489,1.395.85,2.623.553,2.044.589,2.564-.326,2.994-.319.152-.591.213-.878.276-.281.062-.571.126-.924.284l.061.013-.177.086-5.734,2.757c-.6.293-1.039.507-1.404.507ZM134.921,327.91c.565,0,.709.274,1.161,1.137,1.039,2.105,2.883,5.89,3.602,7.668.039.092.075.178.109.257.314.734.444,1.038.048,1.578-.459.648-.613.867-.239,1.643.553,1.087.974.881,2.216.275l.089-.043,5.468-2.629-.053-.012.168-.086c.45-.23.796-.307,1.131-.381.28-.062.545-.12.851-.267.788-.369.821-.74.255-2.837-.358-1.222-.63-2.125-.842-2.601-.411-.791-.867-.944-1.688-.564-.678.314-.625.942-.303,2.656.256,1.381.05,1.578-1.503,2.312l-.22.107c-.922.448-1.385.671-1.742.545-.364-.131-.586-.613-1.026-1.573-.085-.185-.178-.387-.281-.607-.102-.209-.195-.399-.279-.571-.47-.952-.664-1.347-.562-1.645.085-.245.361-.379.864-.622.862-.408,1.022-.348,1.453.157.529.541.791.676,1.296.379.237-.127.376-.299.427-.528.17-.763-.676-2.03-1.525-3.169-.791-1.069-1.261-1.535-1.829-1.28-.224.104-.349.213-.396.342-.068.193.025.458.2.823.396.833.543,1.143-.469,1.625-.522.249-.796.344-1.029.263-.284-.104-.455-.473-.795-1.209-.086-.188-.184-.398-.298-.637l-.176-.365c-.51-1.061-.742-1.545-.612-1.913.118-.336.526-.529,1.267-.881l.107-.052c1.812-.865,2.002-.958,2.957-.092,1.302,1.235,1.778,1.548,2.42,1.245.774-.385,1.015-.909.714-1.56-.17-.35-.458-.7-.895-1.231-.209-.255-.447-.545-.725-.897-1.405-1.6-1.81-1.73-2.56-1.368-.312.154-.503.318-.705.493-.196.168-.399.343-.721.515-1.118.586-2.526,1.203-3.769,1.748-.732.321-1.424.625-1.933.869-1.353.672-1.716,1.08-1.201,2.173.363.778.731.805,1.191.805h.101c.078,0,.158,0,.24.006.014,0,.026,0,.04,0Z" style="fill:#1b1a19;"/><path d="M159.851,330.942c-.641-.592-1.535-1.486-4.738-4.538-3.381-2.974-3.723-3.818-4.123-3.625-.303.139-.024.545.357,1.322l2.736,5.73c.511,1.054.738,1.163,1.584,1.248.751.052,1.052.227,1.363.851.457.955-.052,1.49-1.978,2.434-1.927.946-2.644,1.338-3.238.08-.318-.653-.225-1.046.193-1.698.369-.525.482-.84-.098-2.045l-3.44-7.185c-.643-1.331-.863-1.413-1.492-1.328-.703.02-1.084-.133-1.43-.891-.518-1.08-.407-1.507,2.376-2.853,1.98-.96,2.579-1.263,3.625-.013,1.057,1.19,1.816,2.006,4.338,4.419,2.943,2.61,3.342,3.354,3.671,3.209.276-.132.051-.44-.412-1.421l-2.543-5.329c-.518-1.08-.666-1.21-1.391-1.271-.684-.013-1.097-.073-1.476-.85-.471-1.007.208-1.645,1.912-2.473,1.737-.809,2.424-.995,2.99.158.339.732.247,1.126-.055,1.689-.492.7-.45.746.917,3.612,2.737,5.73,3.396,6.601,4.308,8.512.497,1,.087,1.479-1.366,2.184-1.473.737-1.979.647-2.64.088l.053-.014Z" style="fill:#1c1b1a;"/><path d="M152.78,335.307c-.112,0-.216-.017-.313-.051-.282-.099-.509-.347-.715-.783-.343-.703-.21-1.128.198-1.762.341-.486.479-.772-.103-1.98l-3.44-7.186c-.643-1.332-.842-1.374-1.423-1.29-.702.021-1.129-.119-1.5-.931-.553-1.15-.327-1.617,2.407-2.939l.045-.022c1.938-.939,2.589-1.255,3.66.025,1.08,1.215,1.859,2.047,4.332,4.414,1.267,1.122,2.06,1.898,2.584,2.411.633.618.875.847,1.015.784.053-.025.067-.051.074-.07.039-.112-.086-.368-.294-.793-.066-.136-.142-.291-.226-.468l-2.543-5.329c-.508-1.059-.633-1.174-1.336-1.232-.688-.014-1.136-.08-1.53-.887-.516-1.104.322-1.775,1.942-2.562,1.763-.823,2.486-1.019,3.079.188.348.75.259,1.162-.057,1.75-.457.653-.449.685.826,3.356l.094.195c1.733,3.63,2.634,5.311,3.292,6.538.381.711.682,1.272,1.017,1.974.207.417.257.747.158,1.037-.164.479-.74.84-1.557,1.235-1.517.761-2.043.645-2.712.078l-.099-.083.06-.016c-.271-.252-.6-.57-1.111-1.063-.705-.681-1.771-1.709-3.538-3.393-1.545-1.358-2.474-2.291-3.028-2.849-.671-.674-.857-.845-1.02-.765-.059.027-.075.059-.083.08-.046.133.097.413.294.802.055.107.114.224.176.351l2.736,5.731c.495,1.021.701,1.127,1.53,1.21.783.054,1.101.253,1.415.889.511,1.066-.207,1.64-2.008,2.522l-.141.069c-.988.485-1.655.813-2.159.813ZM147.257,322.099c.469,0,.726.263,1.27,1.389l3.441,7.186c.582,1.211.481,1.558.092,2.112-.387.601-.506.979-.188,1.63.19.402.393.629.639.715.479.168,1.192-.178,2.369-.756l.142-.069c1.951-.957,2.37-1.461,1.946-2.346-.294-.595-.563-.762-1.307-.813-.879-.088-1.116-.209-1.639-1.285l-2.736-5.731c-.062-.125-.12-.241-.175-.348-.228-.449-.366-.72-.301-.906.024-.068.075-.121.152-.156.256-.124.468.086,1.171.791.554.556,1.479,1.486,3.023,2.845,1.77,1.685,2.835,2.713,3.541,3.394.568.549.911.88,1.198,1.146l.09.083-.044.011c.604.474,1.109.501,2.466-.178.943-.457,1.361-.782,1.49-1.159.087-.254.038-.552-.152-.937-.334-.698-.634-1.259-1.015-1.968-.658-1.229-1.56-2.912-3.295-6.545l-.093-.194c-1.271-2.664-1.321-2.768-.819-3.483.296-.553.375-.921.05-1.623-.543-1.104-1.191-.921-2.901-.125-1.824.887-2.299,1.488-1.88,2.385.369.754.759.798,1.417.812.761.063.923.21,1.45,1.308l2.543,5.33c.083.176.158.33.225.466.238.486.357.73.3.896-.022.063-.069.112-.145.147-.229.103-.43-.092-1.163-.81-.524-.513-1.315-1.287-2.581-2.409-2.479-2.371-3.26-3.205-4.343-4.425-1.007-1.203-1.535-.946-3.501.008l-.045.021c-2.836,1.372-2.817,1.781-2.345,2.764.321.706.67.855,1.256.855.037,0,.074,0,.112,0,.104-.015.198-.023.284-.023Z" style="fill:#1b1a19;"/><path d="M168.793,326.374c-.372-.75-.201-1.165.279-1.805.465-.693.659-.916.115-1.989l-3.987-8.372c-.318-.653-.365-.725-1.346-.262-.901.442-.82.533-.655,1.567.324,2.04.302,2.698-.572,3.133-.704.332-1.455.28-1.849-.55-.248-.501-.443-1.327-.752-2.578-.57-2.427-.374-2.963.581-3.419.802-.386,1.204-.154,2.193-.591l5.046-2.41c.953-.456.997-.922,1.774-1.301.901-.442,1.481-.287,3.032,1.678.76.93,1.265,1.644,1.514,2.145.441.902.095,1.506-.583,1.831-.98.463-1.642-.096-2.888-1.462-.785-.81-.727-.91-1.806-.392-.829.394-.872.548-.507,1.272l3.918,8.22c.504,1.027.712,1.169,1.396,1.183.782-.041,1.234-.049,1.661.8.588,1.231.023,1.555-2.786,2.908-2.658,1.285-3.291,1.455-3.795.428l.019-.034Z" style="fill:#1c1b1a;"/><path d="M169.655,327.144c-.445,0-.707-.23-.94-.707l-.016-.031.02-.034c-.362-.749-.199-1.177.3-1.843l.045-.066c.428-.637.572-.852.064-1.852l-3.988-8.373c-.307-.631-.325-.67-1.257-.229-.799.391-.787.46-.647,1.31l.03.186c.31,1.951.337,2.733-.608,3.203-.849.401-1.574.185-1.938-.582-.233-.472-.417-1.215-.695-2.34l-.062-.25c-.582-2.481-.368-3.024.617-3.496.4-.192.703-.234,1.023-.278.331-.046.674-.093,1.17-.312l5.045-2.411c.494-.236.738-.474.975-.704.218-.212.423-.412.799-.596.945-.461,1.557-.276,3.114,1.697.759.928,1.271,1.653,1.521,2.156.211.431.259.818.143,1.154-.11.316-.372.582-.756.767-1.02.479-1.72-.11-2.967-1.478-.069-.071-.133-.138-.191-.199-.585-.615-.594-.629-1.538-.178-.382.182-.614.319-.671.486-.053.154.028.363.195.695l3.919,8.222c.502,1.024.702,1.132,1.337,1.146.76-.039,1.265-.067,1.719.836.638,1.334-.094,1.687-2.815,2.999-1.502.725-2.374,1.104-2.944,1.104ZM168.849,326.409c.454.904.959.829,3.691-.489,2.806-1.353,3.316-1.645,2.754-2.82-.414-.824-.839-.801-1.596-.762-.741-.016-.959-.198-1.46-1.221l-3.919-8.221c-.187-.371-.27-.597-.201-.797.072-.213.316-.362.74-.564,1.004-.482,1.074-.442,1.691.207.059.061.121.128.191.199,1.23,1.349,1.867,1.894,2.812,1.448.356-.171.588-.403.688-.689.104-.301.059-.654-.136-1.052-.245-.493-.752-1.211-1.506-2.132-1.229-1.559-1.879-2.184-2.951-1.661-.356.175-.555.368-.765.572-.244.237-.496.483-1.011.729l-5.046,2.411c-.516.228-.867.276-1.207.323-.31.043-.603.083-.984.268-.912.436-1.106.953-.546,3.344l.062.249c.276,1.117.459,1.854.687,2.314.473.996,1.387.695,1.761.52.827-.411.858-1.022.535-3.062l-.03-.186c-.143-.861-.168-1.017.721-1.451.992-.471,1.094-.407,1.435.292l3.988,8.372c.542,1.068.361,1.337-.073,1.984l-.047.069c-.483.645-.628,1.027-.274,1.738l.016.031-.02.034Z" style="fill:#1b1a19;"/></svg>