<?xml version="1.0" encoding="UTF-8"?>
<svg id="Layer_1" xmlns="http://www.w3.org/2000/svg" version="1.1" viewBox="0 0 201.4 234.3">
  <!-- Generator: Adobe Illustrator 30.5.1, SVG Export Plug-In . SVG Version: 2.1.4 Build 3)  -->
  <defs>
    <style>
      .st0 {
        fill: none;
      }

      .st1 {
        fill: #fff;
      }
    </style>
  </defs>
  <path d="M35.1,233.3c-12.8-1.3-16.2-8.7-17.6-21-8.3-2.4-14.2-8.1-15.8-15.3-1.6-6.8-.8-14.4,2-21.4,3.6-6,6.5-9.6,12.6-12.5l.7-11.9c.5-9-.4-16.6-1.4-23.9-.8-6.1-1.6-12.4-1.6-19.6l.2-43.2c0-8.6,1.4-17,2.9-24.9.9-4.7,3.4-8,6.4-11.6l5.5-6.6c3-3.6,5.8-7,10.2-9.6C55.7,2.3,70.3,2,87.2,1.8c3.1,0,6.2-.1,9.5-.2l18.3-.6c1,0,2.1,0,3.1,0,4.4.3,8.7,1.3,12.9,2.3,2.1.5,4.4,1,6.5,1.5,9.8,1.8,16.9,6.4,21,13.6l7.7,13.4c4.6,8.1,5.5,18.4,6.3,28.3.2,2.3.4,4.6.6,6.9l1.7,16.3,1.1,17.1.3,30.6-1.2,30.7,9.7,1.3c2.7.4,4.9,1.7,6.3,3.7,1.3,1.8,1.7,4.2,1.2,6.6l4.9,6.3c1.4,1.8,4.5,6.5,3.2,11-3,10.7-16.7,15.5-27.7,19.3-1,.4-2,.7-3,1.1,1.3,7-1.2,13.4-7.2,18.1-3.8,3-8.1,4.5-12.1,4.2-3.5-.2-6.7-1.7-9.3-4.5-2.2-2.3-2.7-6.1-3.3-9.8,0-.6-.2-1.2-.3-1.8-15.4,3.1-31.1,4.3-48,3.5l-31.1-1.4h-6.3c-1.4,8.3-8.5,14.6-16.1,14.2-.2,0-.4,0-.6,0h0ZM24.5,214.7c1.1,4.2,3.4,6.9,6.7,8.3,1.2.5,2.4.8,3.5.8,1.5,0,3-.2,4.3-.9,1.3-.7,2.7-2.9,3.5-4.8l-8.3-1.7-9.8-1.7h0ZM145.9,221.9c1.4,1,2.8,1.6,4.3,1.6,2.6.2,5.2-1.1,7.4-3.6,2.2-2.4,2.9-4.4,2.3-6.9l-16.9,2.8,2.8,6.1h0ZM9.3,180.1c-.7,6.5-.2,12.4,1.3,17.5,1.2,4,5.7,6.1,9.4,7.2l7.9,2.3c10.4,2,19.3,3.2,27.9,3.7.7,0,1.4,0,2.2.1l25.4,1.1c15.8.7,32.9.9,51-2.6l33.1-6.4,16.6-6.1c3.6-1.3,7.2-4.4,8.3-7.2.4-.9.4-1.7.1-2.3-1.7-3.4-3.8-6.1-5.8-8.6-5.2,2.5-9.8,4.1-15.2,5.4-15.5,3.5-30.7,6.8-46.5,8.2l-24.8.7-22.1-1.2h-4.8c-8.7,0-17.6,0-26.3-.5-9.3-.5-17.5-1.7-25-3.4-3.7-.9-6.6-3.3-9.4-5.6-1.1-.9-2.1-1.8-3.2-2.5h0ZM23.4,181.3c7.3,1,14.7,1.8,22.1,2.2,9.3.5,18.7.6,28.7.3l7.1.2c2.6.2,5.1.4,7.6.5,27.6,1.6,49.9-.5,79.6-7.7l6-1.5c1.9-.5,3.9-1.2,5.7-2.1-2.6-2.5-4.9-2.9-6.9-3.1-1.1,0-2.2,0-3.2,0h-.2s-.2,0-.2,0c-1.4-.7-3.6-1.6-5.3-1.7-.5,0-.9,0-1.3.1-7.5,2.3-14.1,3.8-21.4,4.8l-35.6,5c-6.3.9-12.7,1-18.9,1-2.9,0-5.8,0-8.7.2-2.2,0-4.4.2-6.7.3-6.9.4-14,.8-21,.3-8.6-.5-15.5-2.2-21-5.1-1.3-.7-2.6-1.5-3.7-2.4-2.6-1.8-5-3.4-8.1-3.6h-.3c-1.7,0-3.7,2-5,4.2l10.8,7.8h0ZM20.7,164.3c3.5.9,6.4,2.4,9.2,3.9,4,2.1,7.9,4.1,13.2,4.4l15.6.8,23.9-1.2c12.8.3,24.8-1.4,36.3-3.1l34.9-5c2.5-.4,4.5-1.5,6.5-2.7.6-.3,1.1-.6,1.7-1h.1c0,0,1.1-.3,1.1-.3,1.2-.2,3-.6,3.9-1l.5-18.5,1-21.2-1.1-22.5-1.4-18.8-2.8-29.7c-.7-7.4-4.3-14.1-7.7-19.7l-5-8.4c-1-1.6-3.3-3.6-5.2-5.2-.3-.3-.7-.6-1-.8l-18.2-4.7c-2.4-.6-5-1-7.9-1.2-2.9-.2-5.7-.1-7.8,0l-15,.4-19.9.5c-15,.4-33.6,5-41.2,16.7l-5.3,5.9c-1.2,1.3-3.3,4.5-3.9,6.2-2.8,8.6-3.9,18-3.7,30.3l.5,23.3c-.7,15.7.7,30,2.1,42,.9,8-.6,15.9-2,23.6-.4,2.3-.9,4.7-1.3,7h0Z"/>
  <path d="M118,1.8c6.5.4,12.9,2.5,19.3,3.7,8.5,1.6,15.9,5.4,20.4,13.1l7.7,13.4c5.6,9.7,5.5,22.8,6.8,34.8l1.7,16.3,1.2,17,.3,30.6-1.2,31.5,10.5,1.4c4.7.6,7.9,4.6,6.7,9.6l5.1,6.6c2.1,2.7,4,6.7,3,10.3-3.3,11.5-19.5,16-30.8,20.1,1.7,7.3-1.1,13.6-6.8,18-3.3,2.6-7.4,4.3-11.5,4.1-3.1-.2-6.1-1.4-8.7-4.2-2.5-2.6-2.7-7.7-3.4-12.1-16.2,3.4-32.1,4.5-48.7,3.7l-31.1-1.4h-7.1c-.9,7.7-7.5,14.6-15.3,14.2-.2,0-.4,0-.6,0-12.7-1.3-15.6-8.6-16.9-20.8-7.4-2-14-7.1-15.8-14.8-1.6-6.9-.7-14.3,2-20.8,3.4-5.7,6.3-9.3,12.7-12.2l.7-12.4c1-16.6-3-27.7-2.9-43.6l.2-43.2c0-8.4,1.3-16.6,2.9-24.8.9-4.5,3.4-7.8,6.2-11.2l4.9-5.9c3.2-3.9,6-7.4,10.5-10.1C59.1,1.4,76.1,3.1,96.7,2.4l18.3-.6c1,0,2,0,3.1,0M43.1,173.4s.1,0,.2,0l15.4.8,24-1.2c12.5.3,24.1-1.3,36.4-3.1l34.9-5c3.4-.5,5.9-2.4,8.5-3.7,1.6-.3,4.5-.8,5.6-1.6l.5-19,1-21.2-1.1-22.6-1.4-18.9-2.8-29.7c-.7-7.3-4.2-14-7.8-20.1l-5-8.4c-1.3-2.1-4.5-4.7-6.5-6.3l-18.4-4.7c-2.6-.7-5.3-1-8.1-1.2-2.7-.2-5.3-.1-7.9,0l-15,.4-19.9.5c-14.7.4-34,4.7-42,17.1l-5.2,5.8c-1.2,1.4-3.4,4.7-4.1,6.5-3.2,10-3.9,20.1-3.7,30.6l.5,23.3c-.6,14.4.4,27.8,2.1,42.1,1.2,10.6-1.8,20.8-3.4,31.2,8.6,1.8,13.7,7.9,23.4,8.4M50.9,179.4c-7.4-.4-14.6-1.8-20.7-5-4-2.1-7.3-5.8-12.2-6.1-.1,0-.2,0-.4,0-2.3,0-4.8,2.7-6.2,5.4l11.7,8.5c7.5,1,15,1.8,22.4,2.2,9.5.6,19,.6,28.7.3l7,.2c2.5.2,5.1.4,7.5.5,28.4,1.7,51.1-.8,79.9-7.7l6-1.5c2.6-.6,5.1-1.7,7-2.8-2.9-3.1-5.5-4-8.4-4.2-1,0-2.1,0-3.3,0-1.4-.7-3.7-1.6-5.6-1.7-.6,0-1.1,0-1.6.2-7.2,2.2-13.8,3.8-21.3,4.8l-35.6,5c-9.2,1.3-18.2.9-27.5,1.2-8.6.3-18.3,1.2-27.6.7M46.9,190.8c-8.3-.5-16.6-1.5-24.9-3.4-5.3-1.2-9-6-13.5-8.9-.8,6.4-.7,13.1,1.2,19.3,1.3,4.4,6.1,6.6,10,7.8l7.8,2.3c9.4,1.9,18.5,3.2,28.1,3.8.7,0,1.4,0,2.2.1l25.4,1.1c17.4.8,34,.7,51.2-2.6l33.1-6.4,16.8-6.1c5.3-1.9,10.5-7.5,8.8-10.7-1.8-3.5-4-6.4-6.4-9.3-5.3,2.6-10,4.3-15.7,5.6-15.4,3.5-30.5,6.8-46.3,8.2l-24.7.7-22-1.2c-10.4,0-20.8.1-31.1-.5M150.2,224.4c3,.2,5.9-1.3,8.2-3.9,2.3-2.6,3.4-5.1,2.3-8.5l-18.8,3.1,3.4,7.3c1.6,1.2,3.3,1.9,5,2M34.7,224.7c1.6,0,3.2-.2,4.8-1,1.8-1,3.6-4.1,4.3-6.3l-9.3-1.9-11.1-2c1,4.7,3.3,8.5,7.5,10.2,1.2.5,2.5.8,3.8.9M118.1,0c-1.1,0-2.2,0-3.2,0l-18.3.6c-3.2.1-6.4.2-9.5.2-17,.3-31.7.5-48.4,10.2-4.5,2.6-7.4,6.1-10.4,9.8l-.6.7-4.9,5.9c-3,3.7-5.6,7.1-6.6,12-1.5,7.9-2.9,16.5-2.9,25.1l-.2,43.2c0,7.3.8,13.6,1.6,19.7,1,7.6,1.9,14.8,1.4,23.7l-.7,11.4c-6,3-8.9,6.6-12.5,12.5h0c0,.1,0,.2,0,.2-2.9,7.1-3.7,14.9-2.1,21.9,1.7,7.4,7.6,13.2,15.9,15.8,1.5,12.4,5.1,19.8,18.3,21.2.2,0,.4,0,.6,0,7.9.5,15.2-5.8,16.9-14.3h5.6c0,.1,31.1,1.5,31.1,1.5,16.7.7,32.2-.4,47.3-3.4,0,.3,0,.6.1.9.5,3.8,1.1,7.8,3.5,10.3,2.7,2.9,6.2,4.5,9.9,4.8,4.2.2,8.7-1.3,12.7-4.4,6.1-4.8,8.8-11.2,7.7-18.3.7-.3,1.5-.5,2.3-.8,11.2-3.9,25.1-8.8,28.2-19.9,1.4-5-1.9-9.9-3.3-11.8l-4.6-6c.4-2.5,0-4.9-1.4-6.8-1.5-2.2-4-3.7-6.9-4.1l-8.8-1.2,1.1-29.9-.3-30.7h0c0,0,0-.1,0-.1l-1.2-17-1.7-16.4c-.2-2.3-.4-4.6-.6-6.8-.8-10.1-1.6-20.5-6.4-28.7l-7.7-13.4c-4.2-7.4-11.5-12.1-21.6-14-2.1-.4-4.4-.9-6.5-1.4-4.2-1-8.6-2-13-2.3h0ZM26,38.4c.6-1.6,2.6-4.7,3.7-5.9l5.2-5.8h0c0-.1,0-.2,0-.2,7.4-11.4,25.8-15.9,40.5-16.3l19.9-.5,15.1-.4c2.1,0,4.9-.1,7.7,0,2.8.2,5.4.5,7.7,1.1l18,4.6c.3.2.5.4.8.7,1.7,1.4,4.1,3.4,5,4.9l5,8.4c3.3,5.5,6.9,12.1,7.6,19.3l2.8,29.7,1.4,18.8,1.1,22.5-1,21.1-.5,17.9c-.9.3-2.4.6-3.2.8-.4,0-.7.1-1,.2h-.3c0,0-.2.2-.2.2-.6.3-1.1.6-1.7,1-2,1.2-3.9,2.2-6.2,2.6l-34.9,5c-11.5,1.7-23.4,3.4-36.1,3.1h0s0,0,0,0l-23.9,1.2-15.3-.8h-.2c-5.1-.3-8.9-2.2-12.8-4.3-2.7-1.4-5.4-2.8-8.6-3.7.4-2.1.7-4.1,1.1-6.2,1.5-7.7,3-15.7,2-23.9-1.4-11.9-2.7-26.3-2-41.8h0c0,0,0-.1,0-.1l-.5-23.3c-.3-12.1.9-21.4,3.6-30ZM50.8,181.2c7,.4,14.2,0,21.1-.3,2.3-.1,4.5-.3,6.7-.3,2.9-.1,5.8-.2,8.7-.2,6.2,0,12.6-.2,19-1.1l35.6-5c7.4-1,14-2.5,21.6-4.9.3,0,.6-.1,1,0,1.8.1,4.1,1.2,5,1.6l.4.2h.4c.9,0,2-.1,3,0,1.6,0,3.3.4,5.3,1.9-1.4.6-2.9,1.1-4.3,1.5l-6,1.5c-29.6,7.1-51.9,9.3-79.4,7.7-2.4-.1-4.9-.3-7.5-.5h0s0,0,0,0l-7-.2h0s0,0,0,0c-10,.3-19.3.2-28.6-.3-7.3-.4-14.6-1.1-21.8-2.1l-10-7.2c1.3-1.8,2.8-3.1,3.8-3.1.1,0,.2,0,.3,0,2.8.2,5.1,1.8,7.6,3.5,1.2.8,2.5,1.7,3.9,2.4,5.7,3,12.7,4.7,21.4,5.2h0ZM78,193l22,1.2h0s0,0,0,0l24.7-.7h0s0,0,0,0c15.8-1.5,31.1-4.7,46.6-8.3,5.3-1.2,9.8-2.7,14.8-5.1,1.9,2.3,3.7,4.8,5.3,7.9.2.5,0,1.1-.1,1.6-1,2.5-4.5,5.4-7.7,6.7l-16.6,6.1-33,6.3c-18.1,3.5-35.1,3.3-50.8,2.6l-25.4-1.1c-.7,0-1.4,0-2.1-.1-8.5-.5-17.4-1.7-27.8-3.7l-7.8-2.3c-3.4-1-7.7-2.9-8.7-6.6-1.4-4.6-1.8-9.9-1.4-15.6.6.5,1.2,1,1.9,1.5,2.9,2.4,5.9,4.9,9.8,5.8,7.5,1.7,15.8,2.9,25.2,3.4,8.8.5,17.7.5,26.4.5,1.6,0,3.2,0,4.8,0h0ZM144.4,216.5l14.8-2.5c.2,1.8-.5,3.3-2.2,5.3-2,2.3-4.4,3.4-6.7,3.3-1.2,0-2.5-.5-3.7-1.3l-2.2-4.8h0ZM34.8,223c-1,0-2.1-.3-3.3-.8-2.7-1.1-4.6-3.2-5.7-6.3l8.3,1.5,7.2,1.4c-.8,1.5-1.9,3-2.7,3.4-1.2.6-2.5.9-3.8.8h0Z"/>
  <path class="st1" d="M153.9,164.9l-34.9,5c-12.3,1.8-23.9,3.4-36.4,3.1l-24,1.2-15.4-.8c-9.8-.5-14.9-6.6-23.6-8.4,1.6-10.4,4.6-20.6,3.4-31.2-1.7-14.3-2.7-27.7-2.1-42.1l-.5-23.3c-.2-10.5.5-20.6,3.7-30.6.7-1.8,2.8-5.1,4.1-6.5l5.2-5.8c8-12.3,27.3-16.7,42-17.1l19.9-.5,15-.4c5.4-.2,10.8,0,16,1.2l18.4,4.7c1.9,1.7,5.2,4.2,6.5,6.3l5,8.4c3.6,6.1,7.1,12.7,7.8,20.1l2.8,29.7,1.4,18.9,1.1,22.6-1,21.2-.5,19c-1.1.8-4,1.2-5.6,1.6-2.6,1.4-5.1,3.3-8.5,3.7h0ZM38.2,47.2c.5-4,2.4-8.6,4.2-12.2,3.2-6.5,9.5-9.9,14.9-14.2l1.9-1.5c.3-.2-.1-.8-.7-1.7-13,3.5-22.2,13.9-24.9,26.9l-3.1,14.9c-.3,1.3,1.8,3.6,3,3.6,1.4,0,3-1.5,3.2-3.1l1.7-12.8h0ZM53.5,41.7l2.9-6.5,4.8-1.9c-1.6-2.6-3.1-3.1-5.5-3-1.4,0-3.3,1.8-4.2,3.3l-2.4,4.4c-.8,1.5-1.8,4.7-.5,5.8,2.1,1.9,4.1-.2,5-2.2h0Z"/>
  <path class="st0" d="M153.9,164.9l-34.9,5c-12.3,1.8-23.9,3.4-36.4,3.1l-24,1.2-15.4-.8c-9.8-.5-14.9-6.6-23.6-8.4,1.6-10.4,4.6-20.6,3.4-31.2-1.7-14.3-2.7-27.7-2.1-42.1l-.5-23.3c-.2-10.5.5-20.6,3.7-30.6.7-1.8,2.8-5.1,4.1-6.5l5.2-5.8c8-12.3,27.3-16.7,42-17.1l19.9-.5,15-.4c5.4-.2,10.8,0,16,1.2l18.4,4.7c1.9,1.7,5.2,4.2,6.5,6.3l5,8.4c3.6,6.1,7.1,12.7,7.8,20.1l2.8,29.7,1.4,18.9,1.1,22.6-1,21.2-.5,19c-1.1.8-4,1.2-5.6,1.6-2.6,1.4-5.1,3.3-8.5,3.7h0ZM38.2,47.2c.5-4,2.4-8.6,4.2-12.2,3.2-6.5,9.5-9.9,14.9-14.2l1.9-1.5c.3-.2-.1-.8-.7-1.7-13,3.5-22.2,13.9-24.9,26.9l-3.1,14.9c-.3,1.3,1.8,3.6,3,3.6,1.4,0,3-1.5,3.2-3.1l1.7-12.8h0ZM53.5,41.7l2.9-6.5,4.8-1.9c-1.6-2.6-3.1-3.1-5.5-3-1.4,0-3.3,1.8-4.2,3.3l-2.4,4.4c-.8,1.5-1.8,4.7-.5,5.8,2.1,1.9,4.1-.2,5-2.2h0Z"/>
  <path class="st1" d="M193.1,187.2c1.6,3.2-3.6,8.8-8.8,10.7l-16.8,6.1-33.1,6.4c-17.2,3.3-33.8,3.4-51.2,2.6l-25.4-1.1c-10.3-.5-20.1-1.9-30.3-3.9l-7.8-2.3c-3.9-1.1-8.7-3.4-10-7.8-1.8-6.2-2-13-1.2-19.3,4.5,2.8,8.2,7.6,13.5,8.9,18.5,4.3,37.1,3.9,55.9,3.9l22,1.2,24.7-.7c15.8-1.5,31-4.7,46.3-8.2,5.7-1.3,10.4-3,15.7-5.6,2.4,2.9,4.6,5.7,6.4,9.3h0Z"/>
  <path class="st1" d="M181.7,173.4c-1.9,1.1-4.4,2.2-7,2.8l-6,1.5c-31.3,7.5-55.3,9.8-87.4,7.2l-7-.2c-17.3.6-34.1-.1-51.2-2.5l-11.7-8.5c1.4-2.7,3.9-5.4,6.2-5.4,5.1.1,8.4,4,12.6,6.1,13.8,7.3,32.8,4.9,48.3,4.3,9.3-.4,18.3,0,27.5-1.2l35.6-5c7.4-1,14.1-2.6,21.3-4.8,2.1-.7,5.4.7,7.2,1.6,4.3-.3,7.7,0,11.6,4.1h0Z"/>
  <path class="st1" d="M158.3,220.5c-3.6,4-8.6,5.4-13.2,1.9l-3.4-7.3,18.8-3.1c1.1,3.4,0,5.9-2.3,8.5h0Z"/>
  <path class="st1" d="M43.8,217.4c-.7,2.2-2.5,5.3-4.3,6.3-2.8,1.5-5.8,1.2-8.6.1-4.3-1.7-6.6-5.5-7.5-10.2l11.1,2,9.3,1.9h0Z"/>
  <path d="M38.2,47.2l-1.7,12.8c-.2,1.5-1.8,3.1-3.2,3.1-1.2,0-3.3-2.3-3-3.6l3.1-14.9c2.7-13,12-23.4,24.9-26.9.5.9,1,1.5.7,1.7l-1.9,1.5c-5.3,4.3-11.7,7.7-14.9,14.2-1.7,3.5-3.6,8.2-4.2,12.2h0Z"/>
  <path d="M139.7,155.2l3.1-3.6,4,2,5.8-5.6c2-1.9-.4-9.5,2.1-11.8.6-.5,2.9.3,3.2,1.1,3.6,10.2,2.7,15.5-6,22.2-2.8,2.2-9.2.5-12.1-4.3Z"/>
  <path d="M53.5,41.7c-.8,1.9-2.9,4-5,2.2-1.3-1.1-.3-4.4.5-5.8l2.4-4.4c.9-1.5,2.7-3.3,4.2-3.3,2.5-.1,4,.3,5.5,3l-4.8,1.9-2.9,6.5h0Z"/>
</svg>