<svg width="267" height="541" viewBox="0 0 267 541" fill="none" xmlns="http://www.w3.org/2000/svg">
<path d="M19.6389 516.972C28.8773 520.007 32.7786 517.46 40.0934 512.15C45.7827 519.6 51.4449 527.132 57.1071 534.663C60.7104 531.277 64.6929 528.297 68.9192 525.642C64.5845 518.977 60.2228 512.285 55.861 505.621C51.0928 498.306 44.8886 493.24 42.5316 483.568C40.8248 476.524 48.1669 447.183 50.4426 438.406C66.0205 377.638 95.7946 317.169 125.785 262.118C129.416 255.48 136.27 249.032 136.541 240.742C140.794 245.781 142.257 253.99 146.402 259.056C157.131 272.142 189.018 260.817 201.643 254.126C213.97 247.596 244.15 221.29 247.239 208.015C252.332 186.125 229.494 187.886 214.837 189.999C213.103 190.27 212.236 192.464 212.507 188.996C236.158 166.185 261.679 129.34 258.32 94.6349C257.182 82.7144 253.064 76.1311 240.303 75.9685C217.736 75.6705 200.749 105.932 187.636 120.183C193.84 92.7656 201.779 61.3388 199.394 33.0277C196.929 3.95792 177.667 -0.349714 162.197 23.2745C152.2 38.5273 145.021 61.7452 141.77 79.5446C138.627 79.7343 139.467 79.951 139.169 77.5669C137.814 67.2991 135.511 32.5671 128.088 27.0132C112.023 15.0656 93.9252 46.4382 90.4574 58.9818C81.0023 93.3074 93.6814 167.919 113.188 197.937C118.796 206.579 127.465 210.047 125.352 222.59C124.566 227.223 118.769 233.238 116.601 237.22C81.9777 300.805 46.0536 374.875 30.7737 446.289C28.5792 456.476 26.4932 467.638 26.3578 477.933C8.36866 479.612 -0.842659 510.281 19.6389 516.999V516.972ZM233.476 202.732C233.097 207.934 228.979 208.692 226.947 211.239C212.236 229.553 193.353 244.996 169.349 249.33C164.825 250.143 157.727 252.31 155.478 247.244C152.904 241.474 163.064 237.925 166.234 235.026C168.564 232.885 171.381 228.767 174.253 226.383C190.915 212.621 210.936 199.942 233.476 202.732ZM227.57 93.9034C230.252 92.0341 245.261 85.2611 245.261 90.6524C245.261 96.6126 246.02 104.767 245.261 110.321C240.845 142.94 197.064 186.964 173.223 208.665L157.483 221.073C163.714 207.04 168.726 192.437 174.09 178.078C176.502 171.658 177.369 164.966 180.43 158.193C187.068 143.455 214.864 102.844 227.57 93.9034ZM144.371 161.417C146.89 115.144 143.72 83.2833 165.719 39.8819C168.293 34.8428 177.016 18.6147 182.977 19.1024C188.666 20.186 188.747 30.5894 189.018 35.493C190.562 63.3165 174.984 126.793 166.613 154.779C163.01 166.754 155.18 179.243 150.331 190.947C148.651 195.011 145.59 208.313 144.127 210.264C143.639 210.914 140.605 212.404 139.765 210.643C137.57 206.769 143.964 169.409 144.371 161.417ZM124.729 197.476C114.271 184.445 108.311 166.7 104.166 150.58C96.1196 119.289 88.6423 66.7843 110.966 40.1529C123.943 24.6833 124.377 33.5695 127.004 47.7386C130.906 68.762 132.315 90.4356 135.349 111.622L124.729 197.476ZM25.1386 485.871C24.4613 493.294 29.6901 497.656 32.9411 503.426C15.7106 518.137 10.8611 495.353 25.1386 485.871Z" fill="#00c4b4"/>
<path d="M62.5799 540.488L50.7679 539.458C46.6228 533.931 42.4776 528.432 38.3054 522.932C32.8328 526.02 26.5746 527.646 17.1466 524.53C5.41573 520.683 -1.22176 509.982 0.187024 497.303C1.32489 487.143 8.01655 475.9 18.6637 471.647C19.3681 462.381 21.1833 452.899 22.9714 444.582C39.2266 368.507 77.8056 291.756 109.585 233.372C110.479 231.72 111.887 229.769 113.377 227.71C114.705 225.895 117.197 222.509 117.468 221.181C118.281 216.359 116.927 214.625 112.565 209.802C110.506 207.527 108.365 205.116 106.469 202.244C85.5269 170.058 72.902 92.5753 82.7364 56.8409C85.7978 45.7874 97.9621 22.8946 113.54 17.5575C120.313 15.2276 126.978 16.2842 132.775 20.5918C137.733 24.2763 140.686 32.0517 142.962 44.785C146.375 35.4382 150.575 26.3624 155.478 18.8579C164.906 4.47206 176.637 -2.16548 187.637 0.624992C198.663 3.41547 205.815 14.9567 207.278 32.2956C208.85 50.8807 206.195 70.5224 202.483 89.3784C212.724 77.9185 224.861 67.9486 239.924 67.9486H240.358C263.738 68.2738 265.58 87.5091 266.203 93.8215C269.563 128.716 247.374 161.687 230.957 180.841C238.786 181.139 245.966 183.09 250.815 188.373C254.12 191.976 257.534 198.613 254.933 209.775C250.924 226.952 217.709 254.558 205.301 261.115C204.813 261.359 157.998 285.85 140.172 264.068C138.952 262.578 137.95 260.979 137.056 259.327C136.731 259.787 136.406 260.248 136.108 260.708C134.889 262.469 133.669 264.176 132.721 265.937C106.442 314.188 74.2023 377.61 58.1097 440.383C51.9327 464.278 49.7113 478.582 50.2531 481.779C51.4722 486.791 54.1542 490.232 57.5678 494.594C59.2475 496.734 60.9274 498.901 62.4716 501.258L75.5298 521.279L73.0916 532.36C69.1362 534.852 65.5871 537.562 62.4986 540.46L62.5799 540.488ZM38.7119 506.189L46.433 507.327C48.8713 510.524 51.3097 513.748 53.775 516.999L49.1965 509.982C47.8961 508.004 46.4872 506.216 45.0784 504.401C41.2314 499.47 36.8696 493.889 34.8106 485.437C34.2417 483.08 32.5078 475.981 42.7486 436.4C59.2747 371.948 92.0831 307.361 118.796 258.297C120.015 256.076 121.532 253.854 123.103 251.605C125.867 247.65 128.468 243.911 128.576 240.471L142.61 235.594C144.56 237.924 146.023 240.552 147.215 243.153C148.516 236.732 155.343 232.587 158.404 230.717C159.353 230.149 160.247 229.661 160.843 229.146C161.493 228.55 162.17 227.764 162.875 226.925L162.387 227.304L150.195 217.822C154.855 207.283 158.973 196.094 162.929 185.284L166.586 175.396C165.773 177.075 164.933 178.755 164.094 180.408C161.791 184.986 159.515 189.538 157.673 193.954C157.023 195.525 156.156 198.695 155.262 201.919C153.013 209.911 152.092 212.891 150.521 214.977C148.326 217.876 143.937 219.718 140.172 219.339C137.408 219.041 134.997 217.632 133.425 215.465C133.751 217.93 133.724 220.693 133.182 223.836C132.342 228.713 129.118 233.156 126.246 237.057C125.217 238.466 124.214 239.793 123.591 240.931C92.327 298.366 54.3981 373.79 38.5764 447.86C36.5445 457.261 34.4855 468.206 34.323 477.959L28.7691 483.974L33.0767 486.547C32.86 488.85 33.8624 490.53 36.5716 494.377C37.7365 496.03 38.8744 497.682 39.8768 499.47L38.6848 506.135L38.7119 506.189ZM216.192 211.645C202.131 215.004 189.479 224.134 179.319 232.506C178.046 233.562 176.827 235.079 175.635 236.488C174.307 238.059 173.034 239.522 171.869 240.633C187.637 236.813 202.51 227.06 216.192 211.618V211.645ZM125.596 200.456C127.628 202.758 129.741 205.332 131.285 208.502C131.204 206.199 131.367 203.111 131.773 198.695L125.569 200.456H125.596ZM204.515 189.185C197.905 196.148 191.348 202.596 185.361 208.231C192.269 203.788 199.855 199.86 208.01 197.34C204.65 194.956 204.434 191.217 204.515 189.185ZM236.89 197.801L239.978 201.566C239.924 200.591 239.68 199.724 239.166 199.155C238.759 198.722 238.055 198.207 236.89 197.801ZM232.122 100.432C221.204 108.099 194.003 147.41 187.664 161.443C186.201 164.721 185.28 168.135 184.304 171.765C183.492 174.827 182.652 177.861 181.541 180.841L177.884 190.757C177.396 192.111 176.908 193.466 176.394 194.821C197.986 174.231 233.666 136.546 237.378 109.21C237.784 106.311 237.649 101.922 237.486 97.9124C235.319 98.7252 233.124 99.7547 232.122 100.405V100.432ZM118.2 43.9451C117.848 44.3515 117.468 44.785 117.062 45.2726C94.4943 72.175 107.363 131.154 111.86 148.574C113.675 155.591 116.168 164.315 119.744 172.876L127.33 111.675C126.165 103.52 125.244 95.3116 124.323 87.0756C122.914 74.532 121.478 61.5549 119.175 49.1739L118.66 46.3021C118.525 45.5435 118.389 44.7308 118.227 43.918L118.2 43.9451ZM152.309 161.85C152.227 163.529 151.875 166.509 151.415 170.167C154.395 164.179 157.267 158.111 158.973 152.503C168.699 120.101 182.435 60.6338 181.053 35.953C180.972 34.49 180.864 32.431 180.674 30.5075C178.534 33.3521 175.743 37.714 172.817 43.4846C155.424 77.8372 154.476 104.767 153.284 138.903C153.04 146.19 152.769 153.803 152.336 161.822L152.309 161.85ZM183.925 120.507C181.514 130.558 179.076 139.878 176.935 147.626C180.566 141.178 185.767 132.915 191.565 124.49L183.952 120.48L183.925 120.507ZM140.388 87.5362L140.822 91.4645C141.011 90.137 141.228 88.8366 141.472 87.5091C141.12 87.5091 140.767 87.5362 140.388 87.5633V87.5362ZM140.903 79.3544V79.5711L140.93 79.3544H140.903Z" fill="#00c4b4"/>
<path d="M144.1 210.263C143.612 210.913 140.605 212.403 139.765 210.642C137.571 206.768 143.937 169.408 144.371 161.416C146.863 115.17 143.721 83.2826 165.719 39.8812C168.266 34.842 177.017 18.6139 182.95 19.1287C188.666 20.2124 188.72 30.6157 188.991 35.5193C190.536 63.3428 174.985 126.819 166.586 154.805C163.01 166.78 155.153 179.242 150.331 190.973C148.651 195.037 145.59 208.339 144.127 210.29" fill="#00c4b4"/>
<path d="M141.174 219.42C140.849 219.42 140.551 219.42 140.253 219.366C136.866 219.041 134.021 217.036 132.586 214.029C130.499 210.372 130.798 204.168 134.672 175.423C135.539 169.002 136.297 163.475 136.433 160.956C136.866 153.072 137.11 145.595 137.354 138.388C138.573 103.71 139.603 73.7466 158.621 36.2513C171.842 10.1617 180.403 10.8931 183.627 11.1641C195.9 13.4398 196.55 27.3109 196.875 33.9755C198.582 64.5082 182.327 129.963 174.199 157.055C171.815 164.965 167.914 172.768 164.121 180.327C161.818 184.932 159.515 189.511 157.673 193.954C156.996 195.552 156.129 198.749 155.235 201.946C152.986 209.911 152.065 212.891 150.466 215.004C148.516 217.605 144.669 219.393 141.174 219.393V219.42ZM180.674 30.5078C178.534 33.3524 175.743 37.7142 172.844 43.4848C155.397 77.8646 154.476 104.821 153.284 138.984C153.04 146.272 152.769 153.858 152.336 161.85C152.254 163.557 151.902 166.51 151.442 170.167C154.422 164.18 157.294 158.138 158.973 152.53C168.699 120.128 182.462 60.6883 181.053 35.9804C180.972 34.5174 180.891 32.4313 180.674 30.5349V30.5078Z" fill="#00c4b4"/>
<path d="M124.729 197.476C114.271 184.472 108.311 166.699 104.166 150.579C96.1197 119.315 88.6424 66.8109 110.993 40.1795C123.943 24.7099 124.404 33.5961 127.032 47.7652C130.933 68.7615 132.315 90.4622 135.376 111.621L124.756 197.476H124.729Z" fill="#00c4b4"/>
<path d="M118.525 202.461C106.333 187.289 100.075 166.7 96.4449 152.53C90.0782 127.822 78.1577 66.8925 104.87 35.0323C110.045 28.8553 116.195 22.4074 123.699 24.4123C131.258 26.4171 132.694 34.3279 134.319 43.5121L134.834 46.3026C137.245 59.2255 138.708 72.5006 140.144 85.3151C141.093 93.7407 142.014 102.166 143.233 110.484V112.597L132.64 198.451L118.525 202.461ZM118.227 43.9456C117.875 44.352 117.495 44.7854 117.089 45.2731C94.4942 72.2026 107.39 131.155 111.86 148.575C113.675 155.592 116.141 164.315 119.744 172.904L127.303 111.703C126.138 103.548 125.244 95.3121 124.322 87.0761C122.914 74.5325 121.478 61.5554 119.175 49.2014L118.66 46.3297C118.525 45.5711 118.389 44.7584 118.227 43.9456Z" fill="#00c4b4"/>
<path d="M245.261 110.294C240.845 142.886 197.065 186.937 173.224 208.638L157.483 221.073C163.687 207.039 168.699 192.437 174.091 178.078C176.502 171.657 177.369 164.938 180.43 158.193C187.068 143.455 214.864 102.844 227.57 93.9303C230.252 92.0609 245.261 85.2879 245.261 90.6793C245.261 96.6395 246.02 104.794 245.261 110.348" fill="#00c4b4"/>
<path d="M162.441 227.304L150.222 217.849C154.828 207.419 158.865 196.392 162.793 185.718L166.667 175.26C167.616 172.768 168.293 170.194 168.97 167.621C170.054 163.557 171.192 159.357 173.197 154.887C179.915 140.014 208.389 97.6419 223.019 87.374C223.181 87.2656 239.22 77.3499 247.998 81.8743C251.276 83.5811 253.253 86.8592 253.253 90.625C253.253 92.4673 253.335 94.4992 253.416 96.6395C253.606 101.706 253.795 106.934 253.199 111.35C248.458 146.407 204.434 191.028 178.642 214.517L162.495 227.304H162.441ZM237.486 97.9399C235.319 98.7526 233.097 99.7821 232.095 100.432C221.258 108.045 194.03 147.383 187.691 161.444C186.228 164.722 185.307 168.135 184.331 171.739C183.519 174.827 182.679 177.861 181.568 180.841L177.748 191.191C177.315 192.41 176.854 193.629 176.421 194.848C211.965 161.064 234.668 129.367 237.405 109.237C237.811 106.338 237.676 101.949 237.513 97.9399H237.486Z" fill="#00c4b4"/>
<path d="M233.476 202.732C233.097 207.933 228.979 208.692 226.92 211.239C212.236 229.553 193.353 244.995 169.35 249.33C164.825 250.143 157.754 252.31 155.478 247.244C152.878 241.473 163.064 237.924 166.207 235.025C168.537 232.912 171.355 228.767 174.226 226.383C190.888 212.62 210.909 199.968 233.449 202.732" fill="#00c4b4"/>
<path d="M161.52 258.405C156.589 258.405 151.062 256.888 148.218 250.495C143.449 239.875 154.341 233.21 158.459 230.717C159.407 230.148 160.301 229.661 160.897 229.146C161.709 228.415 162.576 227.331 163.498 226.22C165.286 224.08 167.236 221.858 169.187 220.26C185.605 206.687 207.82 191.569 234.479 194.82L241.441 203.3C240.9 210.534 236.267 213.947 234.045 215.573C214.701 239.251 193.705 253.014 170.785 257.132L169.214 257.43C167.345 257.809 164.554 258.378 161.547 258.378L161.52 258.405ZM216.164 211.672C202.104 215.031 189.452 224.161 179.319 232.533C178.073 233.589 176.854 235.106 175.662 236.488C174.334 238.059 173.061 239.549 171.869 240.66C187.636 236.84 202.483 227.087 216.164 211.672Z" fill="#00c4b4"/>
<path d="M25.1657 485.871C24.4884 493.294 29.6901 497.656 32.9682 503.426C15.7377 518.137 10.8882 495.353 25.1657 485.871Z" fill="#00c4b4"/>
<path d="M23.0254 516.214C20.9664 516.214 19.2054 515.78 17.7696 515.211C12.8388 513.234 9.5065 508.493 8.88339 502.532C7.98935 493.754 12.6221 484.624 20.7226 479.26L33.0495 486.602C32.8328 488.932 33.8351 490.585 36.5443 494.459C37.6822 496.084 38.8471 497.737 39.8495 499.525L38.0886 509.495C32.0471 514.642 26.9808 516.241 22.9983 516.241L23.0254 516.214Z" fill="#00c4b4"/>
<path d="M19.6389 516.972C28.8773 520.007 32.7786 517.46 40.0934 512.15C45.7827 519.6 51.4449 527.132 57.1071 534.663C60.7104 531.277 64.6929 528.297 68.9192 525.642C64.5845 518.977 60.2228 512.285 55.861 505.621C51.0928 498.306 44.8886 493.24 42.5316 483.568C40.8248 476.524 48.1669 447.183 50.4426 438.406C66.0205 377.638 95.7946 317.169 125.785 262.118C129.416 255.48 136.27 249.032 136.541 240.742C140.794 245.781 142.257 253.99 146.402 259.056C157.131 272.142 189.018 260.817 201.643 254.126C213.97 247.596 244.15 221.29 247.239 208.015C252.332 186.125 229.494 187.886 214.837 189.999C213.103 190.27 212.236 192.464 212.507 188.996C236.158 166.185 261.679 129.34 258.32 94.6349C257.182 82.7144 253.064 76.1311 240.303 75.9685C217.736 75.6705 200.749 105.932 187.636 120.183C193.84 92.7656 201.779 61.3388 199.394 33.0277C196.929 3.95792 177.667 -0.349714 162.197 23.2745C152.2 38.5273 145.021 61.7452 141.77 79.5446C138.627 79.7343 139.467 79.951 139.169 77.5669C137.814 67.2991 135.511 32.5671 128.088 27.0132C112.023 15.0656 93.9252 46.4382 90.4574 58.9818C81.0023 93.3074 93.6814 167.919 113.188 197.937C118.796 206.579 127.465 210.047 125.352 222.59C124.566 227.223 118.769 233.238 116.601 237.22C81.9777 300.805 46.0536 374.875 30.7737 446.289C28.5792 456.476 26.4932 467.638 26.3578 477.933C8.36866 479.612 -0.842659 510.281 19.6389 516.999V516.972ZM233.476 202.732C233.097 207.934 228.979 208.692 226.947 211.239C212.236 229.553 193.353 244.996 169.349 249.33C164.825 250.143 157.727 252.31 155.478 247.244C152.904 241.474 163.064 237.925 166.234 235.026C168.564 232.885 171.381 228.767 174.253 226.383C190.915 212.621 210.936 199.942 233.476 202.732ZM227.57 93.9034C230.252 92.0341 245.261 85.2611 245.261 90.6524C245.261 96.6126 246.02 104.767 245.261 110.321C240.845 142.94 197.064 186.964 173.223 208.665L157.483 221.073C163.714 207.04 168.726 192.437 174.09 178.078C176.502 171.658 177.369 164.966 180.43 158.193C187.068 143.455 214.864 102.844 227.57 93.9034ZM144.371 161.417C146.89 115.144 143.72 83.2833 165.719 39.8819C168.293 34.8428 177.016 18.6147 182.977 19.1024C188.666 20.186 188.747 30.5894 189.018 35.493C190.562 63.3165 174.984 126.793 166.613 154.779C163.01 166.754 155.18 179.243 150.331 190.947C148.651 195.011 145.59 208.313 144.127 210.264C143.639 210.914 140.605 212.404 139.765 210.643C137.57 206.769 143.964 169.409 144.371 161.417ZM124.729 197.476C114.271 184.445 108.311 166.7 104.166 150.58C96.1196 119.289 88.6423 66.7843 110.966 40.1529C123.943 24.6833 124.377 33.5695 127.004 47.7386C130.906 68.762 132.315 90.4356 135.349 111.622L124.729 197.476ZM25.1386 485.871C24.4613 493.294 29.6901 497.656 32.9411 503.426C15.7106 518.137 10.8611 495.353 25.1386 485.871Z" fill="#1D1D1B"/>
<path d="M83.9942 259.271C107.928 268.592 130.914 280.308 152.506 294.204C153.27 294.686 154.087 295.27 154.306 296.146C154.536 297.082 154.021 298.036 153.521 298.849C148.879 306.735 144.21 314.613 139.575 322.472C111.225 306.131 81.5773 292.027 50.9742 280.344C56.9063 270.626 62.8385 260.908 68.7706 251.189L82.8513 259.202" fill="#00c4b4"/>
<path d="M140.789 327.487L137.697 325.696C109.603 309.498 79.9866 295.44 49.6312 283.836L45.585 282.291L67.5714 246.286L84.6683 256.034L80.9889 262.508L69.9705 256.226L56.3789 278.479C84.5334 289.477 112.054 302.581 138.267 317.483L150.354 297.027C150.354 297.027 150.378 296.947 150.386 296.921C128.883 283.524 106.151 271.947 82.5852 262.766L85.3209 255.845C109.445 265.244 132.693 277.087 154.417 291.069C155.32 291.649 157.172 292.85 157.744 295.189C158.337 297.651 157.123 299.706 156.54 300.698L140.737 327.472L140.789 327.487Z" fill="#1C1B1A"/>
<path d="M63.4067 255.888C63.0844 255.336 62.5659 254.869 62.1107 254.477C61.6107 254.045 61.001 253.694 60.402 253.403C59.1594 252.779 57.5459 252.447 56.17 252.469C53.2605 252.469 50.4135 253.514 48.4998 255.748C47.178 257.329 46.5 259.242 46.2234 261.245C46.0788 262.316 46.2044 263.439 46.5263 264.476C46.6541 264.913 46.8839 265.295 47.1059 265.703C47.3464 266.145 47.5685 266.553 47.911 266.94C49.6867 268.948 51.9959 270.114 54.5573 270.812C55.8171 271.184 57.5515 271.01 58.7812 270.515C59.7545 270.117 60.9983 269.284 61.3421 268.215C61.6858 267.145 61.5864 266.031 60.8799 265.137C60.0392 264.118 58.9123 263.586 57.6447 263.241C57.461 263.187 57.3035 263.141 57.1198 263.087L58.4166 263.526C57.8917 263.371 57.3977 263.111 56.9115 262.825L58.0075 263.462C57.6185 263.234 57.245 262.952 56.9133 262.626L57.7557 263.445C57.424 263.119 57.1525 262.782 56.9227 262.4L57.4408 263.352C57.2003 262.91 57.0724 262.473 56.9864 261.991L57.1615 263.042C57.0849 262.334 57.1473 261.638 57.2699 260.932L57.0466 261.98C57.2342 261.15 57.519 260.377 57.9613 259.651L57.3706 260.59C57.6335 260.182 57.9411 259.816 58.2935 259.492L57.411 260.26C57.6722 260.051 57.9333 259.843 58.2393 259.676L57.1254 260.261C57.3633 260.131 57.5857 260.054 57.8344 259.985L56.5307 260.343C56.7454 260.292 56.9524 260.267 57.1593 260.243L55.6999 260.355C55.9331 260.338 56.1323 260.34 56.35 260.375L54.8893 260.202C55.141 260.219 55.4034 260.296 55.6396 260.366L54.3428 259.926C54.5528 259.988 54.721 260.095 54.9232 260.183L53.8273 259.546C53.9956 259.653 54.1561 259.786 54.3166 259.919L53.4741 259.099C53.6268 259.259 53.7533 259.41 53.8644 259.614C54.4612 260.59 56.0527 261.287 57.0995 261.51C58.3826 261.803 60.1045 261.768 61.3234 261.213C62.3462 260.743 63.5251 260.034 63.8843 258.912L64.1076 257.865C64.099 257.12 63.8757 256.426 63.4222 255.835L63.4067 255.888Z" fill="#1C1B1A"/>
<path d="M61.0307 258.144C55.5309 256.144 21.6272 283.389 14.0438 296.872C17.9534 297.827 22.367 296.454 25.1456 293.403C24.9009 296.552 24.8656 300.223 27.2125 302.251C33.8798 295.174 40.5293 288.064 47.1966 280.987" fill="#00c4b4"/>
<path d="M44.9085 262.622C29.7593 269.651 17.1539 281.154 8.7967 295.781C7.43376 298.151 10.6439 300.227 12.4224 300.596C18.6226 301.923 25.1974 300.134 29.7457 295.431L19.687 293.337C19.3624 297.877 19.916 301.749 23.2381 304.951C25.3822 307.008 29.8693 306.345 31.7892 304.279C38.465 297.196 45.1228 290.08 51.7986 282.997C53.6267 281.049 52.0134 278.541 50.0431 277.685C47.6815 276.63 44.4419 276.991 42.5719 278.985C35.8961 286.067 29.2383 293.184 22.5626 300.267L31.1138 299.595C30.0417 298.567 30.4244 295.051 30.5259 293.498C30.6753 291.411 28.3675 290.084 26.6748 289.711C24.5329 289.238 22.0618 289.763 20.4931 291.411C19.587 292.359 18.7308 292.86 17.639 293.207C17.0841 293.364 16.2418 293.351 15.577 293.217L19.2027 298.032C26.2968 285.631 37.2816 275.388 50.1355 269.424C52.2013 268.465 53.9036 266.28 52.2644 264.138C50.7311 262.113 47.136 261.595 44.9005 262.649L44.9085 262.622Z" fill="#1C1B1A"/>
<path d="M76.2832 282.035L70.7004 279.418C69.4154 278.818 68.8866 278.608 69.4511 277.39C69.844 276.554 70.1273 276.549 70.9413 276.467C71.6356 276.409 71.7233 276.117 72.2259 275.198C73.1334 273.59 74.8187 269.962 75.9555 267.499C76.3544 266.55 76.4521 266.319 76.0989 265.901C75.7357 265.422 75.3087 265.155 75.7834 264.142C76.3239 263.003 76.9164 263.001 78.2971 263.658C79.626 264.3 82.0005 265.589 83.8481 266.38C84.4986 266.654 84.8657 266.559 85.5081 266.859C86.2983 267.231 86.4121 267.695 86.0653 269.781C85.7363 271.153 85.6506 271.905 85.4133 272.412C85.0782 273.15 84.4279 273.25 83.6896 272.893C82.9952 272.578 82.9712 271.91 83.1285 270.171C83.228 268.906 83.0464 268.853 81.1709 267.967C79.5387 267.209 79.6086 267.258 78.5117 269.588C77.5942 271.51 77.3209 271.575 78.554 272.161C79.4918 272.604 79.6154 272.381 80.0163 271.518C80.3434 270.807 80.5708 270.614 81.1355 270.891C81.7261 271.177 81.6563 271.876 81.3174 273.188C80.7651 275.301 80.1329 276.931 79.0316 276.47C78.4509 276.245 78.383 275.909 78.4946 275.164C78.6262 274.541 78.5883 274.386 77.7463 273.999C76.565 273.428 76.6867 273.492 75.6058 275.77C74.3513 278.342 74.2096 278.158 76.4064 279.194C77.9348 279.922 78.1583 279.929 79.0539 278.921C80.1989 277.554 80.6517 277.081 81.39 277.437C82.2579 277.831 82.3817 278.356 81.9968 279.166C81.7674 279.646 81.2189 280.437 80.5048 281.497C79.2482 283.235 78.8951 283.564 78.061 283.151C77.3926 282.844 77.1591 282.402 76.3431 282.023L76.2832 282.035Z" fill="white" stroke="white" stroke-width="0.133331" stroke-miterlimit="10"/>
<path d="M85.2849 284.534C86.2221 280.489 86.8899 277.056 87.8949 273.347C88.1601 272.187 88.1102 271.884 87.8068 271.394C87.5294 270.911 87.3477 270.485 87.7247 269.702C88.3072 268.518 88.9816 268.712 91.3443 269.854C93.7928 270.991 94.3616 271.443 93.7791 272.627C93.4839 273.232 93.1088 273.354 92.3366 273.391C91.6582 273.396 91.5386 273.793 91.2773 274.754C90.6093 277.064 89.5623 280.819 89.0599 283.234C88.8307 284.463 88.7569 284.614 89.0522 284.757C89.4074 284.888 89.5031 284.57 90.1216 283.828C91.8012 281.435 93.8839 278.641 95.3262 276.381C95.8668 275.617 95.9964 275.28 95.5813 274.786C95.3478 274.345 95.0404 274.055 95.4015 273.325C95.8503 272.303 96.4169 272.294 98.7876 273.409C100.49 274.216 100.799 274.593 100.267 275.706C99.9634 276.337 99.5444 276.418 99.0077 276.608C98.2993 276.807 98.1417 277.049 97.5094 277.931C95.4766 281.028 93.2862 283.993 90.6549 287.204C89.5617 288.586 89.2843 288.478 87.3027 287.475C85.4708 286.63 84.8523 286.624 85.243 284.579L85.2849 284.534Z" fill="white" stroke="white" stroke-width="0.133331" stroke-miterlimit="10"/>
<path d="M101.463 293.969L95.8803 291.352C94.5953 290.752 94.0666 290.542 94.631 289.324C95.0159 288.514 95.3072 288.483 96.1471 288.409C96.8414 288.35 96.9292 288.059 97.4318 287.139C98.3393 285.531 100.025 281.903 101.135 279.433C101.534 278.484 101.632 278.253 101.279 277.835C100.916 277.356 100.489 277.089 100.963 276.076C101.512 274.91 102.096 274.935 103.477 275.592C104.814 276.208 107.18 277.523 109.002 278.307C109.652 278.581 110.045 278.493 110.662 278.785C111.452 279.157 111.566 279.621 111.219 281.708C110.89 283.08 110.805 283.832 110.567 284.339C110.232 285.076 109.582 285.177 108.843 284.82C108.149 284.505 108.133 283.81 108.282 282.098C108.382 280.832 108.2 280.78 106.325 279.894C104.693 279.136 104.763 279.185 103.666 281.515C102.748 283.437 102.475 283.502 103.708 284.087C104.646 284.53 104.769 284.307 105.17 283.445C105.497 282.733 105.725 282.54 106.289 282.818C106.88 283.103 106.81 283.802 106.445 285.107C105.919 287.227 105.261 288.85 104.16 288.389C103.579 288.164 103.511 287.828 103.623 287.083C103.728 286.452 103.716 286.305 102.874 285.918C101.693 285.347 101.815 285.411 100.734 287.689C99.4793 290.261 99.3376 290.077 101.534 291.113C103.037 291.833 103.286 291.848 104.19 290.814C105.335 289.447 105.788 288.973 106.526 289.33C107.394 289.724 107.544 290.256 107.133 291.058C106.903 291.539 106.355 292.33 105.641 293.39C104.384 295.127 104.031 295.457 103.197 295.044C102.503 294.729 102.295 294.295 101.479 293.916L101.463 293.969Z" fill="white" stroke="white" stroke-width="0.133331" stroke-miterlimit="10"/>
<path d="M114.508 299.218C114.573 298.345 114.725 297.092 115.112 292.625C115.351 288.086 115.788 287.29 115.397 287.091C115.101 286.948 114.957 287.425 114.58 288.209L111.816 294.007C111.298 295.068 111.356 295.344 111.828 296.027C112.264 296.642 112.298 296.997 111.994 297.63C111.527 298.618 110.785 298.549 108.881 297.654C106.977 296.76 106.214 296.482 106.803 295.183C107.115 294.524 107.48 294.342 108.269 294.253C108.879 294.198 109.194 294.087 109.786 292.875L113.255 285.581C113.886 284.237 113.812 284.014 113.38 283.573C112.921 283.037 112.817 282.633 113.186 281.875C113.719 280.762 114.137 280.594 116.876 281.902C118.85 282.845 119.458 283.078 119.142 284.686C118.895 286.256 118.697 287.38 118.374 290.887C118.139 294.851 117.822 295.623 118.143 295.774C118.413 295.909 118.533 295.512 118.992 294.55L121.551 289.153C122.076 288.066 122.08 287.865 121.662 287.284C121.237 286.73 121.057 286.39 121.434 285.606C121.936 284.598 122.833 284.713 124.545 285.495C126.241 286.329 126.827 286.728 126.278 287.895C125.942 288.633 125.551 288.808 124.951 288.923C124.11 288.998 124.12 289.058 122.708 291.963C119.944 297.761 119.668 298.863 118.75 300.787C118.274 301.802 117.655 301.796 116.212 301.15C114.752 300.469 114.484 300.047 114.498 299.158L114.508 299.218Z" fill="white" stroke="white" stroke-width="0.133331" stroke-miterlimit="10"/>
<path d="M123.761 303.338C124.13 302.581 124.539 302.44 125.337 302.411C126.152 302.329 126.435 302.325 126.96 301.238L131.001 292.792C131.312 292.133 131.336 292.054 130.372 291.603C129.459 291.168 129.445 291.307 128.751 292.114C127.378 293.675 126.863 294.074 125.969 293.672C125.3 293.364 124.873 292.723 125.266 291.887C125.503 291.38 126.02 290.694 126.794 289.622C128.355 287.626 128.858 287.455 129.796 287.898C130.587 288.27 130.649 288.719 131.613 289.17L136.599 291.528C137.564 291.979 137.927 291.709 138.691 292.074C139.578 292.502 139.839 293.038 139.269 295.492C139.021 296.687 138.766 297.534 138.503 298.034C138.086 298.949 137.401 299.068 136.732 298.761C135.768 298.31 135.774 297.448 136.083 295.581C136.229 294.443 136.348 294.42 135.28 293.939C134.438 293.552 134.302 293.628 133.967 294.366L130 302.662C129.491 303.695 129.557 303.944 129.957 304.491C130.46 305.067 130.759 305.384 130.342 306.3C129.744 307.537 129.155 307.339 126.366 306.017C123.751 304.774 123.184 304.409 123.701 303.349L123.761 303.338Z" fill="white" stroke="white" stroke-width="0.133331" stroke-miterlimit="10"/>
<path d="M144.1 210.263C143.612 210.913 140.605 212.403 139.765 210.642C137.571 206.768 143.937 169.408 144.371 161.416C146.863 115.17 143.721 83.2826 165.719 39.8812C168.266 34.842 177.017 18.6139 182.95 19.1287C188.666 20.2124 188.72 30.6157 188.991 35.5193C190.536 63.3428 174.985 126.819 166.586 154.805C163.01 166.78 155.153 179.242 150.331 190.973C148.651 195.037 145.59 208.339 144.127 210.29" fill="white"/>
<path d="M124.729 197.476C114.271 184.472 108.311 166.699 104.166 150.579C96.1197 119.315 88.6424 66.8109 110.993 40.1795C123.943 24.7099 124.404 33.5961 127.032 47.7652C130.933 68.7615 132.315 90.4622 135.376 111.621L124.756 197.476H124.729Z" fill="white"/>
<path d="M245.261 110.294C240.845 142.886 197.065 186.937 173.224 208.638L157.483 221.073C163.687 207.039 168.699 192.437 174.091 178.078C176.502 171.657 177.369 164.938 180.43 158.193C187.068 143.455 214.864 102.844 227.57 93.9303C230.252 92.0609 245.261 85.2879 245.261 90.6793C245.261 96.6395 246.02 104.794 245.261 110.348" fill="white"/>
<path d="M233.476 202.732C233.097 207.933 228.979 208.692 226.92 211.239C212.236 229.553 193.353 244.995 169.35 249.33C164.825 250.143 157.754 252.31 155.478 247.244C152.878 241.473 163.064 237.924 166.207 235.025C168.537 232.912 171.355 228.767 174.226 226.383C190.888 212.62 210.909 199.968 233.449 202.732" fill="white"/>
<path d="M25.1657 485.871C24.4884 493.294 29.6901 497.656 32.9682 503.426C15.7377 518.137 10.8882 495.353 25.1657 485.871Z" fill="white"/>
</svg>
