<svg width="75" height="85" viewBox="0 0 75 85" fill="none" xmlns="http://www.w3.org/2000/svg">
<path d="M49.5064 49.7416C50.3197 55.781 52.1995 61.7004 52.9461 67.7532C53.1727 69.593 54.8926 79.1254 51.1596 78.0854C46.2801 73.7126 44.8936 66.8732 41.2406 61.6204C38.0409 67.0999 35.6545 73.8725 32.4015 79.2187C30.855 81.7517 27.4687 86.4046 24.8289 82.6317C20.6294 76.6189 27.282 57.3542 30.4284 50.9949L4.72429 54.7011C-1.39509 54.1812 -1.40842 52.0081 3.75106 49.4483C11.1103 45.8087 19.9894 43.3156 27.602 40.0626C28.4552 38.8494 27.3887 38.9827 26.5488 38.5161C22.9358 36.543 19.8694 35.8231 17.163 32.2367C16.2298 30.9969 16.0165 28.8104 14.8699 28.1572C13.4434 27.3306 12.4035 28.6504 11.1103 27.9039C12.1235 24.5309 15.0166 28.2905 17.163 24.9442L19.1362 25.8907L18.003 26.784L31.8016 32.3834C32.0282 29.1037 31.175 25.9041 31.175 22.6111C31.135 13.7719 32.7215 6.79931 38.8009 0C40.0007 0.39996 38.6409 1.30653 38.2809 1.89314C37.3343 3.49298 35.4945 5.61277 34.8413 7.07929C33.3347 10.4789 34.1347 31.3835 36.6544 33.7433C37.1877 34.2365 37.8943 34.4632 38.5342 34.7432L41.8939 27.9039L36.841 11.1989L34.8546 11.7055L35.9211 9.35906C39.2141 8.11918 42.1205 23.1977 43.1471 25.4641C44.5469 23.0777 46.3201 20.278 47.1333 17.6382C47.5333 16.3717 46.0668 16.465 46.6534 15.4118C47.48 13.9319 52.9594 8.53247 54.5726 8.9191C59.5054 10.1056 56.9724 25.3041 54.8392 28.6771C55.4258 30.4236 62.2651 26.9173 63.5983 26.624L59.9987 26.7573C60.3853 25.7841 60.652 24.7575 61.7852 24.3575C62.6118 24.0642 71.2242 25.4108 72.1708 25.8641C74.2239 26.8506 75.4905 30.2503 74.5439 32.3567C72.5841 36.743 60.812 40.5559 56.3457 42.529C55.4525 43.8222 56.6524 43.5556 57.439 44.0622C59.8387 45.5821 69.2911 51.1282 70.051 53.0346C71.7309 57.2876 63.6117 56.1543 61.5586 55.2211L49.4931 49.7016L49.5064 49.7416ZM54.5593 12.1988C53.3461 11.2789 53.546 11.9455 52.9061 12.3454C49.4264 14.5719 50.1064 17.3582 48.6799 20.5046C46.76 24.7442 42.8538 28.6771 45.4535 32.93C54.9859 31.5035 54.4526 19.7847 54.5593 12.1988ZM50.3197 40.1559C51.1463 40.5292 51.9729 41.0759 52.9061 41.1825C54.2926 41.3425 69.7577 33.9699 71.1976 32.5967C73.0107 30.8636 71.1976 29.2504 69.3711 28.3571C66.4247 26.904 58.5855 31.7968 55.0392 31.8501L50.3197 40.1693V40.1559ZM49.2665 34.6898L46.1201 35.7564L46.7734 37.8228L49.2531 34.7032L49.2665 34.6898ZM43.1737 34.0232L42.5338 32.3167L42.0005 33.49L43.1737 34.0232ZM45.2402 43.5156C45.7335 39.596 43.3204 38.8761 40.1074 37.6229L38.7609 40.5692L45.2402 43.5156ZM19.2962 30.2236C20.856 32.3834 32.4548 40.2093 33.8547 37.2362C32.6948 33.1967 26.962 32.97 23.749 31.0769L19.2962 30.2103V30.2236ZM66.0914 52.3414C60.7453 49.9416 54.3726 41.2758 48.4932 45.7021C53.5994 47.9018 58.0389 51.2348 63.4917 52.5547C64.4249 52.7813 65.3182 53.3946 66.0914 52.3281V52.3414ZM34.6679 43.0623L31.5616 41.4758L6.72409 51.5148C10.7104 51.5681 14.8566 51.1015 18.7895 50.5016C21.1493 50.1416 29.4018 48.7951 31.0416 48.0085C32.8681 47.1286 34.1613 44.9688 34.6679 43.0623ZM40.9473 45.1154L39.0542 44.5955L39.5341 45.8754L40.9473 45.1154ZM50.893 73.1393C51.3063 72.9793 50.3597 66.3133 50.213 65.3401C49.6131 61.4605 48.7598 56.8476 47.8666 53.0346C47.68 52.2214 47.0933 47.7152 45.9735 48.1285L42.8404 57.3542L50.893 73.1526V73.1393ZM43.3471 47.6352L40.3607 48.1418L40.9206 52.2081L43.3604 47.6352H43.3471ZM37.681 50.2483C37.4677 49.755 37.081 49.3683 36.6677 49.0217C34.3746 48.3418 30.8283 57.5409 30.0284 59.6873C28.3619 64.1535 26.0955 74.3525 26.7087 78.9787C26.8154 79.7519 26.2021 79.9919 27.682 80.3386C29.1752 79.7786 38.4409 60.8872 39.1741 58.2341C39.5608 56.8343 38.2942 51.6614 37.6676 50.2616L37.681 50.2483Z" fill="#EA128B"/>
<path d="M37.6807 50.2484C38.3073 51.6615 39.5738 56.821 39.1872 58.2209C38.4539 60.8739 29.1882 79.7787 27.695 80.3253C26.2151 79.9787 26.8284 79.752 26.7218 78.9655C26.1085 74.3259 28.3749 64.1403 30.0414 59.6741C30.8413 57.5276 34.3877 48.3285 36.6808 49.0085C37.094 49.3551 37.4807 49.7417 37.694 50.235L37.6807 50.2484Z" fill="#EA128B"/>
<path d="M50.3193 40.1563L55.0389 31.8372C58.5852 31.7972 66.4244 26.891 69.3707 28.3442C71.1839 29.2374 73.0104 30.8506 71.1972 32.5838C69.7574 33.957 54.2923 41.3296 52.9057 41.1696C51.9858 41.0629 51.1593 40.5163 50.3193 40.143V40.1563Z" fill="#EA128B"/>
<path d="M54.5588 12.1993C54.4522 19.7852 54.9854 31.4907 45.4531 32.9305C42.8533 28.6776 46.7596 24.7447 48.6794 20.5051C50.1059 17.3721 49.426 14.5724 52.9056 12.3459C53.5456 11.9326 53.3456 11.2794 54.5588 12.1993Z" fill="#EA128B"/>
<path d="M34.6675 43.0621C34.1609 44.9819 32.8677 47.1417 31.0412 48.0083C29.4013 48.7948 21.1488 50.1414 18.7891 50.5013C14.8561 51.1013 10.7099 51.5679 6.72363 51.5146L31.5611 41.4756L34.6675 43.0621Z" fill="#EA128B"/>
<path d="M50.8924 73.1397L42.8398 57.3413L45.9729 48.1156C47.0928 47.7023 47.6794 52.2085 47.866 53.0218C48.7592 56.8347 49.6125 61.4476 50.2124 65.3272C50.3591 66.3004 51.3057 72.9664 50.8924 73.1264V73.1397Z" fill="#EA128B"/>
<path d="M66.0914 52.3415C65.3181 53.3948 64.4249 52.7948 63.4917 52.5682C58.0389 51.2483 53.5993 47.9153 48.4932 45.7155C54.3726 41.2893 60.7319 49.9418 66.0914 52.3549V52.3415Z" fill="#EA128B"/>
<path d="M19.2959 30.2236L23.7488 31.0902C26.9485 32.97 32.6945 33.1967 33.8544 37.2496C32.4679 40.2226 20.8557 32.3834 19.2959 30.237V30.2236Z" fill="#EA128B"/>
<path d="M45.2401 43.5158L38.7607 40.5694L40.1073 37.623C43.3203 38.8763 45.72 39.5962 45.2401 43.5158Z" fill="#EA128B"/>
<path d="M43.3464 47.6357L40.9066 52.2086L40.3467 48.1424L43.3464 47.6357Z" fill="#EA128B"/>
<path d="M49.2665 34.6904L46.7867 37.8101L46.1201 35.7437L49.2665 34.6904Z" fill="#EA128B"/>
<path d="M40.9469 45.1157L39.5337 45.8756L39.0537 44.5957L40.9469 45.1157Z" fill="#EA128B"/>
<path d="M43.1739 34.0239L41.9873 33.4906L42.5339 32.3174L43.1739 34.0239Z" fill="#EA128B"/>
<path d="M49.5064 49.7416C50.3197 55.781 52.1995 61.7004 52.9461 67.7532C53.1727 69.593 54.8926 79.1254 51.1596 78.0854C46.2801 73.7126 44.8936 66.8732 41.2406 61.6204C38.0409 67.0999 35.6545 73.8725 32.4015 79.2187C30.855 81.7517 27.4687 86.4046 24.8289 82.6317C20.6294 76.6189 27.282 57.3542 30.4284 50.9949L4.72429 54.7011C-1.39509 54.1812 -1.40842 52.0081 3.75106 49.4483C11.1103 45.8087 19.9894 43.3156 27.602 40.0626C28.4552 38.8494 27.3887 38.9827 26.5488 38.5161C22.9358 36.543 19.8694 35.8231 17.163 32.2367C16.2298 30.9969 16.0165 28.8104 14.8699 28.1572C13.4434 27.3306 12.4035 28.6504 11.1103 27.9039C12.1235 24.5309 15.0166 28.2905 17.163 24.9442L19.1362 25.8907L18.003 26.784L31.8016 32.3834C32.0282 29.1037 31.175 25.9041 31.175 22.6111C31.135 13.7719 32.7215 6.79931 38.8009 0C40.0007 0.39996 38.6409 1.30653 38.2809 1.89314C37.3343 3.49298 35.4945 5.61277 34.8413 7.07929C33.3347 10.4789 34.1347 31.3835 36.6544 33.7433C37.1877 34.2365 37.8943 34.4632 38.5342 34.7432L41.8939 27.9039L36.841 11.1989L34.8546 11.7055L35.9211 9.35906C39.2141 8.11918 42.1205 23.1977 43.1471 25.4641C44.5469 23.0777 46.3201 20.278 47.1333 17.6382C47.5333 16.3717 46.0668 16.465 46.6534 15.4118C47.48 13.9319 52.9594 8.53247 54.5726 8.9191C59.5054 10.1056 56.9724 25.3041 54.8392 28.6771C55.4258 30.4236 62.2651 26.9173 63.5983 26.624L59.9987 26.7573C60.3853 25.7841 60.652 24.7575 61.7852 24.3575C62.6118 24.0642 71.2242 25.4108 72.1708 25.8641C74.2239 26.8506 75.4905 30.2503 74.5439 32.3567C72.5841 36.743 60.812 40.5559 56.3457 42.529C55.4525 43.8222 56.6524 43.5556 57.439 44.0622C59.8387 45.5821 69.2911 51.1282 70.051 53.0346C71.7309 57.2876 63.6117 56.1543 61.5586 55.2211L49.4931 49.7016L49.5064 49.7416ZM54.5593 12.1988C53.3461 11.2789 53.546 11.9455 52.9061 12.3454C49.4264 14.5719 50.1064 17.3582 48.6799 20.5046C46.76 24.7442 42.8538 28.6771 45.4535 32.93C54.9859 31.5035 54.4526 19.7847 54.5593 12.1988ZM50.3197 40.1559C51.1463 40.5292 51.9729 41.0759 52.9061 41.1825C54.2926 41.3425 69.7577 33.9699 71.1976 32.5967C73.0107 30.8636 71.1976 29.2504 69.3711 28.3571C66.4247 26.904 58.5855 31.7968 55.0392 31.8501L50.3197 40.1693V40.1559ZM49.2665 34.6898L46.1201 35.7564L46.7734 37.8228L49.2531 34.7032L49.2665 34.6898ZM43.1737 34.0232L42.5338 32.3167L42.0005 33.49L43.1737 34.0232ZM45.2402 43.5156C45.7335 39.596 43.3204 38.8761 40.1074 37.6229L38.7609 40.5692L45.2402 43.5156ZM19.2962 30.2236C20.856 32.3834 32.4548 40.2093 33.8547 37.2362C32.6948 33.1967 26.962 32.97 23.749 31.0769L19.2962 30.2103V30.2236ZM66.0914 52.3414C60.7453 49.9416 54.3726 41.2758 48.4932 45.7021C53.5994 47.9018 58.0389 51.2348 63.4917 52.5547C64.4249 52.7813 65.3182 53.3946 66.0914 52.3281V52.3414ZM34.6679 43.0623L31.5616 41.4758L6.72409 51.5148C10.7104 51.5681 14.8566 51.1015 18.7895 50.5016C21.1493 50.1416 29.4018 48.7951 31.0416 48.0085C32.8681 47.1286 34.1613 44.9688 34.6679 43.0623ZM40.9473 45.1154L39.0542 44.5955L39.5341 45.8754L40.9473 45.1154ZM50.893 73.1393C51.3063 72.9793 50.3597 66.3133 50.213 65.3401C49.6131 61.4605 48.7598 56.8476 47.8666 53.0346C47.68 52.2214 47.0933 47.7152 45.9735 48.1285L42.8404 57.3542L50.893 73.1526V73.1393ZM43.3471 47.6352L40.3607 48.1418L40.9206 52.2081L43.3604 47.6352H43.3471ZM37.681 50.2483C37.4677 49.755 37.081 49.3683 36.6677 49.0217C34.3746 48.3418 30.8283 57.5409 30.0284 59.6873C28.3619 64.1535 26.0955 74.3525 26.7087 78.9787C26.8154 79.7519 26.2021 79.9919 27.682 80.3386C29.1752 79.7786 38.4409 60.8872 39.1741 58.2341C39.5608 56.8343 38.2942 51.6614 37.6676 50.2616L37.681 50.2483Z" fill="#EA128B"/>
<path d="M37.6807 50.2484C38.3073 51.6615 39.5738 56.821 39.1872 58.2209C38.4539 60.8739 29.1882 79.7787 27.695 80.3253C26.2151 79.9787 26.8284 79.752 26.7218 78.9655C26.1085 74.3259 28.3749 64.1403 30.0414 59.6741C30.8413 57.5276 34.3877 48.3285 36.6808 49.0085C37.094 49.3551 37.4807 49.7417 37.694 50.235L37.6807 50.2484Z" fill="white"/>
<path d="M50.3193 40.1563L55.0389 31.8372C58.5852 31.7972 66.4244 26.891 69.3707 28.3442C71.1839 29.2374 73.0104 30.8506 71.1972 32.5838C69.7574 33.957 54.2923 41.3296 52.9057 41.1696C51.9858 41.0629 51.1593 40.5163 50.3193 40.143V40.1563Z" fill="white"/>
<path d="M54.5588 12.1993C54.4522 19.7852 54.9854 31.4907 45.4531 32.9305C42.8533 28.6776 46.7596 24.7447 48.6794 20.5051C50.1059 17.3721 49.426 14.5724 52.9056 12.3459C53.5456 11.9326 53.3456 11.2794 54.5588 12.1993Z" fill="white"/>
<path d="M34.6675 43.0621C34.1609 44.9819 32.8677 47.1417 31.0412 48.0083C29.4013 48.7948 21.1488 50.1414 18.7891 50.5013C14.8561 51.1013 10.7099 51.5679 6.72363 51.5146L31.5611 41.4756L34.6675 43.0621Z" fill="white"/>
<path d="M50.8924 73.1397L42.8398 57.3413L45.9729 48.1156C47.0928 47.7023 47.6794 52.2085 47.866 53.0218C48.7592 56.8347 49.6125 61.4476 50.2124 65.3272C50.3591 66.3004 51.3057 72.9664 50.8924 73.1264V73.1397Z" fill="white"/>
<path d="M66.0914 52.3415C65.3181 53.3948 64.4249 52.7948 63.4917 52.5682C58.0389 51.2483 53.5993 47.9153 48.4932 45.7155C54.3726 41.2893 60.7319 49.9418 66.0914 52.3549V52.3415Z" fill="white"/>
<path d="M19.2959 30.2236L23.7488 31.0902C26.9485 32.97 32.6945 33.1967 33.8544 37.2496C32.4679 40.2226 20.8557 32.3834 19.2959 30.237V30.2236Z" fill="white"/>
<path d="M45.2401 43.5158L38.7607 40.5694L40.1073 37.623C43.3203 38.8763 45.72 39.5962 45.2401 43.5158Z" fill="white"/>
<path d="M43.3464 47.6357L40.9066 52.2086L40.3467 48.1424L43.3464 47.6357Z" fill="white"/>
<path d="M49.2665 34.6904L46.7867 37.8101L46.1201 35.7437L49.2665 34.6904Z" fill="white"/>
<path d="M40.9469 45.1157L39.5337 45.8756L39.0537 44.5957L40.9469 45.1157Z" fill="white"/>
<path d="M43.1739 34.0239L41.9873 33.4906L42.5339 32.3174L43.1739 34.0239Z" fill="white"/>
</svg>
