<svg width="87" height="84" viewBox="0 0 87 84" fill="none" xmlns="http://www.w3.org/2000/svg">
<path d="M63.3233 5.96871C70.9637 7.8488 66.9635 20.0361 65.1501 25.3164C69.977 23.0363 83.8844 21.3295 86.2712 27.4498C88.1246 32.1967 80.1642 35.8236 76.7107 37.3437C75.2439 37.9837 66.8302 40.1172 67.1502 41.1705C70.257 43.1173 83.2577 55.7313 81.8176 58.9181C80.6175 61.5716 71.3637 58.5581 69.1636 57.7447C63.15 55.5313 57.843 51.9178 52.0694 49.2376C52.4027 59.0381 53.3361 68.932 55.4429 78.5192C55.8829 80.5459 57.8563 80.6793 55.5762 83.5861C52.8428 84.7595 46.8424 65.1318 45.7491 63.0784C45.3624 62.3583 45.5224 61.5983 44.389 61.3983C41.1088 66.2918 38.522 71.7321 35.1352 76.5457C27.0147 88.0663 24.868 84.1461 27.5081 72.3322C29.4682 63.5317 33.7751 55.0513 36.9219 46.5975C28.0415 47.6242 18.7876 50.0777 9.90718 50.7444C8.28043 50.8644 0.320017 51.5311 0 49.6376C0.666701 47.2509 4.10688 46.0775 6.32033 45.0507C14.3607 41.3306 24.4679 39.1704 32.9617 36.6103L2.37346 14.7558L35.4552 24.9297L37.2419 17.876C38.6553 15.3825 39.4154 11.609 41.5088 9.70224C42.2022 9.0622 44.4957 7.88881 44.749 9.22221C39.9354 9.58223 37.8553 22.6096 39.2287 25.8231L45.8557 28.6099C46.5491 27.4365 46.8424 26.3831 46.9358 25.023C47.1091 22.2762 45.0557 6.78208 44.1623 4.08861C43.4689 1.99517 42.8956 1.3818 40.5888 1.32846L38.962 4.79531C38.7887 0.835106 42.2822 -2.03171 44.9757 1.82182C47.9092 6.00871 47.3225 16.3159 48.8025 21.3828C49.9093 21.9295 53.7095 14.3158 54.5228 13.1557C55.8429 11.289 63.4166 1.20846 65.4967 1.98183C67.3102 2.66187 63.1366 5.302 63.3233 5.95537V5.96871ZM49.5626 30.1433C51.1227 32.3167 58.6431 30.69 60.5098 29.2499C62.8433 26.6365 66.8168 10.3956 63.1366 8.70218C60.4032 7.43545 53.7628 18.2493 52.4294 20.6495C51.3894 22.5162 48.2959 28.3432 49.5759 30.13L49.5626 30.1433ZM80.5109 25.9297C78.0841 24.7164 63.2433 24.7964 64.1233 29.1032L80.5109 25.9297ZM84.0177 29.0232L81.9109 27.6232L64.0433 30.9033L60.3898 35.8903C62.8299 37.8637 64.0433 39.0238 67.3368 38.4237C70.1103 37.917 84.6578 32.1701 84.0177 29.0366V29.0232ZM58.2164 34.2502L59.2831 31.8901L55.5362 32.3301L58.2164 34.2502ZM46.0157 32.9434C46.1091 33.3301 48.0425 32.6234 47.9892 31.7167C47.8958 31.33 45.9624 32.0367 46.0157 32.9434ZM56.4563 36.3703C54.6962 35.2102 52.8294 32.8101 50.5226 33.9568L51.536 41.8639C54.6562 41.3706 55.5762 39.1971 56.4563 36.3703ZM44.7757 30.9567C43.709 30.8233 39.9487 27.7698 39.6821 29.6766L41.4155 34.3969L44.7757 30.9567ZM61.5765 39.3438L59.5098 37.677L57.5763 40.3572L61.5899 39.3571L61.5765 39.3438ZM37.1086 35.2636L35.8285 27.6898L21.0144 22.2229C20.4944 23.0096 21.6811 23.5163 22.2012 23.9696C26.9081 27.9432 32.415 31.2367 37.0953 35.2636H37.1086ZM79.8442 56.958C76.4307 53.3445 68.9769 42.9573 64.5634 41.4372C62.1899 40.6238 53.3095 43.0773 53.7361 47.1575C59.6298 50.011 65.2034 53.7045 71.4171 55.9313C72.1904 56.2113 80.1375 58.5181 79.8442 56.958ZM45.269 34.8902C44.509 35.4102 42.9356 39.1038 43.4556 39.9838C44.029 40.9439 47.4425 43.224 48.6559 41.9839L47.9758 34.8502C47.6958 34.5169 45.429 34.7835 45.269 34.8902ZM51.9227 44.8907L52.4561 43.7173L51.8827 43.4507L51.3493 44.6241L51.9227 44.8907ZM38.8687 40.4772C37.4553 39.9038 35.9485 37.9837 34.4818 37.9704C33.2684 37.957 24.4946 40.7972 22.5345 41.4239C16.2542 43.424 10.0805 46.1708 3.97354 48.6109C5.92031 49.291 8.52044 48.8376 10.5739 48.6509C19.3877 47.8376 28.0948 45.6908 36.8419 44.4507C38.6954 44.0374 38.9487 42.1573 38.8554 40.4905L38.8687 40.4772ZM46.4424 53.7712L49.4959 48.0109C48.0558 46.2775 45.0424 43.2773 43.2556 45.8908C43.3223 46.9175 45.2557 54.3179 46.4424 53.7579V53.7712ZM29.4015 80.1459L43.6689 57.9181L39.8287 46.4641C35.6552 55.9313 31.1083 66.3319 29.2549 76.5324C29.1082 77.3458 28.5748 79.6392 29.4015 80.1326V80.1459ZM51.0027 68.6786L49.6026 53.0912C44.3623 57.8781 49.1092 63.345 51.0027 68.6786Z" fill="#EA128B"/>
<path d="M49.5622 30.1439C48.2821 28.3571 51.389 22.5301 52.4157 20.6634C53.7624 18.2632 60.3894 7.44934 63.1229 8.71607C66.8031 10.4095 62.8296 26.637 60.4961 29.2638C58.6427 30.6905 51.109 32.3306 49.5489 30.1572L49.5622 30.1439Z" fill="#EA128B"/>
<path d="M79.8436 56.9586C80.1236 58.5187 72.1899 56.2119 71.4165 55.9319C65.2162 53.7051 59.6292 50.0116 53.7356 47.1581C53.3089 43.0913 62.1893 40.6245 64.5628 41.4378C68.9764 42.9579 76.4301 53.3451 79.8436 56.9586Z" fill="#EA128B"/>
<path d="M29.4015 80.146C28.5615 79.6526 29.0948 77.3591 29.2549 76.5458C31.1216 66.3452 35.6552 55.9447 39.8287 46.4775L43.6689 57.9315L29.4015 80.1593V80.146Z" fill="#EA128B"/>
<path d="M38.8681 40.4772C38.9615 42.144 38.7081 44.0241 36.8547 44.4374C28.1076 45.6775 19.4005 47.8243 10.5867 48.6376C8.53323 48.8243 5.9331 49.2777 3.98633 48.5976C10.1066 46.1575 16.267 43.4107 22.5473 41.4106C24.4941 40.7839 33.2812 37.9437 34.4946 37.9571C35.9613 37.9704 37.4547 39.9038 38.8815 40.4639L38.8681 40.4772Z" fill="#EA128B"/>
<path d="M84.0175 29.0238C84.6576 32.1706 70.1102 37.9042 67.3367 38.4109C64.0432 39.0109 62.8298 37.8509 60.3896 35.8774L64.0432 30.8905L81.9108 27.6104L84.0175 29.0104V29.0238Z" fill="#EA128B"/>
<path d="M37.1081 35.2633C32.4145 31.2365 26.9209 27.943 22.214 23.9694C21.6807 23.5294 20.4939 23.0094 21.0273 22.2227L35.8414 27.6896L37.1215 35.2633H37.1081Z" fill="#EA128B"/>
<path d="M56.4561 36.3705C55.5761 39.1839 54.656 41.3574 51.5358 41.8641L50.5225 33.957C52.8292 32.8103 54.696 35.1971 56.4561 36.3705Z" fill="#EA128B"/>
<path d="M46.4417 53.7711C45.2683 54.3311 43.3216 46.9307 43.2549 45.904C45.0416 43.2905 48.0685 46.2907 49.4952 48.0241L46.4417 53.7844V53.7711Z" fill="#EA128B"/>
<path d="M45.2683 34.8906C45.4283 34.784 47.6951 34.5306 47.9751 34.8506L48.6552 41.9843C47.4418 43.2244 44.0149 40.9443 43.4549 39.9842C42.9349 39.1042 44.5083 35.4107 45.2683 34.8906Z" fill="#EA128B"/>
<path d="M80.5101 25.9297L64.1226 29.1032C63.2425 24.7963 78.0833 24.7163 80.5101 25.9297Z" fill="#EA128B"/>
<path d="M51.0027 68.6783C49.1093 63.3447 44.3623 57.8777 49.6026 53.0908L51.0027 68.6783Z" fill="#EA128B"/>
<path d="M44.7752 30.9566L41.4151 34.3968L39.6816 29.6765C39.9483 27.7698 43.7085 30.8233 44.7752 30.9566Z" fill="#EA128B"/>
<path d="M61.576 39.3435L57.5625 40.3569L59.4959 37.6768L61.576 39.3435Z" fill="#EA128B"/>
<path d="M58.2156 34.2507L55.5488 32.3173L59.2824 31.8906L58.2156 34.2507Z" fill="#EA128B"/>
<path d="M46.0157 32.9437C45.9624 32.0236 47.8958 31.3169 47.9892 31.7169C48.0425 32.637 46.1091 33.3437 46.0157 32.9437Z" fill="#EA128B"/>
<path d="M51.8728 43.4438L51.335 44.6201L51.917 44.8862L52.4548 43.71L51.8728 43.4438Z" fill="#EA128B"/>
<path d="M49.5622 30.1439C48.2821 28.3571 51.389 22.5301 52.4157 20.6634C53.7624 18.2632 60.3894 7.44934 63.1229 8.71607C66.8031 10.4095 62.8296 26.637 60.4961 29.2638C58.6427 30.6905 51.109 32.3306 49.5489 30.1572L49.5622 30.1439Z" fill="white"/>
<path d="M79.8436 56.9586C80.1236 58.5187 72.1899 56.2119 71.4165 55.9319C65.2162 53.7051 59.6292 50.0116 53.7356 47.1581C53.3089 43.0913 62.1893 40.6245 64.5628 41.4378C68.9764 42.9579 76.4301 53.3451 79.8436 56.9586Z" fill="white"/>
<path d="M29.4015 80.146C28.5615 79.6526 29.0948 77.3591 29.2549 76.5458C31.1216 66.3452 35.6552 55.9447 39.8287 46.4775L43.6689 57.9315L29.4015 80.1593V80.146Z" fill="white"/>
<path d="M38.8681 40.4772C38.9615 42.144 38.7081 44.0241 36.8547 44.4374C28.1076 45.6775 19.4005 47.8243 10.5867 48.6376C8.53323 48.8243 5.9331 49.2777 3.98633 48.5976C10.1066 46.1575 16.267 43.4107 22.5473 41.4106C24.4941 40.7839 33.2812 37.9437 34.4946 37.9571C35.9613 37.9704 37.4547 39.9038 38.8815 40.4639L38.8681 40.4772Z" fill="white"/>
<path d="M84.0175 29.0238C84.6576 32.1706 70.1102 37.9042 67.3367 38.4109C64.0432 39.0109 62.8298 37.8509 60.3896 35.8774L64.0432 30.8905L81.9108 27.6104L84.0175 29.0104V29.0238Z" fill="white"/>
<path d="M37.1081 35.2633C32.4145 31.2365 26.9209 27.943 22.214 23.9694C21.6807 23.5294 20.4939 23.0094 21.0273 22.2227L35.8414 27.6896L37.1215 35.2633H37.1081Z" fill="white"/>
<path d="M56.4561 36.3705C55.5761 39.1839 54.656 41.3574 51.5358 41.8641L50.5225 33.957C52.8292 32.8103 54.696 35.1971 56.4561 36.3705Z" fill="white"/>
<path d="M46.4417 53.7711C45.2683 54.3311 43.3216 46.9307 43.2549 45.904C45.0416 43.2905 48.0685 46.2907 49.4952 48.0241L46.4417 53.7844V53.7711Z" fill="white"/>
<path d="M45.2683 34.8906C45.4283 34.784 47.6951 34.5306 47.9751 34.8506L48.6552 41.9843C47.4418 43.2244 44.0149 40.9443 43.4549 39.9842C42.9349 39.1042 44.5083 35.4107 45.2683 34.8906Z" fill="white"/>
<path d="M80.5101 25.9297L64.1226 29.1032C63.2425 24.7963 78.0833 24.7163 80.5101 25.9297Z" fill="white"/>
<path d="M51.0027 68.6783C49.1093 63.3447 44.3623 57.8777 49.6026 53.0908L51.0027 68.6783Z" fill="white"/>
<path d="M44.7752 30.9566L41.4151 34.3968L39.6816 29.6765C39.9483 27.7698 43.7085 30.8233 44.7752 30.9566Z" fill="white"/>
<path d="M61.576 39.3435L57.5625 40.3569L59.4959 37.6768L61.576 39.3435Z" fill="white"/>
<path d="M58.2156 34.2507L55.5488 32.3173L59.2824 31.8906L58.2156 34.2507Z" fill="white"/>
<path d="M46.0157 32.9437C45.9624 32.0236 47.8958 31.3169 47.9892 31.7169C48.0425 32.637 46.1091 33.3437 46.0157 32.9437Z" fill="white"/>
<path d="M52.4522 43.7183L51.8701 43.4521L51.3323 44.6284L51.9144 44.8946L52.4522 43.7183Z" fill="white"/>
</svg>
