<svg width="75" height="83" viewBox="0 0 75 83" fill="none" xmlns="http://www.w3.org/2000/svg">
<path d="M48.8071 23.2403C52.4375 23.3863 57.0155 25.0321 60.4857 25.0587C62.6212 25.0587 64.036 23.4394 65.9579 24.6737L64.3029 26.7443C74.7803 33.0886 56.0145 34.8538 52.2106 37.5482C57.2958 40.4814 71.1499 46.1488 74.2464 50.5288C77.8367 55.5989 67.5462 53.4222 65.4508 52.7055C61.8204 51.4711 56.3882 49.3608 52.8646 47.8079C49.4611 46.3081 46.6983 44.3305 43.3883 42.7643C41.2528 43.189 54.266 63.2041 46.9386 64.9826C43.2949 65.487 38.2097 60.1912 35.7939 57.7358C34.9931 58.2003 30.1481 72.5745 29.0003 74.9769C22.14 89.3644 18.1225 82.2104 18.6164 70.6633C18.9768 62.2219 22.5137 54.4442 25.2498 46.5735C24.4623 45.9232 24.1687 46.3612 23.5014 46.4806C21.0055 46.9186 17.4419 48.6175 14.7324 49.175C12.023 49.7324 3.33415 51.0331 1.31877 49.8917C-1.19046 48.4715 0.304399 45.9364 2.29309 44.6755C9.23349 40.2823 19.2303 38.8622 25.7303 35.4644C26.451 35.0795 27.2118 35.2387 27.412 34.0973C27.3052 33.5398 18.4696 29.8899 17.1082 29.4121C13.2509 28.0583 5.80333 27.3548 3.04052 25.9081C1.39885 25.0454 -0.122703 22.6829 0.664766 20.8645C1.13191 19.7894 7.28484 19.2585 7.95219 20.6389L4.78897 21.3291C6.45733 23.0279 9.28688 22.152 11.676 22.7625C16.5209 23.9836 21.179 26.4921 26.0239 27.7928C24.6225 22.6961 24.8094 17.0818 23.2745 12.0382C21.9665 7.73792 18.0024 4.14105 21.0055 0L20.4182 3.13233C22.8474 5.04359 24.2621 9.7819 25.8638 11.6002C26.9849 12.8877 28.9603 13.2726 30.7087 15.5953C31.6563 16.8429 35.607 25.563 36.3678 25.3905C40.7456 19.8956 45.417 13.2593 52.1172 10.6579C52.9447 10.5384 53.9324 11.9719 53.7455 12.3833L48.7671 23.227L48.8071 23.2403ZM40.8257 31.31L46.6182 18.7144C45.8174 18.1967 45.3503 19.3647 44.8698 19.8956C43.1213 21.7936 38.9571 27.1955 38.0896 29.3722C37.5957 30.6199 38.4232 30.673 39.0906 31.4959L40.8257 31.3233V31.31ZM63.7957 29.3457C60.4323 27.7132 55.8543 29.3855 52.2506 30.5004C51.1562 30.8455 45.7106 32.2789 45.4304 32.4913C44.7897 32.9691 44.6696 33.9646 44.2825 34.6547C45.5104 35.1989 47.2322 35.8493 48.5669 35.6635C49.9016 35.4776 61.0062 31.6817 62.5812 30.9782C63.4621 30.5801 63.4754 30.1952 63.7957 29.359V29.3457ZM55.881 26.4656L48.2733 25.0985L46.725 29.3855L51.4632 28.3635L55.881 26.4656ZM33.4181 30.4075C36.1009 29.3855 30.2683 19.378 29.2539 17.6127C28.8802 16.9756 27.759 14.5733 27.065 14.7857C28.1861 16.896 28.72 27.4345 29.4541 28.4697C30.0814 29.3457 32.3904 29.7306 33.4048 30.4075H33.4181ZM67.0791 48.5644C61.3666 45.5914 55.2404 40.7601 49.0474 38.902C47.7394 38.5038 46.6583 38.4242 45.6039 39.4992C51.0628 42.6714 56.7886 45.4984 62.6879 47.6752C63.5955 48.007 66.385 49.2811 67.0657 48.5644H67.0791ZM37.1953 39.2338L34.3925 37.5482L32.3237 40.5478C32.604 41.4636 36.6481 39.8443 37.1953 39.2338ZM5.01586 47.2637C5.36288 48.0335 10.8218 46.9053 11.9029 46.7195C14.7591 46.2152 23.6348 44.4366 25.7703 43.2819C28.1461 41.9945 28.0393 40.4681 28.4664 38.0791C27.8658 36.9774 6.72427 45.4055 5.02921 47.2504L5.01586 47.2637ZM36.7549 43.2819L32.9777 44.0385L34.0454 48.4184L36.7549 43.2819ZM46.0977 61.691C46.725 61.5185 45.5638 57.0191 45.3236 56.3952C44.5495 54.2318 42.4273 49.1219 41.3862 47.1575C40.9992 46.4408 41.1593 45.6843 40.0115 45.4852C40.1316 48.2061 36.608 52.5462 37.3688 54.7229C37.876 56.2094 44.7363 62.0759 46.0844 61.691H46.0977ZM23.6482 74.8707C28.2262 68.4733 29.9346 60.523 32.7374 53.2762L29.6276 46.4143C26.8247 55.5325 21.6061 65.2215 23.6482 74.8707Z" fill="#EA128B"/>
<path d="M23.6479 74.8705C21.6058 65.2213 26.8245 55.5191 29.6273 46.4141L32.7372 53.276C29.9477 60.5228 28.2392 68.4731 23.6479 74.8705Z" fill="#EA128B"/>
<path d="M5.0153 47.2646C6.71036 45.4197 27.8519 36.9783 28.4525 38.0932C28.0254 40.4823 28.1322 42.0086 25.7564 43.2961C23.6209 44.4508 14.7452 46.2293 11.889 46.7337C10.8212 46.9195 5.34897 48.0344 5.00195 47.2778L5.0153 47.2646Z" fill="#EA128B"/>
<path d="M46.0976 61.6912C44.763 62.0761 37.9026 56.1963 37.3821 54.7231C36.6213 52.5331 40.1449 48.2062 40.0248 45.4854C41.1593 45.6844 41.0125 46.441 41.3995 47.1577C42.4406 49.122 44.5628 54.232 45.3369 56.3954C45.5638 57.0325 46.7383 61.5186 46.111 61.6912H46.0976Z" fill="#EA128B"/>
<path d="M63.7964 29.3459C63.4761 30.1821 63.4627 30.567 62.5818 30.9651C61.0203 31.6686 49.8889 35.4646 48.5676 35.6504C47.2462 35.8362 45.5111 35.1858 44.2832 34.6416C44.6703 33.9515 44.7904 32.956 45.431 32.4782C45.7113 32.2659 51.1702 30.8324 52.2513 30.4873C55.8416 29.3724 60.433 27.7001 63.7964 29.3326V29.3459Z" fill="#EA128B"/>
<path d="M33.4179 30.4075C32.3902 29.7306 30.0945 29.3457 29.4672 28.4697C28.7198 27.4345 28.1993 16.8828 27.0781 14.7857C27.7722 14.5733 28.8933 16.9757 29.267 17.6128C30.2814 19.3913 36.1006 29.3856 33.4313 30.4075H33.4179Z" fill="#EA128B"/>
<path d="M67.079 48.564C66.3984 49.294 63.6088 48.0198 62.7013 47.6747C56.8019 45.498 51.0761 42.6577 45.6172 39.4988C46.6716 38.4237 47.7527 38.5166 49.0607 38.9016C55.2537 40.7597 61.3666 45.5777 67.0924 48.564H67.079Z" fill="#EA128B"/>
<path d="M40.8256 31.3096L39.0905 31.4821C38.4232 30.6592 37.5957 30.6061 38.0895 29.3585C38.957 27.1818 43.1079 21.7799 44.8697 19.8819C45.3636 19.351 45.8307 18.183 46.6182 18.7006L40.8256 31.2963V31.3096Z" fill="#EA128B"/>
<path d="M55.8813 26.4653L51.4501 28.3633L46.7119 29.372L48.2602 25.085L55.8813 26.4653Z" fill="#EA128B"/>
<path d="M36.7547 43.2822L34.0453 48.4187L32.9775 44.0255L36.7547 43.2822Z" fill="#EA128B"/>
<path d="M37.1958 39.2344C36.6486 39.845 32.6045 41.4642 32.3242 40.5484L34.393 37.5488L37.1958 39.2344Z" fill="#EA128B"/>
<path d="M48.8071 23.2403C52.4375 23.3863 57.0155 25.0321 60.4857 25.0587C62.6212 25.0587 64.036 23.4394 65.9579 24.6737L64.3029 26.7443C74.7803 33.0886 56.0145 34.8538 52.2106 37.5482C57.2958 40.4814 71.1499 46.1488 74.2464 50.5288C77.8367 55.5989 67.5462 53.4222 65.4508 52.7055C61.8204 51.4711 56.3882 49.3608 52.8646 47.8079C49.4611 46.3081 46.6983 44.3305 43.3883 42.7643C41.2528 43.189 54.266 63.2041 46.9386 64.9826C43.2949 65.487 38.2097 60.1912 35.7939 57.7358C34.9931 58.2003 30.1481 72.5745 29.0003 74.9769C22.14 89.3644 18.1225 82.2104 18.6164 70.6633C18.9768 62.2219 22.5137 54.4442 25.2498 46.5735C24.4623 45.9232 24.1687 46.3612 23.5014 46.4806C21.0055 46.9186 17.4419 48.6175 14.7324 49.175C12.023 49.7324 3.33415 51.0331 1.31877 49.8917C-1.19046 48.4715 0.304399 45.9364 2.29309 44.6755C9.23349 40.2823 19.2303 38.8622 25.7303 35.4644C26.451 35.0795 27.2118 35.2387 27.412 34.0973C27.3052 33.5398 18.4696 29.8899 17.1082 29.4121C13.2509 28.0583 5.80333 27.3548 3.04052 25.9081C1.39885 25.0454 -0.122703 22.6829 0.664766 20.8645C1.13191 19.7894 7.28484 19.2585 7.95219 20.6389L4.78897 21.3291C6.45733 23.0279 9.28688 22.152 11.676 22.7625C16.5209 23.9836 21.179 26.4921 26.0239 27.7928C24.6225 22.6961 24.8094 17.0818 23.2745 12.0382C21.9665 7.73792 18.0024 4.14105 21.0055 0L20.4182 3.13233C22.8474 5.04359 24.2621 9.7819 25.8638 11.6002C26.9849 12.8877 28.9603 13.2726 30.7087 15.5953C31.6563 16.8429 35.607 25.563 36.3678 25.3905C40.7456 19.8956 45.417 13.2593 52.1172 10.6579C52.9447 10.5384 53.9324 11.9719 53.7455 12.3833L48.7671 23.227L48.8071 23.2403ZM40.8257 31.31L46.6182 18.7144C45.8174 18.1967 45.3503 19.3647 44.8698 19.8956C43.1213 21.7936 38.9571 27.1955 38.0896 29.3722C37.5957 30.6199 38.4232 30.673 39.0906 31.4959L40.8257 31.3233V31.31ZM63.7957 29.3457C60.4323 27.7132 55.8543 29.3855 52.2506 30.5004C51.1562 30.8455 45.7106 32.2789 45.4304 32.4913C44.7897 32.9691 44.6696 33.9646 44.2825 34.6547C45.5104 35.1989 47.2322 35.8493 48.5669 35.6635C49.9016 35.4776 61.0062 31.6817 62.5812 30.9782C63.4621 30.5801 63.4754 30.1952 63.7957 29.359V29.3457ZM55.881 26.4656L48.2733 25.0985L46.725 29.3855L51.4632 28.3635L55.881 26.4656ZM33.4181 30.4075C36.1009 29.3855 30.2683 19.378 29.2539 17.6127C28.8802 16.9756 27.759 14.5733 27.065 14.7857C28.1861 16.896 28.72 27.4345 29.4541 28.4697C30.0814 29.3457 32.3904 29.7306 33.4048 30.4075H33.4181ZM67.0791 48.5644C61.3666 45.5914 55.2404 40.7601 49.0474 38.902C47.7394 38.5038 46.6583 38.4242 45.6039 39.4992C51.0628 42.6714 56.7886 45.4984 62.6879 47.6752C63.5955 48.007 66.385 49.2811 67.0657 48.5644H67.0791ZM37.1953 39.2338L34.3925 37.5482L32.3237 40.5478C32.604 41.4636 36.6481 39.8443 37.1953 39.2338ZM5.01586 47.2637C5.36288 48.0335 10.8218 46.9053 11.9029 46.7195C14.7591 46.2152 23.6348 44.4366 25.7703 43.2819C28.1461 41.9945 28.0393 40.4681 28.4664 38.0791C27.8658 36.9774 6.72427 45.4055 5.02921 47.2504L5.01586 47.2637ZM36.7549 43.2819L32.9777 44.0385L34.0454 48.4184L36.7549 43.2819ZM46.0977 61.691C46.725 61.5185 45.5638 57.0191 45.3236 56.3952C44.5495 54.2318 42.4273 49.1219 41.3862 47.1575C40.9992 46.4408 41.1593 45.6843 40.0115 45.4852C40.1316 48.2061 36.608 52.5462 37.3688 54.7229C37.876 56.2094 44.7363 62.0759 46.0844 61.691H46.0977ZM23.6482 74.8707C28.2262 68.4733 29.9346 60.523 32.7374 53.2762L29.6276 46.4143C26.8247 55.5325 21.6061 65.2215 23.6482 74.8707Z" fill="#EA128B"/>
<path d="M23.6479 74.8705C21.6058 65.2213 26.8245 55.5191 29.6273 46.4141L32.7372 53.276C29.9477 60.5228 28.2392 68.4731 23.6479 74.8705Z" fill="white"/>
<path d="M5.0153 47.2646C6.71036 45.4197 27.8519 36.9783 28.4525 38.0932C28.0254 40.4823 28.1322 42.0086 25.7564 43.2961C23.6209 44.4508 14.7452 46.2293 11.889 46.7337C10.8212 46.9195 5.34897 48.0344 5.00195 47.2778L5.0153 47.2646Z" fill="white"/>
<path d="M46.0976 61.6912C44.763 62.0761 37.9026 56.1963 37.3821 54.7231C36.6213 52.5331 40.1449 48.2062 40.0248 45.4854C41.1593 45.6844 41.0125 46.441 41.3995 47.1577C42.4406 49.122 44.5628 54.232 45.3369 56.3954C45.5638 57.0325 46.7383 61.5186 46.111 61.6912H46.0976Z" fill="white"/>
<path d="M63.7964 29.3459C63.4761 30.1821 63.4627 30.567 62.5818 30.9651C61.0203 31.6686 49.8889 35.4646 48.5676 35.6504C47.2462 35.8362 45.5111 35.1858 44.2832 34.6416C44.6703 33.9515 44.7904 32.956 45.431 32.4782C45.7113 32.2659 51.1702 30.8324 52.2513 30.4873C55.8416 29.3724 60.433 27.7001 63.7964 29.3326V29.3459Z" fill="white"/>
<path d="M33.4179 30.4075C32.3902 29.7306 30.0945 29.3457 29.4672 28.4697C28.7198 27.4345 28.1993 16.8828 27.0781 14.7857C27.7722 14.5733 28.8933 16.9757 29.267 17.6128C30.2814 19.3913 36.1006 29.3856 33.4313 30.4075H33.4179Z" fill="white"/>
<path d="M67.079 48.564C66.3984 49.294 63.6088 48.0198 62.7013 47.6747C56.8019 45.498 51.0761 42.6577 45.6172 39.4988C46.6716 38.4237 47.7527 38.5166 49.0607 38.9016C55.2537 40.7597 61.3666 45.5777 67.0924 48.564H67.079Z" fill="white"/>
<path d="M40.8256 31.3096L39.0905 31.4821C38.4232 30.6592 37.5957 30.6061 38.0895 29.3585C38.957 27.1818 43.1079 21.7799 44.8697 19.8819C45.3636 19.351 45.8307 18.183 46.6182 18.7006L40.8256 31.2963V31.3096Z" fill="white"/>
<path d="M55.8813 26.4653L51.4501 28.3633L46.7119 29.372L48.2602 25.085L55.8813 26.4653Z" fill="white"/>
<path d="M36.7547 43.2822L34.0453 48.4187L32.9775 44.0255L36.7547 43.2822Z" fill="white"/>
<path d="M37.1958 39.2344C36.6486 39.845 32.6045 41.4642 32.3242 40.5484L34.393 37.5488L37.1958 39.2344Z" fill="white"/>
</svg>
