<?xml version="1.0" encoding="UTF-8"?><svg id="Layer_1" xmlns="http://www.w3.org/2000/svg" viewBox="0 0 140.22 158.54"><path d="M69.12,157.04c-.79,0-1.29-.52-1.69-.95-.29-.31-.69-.73-1.02-.78-.14-.02-.28-.04-.41-.04-.7,0-1.34.31-1.91.58-.53.25-1.03.49-1.6.49-.05,0-.15,0-.19,0-2.28-.22-5-1.27-7.63-2.28-1.81-.7-3.52-1.36-4.96-1.7-.08-.02-.15-.03-.23-.03-.22,0-.44.09-.78.23-.4.16-.89.37-1.48.37-1.22,0-1.64-1.1-1.77-1.46,0-.01,0-.03-.01-.04-.12.02-.25.04-.38.07-.31.06-.65.12-1.03.12-.29,0-.56-.04-.82-.12-2.8-.88-13.53-7.63-15.81-9.25-16.36-11.55-22.51-30.31-24.79-44.02-1.9-11.43-1-17.46.37-26.6.26-1.75.54-3.62.82-5.67.26-1.89.42-3.52.56-4.96.49-5.06.81-8.4,4.57-14.95.25-.43.83-1.01,2.99-3.09,1.21-1.16,2.86-2.75,3.24-3.26.81-1.08,2.34-3.49,3.96-6.04,3.01-4.74,5.06-7.92,6.12-8.95.27-.26.66-.49,2.63-1.52.47-.24,1.08-.57,1.35-.72.27-.33.57-.9.89-1.49.65-1.22,1.45-2.73,2.83-3.84,2.98-2.39,8.98-5.73,13.88-8.37,1.16-.62,1.55-.92,1.67-1.03.15-.35.37-.71.91-1.1.65-.47,6.64-2.43,6.7-2.44,6.41-1.77,13.7-2.71,21.08-2.71,10.01,0,19.33,1.67,26.96,4.82.67.28,11.76,5.98,12.62,6.84l.81.81c1.39,1.37,3.3,3.26,4.3,4.48,3.68,4.5,5.45,9.24,7.16,13.83.55,1.49,1.12,3.02,1.75,4.52.3.71.7,1.39,1.12,2.11.53.89,1.07,1.81,1.43,2.83.33.95.46,2.21.59,3.43.09.85.22,2.14.4,2.48.1.16.28.23.57.33.29.1.72.24,1.03.69.46.65.26,1.27.09,1.82-.11.36-.35,1.11-.31,1.46.27,2.64.64,5.48,1.03,8.5,1.55,12,3.31,25.59.56,35.94-3.52,13.23-7.95,23.8-19.12,35.61-.78.83-2.16,1.65-3.5,2.45-.7.42-1.76,1.05-1.99,1.29-.88.99-1.35,1.65-1.8,2.28-.8,1.13-1.5,2.1-3.97,4.17l-1.48,1.25c-4.19,3.54-6.96,5.88-12.9,7.88-6.73,2.26-11.68,3.84-18.94,5.05-.14.02-.29.04-.45.04-.43,0-.83-.09-1.21-.18-.34-.08-.66-.16-.97-.16h-.03c-.06.05-.12.11-.17.17-.36.34-.85.8-1.57.82-.02,0-.04,0-.06,0ZM79.48,16.93c-3.27,0-5.83.11-6.57.21-21.28,2.88-36.32,20.35-49.41,38.81-1.96,2.76-2.77,5.08-3.63,7.53-.54,1.54-1.1,3.13-1.95,4.89-.5,1.02-1.26,1.85-1.93,2.58-.49.54-1,1.1-1.17,1.51-3.52,8.68,4.3,34.07,8.71,42.17.44.81,1.38,1.85,2.2,2.76.59.66,1.15,1.27,1.57,1.85.4.54.98,1.43,1.66,2.45,1.06,1.62,3.03,4.62,3.72,5.15.49.38,1.36.86,2.28,1.38,1.19.67,2.54,1.42,3.74,2.3,4.26,3.09,12.75,5.72,18.72,7.03,3.88.85,7.66,1.28,11.24,1.28h0c8.31,0,15.84-2.33,22.39-6.91,8.47-5.93,14.52-11.17,19.63-16.97,14.12-16.05,13.88-33.64,11.53-50.25-1.3-9.16-3.05-15.58-6.48-23.69-.63-1.49-1.13-2.84-1.62-4.15-1.59-4.28-2.74-7.37-6.69-10.94-4.46-4.03-10.66-7.17-15.44-7.82-.25-.03-.43-.05-.56-.05-.09,0-.11,0-.18.02-.11.02-.29.07-.53.07-.55,0-1.05-.21-1.99-.65-.52-.22-3.41-.54-9.26-.54Z" style="fill:#ea128b;"/><path d="M77.17,3c9.28,0,18.64,1.51,26.39,4.71,1.33.55,11.64,6.02,12.14,6.52,1.21,1.21,3.84,3.74,5.01,5.17,4.7,5.75,6.13,11.89,8.68,17.97.73,1.73,1.94,3.21,2.52,4.86.59,1.68.46,5.12,1.11,6.19.55.9,1.55.95,1.66,1.11.08.11-.6,1.57-.49,2.57,1.36,13.02,5,31.25,1.63,43.89-3.78,14.19-8.44,24.05-18.76,34.96-1.19,1.26-4.75,2.92-5.51,3.78-2.55,2.86-1.93,3.22-5.61,6.3-5.11,4.28-7.59,6.74-13.9,8.86-6.88,2.31-11.61,3.81-18.71,4.99-.06.01-.13.02-.2.02-.58,0-1.3-.34-2.18-.34-.14,0-.29,0-.43.03-.49.07-1.06.95-1.4.96,0,0,0,0,0,0-.39,0-1.15-1.48-2.45-1.71-.23-.04-.46-.06-.67-.06-1.67,0-2.89,1.06-3.51,1.06-.02,0-.03,0-.05,0-3.56-.35-8.71-3.06-12.38-3.95-.21-.05-.4-.07-.58-.07-.97,0-1.61.6-2.27.6h0c-.4,0-.32-1.17-1.1-1.44-.16-.06-.33-.08-.51-.08-.53,0-1.09.2-1.58.2-.13,0-.26-.01-.37-.05-2.44-.76-12.85-7.24-15.4-9.04-14.16-9.99-21.38-26.21-24.18-43.04-2.22-13.35-.56-19.05,1.2-31.81,1.15-8.39.27-11.24,4.94-19.36.36-.63,5.25-5.02,6.13-6.19,2.07-2.75,8.21-13.14,9.93-14.81.28-.28,3.73-1.98,3.91-2.16,1.11-1.12,1.77-3.78,3.69-5.32,3.1-2.49,9.76-6.12,13.65-8.22,3.16-1.71,1.84-1.58,2.75-2.23.27-.19,5.45-2,6.22-2.22,6.3-1.74,13.46-2.65,20.68-2.65M68.67,140.33c8.32,0,16.17-2.22,23.25-7.19,7.19-5.03,13.95-10.45,19.89-17.21,13.45-15.29,14.67-31.85,11.89-51.45-1.36-9.6-3.19-16.04-6.58-24.07-2.69-6.38-3.21-10.66-8.68-15.62-4.46-4.03-10.92-7.48-16.24-8.2-.34-.05-.58-.06-.77-.06-.43,0-.53.09-.72.09-.2,0-.48-.1-1.35-.51-1.08-.51-5.73-.68-9.89-.68-3.05,0-5.84.09-6.77.22-22.51,3.05-38.02,21.93-50.43,39.43-3.34,4.71-3.53,8.17-5.71,12.63-.8,1.64-2.6,2.86-3.14,4.18-3.73,9.19,4.16,34.97,8.78,43.45.85,1.56,2.89,3.44,3.89,4.79,1.2,1.61,4.37,6.9,5.66,7.9,1.24.95,3.95,2.17,6.05,3.7,4.43,3.22,13.04,5.92,19.28,7.28,3.93.86,7.8,1.32,11.56,1.32M77.17,0h0c-7.51,0-14.94.95-21.48,2.76-.06.02-6.22,1.99-7.17,2.67-.63.46-1,.92-1.22,1.33-.2.13-.56.35-1.2.7-5.26,2.84-11.05,6.07-14.11,8.52-1.62,1.3-2.54,3.04-3.22,4.31-.18.34-.41.77-.58,1.05-.29.16-.7.37-1.03.54-2.1,1.1-2.55,1.35-2.98,1.77-1.18,1.15-3.18,4.25-6.34,9.22-1.53,2.41-3.11,4.9-3.89,5.94-.34.44-2.06,2.09-3.08,3.07-2.36,2.26-2.9,2.81-3.25,3.43-3.93,6.82-4.28,10.48-4.77,15.55-.14,1.42-.29,3.04-.55,4.9-.28,2.04-.55,3.88-.82,5.65-1.39,9.27-2.3,15.4-.36,27.06,3.34,20.06,12.12,35.62,25.41,45,2.15,1.52,13.16,8.49,16.23,9.45.4.12.83.19,1.27.19.21,0,.4-.01.59-.03.83,1.15,1.93,1.35,2.6,1.35.91,0,1.6-.29,2.07-.49.07-.03.16-.06.22-.09,1.32.33,2.93.95,4.63,1.61,2.72,1.05,5.54,2.13,8.02,2.37.1,0,.24.02.34.02.91,0,1.62-.34,2.24-.63.44-.21.9-.43,1.26-.43.11.1.25.25.35.35.47.49,1.34,1.41,2.78,1.41.03,0,.07,0,.1,0,1.01-.03,1.73-.51,2.2-.91.05.01.11.02.16.04.42.1.95.22,1.55.22.24,0,.47-.02.69-.06,7.37-1.23,12.38-2.82,19.17-5.11,6.21-2.09,9.06-4.5,13.39-8.16.47-.4.96-.81,1.48-1.25,2.62-2.19,3.4-3.29,4.23-4.45.42-.58.85-1.19,1.64-2.09.28-.22,1.13-.73,1.69-1.07,1.42-.85,2.89-1.73,3.82-2.71,11.39-12.04,15.9-22.8,19.48-36.25,2.83-10.63,1.05-24.38-.52-36.52-.39-2.98-.75-5.79-1.02-8.39.02-.23.18-.71.24-.93.19-.61.59-1.88-.29-3.13-.49-.69-1.12-1-1.53-1.16-.08-.46-.14-1.13-.19-1.62-.13-1.31-.27-2.66-.66-3.78-.41-1.16-1.02-2.19-1.55-3.1-.4-.67-.78-1.31-1.03-1.92-.61-1.47-1.18-2.99-1.73-4.46-1.75-4.7-3.56-9.56-7.4-14.26-1.05-1.28-2.99-3.2-4.4-4.59-.31-.3-.58-.57-.81-.8-1.21-1.21-13.01-7.13-13.11-7.17-7.81-3.23-17.33-4.93-27.53-4.93h0ZM33.63,125.66c-.65-.6-2.51-3.44-3.41-4.81-.68-1.04-1.28-1.94-1.7-2.52-.47-.63-1.05-1.28-1.67-1.96-.73-.81-1.65-1.82-2-2.48-4.76-8.73-11.77-33.17-8.64-40.88.1-.19.57-.71.89-1.06.7-.77,1.57-1.72,2.17-2.94.9-1.84,1.47-3.47,2.02-5.05.86-2.45,1.6-4.56,3.44-7.16,12.89-18.18,27.68-35.38,48.38-38.19.59-.08,2.96-.19,6.37-.19,5.2,0,8.02.26,8.71.45,1,.47,1.68.75,2.53.75.34,0,.61-.05.78-.08.06,0,.15.01.3.03,4.5.61,10.38,3.6,14.63,7.45,3.68,3.33,4.77,6.27,6.29,10.35.49,1.32,1,2.69,1.64,4.21,3.37,7.98,5.1,14.3,6.37,23.32,3.9,27.51-3.07,39.83-11.17,49.05-5.02,5.71-10.99,10.87-19.36,16.73-6.29,4.41-13.54,6.64-21.53,6.64-3.47,0-7.14-.42-10.92-1.25-6.3-1.38-14.35-4.01-18.16-6.78-1.27-.92-2.66-1.7-3.89-2.39-.82-.46-1.66-.93-2.07-1.24h0ZM91.58,19.52h0,0Z" style="fill:#ea128b;"/><path d="M68.67,141.83c-3.79,0-7.79-.46-11.88-1.35-6.56-1.44-15.22-4.17-19.84-7.54-1.06-.77-2.32-1.48-3.44-2.11-1.06-.6-1.98-1.11-2.64-1.62-1-.78-2.45-2.93-4.39-5.88-.62-.95-1.21-1.84-1.56-2.31-.34-.46-.85-1.02-1.39-1.62-.98-1.09-2-2.22-2.61-3.34-4.6-8.43-12.91-34.73-8.86-44.73.37-.91,1.06-1.67,1.74-2.4.56-.61,1.13-1.24,1.44-1.87.78-1.6,1.31-3.11,1.82-4.57.89-2.54,1.81-5.16,4.01-8.27,13.48-19,29.04-37.01,51.45-40.04,1.02-.14,3.88-.23,6.97-.23,5.82,0,9.36.28,10.53.83.41.19.63.29.76.34.17-.03.38-.06.67-.06.23,0,.54.02.97.08,5.41.73,12.1,4.1,17.05,8.57,4.49,4.07,5.88,7.8,7.49,12.12.47,1.28.96,2.6,1.57,4.03,3.54,8.37,5.35,15,6.68,24.44,2.45,17.32,2.67,35.69-12.25,52.65-5.27,5.99-11.49,11.37-20.16,17.45-7.06,4.95-15.18,7.46-24.11,7.46ZM28.16,114.98c.81.6,3.03,2.04,3.82,2.42,3.17-.37,6.42-5.21,8.59-8.44.51-.76.99-1.47,1.43-2.08,2.73-3.77,5.72-7.34,8.6-10.79,2.23-2.66,4.53-5.41,6.66-8.2.21-.28.81-1.54,1.21-2.38,1.15-2.43,1.46-3.08,2.28-3.34.31-.09.58-.13.85-.13,1.94,0,3.01,1.82,3.73,3.03l.59.98c4.15,6.88,11.86,19.7,18.06,24.21,1.19.87,2.56,1.76,3.69,1.76h0c.49,0,1.27-.14,2.39-1.32.86-.91.92-1.25.92-1.27-.01,0-.12-.17-.2-.3-.26-.42-.67-1.07-.75-1.98-.09-.98.46-1.71.82-2.19.07-.1.17-.23.24-.33-.46-1.04-2.93-3.84-3.9-4.94-.51-.57-.94-1.07-1.21-1.4-4.09-5.01-8.05-11.18-12.48-19.42l-4.63-6.27c-.44-.6-.38-1.44.15-1.96,1.49-1.47,2.71-3.16,4-4.96.91-1.27,1.85-2.58,2.91-3.81,3.68-4.31,7.95-8.57,12.08-12.69,2.54-2.54,5.18-5.17,7.59-7.73.32-.34.74-.73,1.19-1.15.63-.58,1.93-1.8,2.09-2.27.15-.57.87-4.94.99-6.29-.46-.41-1.89-.89-4.24-.89-2.11,0-4.02.37-4.74.72-.64.31-1.45,1.41-2.11,2.29-.57.77-1.1,1.49-1.7,2.03-.68.62-1.67,1.04-2.54,1.42-.37.16-.93.4-1.08.52-.06.1-.22.72-.33,1.14-.2.77-.43,1.65-.91,2.37-1.66,2.48-4.32,5.16-7.14,8.01-2.43,2.46-4.95,5-6.68,7.31-.01,1.52-1.08,1.98-2.36,2.18-.47,2.41-1.74,2.95-2.8,2.95-1.54,0-3.15-1.24-5.53-4.29-1.08-1.38-2.05-2.74-3-4.06-1.04-1.46-2.12-2.97-3.34-4.49-.48-.61-.5-1.3-.5-1.76,0-.2,0-.45-.05-.5-1.23-1.43-5.98-4.29-8.97-4.29-.74,0-1.09.18-1.27.34.04.12.09.27.13.39.18.52.4,1.18.31,1.89-.1.77-.42,1.37-.67,1.85-.09.18-.24.45-.26.54-.2,2.5,5.6,8.64,8.07,11.27.66.7,1.23,1.31,1.66,1.79.08.09.15.19.2.29l5.45,10.25c.18.34.22.74.12,1.11-.67,2.38-1.9,3.55-3.15,4.07.04,1.47-1.17,2.31-1.84,2.78-.41.29-.8.56-1.07.91-4.15,5.48-9.32,12.3-14.54,18.54-.55.66-1.33.99-1.96,1.26-.23.1-.56.24-.69.33-.48.74-3.29,5.53-3.65,6.2-.13.25-.29,1.1-.38,1.61-.11.58-.21,1.12-.35,1.58-.16.5-.49.81-.82,1.01.27,1.33.8,3.67,1.03,4.56Z" style="fill:#ea128b;"/><path d="M79.48,15.43c4.16,0,8.81.18,9.89.68.87.41,1.16.51,1.35.51.18,0,.29-.09.72-.09.18,0,.43.02.77.06,5.32.72,11.78,4.16,16.24,8.2,5.48,4.95,5.99,9.24,8.68,15.62,3.39,8.02,5.22,14.47,6.58,24.07,2.77,19.6,1.55,36.16-11.89,51.45-5.94,6.76-12.71,12.18-19.89,17.21-7.09,4.96-14.93,7.19-23.25,7.19-3.77,0-7.63-.45-11.56-1.32-6.24-1.37-14.85-4.06-19.28-7.28-2.1-1.53-4.82-2.75-6.05-3.7-1.29-1-4.47-6.29-5.66-7.9-.99-1.34-3.04-3.22-3.89-4.79-4.62-8.47-12.51-34.26-8.78-43.45.54-1.33,2.34-2.54,3.14-4.18,2.18-4.46,2.37-7.92,5.71-12.63,12.41-17.5,27.92-36.38,50.43-39.43.93-.13,3.72-.22,6.77-.22M63.24,60.32c-1.32,0-3.22-2.27-4.35-3.71-2.24-2.86-4.01-5.64-6.35-8.57-.39-.48.11-1.5-.59-2.31-1.49-1.73-6.66-4.81-10.11-4.81-1.15,0-2.11.34-2.67,1.19-.48.72.46,1.88.35,2.74-.13.97-.88,1.7-.94,2.45-.3,3.8,7.53,11.3,10.11,14.19l5.45,10.25c-.53,1.88-1.55,3.31-3.63,3.36,1.34,2.22-.95,2.27-2.19,3.9-4.49,5.93-9.46,12.47-14.49,18.48-.63.75-2.15.93-2.67,1.61-.24.31-3.42,5.73-3.8,6.43-.41.76-.56,2.54-.84,3.44-.11.36-1.04.3-1.05.67-.01.32,1.23,5.94,1.39,6.22.14.25,4.4,3.08,4.92,3.08,0,0,0,0,0,0,4.85-.27,8.84-7.59,11.43-11.15,4.81-6.64,10.33-12.54,15.24-18.95.64-.84,2.38-5.08,2.75-5.2.14-.04.27-.06.4-.06,1.19,0,2.01,1.59,2.61,2.58,4.07,6.75,12.22,20.49,18.88,25.35,1.62,1.18,3.1,2.04,4.57,2.04,1.14,0,2.28-.51,3.49-1.79,2.66-2.81.54-2.95.38-4.71-.07-.81,1.05-1.45,1.1-2.34.08-1.32-4.29-5.87-5.49-7.34-4.79-5.87-8.86-12.74-12.37-19.28l-4.69-6.35c2.7-2.66,4.55-6,6.99-8.86,5.92-6.92,13.3-13.66,19.63-20.37,1.04-1.1,3.26-2.82,3.62-4.01.19-.61,1.21-6.85,1.06-7.18-.65-1.43-3.19-1.94-5.74-1.94-2.18,0-4.36.37-5.4.87-1.59.77-2.91,3.42-4.16,4.56-.93.84-3.14,1.41-3.65,1.97-.7.76-.73,2.69-1.44,3.75-3.03,4.51-10.01,10.24-13.77,15.25-.86,1.15.81,1.41-2.5,1.73-.13,2.06-.7,2.81-1.46,2.81M79.48,12.43h0c-2.66,0-5.91.08-7.17.25-22.98,3.11-38.8,21.38-52.47,40.66-2.33,3.28-3.28,6.01-4.21,8.64-.52,1.48-1.01,2.88-1.75,4.4-.21.44-.72.99-1.2,1.52-.73.79-1.55,1.7-2.02,2.85-2.39,5.9-.71,16.21,1.13,23.82,2.03,8.44,5.17,17.36,7.81,22.19.69,1.27,1.82,2.52,2.81,3.62.52.57,1,1.11,1.3,1.51.33.44.9,1.32,1.51,2.24,2.15,3.27,3.54,5.32,4.73,6.25.75.58,1.71,1.12,2.83,1.74,1.08.61,2.31,1.3,3.29,2.01,4.81,3.5,13.7,6.32,20.41,7.79,4.2.92,8.3,1.39,12.2,1.39,9.25,0,17.65-2.6,24.97-7.73,8.78-6.15,15.08-11.6,20.43-17.69,15.32-17.42,15.11-36.18,12.61-53.85-1.36-9.58-3.2-16.31-6.79-24.81-.59-1.4-1.08-2.7-1.54-3.97-1.68-4.51-3.12-8.4-7.89-12.71-5.15-4.66-12.16-8.17-17.85-8.95-.44-.06-.82-.09-1.17-.09-.17,0-.32,0-.46.02-.09-.04-.2-.09-.34-.15-.62-.29-2.06-.97-11.16-.97h0ZM84.71,38.9c.15-.06.3-.13.43-.19.98-.42,2.09-.9,2.95-1.69.71-.64,1.31-1.46,1.9-2.25.45-.61,1.21-1.63,1.57-1.84.4-.19,2.02-.57,4.07-.57,1.24,0,2.09.14,2.62.28-.21,1.56-.62,4.02-.79,4.85-.3.42-1.2,1.26-1.7,1.72-.46.42-.89.83-1.25,1.21-2.4,2.55-5.02,5.17-7.56,7.7-4.15,4.14-8.44,8.43-12.16,12.78-1.09,1.28-2.06,2.62-2.99,3.91-1.25,1.74-2.43,3.38-3.83,4.77-1.06,1.05-1.19,2.72-.31,3.92l4.56,6.18c4.45,8.28,8.45,14.5,12.59,19.56.3.37.74.87,1.25,1.45.72.82,2.39,2.71,3.22,3.88-.41.63-.86,1.54-.75,2.72.08.91.38,1.61.66,2.13-.07.08-.14.16-.23.26-.37.39-.89.85-1.3.85-.79,0-2.3-1.1-2.8-1.47-5.95-4.34-13.86-17.47-17.66-23.77l-.42-.7-.16-.27c-.78-1.32-2.22-3.77-5.02-3.77-.41,0-.82.06-1.22.17-.02,0-.05.01-.07.02-1.44.46-1.92,1.46-3.19,4.13-.32.68-.86,1.82-1.07,2.14-2.11,2.75-4.39,5.48-6.6,8.11-2.9,3.47-5.9,7.05-8.67,10.87-.46.63-.95,1.36-1.46,2.12-1.78,2.65-4.67,6.95-7.12,7.69-.75-.43-1.96-1.22-2.72-1.74-.2-.82-.48-2.08-.7-3.11.27-.32.47-.68.6-1.1.17-.54.29-1.16.4-1.76.07-.38.18-.99.26-1.24.4-.73,2.58-4.44,3.35-5.7.08-.03.15-.07.22-.09.74-.31,1.74-.74,2.52-1.68,5.24-6.27,10.42-13.1,14.58-18.59.12-.16.43-.38.73-.59,1.41-.99,2.1-2.02,2.36-3.03,1.29-.77,2.52-2.17,3.22-4.65.21-.74.12-1.54-.24-2.22l-5.45-10.25c-.11-.21-.25-.41-.41-.59-.45-.51-1.03-1.12-1.69-1.82-4.84-5.14-7.42-8.48-7.65-9.96.02-.04.04-.08.07-.12.28-.53.7-1.32.83-2.35.06-.46.04-.89-.02-1.27,2.27.33,5.62,2.24,6.91,3.41.01.61.08,1.61.83,2.54,1.19,1.49,2.21,2.91,3.29,4.43.95,1.34,1.94,2.72,3.04,4.12,1.98,2.53,4.16,4.86,6.71,4.86,1,0,3.1-.36,4.02-3.21,1.24-.38,2.4-1.16,2.61-2.88,1.66-2.14,4.01-4.51,6.28-6.8,2.87-2.9,5.58-5.63,7.32-8.23.63-.94.9-1.99,1.12-2.83.04-.14.08-.31.12-.47h0Z" style="fill:#ea128b;"/><path d="M31.78,120.42c-1.13,0-5.83-3.14-6.23-3.84-.32-.57-1.6-6.5-1.58-7.02.03-.74.45-1.28,1.25-1.6.04-.21.08-.44.13-.67.17-.9.34-1.83.69-2.49.17-.32,3.55-6.15,3.93-6.64.5-.64,1.23-.95,1.87-1.23.27-.12.73-.31.84-.43,5.17-6.18,10.31-12.96,14.44-18.42.55-.73,1.21-1.19,1.74-1.56.17-.12.38-.27.51-.38-.03-.07-.07-.16-.15-.28-.28-.46-.29-1.03-.03-1.5.26-.47.74-.77,1.27-.78.75-.02,1.5-.26,2.05-1.72l-5.07-9.53c-.4-.44-.91-.98-1.49-1.6-4.84-5.13-9.16-10.03-8.88-13.58.05-.67.34-1.21.59-1.69.17-.31.32-.61.35-.84,0-.05-.11-.34-.17-.53-.25-.73-.62-1.83.07-2.85.57-.84,1.71-1.85,3.92-1.85,4.13,0,9.63,3.45,11.25,5.33.76.88.77,1.84.78,2.42,0,.04,0,.09,0,.13,1.2,1.51,2.26,2.99,3.28,4.42.97,1.36,1.88,2.64,2.92,3.96,1.63,2.09,2.52,2.79,2.93,3.02.07-.23.16-.63.2-1.29.05-.73.62-1.33,1.35-1.4.42-.04.72-.08.94-.11.08-.3.23-.65.51-1.03,1.86-2.48,4.45-5.09,6.95-7.62,2.71-2.74,5.28-5.33,6.78-7.57.2-.3.36-.91.5-1.45.23-.89.47-1.81,1.09-2.48.46-.49,1.15-.79,2.03-1.18.59-.26,1.41-.61,1.72-.89.38-.34.83-.95,1.31-1.59.89-1.21,1.91-2.57,3.21-3.2,1.29-.62,3.66-1.02,6.05-1.02,2.66,0,6.05.49,7.11,2.82.5,1.11-.98,8.18-1,8.24-.38,1.23-1.67,2.43-2.92,3.59-.39.37-.76.71-1.04,1.01-2.45,2.6-5.1,5.24-7.66,7.8-4.09,4.08-8.32,8.3-11.92,12.52-.97,1.13-1.83,2.34-2.75,3.61-1.06,1.48-2.15,3-3.43,4.4l3.94,5.34c.04.06.08.12.11.18,4.35,8.11,8.23,14.16,12.21,19.04.26.32.66.77,1.14,1.31,3.38,3.82,4.77,5.65,4.69,7.07-.05.88-.53,1.52-.88,1.98-.06.08-.15.19-.2.28.04.14.13.29.27.51.94,1.51,1.09,2.91-1.09,5.21-1.44,1.52-2.93,2.26-4.58,2.26-1.98,0-3.79-1.12-5.45-2.33-6.69-4.88-14.6-18.03-18.86-25.09l-.6-1c-.18-.31-.54-.92-.85-1.28-.23.46-.5,1.03-.71,1.48-.71,1.49-1.16,2.43-1.54,2.92-2.17,2.84-4.5,5.62-6.74,8.3-2.85,3.41-5.8,6.93-8.47,10.62-.42.58-.88,1.26-1.37,1.99-2.7,4.01-6.39,9.51-11.19,9.78-.03,0-.06,0-.09,0Z" style="fill:#ea128b;"/><path d="M95.63,29.37c2.56,0,5.1.51,5.74,1.94.15.33-.87,6.57-1.06,7.18-.36,1.18-2.58,2.9-3.62,4.01-6.32,6.71-13.7,13.45-19.63,20.37-2.45,2.86-4.3,6.2-6.99,8.86l4.69,6.35c3.51,6.54,7.58,13.41,12.37,19.28,1.21,1.48,5.57,6.02,5.49,7.34-.05.89-1.18,1.53-1.1,2.34.16,1.76,2.28,1.89-.38,4.71-1.21,1.28-2.35,1.79-3.49,1.79-1.47,0-2.95-.86-4.57-2.04-6.66-4.86-14.81-18.6-18.88-25.35-.6-.99-1.42-2.58-2.61-2.58-.13,0-.26.02-.4.06-.37.12-2.11,4.36-2.75,5.2-4.91,6.41-10.43,12.31-15.24,18.95-2.58,3.56-6.57,10.88-11.43,11.15,0,0,0,0,0,0-.52,0-4.78-2.83-4.92-3.08-.16-.28-1.4-5.9-1.39-6.22.02-.37.94-.31,1.05-.67.29-.9.43-2.69.84-3.44.38-.7,3.56-6.13,3.8-6.43.52-.68,2.04-.85,2.67-1.61,5.03-6.01,10-12.55,14.49-18.48,1.24-1.64,3.53-1.68,2.19-3.9,2.08-.06,3.1-1.48,3.63-3.36l-5.45-10.25c-2.57-2.89-10.41-10.39-10.11-14.19.06-.76.81-1.49.94-2.45.11-.86-.83-2.02-.35-2.74.57-.84,1.53-1.19,2.67-1.19,3.45,0,8.62,3.08,10.11,4.81.7.81.2,1.83.59,2.31,2.34,2.93,4.1,5.7,6.35,8.57,1.13,1.45,3.03,3.71,4.35,3.71.76,0,1.33-.74,1.46-2.81,3.32-.32,1.64-.58,2.5-1.73,3.76-5.01,10.74-10.74,13.77-15.25.71-1.06.74-2.99,1.44-3.75.52-.56,2.73-1.13,3.65-1.97,1.25-1.14,2.57-3.79,4.16-4.56,1.04-.5,3.22-.87,5.4-.87M95.63,26.37c-2.07,0-4.92.31-6.7,1.17-1.63.79-2.76,2.31-3.76,3.66-.39.53-.84,1.13-1.11,1.38-.19.14-.89.44-1.31.63-.96.42-1.87.81-2.54,1.54-.87.95-1.19,2.15-1.44,3.12-.09.34-.22.86-.31,1.02-1.41,2.09-4.04,4.75-6.58,7.32-2.54,2.56-5.16,5.22-7.08,7.78-.14.18-.25.36-.35.54-.01,0-.03,0-.04,0-.94.09-1.75.61-2.23,1.36-.27-.31-.58-.68-.93-1.13-1.02-1.3-1.92-2.56-2.88-3.91-.95-1.32-1.92-2.68-3.01-4.09-.03-.75-.2-1.91-1.13-2.99-2.01-2.33-7.97-5.86-12.39-5.86-2.24,0-4.07.89-5.16,2.51-1.11,1.65-.53,3.36-.25,4.18,0,0,0,0,0,.01-.03.06-.06.12-.09.17-.29.54-.68,1.29-.76,2.27-.33,4.16,4.01,9.13,9.28,14.73.52.55.98,1.03,1.34,1.44l4.63,8.69c-.14.18-.28.18-.41.19-1.07.03-2.04.63-2.55,1.56-.33.61-.44,1.3-.32,1.96-.51.37-1.1.86-1.62,1.56-4.08,5.39-9.15,12.08-14.25,18.18-.12.06-.3.13-.42.19-.73.31-1.73.74-2.47,1.69-.49.63-3.89,6.53-4.06,6.85-.46.86-.66,1.89-.84,2.89-1.19.81-1.39,1.97-1.41,2.52-.03.71,1.26,6.92,1.78,7.82.3.52.49.87,3.31,2.68,2.54,1.63,3.31,1.92,4.22,1.92.06,0,.12,0,.18,0,5.54-.31,9.47-6.16,12.35-10.44.48-.72.94-1.4,1.34-1.95,2.64-3.64,5.57-7.15,8.41-10.54,2.26-2.7,4.59-5.49,6.79-8.35.37-.48.73-1.17,1.24-2.22,4.31,7.16,12.32,20.45,19.24,25.5,1.87,1.36,3.92,2.62,6.34,2.62,2.05,0,3.95-.92,5.67-2.73,2.23-2.36,2.7-4.43,1.5-6.65.36-.55.75-1.3.8-2.28.12-1.94-1.16-3.74-5.06-8.15-.47-.53-.87-.99-1.1-1.27-3.92-4.8-7.74-10.77-12.05-18.8-.07-.13-.14-.25-.23-.36l-3.23-4.37c.98-1.18,1.86-2.4,2.72-3.6.9-1.25,1.75-2.43,2.67-3.51,3.57-4.17,7.77-8.37,11.84-12.43,2.57-2.56,5.22-5.22,7.69-7.83.23-.24.59-.58.97-.94,1.39-1.3,2.84-2.64,3.33-4.25.22-.7.63-3.33.75-4.11.59-3.78.56-4.33.17-5.18-1.1-2.42-4.03-3.7-8.48-3.7h0Z" style="fill:#ea128b;"/><path d="M115.69,13.89c1.21,1.21,3.84,3.74,5.01,5.17,4.7,5.75,6.13,11.89,8.68,17.97.73,1.73,1.94,3.21,2.52,4.86s.46,5.12,1.12,6.19c.55.9,1.55.95,1.66,1.11.08.11-.6,1.57-.49,2.57,1.36,13.02,5,31.25,1.63,43.89-3.78,14.19-8.44,24.05-18.76,34.96-1.19,1.26-4.75,2.92-5.51,3.78-2.55,2.86-1.93,3.22-5.61,6.3-5.11,4.28-7.59,6.74-13.9,8.86-6.88,2.31-11.61,3.81-18.71,4.99-.69.12-1.63-.46-2.81-.29-.49.07-1.06.95-1.4.96-.39.01-1.15-1.48-2.46-1.71-2.06-.36-3.55,1.07-4.23,1-3.56-.35-8.71-3.06-12.38-3.95-1.3-.32-2.07.52-2.85.53-.4,0-.32-1.17-1.1-1.44s-1.76.29-2.46.07c-2.44-.76-12.85-7.24-15.4-9.04-14.16-9.99-21.38-26.21-24.18-43.04-2.22-13.35-.56-19.05,1.2-31.81,1.15-8.39.27-11.24,4.94-19.36.36-.63,5.25-5.02,6.13-6.19,2.07-2.75,8.21-13.14,9.93-14.81.28-.28,3.73-1.98,3.91-2.16,1.11-1.12,1.77-3.78,3.69-5.32,3.1-2.49,9.76-6.12,13.65-8.22,3.16-1.71,1.84-1.58,2.75-2.23.27-.19,5.45-2,6.22-2.22,14.38-3.97,33.3-3.64,47.07,2.05,1.33.55,11.64,6.02,12.14,6.52ZM89.37,15.78c-1.88-.88-14.46-.76-16.66-.46-22.51,3.05-38.02,21.93-50.43,39.43-3.34,4.71-3.53,8.17-5.71,12.63-.8,1.64-2.6,2.86-3.14,4.18-3.73,9.19,4.16,34.97,8.78,43.45.85,1.56,2.89,3.44,3.89,4.79,1.2,1.61,4.37,6.9,5.66,7.9s3.95,2.17,6.05,3.7c4.43,3.22,13.04,5.92,19.28,7.28,12.62,2.77,24.52,1.34,34.81-5.87,7.19-5.03,13.95-10.45,19.89-17.21,13.45-15.29,14.67-31.85,11.89-51.45-1.36-9.6-3.19-16.04-6.58-24.07-2.69-6.38-3.21-10.66-8.68-15.62-4.46-4.03-10.92-7.48-16.24-8.2-1.95-.27-.8.47-2.83-.48Z"/><path d="M96.69,42.17c-6.32,6.71-13.7,13.45-19.63,20.37-2.45,2.86-4.3,6.2-6.99,8.86l4.69,6.35c3.51,6.54,7.58,13.41,12.37,19.28,1.21,1.48,5.57,6.02,5.49,7.34-.05.89-1.18,1.53-1.1,2.34.16,1.76,2.28,1.89-.38,4.71s-5.18,1.84-8.06-.25c-6.66-4.86-14.81-18.6-18.88-25.35-.66-1.1-1.59-2.93-3-2.53-.37.12-2.11,4.36-2.75,5.2-4.91,6.41-10.43,12.31-15.24,18.95-2.58,3.56-6.57,10.88-11.43,11.15-.48.03-4.79-2.83-4.93-3.08-.16-.28-1.4-5.9-1.39-6.22.02-.37.94-.31,1.05-.67.29-.9.43-2.69.84-3.44.38-.7,3.56-6.13,3.8-6.43.52-.68,2.04-.85,2.67-1.61,5.03-6.01,10-12.55,14.49-18.48,1.24-1.64,3.53-1.68,2.19-3.9,2.08-.06,3.1-1.48,3.63-3.36l-5.45-10.25c-2.57-2.89-10.41-10.39-10.11-14.19.06-.76.81-1.49.94-2.45.11-.86-.83-2.02-.35-2.74,2.28-3.39,10.8,1.33,12.79,3.63.7.81.2,1.83.59,2.31,2.34,2.93,4.1,5.7,6.35,8.57,1.78,2.27,5.45,6.58,5.81.91,3.32-.32,1.64-.58,2.5-1.73,3.76-5.01,10.74-10.74,13.77-15.25.71-1.06.74-2.99,1.44-3.75.52-.56,2.73-1.13,3.65-1.97,1.25-1.14,2.57-3.79,4.16-4.56,2.25-1.09,9.94-1.57,11.14,1.07.15.33-.87,6.57-1.06,7.18-.36,1.18-2.58,2.9-3.62,4.01Z"/></svg>