<?xml version="1.0" encoding="UTF-8"?><svg id="Layer_1" xmlns="http://www.w3.org/2000/svg" viewBox="0 0 147.51 148.48"><path d="M42.23,146.98c-10.82,0-24.16-.86-31.23-7.56-4.49-4.25-4.63-6.82-4.8-10.08-.07-1.28-.15-2.73-.5-4.55C-.04,95.61,1.12,65.17,3.23,36.62l2.18-25.98c.03-.41.23-.78.55-1.04,2.67-2.16,5.62-2.5,8.23-2.8,1.11-.13,2.16-.25,3.11-.5,1.54-.4,2.81-.88,3.93-1.3,1.83-.69,3.41-1.28,5.36-1.28s4.06.62,6.74,2c12.24-.3,24.69-1.18,36.73-2.04,12.71-.9,25.85-1.84,38.8-2.09l1.33-.03c1.38-.03,3.1-.07,4.87-.07,5.08,0,8.2.35,9.79,1.1,4.37,2.06,6.45,4.39,9.32,7.6l.29.33c.06.07.35.18.54.26.58.23,1.36.55,1.91,1.37,2.09,3.13,2.19,7.35,2.28,11.07.04,1.72.08,3.35.31,4.66,8.05,45.61,7.71,67.21,4.15,93.31-.18,1.33-.23,2.68-.27,3.98-.17,4.87-.35,10.38-9.25,11.13-5.25.44-8.13,1.53-11.46,2.78-2.13.8-4.33,1.64-7.35,2.4-20.87,5.24-39.39,5.29-60.83,5.35h-.89c-1.46,0-3.05.03-4.73.06-2.09.04-4.32.08-6.63.08ZM21.17,127.59c4.83,1.27,9.47,2.43,15.02,2.85,7.22.54,14.64.82,22.04.82,20.07,0,40.9-1.97,63.68-6.03.66-.12,1.92-.18,3.91-.27,1.69-.08,4.53-.21,6.05-.43-1.01-4.93-.52-9.82-.04-14.56.27-2.66.54-5.41.54-8.09-.04-17.95-1.15-36.5-3.06-50.88-.41-3.12-1.09-6.34-1.74-9.47-1.15-5.52-2.35-11.22-2.28-16.94-.26-.1-.77-.23-1.1-.31-.73-.18-1.49-.37-2.14-.81-.75-.51-1.62-1.49-2.76-2.82-.29-.33-.65-.76-.89-1.02-.21,0-.56-.01-1.1-.01-2.29,0-6.29.11-7.37.15-7.56.32-15.23,1.06-22.64,1.78-6.31.61-12.82,1.24-19.24,1.61-2.38.14-4.92.2-7.75.2-4.27,0-8.61-.15-12.8-.3-4.2-.15-8.17-.29-12.08-.29h-.4c-1.15,0-3.22.52-5.23,1.01-2.15.53-4.17,1.03-5.64,1.09h0c-1.11,0-2.46-.67-4.57-1.77-.5-.26-1.14-.59-1.69-.85l-1.65,22.4c.44,7.94.21,16.1,0,23.99-.19,6.87-.38,13.98-.14,20.9.5,14.07,2.16,26.53,5.08,38.04Z" style="fill:#ea128b;"/><path d="M115.04,3c3.63,0,7.49.18,9.15.96,4.23,2,6.11,4.19,9.13,7.57.62.7,1.78.65,2.32,1.46,2.77,4.14,1.61,10.87,2.37,15.16,5.98,33.86,8.86,58.28,4.14,92.85-.91,6.67,1.43,13.01-8.17,13.81-8.82.74-11.33,3.28-19.06,5.22-20.98,5.27-39.88,5.25-61.36,5.3-3.26,0-7.19.14-11.36.14-10.96,0-23.58-.89-30.2-7.15-5.74-5.44-3.57-7.27-4.86-13.83-5.73-29.13-4.55-59.22-2.44-87.76l2.18-25.96c3.39-2.75,7.41-2.13,10.77-3.01,4.05-1.06,6.12-2.53,8.9-2.53,1.67,0,3.61.53,6.38,2.01,25.3-.59,50.59-3.64,75.91-4.13,1.49-.03,3.78-.11,6.17-.11M60.3,21.86c-8.38,0-16.9-.59-24.88-.59-.14,0-.27,0-.41,0-2.58,0-8.23,2-10.91,2.1-.01,0-.02,0-.03,0-1.39,0-6.03-3.08-7.29-3.08-.12,0-.21.03-.27.1l-1.79,24.26c.83,14.81-.66,30-.14,44.95.47,13.24,2,26.36,5.34,39.21,5.62,1.48,10.28,2.67,16.14,3.12,7.43.56,14.81.83,22.16.83,21.49,0,42.68-2.27,63.94-6.05,1.76-.31,10.82-.29,11.48-1.18-2.09-7.87.24-15.72.22-23.65-.04-16.1-.96-35.13-3.07-51.08-1.17-8.8-4.24-17.78-3.99-26.76-.55-1.22-2.83-1.08-3.91-1.81-1.16-.78-3.41-3.87-3.87-4.04-.12-.05-.79-.06-1.72-.06-2.36,0-6.42.11-7.44.16-14.06.6-27.99,2.6-41.9,3.39-2.53.14-5.09.2-7.67.2M115.05,0h0c-1.8,0-3.52.04-4.91.08-.49.01-.93.02-1.32.03-12.99.25-26.15,1.19-38.88,2.09-11.9.85-24.2,1.72-36.28,2.02-2.73-1.37-4.94-1.99-7.08-1.99s-4,.67-5.89,1.38c-1.14.43-2.31.87-3.78,1.25-.85.22-1.84.34-2.9.46-2.67.31-5.99.69-9,3.12-.64.51-1.03,1.27-1.1,2.08l-2.18,25.96c-2.12,28.69-3.28,59.25,2.49,88.59.34,1.72.41,3.05.48,4.34.21,3.99.67,6.73,5.27,11.09,7.42,7.03,20.47,7.98,32.26,7.98,2.32,0,4.52-.04,6.65-.08,1.68-.03,3.27-.06,4.71-.06h.88c21.54-.06,40.15-.11,61.2-5.39,3.11-.78,5.45-1.67,7.52-2.45,3.23-1.22,6.01-2.27,11.06-2.69,10.23-.86,10.46-7.63,10.63-12.57.04-1.26.09-2.57.26-3.83,4.57-33.47,2.19-57.84-4.16-93.78-.21-1.2-.25-2.77-.29-4.44-.1-3.93-.2-8.38-2.54-11.87-.81-1.21-1.93-1.66-2.6-1.93-.05-.02-.1-.04-.16-.06l-.11-.13c-2.99-3.35-5.16-5.77-9.8-7.96-1.83-.86-5.05-1.25-10.43-1.25h0ZM60.3,24.86c2.86,0,5.43-.07,7.84-.21,6.44-.37,12.98-1,19.3-1.62,7.39-.72,15.04-1.46,22.56-1.78,1.07-.05,5.05-.15,7.31-.15.16,0,.29,0,.42,0,.15.17.3.35.44.51,1.22,1.42,2.15,2.47,3.06,3.09.85.58,1.81.82,2.58,1.01.08,5.49,1.21,10.88,2.3,16.11.68,3.24,1.32,6.3,1.72,9.36,1.9,14.32,3.01,32.79,3.05,50.69,0,2.6-.26,5.19-.53,7.93-.44,4.34-.89,8.81-.22,13.39-1.43.12-3.2.2-4.37.25-2.12.1-3.35.16-4.11.29-22.69,4.04-43.43,6.01-63.42,6.01-7.37,0-14.74-.27-21.93-.82-5.12-.39-9.3-1.38-13.89-2.58-2.76-11.17-4.34-23.25-4.82-36.86-.24-6.87-.05-13.95.14-20.8.22-7.89.44-16.05,0-24.02l1.48-20.06c2.19,1.13,3.55,1.77,4.85,1.77.04,0,.1,0,.14,0,1.61-.06,3.71-.58,5.94-1.13,1.74-.43,3.9-.97,4.87-.97h.4c3.89,0,7.84.14,12.03.29,4.21.15,8.56.3,12.85.3h0Z" style="fill:#ea128b;"/><path d="M58.23,134.25c-7.48,0-14.97-.28-22.27-.83-6.15-.46-11.13-1.77-16.41-3.16-.52-.14-.93-.55-1.07-1.07-3.11-11.96-4.88-24.9-5.39-39.54-.25-7.01-.05-14.17.14-21.08.22-7.86.44-15.99,0-23.84,0-.06,0-.13,0-.19l1.79-24.26c.02-.3.13-.58.31-.81.2-.25.65-.67,1.45-.67.93,0,2.13.6,4.17,1.65,1,.52,2.66,1.38,3.15,1.43,1.09-.04,3.06-.53,4.96-1,2.28-.56,4.43-1.1,5.94-1.1h.41c3.97,0,8.15.15,12.19.29,4.17.15,8.48.3,12.69.3h0c2.78,0,5.26-.06,7.58-.2,6.35-.36,12.84-.99,19.12-1.6,7.45-.72,15.16-1.47,22.8-1.79,1.1-.05,5.17-.16,7.5-.16,1.66,0,1.95.05,2.25.16.53.2.91.62,2.02,1.92.67.78,1.68,1.96,2.16,2.28.21.14.75.28,1.19.39,1.1.28,2.62.65,3.25,2.05.1.21.14.44.13.66-.15,5.57,1.04,11.3,2.2,16.84.66,3.17,1.35,6.46,1.78,9.69,1.92,14.51,3.04,33.19,3.08,51.27,0,2.83-.28,5.66-.55,8.4-.52,5.14-1.01,10,.28,14.87.12.44.03.91-.24,1.27-.72.98-2.14,1.23-8.9,1.54-1.49.07-3.02.14-3.52.23-22.95,4.09-43.95,6.08-64.2,6.08ZM110.52,120.42c.56-.47,1.15-.88,1.73-1.29,1.47-1.02,2.74-1.91,2.99-3.34.14-.82-.08-1.35-.38-2.09-.26-.62-.54-1.33-.6-2.23-.06-.99.15-1.79.32-2.43.23-.87.37-1.4-.04-2.37-.8-1.9-2.06-2.85-3.17-3.69-.74-.56-1.44-1.09-1.92-1.83-.67-1.02-.89-2.06-1.05-2.81-.07-.33-.18-.83-.27-.94h0s-.17-.09-.69-.09c-.24,0-.51.02-.81.05-.06,0-.12.01-.18.01-.46,0-.9-.21-1.19-.59-.32-.42-.4-.98-.21-1.47.13-.33.17-.53.18-.62-.14-.1-.43-.25-.66-.37-.68-.34-1.61-.81-2.38-1.73-4.98-5.94-8.9-10.79-11.65-14.4-.06-.08-6.35-8.79-6.48-10.06-.26-2.66,8.83-17.91,9.28-18.56,1.06-1.54,2.94-3.56,4.92-5.69,2.8-3,6.28-6.74,6.76-8.59.23-.9.01-1.37-.33-2.09-.27-.57-.6-1.27-.58-2.15.01-.74.23-1.39.43-1.96.1-.29.27-.77.24-.92h0s-.27-.4-1.91-.84c-.37-.09-2.37-.21-5.12-.21-2.33,0-3.65.09-4.06.16-.13.1-.29.32-.45.54-.43.58-1.12,1.52-2.43,1.73l.03.25c.05.44-.1.87-.4,1.19-.28.3-.68.47-1.09.47-.02,0-.25,0-.25,0-.98,0-1.12.35-1.42,1.12-.16.43-.35.91-.79,1.27-.21.17-.57.38-1.08.38-.11,0-.22,0-.32-.03-.23.49-.39,1.09-.56,1.72-.3,1.12-.64,2.39-1.47,3.48-.93,1.23-1.69,2.16-2.36,2.97-1.55,1.9-2.57,3.15-4.16,6.23-.26.5-.86.84-1.42.84-.1,0-.24-.01-.41-.04-.25.71-.86,2.09-2.52,2.09-.95,0-2.02-.49-3.46-1.6-.7-.54-1.48-1.73-2.7-3.63-.73-1.13-1.55-2.42-2-2.88-.59-.61-1.92-1.33-3.1-1.97-1.34-.73-2.61-1.41-3.33-2.18-.8-.85-1.35-1.92-1.93-3.06-.64-1.25-1.3-2.55-2.27-3.39-1.77-1.52-4.7-2.58-7.13-2.58-.57,0-1.1.06-1.57.17-1.19.29-1.41.58-1.42.59,0,.02,0,.19,0,.3,0,.47.03,1.44-.84,2.13-.85.68-1.73.9-2.31,1.05-.05.01-.11.03-.17.04.03.27.13.78.44,1.69,1.01,3.03,3.92,5.31,6.74,7.52,1.84,1.44,3.58,2.8,4.82,4.38,1.54,1.94,2.71,4.51,3.84,7,.6,1.32,1.17,2.56,1.73,3.57.42.75,1.03,1.52,1.68,2.34,1.42,1.79,3.03,3.82,3.35,6.58.05.94-.47,1.46-1.51,2.49-.28.27-.74.73-.85.89-1.01,1.52-2.1,3.76-3.15,5.92-1.14,2.34-2.21,4.55-3.27,6.08-.78,1.13-2.42,2.43-4.17,3.81-1.15.91-2.34,1.84-2.79,2.39-.79.94-1.16,2.48-1.49,3.83-.25,1.04-.5,2.03-.92,2.82-.55,1.03-1.44,1.55-2.16,1.97-.38.22-.75.44-.9.64-2.08,2.72-5.28,8.06-5.75,10.57-.13.96.78,6.23,1.28,7.53,1.16.75,6.19,3.22,7.58,3.78.71-.21,1.4-.73,2.12-1.29l.28-.21c3.22-2.45,5.32-6.5,7.35-10.42,1.23-2.38,2.39-4.62,3.81-6.58,3.29-4.56,10.3-11.75,14.1-15.18,0-.02.06-.21.1-.33.22-.69.75-2.3,3.07-2.3.22,0,.46.01.73.04.7.08,1.24.63,1.32,1.33.18,1.61,1.32,3.07,2.54,4.62.45.57.92,1.17,1.34,1.78,4.2,6.08,10.44,13.48,14.94,18.63.66.75,1.39,1.42,2.17,2.14,1.27,1.17,2.58,2.37,3.59,3.97l8.18,3.9Z" style="fill:#ea128b;"/><path d="M117.3,18.11c.93,0,1.59.02,1.72.06.46.17,2.71,3.26,3.87,4.04,1.08.73,3.36.6,3.91,1.81-.25,8.98,2.83,17.96,3.99,26.76,2.11,15.95,3.04,34.98,3.07,51.08.02,7.93-2.31,15.78-.22,23.65-.66.9-9.72.87-11.48,1.18-21.26,3.79-42.46,6.05-63.94,6.05-7.35,0-14.73-.26-22.16-.83-5.86-.44-10.52-1.64-16.14-3.12-3.34-12.86-4.88-25.97-5.34-39.21-.53-14.96.96-30.15.14-44.95l1.79-24.26c.05-.07.14-.1.27-.1,1.25,0,5.9,3.08,7.29,3.08.01,0,.02,0,.03,0,2.68-.1,8.33-2.09,10.91-2.1.14,0,.27,0,.41,0,7.98,0,16.5.59,24.88.59,2.58,0,5.14-.06,7.67-.2,13.9-.8,27.84-2.8,41.9-3.39,1.02-.04,5.08-.16,7.44-.16M90.26,28.12c-.31,0-.68-.07-1.12-.22l.23,2.09c-.09,0-.17,0-.25,0-2.74,0-2.64,2.31-3.16,2.74-.03.03-.08.04-.13.04-.24,0-.67-.21-.91-.21-.06,0-.1.01-.13.04-1.38,1.56-1.17,4.16-2.51,5.94-3.1,4.09-4.3,4.86-6.65,9.42-.01.02-.04.03-.09.03-.19,0-.63-.13-.97-.13-.16,0-.3.03-.39.11-.51.5-.42,2.07-1.56,2.07-.53,0-1.31-.34-2.55-1.29-1-.77-3.35-5.15-4.54-6.36-1.44-1.48-5.25-2.9-6.41-4.13-1.51-1.6-2.21-4.75-4.32-6.56-1.96-1.68-5.24-2.94-8.11-2.94-.67,0-1.32.07-1.92.22-3.83.94-1.95,2.6-2.82,3.3-1.93,1.53-4.07-.2-2.53,4.43,1.83,5.52,8.77,8.52,11.81,12.36,2.23,2.81,3.79,7.44,5.43,10.38,1.43,2.56,4.45,4.85,4.85,8.36.02.31-1.73,1.78-2.12,2.37-2.14,3.24-4.43,9.11-6.41,11.99-1.17,1.7-5.64,4.6-6.87,6.08-1.65,1.98-1.72,5.29-2.58,6.9-.64,1.19-2.18,1.43-2.93,2.41-1.93,2.53-5.46,8.19-6.03,11.2-.24,1.28.95,7.93,1.57,8.79.38.52,8.17,4.33,8.69,4.36,1.32-.2,2.37-1.08,3.39-1.86,5.45-4.15,7.73-12.13,11.47-17.32,3.06-4.25,9.9-11.34,13.89-14.94.83-.75.25-2.24,2.17-2.24.17,0,.35.01.56.04.3,2.72,2.56,4.81,4.14,7.1,4.07,5.89,10.03,13.02,15.05,18.76,1.91,2.18,4.37,3.71,5.83,6.28l9.51,4.53c1.94-2.06,5.38-3.07,5.92-6.16.36-2.09-.86-3.06-.96-4.67-.12-1.94,1.16-2.95.17-5.29-1.48-3.53-4.27-4.3-5.22-5.75-1.43-2.19-.21-4.52-3.27-4.52-.29,0-.62.02-.99.06,1.17-2.94-1.5-2.33-3.1-4.24-3.89-4.64-8.34-10.05-11.61-14.35-.83-1.09-6.13-8.74-6.18-9.3-.17-1.69,7.52-15.37,9.03-17.56,2.6-3.79,10.96-11.15,11.9-14.75.6-2.32-.88-3.22-.86-4.6.03-1.96,2.54-3.87-2.35-5.19-.62-.17-3.13-.27-5.51-.27-2.19,0-4.27.08-4.66.28-1.14.56-1.29,2.2-2.84,2.2M117.3,15.11c-2.51,0-6.6.12-7.57.16-7.69.33-15.41,1.08-22.88,1.8-6.26.61-12.74,1.23-19.06,1.6-2.29.13-4.75.2-7.5.2-4.19,0-8.49-.15-12.64-.3-4.05-.14-8.25-.29-12.24-.29h-.42c-1.69,0-3.93.56-6.3,1.15-1.61.4-3.41.84-4.46.94-.57-.2-1.82-.85-2.6-1.25-2.31-1.2-3.58-1.82-4.86-1.82-1.05,0-2.01.46-2.63,1.25-.36.47-.58,1.03-.63,1.62l-1.79,24.26c0,.13-.01.26,0,.39.43,7.79.21,15.89,0,23.72-.19,6.94-.39,14.11-.14,21.18.52,14.75,2.3,27.79,5.44,39.86.27,1.05,1.09,1.87,2.14,2.15,5.34,1.4,10.38,2.73,16.67,3.21,7.34.55,14.87.83,22.38.83,20.34,0,41.42-1.99,64.47-6.1.41-.07,2.1-.15,3.33-.21,7.09-.33,8.87-.57,10.03-2.15.54-.73.72-1.67.48-2.55-1.22-4.61-.74-9.33-.24-14.33.28-2.77.57-5.64.56-8.55-.04-18.14-1.17-36.9-3.1-51.46-.43-3.28-1.13-6.6-1.8-9.8-1.14-5.45-2.32-11.1-2.17-16.49.01-.46-.08-.91-.27-1.33-.94-2.05-3.01-2.57-4.25-2.88-.24-.06-.6-.15-.76-.21-.39-.32-1.31-1.39-1.81-1.98-1.17-1.37-1.71-2-2.63-2.35-.56-.21-1.05-.26-2.78-.26h0ZM94.46,28.73c.57-.04,1.63-.09,3.3-.09,2.43,0,4.31.1,4.79.18.18.05.34.1.47.14-.19.57-.38,1.28-.4,2.09-.02,1.23.43,2.18.73,2.81.31.66.32.72.23,1.07-.39,1.49-4.16,5.53-6.41,7.95-2.03,2.18-3.94,4.23-5.06,5.87-.89,1.3-3.32,5.54-5.31,9.25-4.43,8.27-4.32,9.35-4.23,10.3.08.79.11,1.12,3.3,5.84,1.36,2,2.98,4.33,3.48,4.98,2.76,3.63,6.7,8.49,11.7,14.46.8.96,1.72,1.52,2.43,1.89-.11.79.1,1.6.59,2.25.57.74,1.45,1.17,2.38,1.17.12,0,.23,0,.35-.02.06,0,.12-.01.17-.02.18.82.46,1.97,1.22,3.14.62.96,1.46,1.59,2.27,2.2,1.05.79,2.05,1.54,2.69,3.07.21.5.18.62-.03,1.41-.19.71-.44,1.67-.37,2.9.07,1.14.44,2.05.71,2.71.3.73.35.9.29,1.27-.13.77-.99,1.4-2.37,2.37-.34.24-.7.49-1.07.76l-6.96-3.32c-1.08-1.59-2.41-2.81-3.6-3.9-.74-.68-1.45-1.33-2.05-2.02-4.47-5.11-10.68-12.47-14.84-18.49-.45-.65-.93-1.27-1.4-1.86-1.08-1.38-2.1-2.68-2.23-3.86-.15-1.39-1.25-2.49-2.64-2.65-.32-.04-.62-.06-.9-.06-2.25,0-3.75,1.11-4.48,3.29-3.91,3.57-10.75,10.61-14.01,15.14-1.48,2.05-2.72,4.45-3.92,6.77-1.96,3.77-3.98,7.68-6.92,9.92l-.29.22c-.41.32-.83.64-1.2.85-1.58-.7-4.92-2.35-6.33-3.15-.45-1.59-1.07-5.29-1.04-6.35.46-2.12,3.24-6.93,5.41-9.78.1-.08.34-.22.52-.32.78-.46,1.97-1.15,2.72-2.55.52-.96.78-2.03,1.06-3.17.29-1.19.62-2.55,1.19-3.22.35-.42,1.63-1.43,2.56-2.17,1.84-1.45,3.57-2.82,4.48-4.13,1.12-1.63,2.22-3.89,3.38-6.28,1.02-2.09,2.07-4.25,3.02-5.69.13-.15.48-.49.69-.71,1.14-1.13,2.05-2.03,1.96-3.54,0-.06,0-.12-.02-.18-.37-3.19-2.2-5.49-3.67-7.34-.61-.77-1.18-1.49-1.54-2.14-.53-.96-1.09-2.17-1.67-3.46-1.11-2.45-2.38-5.23-4.03-7.31-1.36-1.71-3.25-3.2-5.08-4.63-2.64-2.07-5.38-4.22-6.24-6.81-.02-.07-.05-.14-.07-.2.5-.2,1.06-.49,1.61-.93,1.06-.84,1.32-1.91,1.39-2.66.08-.02.18-.05.29-.08.35-.09.76-.13,1.21-.13,2.07,0,4.66.93,6.16,2.22.75.64,1.34,1.81,1.92,2.93.6,1.18,1.23,2.41,2.18,3.41.89.94,2.26,1.68,3.71,2.47.97.53,2.31,1.25,2.74,1.69.35.36,1.23,1.73,1.82,2.65,1.34,2.09,2.15,3.31,3.05,4.01,1.72,1.32,3.07,1.91,4.37,1.91,1.09,0,2.5-.4,3.47-2.1.95-.16,1.76-.75,2.21-1.61,1.51-2.94,2.44-4.08,3.99-5.96.68-.83,1.44-1.77,2.39-3.02,1.01-1.33,1.41-2.81,1.73-4,.06-.22.12-.45.18-.67.47-.11.91-.33,1.28-.63.75-.61,1.04-1.38,1.24-1.89.02-.05.04-.1.06-.16.02,0,.04,0,.06,0,.05,0,.1,0,.14,0,.82,0,1.62-.34,2.18-.94.37-.39.62-.86.74-1.37,1.15-.55,1.82-1.46,2.18-1.94h0Z" style="fill:#ea128b;"/><path d="M110.8,123.71c-.22,0-.44-.05-.65-.15l-9.51-4.53c-.28-.13-.51-.35-.66-.61-.8-1.41-1.99-2.5-3.26-3.66-.8-.74-1.63-1.5-2.39-2.37-4.55-5.2-10.87-12.7-15.15-18.9-.38-.55-.81-1.1-1.24-1.64-1-1.27-2.02-2.58-2.63-4.09-.15.36-.37.75-.76,1.1-4.17,3.77-10.82,10.74-13.68,14.71-1.29,1.78-2.4,3.93-3.58,6.21-2.18,4.22-4.44,8.58-8.2,11.43l-.27.21c-1.04.8-2.22,1.71-3.81,1.94-.07.01-.15.02-.22.02-.03,0-.05,0-.08,0-.95-.05-9.14-4.02-9.82-4.98-.92-1.28-2.12-8.4-1.82-9.94.67-3.55,4.62-9.61,6.32-11.83.52-.68,1.18-1.07,1.77-1.41.47-.28.88-.52,1.03-.8.24-.45.44-1.26.65-2.11.39-1.59.87-3.56,2.1-5.04.65-.78,1.85-1.73,3.23-2.82,1.35-1.07,3.04-2.4,3.56-3.15.93-1.35,2.01-3.56,3.05-5.7,1.1-2.25,2.23-4.58,3.35-6.27.24-.36.63-.76,1.24-1.36.17-.17.39-.38.56-.56-.35-1.62-1.46-3.03-2.64-4.51-.69-.87-1.41-1.78-1.95-2.74-.62-1.12-1.21-2.42-1.84-3.79-1.06-2.33-2.15-4.73-3.46-6.38-1.03-1.3-2.63-2.55-4.32-3.88-3.02-2.37-6.44-5.05-7.74-8.94-.59-1.77-.86-3.16-.28-4.22.52-.96,1.44-1.19,2.11-1.37.33-.08.62-.16.89-.3,0-1.43.46-2.98,3.69-3.77.7-.17,1.47-.26,2.28-.26,3.14,0,6.79,1.33,9.09,3.31,1.42,1.22,2.25,2.85,2.99,4.3.48.94.94,1.83,1.44,2.37.39.42,1.55,1.05,2.58,1.6,1.43.78,2.91,1.58,3.82,2.51.67.68,1.5,1.98,2.38,3.36.66,1.02,1.65,2.57,2.01,2.87.65.5,1.07.74,1.32.86.02-.04.03-.09.04-.12.15-.44.33-.98.77-1.41.25-.24.71-.54,1.44-.54.07,0,.14,0,.21,0,1.48-2.72,2.57-4.06,4.02-5.84.65-.8,1.39-1.71,2.29-2.89.48-.63.71-1.51.97-2.45.32-1.18.67-2.51,1.62-3.58.31-.35.76-.55,1.25-.55.06,0,.12,0,.17,0,.36-.81,1.05-1.95,2.62-2.39l-.07-.6c-.06-.51.15-1.01.56-1.33.27-.21.6-.33.94-.33.16,0,.33.03.49.08.33.11.53.14.63.14.13,0,.17,0,.58-.56.34-.46.81-1.1,1.6-1.49.31-.15.88-.43,5.33-.43.79,0,4.78.02,5.9.32,2.05.55,3.22,1.27,3.78,2.34.65,1.22.24,2.42-.06,3.29-.13.39-.26.77-.27,1.03,0,.18.14.48.3.83.41.87,1.02,2.18.51,4.12-.67,2.59-3.98,6.13-7.47,9.88-1.91,2.05-3.71,3.98-4.64,5.34-1.67,2.44-8.06,14.04-8.72,16.48.85,1.5,4.89,7.38,5.83,8.62,2.72,3.58,6.61,8.39,11.56,14.29.38.45.89.71,1.44.99.82.42,2.16,1.1,2.29,2.7,2.46.33,2.86,2.2,3.11,3.36.14.64.26,1.24.63,1.8.19.3.69.67,1.22,1.07,1.27.96,3.01,2.27,4.13,4.92.8,1.91.45,3.24.17,4.3-.14.54-.26.98-.23,1.48.02.4.18.78.38,1.27.38.92.85,2.07.56,3.74-.46,2.66-2.46,4.06-4.23,5.29-.79.55-1.53,1.06-2.08,1.65-.29.31-.69.47-1.09.47ZM87.06,68h0Z" style="fill:#ea128b;"/><path d="M97.77,25.64c2.38,0,4.89.1,5.51.27,4.89,1.32,2.38,3.23,2.35,5.19-.02,1.38,1.47,2.28.86,4.6-.94,3.6-9.31,10.97-11.9,14.75-1.51,2.2-9.19,15.87-9.03,17.56.06.56,5.36,8.21,6.18,9.3,3.27,4.3,7.71,9.7,11.61,14.35,1.6,1.91,4.27,1.3,3.1,4.24.37-.04.7-.06.99-.06,3.05,0,1.84,2.33,3.27,4.52.95,1.45,3.73,2.22,5.22,5.75.98,2.34-.29,3.35-.17,5.29.1,1.6,1.32,2.57.96,4.67-.54,3.09-3.98,4.1-5.92,6.16l-9.51-4.53c-1.46-2.57-3.92-4.1-5.83-6.28-5.02-5.74-10.98-12.87-15.05-18.76-1.58-2.29-3.84-4.37-4.14-7.1-.21-.02-.39-.04-.56-.04-1.91,0-1.34,1.49-2.17,2.24-3.99,3.61-10.83,10.7-13.89,14.94-3.74,5.19-6.01,13.18-11.47,17.32-1.02.78-2.07,1.66-3.39,1.86-.52-.03-8.31-3.83-8.69-4.36-.62-.85-1.81-7.51-1.57-8.79.57-3.01,4.1-8.67,6.03-11.2.75-.98,2.29-1.22,2.93-2.41.86-1.6.93-4.92,2.58-6.9,1.23-1.48,5.7-4.38,6.87-6.08,1.98-2.87,4.27-8.75,6.41-11.99.39-.59,2.14-2.06,2.12-2.37-.41-3.51-3.42-5.79-4.85-8.36-1.64-2.94-3.21-7.56-5.43-10.38-3.04-3.84-9.98-6.84-11.81-12.36-1.54-4.63.6-2.9,2.53-4.43.87-.69-1.01-2.35,2.82-3.3.6-.15,1.25-.22,1.92-.22,2.87,0,6.15,1.26,8.11,2.94,2.11,1.81,2.81,4.96,4.32,6.56,1.16,1.23,4.97,2.65,6.41,4.13,1.19,1.22,3.54,5.59,4.54,6.36,1.23.95,2.02,1.29,2.55,1.29,1.13,0,1.05-1.58,1.56-2.07.09-.08.23-.11.39-.11.35,0,.78.13.97.13.05,0,.08,0,.09-.03,2.35-4.56,3.55-5.32,6.65-9.42,1.35-1.78,1.13-4.38,2.51-5.94.03-.03.07-.04.13-.04.23,0,.66.21.91.21.05,0,.1-.01.13-.04.52-.43.42-2.74,3.16-2.74.08,0,.16,0,.25,0l-.23-2.09c.44.15.81.22,1.12.22,1.56,0,1.71-1.64,2.84-2.2.39-.19,2.47-.28,4.66-.28M97.77,22.64c-4.8,0-5.46.33-5.99.59-.99.49-1.58,1.2-1.99,1.74-.21-.05-.43-.07-.65-.07-.67,0-1.33.22-1.87.65-.66.53-1.07,1.31-1.12,2.14-.79.44-1.45,1.09-1.98,1.94-.63.15-1.19.48-1.62.96-1.18,1.33-1.61,2.91-1.95,4.19-.21.79-.41,1.54-.71,1.93-.88,1.16-1.61,2.06-2.26,2.85-1.32,1.62-2.42,2.96-3.77,5.34-.84.15-1.42.55-1.78.9-.12.11-.22.23-.32.35-.42-.56-1.09-1.6-1.52-2.28-1.12-1.74-1.85-2.85-2.57-3.59-1.07-1.1-2.65-1.95-4.18-2.78-.76-.41-1.92-1.04-2.21-1.32-.35-.37-.77-1.2-1.19-2.01-.76-1.49-1.71-3.34-3.35-4.75-2.55-2.19-6.6-3.67-10.07-3.67-.93,0-1.82.1-2.64.3-2.79.69-4.35,2.04-4.74,4.11-.8.21-2.13.62-2.92,2.07-.84,1.54-.54,3.27.17,5.41,1.43,4.31,5.05,7.14,8.23,9.64,1.62,1.27,3.16,2.47,4.07,3.63,1.19,1.51,2.25,3.83,3.27,6.07.64,1.41,1.24,2.73,1.9,3.9.6,1.07,1.36,2.03,2.09,2.95.85,1.07,1.67,2.1,2.1,3.16-.62.62-1.03,1.04-1.34,1.5-1.18,1.78-2.33,4.15-3.45,6.44-1.02,2.09-2.07,4.24-2.93,5.5-.39.57-2.18,1.98-3.25,2.83-1.45,1.15-2.7,2.13-3.46,3.04-1.45,1.74-1.98,3.9-2.4,5.64-.14.59-.32,1.31-.46,1.65-.12.09-.36.23-.52.32-.64.37-1.51.88-2.2,1.79-1.84,2.41-5.87,8.61-6.6,12.46-.33,1.75.82,9.36,2.08,11.1.41.57.7.97,5.39,3.3,4.53,2.24,5.01,2.27,5.57,2.3.05,0,.11,0,.16,0,.15,0,.3-.01.45-.03,1.97-.3,3.37-1.37,4.49-2.24l.27-.2c4.02-3.06,6.47-7.77,8.62-11.93,1.15-2.23,2.24-4.33,3.46-6.02,2.69-3.73,8.82-10.2,12.95-14,.54.83,1.14,1.6,1.72,2.33.43.55.83,1.06,1.18,1.57,4.32,6.25,10.68,13.8,15.26,19.03.82.94,1.68,1.72,2.51,2.49,1.23,1.12,2.28,2.1,2.97,3.3.3.53.76.96,1.32,1.22l9.51,4.53c.41.2.85.29,1.29.29.81,0,1.6-.33,2.18-.94.44-.47,1.12-.94,1.84-1.44,1.81-1.26,4.28-2.98,4.85-6.26.36-2.1-.24-3.58-.65-4.57-.13-.33-.26-.64-.27-.79-.02-.25.05-.52.18-1.01.3-1.15.76-2.88-.24-5.27-1.27-3.02-3.28-4.53-4.61-5.53-.33-.25-.77-.58-.89-.72-.18-.27-.27-.66-.39-1.26-.22-1.03-.74-3.47-3.35-4.3-.44-1.11-1.39-2.04-2.84-2.78-.42-.21-.79-.4-.97-.61-4.94-5.89-8.82-10.68-11.52-14.24-.78-1.03-4.13-5.89-5.38-7.89,1.25-3.22,6.88-13.37,8.31-15.46.87-1.27,2.72-3.25,4.5-5.17,4.26-4.57,7.11-7.78,7.83-10.52.64-2.47-.17-4.21-.61-5.14-.04-.09-.09-.19-.13-.28.04-.12.11-.32.15-.46.32-.94.92-2.68-.04-4.48-1.01-1.9-3.18-2.67-4.72-3.09-1.19-.32-4.45-.37-6.29-.37h0Z" style="fill:#ea128b;"/><path d="M124.2,3.63c4.23,2,6.11,4.19,9.13,7.57.62.7,1.78.65,2.32,1.46,2.77,4.14,1.61,10.87,2.37,15.16,5.98,33.86,8.86,58.28,4.14,92.85-.91,6.67,1.43,13.01-8.17,13.81-8.82.74-11.33,3.28-19.06,5.22-20.98,5.27-39.88,5.25-61.36,5.3-11.83.03-32.43,1.64-41.55-7.02-5.74-5.44-3.57-7.27-4.86-13.83-5.73-29.13-4.55-59.22-2.44-87.76l2.18-25.96c3.39-2.75,7.41-2.13,10.77-3.01,6.48-1.69,7.89-4.45,15.29-.52,25.3-.59,50.59-3.64,75.91-4.13,3.76-.07,12.57-.45,15.33.86ZM119.02,17.85c-.43-.16-7.73.03-9.15.09-14.06.6-27.99,2.6-41.9,3.39-10.9.62-22.42-.41-32.96-.39-2.58,0-8.23,2-10.91,2.1-1.48.05-7.01-3.73-7.58-2.99l-1.79,24.26c.83,14.81-.66,30-.14,44.95.47,13.24,2,26.36,5.34,39.21,5.62,1.48,10.28,2.67,16.14,3.12,29.15,2.2,57.57-.15,86.1-5.23,1.76-.31,10.82-.29,11.48-1.18-2.09-7.87.24-15.72.22-23.65-.04-16.1-.96-35.13-3.07-51.08-1.17-8.8-4.24-17.78-3.99-26.76-.55-1.22-2.83-1.08-3.91-1.81-1.16-.78-3.41-3.87-3.87-4.04Z"/><path d="M119.02,17.85c.46.17,2.71,3.26,3.87,4.04,1.08.73,3.36.6,3.91,1.81-.25,8.98,2.83,17.96,3.99,26.76,2.11,15.95,3.04,34.98,3.07,51.08.02,7.93-2.31,15.78-.22,23.65-.66.9-9.72.87-11.48,1.18-28.53,5.08-56.95,7.42-86.1,5.23-5.86-.44-10.52-1.64-16.14-3.12-3.34-12.86-4.88-25.97-5.34-39.21-.53-14.96.96-30.15.14-44.95l1.79-24.26c.58-.74,6.1,3.04,7.58,2.99,2.68-.1,8.33-2.09,10.91-2.1,10.54-.03,22.06,1.01,32.96.39,13.9-.8,27.84-2.8,41.9-3.39,1.42-.06,8.73-.26,9.15-.09ZM65.52,42.05c-1.44-1.48-5.25-2.9-6.41-4.13-1.51-1.6-2.21-4.75-4.32-6.56-2.41-2.08-6.85-3.51-10.04-2.73-3.83.94-1.95,2.6-2.82,3.3-1.93,1.53-4.07-.2-2.53,4.43,1.83,5.52,8.77,8.52,11.81,12.36,2.23,2.81,3.79,7.44,5.43,10.38,1.43,2.56,4.45,4.85,4.85,8.36.02.31-1.73,1.78-2.12,2.37-2.14,3.24-4.43,9.11-6.41,11.99-1.17,1.7-5.64,4.6-6.87,6.08-1.65,1.98-1.72,5.29-2.58,6.9-.64,1.19-2.18,1.43-2.93,2.41-1.93,2.53-5.46,8.19-6.03,11.2-.24,1.28.95,7.93,1.57,8.79.38.52,8.17,4.33,8.69,4.36,1.32-.2,2.37-1.08,3.39-1.86,5.45-4.15,7.73-12.13,11.47-17.32,3.06-4.25,9.9-11.34,13.89-14.94.9-.81.14-2.5,2.72-2.2.3,2.72,2.56,4.81,4.14,7.1,4.07,5.89,10.03,13.02,15.05,18.76,1.91,2.18,4.37,3.71,5.83,6.28l9.51,4.53c1.94-2.06,5.38-3.07,5.92-6.16.36-2.09-.86-3.06-.96-4.67-.12-1.94,1.16-2.95.17-5.29-1.48-3.53-4.27-4.3-5.22-5.75-1.57-2.4.04-4.96-4.26-4.46,1.17-2.94-1.5-2.33-3.1-4.24-3.89-4.64-8.34-10.05-11.61-14.35-.83-1.09-6.13-8.74-6.18-9.3-.17-1.69,7.52-15.37,9.03-17.56,2.6-3.79,10.96-11.15,11.9-14.75.6-2.32-.88-3.22-.86-4.6.03-1.96,2.54-3.87-2.35-5.19-1.19-.32-9.36-.39-10.17.01-1.37.68-1.31,2.9-3.97,1.98l.23,2.09c-2.99-.14-2.87,2.29-3.41,2.73-.21.17-1-.32-1.17-.13-1.38,1.56-1.17,4.16-2.51,5.94-3.1,4.09-4.3,4.86-6.65,9.42-.07.14-1.14-.3-1.46.01-.75.73-.21,3.77-4.1.79-1-.77-3.35-5.15-4.54-6.36Z" style="fill:#fff;"/><path d="M65.52,42.05c1.19,1.22,3.54,5.59,4.54,6.36,3.89,2.99,3.36-.06,4.1-.79.32-.31,1.38.13,1.46-.01,2.35-4.56,3.55-5.32,6.65-9.42,1.35-1.78,1.13-4.38,2.51-5.94.17-.19.96.3,1.17.13.53-.44.42-2.87,3.41-2.73l-.23-2.09c2.66.92,2.6-1.31,3.97-1.98.82-.4,8.98-.33,10.17-.01,4.89,1.32,2.38,3.23,2.35,5.19-.02,1.38,1.47,2.28.86,4.6-.94,3.6-9.31,10.97-11.9,14.75-1.51,2.2-9.19,15.87-9.03,17.56.06.56,5.36,8.21,6.18,9.3,3.27,4.3,7.71,9.7,11.61,14.35,1.6,1.91,4.27,1.3,3.1,4.24,4.3-.51,2.69,2.06,4.26,4.46.95,1.45,3.73,2.22,5.22,5.75.98,2.34-.29,3.35-.17,5.29.1,1.6,1.32,2.57.96,4.67-.54,3.09-3.98,4.1-5.92,6.16l-9.51-4.53c-1.46-2.57-3.92-4.1-5.83-6.28-5.02-5.74-10.98-12.87-15.05-18.76-1.58-2.29-3.84-4.37-4.14-7.1-2.58-.3-1.83,1.39-2.72,2.2-3.99,3.61-10.83,10.7-13.89,14.94-3.74,5.19-6.01,13.18-11.47,17.32-1.02.78-2.07,1.66-3.39,1.86-.52-.03-8.31-3.83-8.69-4.36-.62-.85-1.81-7.51-1.57-8.79.57-3.01,4.1-8.67,6.03-11.2.75-.98,2.29-1.22,2.93-2.41.86-1.6.93-4.92,2.58-6.9,1.23-1.48,5.7-4.38,6.87-6.08,1.98-2.87,4.27-8.75,6.41-11.99.39-.59,2.14-2.06,2.12-2.37-.41-3.51-3.42-5.79-4.85-8.36-1.64-2.94-3.21-7.56-5.43-10.38-3.04-3.84-9.98-6.84-11.81-12.36-1.54-4.63.6-2.9,2.53-4.43.87-.69-1.01-2.35,2.82-3.3,3.19-.78,7.62.65,10.04,2.73,2.11,1.81,2.81,4.96,4.32,6.56,1.16,1.23,4.97,2.65,6.41,4.13Z"/></svg>