<svg width="584" height="113" viewBox="0 0 584 113" fill="none" xmlns="http://www.w3.org/2000/svg">
<path d="M1.16731 81.2909C1.16731 81.2909 246.753 80.6107 299.651 78.7929C352.549 76.9751 454.198 75.1715 489.549 74.9167C524.901 74.662 539.303 79.0367 553.267 76.0846C567.23 73.1326 571.464 72.2577 575.19 68.1082C578.916 63.9586 581.735 51.1029 577.372 46.2789C573.009 41.4549 543.778 30.2411 532.193 29.1226C520.608 28.0041 455.327 33.6594 437.419 34.3859C419.512 35.1125 341.883 38.5361 308.841 38.7723C275.799 39.0085 176.528 41.8842 164.085 41.7976C151.642 41.711 60.6728 41.0086 60.6728 41.0086L1.16727 72.0958L1.15452 79.0958L1.15452 81.3024L1.16731 81.2909Z" fill="white"/>
<path d="M104.833 65.0769C105.535 65.222 106.234 65.4036 106.932 65.6218C107.28 65.737 107.616 65.8516 107.951 65.9906C108.119 66.0601 108.286 66.1295 108.454 66.199C108.514 66.2264 109.313 66.5964 108.729 66.3105C109.325 66.6092 109.92 66.9322 110.475 67.302C110.735 67.4739 110.983 67.6451 111.23 67.8407C111.312 67.9059 111.687 68.2301 111.383 67.9583C111.068 67.6616 111.545 68.1253 111.604 68.1771C111.767 68.344 112.142 68.6438 112.204 68.879C112.091 68.458 112.012 68.564 112.135 68.8022C112.202 68.9278 112.268 69.0655 112.347 69.1916C112.65 69.7198 112.266 69.102 112.317 69.0679C112.317 69.0679 112.408 69.4389 112.418 69.4883C112.571 70.0945 112.351 69.3506 112.413 69.3293C112.586 69.2891 112.104 70.3765 112.429 69.5133C112.303 69.8368 112.213 70.1621 112.075 70.4849C112.312 69.8983 111.913 70.7822 111.832 70.937C111.67 71.2464 111.484 71.5425 111.31 71.8392C111.284 71.8867 111.011 72.215 111.256 71.9464C111.528 71.6424 111.065 72.0956 111.014 72.1541C110.527 72.5939 111.079 72.0719 111.089 72.109C111.088 72.1334 110.738 72.2991 110.675 72.3325C110.537 72.3989 110.387 72.4647 110.25 72.5311C109.662 72.7948 110.323 72.5226 110.324 72.5104C110.244 72.6408 109.568 72.729 109.419 72.7704C108.973 72.8946 108.516 72.9938 108.059 73.0931C107.331 73.252 106.591 73.3859 105.853 73.4833C105.669 73.5107 105.485 73.5259 105.3 73.5532C105.177 73.5715 104.7 73.5842 105.299 73.5654C105.116 73.5685 104.933 73.5715 104.749 73.5745C104.273 73.575 104.672 73.6439 104.893 73.6306L105.024 73.6982C104.788 73.5276 104.752 73.5136 104.929 73.6446C105.209 73.9151 104.85 73.5063 104.792 73.4545C104.464 73.1693 105.026 73.8938 104.836 73.5422C104.78 73.4417 104.724 73.3533 104.668 73.2528C104.601 73.1273 104.534 72.9896 104.468 72.8519C104.177 72.3121 104.549 72.9293 104.498 72.9756C104.537 72.9408 104.254 72.0105 104.235 71.8874C104.216 71.7887 104.218 71.4957 104.172 71.4445C104.229 71.5207 104.185 72.1537 104.202 71.5804C104.217 71.2758 104.208 70.9699 104.235 70.6659C104.239 70.5928 104.367 69.7563 104.355 69.7435C104.391 69.7576 104.171 70.4917 104.349 69.8654C104.395 69.6723 104.441 69.4913 104.499 69.2988C104.59 68.9613 104.704 68.6372 104.818 68.3131C104.874 68.1572 104.944 67.9896 105.013 67.8343C105.306 67.0917 104.696 68.2948 105.121 67.6199C105.214 67.4779 105.307 67.3238 105.387 67.1812C105.667 66.7189 105.211 67.2824 105.454 67.0746C105.582 66.9589 105.698 66.8426 105.826 66.7268C105.928 66.6342 106.409 66.3041 105.904 66.633C107.394 65.6572 109.021 64.8716 110.579 64.0091C111.974 63.2362 112.716 61.3434 111.885 59.897C111.053 58.4505 109.267 57.7746 107.773 58.5914C105.914 59.6097 103.961 60.5501 102.237 61.7951C100.514 63.0401 99.4782 64.9304 98.8406 66.9262C97.6563 70.568 97.7787 75.1916 100.729 77.9902C101.778 78.9835 103.019 79.5709 104.469 79.6559C105.589 79.7243 106.797 79.5039 107.906 79.3152C109.79 79.0066 111.791 78.5817 113.519 77.7278C115.674 76.651 116.833 74.7424 117.805 72.6413C118.778 70.5402 118.762 68.414 117.801 66.3869C116.84 64.3598 115.104 62.929 113.289 61.8608C111.272 60.6724 109.081 59.7808 106.797 59.2998C105.237 58.9772 103.426 59.5338 102.937 61.2439C102.534 62.6895 103.201 64.7507 104.881 65.1037L104.833 65.0769Z" fill="black"/>
<path d="M131.471 65.3988C132.17 65.837 132.934 66.1807 133.687 66.5116C133.986 66.6365 134.285 66.7615 134.585 66.8864C134.692 66.9285 134.812 66.9833 134.92 67.0254C135.268 67.1528 134.468 66.7707 134.979 67.0528C135.217 67.1869 135.455 67.3209 135.679 67.4788C135.797 67.558 135.903 67.6366 136.009 67.7152C136.328 67.9267 136.098 67.6464 135.893 67.5994C136.038 67.6311 137.025 68.6457 136.993 68.8028C137.009 68.7182 136.664 68.2856 136.902 68.6639C136.969 68.7773 137.049 68.8912 137.116 69.0167C137.251 69.2556 137.373 69.4938 137.483 69.7436C137.526 69.8557 137.579 70.0293 137.635 70.1177C137.578 70.0415 137.437 69.4481 137.57 69.9556C137.642 70.2158 137.715 70.4759 137.762 70.747C137.762 70.747 137.854 71.1059 137.828 71.1534C137.921 70.9871 137.828 70.6526 137.82 71.0675C137.812 71.2259 137.803 71.3965 137.807 71.5555C137.813 72.1788 137.858 71.5214 137.848 71.472C137.868 71.5707 137.745 71.8333 137.716 71.9174C137.596 72.3633 137.805 71.8364 137.796 71.787C137.806 71.8242 137.57 72.1543 137.57 72.1543C137.29 72.6167 137.851 71.9119 137.594 72.1556C137.402 72.3292 137.222 72.5034 137.031 72.6648C136.559 73.0687 137.109 72.571 137.132 72.5966C137.132 72.5966 136.78 72.7988 136.73 72.8207C136.58 72.8987 136.43 72.9523 136.292 73.0308C136.166 73.0978 135.801 73.3238 136.353 73.0339C136.051 73.202 135.621 73.2537 135.288 73.3225C134.67 73.4625 134.043 73.541 133.416 73.6195C132.789 73.698 133.33 73.6396 133.441 73.6208C133.268 73.6488 133.073 73.639 132.914 73.6554C132.522 73.6724 132.119 73.6766 131.728 73.6692C131.436 73.6546 131.155 73.6405 130.863 73.6258C130.29 73.5971 130.888 73.6149 130.984 73.6441C131.465 73.8026 131.305 73.819 131.116 73.6874C131.612 74.0421 131.445 73.9482 131.295 73.7697C131.746 74.2809 131.5 74.0853 131.423 73.8983C131.381 73.774 131.302 73.6478 131.258 73.5357C131.016 73.0105 131.339 73.8696 131.247 73.5108C131.165 73.2134 131.07 72.9155 131 72.6066C130.949 72.3964 130.798 71.998 130.869 71.7939C130.754 72.1545 130.884 72.2344 130.876 71.9041C130.884 71.7457 130.867 71.5983 130.863 71.4393C130.868 71.0853 130.898 70.7326 130.927 70.392C130.933 70.2824 131.019 69.7859 130.936 70.2214C130.851 70.6936 130.982 70.0283 131.011 69.9443C131.101 69.6189 131.202 69.2942 131.329 68.9707C131.384 68.8392 131.439 68.7076 131.495 68.576C131.634 68.2287 131.188 69.098 131.492 68.6247C131.665 68.3524 131.813 68.0789 131.997 67.8194C132.076 67.7012 132.167 67.5958 132.246 67.4776C132.547 67.0896 132.269 67.2589 132.221 67.5008C132.268 67.2955 132.748 66.9653 132.902 66.8265C133.081 66.6644 133.405 66.302 133.64 66.2283C133.591 66.238 133.035 66.6011 133.526 66.3203C133.714 66.2198 133.891 66.1065 134.079 66.006C135.485 65.2459 136.216 63.3403 135.385 61.8938C134.553 60.4474 132.766 59.7837 131.273 60.5882C128.271 62.2211 125.867 65.1055 125.124 68.4763C124.698 70.385 124.648 72.3613 125.126 74.2665C125.656 76.3697 126.708 78.5357 128.866 79.3524C130.736 80.0569 133.084 79.7594 135.026 79.5269C136.795 79.3103 138.638 78.8531 140.153 77.8785C141.857 76.7791 143.269 75.1764 143.701 73.1459C144.133 71.1154 143.784 69.0458 142.977 67.1119C142.247 65.3651 140.977 63.8967 139.508 62.7237C138.733 62.1106 137.851 61.6755 136.955 61.2763C136.512 61.0831 136.057 60.9015 135.603 60.7077C135.471 60.6522 135.279 60.5937 135.161 60.5145C135.811 60.938 134.936 60.3689 134.806 60.289C133.456 59.4395 131.437 59.7414 130.583 61.1767C129.73 62.6119 130.026 64.4957 131.471 65.3988Z" fill="black"/>
<path d="M581.492 50.3578C579.484 45.0901 574.8 41.3127 569.997 38.6654C564.768 35.7768 559.063 33.8295 553.346 32.1379C546.544 30.1356 539.727 28.2057 532.724 27.0726C515.481 24.2901 497.96 26.8072 480.72 28.349C441.554 31.8327 402.328 34.8126 363.012 35.9312C342.853 36.4959 322.672 36.5221 302.493 36.4995C282.62 36.48 262.754 37.0472 242.893 37.7491C202.817 39.1594 162.725 39.4451 122.639 39.5968C117.813 39.6113 66.9185 38.7445 62.0927 38.759C59.1605 38.7707 55.2515 43.1554 58.2082 43.1449C97.2914 43.0162 186.099 43.94 225.169 42.8579C244.631 42.3193 264.078 41.5844 283.534 41.1433C303.126 40.6967 322.734 41.1304 342.339 40.9043C380.705 40.4587 418.997 38.0794 457.218 34.927C466.994 34.1224 476.76 33.2686 486.527 32.3903C495.043 31.6203 503.555 30.7035 512.094 30.4477C519.923 30.2174 527.78 30.6603 535.484 32.1949C541.906 33.4698 548.262 35.3399 554.504 37.2898C559.832 38.9618 565.183 40.8915 569.879 43.9487C573.902 46.5569 577.587 50.2841 578.006 55.3135C578.581 62.1218 573.786 68.0989 568.209 71.3983C568.184 71.4214 568.146 71.4318 568.121 71.4549C569.632 69.8205 570.274 67.9716 570.226 66.259C570.096 61.0488 564.063 55.909 552.801 56.1503C545.464 56.3076 529.684 56.5057 511.422 56.7502C482.319 57.1229 449.316 57.5565 437.337 57.9452C428.357 58.2399 406.91 57.9338 384.205 57.6136C357.449 57.2244 327.116 56.7903 309.296 57.2158C283.161 57.8351 244.441 57.7987 210.276 57.7588C201.36 57.7513 192.822 57.7384 185.003 57.7494C148.076 57.7663 21.8053 57.2968 21.1826 57.29C20.1695 57.2758 19.3469 58.0897 19.3327 59.1028C19.3186 60.116 20.1177 60.9867 21.1455 60.9527C21.7682 60.9595 148.051 61.4297 185.003 61.414C192.821 61.4152 201.347 61.4153 210.264 61.4227C244.441 61.4511 283.186 61.4887 309.37 60.8719C327.127 60.4555 357.412 60.8872 384.144 61.2751C407.873 61.6101 428.38 61.9057 437.446 61.6152C449.4 61.2253 482.367 60.7899 511.458 60.4166C529.731 60.1848 545.524 59.9752 552.873 59.8186C562.204 59.6147 566.491 63.5309 566.569 66.3566C566.637 69.1329 562.781 72.2254 554.132 72.4757C547.808 72.6593 542.597 72.7889 537.999 72.8881C535.623 72.2925 533.249 71.636 530.888 70.9801C529.25 70.5193 528.087 71.7802 527.937 73.0797C522.118 73.1665 516.839 73.2072 510.533 73.2574C507.136 73.2824 501.429 73.3382 494.463 73.392C472.063 73.5878 438.224 73.8817 425.484 73.8658C415.835 73.846 383.635 74.8329 355.216 75.6919C333.647 76.3447 315.015 76.9128 309.124 76.9716C303.258 77.0194 286.055 77.3415 267.837 77.6982C242.955 78.1726 214.747 78.7002 208.054 78.6821C204.696 78.6724 195.677 78.7576 183.199 78.8769C151.766 79.1816 45.4791 80.4228 1.89556 80.167C0.881793 80.165 0.0591986 80.9788 0.057216 81.9926C0.0570666 82.9698 4.36979 83.4426 16.2352 83.8422C16.2596 83.8435 55.5202 83.1007 55.5446 83.1019C99.1647 83.3596 151.789 82.8474 183.234 82.5555C195.7 82.4355 204.707 82.3498 208.041 82.3582C214.771 82.3781 243.002 81.8518 267.909 81.3786C286.114 81.0335 303.317 80.7114 309.159 80.6623C315.086 80.6054 333.731 80.038 355.323 79.3863C383.706 78.5255 415.882 77.5374 425.47 77.5541C438.221 77.5829 472.085 77.2779 494.486 77.0821C501.439 77.0278 507.159 76.9726 510.543 76.9469C519.024 76.8836 525.636 76.8243 534.219 76.6563C541.899 78.6783 549.758 80.2818 557.725 79.4965C565.484 78.7373 572.87 75.1622 577.853 69.0968C582.094 63.9226 583.905 56.8064 581.476 50.4303L581.492 50.3578Z" fill="black"/>
<path d="M158.131 65.5264C159.644 66.2863 161.201 66.9019 162.755 67.5784C162.898 67.6467 163.042 67.7027 163.185 67.771C163.233 67.7978 163.71 68.0294 163.328 67.8392C163.615 67.9758 163.888 68.1238 164.161 68.2841C164.434 68.4444 164.718 68.6296 164.989 68.8143C165.131 68.9191 165.272 69.0361 165.425 69.1415C165.778 69.4035 165.159 68.835 165.448 69.1671C165.644 69.3968 165.889 69.629 166.098 69.8593C166.167 69.9361 166.453 70.3169 166.134 69.8611C166.214 69.9751 166.281 70.0884 166.349 70.2017C166.45 70.3778 166.769 71.09 166.565 70.5301C166.683 70.8537 166.763 71.1997 166.795 71.5433C166.798 71.4824 166.784 71.0297 166.753 71.4068C166.722 71.784 166.782 71.3228 166.847 71.2284C166.992 71.0158 167.549 70.6406 167.109 70.875C166.518 71.2119 165.905 71.5109 165.28 71.785C164.956 71.9275 164.631 72.0578 164.307 72.1881C163.834 72.372 164.68 72.0602 164.208 72.2198C164.071 72.2618 163.922 72.3154 163.774 72.3568C163.054 72.5772 162.336 72.7611 161.596 72.9072C161.251 72.9754 160.906 73.0314 160.562 73.0752C160.365 73.102 160.168 73.1288 159.972 73.1434C160.033 73.1464 160.4 73.1282 160.045 73.1348C159.3 73.1341 158.566 73.1706 157.824 73.1089C157.482 73.0918 157.144 73.026 156.804 72.9845C156.464 72.943 156.816 72.9851 156.876 73.0003C156.683 72.954 156.489 72.9198 156.296 72.8735C156.007 72.7979 155.718 72.7223 155.442 72.623C155.261 72.5651 155.069 72.5066 154.877 72.4237C155.212 72.5626 154.897 72.5224 154.807 72.3713C154.852 72.4468 155.061 72.665 155.13 72.7417C155.096 72.7034 154.92 72.3037 155.062 72.6406C155.203 73.0019 155.046 72.4688 155.014 72.3817C154.895 72.0825 155.01 72.4548 155.006 72.5401C154.986 72.2092 155.052 71.8705 155.032 71.5397C155.012 71.2089 155.007 71.5507 154.99 71.6475C155.038 71.4179 155.098 71.1888 155.171 70.9603C155.214 70.8281 155.258 70.6838 155.313 70.5522C155.313 70.5522 155.642 69.8479 155.494 70.1215C155.346 70.395 155.586 69.9917 155.587 69.9673C155.719 69.7663 155.839 69.5647 155.984 69.3643C156.063 69.2461 156.154 69.1285 156.245 69.0231C155.944 69.4233 156.322 68.9415 156.4 68.8599C156.67 68.5925 156.94 68.325 157.233 68.0832C157.347 67.9912 157.45 67.8987 157.564 67.8189C158.263 67.2676 157.312 67.965 157.741 67.6934C158.057 67.4893 158.384 67.2859 158.723 67.1075C159.439 66.7158 160.188 66.3991 160.948 66.0952C162.443 65.5228 163.006 63.3034 162.254 61.9831C161.355 60.4233 159.736 60.0612 158.142 60.6775C154.392 62.1263 151.1 64.6852 149.577 68.5055C148.766 70.5536 148.63 73.0265 149.504 75.0737C150.423 77.2207 152.51 78.2172 154.672 78.7165C158.79 79.6559 162.907 79.1661 166.829 77.6893C168.609 77.0213 170.802 76.1662 171.91 74.5361C173.293 72.5288 172.965 69.8006 171.922 67.7084C170.967 65.8037 169.3 64.2176 167.472 63.1488C166.428 62.5467 165.317 62.039 164.205 61.5679C163.666 61.3454 163.128 61.123 162.601 60.9011C162.41 60.8182 162.219 60.7354 162.015 60.6519C161.92 60.6104 161.049 60.1881 161.442 60.391C160.024 59.6725 158.127 59.7484 157.22 61.2787C156.459 62.5598 156.582 64.7402 158.107 65.5008L158.131 65.5264Z" fill="black"/>
<path d="M183.123 67.2317C183.439 67.2598 183.781 67.2647 184.082 67.3531C183.986 67.3238 183.43 67.1982 183.984 67.3482C184.141 67.3927 184.298 67.425 184.455 67.4695C185.082 67.6353 185.68 67.873 186.267 68.1223C186.805 68.3447 186.291 68.1235 186.207 68.0949C186.34 68.1259 186.528 68.2576 186.635 68.324C186.92 68.4849 187.193 68.6451 187.465 68.8176C187.702 68.976 187.938 69.1345 188.162 69.3045C188.291 69.3965 188.421 69.5007 188.55 69.6049C188.796 69.8005 188.913 69.9163 188.609 69.6445C189.088 70.0838 189.541 70.5341 189.969 71.0198C190.154 71.2245 190.314 71.4524 190.487 71.6565C190.763 71.988 190.228 71.216 190.441 71.5931C190.542 71.7692 190.645 71.9209 190.746 72.097C190.801 72.2097 191.21 72.8288 191.143 72.9354C191.142 72.9598 190.948 72.2049 191.099 72.8477C191.13 72.9591 191.161 73.0706 191.18 73.1815C191.21 73.3174 191.384 73.7414 191.233 73.3308C191.105 72.9701 191.237 73.2699 191.227 73.4526C191.221 73.5867 191.201 73.7323 191.207 73.8669C191.214 74.2093 191.424 73.1816 191.224 73.7701C191.18 73.9023 191.137 74.0345 191.094 74.1667C190.948 74.6357 191.152 73.9741 191.187 74.0125C191.244 74.0887 190.612 74.7655 190.985 74.3811C191.295 74.0546 190.962 74.3555 190.884 74.4493C190.637 74.7423 191.385 74.2057 191.035 74.3592C190.96 74.392 190.56 74.5796 190.896 74.4499C191.258 74.3092 190.514 74.5163 190.514 74.5163C190.391 74.5467 189.912 74.596 190.538 74.5297C190.366 74.5455 190.183 74.5485 190.011 74.5643C189.742 74.5752 189.473 74.5862 189.203 74.5971C188.542 74.625 187.882 74.6286 187.225 74.5956C186.92 74.5803 186.603 74.5644 186.3 74.5248C186.166 74.518 185.368 74.3437 185.802 74.4631C186.236 74.5826 185.332 74.3297 185.224 74.2876C185.117 74.2455 185.008 74.2157 184.912 74.1864C184.804 74.1444 184.708 74.1029 184.601 74.0609C184.398 73.9652 184.469 74.0054 184.815 74.1693C184.632 74.1724 184.317 73.8756 184.164 73.758C184.069 73.6922 183.756 73.3589 184.022 73.6654C184.311 73.9853 183.941 73.5636 183.872 73.4869C183.756 73.3589 183.654 73.2072 183.538 73.0792C183.32 72.8117 183.585 73.1304 183.606 73.1804C183.393 72.8154 183.178 72.4626 183.002 72.0751C182.947 71.9624 182.904 71.8381 182.849 71.7254C182.693 71.4122 182.972 72.1836 182.817 71.6383C182.703 71.2295 182.613 70.8219 182.536 70.4149C182.527 70.3533 182.487 69.936 182.516 70.3284C182.542 70.7816 182.529 70.0725 182.533 69.9872C182.541 69.8166 182.55 69.646 182.558 69.4876C182.56 69.4389 182.693 68.7371 182.572 69.2074C182.465 69.6417 182.599 69.1477 182.629 69.0392C182.687 68.8589 182.746 68.6664 182.804 68.4861C182.846 68.3782 182.905 68.1614 182.984 68.0554C182.761 68.3618 182.822 68.3648 183.021 68.0572C183.1 67.9268 183.18 67.7965 183.272 67.6667C183.338 67.5723 183.404 67.4779 183.481 67.3963L183.273 67.6424C183.372 67.3786 183.927 67.0399 184.142 66.8797C185.424 65.9301 185.439 63.6711 184.359 62.5664C183.103 61.2941 181.428 61.3322 180.045 62.35C176.86 64.7189 175.729 69.2551 176.849 72.9759C177.521 75.1716 178.667 77.1592 180.451 78.6167C181.917 79.8263 183.773 80.3347 185.629 80.5988C187.182 80.811 188.772 80.7564 190.342 80.6397C192.684 80.464 194.786 79.7021 196.123 77.6437C198.454 74.035 196.96 69.7213 194.324 66.7552C191.513 63.6092 187.621 61.5695 183.428 61.1516C181.835 60.9984 180.235 62.4573 180.229 64.0449C180.216 65.7667 181.421 67.073 183.122 67.2439L183.123 67.2317Z" fill="black"/>
<path d="M209.979 66.6122C211.49 66.9323 213.013 67.253 214.45 67.8259C214.666 67.91 214.868 68.0057 215.072 68.0892C214.741 67.8771 215.49 68.269 215.072 68.0892C215.321 68.2482 215.595 68.3841 215.843 68.5432C215.974 68.623 216.091 68.7144 216.209 68.8058C216.291 68.871 216.692 69.1477 216.351 68.8984C215.974 68.6108 216.513 69.0654 216.549 69.0916C216.677 69.2202 216.804 69.3609 216.931 69.5017C217.023 69.6162 217.115 69.7308 217.207 69.8453C217.485 70.1524 216.949 69.3804 217.139 69.7442C217.272 70.0074 217.406 70.2706 217.552 70.5222C217.753 70.8866 217.415 69.8313 217.552 70.51C217.582 70.6581 217.622 70.8189 217.664 70.9676C217.705 71.1284 217.868 71.5153 217.67 70.8458C217.722 71.0194 217.686 71.2497 217.677 71.4324C217.669 71.5908 217.637 71.748 217.641 71.907C217.631 72.3463 217.79 71.377 217.671 71.7986C217.568 72.1477 217.466 72.4724 217.351 72.8209C217.281 73.0006 217.266 73.3052 217.391 72.7618C217.36 72.8824 217.216 73.0828 217.162 73.1778C217.082 73.3082 216.99 73.4501 216.898 73.5799C216.792 73.7334 216.494 74.3292 216.805 73.7218C216.683 73.96 216.329 74.1988 216.124 74.384C215.971 74.5107 215.293 75.1241 215.83 74.6502C215.331 75.1015 214.56 75.3804 213.948 75.6429C213.786 75.7081 213.507 75.914 214.022 75.6222C213.909 75.6898 213.687 75.7276 213.575 75.7708C213.265 75.8652 212.943 75.9468 212.623 76.004C212.463 76.0326 212.29 76.0606 212.13 76.0892C211.464 76.2146 212.191 76.0923 212.203 76.0929C212.101 76.1733 211.077 76.1341 210.985 76.0318C210.961 76.0062 211.73 76.2768 211.083 76.0245C210.951 75.969 210.732 75.9458 210.627 75.855C211.108 76.2578 210.806 75.9373 210.712 75.8593C210.232 75.4565 210.745 75.9464 210.77 75.9355C210.707 75.9568 210.177 75.3316 210.156 75.2573C210.258 75.6533 210.348 75.5723 210.214 75.3213C210.102 75.1202 209.978 74.9185 209.878 74.7059C209.733 74.4299 209.626 74.1435 209.494 73.856C209.263 73.3314 209.469 73.8547 209.514 73.9303C209.447 73.8048 209.408 73.6196 209.366 73.4709C209.145 72.7757 209.009 72.0727 208.899 71.3464C208.798 70.6817 208.894 71.4439 208.894 71.4439C208.835 71.3921 208.877 70.7957 208.881 70.7226C208.885 70.6373 208.94 69.5406 208.965 69.5419C208.989 69.5431 208.768 70.3016 208.946 69.6631C208.992 69.4822 209.039 69.289 209.109 69.1093C209.152 68.965 209.221 68.8218 209.265 68.6774C209.355 68.3399 208.973 69.1392 209.266 68.653C209.372 68.4873 209.466 68.321 209.572 68.1553C209.73 67.919 209.859 67.7789 209.6 68.0713C209.885 67.7557 210.192 67.478 210.523 67.2136C210.65 67.1101 210.79 67.0071 210.929 66.9042C210.499 67.2124 210.942 66.9048 211.143 66.7927C211.508 66.5667 211.873 66.3651 212.249 66.1642C213.655 65.404 214.386 63.4985 213.555 62.052C212.723 60.6055 210.937 59.9296 209.443 60.7464C207.546 61.7751 205.726 63.003 204.487 64.8099C203.34 66.4869 202.781 68.6332 202.802 70.6497C202.858 74.4027 204.3 79.2512 207.807 81.1739C211.707 83.3117 216.832 81.712 220.069 79.0282C223.306 76.3444 224.767 71.5804 222.951 67.6048C220.981 63.2795 216.198 61.7204 211.907 60.8089C210.348 60.4742 208.536 61.0429 208.047 62.753C207.645 64.1987 208.324 66.2482 209.991 66.6128L209.979 66.6122Z" fill="black"/>
<path d="M229.189 66.7085C229.465 66.5635 229.728 66.4302 230.016 66.298C230.116 66.2541 230.317 66.1421 230.44 66.1238C229.874 66.2054 230.154 66.2194 230.34 66.1677C230.997 65.9685 231.665 65.8066 232.353 65.719C232.489 65.7013 232.662 65.6611 232.808 65.6685C232.088 65.6568 232.514 65.6904 232.685 65.6867C232.991 65.6776 233.296 65.6807 233.601 65.6838C233.906 65.6869 234.21 65.7144 234.514 65.754C234.672 65.762 234.817 65.7937 234.975 65.8138C235.679 65.898 234.444 65.6772 235.072 65.8309C235.699 65.9845 236.253 66.1466 236.828 66.3831C236.912 66.4118 237.177 66.4861 237.246 66.5629C236.896 66.2399 236.924 66.4002 237.15 66.5215C237.483 66.7092 237.816 66.8969 238.135 67.1083C238.395 67.2801 238.629 67.4751 238.877 67.6464C238.417 67.3301 238.726 67.5044 238.842 67.6202C238.958 67.7359 239.075 67.8517 239.191 67.9675C239.307 68.0833 239.399 68.21 239.502 68.3495C239.134 67.8791 239.388 68.185 239.442 68.3221C239.661 68.8339 239.475 68.397 239.443 68.3099C239.503 68.5695 239.551 68.8284 239.599 69.0995C239.616 69.2348 239.63 69.6874 239.599 69.0995C239.602 69.2829 239.617 69.4669 239.632 69.6509C239.65 70.0304 239.667 70.4222 239.66 70.8005C239.653 71.1789 239.61 71.5554 239.59 71.9453C239.616 71.4335 239.62 71.8368 239.588 71.9818C239.529 72.1865 239.458 72.3906 239.387 72.5947C239.285 72.9072 239.448 72.8298 239.466 72.4765C239.462 72.5618 239.278 72.8091 239.251 72.8566C239.145 73.0345 238.703 73.7942 239.115 73.1308C238.982 73.3562 238.703 73.562 238.499 73.735C238.46 73.7698 238.242 73.9909 238.155 74.011C238.471 73.7947 238.535 73.7491 238.345 73.8739C238.257 73.9306 238.156 73.9866 238.068 74.0432C237.942 74.1102 237.805 74.1766 237.68 74.2314C237.366 74.3989 237.623 74.3996 237.816 74.2016C237.661 74.3649 237.074 74.3843 236.864 74.4226C236.728 74.4524 236.276 74.4542 236.863 74.4348C236.68 74.4378 236.496 74.453 236.313 74.4439C235.898 74.4474 235.496 74.4273 235.082 74.3943C234.692 74.3748 234.316 74.3314 233.927 74.2875C233.696 74.2637 232.804 74.0357 233.466 74.2277C233.141 74.126 232.802 74.0723 232.478 73.9583C232.322 73.9016 232.154 73.8443 231.998 73.7877C231.469 73.6024 232.185 73.9436 231.902 73.7462C231.653 73.5872 231.221 73.4311 231.051 73.1783C231.416 73.6974 231.215 73.3209 231.052 73.1539C230.959 73.0637 230.712 72.8681 230.682 72.7323C230.751 73.0655 230.896 73.0972 230.751 72.8212C230.729 72.7713 230.5 72.2345 230.464 72.2205C230.608 72.2765 230.553 72.8724 230.544 72.3344C230.524 71.7471 230.497 72.784 230.529 72.3825L230.534 72.2729C230.548 72.0048 230.548 72.0048 230.498 72.271C230.436 72.5366 230.436 72.5366 230.498 72.271L230.556 72.0785C230.709 71.4754 230.51 72.2716 230.475 72.2333C230.542 72.1145 230.622 71.9963 230.7 71.8903L230.454 72.1711C230.454 72.1711 230.737 71.8799 230.749 71.8927C230.408 72.1077 230.332 72.165 230.522 72.0401C230.61 71.9835 230.698 71.939 230.785 71.8946C230.785 71.8946 230.052 72.1509 230.611 71.9713C231.169 71.7917 229.964 71.9511 230.597 71.9951C232.192 72.1117 233.788 70.7259 233.796 69.1017C233.804 67.4774 232.607 66.0248 230.903 65.9027C228.602 65.7385 226.374 67.0681 225.283 69.0778C224.126 71.2063 224.193 73.7627 225.47 75.83C227.965 79.9007 233.203 80.9208 237.649 80.4475C242.095 79.9742 245.452 76.1237 245.747 71.6922C245.909 69.1961 245.688 66.5343 244.167 64.467C242.921 62.7676 241.036 61.6226 239.148 60.7827C235.134 58.9934 230.21 59.2473 226.357 61.3017C224.952 62.0496 224.232 63.9802 225.052 65.4138C225.872 66.8475 227.658 67.5234 229.164 66.7195L229.189 66.7085Z" fill="black"/>
<path d="M256.999 72.635C256.722 72.5479 256.459 72.4369 256.195 72.3504C255.87 72.2486 256.301 72.4168 256.35 72.4314C256.207 72.351 256.064 72.2827 255.922 72.1901C255.708 72.0695 255.508 71.925 255.307 71.7806C255.177 71.6886 255.048 71.5844 254.919 71.4802C255.118 71.649 255.188 71.7258 254.968 71.4826C254.783 71.2779 254.599 71.0488 254.401 70.8435C254.169 70.5997 254.469 70.9568 254.492 70.9946C254.413 70.8563 254.322 70.7173 254.244 70.579C254.188 70.4785 254.132 70.3658 254.089 70.2537C254.045 70.1538 253.91 69.6828 254.001 70.066C254.091 70.4492 254.002 70.0416 254.005 69.9807C253.976 69.8205 253.948 69.6603 253.906 69.5116C254.027 70.0185 253.901 69.6213 253.909 69.4507C253.917 69.2923 253.925 69.1339 253.933 68.9755C253.936 68.9145 254.03 68.2718 253.965 68.5862C253.914 68.8768 254.025 68.3693 254.025 68.3693C254.247 67.5865 254.517 66.8304 254.836 66.0769C254.863 66.0172 255.039 65.6839 255.017 65.634C255.072 65.7589 254.663 66.117 254.637 66.1402C254.561 66.1974 253.694 66.4471 254.096 66.4551C254.218 66.4612 254.38 66.396 254.503 66.3778C254.873 66.3108 255.255 66.2445 255.636 66.1903C255.797 66.1617 255.956 66.1453 256.129 66.1173C256.129 66.1173 256.926 66.0473 256.706 66.0485C256.425 66.0588 256.962 66.0613 256.95 66.0607C257.169 66.0717 257.378 66.0578 257.597 66.0688C257.719 66.0749 258.483 66.1865 258.072 66.0926C258.423 66.1712 258.758 66.298 259.093 66.437C259.56 66.6192 258.748 66.2487 259.201 66.479C259.38 66.5735 259.558 66.6679 259.736 66.7746C260.97 67.4961 262.152 68.2883 263.281 69.1511C263.54 69.3474 263.787 69.543 264.034 69.7386C263.612 69.3876 264.243 69.9445 264.36 70.0603C264.58 70.2912 264.788 70.5216 264.996 70.7641C265.019 70.7897 265.27 71.1565 265.088 70.8786C264.883 70.5752 265.301 71.2679 265.289 71.2551C265.559 71.7206 265.268 70.9487 265.4 71.4806C265.441 71.6414 265.455 71.8376 265.509 71.9869C265.499 71.9375 265.523 71.4623 265.505 71.8157C265.499 71.9375 265.492 72.0716 265.498 72.2062C265.494 72.7679 265.481 72.2909 265.525 72.1587C265.482 72.2787 265.439 72.3987 265.409 72.5193C265.325 72.7228 265.352 72.6753 265.477 72.3762L265.332 72.5888C265.361 72.4925 265.676 72.3007 265.424 72.459C265.172 72.6174 265.009 72.7069 265.372 72.5297C265.071 72.6856 264.77 72.8293 264.458 72.9603C264.508 72.9384 264.929 72.8251 264.595 72.9061C264.385 72.9566 264.186 73.0321 263.976 73.0827C263.654 73.1764 263.32 73.2574 262.986 73.3384C261.167 73.8091 259.36 74.2803 257.54 74.751C255.993 75.1498 254.789 76.7629 255.22 78.3969C255.651 80.031 257.208 81.1351 258.866 80.7174C260.883 80.1956 262.912 79.6866 264.93 79.1526C266.947 78.6186 268.928 77.8507 270.285 76.1353C271.641 74.4199 271.943 72.053 271.335 70.0559C270.674 67.8851 269.314 66.2655 267.602 64.836C264.578 62.3023 260.881 59.7838 256.778 59.9933C254.476 60.1099 251.316 60.2691 249.914 62.3975C248.79 64.1124 248.084 66.5078 247.873 68.5249C247.409 73.1435 250.887 77.1047 255.109 78.4158C256.637 78.8833 258.509 78.0855 258.969 76.4717C259.428 74.8579 258.66 73.1214 257.025 72.6119L256.999 72.635Z" fill="black"/>
<path d="M277.797 74.9242C278.358 75.1844 277.429 74.6981 277.311 74.6189C277.051 74.4471 276.792 74.263 276.545 74.0674C276.168 73.7798 276.859 74.3764 276.521 74.054C276.428 73.9638 276.323 73.873 276.23 73.7707C275.939 73.4873 275.673 73.1808 275.42 72.8628C275.375 72.7994 275.043 72.3431 275.249 72.6343C275.43 72.9121 275.193 72.5338 275.169 72.5082C274.99 72.1938 274.81 71.8794 274.643 71.5534C274.566 71.3907 274.489 71.2281 274.411 71.0654C274.401 71.0282 274.226 70.6163 274.345 70.9277C274.474 71.2762 274.281 70.7412 274.261 70.6547C274.198 70.4439 274.136 70.2209 274.086 69.9986C274.016 69.6897 273.946 69.3808 273.9 69.0731C273.892 68.9872 273.824 68.4096 273.852 68.8142C273.883 69.1821 273.857 68.7289 273.859 68.6801C273.853 68.3134 273.858 67.9594 273.888 67.6067C273.898 67.4239 273.918 67.2539 273.94 67.0718C273.979 66.7684 274.015 66.7946 273.94 67.0718C274.043 66.7105 274.122 66.3602 274.25 66.0002C274.32 65.8204 274.391 65.6285 274.473 65.4494C274.446 65.5091 274.285 65.7942 274.471 65.4982C274.51 65.4391 274.841 64.9304 274.644 65.2015C274.461 65.4366 274.76 65.0852 274.773 65.0614C275.135 64.6642 274.953 64.8872 274.838 64.9914C275.272 64.61 274.828 64.942 275.088 64.8695C276.76 64.4281 278.055 64.4198 279.786 64.4944C281.406 64.5756 282.379 64.9176 283.645 65.9705C284.818 66.9455 286.164 68.3567 287.148 69.6764C286.953 69.4224 287.419 70.1176 287.486 70.2431C287.553 70.3686 287.877 71.2155 287.764 70.7945C287.815 70.9925 287.866 71.2027 287.905 71.4001C287.886 71.277 287.883 70.8615 287.9 71.4854C287.899 71.5098 287.875 71.9971 287.904 71.6566C287.934 71.2916 287.788 72.0172 287.772 72.1019C287.755 72.1866 287.549 72.6404 287.767 72.1872C287.659 72.4016 287.526 72.6149 287.382 72.8153C287.302 72.9334 287.21 73.0632 287.119 73.1808C287.406 72.8165 286.979 73.2959 286.914 73.3659C286.773 73.5054 286.608 73.6315 286.455 73.7582C286.238 73.9428 286.667 73.6711 286.227 73.9178C285.862 74.1316 285.486 74.3204 285.087 74.4836C285.411 74.3533 284.913 74.5482 284.888 74.5469C284.615 74.631 284.355 74.7034 284.083 74.7631C283.589 74.8849 283.096 74.9701 282.591 75.0425C282.37 75.0803 282.149 75.1058 281.915 75.1308C281.829 75.1387 281.399 75.1904 281.718 75.1575C281.154 75.2025 280.591 75.2353 280.028 75.256C278.436 75.3349 276.844 76.3789 276.829 78.1494C276.826 79.6639 278.02 81.4339 279.722 81.3483C284.535 81.1011 290.032 80.3751 292.73 75.7831C294.145 73.3865 294.341 70.6968 293.248 68.1256C292.342 65.9792 290.589 64.1445 288.922 62.5584C286.963 60.7011 284.902 59.1686 282.203 58.6668C279.771 58.215 277.281 58.4199 274.835 58.7247C269.413 59.4178 267.393 64.8745 267.883 69.7119C268.373 74.5493 271.526 78.6652 275.894 80.7044C277.339 81.3753 279.339 80.2175 279.754 78.7603C280.245 77.0137 279.362 75.6257 277.81 74.9004L277.797 74.9242Z" fill="black"/>
<path d="M307.281 74.9858C307.832 75.4532 306.991 74.6781 306.887 74.5629C306.632 74.2936 306.39 74.0127 306.159 73.7324C306.056 73.6051 305.964 73.4783 305.862 73.3388C305.38 72.7161 306.052 73.6904 305.816 73.2754C305.614 72.9111 305.387 72.5699 305.198 72.2061C305.031 71.8802 304.877 71.5426 304.723 71.2051C304.657 71.0552 304.603 70.9059 304.538 70.7439C304.765 71.3416 304.603 70.9181 304.572 70.7944C304.356 69.9896 304.175 69.211 304.058 68.3866C304.029 68.2264 304.038 67.7993 304.053 68.4719C304.049 68.3129 304.033 68.1411 304.029 67.9821C304.023 67.6153 304.029 67.2492 304.048 66.8715C304.067 66.4937 304.134 66.1428 304.165 65.7657C304.096 66.3975 304.117 65.9832 304.162 65.8266C304.235 65.586 304.285 65.3198 304.394 65.0932C304.136 65.6177 304.348 65.2863 304.414 65.1797C303.819 66.0904 304.632 64.9707 304.194 65.4252C303.833 65.798 304.313 65.2479 304.406 65.3381C304.43 65.3515 303.651 65.5323 304.269 65.3923C304.491 65.3424 304.916 65.156 305.132 65.2279L304.764 65.2583C304.874 65.2638 304.997 65.2456 305.107 65.2511C305.339 65.2505 305.571 65.2499 305.79 65.2609C306.448 65.2939 307.115 65.3884 307.77 65.4824C307.928 65.5025 308.097 65.5354 308.255 65.5556C309.056 65.669 307.821 65.4483 308.304 65.558C308.751 65.6537 309.186 65.7488 309.632 65.8689C309.945 65.9579 310.258 66.0591 310.57 66.1603C310.726 66.217 310.87 66.273 311.026 66.3297C311.038 66.3303 311.78 66.6363 311.338 66.4431C310.896 66.2499 311.599 66.5905 311.623 66.604C311.765 66.6844 311.896 66.7642 312.026 66.8441C312.157 66.9239 312.286 67.0159 312.416 67.1079C312.57 67.2133 312.998 67.6868 312.558 67.2005C312.766 67.443 312.999 67.6624 313.219 67.9055C313.763 68.5069 313.122 67.6442 313.333 68.0579C313.433 68.2583 313.57 68.4606 313.682 68.6617C313.849 68.9876 314.003 69.3252 314.144 69.6743C314.221 69.8492 314.285 70.0234 314.35 70.1977C314.123 69.6 314.38 70.3213 314.422 70.4578C314.548 70.8794 314.624 71.3108 314.712 71.7427C314.694 71.6197 314.719 71.1201 314.714 71.7062C314.705 71.8768 314.697 72.0474 314.688 72.2179C314.658 72.8272 314.652 72.2161 314.704 72.1454C314.233 72.7692 315.025 71.8317 314.701 72.2185C314.61 72.3239 314.276 72.637 314.581 72.408C314.736 72.2326 314.712 72.2313 314.507 72.4287C314.81 72.224 314.873 72.1905 314.684 72.3032C314.559 72.358 314.304 72.5773 314.17 72.5584L314.481 72.4519C314.332 72.5054 314.183 72.5468 314.035 72.5883C313.651 72.6912 313.268 72.7697 312.886 72.8482C311.973 73.0223 311.062 73.1599 310.153 73.2609C309.539 73.3278 309.993 73.2773 310.129 73.2596C309.847 73.27 309.565 73.2925 309.284 73.2906C308.82 73.2917 308.356 73.2807 307.894 73.2453C307.662 73.2337 307.445 73.1861 307.214 73.1623C306.984 73.1264 307.032 73.141 307.347 73.1812C307.215 73.1501 307.082 73.1191 306.95 73.0758C306.769 73.0301 306.601 72.9728 306.432 72.9155C306.3 72.8722 305.453 72.4754 306.013 72.76C304.596 72.0294 302.685 72.129 301.791 73.6477C301.017 74.9525 301.166 77.0855 302.678 77.8698C304.929 79.0332 307.3 79.4941 309.824 79.3398C312.139 79.1994 314.608 78.9323 316.778 78.0517C319.222 77.0505 320.833 74.6516 320.794 72.0111C320.766 69.6522 319.927 67.1304 318.671 65.1374C316.114 61.088 311.599 59.7744 307.093 59.2553C305.077 59.0198 302.801 59.1011 301.035 60.2218C298.701 61.7049 297.996 64.2959 297.901 66.9296C297.728 72.0758 300.033 76.7844 303.887 80.0803C305.105 81.1186 307.335 80.4854 308.109 79.1927C309.043 77.6149 308.521 76.0863 307.221 74.9705L307.281 74.9858Z" fill="black"/>
<path d="M325.578 61.1348C321.723 64.203 320.165 69.9515 322.855 74.2763C324.2 76.4448 326.238 77.9395 328.752 78.4687C329.429 78.6126 330.119 78.7327 330.799 78.8279C331.805 78.9761 330.208 78.6639 331.259 78.912C331.536 78.9748 331.814 79.0376 332.079 79.112C333.49 79.4759 334.899 79.8886 336.358 80.0228C337.647 80.1363 339.01 79.9849 340.187 79.4209C341.576 78.7576 342.6 77.5753 343.469 76.3362C345.034 74.1182 345.997 71.4791 345.706 68.7528C345.442 66.2232 343.792 64.0394 342.01 62.3132C340.076 60.4449 337.86 59.0878 335.167 58.7085C332.268 58.2944 328.544 59.4879 327.513 62.5023C326.368 65.8407 329.094 68.2494 331.925 69.2709C333.425 69.8103 335.34 68.8925 335.785 67.3268C336.23 65.7612 335.449 64.0485 333.841 63.467C333.637 63.3957 332.889 62.9673 333.468 63.3506C333.338 63.2708 333.196 63.1782 333.065 63.1105C332.994 63.0703 332.725 62.8247 333.005 63.0831C333.32 63.3798 332.949 62.7382 333.086 63.1727C333.16 63.4084 333.309 63.5992 333.332 63.8691C333.348 64.0409 333.351 64.2242 333.306 64.393C333.274 64.5502 333.218 64.6818 333.102 64.7981C332.959 64.9742 332.997 64.9516 333.202 64.7543C333.205 64.6933 332.828 65.163 333.099 64.8712C333.318 64.6379 332.779 64.9162 333.137 64.8365C333.322 64.7969 334.135 64.6667 333.584 64.7001C333.963 64.6825 334.34 64.7136 334.729 64.7575C334.206 64.7069 334.644 64.7411 334.764 64.7837C334.993 64.8563 335.222 64.9166 335.45 65.0013C335.51 65.0288 336.047 65.2756 335.761 65.1269C335.499 64.9916 335.927 65.2329 335.939 65.2335C336.283 65.4462 336.613 65.6705 336.944 65.9069C337.003 65.9465 337.389 66.2713 337.05 65.9733C337.202 66.1031 337.354 66.2451 337.494 66.3864C337.785 66.6698 338.063 66.9647 338.329 67.259C338.596 67.5533 338.86 67.872 339.101 68.1894C339.147 68.2528 339.395 68.6683 339.169 68.2906C339.248 68.4167 339.328 68.5428 339.394 68.6805C339.428 68.7433 339.68 69.3056 339.562 68.9943C339.443 68.683 339.621 69.266 339.643 69.3282C339.672 69.4762 339.702 69.6121 339.719 69.7595C339.652 69.1332 339.669 70.0258 339.665 70.0989C339.664 70.1232 339.603 70.5966 339.656 70.2694C339.723 69.9064 339.583 70.5101 339.567 70.5826C339.465 70.9195 339.351 71.2436 339.213 71.5664C339.392 71.1479 339.211 71.603 339.158 71.6737C339.064 71.8522 338.957 72.03 338.851 72.1957C338.612 72.5868 338.361 72.9529 338.087 73.3178C338.048 73.3647 337.645 73.8332 337.865 73.5999C338.059 73.3897 337.711 73.7388 337.711 73.7388C337.263 74.1438 337.52 73.888 337.634 73.8204C337.104 74.1481 337.483 73.9105 337.571 73.8539C337.508 73.8996 336.944 73.9446 337.532 73.9008C337.348 73.916 337.141 73.9056 336.946 73.8958C336.788 73.8879 336.641 73.8805 336.484 73.8482C336.362 73.8421 335.733 73.725 336.12 73.7933C334.223 73.3928 332.379 72.8972 330.465 72.5691C330.913 72.6527 330.019 72.4612 329.886 72.418C329.682 72.3588 329.491 72.2638 329.298 72.2174C328.935 72.1382 329.321 72.243 329.404 72.2838C329.108 72.1102 328.836 71.9377 328.565 71.7287C328.67 71.8195 328.948 72.1388 328.602 71.7305C328.463 71.577 328.337 71.3997 328.186 71.2577C327.953 71.0262 328.231 71.3333 328.265 71.3838C328.142 71.1578 328.005 70.9555 327.895 70.7179C327.84 70.6052 327.797 70.4809 327.742 70.3681C327.586 70.0672 327.841 70.8251 327.722 70.2695C327.693 70.1092 327.653 69.9362 327.612 69.7753C327.429 69.0576 327.571 70.1153 327.579 69.7126C327.587 69.3099 327.584 68.8822 327.642 68.4576C327.622 68.6032 327.493 68.9876 327.668 68.4344C327.74 68.206 327.8 67.9891 327.885 67.7612C327.94 67.6297 327.983 67.4975 328.051 67.3665C327.803 67.916 328.222 67.1186 328.248 67.0832C328.341 66.9413 328.954 66.1658 328.605 66.5392C328.928 66.189 329.286 65.8771 329.655 65.578C330.915 64.5784 330.975 62.3949 329.872 61.2646C328.651 60.0307 326.906 59.9921 325.558 61.0483L325.578 61.1348Z" fill="black"/>
<path d="M361.783 59.946C359.807 59.1629 357.408 59.4945 355.641 60.6396C353.532 62.0119 352.362 64.1398 351.995 66.6011C351.665 68.7955 352.226 70.998 353.115 72.997C354.081 75.1709 355.415 77.0701 357.651 78.0251C359.888 78.9802 362.296 78.9421 364.605 78.7037C366.729 78.4804 368.832 77.9507 370.548 76.6198C373.866 74.0377 373.778 69.2083 373.296 65.434C372.999 63.0738 371.775 60.9236 369.634 59.7779C367.492 58.6322 365.099 57.8892 362.803 57.1388C361.289 56.6476 359.402 57.4935 358.943 59.0829C358.485 60.6724 359.265 62.4094 360.888 62.9427C362.51 63.4761 363.974 63.9893 365.483 64.5902C365.771 64.7024 366.058 64.8267 366.345 64.9388C366.86 65.1479 366.394 64.9535 366.299 64.8998C366.441 64.9803 366.584 65.0485 366.714 65.1405C366.844 65.2326 366.974 65.3124 367.103 65.4166C366.609 65.0376 366.939 65.274 367.018 65.4123C366.643 64.856 366.894 65.1984 366.961 65.3361C366.959 65.3605 367.293 66.0125 367.107 65.5878C366.943 65.2009 367.116 65.6493 367.147 65.7608C367.188 65.9095 367.218 66.0575 367.246 66.2178C367.275 66.378 367.304 66.526 367.321 66.6857C367.339 66.7965 367.412 67.301 367.348 66.8703C367.284 66.4395 367.344 66.9434 367.363 67.0543C367.367 67.2133 367.384 67.3607 367.389 67.5197C367.408 67.8749 367.426 68.2301 367.421 68.5841C367.426 69.2195 367.418 69.8543 367.338 70.4855C367.332 70.6073 367.302 70.7158 367.283 70.837C367.237 71.2744 367.444 70.3076 367.29 70.7152C367.204 70.9674 367.166 71.4785 366.973 71.6765C367.306 71.3512 367.16 71.3439 367.003 71.5559C366.977 71.5912 366.815 71.9007 366.753 71.922C367.04 71.802 367.06 71.6442 366.806 71.8391C366.679 71.9305 366.563 72.0468 366.436 72.1504C366.945 71.7484 366.238 72.2015 366.037 72.3014C365.862 72.3782 365.556 72.3994 366.099 72.2801C365.902 72.3191 365.703 72.3946 365.505 72.4457C364.862 72.5967 364.209 72.6984 363.546 72.775C362.931 72.8541 363.337 72.8012 363.472 72.7835C363.276 72.7981 363.081 72.8005 362.884 72.8151C362.444 72.8297 362.005 72.8199 361.554 72.7851C361.359 72.7753 361.166 72.729 360.971 72.7192C360.483 72.7069 361.381 72.8374 360.91 72.7161C360.573 72.6259 360.226 72.4863 359.887 72.4205C359.476 72.3388 360.265 72.6837 359.922 72.4589C359.827 72.3931 359.709 72.3139 359.602 72.2596C359.995 72.4504 359.799 72.465 359.638 72.2736C359.534 72.1463 359.197 71.5675 359.487 72.1195C359.174 71.5297 358.823 70.9746 358.549 70.3623C358.471 70.1996 358.407 70.0254 358.33 69.8627C358.13 69.4496 358.443 70.2837 358.331 69.8383C358.228 69.4423 358.101 69.0572 358.023 68.6624C357.995 68.49 357.968 68.3054 357.94 68.133C358.055 68.7617 357.959 68.2439 357.956 68.0605C357.964 67.9021 357.972 67.7315 357.98 67.5731C357.986 67.4513 357.992 67.3294 358.011 67.2082L357.946 67.5225C357.902 67.1905 358.197 66.6678 358.31 66.3559C358.255 66.4753 358.003 66.8658 358.306 66.429C358.398 66.2993 358.503 66.1701 358.583 66.0276C358.329 66.4546 358.39 66.2255 358.543 66.0867C358.621 66.005 358.71 65.9362 358.799 65.8674C358.977 65.7297 358.914 65.7632 358.61 65.9801C358.65 65.9088 358.949 65.7894 358.999 65.7675C359.477 65.4983 358.654 65.8235 358.987 65.7669C359.123 65.737 359.283 65.7084 359.42 65.6664C359.73 65.572 358.751 65.6084 359.371 65.664C359.444 65.6676 359.771 65.7207 359.809 65.6982L359.433 65.6427C359.577 65.6865 359.71 65.7298 359.853 65.7859C361.339 66.3734 363.282 65.3715 363.713 63.8418C364.187 62.1799 363.362 60.6116 361.769 59.982L361.783 59.946Z" fill="black"/>
<path d="M385.048 60.7827C382.457 62.0209 380.806 64.7354 380.591 67.5586C380.365 70.6133 382.103 73.4611 384.663 75.0309C387.223 76.6007 390.55 76.9875 393.605 76.9818C394.838 76.9826 395.89 76.7178 396.88 75.9734C397.692 75.3668 398.163 74.4987 398.575 73.591C399.275 72.0625 399.454 70.1904 398.936 68.5886C398.353 66.8126 397.189 65.4349 396.001 64.0317C394.894 62.718 393.799 61.4049 392.692 60.1034C391.666 58.8793 389.535 58.7602 388.379 59.8871C387.17 61.0846 387.068 62.8874 388.162 64.2004C389.661 65.9735 391.211 67.7125 392.646 69.5435C392.727 69.6453 392.806 69.7592 392.887 69.861C393.127 70.1784 392.594 69.3577 392.772 69.7086C392.872 69.9091 392.984 70.1102 393.096 70.3112C393.276 70.6256 392.978 70.4763 393.033 70.1126C393.029 70.1857 393.095 70.3356 393.104 70.3971L393.124 70.4958C393.159 70.7663 393.171 70.767 393.136 70.4964C393.113 70.2266 393.113 70.2266 393.124 70.4958L393.113 70.703C393.124 70.9723 392.924 71.06 393.172 70.5105C393.131 70.5939 393.125 70.7158 393.096 70.812C393.05 70.9808 392.851 71.3128 392.854 71.4962C392.845 71.1781 393.109 71.0326 392.936 71.3049C392.936 71.3049 392.753 71.5522 392.751 71.5887C392.753 71.5522 393.28 71.0289 392.909 71.3646C393.114 71.1794 393.379 70.9973 393.651 70.9376C394.307 70.775 394.153 70.9261 393.897 70.9011C393.763 70.8944 393.617 70.887 393.482 70.8925C393.214 70.8791 392.946 70.8778 392.69 70.865C392.081 70.8344 391.471 70.8039 390.863 70.7489C390.596 70.7233 390.341 70.6861 390.074 70.6483C389.504 70.5708 390.133 70.6879 390.207 70.6794C390.085 70.6733 389.881 70.6141 389.76 70.5837C389.241 70.4599 388.737 70.288 388.246 70.0802C388.163 70.0394 387.852 69.9016 388.27 70.0936C388.688 70.2856 388.33 70.1088 388.223 70.0546C388.033 69.9474 387.855 69.8407 387.678 69.7219C387.571 69.6555 387.477 69.5775 387.383 69.5116C387.183 69.3672 387.179 69.196 387.558 69.667C387.409 69.4885 387.209 69.3319 387.059 69.1534C386.989 69.0766 386.911 68.9383 386.829 68.8731C386.829 68.8731 387.168 69.4154 387.023 69.1393C386.911 68.9383 386.8 68.7128 386.688 68.5118C386.542 68.2601 386.815 68.8968 386.816 68.8847C386.82 68.7994 386.753 68.6738 386.733 68.5873C386.682 68.3893 386.681 68.1694 386.617 67.9708C386.816 68.6282 386.647 68.5952 386.661 68.315C386.668 68.181 386.674 68.0591 386.681 67.9251C386.686 67.8154 386.691 67.7179 386.709 67.6089C386.738 67.2683 386.933 67.2781 386.659 67.8751C386.741 67.696 386.765 67.4651 386.836 67.2732C386.865 67.177 386.918 67.0819 386.948 66.9857C387.118 66.5178 386.63 67.4828 386.839 67.2001C386.957 67.035 387.065 66.845 387.171 66.6671C387.238 66.5605 387.496 66.2925 387.159 66.6665C386.797 67.0636 387.133 66.7018 387.223 66.6208C387.364 66.4813 387.565 66.3692 387.695 66.2169C387.305 66.6738 387.19 66.5337 387.441 66.3997C387.579 66.3333 387.717 66.2547 387.855 66.1883C389.294 65.5032 389.958 63.4721 389.161 62.0762C388.318 60.6047 386.587 60.0415 385.048 60.7706L385.048 60.7827Z" fill="black"/>
<path d="M418.097 59.1789C416.027 58.8064 413.846 58.7092 411.948 59.7744C409.949 60.8957 408.68 63.0675 407.927 65.1674C407.174 67.2673 407.079 69.6567 407.911 71.8239C408.602 73.6298 410.093 75.0849 411.796 75.9399C413.679 76.8894 415.709 77.3332 417.816 77.4511C419.923 77.569 422.131 77.3866 424.13 76.7539C426.128 76.1212 428.252 74.9451 429.352 72.9725C430.398 71.1194 430.669 68.8732 430.088 66.8163C428.749 62.0951 424.435 59.7044 419.958 58.6126C418.413 58.242 416.573 58.8826 416.098 60.5567C415.682 62.0383 416.377 64.0032 418.042 64.4165C418.694 64.5714 419.357 64.7512 419.994 64.9664C420.318 65.0681 420.63 65.1815 420.954 65.3077C421.11 65.3644 421.265 65.4332 421.42 65.5021C422.174 65.8208 420.91 65.1956 421.611 65.5972C421.86 65.744 422.122 65.8793 422.358 66.0499C422.5 66.1426 422.63 66.2346 422.771 66.3394C422.842 66.3918 423.265 66.7184 422.96 66.471C422.655 66.2236 423.065 66.574 423.122 66.638C423.239 66.7537 423.355 66.8695 423.459 66.9969C423.563 67.112 423.643 67.226 423.747 67.3411C423.478 66.8634 423.978 67.6092 423.747 67.3411C423.848 67.5172 424.18 67.9492 424.146 68.1429C424.185 67.8639 424.011 67.6842 424.103 68.0308C424.144 68.1795 424.186 68.316 424.216 68.464C424.245 68.6121 424.274 68.7601 424.304 68.896C424.421 69.4882 424.249 68.7833 424.3 68.737C424.274 68.7601 424.306 69.1037 424.302 69.1768C424.297 69.2865 424.291 69.3962 424.286 69.5058C424.262 69.7367 424.278 69.652 424.348 69.2402C424.461 69.4169 424.035 69.8719 424.075 70.0572C424.055 69.9706 424.423 69.4516 424.106 69.9243C424.027 70.0425 423.837 70.4117 424.194 69.8677C424.141 69.9505 423.612 70.5104 423.516 70.4811C423.479 70.4793 424.019 70.2009 423.681 70.355C423.506 70.4317 423.342 70.5456 423.178 70.6352C423.041 70.7016 422.891 70.7673 422.754 70.8215C422.154 71.0846 422.828 70.8008 422.829 70.7887C422.774 70.9081 422.048 71.006 421.925 71.0365C421.579 71.1168 421.233 71.185 420.888 71.241C420.691 71.2678 420.495 71.2946 420.298 71.3214C419.363 71.4455 420.872 71.3135 419.93 71.3518C419.134 71.3851 418.353 71.3826 417.562 71.3063C417.477 71.302 416.456 71.202 416.458 71.1654C416.459 71.1532 417.231 71.3386 416.603 71.1849C416.423 71.1392 416.241 71.1057 416.049 71.0472C415.759 70.9716 415.47 70.8838 415.183 70.7716C415.039 70.7156 414.907 70.6601 414.764 70.604C414.44 70.4901 414.968 70.6754 414.966 70.7119C414.968 70.6754 414.278 70.2987 414.207 70.2585C414.136 70.2183 413.91 70.0848 413.854 69.9965C414.147 70.2433 414.205 70.2951 414.042 70.1403C413.96 70.0629 413.891 69.9861 413.821 69.9094C413.775 69.8582 413.57 69.5669 413.545 69.5779C413.654 69.5834 413.856 70.1921 413.639 69.6559C413.573 69.506 413.494 69.3677 413.428 69.2178C413.483 69.3549 413.559 69.7863 413.486 69.2818C413.477 69.2203 413.375 68.8242 413.4 68.8133C413.425 68.8023 413.397 69.5949 413.419 68.912C413.427 68.7536 413.423 68.5946 413.444 68.4246C413.448 68.3393 413.507 67.646 413.46 68.0956C413.427 68.5093 413.477 67.9987 413.507 67.8903C413.554 67.685 413.613 67.4925 413.684 67.2884C413.741 67.1325 413.797 66.9765 413.854 66.8205C413.896 66.7249 414.25 65.9853 413.913 66.628C414.088 66.2948 414.264 65.9616 414.474 65.6546C414.567 65.5126 414.671 65.3835 414.764 65.2415C414.989 64.8864 414.302 65.6826 414.84 65.1843C414.994 65.0454 415.242 64.9723 414.803 65.1824C414.891 65.138 415.501 64.9242 415.092 65.0259C414.684 65.1276 415.214 65.032 415.301 64.9998C415.625 64.8816 414.765 64.9729 415.338 64.9894C416.181 64.995 417.006 65.1097 417.829 65.2609C419.403 65.5475 421.026 63.8699 421.028 62.3675C421.034 60.5355 419.829 59.4734 418.135 59.1686L418.097 59.1789Z" fill="black"/>
<path d="M446.368 58.8501C444.297 58.9905 442.158 59.2497 440.224 60.0689C438.289 60.888 437.413 63.0184 436.779 64.9288C436.091 66.9709 435.922 69.1123 436.725 71.1315C437.484 73.0385 439.143 74.3066 440.985 75.0952C442.611 75.7876 444.43 76.062 446.165 76.2956C448.081 76.5627 450.029 76.6971 451.95 76.3903C456.125 75.708 459.317 71.7393 457.856 67.5128C456.523 63.647 453.279 60.6137 449.396 59.3562C447.882 58.865 445.996 59.6987 445.537 61.3003C445.078 62.902 445.846 64.6262 447.481 65.1602C447.733 65.2461 447.985 65.332 448.237 65.4302C448.261 65.4314 448.561 65.5441 448.56 65.5685C448.56 65.5563 448.048 65.2864 448.464 65.5271C448.963 65.8086 449.461 66.1023 449.92 66.4552C449.967 66.4942 450.181 66.6148 450.19 66.6642C450.161 66.5161 449.817 66.3156 450.12 66.6118C450.305 66.8043 450.504 66.9853 450.689 67.19C450.874 67.3947 451.048 67.5867 451.208 67.8024C451.277 67.8913 451.345 67.9925 451.414 68.0814C451.644 68.3739 451.132 67.6153 451.413 68.1058C451.547 68.3446 451.683 68.5713 451.805 68.8095C451.883 68.96 452.175 69.7076 451.974 69.0989C452.005 69.2104 452.234 69.7472 452.169 69.8416L452.147 69.5352L452.134 69.7911C452.181 69.5858 452.186 69.2562 452.167 69.6339C452.138 70.2066 452.258 69.5285 452.258 69.5285C452.255 69.5894 452.045 69.8721 452.019 69.8952C451.729 70.3326 452.35 69.6309 451.93 69.9641C451.841 70.0329 451.699 70.1968 451.586 70.2522C451.61 70.2534 452.063 69.9952 451.752 70.1139C451.615 70.1681 451.476 70.2467 451.351 70.3137C451.049 70.4818 451.77 70.237 451.376 70.3027C451.08 70.349 450.783 70.4318 450.475 70.4896C450.327 70.5188 449.9 70.5096 450.499 70.4908C450.365 70.4841 450.23 70.5018 450.107 70.5078C449.423 70.5223 448.741 70.4759 448.06 70.4052C447.38 70.3344 446.687 70.263 446.009 70.1557C445.863 70.1362 445.718 70.1045 445.572 70.0849C445.075 70.0111 445.995 70.1794 445.499 70.0813C445.173 70.016 444.834 69.9502 444.509 69.8606C443.978 69.724 443.487 69.5284 442.97 69.3681C442.634 69.2535 443.16 69.4753 443.172 69.4759C443.075 69.471 442.852 69.2889 442.78 69.2486C442.685 69.195 442.604 69.1176 442.509 69.064C442.211 68.9025 442.936 69.5496 442.509 69.064C442.439 68.9872 442.371 68.8861 442.289 68.8209C442.009 68.5503 442.485 69.2949 442.358 68.8976C442.337 68.8355 442.176 68.632 442.204 68.5723C442.204 68.5723 442.4 69.2906 442.261 68.6363C442.143 68.0684 442.214 69.0981 442.232 68.5004C442.246 68.2202 442.206 67.7906 442.317 67.5275C442.083 68.0532 442.268 67.7815 442.326 67.6012C442.37 67.4446 442.415 67.2759 442.472 67.1077C442.589 66.7349 442.717 66.3749 442.869 66.016C442.995 65.7047 443.145 65.3947 443.27 65.0834C443.41 64.7361 443.175 65.2862 443.161 65.31C443.389 64.9061 443.084 65.3794 442.907 65.5049C442.881 65.528 442.506 65.7168 442.506 65.7047C442.509 65.6437 443.114 65.5275 443.176 65.5061C443.535 65.4142 443.893 65.3223 444.252 65.2425C444.61 65.1628 444.979 65.108 445.348 65.0532C445.484 65.0356 445.619 65.0179 445.766 65.0009C446.664 64.8749 445.154 65.0312 446.061 64.9668C447.642 64.8629 449.256 63.8567 449.26 62.0734C449.274 60.5838 448.071 58.7523 446.367 58.8745L446.368 58.8501Z" fill="black"/>
<path d="M474.443 59.4886C473.277 60.0898 471.99 60.4283 470.845 61.0916C469.197 62.035 467.831 63.469 467.333 65.3496C466.88 67.0859 466.76 69.2298 467.148 70.9838C467.624 73.1942 469.294 74.7316 471.439 75.3155C473.283 75.8111 475.209 76.1276 477.1 76.4179C478.834 76.6759 480.674 77.0125 482.415 76.6356C486.404 75.7729 488.54 71.4215 487.68 67.616C486.751 63.5017 483.272 61.0064 479.842 59.0142C478.465 58.2123 476.487 58.4307 475.62 59.9019C474.819 61.2542 475.036 63.2684 476.507 64.124C477.623 64.7663 478.739 65.4208 479.762 66.2051C479.868 66.2837 479.962 66.3617 480.068 66.4403C479.755 66.107 480.421 66.7145 480.068 66.4403C480.265 66.6456 480.475 66.8394 480.673 67.0447C480.87 67.2501 481.018 67.4773 481.203 67.6821C481.479 68.0135 480.968 67.2428 481.157 67.6309C481.223 67.7686 481.314 67.9075 481.392 68.0458C481.459 68.1713 481.778 68.6393 481.733 68.7958C481.767 68.6143 481.61 68.3255 481.688 68.7203C481.717 68.8683 481.758 69.0292 481.787 69.1772C481.809 69.2394 481.886 69.6464 481.809 69.2272C481.733 68.808 481.808 69.2637 481.801 69.3856C481.796 69.4952 481.791 69.5927 481.786 69.7024C481.77 70.2635 481.929 69.2699 481.814 69.6183C481.772 69.7383 481.695 70.2842 481.584 70.3152C481.559 70.314 481.984 69.6512 481.64 70.1593C481.587 70.2421 481.534 70.3372 481.469 70.4194C481.363 70.5851 481.1 70.7063 481.402 70.526C481.704 70.3457 481.467 70.456 481.378 70.5248C481.302 70.5821 481.099 70.7307 481.059 70.7898C481.205 70.5528 481.519 70.6296 481.176 70.6612C480.697 70.7105 481.257 70.7508 481.349 70.6089C481.322 70.6564 480.844 70.7057 480.855 70.7185C480.843 70.7178 481.441 70.7234 481.039 70.7033C480.868 70.6947 480.697 70.6983 480.527 70.6898C479.857 70.6562 479.189 70.5616 478.522 70.4793C477.854 70.3969 477.223 70.3042 476.57 70.1859C476.388 70.1524 476.194 70.1182 476.012 70.0969C475.976 70.0951 475.516 70.0109 475.855 70.0646C476.23 70.1323 475.649 70.0298 475.565 70.0012C475.335 69.953 475.106 69.9049 474.876 69.8567C474.296 69.7299 473.703 69.6146 473.137 69.4519C473.041 69.4226 472.922 69.3678 472.825 69.3507C472.438 69.2702 473.262 69.6536 472.943 69.4299C472.919 69.4165 472.696 69.2465 472.671 69.2575C472.82 69.2039 473.212 69.9076 473.078 69.6566C472.889 69.2928 473.149 70.1854 473.122 69.7687C473.115 69.6584 473.072 69.5463 473.053 69.4354C472.926 68.8061 473.108 69.5481 473.047 69.5573C473.047 69.5573 473.038 69.2392 473.039 69.2149C473.036 68.5429 473.107 67.8746 473.116 67.2032C473.135 66.8133 473.082 67.3847 473.07 67.3841C473.027 67.272 473.216 66.915 473.259 66.7828C473.349 66.4575 473.229 66.8913 473.191 66.926C473.244 66.8431 473.297 66.7603 473.362 66.6781C473.466 66.5489 473.441 66.5721 473.297 66.7481L473.168 66.9004C473.232 66.8304 473.309 66.7609 473.385 66.7037C473.616 66.4953 473.821 66.5301 473.286 66.7353C473.522 66.6495 473.752 66.4533 473.978 66.3303C475.031 65.7968 476.171 65.4631 477.225 64.9174C478.641 64.1944 479.351 62.2267 478.53 60.8052C477.71 59.3837 475.935 58.7328 474.418 59.4996L474.443 59.4886Z" fill="black"/>
<path d="M510.642 64.9931C511.111 65.1388 511.592 65.2973 512.06 65.4673C512.275 65.5514 512.49 65.6477 512.707 65.7197C513.055 65.847 512.491 65.6356 512.517 65.6124C512.554 65.5899 512.874 65.8013 512.921 65.8281C513.147 65.9616 513.358 66.131 513.584 66.2523C513.881 66.4259 513.394 66.1328 513.421 66.0975C513.421 66.0975 513.642 66.3162 513.666 66.3297C513.747 66.4192 514.136 66.9274 513.944 66.6246C513.683 66.2206 514.353 67.4757 514.155 67.0383C514.013 66.7135 514.165 67.0876 514.186 67.1498C514.217 67.2734 514.259 67.3977 514.29 67.5214C514.351 67.7688 514.412 68.0161 514.472 68.2635C514.543 68.5724 514.612 68.8935 514.67 69.2018C514.7 69.3376 514.704 69.4844 514.734 69.6325C514.812 70.0273 514.8 69.2816 514.732 69.669C514.713 69.8025 514.717 69.9615 514.71 70.0955C514.712 70.0711 514.781 69.6593 514.718 69.9493C514.64 70.2874 514.79 69.7208 514.839 69.7233C514.839 69.7233 514.668 69.9712 514.667 69.9956C514.478 70.3404 515.061 69.6734 514.745 69.8896C514.732 69.9012 514.502 70.1095 514.502 70.1095C514.491 70.0845 515.005 69.8171 514.692 69.9846C514.566 70.0516 514.44 70.1308 514.302 70.1972C514.202 70.241 514.102 70.2849 514.002 70.3287C514.077 70.2959 514.41 70.2392 514.103 70.2727C513.796 70.3062 513.485 70.4249 513.165 70.47C512.956 70.4961 512.342 70.5509 512.894 70.5174C512.563 70.5375 512.232 70.5575 511.89 70.5648C510.568 70.6206 509.248 70.6278 507.932 70.5618C507.676 70.5489 507.432 70.5367 507.178 70.4995C507.056 70.4934 506.923 70.4623 506.801 70.4562C506.411 70.4366 506.995 70.4903 506.995 70.4903C506.833 70.5555 506.31 70.2727 506.165 70.241C505.851 70.1642 506.272 70.2953 506.319 70.3343C506.189 70.2423 506.047 70.1496 505.905 70.0692C506.524 70.3812 505.707 70.1081 505.802 69.9297C505.802 69.9175 506.082 70.4201 505.903 70.0936C505.847 69.993 505.779 69.8919 505.724 69.7792C505.668 69.6664 505.544 69.4648 505.526 69.3417C505.524 69.3661 505.658 69.8614 505.602 69.5166C505.567 69.2461 505.471 68.9725 505.423 68.7014C505.425 68.677 505.388 68.1987 505.396 68.5168C505.403 68.8592 505.409 68.0166 505.408 68.041C505.425 67.6998 505.443 67.3464 505.46 67.0053C505.466 66.8712 505.46 66.028 505.56 65.972L505.515 66.1529C505.491 66.3838 505.384 66.5739 505.192 66.7353C504.936 67.2233 504.518 67.5199 503.938 67.6252L504.099 67.5966C504.099 67.5966 503.403 67.5862 503.718 67.6386C503.827 67.6441 503.961 67.6508 504.084 67.6448C504.291 67.6551 504.499 67.6412 504.708 67.6272C505.86 67.5506 506.766 67.2662 507.669 66.542C508.917 65.5418 508.99 63.3589 507.886 62.2286C506.665 60.9947 504.909 60.9433 503.572 62.0123C503.789 61.8399 504.079 61.6468 504.364 61.5756C505.056 61.4148 504.915 61.5543 504.658 61.5537C504.402 61.553 504.121 61.539 503.852 61.5499C502.751 61.5802 501.652 61.8182 500.831 62.6077C499.356 64.0118 499.26 66.4134 499.321 68.3465C499.391 70.3777 499.884 72.2225 501.109 73.8597C502.334 75.4969 504.193 76.1765 506.095 76.504C507.633 76.7644 509.247 76.7354 510.801 76.6911C512.757 76.6427 514.68 76.5437 516.523 75.8421C518.366 75.1406 519.704 73.7907 520.414 72.0551C521.124 70.3195 520.765 68.237 520.306 66.4306C519.787 64.3402 518.812 62.6056 517.095 61.2735C515.778 60.2547 514.145 59.6842 512.57 59.1898C510.995 58.6955 509.169 59.5323 508.71 61.1339C508.251 62.7355 509.019 64.472 510.654 64.9937L510.642 64.9931Z" fill="black"/>
<path d="M535.175 59.7862C532.242 61.9967 531.503 66.5037 532.495 69.876C533.726 74.0665 537.467 76.1963 541.608 76.685C543.551 76.9046 545.62 76.8251 547.562 76.5805C549.504 76.3359 551.621 75.2816 552.688 73.5028C553.915 71.4389 553.516 69.1712 552.805 67.0223C552.286 65.445 551.719 63.8407 550.811 62.4515C549.563 60.5444 547.965 59.0473 545.795 58.23C543.853 57.4974 541.703 57.4873 539.667 57.6539C538.821 57.7214 538.131 57.8456 537.466 58.4352C536.916 58.9329 536.47 59.79 536.468 60.5473C536.455 62.0247 537.657 63.8806 539.362 63.7463C540.012 63.6933 540.649 63.652 541.297 63.6478C541.602 63.6509 541.895 63.6534 542.2 63.6687C542.37 63.6773 542.541 63.6858 542.71 63.7187C542.795 63.723 543.497 63.8681 543.062 63.7608C542.652 63.6669 543.182 63.8035 543.278 63.8328C543.399 63.8632 543.519 63.9059 543.64 63.9364C543.796 63.9931 543.952 64.0497 544.107 64.1186C543.987 64.0759 543.597 63.8121 544.083 64.1174C544.308 64.2508 544.508 64.4075 544.733 64.5531C545.088 64.7664 544.361 64.168 544.639 64.4751C544.767 64.6037 544.895 64.7322 545.023 64.8608C545.196 65.0527 545.345 65.2556 545.518 65.4598C545.783 65.7784 545.248 64.9943 545.449 65.3708C545.505 65.4713 545.574 65.5603 545.63 65.6608C545.946 66.1775 546.212 66.7283 546.44 67.2894C546.528 67.4893 546.787 67.9176 546.775 68.1491C546.778 68.0882 546.552 67.4905 546.732 68.0492C546.763 68.1607 546.806 68.2606 546.838 68.3721C547.049 69.0179 547.161 69.7198 547.398 70.3547C547.538 70.7281 547.501 69.9934 547.397 70.3668C547.293 70.7403 547.489 70.2371 547.477 70.2365L547.403 70.5015L547.565 70.1798C547.259 70.6775 547.677 70.1366 547.691 70.1128C547.676 70.1731 547.359 70.3894 547.37 70.4144C547.348 70.3766 547.873 70.1342 547.56 70.2773C547.436 70.3321 547.297 70.4107 547.172 70.4777C546.945 70.6129 547.665 70.3925 547.123 70.4752C546.827 70.5215 546.531 70.5799 546.235 70.6384C545.779 70.7254 546.737 70.6269 546.272 70.6402C546.101 70.6438 545.929 70.6597 545.758 70.6633C544.999 70.6985 544.24 70.7215 543.483 70.708C542.763 70.6963 542.058 70.6365 541.354 70.5402C541.912 70.617 541.113 70.467 540.933 70.4213C540.607 70.3317 540.284 70.2055 539.972 70.08C539.888 70.0513 539.592 69.8655 539.913 70.0525C540.281 70.2664 539.854 70.0129 539.771 69.9599C539.545 69.8265 539.333 69.6693 539.109 69.5114C538.614 69.1568 539.167 69.5754 539.191 69.5766C539.131 69.5736 538.901 69.2689 538.878 69.2555C538.808 69.1787 538.74 69.0776 538.658 69.0002C538.438 68.7693 538.878 69.4876 538.658 69.0002C538.592 68.8625 538.515 68.6998 538.436 68.5615C538.638 68.9259 538.488 68.7473 538.405 68.45C538.312 68.1155 538.28 67.7719 538.2 67.4259C538.101 66.9689 538.21 67.9516 538.195 67.5233C538.192 67.34 538.177 67.156 538.186 66.9732C538.188 66.6802 538.215 66.3883 538.23 66.0959C538.235 65.9984 538.247 65.7547 538.289 65.6591C538.002 66.2677 538.237 65.9619 538.31 65.7212C538.354 65.5769 538.397 65.4447 538.44 65.3125C538.468 65.2406 538.484 65.1803 538.512 65.1084C538.596 64.8927 538.555 64.9762 538.39 65.3344C538.401 65.1272 538.882 64.7849 538.841 64.6241C538.88 64.8215 538.418 65.0182 538.75 64.7417C538.916 64.6034 539.069 64.4645 539.235 64.3262C540.517 63.3644 540.544 61.1182 539.451 60.0129C538.207 58.7534 536.509 58.7659 535.138 59.7965L535.175 59.7862Z" fill="black"/>
<path d="M82.942 59.0195L107.108 39.9419L112.354 43.2344L95.9173 56.7752L91.9155 58.3824L82.942 59.0195Z" fill="black"/>
<path d="M134.172 58.0706L151.068 42.6839L158.799 42.693L144.452 58.1709L134.172 58.0706Z" fill="black"/>
<path d="M185.736 58.4825C194.043 52.1319 202.005 45.6051 202.846 43.2164C203.686 40.8277 212.227 41.7691 212.227 41.7691L197.114 58.3813L185.736 58.4825Z" fill="black"/>
<path d="M230.523 59.1039C230.523 59.1039 240.687 50.8065 244.111 47.3258L247.535 43.8451L248.627 41.0538L256.214 41.0312L242.744 58.4953L230.523 59.1039Z" fill="black"/>
<path d="M281.076 58.2558C288.366 50.4983 298.236 40.0239 298.236 40.0239L305.562 39.8539L290.008 58.435L281.076 58.2558Z" fill="black"/>
<path d="M331.462 57.8024L348.415 38.3508L355.199 38.2757L341.037 58.5636L331.462 57.8024Z" fill="black"/>
<path d="M383.561 58.5219L401.207 35.9779L408.273 35.3795C408.273 35.3795 397.921 52.0594 397.131 53.4368C396.341 54.8142 395.845 56.4139 395.791 57.4984C395.737 58.5828 393.132 59.124 393.132 59.124L383.549 58.5091L383.561 58.5219Z" fill="black"/>
<path d="M438.359 59.2423L456.093 32.5129L463.28 32.1893L450.306 58.7543L438.359 59.2423Z" fill="black"/>
<path d="M489.983 58.7168C498.064 48.8368 506.931 36.6875 507.689 34.9665C508.448 33.2455 510.854 28.6267 510.854 28.6267L517.483 28.6904C517.483 28.6904 509.128 49.3917 505.811 53.4273C502.493 57.463 501.081 58.6015 501.081 58.6015L489.971 58.7162L489.983 58.7168Z" fill="black"/>
<path d="M529.408 58.1165C529.408 58.1165 533.022 50.8465 535.488 47.4522C537.955 44.0579 547.337 32.6062 547.337 32.6062L550.905 34.2755L551.112 35.5074L538.517 57.2175L529.395 58.1159L529.408 58.1165Z" fill="black"/>
<path d="M88.8019 61.0356C83.8688 57.832 77.6853 60.0749 73.3842 63.2673C71.4308 64.7084 69.6509 66.5858 68.9572 68.9697C68.3196 71.2097 68.5489 73.7009 69.5313 75.7902C70.6465 78.1548 72.5939 79.9992 75.233 80.4736C75.7174 80.559 76.2285 80.5969 76.7531 80.6109C76.7017 81.6345 78.5648 81.7523 79.2033 81.6866C82.1484 81.419 85.0454 80.6482 87.6684 79.2528C89.9776 78.0249 92.2448 76.4163 93 73.779C94.3447 69.1313 92.9425 63.7229 88.7903 61.0228L88.8019 61.0356ZM78.1042 77.7837C78.1042 77.7837 78.1438 77.7246 78.2303 77.7045C78.1663 77.7624 78.1152 77.8087 78.1042 77.7837ZM87.3946 72.7772C87.2616 73.7233 87.0507 74.7632 86.5217 75.5673C86.0854 76.2295 85.3884 76.732 84.7334 77.1267C84.5317 77.251 84.3307 77.363 84.1418 77.4757C84.7164 76.4907 83.4712 75.9885 82.5952 75.9201C81.3663 75.8218 79.4186 76.1761 78.6069 77.2592C78.5935 77.283 78.5155 77.3768 78.4253 77.47C78.209 77.3981 78.0062 77.3024 77.7808 77.1689C76.5344 76.4468 75.639 75.0582 75.1671 73.7519C73.9856 70.5167 74.6837 67.0703 77.3964 64.861C78.0331 64.3433 78.718 63.8402 79.4357 63.412C79.7258 63.2311 80.0383 63.088 80.3277 62.9192C80.466 62.8407 80.541 62.8078 80.5909 62.7859C80.6909 62.742 80.9894 62.6348 81.1015 62.5916C81.1387 62.5812 81.2002 62.5721 81.2502 62.5502C81.2989 62.5526 81.3604 62.5435 81.4214 62.5466C81.5554 62.5533 81.7016 62.5606 81.835 62.5795C81.8716 62.5813 81.9435 62.6094 82.1007 62.6417C82.8 62.8234 83.4549 63.1616 84.0452 63.5699C86.901 65.5698 87.8661 69.466 87.3952 72.765L87.3946 72.7772Z" fill="black"/>
<path d="M31.6522 61.895C29.676 61.1118 27.2774 61.4435 25.5098 62.5886C23.401 63.9609 22.2316 66.0888 21.8638 68.55C21.5339 70.7445 22.0953 72.947 22.9845 74.946C23.9504 77.1199 25.2843 79.0191 27.5207 79.9741C29.757 80.9291 32.1654 80.8911 34.4738 80.6526C36.5982 80.4294 38.7014 79.8997 40.4172 78.5687C43.7349 75.9867 43.6473 71.1573 43.1648 67.383C42.8678 65.0227 41.6442 62.8725 39.5029 61.7268C37.3616 60.5812 34.968 59.8381 32.6725 59.0878C31.158 58.5965 29.2711 59.4425 28.8127 61.0319C28.3543 62.6213 29.1345 64.3584 30.7568 64.8917C32.3791 65.425 33.8437 65.9382 35.3526 66.5392C35.6402 66.6513 35.9271 66.7757 36.2147 66.8878C36.7294 67.0968 36.2628 66.9024 36.1678 66.8488C36.3103 66.9292 36.4535 66.9975 36.5832 67.0895C36.713 67.1815 36.8433 67.2614 36.9725 67.3656C36.4784 66.9865 36.8086 67.223 36.8872 67.3613C36.512 66.805 36.7635 67.1474 36.8299 67.2851C36.8287 67.3095 37.1625 67.9614 36.9761 67.5368C36.8123 67.1499 36.9852 67.5983 37.0163 67.7098C37.0577 67.8585 37.0869 68.0065 37.1155 68.1667C37.1441 68.327 37.1734 68.475 37.1898 68.6346C37.2087 68.7455 37.2811 69.25 37.2172 68.8192C37.1533 68.3885 37.2135 68.8923 37.2324 69.0032C37.2366 69.1622 37.2537 69.3097 37.2579 69.4687C37.2767 69.8239 37.2956 70.1791 37.29 70.533C37.2948 71.1685 37.2874 71.8033 37.2069 72.4345C37.2008 72.5563 37.1709 72.6647 37.1526 72.786C37.1062 73.2234 37.3135 72.2566 37.1587 72.6641C37.0728 72.9163 37.0349 73.4275 36.8418 73.6255C37.1757 73.3002 37.0295 73.2928 36.8722 73.5048C36.846 73.5402 36.6839 73.8496 36.6218 73.8709C36.9088 73.751 36.9289 73.5932 36.6748 73.7881C36.5481 73.8795 36.4323 73.9958 36.3049 74.0994C36.8137 73.6973 36.1069 74.1505 35.9065 74.2504C35.7316 74.3271 35.4252 74.3484 35.9686 74.2291C35.7712 74.268 35.572 74.3436 35.374 74.3947C34.7312 74.5457 34.0787 74.6473 33.4152 74.724C32.8005 74.8031 33.2063 74.7502 33.3415 74.7325C33.1453 74.7471 32.9498 74.7495 32.7536 74.7641C32.3131 74.7787 31.8739 74.7688 31.4236 74.7341C31.2287 74.7243 31.0356 74.6779 30.8406 74.6682C30.3526 74.6559 31.25 74.7864 30.7797 74.6651C30.4422 74.5749 30.0949 74.4353 29.7562 74.3695C29.345 74.2878 30.1339 74.6327 29.7909 74.4079C29.6965 74.342 29.5783 74.2628 29.4711 74.2086C29.8647 74.3993 29.6685 74.4139 29.5071 74.2226C29.4035 74.0953 29.0661 73.5164 29.356 74.0684C29.0435 73.4787 28.6927 72.9236 28.418 72.3113C28.3407 72.1486 28.2761 71.9743 28.1988 71.8117C27.9996 71.3986 28.312 72.2327 28.2 71.7873C28.0977 71.3913 27.9704 71.0062 27.8925 70.6114C27.8645 70.439 27.8371 70.2544 27.8091 70.082C27.9242 70.7107 27.828 70.1929 27.825 70.0095C27.8329 69.8511 27.8415 69.6805 27.8494 69.5221C27.8555 69.4002 27.8617 69.2784 27.88 69.1572L27.8153 69.4715C27.7709 69.1395 28.0658 68.6168 28.1792 68.3049C28.1244 68.4243 27.8727 68.8148 28.1755 68.378C28.2676 68.2482 28.3718 68.1191 28.4522 67.9765C28.1987 68.4036 28.259 68.1745 28.4126 68.0356C28.49 67.954 28.5789 67.8852 28.6679 67.8163C28.8458 67.6787 28.7831 67.7122 28.479 67.929C28.5192 67.8578 28.8184 67.7384 28.8684 67.7165C29.346 67.4473 28.5235 67.7725 28.8562 67.7158C28.992 67.686 29.1523 67.6574 29.2887 67.6154C29.5989 67.521 28.6198 67.5574 29.24 67.6129C29.3131 67.6166 29.6403 67.6697 29.678 67.6471L29.3021 67.5916C29.4465 67.6355 29.5787 67.6788 29.7225 67.7349C31.2077 68.3224 33.1514 67.3205 33.5823 65.7908C34.0566 64.1288 33.2313 62.5605 31.6382 61.931L31.6522 61.895Z" fill="black"/>
<path d="M53.0639 65.3385C54.5748 65.6586 56.0978 65.9793 57.5349 66.5522C57.7506 66.6363 57.9534 66.732 58.1569 66.8155C57.8255 66.6034 58.5754 66.9953 58.1569 66.8155C58.4055 66.9745 58.6796 67.1104 58.9281 67.2695C59.0585 67.3493 59.1761 67.4407 59.2937 67.5321C59.3759 67.5973 59.7773 67.874 59.4356 67.6247C59.0591 67.3371 59.5982 67.7917 59.6336 67.8179C59.7615 67.9465 59.8888 68.0872 60.0161 68.228C60.1081 68.3425 60.2001 68.4571 60.292 68.5716C60.5698 68.8787 60.0344 68.1067 60.2238 68.4705C60.3572 68.7337 60.4906 68.9969 60.6368 69.2485C60.8384 69.6129 60.5004 68.5577 60.6374 69.2364C60.6666 69.3844 60.7074 69.5453 60.7488 69.6939C60.7896 69.8548 60.9534 70.2417 60.7549 69.5721C60.8073 69.7457 60.7713 69.976 60.7621 70.1588C60.7542 70.3172 60.7219 70.4743 60.7261 70.6334C60.7163 71.0726 60.8748 70.1033 60.756 70.5249C60.653 70.874 60.5512 71.1987 60.436 71.5472C60.3659 71.7269 60.3506 72.0315 60.4756 71.4881C60.4451 71.6087 60.3007 71.8091 60.247 71.9042C60.1672 72.0345 60.0746 72.1765 59.9826 72.3062C59.8772 72.4597 59.5785 73.0555 59.89 72.4481C59.7681 72.6863 59.4141 72.9251 59.2093 73.1103C59.0564 73.237 58.3782 73.8504 58.915 73.3765C58.416 73.8278 57.6447 74.1068 57.0329 74.3692C56.8709 74.4344 56.5918 74.6403 57.1073 74.3485C56.9939 74.4161 56.7722 74.4539 56.6601 74.4971C56.35 74.5915 56.0283 74.6731 55.7078 74.7303C55.5476 74.7589 55.3751 74.7869 55.2149 74.8155C54.549 74.9409 55.2758 74.8186 55.288 74.8192C55.1863 74.8996 54.1621 74.8605 54.0696 74.7581C54.0464 74.7325 54.8146 75.0031 54.1676 74.7508C54.0361 74.6953 53.8173 74.6722 53.712 74.5814C54.1926 74.9841 53.8911 74.6636 53.7973 74.5856C53.3166 74.1829 53.8295 74.6728 53.8545 74.6618C53.7924 74.6831 53.2618 74.058 53.2411 73.9836C53.3434 74.3796 53.433 74.2986 53.299 74.0476C53.1869 73.8465 53.0627 73.6449 52.9634 73.4322C52.8184 73.1562 52.7106 72.8699 52.5785 72.5823C52.3483 72.0577 52.5541 72.5811 52.5992 72.6566C52.5322 72.5311 52.4926 72.3459 52.4512 72.1972C52.2295 71.502 52.0938 70.799 51.9836 70.0727C51.8826 69.408 51.9787 70.1702 51.9787 70.1702C51.9203 70.1184 51.9624 69.522 51.9661 69.4489C51.9703 69.3636 52.0253 68.267 52.0497 68.2682C52.0741 68.2694 51.8528 69.0279 52.0314 68.3894C52.0771 68.2085 52.1235 68.0154 52.1936 67.8357C52.2374 67.6913 52.3057 67.5481 52.3496 67.4037C52.4398 67.0662 52.0577 67.8655 52.3508 67.3794C52.4568 67.2137 52.5507 67.0474 52.6567 66.8817C52.8152 66.6453 52.9443 66.5052 52.6854 66.7976C52.9699 66.482 53.277 66.2043 53.6079 65.9399C53.7352 65.8364 53.8748 65.7334 54.0143 65.6305C53.5835 65.9387 54.0265 65.6311 54.2275 65.519C54.5931 65.2931 54.9575 65.0915 55.334 64.8905C56.7402 64.1304 57.471 62.2248 56.6396 60.7783C55.8082 59.3319 54.0221 58.6559 52.5275 59.4727C50.6314 60.5014 48.8108 61.7294 47.5719 63.5362C46.4251 65.2132 45.8655 67.3595 45.8865 69.3761C45.9426 73.129 47.3851 77.9775 50.8922 79.9002C54.7916 82.038 59.9168 80.4383 63.154 77.7545C66.3913 75.0707 67.8518 70.3067 66.0357 66.3311C64.066 62.0058 59.2825 60.4467 54.9918 59.5352C53.4328 59.2005 51.6209 59.7693 51.132 61.4793C50.7297 62.925 51.4087 64.9746 53.0761 65.3391L53.0639 65.3385Z" fill="black"/>
<path d="M18.8064 58.3925C26.0971 50.635 59.1994 38.724 59.1994 38.724L64.9853 38.8065L27.739 58.5718L18.8064 58.3925Z" fill="black"/>
</svg>
