<svg width="585" height="20" viewBox="0 0 585 20" fill="none" xmlns="http://www.w3.org/2000/svg">
<path d="M128.118 14.1056C129.779 14.4166 131.293 14.8102 132.953 15.0213C136.527 15.4589 140.131 15.176 143.699 15.2737C147.097 15.3744 149.365 15.1548 153.717 15.1989C154.545 15.2044 155.557 14.8067 155.74 14.3435C155.984 13.7392 155.587 12.8661 154.67 12.6421C152.581 12.1385 150.545 12.214 148.423 12.2711L136.985 12.5307C134.481 12.5744 131.887 12.3397 129.463 12.142C128.337 12.0616 127.418 11.6977 126.946 12.6659C126.68 13.2306 127.096 13.9234 128.139 14.1052" fill="black"/>
<path d="M339.278 10.5802C338.228 12.4387 347.204 12.242 349.179 12.2875L357.652 12.4596L363.855 12.7114C364.854 12.754 366.19 12.6706 367.248 12.4921C368.264 12.3344 368.413 11.1317 368.086 10.6174C367.278 9.35142 365.056 9.77022 362.295 9.6984C353.481 9.43223 349.352 10.0643 340.796 9.97367C340.265 9.98293 339.422 10.2977 339.278 10.5802Z" fill="black"/>
<path d="M566.488 5.91406C564.874 5.86223 558.414 5.47496 558.436 6.73466C558.44 6.9946 559.064 7.48373 559.469 7.55668C566.003 8.5227 572.377 8.85146 579.024 9.01545C580.851 9.06358 583.08 9.06467 584.485 8.08008C584.821 7.85421 584.764 7.03514 584.484 6.78002C583.082 5.5444 580.72 6.44568 577.109 6.3087L574.412 6.21578L566.51 5.93368L566.488 5.91406Z" fill="black"/>
<path d="M394.169 7.84121C392.343 7.83307 387.794 7.47245 387.269 9.02171C387.168 9.3035 387.9 9.91076 388.367 9.9226L395.187 10.2436L410.629 10.7541C411.245 10.7833 412.235 10.326 412.506 10.0213C412.777 9.71656 412.718 8.79752 412.227 8.62608C410.518 8.01587 408.454 7.77187 406.502 7.78595L397.184 7.86859L394.169 7.84121Z" fill="black"/>
<path d="M6.69178 10.5649C5.46231 10.6664 0.708235 10.7293 0.0584533 12.4208C-0.0834695 12.8033 0.655172 13.7705 1.27026 13.7397L6.99495 13.3398L10.4541 13.2794L19.4101 13.1431C20.2802 13.1279 21.3099 12.5299 21.6425 12.1241C22.0161 11.6375 21.8874 10.3397 20.9077 10.1568C17.5848 9.51471 10.3169 10.2816 6.69213 10.5849" fill="black"/>
<path d="M82.6465 11.6791C82.449 13.7427 89.9536 13.1516 92.3562 13.3697L97.2887 13.8037C99.4147 13.9866 101.197 13.9155 103.302 14.1187L105.692 13.637C106.475 13.4833 106.658 11.82 105.785 11.6552C101.845 10.904 97.8302 10.774 93.7118 10.7659L84.0948 10.7337C83.5218 10.7438 82.683 11.3384 82.6465 11.6791Z" fill="black"/>
<path d="M40.5128 10.7746C39.6423 10.7698 38.7152 11.166 38.5312 11.5692C38.368 11.9521 38.8941 12.903 39.5322 12.9719C45.4855 13.508 47.0142 13.5213 53.0864 13.5753C55.9952 13.6046 61.5095 14.5284 62.3934 12.8728C62.5788 12.5496 62.2879 11.6946 61.8175 11.5028C59.5934 10.5616 49.5794 10.8964 46.4793 10.8505L40.4919 10.795L40.5128 10.7746Z" fill="black"/>
<path d="M446.457 7.98875L434.037 7.90552C433.316 7.91812 432.477 8.53279 432.484 8.9127C432.561 10.9315 452.772 10.9987 453.639 10.8236L457.701 10.0126C458.239 9.22319 456.668 9.2306 456.155 8.97955C453.2 7.55103 451.68 8.03759 446.436 7.98912" fill="black"/>
<path d="M259.882 12.9257L267.536 13.5922L272.743 13.9213L274.826 14.1049C276.825 14.2701 278.866 14.4345 280.918 14.0586C281.722 13.9046 282.386 13.0129 282.209 12.596C281.965 12.0002 281.172 11.554 280.216 11.5307L275.48 11.4334L260.149 11.1609C259.554 11.1513 258.799 11.6645 258.741 11.9856C258.682 12.2866 259.372 12.8946 259.904 12.9453" fill="black"/>
<path d="M214.645 11.775C214.157 11.7835 213.292 12.0787 213.105 12.3019C211.731 13.846 219.566 13.9493 220.16 13.9789L223.072 14.1681C227.62 14.4687 232.19 14.789 236.704 14.3902C237.171 14.342 237.924 13.7288 238.11 13.4456C238.338 13.1216 237.643 12.2336 237.112 12.1829C234.944 12.0407 232.588 12.0819 230.38 12.0604L225.815 12.0001L214.688 11.7743L214.645 11.775Z" fill="black"/>
<path d="M476.986 6.91628C475.952 7.29434 478.231 8.93467 481.034 8.98575C483.901 9.05572 486.555 9.08939 489.42 9.05938C493.41 8.98974 496.987 9.58735 498.199 8.46613C498.867 7.85442 497.528 6.53771 496.254 6.49995C492.749 6.40111 489.184 6.48333 485.556 6.56667L478.129 6.73631C477.726 6.74335 477.239 6.83185 476.986 6.91628Z" fill="black"/>
<path d="M304.359 10.709C303.722 10.7201 302.897 10.8745 302.476 11.1018C302.056 11.3292 302.031 12.3497 302.522 12.5211C304.934 13.2591 307.333 13.2572 309.795 13.2342C312.711 13.7034 315.792 13.8696 318.736 13.4782C322.125 13.019 320.861 13.6011 322.127 13.139C323.561 12.6139 319.685 11.8815 319.498 10.8847L310.622 10.7596L304.358 10.689L304.359 10.709Z" fill="black"/>
<path d="M518.535 4.83083C518.09 4.8386 517.078 5.25629 517.041 5.53696C516.876 7.03994 524.414 7.14838 526.731 7.32795C528.963 7.509 536.213 8.18249 537.642 7.3375C538.063 7.09015 537.964 6.33181 537.617 5.91784C537.227 5.46462 536.209 5.4824 535.316 5.41798C532.276 5.19101 529.366 5.0818 526.393 5.01369L518.514 4.8312L518.535 4.83083Z" fill="black"/>
<path d="M174.966 11.5678C174.477 11.5163 169.322 14.1065 185.309 14.2475C187.645 14.2667 194.785 14.7221 194.475 12.7874C194.119 10.6335 184.132 12.4879 178.879 11.9595L174.966 11.5678Z" fill="black"/>
</svg>
