<svg width="585" height="16" viewBox="0 0 585 16" fill="none" xmlns="http://www.w3.org/2000/svg">
<path d="M456.123 10.9131C454.465 11.2358 452.956 11.64 451.3 11.8626C447.733 12.3252 444.131 12.0675 440.568 12.1902C437.175 12.3147 434.908 12.1109 430.561 12.1854C429.734 12.1967 428.72 11.8061 428.535 11.3442C428.286 10.7416 428.677 9.86575 429.591 9.63533C431.674 9.11716 433.709 9.17847 435.829 9.22067L447.255 9.40032C449.756 9.42652 452.346 9.17364 454.765 8.95899C455.89 8.87077 456.805 8.50037 457.283 9.46534C457.552 10.0281 457.142 10.7238 456.101 10.9129" fill="black"/>
<path d="M245.187 8.86417C246.248 10.7152 237.282 10.5813 235.309 10.6407L226.847 10.872L220.653 11.1672C219.656 11.2167 218.321 11.1427 217.263 10.9717C216.247 10.821 216.09 9.61943 216.413 9.10283C217.211 7.83123 219.433 8.23449 222.19 8.14336C230.992 7.81556 235.12 8.41877 243.666 8.26827C244.196 8.27382 245.041 8.58266 245.187 8.86417Z" fill="black"/>
<path d="M18.2116 5.78682C19.8236 5.7237 26.2734 5.29126 26.2603 6.55109C26.2575 6.81105 25.6375 7.30454 25.2339 7.38031C18.7143 8.392 12.3499 8.76534 5.71154 8.97581C3.88755 9.03671 1.66119 9.05339 0.250879 8.07865C-0.0860081 7.85513 -0.0350231 7.03569 0.243292 6.77861C1.63445 5.53322 3.99978 6.41796 7.60578 6.25573L10.2996 6.14395L18.1902 5.80659L18.2116 5.78682Z" fill="black"/>
<path d="M190.341 6.50994C192.165 6.48904 196.706 6.09661 197.241 7.64216C197.344 7.92323 196.617 8.5356 196.151 8.55071L189.341 8.91938L173.921 9.53787C173.305 9.57143 172.314 9.12106 172.041 8.81821C171.769 8.51537 171.821 7.59594 172.31 7.42108C174.013 6.79893 176.072 6.5405 178.023 6.54093L187.33 6.5584L190.341 6.50994Z" fill="black"/>
<path d="M577.381 6.52265C578.609 6.61551 583.358 6.64525 584.019 8.33211C584.164 8.71361 583.433 9.68592 582.818 9.65949L577.097 9.29959L573.642 9.2634L564.695 9.18971C563.826 9.18061 562.793 8.58981 562.458 8.18632C562.082 7.70239 562.201 6.40369 563.179 6.21393C566.493 5.54866 573.758 6.26472 577.381 6.54265" fill="black"/>
<path d="M501.523 8.16873C501.735 10.2309 494.235 9.69235 491.837 9.92723L486.913 10.3956C484.791 10.5934 483.011 10.5348 480.909 10.7528L478.518 10.2877C477.735 10.1395 477.541 8.47756 478.412 8.30669C482.342 7.52787 486.351 7.36986 490.465 7.33294L500.07 7.23354C500.643 7.23954 501.484 7.82833 501.523 8.16873Z" fill="black"/>
<path d="M543.602 6.9691C544.471 6.95821 545.4 7.34792 545.586 7.74986C545.752 8.13158 545.233 9.08612 544.596 9.15945C538.654 9.73719 537.127 9.7612 531.062 9.85769C528.157 9.90726 522.656 10.8696 521.761 9.2203C521.574 8.89835 521.858 8.04136 522.327 7.84627C524.542 6.8895 534.546 7.15426 537.643 7.08669L543.623 6.98932L543.602 6.9691Z" fill="black"/>
<path d="M138.116 7.02288L150.521 6.8528C151.241 6.86035 152.083 7.46914 152.079 7.84909C152.016 9.86836 131.829 10.0769 130.962 9.90787L126.899 9.12535C126.356 8.33968 127.925 8.33612 128.437 8.08148C131.378 6.63233 132.899 7.10825 138.137 7.0231" fill="black"/>
<path d="M324.505 10.6543L316.865 11.3743L311.666 11.7398L309.587 11.938C307.592 12.1171 305.555 12.2958 303.502 11.9343C302.698 11.7859 302.028 10.8989 302.202 10.4808C302.442 9.88328 303.231 9.43156 304.186 9.40156L308.915 9.27109L324.227 8.89146C324.82 8.87768 325.578 9.3856 325.639 9.70622C325.699 10.0068 325.014 10.6196 324.484 10.6741" fill="black"/>
<path d="M369.681 9.18797C370.169 9.19308 371.035 9.48214 371.223 9.70411C372.607 11.2385 364.782 11.3966 364.188 11.4304L361.281 11.6399C356.74 11.9724 352.178 12.3246 347.666 11.9573C347.2 11.9124 346.443 11.3045 346.255 11.0226C346.025 10.7002 346.713 9.80742 347.244 9.75298C349.408 9.59565 351.761 9.62029 353.967 9.58339L358.526 9.49114L369.639 9.18753L369.681 9.18797Z" fill="black"/>
<path d="M107.616 6.16337C108.651 6.53419 106.386 8.19042 103.586 8.2611C100.723 8.35111 98.0725 8.40335 95.2104 8.39338C91.2249 8.35164 87.6564 8.97425 86.4384 7.86153C85.7663 7.25451 87.0947 5.92846 88.3673 5.88179C91.8669 5.75845 95.4282 5.81574 99.0531 5.8737L106.472 5.9914C106.875 5.99562 107.362 6.08071 107.616 6.16337Z" fill="black"/>
<path d="M280.065 8.74976C280.701 8.75642 281.527 8.90506 281.948 9.12947C282.37 9.35388 282.402 10.3742 281.912 10.549C279.509 11.3038 277.113 11.3188 274.653 11.313C271.744 11.8025 268.667 11.9903 265.724 11.6195C262.336 11.184 263.603 11.7573 262.335 11.304C260.899 10.789 264.766 10.0295 264.946 9.03141L273.81 8.84425L280.066 8.72976L280.065 8.74976Z" fill="black"/>
<path d="M66.1001 4.36839C66.5452 4.37305 67.5586 4.78365 67.5981 5.06405C67.7732 6.56584 60.2449 6.72699 57.9318 6.92276C55.7036 7.11942 48.4662 7.8436 47.0332 7.00862C46.6117 6.76421 46.7045 6.00521 47.0481 5.58882C47.4345 5.13288 48.4521 5.14354 49.3433 5.07287C52.3777 4.82466 55.2837 4.6951 58.2529 4.6062L66.1213 4.36861L66.1001 4.36839Z" fill="black"/>
<path d="M409.311 8.70299C409.8 8.64811 414.967 11.2021 399 11.4549C396.667 11.4905 389.538 11.9958 389.834 10.059C390.175 7.90261 400.163 9.68716 405.406 9.12208L409.311 8.70299Z" fill="black"/>
</svg>
