<svg width="150" height="150" viewBox="0 0 150 150" fill="none" xmlns="http://www.w3.org/2000/svg">
<path d="M149.553 84.5429L122.763 61.8648L134.556 28.8056L99.5783 31.7156L84.5429 0L61.8648 26.7902L28.8056 14.9962L31.7156 49.9744L0 65.0098L26.7902 87.688L14.9962 120.747L49.9744 117.837L65.0098 149.553L87.688 122.763L120.747 134.556L117.837 99.5783L149.553 84.5429Z" fill="#EA128B"/>
<path d="M75.3847 48.7997C75.0232 47.7724 74.9177 46.7964 74.8093 45.742L74.6406 44.1273L74.502 42.1029C74.4689 41.6299 73.8362 40.7804 73.4808 40.4852C72.8301 39.949 71.2485 42.1993 71.131 42.6391L70.5255 44.9045L70.2393 46.7331C70.1309 47.429 70.2544 48.143 70.2965 48.8268L70.405 50.5289C70.4592 51.3754 70.5707 52.1797 70.881 52.9841C71.2063 53.8306 70.6731 54.7193 69.9531 54.9392C69.0072 55.2254 68.2631 54.6229 68.0793 53.6739L67.287 49.5498C67.1696 48.9353 67.0973 48.4774 66.8954 47.8779C66.1001 45.5251 65.6904 43.103 65.4374 40.6057C65.4072 40.2984 65.6272 39.8194 65.7657 39.6055C65.9043 39.3947 66.7056 39.229 66.784 39.473L67.9377 43.0036C68.2571 42.4373 68.5915 41.8679 68.7421 41.3618C69.2542 39.6477 70.1941 38.3403 71.8118 37.5149C73.2006 36.8039 74.7309 37.0178 75.8335 38.1656C76.4782 38.8373 77.388 39.6296 77.623 40.5695L78.1381 42.6331C78.0718 44.8834 78.6171 46.7 79.2407 48.7876L80.2679 52.2309L80.277 53.6769C80.277 54.0505 79.7679 54.6078 79.4214 54.7705C79.069 54.9332 78.2044 54.9573 77.9332 54.6409C77.4753 54.1047 76.8999 53.5293 76.7132 52.9118L76.0052 50.562L75.3877 48.8027L75.3847 48.7997Z" fill="white"/>
<path d="M58.2199 40.5127C58.1897 39.9042 58.3825 39.1902 58.8073 38.9643C59.2923 38.7082 60.0725 38.4823 60.6027 38.898C60.7564 39.1842 61.0335 39.8168 61.0697 40.1241L61.4944 43.8445L61.6571 47.4896L61.7987 49.3333C61.8981 50.6136 61.4462 53.2495 60.7925 54.3099C59.8948 55.762 58.5482 56.4398 56.9395 56.2922C54.6259 56.0813 54.4482 54.1412 53.8306 52.2916C52.4148 48.053 52.0593 44.932 53.1619 40.7025C53.3155 40.109 53.8969 39.7535 54.4241 39.7656C54.9212 40.5669 54.9453 41.4556 54.4994 42.2268L54.6741 45.7273L55.1652 48.1946L55.7586 49.7822L56.2316 51.677L56.6775 52.9332C56.7467 53.1291 57.054 53.4695 57.2348 53.5327C57.8553 53.7496 58.5663 52.8218 58.5452 51.3306L58.5211 49.5502V47.5951L58.3132 44.5344V42.3352L58.2199 40.5006V40.5127Z" fill="white"/>
<path d="M50.7124 43.953C51.0046 44.7664 50.0797 44.9712 49.4833 44.9592L47.9077 44.926L46.1936 44.9652L46.6545 49.5291L47.0883 53.1291L47.1305 55.0812C46.8021 55.506 46.1635 55.9066 45.7267 55.8976C45.3351 55.8885 44.6211 55.3493 44.5608 54.8673L43.8168 48.9056L43.5938 45.9714L43.4312 42.2359L43.4462 38.5907L43.6571 35.9126C43.7023 35.3312 43.9794 34.4425 44.2656 33.9123L45.2477 32.0958C45.8321 31.0173 46.6696 29.6647 47.9379 29.3424C49.5736 28.9266 50.7154 30.2973 51.2757 31.6138C51.5017 32.138 51.8752 32.7766 51.8873 33.2918C51.8933 33.4966 51.3992 33.9003 51.2094 33.837C50.3177 33.5237 49.9833 32.1169 48.6458 31.4933C47.974 31.6168 47.6908 32.4332 47.3805 32.9453C47.1486 33.3249 46.8323 33.6984 46.7389 34.0991L46.1514 36.5995L46.0038 38.4974V40.2928L46.037 41.8111C46.3864 42.1395 47.2088 42.3564 47.7631 42.1244C48.5343 41.7991 49.908 41.7358 50.2304 42.6335L50.7064 43.962L50.7124 43.953Z" fill="white"/>
<path d="M33.2189 62.5247L33.0683 65.6727L33.0261 68.1852L33.1406 69.839C33.1948 70.6223 33.0562 71.7851 33.2551 72.5503L33.8365 74.7946L34.3757 76.3792L34.6017 77.4245C34.8999 76.9877 34.9541 76.7377 34.9963 76.2557L35.2915 75.4272L35.9061 73.1889L36.614 70.9055L37.099 69.5016C37.2707 69.0076 37.4304 68.3117 37.7377 67.8508C37.9455 67.5375 38.7529 67.1549 39.1626 67.1398C40.0814 67.1067 40.9309 68.0797 40.94 68.9925L40.961 71.1374C41.1328 71.4085 41.4129 71.9327 41.3707 72.24C41.2563 73.0956 41.6087 73.5896 41.8226 74.2524C42.0486 74.9513 42.2142 75.7255 42.6209 76.3912L43.2415 77.4034L43.3982 76.2165C43.4373 75.9213 43.7084 75.3941 43.835 75.129C43.8259 74.5717 43.8621 74.0023 43.9434 73.4631L44.2025 71.764L44.4375 70.0921L44.9044 66.7693L45.3352 64.049L45.5732 62.4313C45.6485 61.9071 46.0793 61.2654 46.483 61.0335C46.9107 60.7865 47.9531 60.8768 48.173 61.3588C48.5646 62.2294 48.5827 63.2657 48.4441 64.1695L47.7573 68.6762L47.5404 70.4385L47.2632 72.0954L47.0553 73.5535L46.727 75.4875L46.5251 77.0901L45.7991 80.0514C45.6696 80.5816 45.0852 80.8437 44.7026 81.151C43.8862 81.8168 42.9734 82.2656 41.9431 81.6059C41.5455 81.3498 40.7923 80.8076 40.5845 80.4099L39.7018 78.7109L38.9216 76.8582L38.2649 75.5417C37.9335 76.9485 37.5539 78.4036 36.9665 79.7411L36.2194 80.5756C35.8699 81.395 34.9782 81.8619 34.0865 81.4462C32.282 80.6087 32.5592 79.0724 31.7096 77.4998L31.2849 75.8098C31.0258 74.7795 30.8631 73.8939 30.8059 72.8425L30.6553 70.0469L30.8451 68.3509C30.8149 67.4471 30.7667 66.6066 30.9415 65.7089L31.5681 62.4855C31.6795 61.9101 31.8422 61.1841 32.6737 61.3227C33.0864 61.392 33.246 62.1059 33.2249 62.5277L33.2189 62.5247Z" fill="white"/>
<path d="M99.2287 73.704C99.0268 72.1887 98.6231 70.8601 97.9694 69.4774L97.4453 68.3748L96.6439 66.733C96.2131 65.8504 95.8155 65.0099 94.981 64.2658C93.5049 65.1394 92.6253 66.4438 92.6644 67.944L92.7458 71.2548L93.2579 74.6378C93.3362 75.153 93.1073 75.5807 92.7307 75.8489C92.2879 76.1622 91.7516 76.3098 91.128 76.0085C90.7665 75.8338 90.3086 75.2584 90.2454 74.918L89.8206 72.7219L89.4109 69.4985L89.197 67.0011L88.7903 64.2296L88.465 62.1359L88.1426 60.3194L87.8143 58.5089L87.6094 56.599L87.4769 53.9389C87.4648 53.6798 87.7902 53.3093 88.0222 53.2581C89.5585 52.9147 89.3115 55.0144 89.6308 56.3971L90.0887 58.3703L90.3809 59.747L90.881 61.8136L91.3992 63.7356L92.2818 62.627C93.3001 61.7262 94.3243 61.5455 95.8547 61.5545C97.1832 62.1329 98.1411 63.0698 98.8461 64.1423L99.9908 65.8865L100.497 66.8415L101.151 68.2363L101.91 70.9927L102.835 73.9058C103.012 74.4691 102.868 74.8728 102.458 75.2765C101.901 75.8278 101.093 75.9935 100.367 75.4964C100.169 75.3608 99.7498 75.0385 99.6595 74.8457C99.5149 74.5324 99.2769 74.0173 99.2377 73.707L99.2287 73.704Z" fill="white"/>
<path d="M83.4946 74.1495L83.4705 76.1107C83.4615 76.8608 83.2355 77.3066 82.5125 77.626C82.1631 77.7796 81.8347 77.7947 81.4642 77.6651C80.5906 77.3579 80.464 76.8066 80.4942 76.0354C80.5153 75.478 80.4399 74.9237 80.6599 74.3604L80.6056 73.541C80.8978 72.0137 80.3737 70.8388 80.5725 69.5525C80.5092 69.2904 80.4189 68.9108 80.455 68.6125C80.5243 68.0311 80.3496 67.5763 80.3285 67.0189L80.2381 64.7355C79.2108 64.8258 78.1414 64.8138 77.1985 64.4975C77.084 64.3619 76.9695 64.0064 77.0509 63.8799C77.1413 63.7383 77.4726 63.5515 77.6624 63.5124L79.7682 63.1057C79.9971 63.0605 80.3134 62.7472 80.3014 62.5032L80.214 60.7499C80.1959 60.3643 80.1628 59.7558 80.2441 59.3822L80.5996 57.7314C80.6358 57.5567 80.9671 57.3036 81.1479 57.2735C82.0667 57.1138 82.1932 58.9364 82.3258 60.2709L82.4764 61.7832L82.6421 62.5936L84.2327 62.455L84.2839 61.9971C84.299 61.8645 84.7267 61.8314 84.8713 61.8645L85.8805 62.0905C86.239 62.1718 86.6909 62.4158 86.9952 62.705C87.2452 62.94 87.0735 63.8347 85.992 64.2986C85.3895 64.5577 84.8834 64.5457 84.2206 64.5547L82.871 64.5758L82.9524 65.6904L83.1211 67.5913L83.2054 68.953L83.3681 69.7904L83.5187 72.8813L83.5037 74.1495H83.4946Z" fill="white"/>
<path d="M69.6038 68.3476L68.8718 69.5767C68.2452 70.6281 68.2783 72.1283 68.441 73.3062L68.7422 75.4902C68.8748 76.4482 69.2092 77.4966 68.8326 78.4334C68.6157 78.9757 68.0072 79.4426 67.4469 79.3734C65.9707 79.1956 65.8563 77.9605 65.7568 76.7585L65.5309 74.0111L65.3502 71.8029L65.2477 70.1099C65.2086 69.4682 65.0549 68.9742 65.0007 68.3657L64.6603 64.5759C64.6332 64.2687 64.823 63.7686 65.082 63.6119C65.2989 63.4794 65.8322 63.4583 66.1334 63.6149C66.3865 63.7475 66.513 64.1964 66.5913 64.5187L67.0341 66.3292L67.7963 65.3622C68.5705 64.3801 69.5677 63.9282 70.8932 63.6842C71.4565 63.5818 72.0138 63.9674 72.5892 64.1512L73.4267 64.4223L73.9087 64.3831L74.2672 64.7476C74.9299 65.0399 75.7614 65.8321 75.7915 66.6606C75.8216 67.5041 75.3487 68.4952 74.3334 68.7814C73.3875 69.0495 72.4265 68.5765 71.7427 68.0855L70.4714 67.1757L69.6098 68.3536L69.6038 68.3476Z" fill="white"/>
<path d="M60.4156 78.0809C59.2709 78.825 57.7707 79.4184 56.3126 79.6624C54.6828 79.5962 53.517 79.2618 52.4235 78.587C51.3872 77.9483 51.0196 77.2494 50.6883 76.3637C50.152 74.9358 49.8568 73.523 50.2966 72.0529L50.8901 70.0676C51.4836 68.0763 52.4777 65.82 55.1347 65.2717C56.7253 64.9433 57.858 65.3561 58.7618 66.2176C59.5631 66.9828 60.8494 67.76 61.3555 68.6578L62.0815 69.9501C62.8678 71.354 62.7112 72.8572 62.425 74.3424C62.2984 74.9991 62.3195 75.9119 61.705 76.3788C61.0302 76.8909 60.5873 77.2464 60.4217 78.0809H60.4156ZM55.5685 76.4632C57.7405 76.1107 58.0207 74.4388 58.0689 72.8421C58.1231 71.0949 57.9333 69.3506 56.0987 68.1426L54.2099 69.3265C53.5622 69.7332 53.7821 70.9443 53.6345 71.5196C53.508 72.0137 53.4537 72.4144 53.4929 72.9054L53.6405 74.6707C53.7309 75.7492 55.0654 76.5475 55.5685 76.4662V76.4632Z" fill="white"/>
<path d="M102.558 107.218C105.426 106.459 104.35 104.172 105.477 104.049C106.805 103.901 106.992 107.619 104.206 109.745C103.582 110.221 103.022 110.586 102.672 111.291L101.759 113.122C101.401 113.839 101.503 114.734 101.991 115.382L102.263 116.487L103.428 117.593C104.034 118.165 105.29 117.744 106.101 116.804C106.911 115.864 107.474 114.843 108.035 113.764C108.438 112.987 108.752 112.366 108.779 111.478L109.252 109.526L109.209 107.116L109.291 105.895L109.267 104.064L109.321 102.672L109.11 101.036L108.953 99.6324C106.658 101.003 105.796 100.837 103.733 100.087C103.067 99.8463 102.489 99.6053 102.07 99.1444L101.232 98.2196C100.753 97.6894 100.371 97.1441 100.139 96.4784C99.955 95.9572 99.5182 95.2643 99.4881 94.7883L99.3525 92.7338C99.1808 90.14 100.85 87.6849 103.751 86.6937C104.896 86.3021 105.998 86.2509 107.113 86.5461C107.586 86.2961 108.375 86.1033 108.884 86.1605C110.092 86.9799 110.692 88.0464 111.08 89.2363L111.526 90.604L111.836 92.4898L112.083 94.3967L112.37 96.0958C112.496 96.8549 112.445 97.4273 112.541 98.1744L112.873 100.741L112.9 102.238L113.002 103.606L113.123 105.558L113.189 107.191L112.921 109.529C112.794 110.631 112.984 111.782 112.493 112.782C111.797 114.204 112.014 115.132 111.128 116.114C110.324 117.006 110.369 117.753 109.224 118.759L107.986 119.846C107.661 120.133 106.866 120.467 106.417 120.66L105.365 121.115C103.597 121.229 101.859 120.711 100.612 119.617C100.072 119.144 99.8225 118.376 99.4338 117.801C98.1475 115.903 97.8704 113.156 99.0211 111.173L99.8797 109.697C100.446 108.721 101.528 107.483 102.555 107.212L102.558 107.218ZM106.489 97.0688L107.333 96.162L108.14 93.9147C108.342 93.3514 108.17 92.6284 107.956 92.047L107.441 90.6582L106.811 87.965C105.254 87.9951 103.579 88.5464 102.784 89.7544C102.22 90.61 102.314 91.6192 102.317 92.541C102.317 93.2007 102.404 93.7159 102.727 94.2943L103.431 95.5595C103.709 96.0566 103.995 96.5687 104.456 97.0025C104.917 97.4363 106.055 97.5388 106.489 97.0718V97.0688Z" fill="white"/>
<path d="M73.8454 101.805C73.3333 101.386 72.9176 100.985 72.5802 100.5L71.8963 99.5152L71.827 100.22C71.7879 100.615 71.6674 100.928 71.5047 101.314C71.1974 102.037 70.9986 102.965 70.2395 103.498C68.9772 104.383 67.1607 103.513 66.3112 102.184L65.0941 100.283L64.7657 99.0091C63.7686 96.7618 63.5969 94.1891 64.4735 92.005C64.8862 90.9717 65.8563 89.7637 66.9227 89.2245L68.0343 88.6642C68.6248 88.3659 69.2303 88.3358 70.0557 88.3569C70.0858 88.2966 70.0105 87.8899 70.0195 87.7303L70.2063 84.3081L70.4744 80.9491C70.4985 80.6388 71.1101 80.2743 71.4294 80.2834C71.8542 80.2954 72.4085 80.6268 72.5079 81.0003L72.8543 82.2867L73.0652 83.564L73.2459 85.7932L73.258 86.9832L73.3544 88.8449L73.4749 90.8121L73.5773 93.5113L73.7882 94.897L74.3425 97.4155L74.8636 98.6777L75.5475 99.5272C75.8487 99.9008 76.1048 100.175 76.7163 100.094L77.2255 100.027C77.4966 99.9912 77.2616 98.8404 77.9846 98.9217C78.3702 98.9639 78.6022 99.2049 78.5871 99.5152L78.5329 100.717L77.7828 101.985C77.4213 102.597 76.3759 102.573 75.6951 102.573C74.8727 102.573 74.4509 102.299 73.8394 101.796L73.8454 101.805ZM67.7632 98.6205L68.676 100.229L69.3297 96.6021L69.8207 93.7252L69.9021 92.3605C69.9382 91.749 70.134 90.9024 69.8448 90.2608C69.2694 90.5108 68.7001 90.6855 68.4169 90.9778L67.4921 91.9267C66.9378 92.4961 66.6124 94.5265 66.8745 95.6471L67.248 97.2468C67.3655 97.7499 67.483 98.1264 67.7662 98.6235L67.7632 98.6205Z" fill="white"/>
<path d="M94.1889 89.4834C94.1738 89.3659 94.0171 89.0737 93.9207 88.9894C93.8033 88.8869 93.5472 89.14 93.3815 89.2786L91.9024 90.5257C91.4987 91.071 91.092 91.7157 90.9836 92.3362L90.851 93.1044C90.5769 94.692 90.5769 96.3067 90.7877 97.9154C90.8932 98.7288 91.4204 99.509 90.8721 100.286C90.5769 100.705 90.3148 101.06 89.7996 101.136C89.1911 101.223 88.7182 101.088 88.2 100.732C87.706 100.392 87.5011 99.8826 87.4559 99.3253L87.3685 98.2649C87.1577 97.5931 87.1336 97.0809 87.0613 96.4182L86.8052 94.1377L86.6847 91.9928L86.6004 90.5318C86.5251 89.2183 87.0101 87.3897 88.0584 87.5223C88.3506 87.5584 88.7182 87.8476 88.7543 88.1127L89.0646 90.4715L89.887 89.5316C90.8239 88.182 92.1735 86.9619 94.0382 86.5131C94.7371 86.3444 95.43 86.7812 95.8488 87.1035C96.9092 87.9169 97.355 89.866 97.4845 91.1975C97.5478 91.8452 97.6894 92.4236 97.5629 93.0472L97.599 94.6257C97.6081 95.0174 97.605 95.2493 97.6864 95.65L98.1292 97.819L98.4576 99.8585C98.5239 100.265 98.5901 100.759 98.5389 101.184C97.9937 102.166 96.7555 102.512 95.8518 102.03C95.3065 101.738 95.0384 101.301 94.9661 100.786L94.7522 99.2198C94.6558 98.5239 94.5805 97.9907 94.5805 97.2798C94.5805 96.8068 94.1798 96.3067 94.4449 95.7524C94.5865 95.4572 94.4058 94.9571 94.4027 94.6649L94.3787 92.7459L94.3726 90.9445L94.1979 89.4804L94.1889 89.4834Z" fill="white"/>
<path d="M58.2166 97.689L57.8883 96.8003L57.4966 95.8212C57.3852 95.5411 57.111 95.1886 56.9182 94.9356C56.2465 95.4447 55.6861 95.8664 55.4903 96.481L55.0836 97.7613L55.0897 99.6923L55.2071 101.292L55.5717 103.241C55.6229 103.506 55.6018 104.009 55.3939 104.25C54.7432 104.994 53.1978 105.009 52.5863 104.307C52.1133 103.765 52.1284 103.139 52.2398 102.539L51.9175 101.846V100.921L51.8422 99.6079L51.5952 97.692L51.4927 96.3514L51.2186 93.6763C51.1463 92.9774 51.4325 92.2364 51.9476 91.9472C52.1464 91.8357 52.8152 91.8236 52.9086 92.0014C53.3002 92.7515 53.0713 93.354 53.4509 94.0951L53.8214 94.8241C54.8005 93.7788 55.3999 93.0317 56.9936 92.637C57.7196 92.4563 58.2407 92.7033 58.7077 93.0106C59.4909 93.5227 59.8795 94.0921 60.2591 94.8211L60.7984 95.8604L61.675 97.6167L61.9913 98.2644L62.5908 100.171L63.2686 102.358L63.7175 104.479L63.9193 105.368C63.8862 105.94 63.2294 106.404 62.6812 106.507C61.9401 106.648 60.946 106.543 60.6598 106.016C60.47 105.666 60.3977 105.29 60.3766 104.985L59.9368 104.615C59.8072 104.506 60.0061 104.13 60.1687 103.955L59.3162 100.855L58.5691 98.5927L58.2227 97.6769L58.2166 97.689Z" fill="white"/>
<path d="M41.416 99.7952C40.9068 100.202 39.8766 100.491 39.1234 100.738L36.1923 101.705L36.7948 105.281L37.0147 106.622L37.3792 109.613C37.4485 110.188 37.09 110.532 36.2646 110.806C35.6591 111.008 34.9361 110.981 34.3818 110.743C33.8546 110.52 33.6678 110.134 33.6075 109.658L33.1406 105.998L32.7791 101.853L32.6285 99.4457L32.3965 97.6925L32.2459 95.8458L31.9868 93.6828L32.0441 92.1977C32.0591 91.791 32.1947 91.2397 32.4357 90.8541C33.4268 89.2695 37.2858 88.426 39.2952 88.911C41.6509 89.4834 41.5636 93.0502 40.226 93.3454C40.0483 93.3846 39.738 93.234 39.6717 93.0954C39.6205 92.99 39.7862 92.8574 40.0182 92.6495L39.6868 91.6644C39.5362 91.2156 39.4819 90.5287 38.6324 90.3661C37.572 90.1612 36.0959 90.4564 35.2373 91.083C34.8999 91.3301 34.7101 91.9205 34.7493 92.1977L34.8939 93.2099L35.165 95.3638L35.4723 96.9183L35.9302 99.6416L38.1293 98.8282L39.7952 98.4607C40.4851 98.31 41.187 98.2648 41.5244 98.5872C41.8558 98.9035 42.0486 99.2891 41.416 99.7922V99.7952Z" fill="white"/>
<path d="M80.8949 100.088L80.8859 99.0514L80.6388 97.7048L80.4671 96.7287L80.0996 94.5808L79.8405 92.0021C79.7923 91.5292 79.8255 91.1134 79.949 90.6405C79.8405 89.9868 79.8948 89.1372 80.4129 88.6673C80.8919 88.2305 81.5818 88.1853 81.9734 88.6372C82.4945 89.2366 82.5879 90.0319 82.7295 90.776L83.1211 92.8306L84.1484 97.2409C84.2749 97.7831 84.2297 98.3977 84.2749 98.9249C84.3533 99.8256 84.6033 100.618 84.0671 101.528L82.9524 101.964C81.6962 101.989 80.91 101.187 80.8979 100.085L80.8949 100.088Z" fill="white"/>
<path d="M50.6583 107.55C50.6944 107.908 49.7636 109.068 48.676 108.806C48.1278 108.673 47.5765 108.417 47.5012 107.788L47.215 105.456C47.1336 104.787 47.1367 104.206 47.0071 103.495L46.7782 102.251L45.7901 98.1927L45.4165 96.2707L45.3292 95.0838V93.7523C45.3231 93.1046 45.8654 92.4087 46.495 92.5051C47.2029 92.6105 47.1879 93.3034 47.3084 93.7643L47.6608 95.126L48.2904 97.3492L48.7273 98.6506L49.0315 99.6417L49.4864 101.124L50.1461 103.971L50.4594 105.54L50.6613 107.547L50.6583 107.55Z" fill="white"/>
<path d="M81.4578 83.9164C81.8102 84.8172 81.4126 86.0252 80.4637 86.2421C80.0449 86.3385 79.343 86.218 79.0568 85.8414C78.4935 85.0973 78.861 84.2478 79.5177 83.6604C79.834 83.3772 80.1323 83.1784 80.5721 83.1965C80.9517 83.2145 81.3102 83.5399 81.4578 83.9164Z" fill="white"/>
<path d="M45.0606 88.9463C44.4551 88.7144 44.6087 87.898 45.0666 87.4672C45.3227 87.2262 45.8529 87.2744 46.0999 87.5033C46.371 87.7564 46.4253 88.2504 46.3198 88.5246C46.1571 88.9463 45.5577 89.1331 45.0606 88.9463Z" fill="white"/>
</svg>
