<svg width="226" height="573" viewBox="0 0 226 573" fill="none" xmlns="http://www.w3.org/2000/svg">
<path d="M140.635 311.18C119.828 342.39 85.8003 358.7 59.7107 383.679C35.0841 407.222 21.9174 436.535 13.3021 469.56L10.0782 487.82C11.6766 489.879 13.3022 491.83 14.9006 493.916C15.8759 495.189 16.9325 496.571 17.989 497.953C27.1462 449.079 43.591 413.995 85.0147 385.413C86.0442 384.681 86.6402 383.814 86.5318 382.487C88.7263 382.839 87.9406 388.989 87.8323 390.641C87.5613 395.084 86.1525 399.229 86.5318 403.7C90.6769 404.675 89.0243 398.254 92.7359 397.469C98.5336 419.088 115.683 428.191 134.539 413.697C144.319 406.192 153.449 377.177 148.275 366.259C147.462 364.525 137.627 358.619 135.27 358.077C129.554 356.722 125.571 358.429 120.234 358.185C131.775 347.457 144.834 337.46 151.444 322.613C152.989 322.234 153.016 323.914 153.314 325.052C154.56 329.982 154.885 333.965 156.727 339.139C160.764 350.599 167.022 366.204 178.834 370.647C174.473 376.608 170.273 382.893 165.668 388.691C156.781 399.961 139.199 420.578 126.086 427.676C119.042 431.469 109.262 434.178 102.083 438.594C101.351 438.594 101.297 436.427 100.186 435.668C85.7462 425.969 77.2122 419.223 59.2502 426.918C53.2629 429.491 49.9577 432.607 46.1377 437.511C27.7964 461.108 26.0625 474.031 42.8595 499.199C47.4922 506.135 53.1274 514.073 61.0383 517.188L59.4669 545.066C63.314 548.452 67.2694 551.541 71.3061 554.304C72.9316 540.162 75.8576 526.752 78.7564 512.582C81.8449 497.736 80.5445 494.187 88.5908 479.964C99.4547 460.728 106.336 454.849 125.355 444.365C141.772 435.343 145.999 434.801 159.572 419.928C232.504 339.979 227.356 246.945 187.883 151.961C181.218 135.922 168.539 120.967 162.417 103.818C155.833 85.3956 154.045 45.8683 164.096 28.8817C167.7 22.813 174.066 20.3477 171.249 10.7029C167.402 9.78178 162.146 8.40009 158.542 10.5133C154.018 13.1683 145.836 28.7462 141.583 32.8371C131.803 51.2055 119.882 69.6551 111.294 88.3486C99.238 114.574 102.299 158.95 117.715 183.442C134.187 209.64 176.017 220.666 167.293 257.918C164.367 270.38 148.193 299.883 140.662 311.153L140.635 311.18ZM129.879 372.788C131.721 372.625 133.401 373.113 134.999 373.926C137.004 385.087 123.269 415.837 109.072 405.461C105.903 403.131 97.9376 387.905 102.76 384.329L100.24 383.137L103.058 377.827C111.294 377.15 122.131 373.465 129.879 372.788ZM78.5668 464.982C76.0202 469.154 67.6758 483.784 66.7005 487.035C65.5085 490.963 65.5897 510.632 59.9004 509.684C52.3688 501.61 39.473 483.811 39.5543 472.73C39.6085 465.036 57.2996 441.168 64.3977 438.323C72.4982 435.072 81.6282 438.052 87.3175 444.067C88.7805 445.611 90.3519 447.805 89.81 449.892C89.4036 451.517 80.5175 461.758 78.5668 464.982ZM202.513 293.869C194.602 287.312 184.226 284.034 173.849 285.118C179.755 270.055 185.309 255.669 183.819 238.953C185.987 241.473 188.506 243.423 190.863 245.618C191.893 246.593 192.272 248.246 193.789 249.492C195.496 250.901 202.106 253.312 202.54 254.802C201.456 267.969 204.978 280.946 202.486 293.869H202.513ZM200.047 236.461C185.797 230.771 190.999 218.201 192.57 206.524L200.047 236.461ZM130.367 173.282C129.744 172.225 127.305 167.891 130.177 167.864C136.219 178.89 159.653 192.761 164.584 174.176C168.106 160.793 164.096 137.954 150.848 131.56C148.844 130.585 145.24 130.856 143.859 129.799C142.043 128.391 143.777 121.645 134.674 126.819C129.689 129.637 124.19 144.375 124.027 149.956C123.946 152.773 125.003 154.778 125.192 157.271C125.301 158.652 126.086 161.903 123.973 161.605L119.449 128.336C118.771 108.586 135.243 77.4305 144.915 59.6582C145.538 58.4932 146.107 56.8948 147.651 56.7864C148.383 66.1603 146.649 76.9158 147.651 86.1C150.848 114.926 170.192 132.482 176.992 155.32C177.94 158.517 177.317 161.822 178.428 165.1C182.194 176.316 189.292 187.505 191.351 199.67L190.077 202.189C186.881 201.729 185.662 201.864 183.955 204.817L177.588 225.245C168.16 204.357 141.474 192.951 130.34 173.282H130.367ZM136.462 139.119C151.417 140.636 159.166 159.221 151.986 171.575C138.765 166.103 128.823 153.478 136.462 139.119ZM188.425 301.129C191.893 302.972 192.137 304.949 194.331 307.117C196.038 308.769 198.422 310.151 199.37 312.4C200.075 317.249 193.302 339.573 191.161 345.316C190.782 346.319 189.319 346.292 188.913 347.294C187.531 350.681 185.12 365.094 179.647 363.658C174.012 362.168 162.606 328.438 162.498 321.963C162.281 307.36 172.901 292.812 188.425 301.129Z" fill="#4caf50"/>
<path d="M77.4561 593.425C73.1214 590.472 61.0383 586.733 37.2244 561.24C13.4377 535.773 3.35942 508.952 3.35942 508.952L0 497.546L0.78565 486.168L4.00961 467.908C14.4671 427.676 30.045 398.986 53.1816 376.879C63.2598 367.234 74.4488 358.835 85.2585 350.735C103.437 337.107 120.587 324.266 132.778 305.952C140.824 293.869 155.644 266.018 158.082 255.777C162.227 238.032 151.932 228.414 134.81 214.218C125.68 206.659 116.225 198.83 109.723 188.454C92.5464 161.145 89.3495 113.49 102.733 84.4202C108.287 72.3372 115.168 60.3625 121.806 48.7942C125.734 41.967 129.635 35.1669 133.266 28.3939L135.027 26.064C136.083 25.0345 138.874 20.8082 140.716 18.0177C146.026 9.94428 149.575 4.85098 153.72 2.41269C160.466 -1.56983 168.269 0.326609 172.955 1.43738L180.27 8.07493C183.711 19.9141 177.994 26.5788 174.581 30.5613C173.741 31.5095 172.874 32.4848 172.143 33.6769C164.313 46.9249 164.99 83.2282 171.222 100.675C174.229 109.074 179.024 117.039 184.144 125.438C188.615 132.779 193.193 140.365 196.525 148.384C243.611 261.656 233.75 352.577 166.48 426.321C154.262 439.732 148.329 442.848 137.546 448.537L129.852 452.655C112.432 462.273 106.715 467.014 96.7456 484.651C91.5439 493.889 90.975 497.33 89.7017 504.861C89.2411 507.598 88.7264 510.713 87.9407 514.533L87.1821 518.272C84.5542 530.978 82.0617 542.953 80.6258 555.415L77.4561 593.452V593.425ZM71.3062 446.424C70.1683 446.424 69.0034 446.641 67.8926 447.074C63.1515 449.675 49.8764 467.854 48.9282 473.245C48.9282 476.821 52.2063 483.54 56.6765 490.313C56.9745 487.631 57.3267 485.463 57.6789 484.326C59.3315 478.88 70.1684 460.674 70.5205 460.105C71.523 458.453 74.1238 455.147 76.6975 451.896C77.429 450.975 78.1605 450.081 78.8107 449.241C76.5891 447.589 73.9612 446.478 71.2791 446.478L71.3062 446.424ZM98.8588 445.503C99.3464 447.264 99.4006 448.916 99.2651 450.325C100.213 449.512 101.162 448.699 102.164 447.914L98.8588 445.476V445.503ZM73.5006 414.13C81.8991 414.13 88.7806 417.191 95.5807 421.364C93.1424 419.007 90.975 416.216 89.1056 413.046C87.0466 413.344 85.2857 413.046 84.3916 412.857L77.1852 404.485C77.1581 404.079 77.131 403.727 77.1039 403.347C72.6066 407.195 68.4886 411.15 64.777 415.214C67.8926 414.482 70.7914 414.157 73.5277 414.157L73.5006 414.13ZM110.671 388.203C110.671 390.343 113.597 396.629 115.222 398.39C118.013 397.685 122.51 389.883 124.65 383.164C122.862 383.543 120.993 384.004 119.097 384.437C115.791 385.196 112.432 385.982 109.127 386.55L108.585 387.58L107.935 387.255L108.395 391.942C110.102 390.668 110.671 388.907 110.671 388.257V388.203ZM77.5915 380.455C77.2664 381.322 77.0768 382.27 77.158 383.272L88.022 373.194C90.2435 373.546 92.0858 374.386 93.5216 375.714L94.7407 373.411L102.272 368.426C106.065 368.101 110.481 367.044 114.789 366.042C116.143 365.717 117.498 365.419 118.853 365.121L114.139 352.252C108.341 356.939 102.381 361.382 96.5288 365.798C89.9455 370.729 83.6059 375.497 77.5644 380.455H77.5915ZM157.025 362.791C159.274 367.938 159.545 375.036 158.488 382.541C160.872 379.506 163.175 376.337 165.424 373.167C162.119 370.16 159.355 366.556 157.025 362.818V362.791ZM142.07 350.843C146.568 353.065 152.799 356.83 155.698 360.515C152.393 354.636 150.09 348.622 148.491 344.097C146.432 346.454 144.292 348.676 142.098 350.843H142.07ZM179.647 308.119C178.401 308.119 177.669 308.553 177.29 308.796C174.093 310.747 171.818 316.22 171.926 321.828C172.17 325.241 175.881 336.864 179.539 345.75C179.783 344.91 180.026 344.233 180.243 343.718L182.708 341.144C185.011 334.669 188.696 321.584 189.752 315.596C189.075 315.027 188.398 314.459 187.802 313.863C186.528 312.643 185.689 311.506 184.876 310.395L183.982 309.419C182.112 308.417 180.704 308.119 179.647 308.119ZM150.252 313.619L153.801 314.161C155.562 304.949 160.52 296.957 167.51 292.704C168.919 291.837 170.382 291.132 171.899 290.618L166.778 283.872C161.198 295.169 154.56 306.792 150.279 313.592L150.252 313.619ZM200.454 299.693L201.944 301.238C202.784 301.942 203.867 302.836 204.924 303.974C205.168 301.942 205.412 299.883 205.628 297.824L200.454 299.693ZM187.179 276.476C189.454 276.936 191.676 277.559 193.843 278.345C193.762 276.448 193.627 274.498 193.491 272.547C193.22 268.402 192.895 264.176 192.922 259.814C192.597 259.651 192.299 259.489 191.974 259.326C190.836 265.314 189.102 271.03 187.179 276.476ZM200.074 242.394C200.074 242.394 200.914 242.746 201.673 243.152C202.567 243.586 203.488 244.046 204.382 244.534C204.138 242.719 203.867 240.904 203.597 239.061L199.966 242.231C199.966 242.231 200.02 242.34 200.047 242.394H200.074ZM173.281 228.848C174.825 231.963 176.044 235.269 176.83 238.818L184.334 235.675C182.898 233.372 182.031 230.88 181.544 228.36L173.308 228.848H173.281ZM160.683 191.596C165.37 195.606 170.057 199.697 174.283 204.221L175.8 200.103C177.209 197.692 178.78 196.012 180.433 194.847C179.051 190.594 177.1 186.313 175.123 181.843C174.5 180.489 173.904 179.134 173.308 177.779C171.14 184.715 166.67 189.564 160.683 191.596ZM117.119 157.867C117.254 158.381 117.39 158.896 117.552 159.438L121.535 158.3L121.02 157.596L117.119 157.894V157.867ZM139.009 92.1956C134.972 101.217 131.396 110.672 129.744 118.773C129.825 118.719 129.933 118.665 130.042 118.61C133.591 116.606 138.955 114.14 144.455 116.308C145.836 116.849 146.974 117.581 147.895 118.394C144.048 110.591 140.716 102.003 139.009 92.1956ZM146.974 47.3854L148.6 48.7942C149.169 44.3782 149.954 40.1248 151.038 36.2235C150.442 37.0092 149.846 37.7407 149.277 38.3909C147.543 41.5878 145.755 44.8117 143.967 48.0086C144.915 47.6835 145.945 47.4667 147.001 47.3854H146.974Z" fill="#4caf50"/>
<path d="M59.4128 545.066L60.9841 517.188C53.0732 514.072 47.4652 506.134 42.8325 499.199C26.0355 474.03 27.7693 461.107 46.1106 437.51C49.9035 432.579 53.2358 429.491 59.196 426.944C77.1851 419.223 85.7191 425.969 100.132 435.668C101.216 436.399 101.27 438.594 102.028 438.594C109.181 434.178 119.015 431.469 126.032 427.649C139.118 420.551 156.7 399.934 165.613 388.663C170.192 382.866 174.391 376.58 178.78 370.62C166.968 366.177 160.71 350.572 156.673 339.112C154.858 333.937 154.533 329.955 153.26 325.051C152.961 323.886 152.934 322.234 151.39 322.613C144.78 337.459 131.721 347.456 120.207 358.185C125.544 358.456 129.527 356.749 135.243 358.104C137.573 358.645 147.435 364.524 148.247 366.285C153.422 377.203 144.319 406.192 134.512 413.723C115.656 428.218 98.5066 419.088 92.736 397.495C88.9973 398.281 90.6499 404.702 86.5048 403.726C86.1255 399.256 87.5614 395.111 87.8052 390.695C87.9136 389.043 88.6993 382.866 86.5048 382.54C86.6132 383.841 86.0171 384.708 84.9606 385.439C43.5369 414.049 27.092 449.106 17.9349 497.98C28.6092 511.932 43.0221 530.761 59.3857 545.093L59.4128 545.066Z" fill="#4caf50"/>
<path d="M53.2087 552.137C36.0324 537.047 21.2672 517.757 10.5117 503.669L8.72363 496.219C19.3708 439.461 39.9337 405.109 79.6505 377.664C78.2689 378.613 76.9684 380.834 77.158 383.218L87.9677 373.194C95.0117 374.278 98.1273 380.184 97.2604 390.723C97.2333 391.21 97.1791 391.698 97.152 392.159L101.839 395.03C104.06 403.321 108.205 409.037 113.218 410.744C118.744 412.586 124.759 409.308 128.795 406.219C135.135 401.343 142.071 379.534 140.201 371.542C138.088 370.024 133.916 367.586 132.534 367.044C131.261 366.773 129.744 366.882 127.062 367.207C124.732 367.451 122.375 367.667 119.747 367.532L113.814 351.223L119.638 345.94C129.121 337.406 138.088 329.332 142.829 318.739L149.223 313.429L157.405 314.73C161.252 317.168 162.037 321.042 162.362 322.505C162.931 324.699 163.311 326.596 163.69 328.465C164.178 330.876 164.611 333.233 165.586 335.97C167.971 342.716 173.579 358.564 182.14 361.788L186.42 376.147L181.896 382.46C179.024 386.523 176.125 390.587 173.064 394.461C163.554 406.49 145.403 427.866 130.583 435.885C127.17 437.727 123.16 439.353 119.069 441.006C114.762 442.739 110.319 444.527 107.041 446.559L102.083 447.968L92.4921 440.735C92.4921 440.735 93.1965 442.252 94.9304 443.417L92.9798 442.089C80.1923 433.447 75.37 430.196 62.9619 435.533C59.0606 437.213 56.8662 439.001 53.588 443.227C37.1432 464.386 36.6555 472.92 50.6892 493.943C54.8072 500.12 59.2773 506.324 64.479 508.383L70.4122 517.676L68.8408 545.554L53.2358 552.083L53.2087 552.137ZM47.6278 519.762C48.8198 521.09 50.0118 522.444 51.231 523.745L51.2852 522.58C50.0119 521.713 48.7927 520.764 47.6278 519.735V519.762ZM28.0132 495.596C30.3973 498.712 32.9439 501.99 35.6531 505.403C35.4363 505.078 35.2196 504.753 35.0029 504.455C32.4562 500.608 30.2618 496.978 28.4467 493.483C28.2841 494.187 28.1486 494.892 28.0132 495.623V495.596ZM73.5277 414.13C81.9262 414.13 88.8076 417.192 95.6077 421.364C93.1694 419.007 90.975 416.216 89.1056 413.019C87.0466 413.345 85.2857 413.019 84.3916 412.83L77.1852 404.458C77.1581 404.079 77.131 403.7 77.1039 403.32C72.5795 407.168 68.4886 411.123 64.7499 415.214C67.8655 414.482 70.7914 414.157 73.5277 414.157V414.13ZM157.052 362.791C159.301 367.993 159.68 374.928 158.678 382.324C161.008 379.344 163.229 376.256 165.424 373.167C162.119 370.16 159.355 366.557 157.025 362.818L157.052 362.791ZM142.07 350.843C146.568 353.038 152.799 356.804 155.698 360.515C152.365 354.636 150.09 348.622 148.491 344.097C146.432 346.454 144.292 348.676 142.098 350.843H142.07Z" fill="#4caf50"/>
<path d="M147.652 86.0994C150.848 114.925 170.192 132.481 176.992 155.32C177.94 158.516 177.317 161.822 178.401 165.127C182.167 176.343 189.265 187.532 191.351 199.696L190.078 202.216C186.881 201.755 185.662 201.891 183.955 204.844L177.561 225.271C168.16 204.383 141.447 192.977 130.34 173.309C129.717 172.225 127.305 167.917 130.123 167.863C136.165 178.917 159.626 192.761 164.53 174.176C168.079 160.765 164.042 137.926 150.821 131.56C148.817 130.585 145.213 130.855 143.832 129.799C142.016 128.39 143.777 121.644 134.647 126.819C129.662 129.636 124.19 144.374 124 149.955C123.892 152.773 124.976 154.751 125.165 157.27C125.274 158.652 126.059 161.903 123.919 161.605L119.395 128.336C118.744 108.586 135.189 77.43 144.861 59.6576C145.511 58.4927 146.053 56.8942 147.597 56.7588C148.329 66.1326 146.568 76.8881 147.597 86.0994" fill="#4caf50"/>
<path d="M169 229.091C164.882 219.961 156.131 212.457 146.866 204.546C137.709 196.716 128.227 188.616 122.185 177.915C121.291 176.397 118.907 172.334 119.476 167.755L114.626 162.851L110.102 129.582C109.343 108.098 123.106 79.9499 136.652 55.1336C139.172 50.2299 142.558 47.7375 146.893 47.3853L157.025 56.0276C157.405 60.85 157.215 65.9975 156.971 71.145C156.754 76.1841 156.538 80.9523 156.971 85.0703C158.651 100.188 165.37 111.864 172.495 124.218C177.588 133.104 182.898 142.262 185.987 152.611C186.745 155.211 186.881 157.514 186.989 159.384C187.043 160.522 187.125 161.578 187.287 162.12C188.642 166.102 190.43 170.085 192.245 174.122C195.604 181.626 199.099 189.375 200.589 198.071L199.695 203.923L198.422 206.442L192.272 209.612L186.502 228.035L168.946 229.091H169ZM191.568 210.019L188.723 211.509C189.184 211.509 190.592 210.858 191.568 210.019ZM160.683 191.596C165.37 195.606 170.057 199.724 174.31 204.221L175.8 200.157C177.209 197.692 178.78 195.985 180.433 194.82C179.051 190.594 177.101 186.286 175.123 181.843C174.5 180.461 173.904 179.107 173.308 177.752C171.14 184.688 166.697 189.537 160.683 191.596ZM134.756 161.172L138.413 163.312C141.746 169.381 151.959 174.88 154.614 173.77C154.614 173.77 155.048 173.309 155.454 171.765C158.299 161.09 154.56 143.806 146.757 140.04C143.832 139.742 140.797 139.336 138.088 137.222C138.034 137.195 137.98 137.141 137.925 137.087C136.002 140.771 133.51 147.653 133.428 150.227C133.428 150.552 133.591 151.229 133.753 151.988C134.106 153.451 134.431 154.913 134.566 156.512C134.702 157.65 134.918 159.302 134.729 161.145L134.756 161.172ZM116.333 157.948C116.062 158.788 116.008 159.492 116.035 159.844L121.535 158.3L121.02 157.596L116.36 157.948H116.333ZM139.009 92.1684C134.973 101.19 131.396 110.645 129.744 118.773C129.825 118.719 129.933 118.664 130.015 118.61C133.591 116.578 139.009 114.14 144.482 116.307C145.863 116.849 146.974 117.581 147.895 118.393C144.048 110.591 140.716 101.976 139.009 92.1684Z" fill="#4caf50"/>
<path d="M87.3175 444.066C88.7805 445.61 90.3519 447.805 89.81 449.891C89.4036 451.489 80.5175 461.73 78.5668 464.954C76.0202 469.126 67.6758 483.756 66.7005 487.007C65.5085 490.935 65.5897 510.604 59.9004 509.656C52.3688 501.582 39.473 483.783 39.5543 472.702C39.6085 465.008 57.2996 441.167 64.3977 438.295C72.4982 435.044 81.6282 438.025 87.3175 444.039M57.435 453.846C53.5067 455.201 53.5338 464.304 54.4278 467.69C54.6446 468.476 59.1419 478.337 59.6024 478.717C60.4152 479.367 61.255 479.719 62.2845 479.882C77.9166 482.022 76.6974 447.263 57.435 453.846Z" fill="#4caf50"/>
<path d="M60.3069 519.139C59.6567 519.139 58.9795 519.085 58.3293 518.976L53.0192 516.132C52.8024 515.888 29.991 491.261 30.1535 472.676C30.2619 460.593 50.6622 433.745 60.903 429.627C72.0649 425.157 85.4212 428.354 94.172 437.646C99.7258 443.498 99.8342 448.862 98.9402 452.303C98.2087 455.012 96.6915 457.017 91.4899 463.519C89.458 466.066 87.3989 468.612 86.6133 469.886C83.4706 475.033 76.5893 487.441 75.6681 489.907C75.5598 490.503 75.4243 492.074 75.2347 493.916C74.1239 504.618 72.9047 512.528 67.3509 516.728C65.2919 518.299 62.8265 519.112 60.3069 519.139ZM54.3196 486.52C55.0511 487.766 55.8639 489.013 56.6766 490.286C56.7579 489.5 56.8663 488.742 56.9476 488.037C56.0264 487.631 55.1324 487.116 54.2925 486.493L54.3196 486.52ZM72.1733 446.451C73.8801 447.508 75.4514 448.889 76.8331 450.515C76.9956 450.704 77.1582 450.921 77.3207 451.111C77.8626 450.434 78.4044 449.756 78.8921 449.133C77.0228 447.724 74.6386 446.641 72.1733 446.451Z" fill="#4caf50"/>
<path d="M194.358 307.089C196.038 308.742 198.449 310.124 199.397 312.372C200.102 317.222 193.329 339.546 191.188 345.289C190.809 346.292 189.319 346.265 188.913 347.267C187.531 350.626 185.12 365.066 179.647 363.63C173.985 362.14 162.606 328.384 162.498 321.936C162.281 307.333 172.901 292.785 188.398 301.102C191.866 302.944 192.137 304.922 194.331 307.062M177.128 316.517C173.172 317.818 173.199 338.625 182.925 336.132C190.836 334.127 194.087 310.909 177.128 316.517Z" fill="#4caf50"/>
<path d="M180.839 373.248C179.728 373.248 178.536 373.086 177.236 372.761C163.121 369.049 153.151 325.864 153.097 322.126C152.907 309.718 158.57 298.176 167.51 292.731C175.096 288.125 184.09 288.125 192.868 292.839C196.986 295.034 198.855 297.607 200.102 299.314L202.025 301.292C203.813 302.782 206.495 305.004 208.067 308.688L208.717 311.045C210.017 320.04 200.129 348.324 200.02 348.595L197.474 351.331C197.311 351.819 197.149 352.469 196.932 353.2C195.198 359.431 191.378 373.221 180.839 373.221V373.248ZM179.457 345.614C179.457 345.614 179.485 345.696 179.512 345.723C179.512 345.696 179.539 345.642 179.539 345.614C179.539 345.614 179.485 345.614 179.457 345.614Z" fill="#4caf50"/>
<path d="M190.863 245.645C191.92 246.62 192.299 248.273 193.816 249.519C195.496 250.928 202.134 253.339 202.54 254.829C201.483 267.996 204.978 280.946 202.513 293.869C194.602 287.312 184.199 284.034 173.85 285.118C179.756 270.055 185.282 255.669 183.819 238.953C185.987 241.473 188.506 243.396 190.863 245.618" fill="#4caf50"/>
<path d="M196.525 301.129C190.457 296.117 182.627 293.706 174.852 294.491L165.126 281.704C170.598 267.779 175.773 254.612 174.473 239.793L190.999 232.857C192.191 234.239 193.545 235.404 194.873 236.569L197.257 238.709C198.72 240.063 199.56 241.472 200.129 242.393C200.21 242.42 200.969 242.773 201.7 243.125C205.926 245.211 210.288 247.351 211.643 252.309L211.968 255.587C211.562 260.599 211.914 265.774 212.293 271.219C212.835 279.049 213.404 287.122 211.778 295.629L196.525 301.102V301.129ZM187.206 276.475C189.482 276.936 191.703 277.559 193.871 278.317C193.762 276.421 193.627 274.497 193.491 272.547C193.22 268.402 192.895 264.175 192.922 259.814C192.597 259.651 192.299 259.488 191.974 259.353C190.836 265.34 189.102 271.03 187.179 276.475H187.206Z" fill="#4caf50"/>
<path d="M135 373.925C137.004 385.114 123.269 415.81 109.072 405.46C105.876 403.131 97.9376 387.905 102.76 384.329L100.268 383.137L103.085 377.799C111.321 377.122 122.158 373.438 129.906 372.787C131.748 372.625 133.401 373.113 135.027 373.925M120.207 379.994C113.759 380.238 110.237 389.07 117.742 389.395C120.939 387.173 120.316 383.516 120.207 379.994Z" fill="#4caf50"/>
<path d="M115.006 417.002C111.05 417.002 107.122 415.702 103.546 413.101C98.3983 409.335 91.8963 396.9 91.8421 388.285C91.8421 385.765 92.3027 383.706 93.0342 382.053L91.9504 378.748L94.768 373.411L102.3 368.426C106.092 368.101 110.508 367.044 114.843 366.069C119.909 364.904 124.921 363.793 129.094 363.414C132.643 363.116 135.867 363.82 139.28 365.554L144.265 372.273C146.405 384.085 138.061 406.003 125.626 413.778C122.185 415.918 118.582 417.002 115.006 417.002ZM120.37 384.112L120.56 389.422C122.808 389.341 122.917 386.632 122.917 386.063C122.917 385.169 122.727 384.356 122.429 383.625C121.752 383.787 121.047 383.95 120.37 384.112Z" fill="#4caf50"/>
<path d="M136.435 139.146C151.417 140.663 159.139 159.248 151.986 171.602C138.765 166.102 128.796 153.504 136.435 139.146ZM146.405 149.115C139.605 148.276 137.98 152.475 143.29 156.566L146.405 149.115Z" fill="#4caf50"/>
<path d="M148.383 180.271C137.492 175.747 129.337 167.836 126.032 158.57C123.242 150.768 123.973 142.532 128.145 134.702L137.411 129.771C147.137 130.747 155.752 136.842 160.439 146.054C165.424 155.807 165.316 167.375 160.141 176.288L148.383 180.244V180.271Z" fill="#4caf50"/>
<path d="M200.048 236.46C185.824 230.798 190.999 218.2 192.57 206.523L200.048 236.46Z" fill="#4caf50"/>
<path d="M196.553 245.211C177.426 237.626 180.541 220.612 182.383 210.452C182.709 208.718 183.007 206.985 183.25 205.278L201.7 204.275L209.178 234.212L196.553 245.239V245.211Z" fill="#4caf50"/>
<path d="M57.4352 453.847C76.6976 447.264 77.9438 481.996 62.2846 479.883C61.2552 479.747 60.3882 479.395 59.6026 478.718C59.142 478.338 54.6447 468.477 54.428 467.691C53.5339 464.305 53.5068 455.202 57.4352 453.847Z" fill="#4caf50"/>
<path d="M63.6664 489.364C62.7995 489.364 61.9054 489.31 61.0114 489.175C58.2209 488.795 55.7555 487.712 53.6152 485.951C50.0662 483.16 45.3793 470.291 45.3522 470.183C43.6725 463.735 43.6725 448.618 54.3738 444.933C62.962 441.953 71.3876 444.039 76.806 450.487C83.1455 458.046 84.2834 470.888 79.3798 479.747C75.9933 485.869 70.2227 489.337 63.6393 489.337L63.6664 489.364Z" fill="#4caf50"/>
<path d="M177.128 316.516C194.087 310.908 190.836 334.126 182.925 336.131C173.172 338.596 173.145 317.817 177.128 316.516Z" fill="#4caf50"/>
<path d="M181.462 345.75C175.34 345.75 169.054 342.066 166.426 333.044C163.988 324.618 164.747 310.72 174.202 307.605C184.443 304.218 190.592 308.011 193.329 310.585C198.205 315.163 199.993 322.885 197.961 330.768C196.038 338.327 191.297 343.773 185.255 345.317C184.009 345.642 182.736 345.777 181.435 345.777L181.462 345.75Z" fill="#4caf50"/>
<path d="M120.207 379.994C120.316 383.516 120.939 387.173 117.742 389.395C110.238 389.069 113.787 380.237 120.207 379.994Z" fill="#4caf50"/>
<path d="M117.336 398.797C108.639 398.417 104.088 392.078 104.115 386.009C104.115 377.99 111.348 370.919 119.855 370.594L129.608 379.67L120.207 379.995L129.662 380.753C129.852 384.465 130.231 392.159 123.133 397.117L117.363 398.797H117.336ZM120.234 380.862L120.56 389.396C122.808 389.314 122.917 386.605 122.917 386.036C122.917 383.679 121.616 381.864 120.234 380.835V380.862ZM118.148 379.995V380.374L119.07 380.211C118.744 380.076 118.419 380.022 118.148 379.995Z" fill="#4caf50"/>
<path d="M146.405 149.115L143.29 156.566C137.98 152.475 139.605 148.276 146.405 149.115Z" fill="#4caf50"/>
<path d="M137.546 164.043C130.394 158.543 129.771 151.851 131.586 147.435C133.401 143.019 138.467 138.684 147.543 139.795L155.075 152.772L151.959 160.223L137.546 164.043ZM145.945 152.664L145.24 158.299C146.324 157.947 148.058 156.809 148.979 154.56C150.09 151.824 149.196 149.44 148.6 148.79L145.918 152.691L145.945 152.664Z" fill="#4caf50"/>
<path d="M140.635 311.18C119.828 342.39 85.8003 358.7 59.7107 383.679C35.0841 407.222 21.9174 436.535 13.3021 469.56L10.0782 487.82C11.6766 489.879 13.3022 491.83 14.9006 493.916C15.8759 495.189 16.9325 496.571 17.989 497.953C27.1462 449.079 43.591 413.995 85.0147 385.413C86.0442 384.681 86.6402 383.814 86.5318 382.487C88.7263 382.839 87.9406 388.989 87.8323 390.641C87.5613 395.084 86.1525 399.229 86.5318 403.7C90.6769 404.675 89.0243 398.254 92.7359 397.469C98.5336 419.088 115.683 428.191 134.539 413.697C144.319 406.192 153.449 377.177 148.275 366.259C147.462 364.525 137.627 358.619 135.27 358.077C129.554 356.722 125.571 358.429 120.234 358.185C131.775 347.457 144.834 337.46 151.444 322.613C152.989 322.234 153.016 323.914 153.314 325.052C154.56 329.982 154.885 333.965 156.727 339.139C160.764 350.599 167.022 366.204 178.834 370.647C174.473 376.608 170.273 382.893 165.668 388.691C156.781 399.961 139.199 420.578 126.086 427.676C119.042 431.469 109.262 434.178 102.083 438.594C101.351 438.594 101.297 436.427 100.186 435.668C85.7462 425.969 77.2122 419.223 59.2502 426.918C53.2629 429.491 49.9577 432.607 46.1377 437.511C27.7964 461.108 26.0625 474.031 42.8595 499.199C47.4922 506.135 53.1274 514.073 61.0383 517.188L59.4669 545.066C63.314 548.452 67.2694 551.541 71.3061 554.304C72.9316 540.162 75.8576 526.752 78.7564 512.582C81.8449 497.736 80.5445 494.187 88.5908 479.964C99.4547 460.728 106.336 454.849 125.355 444.365C141.772 435.343 145.999 434.801 159.572 419.928C232.504 339.979 227.356 246.945 187.883 151.961C181.218 135.922 168.539 120.967 162.417 103.818C155.833 85.3956 154.045 45.8683 164.096 28.8817C167.7 22.813 174.066 20.3477 171.249 10.7029C167.402 9.78178 162.146 8.40009 158.542 10.5133C154.018 13.1683 145.836 28.7462 141.583 32.8371C131.803 51.2055 119.882 69.6551 111.294 88.3486C99.238 114.574 102.299 158.95 117.715 183.442C134.187 209.64 176.017 220.666 167.293 257.918C164.367 270.38 148.193 299.883 140.662 311.153L140.635 311.18ZM129.879 372.788C131.721 372.625 133.401 373.113 134.999 373.926C137.004 385.087 123.269 415.837 109.072 405.461C105.903 403.131 97.9376 387.905 102.76 384.329L100.24 383.137L103.058 377.827C111.294 377.15 122.131 373.465 129.879 372.788ZM78.5668 464.982C76.0202 469.154 67.6758 483.784 66.7005 487.035C65.5085 490.963 65.5897 510.632 59.9004 509.684C52.3688 501.61 39.473 483.811 39.5543 472.73C39.6085 465.036 57.2996 441.168 64.3977 438.323C72.4982 435.072 81.6282 438.052 87.3175 444.067C88.7805 445.611 90.3519 447.805 89.81 449.892C89.4036 451.517 80.5175 461.758 78.5668 464.982ZM202.513 293.869C194.602 287.312 184.226 284.034 173.849 285.118C179.755 270.055 185.309 255.669 183.819 238.953C185.987 241.473 188.506 243.423 190.863 245.618C191.893 246.593 192.272 248.246 193.789 249.492C195.496 250.901 202.106 253.312 202.54 254.802C201.456 267.969 204.978 280.946 202.486 293.869H202.513ZM200.047 236.461C185.797 230.771 190.999 218.201 192.57 206.524L200.047 236.461ZM130.367 173.282C129.744 172.225 127.305 167.891 130.177 167.864C136.219 178.89 159.653 192.761 164.584 174.176C168.106 160.793 164.096 137.954 150.848 131.56C148.844 130.585 145.24 130.856 143.859 129.799C142.043 128.391 143.777 121.645 134.674 126.819C129.689 129.637 124.19 144.375 124.027 149.956C123.946 152.773 125.003 154.778 125.192 157.271C125.301 158.652 126.086 161.903 123.973 161.605L119.449 128.336C118.771 108.586 135.243 77.4305 144.915 59.6582C145.538 58.4932 146.107 56.8948 147.651 56.7864C148.383 66.1603 146.649 76.9158 147.651 86.1C150.848 114.926 170.192 132.482 176.992 155.32C177.94 158.517 177.317 161.822 178.428 165.1C182.194 176.316 189.292 187.505 191.351 199.67L190.077 202.189C186.881 201.729 185.662 201.864 183.955 204.817L177.588 225.245C168.16 204.357 141.474 192.951 130.34 173.282H130.367ZM136.462 139.119C151.417 140.636 159.166 159.221 151.986 171.575C138.765 166.103 128.823 153.478 136.462 139.119ZM188.425 301.129C191.893 302.972 192.137 304.949 194.331 307.117C196.038 308.769 198.422 310.151 199.37 312.4C200.075 317.249 193.302 339.573 191.161 345.316C190.782 346.319 189.319 346.292 188.913 347.294C187.531 350.681 185.12 365.094 179.647 363.658C174.012 362.168 162.606 328.438 162.498 321.963C162.281 307.36 172.901 292.812 188.425 301.129Z" fill="#1D1D1B"/>
<path d="M59.4128 545.066L60.9841 517.188C53.0732 514.072 47.4652 506.134 42.8325 499.199C26.0355 474.03 27.7693 461.107 46.1106 437.51C49.9035 432.579 53.2358 429.491 59.196 426.944C77.1851 419.223 85.7191 425.969 100.132 435.668C101.216 436.399 101.27 438.594 102.028 438.594C109.181 434.178 119.015 431.469 126.032 427.649C139.118 420.551 156.7 399.934 165.613 388.663C170.192 382.866 174.391 376.58 178.78 370.62C166.968 366.177 160.71 350.572 156.673 339.112C154.858 333.937 154.533 329.955 153.26 325.051C152.961 323.886 152.934 322.234 151.39 322.613C144.78 337.459 131.721 347.456 120.207 358.185C125.544 358.456 129.527 356.749 135.243 358.104C137.573 358.645 147.435 364.524 148.247 366.285C153.422 377.203 144.319 406.192 134.512 413.723C115.656 428.218 98.5066 419.088 92.736 397.495C88.9973 398.281 90.6499 404.702 86.5048 403.726C86.1255 399.256 87.5614 395.111 87.8052 390.695C87.9136 389.043 88.6993 382.866 86.5048 382.54C86.6132 383.841 86.0171 384.708 84.9606 385.439C43.5369 414.049 27.092 449.106 17.9349 497.98C28.6092 511.932 43.0221 530.761 59.3857 545.093L59.4128 545.066Z" fill="white"/>
<path d="M147.652 86.0994C150.848 114.925 170.192 132.481 176.992 155.32C177.94 158.516 177.317 161.822 178.401 165.127C182.167 176.343 189.265 187.532 191.351 199.696L190.078 202.216C186.881 201.755 185.662 201.891 183.955 204.844L177.561 225.271C168.16 204.383 141.447 192.977 130.34 173.309C129.717 172.225 127.305 167.917 130.123 167.863C136.165 178.917 159.626 192.761 164.53 174.176C168.079 160.765 164.042 137.926 150.821 131.56C148.817 130.585 145.213 130.855 143.832 129.799C142.016 128.39 143.777 121.644 134.647 126.819C129.662 129.636 124.19 144.374 124 149.955C123.892 152.773 124.976 154.751 125.165 157.27C125.274 158.652 126.059 161.903 123.919 161.605L119.395 128.336C118.744 108.586 135.189 77.43 144.861 59.6576C145.511 58.4927 146.053 56.8942 147.597 56.7588C148.329 66.1326 146.568 76.8881 147.597 86.0994" fill="white"/>
<path d="M87.3175 444.066C88.7805 445.61 90.3519 447.805 89.81 449.891C89.4036 451.489 80.5175 461.73 78.5668 464.954C76.0202 469.126 67.6758 483.756 66.7005 487.007C65.5085 490.935 65.5897 510.604 59.9004 509.656C52.3688 501.582 39.473 483.783 39.5543 472.702C39.6085 465.008 57.2996 441.167 64.3977 438.295C72.4982 435.044 81.6282 438.025 87.3175 444.039M57.435 453.846C53.5067 455.201 53.5338 464.304 54.4278 467.69C54.6446 468.476 59.1419 478.337 59.6024 478.717C60.4152 479.367 61.255 479.719 62.2845 479.882C77.9166 482.022 76.6974 447.263 57.435 453.846Z" fill="white"/>
<path d="M194.358 307.089C196.038 308.742 198.449 310.124 199.397 312.372C200.102 317.222 193.329 339.546 191.188 345.289C190.809 346.292 189.319 346.265 188.913 347.267C187.531 350.626 185.12 365.066 179.647 363.63C173.985 362.14 162.606 328.384 162.498 321.936C162.281 307.333 172.901 292.785 188.398 301.102C191.866 302.944 192.137 304.922 194.331 307.062M177.128 316.517C173.172 317.818 173.199 338.625 182.925 336.132C190.836 334.127 194.087 310.909 177.128 316.517Z" fill="white"/>
<path d="M190.863 245.645C191.92 246.62 192.299 248.273 193.816 249.519C195.496 250.928 202.134 253.339 202.54 254.829C201.483 267.996 204.978 280.946 202.513 293.869C194.602 287.312 184.199 284.034 173.85 285.118C179.756 270.055 185.282 255.669 183.819 238.953C185.987 241.473 188.506 243.396 190.863 245.618" fill="white"/>
<path d="M135 373.925C137.004 385.114 123.269 415.81 109.072 405.46C105.876 403.131 97.9376 387.905 102.76 384.329L100.268 383.137L103.085 377.799C111.321 377.122 122.158 373.438 129.906 372.787C131.748 372.625 133.401 373.113 135.027 373.925M120.207 379.994C113.759 380.238 110.237 389.07 117.742 389.395C120.939 387.173 120.316 383.516 120.207 379.994Z" fill="white"/>
<path d="M136.435 139.146C151.417 140.663 159.139 159.248 151.986 171.602C138.765 166.102 128.796 153.504 136.435 139.146ZM146.405 149.115C139.605 148.276 137.98 152.475 143.29 156.566L146.405 149.115Z" fill="white"/>
<path d="M200.048 236.46C185.824 230.798 190.999 218.2 192.57 206.523L200.048 236.46Z" fill="white"/>
<path d="M57.4352 453.847C76.6976 447.264 77.9438 481.996 62.2846 479.883C61.2552 479.747 60.3882 479.395 59.6026 478.718C59.142 478.338 54.6447 468.477 54.428 467.691C53.5339 464.305 53.5068 455.202 57.4352 453.847Z" fill="#1D1D1B"/>
<path d="M177.128 316.516C194.087 310.908 190.836 334.126 182.925 336.131C173.172 338.596 173.145 317.817 177.128 316.516Z" fill="#1D1D1B"/>
<path d="M120.207 379.994C120.316 383.516 120.939 387.173 117.742 389.395C110.238 389.069 113.787 380.237 120.207 379.994Z" fill="#1D1D1B"/>
<path d="M146.405 149.115L143.29 156.566C137.98 152.475 139.605 148.276 146.405 149.115Z" fill="#1D1D1B"/>
<path d="M10.0782 487.82L8.72363 496.219C8.72363 496.219 44.5935 553.193 53.9673 560.589C63.3411 567.986 66.7006 568.636 66.7006 568.636L71.252 554.331C71.252 554.331 28.5008 515.671 21.782 502.938C15.0631 490.204 10.0512 487.847 10.0512 487.847L10.0782 487.82Z" fill="#1D1D1B"/>
</svg>
