<?xml version="1.0" encoding="UTF-8"?><svg id="Layer_1" xmlns="http://www.w3.org/2000/svg" viewBox="0 0 267.864 574.123"><path d="M237.407,228.795c3.967-3.533,7.305-7.751,9.85-12.408.219-.411.465-.876.356-1.342-.109-.411-.438-.74-.766-1.014-1.806-1.534-3.612-3.04-5.418-4.574.246.822-.821,1.507-1.642,1.287-.821-.219-1.341-1.014-1.806-1.726-1.231-1.917-2.435-3.835-3.666-5.752-1.396,1.123-1.888,2.958-2.518,4.629-1.313,3.451-3.475,6.574-6.238,9.011" style="fill:#4ab358;"/><path d="M140.635,311.18c-20.807,31.21-54.835,47.52-80.924,72.499-24.627,23.543-37.793,52.856-46.409,85.881l-3.224,18.26c1.598,2.059,3.224,4.01,4.822,6.096.975,1.273,2.032,2.655,3.088,4.037,9.157-48.874,25.602-83.958,67.026-112.54,1.029-.732,1.625-1.599,1.517-2.926,2.195.352,1.409,6.502,1.3,8.154-.271,4.443-1.68,8.588-1.3,13.059,4.145.975,2.493-5.446,6.204-6.231,5.798,21.619,22.947,30.722,41.803,16.228,9.78-7.505,18.91-36.52,13.736-47.438-.813-1.734-10.648-7.64-13.005-8.182-5.716-1.355-9.699.352-15.036.108,11.541-10.728,24.6-20.725,31.21-35.572,1.545-.379,1.572,1.301,1.87,2.439,1.246,4.93,1.571,8.913,3.413,14.087,4.037,11.46,10.295,27.065,22.107,31.508-4.361,5.961-8.561,12.246-13.166,18.044-8.887,11.27-26.469,31.887-39.582,38.985-7.044,3.793-16.824,6.502-24.003,10.918-.732,0-.786-2.167-1.897-2.926-14.44-9.699-22.974-16.445-40.936-8.75-5.987,2.573-9.292,5.689-13.112,10.593-18.341,23.597-20.075,36.52-3.278,61.688,4.633,6.936,10.268,14.874,18.179,17.989l-1.571,27.878c3.847,3.386,7.803,6.475,11.839,9.238,1.626-14.142,4.551-27.552,7.45-41.722,3.089-14.846,1.788-18.395,9.834-32.618,10.864-19.236,17.745-25.115,36.764-35.599,16.417-9.022,20.644-9.564,34.217-24.437,72.932-79.949,67.784-172.983,28.311-267.967-6.665-16.039-19.344-30.994-25.466-48.143-6.584-18.422-8.372-57.95,1.679-74.936,3.604-6.069,9.97-8.534,7.153-18.179-3.847-.921-9.103-2.303-12.707-.19-4.524,2.655-12.706,18.233-16.959,22.324-9.78,18.368-21.701,36.818-30.289,55.512-12.056,26.225-8.995,70.601,6.421,95.093,16.472,26.198,58.302,37.224,49.578,74.476-2.926,12.462-19.1,41.965-26.631,53.235l-.027.027ZM129.879,372.788c1.842-.163,3.522.325,5.12,1.138,2.005,11.161-11.73,41.911-25.927,31.535-3.169-2.33-11.134-17.556-6.312-21.132l-2.52-1.192,2.818-5.31c8.236-.677,19.073-4.362,26.821-5.039ZM78.567,464.982c-2.547,4.172-10.891,18.802-11.866,22.053-1.192,3.928-1.111,23.597-6.8,22.649-7.532-8.074-20.427-25.873-20.346-36.954.054-7.694,17.745-31.562,24.843-34.407,8.101-3.251,17.23-.271,22.92,5.744,1.463,1.544,3.034,3.738,2.493,5.825-.406,1.625-9.292,11.866-11.243,15.09ZM202.513,293.869c-7.911-6.557-18.287-9.835-28.664-8.751,5.906-15.063,11.46-29.449,9.97-46.165,2.168,2.52,4.687,4.47,7.044,6.665,1.03.975,1.409,2.628,2.926,3.874,1.707,1.409,8.317,3.82,8.751,5.31-1.084,13.167,2.438,26.144-.054,39.067h.027ZM200.047,236.461c-14.25-5.69-9.048-18.26-7.477-29.937l7.477,29.937ZM130.367,173.282c-.623-1.057-3.062-5.391-.19-5.418,6.042,11.026,29.476,24.897,34.407,6.312,3.522-13.383-.488-36.222-13.736-42.616-2.004-.975-5.608-.704-6.989-1.761-1.816-1.408-.082-8.154-9.185-2.98-4.985,2.818-10.484,17.556-10.647,23.137-.081,2.817.976,4.822,1.165,7.315.109,1.381.894,4.632-1.219,4.334l-4.524-33.269c-.678-19.75,15.794-50.906,25.466-68.678.623-1.165,1.192-2.763,2.736-2.872.732,9.374-1.002,20.129,0,29.314,3.197,28.826,22.541,46.382,29.341,69.22.948,3.197.325,6.502,1.436,9.78,3.766,11.216,10.864,22.405,12.923,34.57l-1.274,2.519c-3.196-.46-4.415-.325-6.122,2.628l-6.367,20.428c-9.428-20.888-36.114-32.294-47.248-51.963h.027ZM136.462,139.119c14.955,1.517,22.704,20.102,15.524,32.456-13.221-5.472-23.163-18.097-15.524-32.456ZM188.425,301.129c3.468,1.843,3.712,3.82,5.906,5.988,1.707,1.652,4.091,3.034,5.039,5.283.705,4.849-6.068,27.173-8.209,32.916-.379,1.003-1.842.976-2.248,1.978-1.382,3.387-3.793,17.8-9.266,16.364-5.635-1.49-17.041-35.22-17.149-41.695-.217-14.603,10.403-29.151,25.927-20.834Z" style="fill:#4caf50;"/><path d="M83.242,568.959c-4.335-2.953-22.204,17.774-46.018-7.719-23.787-25.467-33.865-52.288-33.865-52.288l-3.359-11.406.786-11.378,3.224-18.26c10.457-40.232,26.035-68.922,49.172-91.029,10.078-9.645,21.267-18.044,32.077-26.144,18.178-13.628,35.328-26.469,47.52-44.783,8.046-12.083,22.866-39.934,25.304-50.175,4.145-17.745-6.15-27.363-23.272-41.559-9.13-7.559-18.585-15.388-25.087-25.764-17.177-27.309-20.373-74.964-6.99-104.034,5.554-12.083,12.435-24.058,19.073-35.626,3.928-6.827,7.829-13.627,11.46-20.4l1.761-2.33c1.056-1.029,3.847-5.256,5.689-8.046,5.31-8.073,8.859-13.167,13.004-15.605,6.746-3.983,14.549-2.086,19.235-.975l7.315,6.638c3.441,11.839-2.276,18.504-5.689,22.486-.84.948-1.707,1.923-2.438,3.116-7.83,13.248-7.153,49.551-.921,66.998,3.007,8.399,7.802,16.364,12.922,24.763,4.471,7.341,9.049,14.927,12.381,22.946,47.086,113.272,37.225,204.193-30.045,277.937-12.218,13.411-18.151,16.527-28.934,22.216l-7.694,4.118c-17.42,9.618-23.137,14.359-33.106,31.996-5.202,9.238-5.771,12.679-7.044,20.21-.461,2.737-.975,5.852-1.761,9.672l-.759,3.739c-2.628,12.706-5.12,24.681-6.556,37.143l2.617,13.544h0ZM71.306,446.424c-1.138,0-2.303.217-3.414.65-4.741,2.601-18.016,20.78-18.964,26.171,0,3.576,3.278,10.295,7.748,17.068.298-2.682.65-4.85,1.002-5.987,1.653-5.446,12.49-23.652,12.842-24.221,1.003-1.652,3.603-4.958,6.177-8.209.731-.921,1.463-1.815,2.113-2.655-2.222-1.652-4.85-2.763-7.532-2.763l.027-.054ZM98.859,445.503c.488,1.761.542,3.413.406,4.822.948-.813,1.897-1.626,2.899-2.411l-3.305-2.438v.027ZM73.501,414.13c8.398,0,15.28,3.061,22.08,7.234-2.438-2.357-4.606-5.148-6.475-8.318-2.059.298-3.82,0-4.714-.189l-7.206-8.372c-.027-.406-.054-.758-.081-1.138-4.497,3.848-8.615,7.803-12.327,11.867,3.116-.732,6.014-1.057,8.751-1.057l-.027-.027ZM110.671,388.203c0,2.14,2.926,8.426,4.551,10.187,2.791-.705,7.288-8.507,9.428-15.226-1.788.379-3.657.84-5.553,1.273-3.306.759-6.665,1.545-9.97,2.113l-.542,1.03-.65-.325.46,4.687c1.707-1.274,2.276-3.035,2.276-3.685v-.054ZM77.591,380.455c-.325.867-.515,1.815-.434,2.817l10.864-10.078c2.221.352,4.064,1.192,5.5,2.52l1.219-2.303,7.531-4.985c3.793-.325,8.209-1.382,12.517-2.384,1.354-.325,2.709-.623,4.064-.921l-4.714-12.869c-5.798,4.687-11.758,9.13-17.61,13.546-6.583,4.931-12.923,9.699-18.964,14.657h.027ZM157.025,362.791c2.249,5.147,2.52,12.245,1.463,19.75,2.384-3.035,4.687-6.204,6.936-9.374-3.305-3.007-6.069-6.611-8.399-10.349v-.027ZM142.07,350.843c4.498,2.222,10.729,5.987,13.628,9.672-3.305-5.879-5.608-11.893-7.207-16.418-2.059,2.357-4.199,4.579-6.393,6.746h-.028ZM179.647,308.119c-1.246,0-1.978.434-2.357.677-3.197,1.951-5.472,7.424-5.364,13.032.244,3.413,3.955,15.036,7.613,23.922.244-.84.487-1.517.704-2.032l2.465-2.574c2.303-6.475,5.988-19.56,7.044-25.548-.677-.569-1.354-1.137-1.95-1.733-1.274-1.22-2.113-2.357-2.926-3.468l-.894-.976c-1.87-1.002-3.278-1.3-4.335-1.3ZM150.252,313.619l3.549.542c1.761-9.212,6.719-17.204,13.709-21.457,1.409-.867,2.872-1.572,4.389-2.086l-5.121-6.746c-5.58,11.297-12.218,22.92-16.499,29.72l-.027.027ZM200.454,299.693l1.49,1.545c.84.704,1.923,1.598,2.98,2.736.244-2.032.488-4.091.704-6.15l-5.174,1.869ZM187.179,276.476c2.275.46,4.497,1.083,6.664,1.869-.081-1.897-.216-3.847-.352-5.798-.271-4.145-.596-8.371-.569-12.733-.325-.163-.623-.325-.948-.488-1.138,5.988-2.872,11.704-4.795,17.15ZM200.074,242.394s.84.352,1.599.758c.894.434,1.815.894,2.709,1.382-.244-1.815-.515-3.63-.785-5.473l-3.631,3.17s.054.109.081.163h.027ZM173.281,228.848c1.544,3.115,2.763,6.421,3.549,9.97l7.504-3.143c-1.436-2.303-2.303-4.795-2.79-7.315l-8.236.488h-.027ZM160.683,191.596c4.687,4.01,9.374,8.101,13.6,12.625l1.517-4.118c1.409-2.411,2.98-4.091,4.633-5.256-1.382-4.253-3.333-8.534-5.31-13.004-.623-1.354-1.219-2.709-1.815-4.064-2.168,6.936-6.638,11.785-12.625,13.817ZM117.119,157.867c.135.514.271,1.029.433,1.571l3.983-1.138-.515-.704-3.901.298v-.027ZM139.009,92.196c-4.037,9.021-7.613,18.476-9.265,26.577.081-.054.189-.108.298-.163,3.549-2.004,8.913-4.47,14.413-2.302,1.381.541,2.519,1.273,3.44,2.086-3.847-7.803-7.179-16.391-8.886-26.198ZM146.974,47.385l1.626,1.409c.569-4.416,1.354-8.669,2.438-12.571-.596.786-1.192,1.517-1.761,2.167-1.734,3.197-3.522,6.421-5.31,9.618.948-.325,1.978-.542,3.034-.623h-.027Z" style="fill:#4caf50;"/><path d="M59.413,545.066l1.571-27.878c-7.911-3.116-13.519-11.054-18.152-17.989-16.797-25.169-15.063-38.092,3.278-61.689,3.793-4.931,7.125-8.019,13.085-10.566,17.989-7.721,26.523-.975,40.936,8.724,1.084.731,1.138,2.926,1.896,2.926,7.153-4.416,16.987-7.125,24.004-10.945,13.086-7.098,30.668-27.715,39.581-38.986,4.579-5.797,8.778-12.083,13.167-18.043-11.812-4.443-18.07-20.048-22.107-31.508-1.815-5.175-2.14-9.157-3.413-14.061-.299-1.165-.326-2.817-1.87-2.438-6.61,14.846-19.669,24.843-31.183,35.572,5.337.271,9.32-1.436,15.036-.081,2.33.541,12.192,6.42,13.004,8.181,5.175,10.918-3.928,39.907-13.735,47.438-18.856,14.495-36.005,5.365-41.776-16.228-3.739.786-2.086,7.207-6.231,6.231-.379-4.47,1.057-8.615,1.3-13.031.108-1.652.894-7.829-1.3-8.155.108,1.301-.488,2.168-1.544,2.899-41.424,28.61-57.869,63.667-67.026,112.541,10.674,13.952,25.087,32.781,41.451,47.113l.027-.027Z" style="fill:#4caf50;"/><path d="M53.209,552.137c-17.176-15.09-31.941-34.38-42.697-48.468l-1.788-7.45c10.647-56.758,31.21-91.11,70.927-118.555-1.382.949-2.682,3.17-2.493,5.554l10.81-10.024c7.044,1.084,10.16,6.99,9.293,17.529-.027.487-.081.975-.108,1.436l4.687,2.871c2.221,8.291,6.366,14.007,11.379,15.714,5.526,1.842,11.541-1.436,15.577-4.525,6.34-4.876,13.276-26.685,11.406-34.677-2.113-1.518-6.285-3.956-7.667-4.498-1.273-.271-2.79-.162-5.472.163-2.33.244-4.687.46-7.315.325l-5.933-16.309,5.824-5.283c9.483-8.534,18.45-16.608,23.191-27.201l6.394-5.31,8.182,1.301c3.847,2.438,4.632,6.312,4.957,7.775.569,2.194.949,4.091,1.328,5.96.488,2.411.921,4.768,1.896,7.505,2.385,6.746,7.993,22.594,16.554,25.818l4.28,14.359-4.524,6.313c-2.872,4.063-5.771,8.127-8.832,12.001-9.51,12.029-27.661,33.405-42.481,41.424-3.413,1.842-7.423,3.468-11.514,5.121-4.307,1.733-8.75,3.521-12.028,5.553l-4.958,1.409-9.591-7.233s.704,1.517,2.438,2.682l-1.951-1.328c-12.787-8.642-17.61-11.893-30.018-6.556-3.901,1.68-6.096,3.468-9.374,7.694-16.445,21.159-16.933,29.693-2.899,50.716,4.118,6.177,8.588,12.381,13.79,14.44l5.933,9.293-1.571,27.878-15.605,6.529-.027.054ZM47.628,519.762c1.192,1.328,2.384,2.682,3.603,3.983l.054-1.165c-1.273-.867-2.492-1.816-3.657-2.845v.027ZM28.013,495.596c2.384,3.116,4.931,6.394,7.64,9.807-.217-.325-.433-.65-.65-.948-2.547-3.847-4.741-7.477-6.556-10.972-.163.704-.298,1.409-.433,2.14v-.027ZM73.528,414.13c8.398,0,15.28,3.062,22.08,7.234-2.438-2.357-4.633-5.148-6.502-8.345-2.059.326-3.82,0-4.714-.189l-7.206-8.372c-.027-.379-.054-.758-.081-1.138-4.524,3.848-8.615,7.803-12.354,11.894,3.116-.732,6.041-1.057,8.778-1.057v-.027ZM157.052,362.791c2.249,5.202,2.628,12.137,1.626,19.533,2.33-2.98,4.551-6.068,6.746-9.157-3.305-3.007-6.069-6.61-8.399-10.349l.027-.027ZM142.07,350.843c4.498,2.195,10.729,5.961,13.628,9.672-3.333-5.879-5.608-11.893-7.207-16.418-2.059,2.357-4.199,4.579-6.393,6.746h-.028Z" style="fill:#4caf50;"/><path d="M147.652,86.099c3.196,28.826,22.54,46.382,29.34,69.221.948,3.196.325,6.502,1.409,9.807,3.766,11.216,10.864,22.405,12.95,34.569l-1.273,2.52c-3.197-.461-4.416-.325-6.123,2.628l-6.394,20.427c-9.401-20.888-36.114-32.294-47.221-51.962-.623-1.084-3.035-5.392-.217-5.446,6.042,11.054,29.503,24.898,34.407,6.313,3.549-13.411-.488-36.25-13.709-42.616-2.004-.975-5.608-.705-6.989-1.761-1.816-1.409-.055-8.155-9.185-2.98-4.985,2.817-10.457,17.555-10.647,23.136-.108,2.818.976,4.796,1.165,7.315.109,1.382.894,4.633-1.246,4.335l-4.524-33.269c-.651-19.75,15.794-50.906,25.466-68.678.65-1.165,1.192-2.763,2.736-2.899.732,9.374-1.029,20.129,0,29.341" style="fill:#4caf50;"/><path d="M169,229.091c-4.118-9.13-12.869-16.634-22.134-24.545-9.157-7.83-18.639-15.93-24.681-26.631-.894-1.518-3.278-5.581-2.709-10.16l-4.85-4.904-4.524-33.269c-.759-21.484,13.004-49.632,26.55-74.448,2.52-4.904,5.906-7.396,10.241-7.748l10.132,8.642c.38,4.822.19,9.97-.054,15.117-.217,5.039-.433,9.807,0,13.925,1.68,15.118,8.399,26.794,15.524,39.148,5.093,8.886,10.403,18.044,13.492,28.393.758,2.6.894,4.903,1.002,6.773.054,1.138.136,2.194.298,2.736,1.355,3.982,3.143,7.965,4.958,12.002,3.359,7.504,6.854,15.253,8.344,23.949l-.894,5.852-1.273,2.519-6.15,3.17-5.77,18.423-17.556,1.056h.054ZM191.568,210.019l-2.845,1.49c.461,0,1.869-.651,2.845-1.49ZM160.683,191.596c4.687,4.01,9.374,8.128,13.627,12.625l1.49-4.064c1.409-2.465,2.98-4.172,4.633-5.337-1.382-4.226-3.332-8.534-5.31-12.977-.623-1.382-1.219-2.736-1.815-4.091-2.168,6.936-6.611,11.785-12.625,13.844ZM134.756,161.172l3.657,2.14c3.333,6.069,13.546,11.568,16.201,10.458,0,0,.434-.461.84-2.005,2.845-10.675-.894-27.959-8.697-31.725-2.925-.298-5.96-.704-8.669-2.818-.054-.027-.108-.081-.163-.135-1.923,3.684-4.415,10.566-4.497,13.14,0,.325.163,1.002.325,1.761.353,1.463.678,2.925.813,4.524.136,1.138.352,2.79.163,4.633l.027.027ZM116.333,157.948c-.271.84-.325,1.544-.298,1.896l5.5-1.544-.515-.704-4.66.352h-.027ZM139.009,92.168c-4.036,9.022-7.613,18.477-9.265,26.605.081-.054.189-.109.271-.163,3.576-2.032,8.994-4.47,14.467-2.303,1.381.542,2.492,1.274,3.413,2.086-3.847-7.802-7.179-16.417-8.886-26.225Z" style="fill:#4caf50;"/><path d="M87.317,444.066c1.463,1.544,3.034,3.739,2.493,5.825-.406,1.598-9.292,11.839-11.243,15.063-2.547,4.172-10.891,18.802-11.866,22.053-1.192,3.928-1.111,23.597-6.8,22.649-7.532-8.074-20.427-25.873-20.346-36.954.054-7.694,17.745-31.535,24.843-34.407,8.101-3.251,17.23-.27,22.92,5.744M57.435,453.846c-3.928,1.355-3.901,10.458-3.007,13.844.217.786,4.714,10.647,5.175,11.027.813.65,1.653,1.002,2.682,1.165,15.632,2.14,14.413-32.619-4.849-26.036Z" style="fill:#4caf50;"/><path d="M60.307,519.139c-.65,0-1.327-.054-1.978-.163l-5.31-2.844c-.217-.244-23.028-24.871-22.866-43.456.108-12.083,20.509-38.931,30.75-43.049,11.162-4.47,24.518-1.273,33.269,8.019,5.554,5.852,5.662,11.216,4.768,14.657-.731,2.709-2.249,4.714-7.45,11.216-2.032,2.547-4.091,5.093-4.877,6.367-3.143,5.147-10.024,17.555-10.945,20.021-.108.596-.244,2.167-.433,4.009-1.111,10.702-2.33,18.612-7.884,22.812-2.059,1.571-4.524,2.384-7.044,2.411ZM54.32,486.52c.732,1.246,1.544,2.493,2.357,3.766.081-.786.19-1.544.271-2.249-.921-.406-1.815-.921-2.655-1.544l.027.027ZM72.173,446.451c1.707,1.057,3.278,2.438,4.66,4.064.162.189.325.406.488.596.542-.677,1.084-1.355,1.571-1.978-1.869-1.409-4.253-2.492-6.719-2.682Z" style="fill:#4caf50;"/><path d="M194.358,307.089c1.68,1.653,4.091,3.035,5.039,5.283.705,4.85-6.068,27.174-8.209,32.917-.379,1.003-1.869.976-2.275,1.978-1.382,3.359-3.793,17.799-9.266,16.363-5.662-1.49-17.041-35.246-17.149-41.694-.217-14.603,10.403-29.151,25.9-20.834,3.468,1.842,3.739,3.82,5.933,5.96M177.128,316.517c-3.956,1.301-3.929,22.108,5.797,19.615,7.911-2.005,11.162-25.223-5.797-19.615Z" style="fill:#4caf50;"/><path d="M180.839,373.248c-1.111,0-2.303-.162-3.603-.487-14.115-3.712-24.085-46.897-24.139-50.635-.19-12.408,5.473-23.95,14.413-29.395,7.586-4.606,16.58-4.606,25.358.108,4.118,2.195,5.987,4.768,7.234,6.475l1.923,1.978c1.788,1.49,4.47,3.712,6.042,7.396l.65,2.357c1.3,8.995-8.588,37.279-8.697,37.55l-2.546,2.736c-.163.488-.325,1.138-.542,1.869-1.734,6.231-5.554,20.021-16.093,20.021v.027ZM179.457,345.614s.028.082.055.109c0-.027.027-.081.027-.109h-.082Z" style="fill:#4caf50;"/><path d="M190.863,245.645c1.057.975,1.436,2.628,2.953,3.874,1.68,1.409,8.318,3.82,8.724,5.31-1.057,13.167,2.438,26.117-.027,39.04-7.911-6.557-18.314-9.835-28.663-8.751,5.906-15.063,11.432-29.449,9.969-46.165,2.168,2.52,4.687,4.443,7.044,6.665" style="fill:#4caf50;"/><path d="M196.525,301.129c-6.068-5.012-13.898-7.423-21.673-6.638l-9.726-12.787c5.472-13.925,10.647-27.092,9.347-41.911l16.526-6.936c1.192,1.382,2.546,2.547,3.874,3.712l2.384,2.14c1.463,1.354,2.303,2.763,2.872,3.684.081.027.84.38,1.571.732,4.226,2.086,8.588,4.226,9.943,9.184l.325,3.278c-.406,5.012-.054,10.187.325,15.632.542,7.83,1.111,15.903-.515,24.41l-15.253,5.473v.027ZM187.206,276.475c2.276.461,4.497,1.084,6.665,1.842-.109-1.896-.244-3.82-.38-5.77-.271-4.145-.596-8.372-.569-12.733-.325-.163-.623-.326-.948-.461-1.138,5.987-2.872,11.677-4.795,17.122h.027Z" style="fill:#4caf50;"/><path d="M135,373.925c2.004,11.189-11.731,41.885-25.928,31.535-3.196-2.329-11.134-17.555-6.312-21.131l-2.492-1.192,2.817-5.338c8.236-.677,19.073-4.361,26.821-5.012,1.842-.162,3.495.326,5.121,1.138M120.207,379.994c-6.448.244-9.97,9.076-2.465,9.401,3.197-2.222,2.574-5.879,2.465-9.401Z" style="fill:#4caf50;"/><path d="M115.006,417.002c-3.956,0-7.884-1.3-11.46-3.901-5.148-3.766-11.65-16.201-11.704-24.816,0-2.52.461-4.579,1.192-6.232l-1.084-3.305,2.818-5.337,7.532-4.985c3.792-.325,8.208-1.382,12.543-2.357,5.066-1.165,10.078-2.276,14.251-2.655,3.549-.298,6.773.406,10.186,2.14l4.985,6.719c2.14,11.812-6.204,33.73-18.639,41.505-3.441,2.14-7.044,3.224-10.62,3.224ZM120.37,384.112l.19,5.31c2.248-.081,2.357-2.79,2.357-3.359,0-.894-.19-1.707-.488-2.438-.677.162-1.382.325-2.059.487Z" style="fill:#4caf50;"/><path d="M136.435,139.146c14.982,1.517,22.704,20.102,15.551,32.456-13.221-5.5-23.19-18.098-15.551-32.456ZM146.405,149.115c-6.8-.839-8.425,3.36-3.115,7.451l3.115-7.451Z" style="fill:#4caf50;"/><path d="M148.383,180.271c-10.891-4.524-19.046-12.435-22.351-21.701-2.79-7.802-2.059-16.038,2.113-23.868l9.266-4.931c9.726.976,18.341,7.071,23.028,16.283,4.985,9.753,4.877,21.321-.298,30.234l-11.758,3.956v.027Z" style="fill:#4caf50;"/><path d="M200.048,236.46c-14.224-5.662-9.049-18.26-7.478-29.937l7.478,29.937Z" style="fill:#4caf50;"/><path d="M196.553,245.211c-19.127-7.585-16.012-24.599-14.17-34.759.326-1.734.624-3.467.867-5.174l18.45-1.003,7.478,29.937-12.625,11.027v-.028Z" style="fill:#4caf50;"/><path d="M57.435,453.847c19.262-6.583,20.509,28.149,4.849,26.036-1.029-.136-1.896-.488-2.682-1.165-.461-.38-4.958-10.241-5.175-11.027-.894-3.386-.921-12.489,3.007-13.844Z" style="fill:#4caf50;"/><path d="M63.666,489.364c-.867,0-1.761-.054-2.655-.189-2.79-.38-5.256-1.463-7.396-3.224-3.549-2.791-8.236-15.66-8.263-15.768-1.68-6.448-1.68-21.565,9.022-25.25,8.588-2.98,17.014-.894,22.432,5.554,6.34,7.559,7.477,20.401,2.574,29.26-3.386,6.122-9.157,9.59-15.74,9.59l.027.027Z" style="fill:#4caf50;"/><path d="M177.128,316.516c16.959-5.608,13.708,17.61,5.797,19.615-9.753,2.465-9.78-18.314-5.797-19.615Z" style="fill:#4caf50;"/><path d="M181.462,345.75c-6.122,0-12.408-3.684-15.036-12.706-2.438-8.426-1.679-22.324,7.776-25.439,10.241-3.387,16.39.406,19.127,2.98,4.876,4.578,6.664,12.3,4.632,20.183-1.923,7.559-6.664,13.005-12.706,14.549-1.246.325-2.519.46-3.82.46l.027-.027Z" style="fill:#4caf50;"/><path d="M120.207,379.994c.109,3.522.732,7.179-2.465,9.401-7.504-.326-3.955-9.158,2.465-9.401Z" style="fill:#4caf50;"/><path d="M117.336,398.797c-8.697-.38-13.248-6.719-13.221-12.788,0-8.019,7.233-15.09,15.74-15.415l9.753,9.076-9.401.325,9.455.758c.19,3.712.569,11.406-6.529,16.364l-5.77,1.68h-.027ZM120.234,380.862l.326,8.534c2.248-.082,2.357-2.791,2.357-3.36,0-2.357-1.301-4.172-2.683-5.201v.027ZM118.148,379.995v.379l.922-.163c-.326-.135-.651-.189-.922-.216Z" style="fill:#4caf50;"/><path d="M146.405,149.115l-3.115,7.451c-5.31-4.091-3.685-8.29,3.115-7.451Z" style="fill:#4caf50;"/><path d="M137.546,164.043c-7.152-5.5-7.775-12.192-5.96-16.608s6.881-8.751,15.957-7.64l7.532,12.977-3.116,7.451-14.413,3.82ZM145.945,152.664l-.705,5.635c1.084-.352,2.818-1.49,3.739-3.739,1.111-2.736.217-5.12-.379-5.77l-2.682,3.901.027-.027Z" style="fill:#4caf50;"/><path d="M140.635,311.18c-20.807,31.21-54.835,47.52-80.924,72.499-24.627,23.543-37.793,52.856-46.409,85.881l-3.224,18.26c1.598,2.059,3.224,4.01,4.822,6.096.975,1.273,2.032,2.655,3.088,4.037,9.157-48.874,25.602-83.958,67.026-112.54,1.029-.732,1.625-1.599,1.517-2.926,2.195.352,1.409,6.502,1.3,8.154-.271,4.443-1.68,8.588-1.3,13.059,4.145.975,2.493-5.446,6.204-6.231,5.798,21.619,22.947,30.722,41.803,16.228,9.78-7.505,18.91-36.52,13.736-47.438-.813-1.734-10.648-7.64-13.005-8.182-5.716-1.355-9.699.352-15.036.108,11.541-10.728,24.6-20.725,31.21-35.572,1.545-.379,1.572,1.301,1.87,2.439,1.246,4.93,1.571,8.913,3.413,14.087,4.037,11.46,10.295,27.065,22.107,31.508-4.361,5.961-8.561,12.246-13.166,18.044-8.887,11.27-26.469,31.887-39.582,38.985-7.044,3.793-16.824,6.502-24.003,10.918-.732,0-.786-2.167-1.897-2.926-14.44-9.699-22.974-16.445-40.936-8.75-5.987,2.573-9.292,5.689-13.112,10.593-18.341,23.597-20.075,36.52-3.278,61.688,4.633,6.936,10.268,14.874,18.179,17.989l-1.571,27.878c3.847,3.386,7.803,6.475,11.839,9.238,1.626-14.142,4.551-27.552,7.45-41.722,3.089-14.846,1.788-18.395,9.834-32.618,10.864-19.236,17.745-25.115,36.764-35.599,16.417-9.022,20.644-9.564,34.217-24.437,72.932-79.949,67.784-172.983,28.311-267.967-6.665-16.039-19.344-30.994-25.466-48.143-6.584-18.422-8.372-57.95,1.679-74.936,3.604-6.069,9.97-8.534,7.153-18.179-3.847-.921-9.103-2.303-12.707-.19-4.524,2.655-12.706,18.233-16.959,22.324-9.78,18.368-21.701,36.818-30.289,55.512-12.056,26.225-8.995,70.601,6.421,95.093,16.472,26.198,58.302,37.224,49.578,74.476-2.926,12.462-19.1,41.965-26.631,53.235l-.027.027ZM129.879,372.788c1.842-.163,3.522.325,5.12,1.138,2.005,11.161-11.73,41.911-25.927,31.535-3.169-2.33-11.134-17.556-6.312-21.132l-2.52-1.192,2.818-5.31c8.236-.677,19.073-4.362,26.821-5.039ZM78.567,464.982c-2.547,4.172-10.891,18.802-11.866,22.053-1.192,3.928-1.111,23.597-6.8,22.649-7.532-8.074-20.427-25.873-20.346-36.954.054-7.694,17.745-31.562,24.843-34.407,8.101-3.251,17.23-.271,22.92,5.744,1.463,1.544,3.034,3.738,2.493,5.825-.406,1.625-9.292,11.866-11.243,15.09ZM202.513,293.869c-7.911-6.557-18.287-9.835-28.664-8.751,5.906-15.063,11.46-29.449,9.97-46.165,2.168,2.52,4.687,4.47,7.044,6.665,1.03.975,1.409,2.628,2.926,3.874,1.707,1.409,8.317,3.82,8.751,5.31-1.084,13.167,2.438,26.144-.054,39.067h.027ZM200.047,236.461c-14.25-5.69-9.048-18.26-7.477-29.937l7.477,29.937ZM130.367,173.282c-.623-1.057-3.062-5.391-.19-5.418,6.042,11.026,29.476,24.897,34.407,6.312,3.522-13.383-.488-36.222-13.736-42.616-2.004-.975-5.608-.704-6.989-1.761-1.816-1.408-.082-8.154-9.185-2.98-4.985,2.818-10.484,17.556-10.647,23.137-.081,2.817.976,4.822,1.165,7.315.109,1.381.894,4.632-1.219,4.334l-4.524-33.269c-.678-19.75,15.794-50.906,25.466-68.678.623-1.165,1.192-2.763,2.736-2.872.732,9.374-1.002,20.129,0,29.314,3.197,28.826,22.541,46.382,29.341,69.22.948,3.197.325,6.502,1.436,9.78,3.766,11.216,10.864,22.405,12.923,34.57l-1.274,2.519c-3.196-.46-4.415-.325-6.122,2.628l-6.367,20.428c-9.428-20.888-36.114-32.294-47.248-51.963h.027ZM136.462,139.119c14.955,1.517,22.704,20.102,15.524,32.456-13.221-5.472-23.163-18.097-15.524-32.456ZM188.425,301.129c3.468,1.843,3.712,3.82,5.906,5.988,1.707,1.652,4.091,3.034,5.039,5.283.705,4.849-6.068,27.173-8.209,32.916-.379,1.003-1.842.976-2.248,1.978-1.382,3.387-3.793,17.8-9.266,16.364-5.635-1.49-17.041-35.22-17.149-41.695-.217-14.603,10.403-29.151,25.927-20.834Z" style="fill:#1d1d1b;"/><path d="M59.413,545.066l1.571-27.878c-7.911-3.116-13.519-11.054-18.152-17.989-16.797-25.169-15.063-38.092,3.278-61.689,3.793-4.931,7.125-8.019,13.085-10.566,17.989-7.721,26.523-.975,40.936,8.724,1.084.731,1.138,2.926,1.896,2.926,7.153-4.416,16.987-7.125,24.004-10.945,13.086-7.098,30.668-27.715,39.581-38.986,4.579-5.797,8.778-12.083,13.167-18.043-11.812-4.443-18.07-20.048-22.107-31.508-1.815-5.175-2.14-9.157-3.413-14.061-.299-1.165-.326-2.817-1.87-2.438-6.61,14.846-19.669,24.843-31.183,35.572,5.337.271,9.32-1.436,15.036-.081,2.33.541,12.192,6.42,13.004,8.181,5.175,10.918-3.928,39.907-13.735,47.438-18.856,14.495-36.005,5.365-41.776-16.228-3.739.786-2.086,7.207-6.231,6.231-.379-4.47,1.057-8.615,1.3-13.031.108-1.652.894-7.829-1.3-8.155.108,1.301-.488,2.168-1.544,2.899-41.424,28.61-57.869,63.667-67.026,112.541,10.674,13.952,25.087,32.781,41.451,47.113l.027-.027Z" style="fill:#fff;"/><path d="M147.652,86.099c3.196,28.826,22.54,46.382,29.34,69.221.948,3.196.325,6.502,1.409,9.807,3.766,11.216,10.864,22.405,12.95,34.569l-1.273,2.52c-3.197-.461-4.416-.325-6.123,2.628l-6.394,20.427c-9.401-20.888-36.114-32.294-47.221-51.962-.623-1.084-3.035-5.392-.217-5.446,6.042,11.054,29.503,24.898,34.407,6.313,3.549-13.411-.488-36.25-13.709-42.616-2.004-.975-5.608-.705-6.989-1.761-1.816-1.409-.055-8.155-9.185-2.98-4.985,2.817-10.457,17.555-10.647,23.136-.108,2.818.976,4.796,1.165,7.315.109,1.382.894,4.633-1.246,4.335l-4.524-33.269c-.651-19.75,15.794-50.906,25.466-68.678.65-1.165,1.192-2.763,2.736-2.899.732,9.374-1.029,20.129,0,29.341" style="fill:#fff;"/><path d="M87.317,444.066c1.463,1.544,3.034,3.739,2.493,5.825-.406,1.598-9.292,11.839-11.243,15.063-2.547,4.172-10.891,18.802-11.866,22.053-1.192,3.928-1.111,23.597-6.8,22.649-7.532-8.074-20.427-25.873-20.346-36.954.054-7.694,17.745-31.535,24.843-34.407,8.101-3.251,17.23-.27,22.92,5.744M57.435,453.846c-3.928,1.355-3.901,10.458-3.007,13.844.217.786,4.714,10.647,5.175,11.027.813.65,1.653,1.002,2.682,1.165,15.632,2.14,14.413-32.619-4.849-26.036Z" style="fill:#fff;"/><path d="M194.358,307.089c1.68,1.653,4.091,3.035,5.039,5.283.705,4.85-6.068,27.174-8.209,32.917-.379,1.003-1.869.976-2.275,1.978-1.382,3.359-3.793,17.799-9.266,16.363-5.662-1.49-17.041-35.246-17.149-41.694-.217-14.603,10.403-29.151,25.9-20.834,3.468,1.842,3.739,3.82,5.933,5.96M177.128,316.517c-3.956,1.301-3.929,22.108,5.797,19.615,7.911-2.005,11.162-25.223-5.797-19.615Z" style="fill:#fff;"/><path d="M190.863,245.645c1.057.975,1.436,2.628,2.953,3.874,1.68,1.409,8.318,3.82,8.724,5.31-1.057,13.167,2.438,26.117-.027,39.04-7.911-6.557-18.314-9.835-28.663-8.751,5.906-15.063,11.432-29.449,9.969-46.165,2.168,2.52,4.687,4.443,7.044,6.665" style="fill:#fff;"/><path d="M135,373.925c2.004,11.189-11.731,41.885-25.928,31.535-3.196-2.329-11.134-17.555-6.312-21.131l-2.492-1.192,2.817-5.338c8.236-.677,19.073-4.361,26.821-5.012,1.842-.162,3.495.326,5.121,1.138M120.207,379.994c-6.448.244-9.97,9.076-2.465,9.401,3.197-2.222,2.574-5.879,2.465-9.401Z" style="fill:#fff;"/><path d="M136.435,139.146c14.982,1.517,22.704,20.102,15.551,32.456-13.221-5.5-23.19-18.098-15.551-32.456ZM146.405,149.115c-6.8-.839-8.425,3.36-3.115,7.451l3.115-7.451Z" style="fill:#fff;"/><path d="M200.048,236.46c-14.224-5.662-9.049-18.26-7.478-29.937l7.478,29.937Z" style="fill:#fff;"/><path d="M57.435,453.847c19.262-6.583,20.509,28.149,4.849,26.036-1.029-.136-1.896-.488-2.682-1.165-.461-.38-4.958-10.241-5.175-11.027-.894-3.386-.921-12.489,3.007-13.844Z" style="fill:#1d1d1b;"/><path d="M177.128,316.516c16.959-5.608,13.708,17.61,5.797,19.615-9.753,2.465-9.78-18.314-5.797-19.615Z" style="fill:#1d1d1b;"/><path d="M120.207,379.994c.109,3.522.732,7.179-2.465,9.401-7.504-.326-3.955-9.158,2.465-9.401Z" style="fill:#1d1d1b;"/><path d="M146.405,149.115l-3.115,7.451c-5.31-4.091-3.685-8.29,3.115-7.451Z" style="fill:#1d1d1b;"/><path d="M10.078,487.82l-1.355,8.399s35.87,56.974,45.244,64.37c9.374,7.397,12.733,8.047,12.733,8.047l4.551-14.305s-42.751-38.66-49.47-51.393c-6.719-12.734-11.731-15.091-11.731-15.091l.027-.027Z" style="fill:#1d1d1b;"/><path d="M148.986,234.214c24.545-8.217,49.882-14.024,75.549-17.311.903-.11,1.915-.219,2.626.329.767.548.985,1.589,1.122,2.52,1.45,8.847,2.901,17.722,4.378,26.569-32.479,5.752-64.521,14.024-95.742,24.679-1.641-11.038-3.283-22.104-4.925-33.143l16.062-2.931" style="fill:#4ab358;"/><path d="M133.964,275.874l-6.102-40.976,20.002-4.163,3.072,6.814-14.81,3.266,3.776,25.336c28.867-9.641,58.638-17.283,88.6-22.789l-3.749-22.789c-25.72,3.342-50.593,9.066-74.59,17.092l-2.299-6.93c24.736-8.272,50.375-14.161,76.233-17.475,1.067-.137,3.283-.411,5.253.986,2.052,1.479,2.408,3.78,2.6,4.903l4.952,30.13-3.557.63c-32.206,5.725-64.247,13.969-95.194,24.542l-4.132,1.424h-.055Z" style="fill:#1c1b1a;"/><path d="M233.81,227.749c9.468,1.917,19.045,3.314,28.649,4.163-3.365,12.244-5.445,24.843-6.184,37.498-6.375-8.546-12.97-16.955-19.756-25.172" style="fill:#4ab358;"/><path d="M230.664,230.927c9.878,1.972,19.838,3.451,29.852,4.355l-3.365-2.821c-3.338,12.271-5.418,24.816-6.184,37.498l10.206-2.739c-6.375-8.546-12.97-16.955-19.756-25.172-2.627-3.205-12.778.712-9.768,4.382,6.786,8.245,13.38,16.626,19.756,25.172,2.025,2.712,9.987.794,10.206-2.739.766-12.682,2.846-25.254,6.184-37.498.52-1.89-2.025-2.712-3.366-2.821-9.221-.822-18.387-2.137-27.444-3.972-2.545-.52-5.61.082-7.47,1.999-1.505,1.561-1.204,3.889,1.176,4.355h-.027Z" style="fill:#1c1b1a;"/><path d="M245.795,227.229c3.53-3.177,6.677-6.875,9.194-10.901,1.149-1.863,3.119-4.41,1.341-6.492-.766-.904-1.888-1.644-2.791-2.41-1.04-.877-2.052-1.753-3.092-2.602-1.724-1.452-4.351-1.123-6.348-.438-1.697.575-4.077,1.835-3.858,3.972l1.258-1.917,2.572-1.096.794-.137,2.517.082c.356.055.465.411.356.137-.11-.247-.411-.493-.575-.74-.438-.63-.821-1.287-1.258-1.945-.876-1.37-1.752-2.739-2.627-4.109-.739-1.178-3.092-1.096-4.214-.959-1.779.192-3.585.904-4.953,2.109-2.298,2.027-2.873,5.067-4.104,7.478-1.341,2.712-2.627,4.328-4.652,6.163-1.642,1.479-1.122,3.506,1.067,3.944,2.518.52,5.555-.274,7.47-2,2.217-2,4.187-4.382,5.637-7.012.712-1.315,1.314-2.712,1.833-4.136.11-.301.219-.603.329-.904.137-.383.054-.219.164-.438.137-.274.301-.548.465-.822.383-.685-.301.219.328-.329l-9.166,1.15c.876,1.37,1.751,2.739,2.627,4.109.875,1.37,1.559,2.739,2.928,3.561,2.161,1.315,4.925.931,7.196.164s4.843-2.465,4.57-5.149l-10.179,3.533c1.806,1.507,3.666,2.986,5.417,4.574.137.137.493.685.384.301-.11-.384,0-.192-.219.137-.548.877-1.04,1.78-1.587,2.657-2.244,3.424-4.324,5.834-7.361,8.573-1.642,1.479-1.122,3.506,1.067,3.944,2.518.52,5.555-.274,7.47-2v-.055Z" style="fill:#1c1b1a;"/><path d="M160.424,255.826l-6.075,1.479c-1.395.329-1.942.52-2.271-.767-.219-.876,0-1.068.602-1.643.52-.466.411-.767.219-1.753-.301-1.808-1.259-5.642-1.943-8.244-.273-.986-.328-1.205-.903-1.315-.601-.137-1.121-.082-1.368-1.15-.301-1.233.165-1.589,1.669-1.945,1.451-.356,4.16-.822,6.102-1.369.684-.192.931-.521,1.615-.685.848-.219,1.258.082,2.298,1.917.602,1.26,1.013,1.89,1.149,2.438.192.794-.273,1.26-1.067,1.452-.766.192-1.204-.301-2.161-1.753-.739-1.014-.903-.959-2.956-.466-1.778.438-1.669.438-1.067,2.931.493,2.054.329,2.273,1.669,1.945,1.013-.247.986-.493.767-1.397-.192-.74-.11-1.041.492-1.205.629-.164,1.04.438,1.587,1.671.903,1.945,1.423,3.616.274,3.944-.602.192-.848,0-1.259-.685-.301-.548-.438-.657-1.341-.438-1.286.301-1.149.274-.574,2.712.629,2.739.41,2.712,2.791,2.136,1.669-.411,1.86-.521,1.915-1.89.055-1.78.11-2.41.903-2.602.958-.219,1.396.082,1.587.959.11.493.192,1.479.301,2.739.11,2.109.027,2.575-.876,2.794-.738.192-1.176,0-2.079.219v-.027Z" style="fill:#1c1b1a;"/><path d="M153.031,257.614c-.508,0-.811-.25-1.018-1.06-.225-.9.014-1.129.592-1.681l.028-.027c.455-.407.405-.656.241-1.481l-.041-.211c-.286-1.712-1.19-5.379-1.942-8.24l-.009-.032c-.267-.961-.314-1.134-.843-1.235-.08-.018-.156-.033-.23-.046-.496-.094-.965-.183-1.19-1.154-.134-.551-.116-.924.06-1.21.251-.411.821-.616,1.66-.814.558-.137,1.313-.292,2.113-.457,1.309-.27,2.791-.575,3.985-.912.323-.09.55-.214.769-.333.239-.13.486-.265.85-.352.903-.231,1.343.134,2.371,1.95.223.465.414.835.583,1.162.292.564.484.938.572,1.292.098.402.038.742-.176,1.009-.194.244-.511.419-.939.523-.823.207-1.291-.354-2.232-1.781-.703-.963-.824-.933-2.808-.456l-.077.019q-1.616.398-1.112,2.462l.094.388c.065.27.118.508.166.717.166.74.249,1.111.458,1.241.169.106.459.062.965-.062.979-.238.93-.445.719-1.316-.184-.705-.15-1.097.539-1.285.076-.02.148-.029.218-.029.562,0,.956.629,1.447,1.737.575,1.238,1.189,2.761.832,3.542-.112.246-.314.412-.601.494-.655.211-.93-.04-1.335-.714-.28-.512-.382-.624-1.268-.408-.501.117-.777.182-.884.356-.137.222-.029.667.207,1.643.046.19.097.4.151.633.05.214.094.412.134.593.229,1.024.344,1.538.634,1.718.283.176.775.059,1.756-.179l.188-.045c1.63-.401,1.811-.49,1.864-1.827.056-1.822.117-2.462.954-2.665.506-.115.868-.09,1.139.081.259.165.427.459.529.929.104.467.183,1.375.282,2.523l.02.224c.11,2.113.038,2.63-.927,2.865-.364.094-.654.098-.962.101-.323.003-.658.007-1.117.119l-.082.02v-.027l-6.17,1.501c-.475.112-.852.202-1.156.202ZM158.492,238.437c-.126,0-.258.023-.404.061-.347.083-.575.208-.817.34-.227.123-.46.25-.797.344-1.199.338-2.685.645-3.995.914-.799.165-1.553.32-2.108.457-.783.185-1.352.384-1.578.754-.155.253-.168.595-.043,1.11.205.887.594.961,1.086,1.054.075.015.153.029.232.047.607.115.679.373.944,1.33l.009.033c.752,2.865,1.658,6.536,1.944,8.251l.041.208c.166.836.229,1.149-.281,1.605l-.027.026c-.568.543-.761.727-.555,1.551.3,1.169.733,1.063,2.014.76l.177-.042,6.157-1.499v.028c.432-.096.754-.1,1.065-.103.299-.003.581-.006.931-.097.831-.202.939-.559.826-2.726l-.02-.222c-.099-1.144-.177-2.047-.28-2.506-.094-.433-.243-.701-.471-.845-.237-.152-.568-.171-1.036-.064-.743.18-.797.753-.852,2.54-.056,1.401-.274,1.536-1.966,1.953l-.188.045c-1.016.246-1.522.37-1.858.163-.337-.21-.456-.742-.692-1.802-.04-.181-.084-.378-.134-.592-.055-.232-.105-.442-.151-.632-.252-1.043-.356-1.475-.191-1.744.137-.221.432-.291.967-.416.923-.224,1.095-.112,1.415.471.422.702.643.826,1.18.653.253-.072.422-.21.519-.422.334-.731-.269-2.218-.832-3.431-.522-1.178-.914-1.783-1.51-1.634-.54.147-.636.389-.444,1.124.228.938.245,1.22-.816,1.479-.555.136-.855.177-1.066.046-.257-.159-.344-.548-.519-1.325-.047-.209-.1-.446-.164-.715l-.095-.388c-.515-2.111-.535-2.193,1.211-2.624l.077-.019c1.984-.476,2.192-.526,2.948.51.972,1.474,1.386,1.901,2.091,1.728.4-.097.692-.257.867-.477.188-.234.238-.535.151-.895-.084-.339-.274-.706-.562-1.263-.17-.327-.361-.698-.583-1.162-.856-1.512-1.272-1.942-1.816-1.942Z" style="fill:#1b1a19;"/><path d="M168.879,252.155c-1.806-3.698-3.475-6.738-5.007-10.217-.52-1.041-.739-1.26-1.287-1.452-.547-.192-.93-.411-1.121-1.26-.301-1.26.355-1.534,2.955-2.164,2.654-.63,3.365-.657,3.694.603.137.657-.082.959-.657,1.479-.547.411-.383.794.027,1.726.931,2.191,2.463,5.725,3.612,7.889.602,1.068.63,1.233.958,1.15.356-.11.246-.411.246-1.37-.191-2.903-.301-6.327-.602-8.957-.054-.931-.164-1.26-.793-1.397-.465-.219-.876-.219-1.067-1.041-.274-1.068.136-1.424,2.709-2.054,1.86-.438,2.325-.356,2.626.849.164.657-.109.986-.438,1.479-.437.603-.41.876-.328,1.945.356,3.643.493,7.313.438,11.395,0,1.753-.274,1.808-2.463,2.301-1.997.466-2.462.876-3.475-.959l-.027.055Z" style="fill:#1c1b1a;"/><path d="M170.46,253.524c-.59,0-.996-.305-1.551-1.281l-.031.062-.059-.121c-.64-1.309-1.263-2.538-1.866-3.727-1.106-2.182-2.151-4.243-3.142-6.492-.52-1.038-.733-1.235-1.249-1.416-.534-.188-.96-.403-1.164-1.309-.325-1.363.519-1.641,3.005-2.243,2.707-.643,3.431-.662,3.774.65.147.708-.105,1.029-.677,1.545-.513.386-.361.73.043,1.649,1.529,3.599,2.743,6.251,3.609,7.884.087.154.163.29.229.41.387.699.43.761.654.708.218-.067.223-.202.206-.761-.005-.153-.01-.333-.01-.544-.061-.916-.114-1.909-.166-2.87-.113-2.106-.23-4.284-.436-6.079-.055-.925-.158-1.212-.741-1.34-.096-.043-.176-.075-.253-.105-.36-.142-.699-.276-.864-.985-.112-.438-.099-.729.046-.972.263-.437.946-.73,2.712-1.163,1.844-.435,2.39-.372,2.706.898.159.636-.076.983-.373,1.423l-.073.109c-.419.577-.4.824-.32,1.862l.003.041c.355,3.638.494,7.261.438,11.4,0,1.798-.331,1.873-2.489,2.359l-.025.006c-.244.057-.466.113-.668.165-.526.134-.928.235-1.268.235ZM168.903,251.958l.062.111c.861,1.563,1.295,1.453,2.729,1.091.203-.052.426-.108.671-.166l.026-.006c2.16-.486,2.386-.537,2.386-2.23.056-4.135-.083-7.753-.438-11.388l-.003-.042c-.081-1.051-.103-1.333.344-1.948l.072-.108c.289-.428.499-.737.354-1.316-.281-1.125-.663-1.242-2.546-.8-1.703.417-2.391.705-2.628,1.101-.126.209-.135.47-.032.872.149.642.43.753.784.893.08.032.163.064.247.104.683.147.778.556.831,1.453.206,1.795.323,3.975.437,6.083.052.96.104,1.954.165,2.873,0,.214.006.393.01.544.017.544.024.793-.303.894-.333.081-.415-.065-.807-.771-.066-.119-.142-.255-.229-.41-.869-1.638-2.085-4.293-3.615-7.896-.411-.933-.599-1.359-.006-1.805.583-.528.758-.807.632-1.412-.314-1.204-.963-1.181-3.613-.551-2.607.632-3.188.899-2.906,2.083.189.841.566,1.033,1.079,1.213.587.206.81.456,1.324,1.485.99,2.249,2.035,4.308,3.141,6.489.585,1.153,1.188,2.343,1.808,3.607l.023-.047Z" style="fill:#1b1a19;"/><path d="M187.513,249.279l-6.075,1.479c-1.395.329-1.942.52-2.271-.767-.219-.876,0-1.068.602-1.644.52-.466.411-.767.219-1.753-.301-1.808-1.259-5.642-1.943-8.244-.273-.986-.328-1.205-.903-1.315-.602-.137-1.121-.082-1.368-1.15-.301-1.232.192-1.589,1.669-1.945,1.451-.356,4.16-.822,6.13-1.37.684-.192.93-.52,1.614-.685.848-.219,1.259.082,2.298,1.917.602,1.26,1.013,1.89,1.15,2.438.191.794-.274,1.26-1.067,1.452-.767.192-1.204-.329-2.162-1.753-.739-1.014-.903-.959-2.928-.466-1.778.438-1.669.438-1.094,2.931.492,2.054.328,2.273,1.669,1.945,1.012-.246.985-.493.766-1.397-.192-.74-.137-1.041.492-1.205.657-.164,1.04.438,1.587,1.671.903,1.945,1.423,3.616.274,3.944-.575.192-.848,0-1.259-.657-.301-.548-.437-.657-1.313-.438-1.286.301-1.149.274-.575,2.712.63,2.739.411,2.712,2.819,2.137,1.641-.411,1.833-.521,1.915-1.89.055-1.78.11-2.41.903-2.602.93-.219,1.396.082,1.587.959.11.493.192,1.479.301,2.739.11,2.109.027,2.575-.876,2.794-.738.192-1.176,0-2.079.219l-.082-.055Z" style="fill:#1c1b1a;"/><path d="M180.121,251.067c-.509,0-.812-.25-1.019-1.06-.225-.9.014-1.129.592-1.681l.028-.027c.455-.407.405-.656.241-1.481l-.041-.211c-.286-1.72-1.191-5.384-1.942-8.24l-.007-.025c-.267-.966-.315-1.141-.845-1.241-.079-.018-.155-.032-.229-.046-.497-.094-.965-.183-1.19-1.154-.133-.543-.113-.914.062-1.202.252-.414.821-.622,1.657-.823.565-.139,1.334-.297,2.148-.464,1.302-.268,2.777-.571,3.979-.905.322-.09.549-.213.768-.333.239-.13.485-.265.849-.352.901-.23,1.342.132,2.371,1.95.224.467.415.838.585,1.165.291.563.483.936.571,1.289.186.77-.21,1.314-1.115,1.533-.806.202-1.255-.326-2.233-1.781-.701-.961-.818-.935-2.781-.456l-.076.019q-1.616.398-1.134,2.464l.09.386c.063.269.117.507.164.716.166.74.249,1.112.458,1.241.172.107.459.062.966-.062.979-.238.929-.445.718-1.316-.189-.726-.156-1.104.539-1.285.693-.175,1.089.413,1.665,1.708.575,1.238,1.189,2.761.832,3.542-.112.246-.314.412-.601.494-.639.215-.938-.053-1.334-.686-.279-.511-.38-.623-1.24-.409-.502.118-.777.183-.885.356-.137.222-.028.667.207,1.643.046.19.097.401.151.634.05.213.094.409.134.59.229,1.023.344,1.538.635,1.719.289.181.787.062,1.781-.177l.188-.045c1.604-.401,1.784-.49,1.864-1.829.057-1.821.119-2.461.954-2.663.49-.115.859-.088,1.13.082.262.165.438.468.538.927.106.478.188,1.416.289,2.604l.013.144c.11,2.113.038,2.63-.927,2.865-.364.094-.654.098-.962.101-.323.003-.658.007-1.117.119l-.028.007-.082-.055-6.224,1.514c-.474.112-.852.202-1.155.202ZM185.608,231.89c-.125,0-.258.023-.404.061-.347.083-.575.208-.816.34-.226.123-.459.25-.797.344-1.206.335-2.684.639-3.987.907-.813.167-1.581.325-2.145.463-.803.193-1.347.388-1.574.763-.155.255-.17.595-.046,1.102.206.888.594.961,1.085,1.054.076.014.153.029.232.047.608.116.68.374.945,1.336l.008.026c.752,2.86,1.658,6.528,1.944,8.251l.041.208c.166.836.229,1.149-.281,1.605l-.027.026c-.568.543-.761.727-.555,1.551.298,1.167.729,1.065,2.015.76l.177-.042,6.103-1.486.082.055c.459-.108.794-.112,1.119-.115.299-.003.581-.006.931-.097.831-.202.939-.559.826-2.726l-.013-.142c-.102-1.182-.182-2.116-.287-2.586-.092-.423-.249-.698-.479-.843-.24-.151-.575-.172-1.027-.065-.743.179-.797.753-.853,2.539-.084,1.4-.301,1.536-1.965,1.952l-.19.045c-1.029.248-1.545.371-1.882.161-.339-.211-.458-.744-.694-1.804-.041-.18-.084-.376-.134-.588-.055-.232-.105-.442-.151-.633-.252-1.042-.356-1.474-.19-1.744.136-.221.431-.29.966-.416.902-.225,1.068-.111,1.388.471.417.668.659.799,1.179.626.254-.072.423-.21.52-.422.334-.731-.269-2.218-.832-3.431-.487-1.096-.831-1.658-1.326-1.658-.06,0-.121.008-.185.024-.554.145-.641.365-.443,1.124.228.938.245,1.22-.815,1.479-.554.136-.855.177-1.067.046-.257-.159-.344-.549-.518-1.326-.047-.208-.1-.446-.164-.714l-.09-.387c-.493-2.112-.513-2.194,1.232-2.625l.075-.018c1.965-.479,2.168-.528,2.923.509.939,1.397,1.359,1.907,2.092,1.728.582-.141,1.23-.492,1.019-1.372-.085-.338-.274-.705-.562-1.26-.169-.328-.361-.7-.584-1.165-.855-1.512-1.271-1.942-1.816-1.942Z" style="fill:#1b1a19;"/><path d="M200.921,245.171c-.52-.712-1.177-1.78-3.694-5.451-2.682-3.615-2.846-4.519-3.284-4.41-.328.082-.137.521.055,1.37l1.477,6.19c.274,1.123.493,1.287,1.286,1.561.739.192.985.438,1.15,1.123.246,1.041-.356,1.452-2.436,1.945-2.079.493-2.873.767-3.201-.603-.164-.685,0-1.068.575-1.616.465-.438.629-.712.328-2l-1.861-7.752c-.355-1.424-.547-1.561-1.176-1.616-.684-.137-1.04-.356-1.232-1.178-.273-1.178-.054-1.589,2.928-2.301,2.134-.52,2.791-.712,3.557.74.794,1.369,1.341,2.355,3.311,5.232,2.326,3.177,2.572,3.972,2.928,3.889.301-.082.137-.438-.109-1.452l-1.396-5.725c-.274-1.15-.383-1.315-1.094-1.507-.657-.137-1.068-.301-1.259-1.15-.246-1.096.547-1.561,2.408-2,1.86-.438,2.599-.466,2.9.767.192.794,0,1.15-.41,1.643-.63.603-.575.63.164,3.725,1.478,6.163,1.943,7.176,2.435,9.231.274,1.096-.219,1.479-1.778,1.835-1.587.411-2.08.219-2.6-.438l.028-.055Z" style="fill:#1c1b1a;"/><path d="M193.357,247.968c-.081,0-.157-.005-.229-.015-.486-.068-.762-.38-.919-1.042-.165-.687-.021-1.095.593-1.68.433-.407.611-.642.31-1.936l-1.86-7.751c-.358-1.437-.541-1.515-1.118-1.565-.701-.14-1.09-.369-1.29-1.229-.294-1.264.026-1.676,2.977-2.381l.119-.029c2.045-.5,2.737-.668,3.512.802l.17.292c.704,1.217,1.313,2.269,3.138,4.933.954,1.303,1.562,2.211,1.965,2.812.545.813.73,1.094.894,1.05.172-.047.132-.234-.034-.876-.037-.144-.079-.308-.124-.495l-1.396-5.725c-.272-1.139-.37-1.275-1.047-1.458-.636-.133-1.104-.297-1.307-1.2-.269-1.198.656-1.655,2.457-2.079,1.83-.431,2.664-.485,2.98.816.191.79.024,1.164-.424,1.702-.564.542-.564.571.056,3.154l.122.513c.937,3.901,1.467,5.74,1.854,7.083.225.778.401,1.393.582,2.148.116.465.095.805-.068,1.07-.264.429-.894.648-1.76.846-1.635.423-2.144.2-2.668-.462l-.026-.034.029-.057c-.227-.312-.486-.702-.906-1.332-.546-.817-1.369-2.053-2.765-4.087-1.213-1.635-1.899-2.697-2.354-3.4-.524-.813-.664-1.031-.858-.983-.194.049-.145.282-.003.851.033.132.069.279.106.44l1.476,6.189c.265,1.083.458,1.243,1.243,1.514.753.195,1.022.458,1.193,1.17.275,1.164-.544,1.565-2.485,2.025l-.328.078c-.771.185-1.361.326-1.805.326ZM193.878,230.118c-.464,0-1.062.146-1.907.352l-.119.029c-2.899.693-3.147,1.062-2.879,2.221.186.795.528.997,1.18,1.128.661.057.87.229,1.229,1.665l1.86,7.752c.305,1.302.146,1.6-.347,2.063-.578.552-.708.915-.556,1.552.146.608.38.88.809.94.435.062,1.086-.094,1.983-.309l.328-.079c2.103-.499,2.615-.899,2.388-1.865-.161-.667-.388-.888-1.103-1.074-.834-.287-1.056-.47-1.334-1.61l-1.477-6.19c-.037-.161-.073-.307-.105-.438-.145-.579-.231-.929.099-1.012.285-.072.451.184,1.004,1.04.453.702,1.138,1.762,2.35,3.396,1.397,2.037,2.222,3.272,2.767,4.09.435.651.697,1.044.928,1.361l.024.033-.027.053c.485.6.96.781,2.505.382.987-.226,1.473-.454,1.678-.787.143-.232.159-.54.053-.968-.181-.752-.357-1.366-.581-2.143-.388-1.343-.918-3.184-1.854-7.088l-.123-.513c-.619-2.582-.644-2.683-.022-3.276.421-.507.57-.84.392-1.58-.279-1.136-.883-1.175-2.82-.717-1.98.466-2.575.951-2.357,1.92.186.83.58.969,1.207,1.1.766.206.875.424,1.145,1.556l1.396,5.725c.045.186.087.349.124.493.169.655.246.955-.062,1.039-.254.058-.422-.188-1.037-1.105-.401-.6-1.009-1.507-1.962-2.809-1.829-2.67-2.438-3.724-3.145-4.943l-.171-.294c-.425-.805-.81-1.09-1.457-1.09Z" style="fill:#1b1a19;"/><path d="M210.634,242.568c-.191-.794.055-1.178.657-1.698.602-.575.821-.767.547-1.917l-2.161-9.011c-.164-.685-.219-.767-1.259-.52-.985.246-.93.356-.958,1.397-.082,2.054-.246,2.684-1.231,2.931-.739.192-1.478-.027-1.696-.931-.137-.52-.165-1.369-.219-2.684-.028-2.493.273-2.958,1.286-3.205.848-.192,1.204.11,2.271-.137l5.445-1.315c1.04-.247,1.177-.712,1.997-.904.958-.247,1.505,0,2.627,2.273.547,1.068.903,1.89,1.013,2.41.246.959-.219,1.506-.931,1.671-1.039.247-1.587-.411-2.517-2.027-.602-.959-.52-1.041-1.669-.767-.903.219-.958.356-.766,1.123l2.134,8.847c.274,1.096.438,1.287,1.122,1.424.793.137,1.204.192,1.45,1.15.328,1.342-.274,1.534-3.338,2.273-2.846.685-3.53.767-3.804-.383Z" style="fill:#1c1b1a;"/><path d="M211.716,243.519c-.291,0-.51-.049-.679-.153-.229-.14-.372-.381-.468-.782h0c-.199-.829.06-1.229.678-1.764l.021-.02c.573-.548.767-.733.505-1.831l-2.161-9.012c-.154-.641-.168-.709-1.179-.471-.88.22-.882.292-.902,1.167l-.005.167c-.083,2.092-.262,2.739-1.28,2.993-.45.117-.873.076-1.19-.113-.294-.176-.491-.467-.587-.867-.132-.5-.164-1.296-.213-2.501l-.008-.196c-.029-2.534.292-3.019,1.336-3.273.408-.092.703-.073,1.013-.053.347.022.704.045,1.26-.083l5.444-1.315c.539-.127.827-.313,1.106-.493.254-.164.493-.318.891-.411,1.026-.263,1.586.046,2.702,2.309.579,1.13.912,1.924,1.019,2.426.119.462.083.856-.106,1.168-.176.289-.478.49-.875.581-1.066.256-1.636-.4-2.59-2.059-.054-.085-.104-.166-.148-.239-.442-.719-.449-.732-1.447-.496-.412.1-.669.187-.759.335-.08.134-.049.343.042.707l2.134,8.848c.279,1.116.44,1.248,1.07,1.375l.039.007c.78.134,1.21.208,1.463,1.192.122.499.107.82-.048,1.074-.324.534-1.258.778-3.339,1.281-1.317.317-2.168.502-2.738.502ZM209.169,229.228c.371,0,.454.201.572.698l2.161,9.012c.28,1.173.039,1.403-.542,1.958l-.023.022c-.591.511-.822.868-.639,1.634h0c.087.364.213.58.408.7.459.28,1.365.104,3.316-.366,1.99-.48,2.96-.733,3.257-1.22.135-.221.145-.512.032-.973-.231-.9-.584-.96-1.356-1.093l-.041-.007c-.723-.145-.898-.365-1.175-1.474l-2.134-8.848c-.103-.407-.133-.632-.027-.807.115-.189.385-.285.842-.396,1.066-.253,1.127-.203,1.592.556.045.073.095.153.149.24.963,1.675,1.479,2.229,2.445,1.998.361-.083.635-.263.792-.521.17-.279.2-.639.09-1.068-.104-.494-.435-1.276-1.008-2.397-1.142-2.313-1.676-2.464-2.551-2.239-.377.088-.607.237-.851.394-.275.177-.587.377-1.147.511l-5.445,1.315c-.576.132-.944.109-1.299.087-.299-.019-.584-.038-.974.05-.98.239-1.261.68-1.233,3.139l.008.194c.049,1.196.081,1.987.209,2.474.088.365.265.628.526.785.286.172.676.207,1.089.099.942-.236,1.099-.823,1.181-2.869l.004-.166c.021-.888.025-1.048,1.004-1.293.347-.082.59-.128.768-.128Z" style="fill:#1b1a19;"/></svg>