<svg width="36" height="28" viewBox="0 0 36 28" fill="none" xmlns="http://www.w3.org/2000/svg">
<path d="M10.1582 10.5576L7.32129 19H5.33203L9.05078 9.04688H10.3223L10.1582 10.5576ZM12.5303 19L9.67969 10.5576L9.50879 9.04688H10.7871L14.5264 19H12.5303ZM12.4004 15.3018V16.7852H7.06152V15.3018H12.4004Z" fill="white"/>
<path d="M27.7402 11.452L29.2092 11.868C29.1572 11.972 29.1572 11.972 29.0532 12.245C28.9232 12.609 28.9102 12.622 28.8712 12.739C29.4042 12.869 29.7812 13.051 30.2232 13.376C31.0552 14 31.4582 14.806 31.4582 15.833C31.4582 17.25 30.6912 18.355 29.2222 19.083C28.4552 19.46 27.7142 19.655 26.5702 19.772C26.4272 19.213 26.3102 18.979 25.8812 18.303C26.9342 18.29 27.5972 18.147 28.3642 17.783C29.4042 17.289 29.8852 16.652 29.8852 15.755C29.8852 14.936 29.3522 14.273 28.4292 13.961C27.7142 15.508 27.1032 16.444 26.1672 17.419C24.9972 18.654 23.8402 19.291 22.7612 19.291C21.5522 19.291 20.7332 18.368 20.7332 17.016C20.7332 15.95 21.1882 14.923 22.0202 14.104C22.5402 13.597 23.0212 13.272 23.8012 12.934C23.8012 12.518 23.8272 11.998 23.8532 11.374C23.7102 11.374 23.0082 11.361 21.7472 11.322C21.6172 11.322 21.5262 11.322 21.5002 11.322C21.4612 11.322 21.3442 11.322 21.2012 11.335V9.87901C21.7862 10.009 22.5532 10.074 23.6322 10.074C23.6452 10.074 23.6582 10.074 23.9182 10.074C23.9312 9.81401 23.9312 9.81401 23.9702 9.29401C23.9832 9.12501 23.9962 8.80001 23.9962 8.55301C23.9962 8.50101 23.9962 8.44901 23.9702 8.34501L25.5822 8.42301C25.4782 8.77401 25.4262 9.11201 25.3482 10.022C27.4282 9.90501 29.2742 9.64501 30.2752 9.33301L30.3402 10.828C30.1582 10.841 30.1062 10.841 29.8332 10.88C28.4032 11.114 26.2972 11.309 25.2572 11.335C25.2182 11.894 25.2052 12.31 25.1922 12.583C25.8942 12.44 26.1932 12.414 26.9862 12.414C27.1422 12.414 27.2462 12.414 27.4802 12.44C27.6232 12.024 27.7012 11.751 27.7402 11.452ZM23.8272 14.416C23.2552 14.793 23.0342 14.988 22.7742 15.313C22.3842 15.82 22.1892 16.353 22.1892 16.899C22.1892 17.484 22.4752 17.848 22.9302 17.848C23.2942 17.848 23.6452 17.692 24.0612 17.354C23.8922 16.509 23.8272 15.677 23.8272 14.416ZM25.2962 16.379L25.3222 16.392C25.3742 16.314 25.3742 16.314 25.4652 16.21C26.0762 15.521 26.5962 14.689 27.0772 13.61C26.9342 13.597 26.8692 13.597 26.7392 13.597C26.1672 13.597 25.6992 13.662 25.1792 13.831C25.1922 15.027 25.1922 15.157 25.2702 16.067C25.2832 16.145 25.2832 16.145 25.2832 16.236C25.2832 16.301 25.2832 16.314 25.2962 16.379Z" fill="white"/>
<path d="M8 1H28C31.866 1 35 4.13401 35 8V19.75C35 23.616 31.866 26.75 28 26.75H8C4.13401 26.75 1 23.616 1 19.75V8C1 4.13401 4.13401 1 8 1Z" stroke="white" stroke-width="2"/>
</svg>
