<svg width="56" height="44" viewBox="0 0 56 44" fill="none" xmlns="http://www.w3.org/2000/svg">
<path d="M15.0155 16.8584L11.7733 26.5068H9.49987L13.7499 15.1318H15.203L15.0155 16.8584ZM17.7264 26.5068L14.4686 16.8584L14.2733 15.1318H15.7342L20.0077 26.5068H17.7264ZM17.578 22.2803V23.9756H11.4764V22.2803H17.578Z" fill="white"/>
<path d="M43.3334 17.608L45.1414 18.12C45.0774 18.248 45.0774 18.248 44.9494 18.584C44.7894 19.032 44.7734 19.048 44.7254 19.192C45.3814 19.352 45.8454 19.576 46.3894 19.976C47.4134 20.744 47.9094 21.736 47.9094 23C47.9094 24.744 46.9654 26.104 45.1574 27C44.2134 27.464 43.3014 27.704 41.8934 27.848C41.7174 27.16 41.5734 26.872 41.0454 26.04C42.3414 26.024 43.1574 25.848 44.1014 25.4C45.3814 24.792 45.9734 24.008 45.9734 22.904C45.9734 21.896 45.3174 21.08 44.1814 20.696C43.3014 22.6 42.5494 23.752 41.3974 24.952C39.9574 26.472 38.5334 27.256 37.2054 27.256C35.7174 27.256 34.7094 26.12 34.7094 24.456C34.7094 23.144 35.2694 21.88 36.2934 20.872C36.9334 20.248 37.5254 19.848 38.4854 19.432C38.4854 18.92 38.5174 18.28 38.5494 17.512C38.3734 17.512 37.5094 17.496 35.9574 17.448C35.7974 17.448 35.6854 17.448 35.6534 17.448C35.6054 17.448 35.4614 17.448 35.2854 17.464V15.672C36.0054 15.832 36.9494 15.912 38.2774 15.912C38.2934 15.912 38.3094 15.912 38.6294 15.912C38.6454 15.592 38.6454 15.592 38.6934 14.952C38.7094 14.744 38.7254 14.344 38.7254 14.04C38.7254 13.976 38.7254 13.912 38.6934 13.784L40.6774 13.88C40.5494 14.312 40.4854 14.728 40.3894 15.848C42.9494 15.704 45.2214 15.384 46.4534 15L46.5334 16.84C46.3094 16.856 46.2454 16.856 45.9094 16.904C44.1494 17.192 41.5574 17.432 40.2774 17.464C40.2294 18.152 40.2134 18.664 40.1974 19C41.0614 18.824 41.4294 18.792 42.4054 18.792C42.5974 18.792 42.7254 18.792 43.0134 18.824C43.1894 18.312 43.2854 17.976 43.3334 17.608ZM38.5174 21.256C37.8134 21.72 37.5414 21.96 37.2214 22.36C36.7414 22.984 36.5014 23.64 36.5014 24.312C36.5014 25.032 36.8534 25.48 37.4134 25.48C37.8614 25.48 38.2934 25.288 38.8054 24.872C38.5974 23.832 38.5174 22.808 38.5174 21.256ZM40.3254 23.672L40.3574 23.688C40.4214 23.592 40.4214 23.592 40.5334 23.464C41.2854 22.616 41.9254 21.592 42.5174 20.264C42.3414 20.248 42.2614 20.248 42.1014 20.248C41.3974 20.248 40.8214 20.328 40.1814 20.536C40.1974 22.008 40.1974 22.168 40.2934 23.288C40.3094 23.384 40.3094 23.384 40.3094 23.496C40.3094 23.576 40.3094 23.592 40.3254 23.672Z" fill="white"/>
<path d="M12 1H44C50.0751 1 55 5.92487 55 12V32C55 38.0751 50.0751 43 44 43H12C5.92487 43 1 38.0751 1 32V12C1 5.92487 5.92487 1 12 1Z" stroke="white" stroke-width="2"/>
</svg>
