<?xml version="1.0" encoding="UTF-8"?><svg id="Layer_1" xmlns="http://www.w3.org/2000/svg" viewBox="0 0 152.96 169.777"><path d="M151.863,90.873l-1.389-18.942-2.808-29.71c-.729-7.875-4.521-14.814-8.019-20.704l-5.022-8.419c-1.192-2-3.725-4.125-5.76-5.833-.371-.312-.722-.605-1.036-.876l-.266-.229-18.743-4.817C103.397-.04,97.731-.091,92.416.056l-15.027.444-19.923.497c-7.53.185-32.854,2.003-43.112,17.65l-5.117,5.681c-1.352,1.513-3.604,4.969-4.398,7.062C1.938,40.351.766,49.942,1.04,62.485l.498,23.198c-.69,15.821.66,30.285,2.072,42.349.901,7.651-.566,15.376-1.986,22.846-.493,2.591-1.001,5.271-1.41,7.926l-.215,1.397,1.383.297c3.51.753,6.402,2.246,9.464,3.828,4.14,2.139,8.421,4.351,14.328,4.653l15.467.798,24.001-1.245c13.055.288,25.564-1.505,36.599-3.091l29.947-4.288-.01.009,4.896-.694c2.958-.42,5.323-1.787,7.41-2.993.481-.278.957-.554,1.435-.813.264-.057.556-.114.864-.177,2.207-.441,3.979-.836,5.038-1.554l.639-.433.523-19.754.971-21.151.004-.07-1.098-22.649Z" style="fill:#fff;"/></svg>