<svg width="202" height="245" viewBox="0 0 202 245" fill="none" xmlns="http://www.w3.org/2000/svg">
<path d="M18.9561 164.406L15.9786 166.437L4.97236 170.977L7.26998 169.375L18.9561 164.406Z" fill="white"/>
<path d="M182.713 180.744C181.187 178.55 173.828 175.676 171.071 174.717C168.172 173.711 164.882 172.757 161.851 172.367C163.667 157.107 162.272 141.813 161.291 126.555L159.437 113.054C162.913 100.074 168.845 85.7691 165.791 72.1153C164.798 67.6732 158.442 63.756 153.862 63.901L153.475 63.5918C153.182 59.6113 152.382 55.6174 150.741 51.9381C149.794 49.809 147.874 47.6318 147.219 45.4473C146.071 41.6396 146.414 36.4385 144.825 32.5025C143.335 28.816 138.525 23.214 135.45 20.6618C120.885 8.55763 100.7 8.20027 86.8073 21.0261C83.0092 24.536 80.1628 29.8843 76.5354 33.3988C74.7051 35.1747 72.5921 36.3642 70.7884 38.5992C65.7486 44.839 63.5607 54.9019 65.2519 62.6414C66.278 67.3523 68.6364 70.4656 71.635 74.1608C69.8847 75.7628 69.0117 78.6547 68.6492 80.9227C68.3837 82.5765 68.8288 84.8735 68.466 86.012C67.993 87.5025 64.7605 89.7959 63.6037 91.1024C52.6992 103.401 46.7603 121.541 42.7808 137.153C42.1194 139.741 41.9309 142.988 41.2166 145.251C40.9557 146.077 40.306 145.846 40.2322 146.422C40.0838 147.583 40.8808 148.334 40.7374 149.436C36.1833 147.897 40.1827 152.491 40.0052 154.057C39.9427 154.619 38.0821 159.911 37.8062 160.319C36.7607 161.856 34.9541 160.788 35.1768 164.11C35.2249 164.792 35.9224 165.529 35.5638 166.081L19.5162 172.076C17.8826 172.594 11.9005 177.598 15.3409 178.922C19.2739 180.428 27.5625 174.682 28.0666 175.207C24.8234 179.176 21.1771 182.855 18.4702 187.206C16.7993 189.894 13.1613 195.084 16.6393 197.51C18.3249 197.986 23.4324 193.865 24.977 192.732C26.7416 191.438 28.5384 189.88 30.2078 188.462C30.5765 188.147 30.742 187.855 31.3209 188.03C30.3455 191.36 27.5504 196.577 29.7772 199.759C32.3903 203.492 36.0734 199.676 38.1235 197.502C40.4111 195.078 42.0974 191.909 44.4088 189.501C44.7031 197.398 50.4261 200.467 55.0819 192.579C57.8119 187.953 58.196 182.57 57.5574 177.38L62.6751 176.774C62.9252 183.763 61.765 190.771 62.454 197.747C62.548 198.719 63.388 200.688 63.1069 201.337C62.7444 202.174 60.2209 201.612 59.1047 201.722C57.745 201.857 54.4656 202.977 53.6346 204C53.3375 204.361 53.4073 204.964 52.8514 205.589C51.7779 206.803 47.4159 208.291 45.8056 209.308C43.8554 210.537 35.184 218.91 34.5234 220.716C32.0429 227.511 37.2675 228.857 42.9016 229.344C54.9886 230.394 67.5103 229.036 79.4401 227.954C83.2983 227.606 88.201 226.626 91.9692 226.687C94.1094 226.725 95.2601 228.053 97.894 226.652C98.7844 226.176 99.4666 224.949 99.886 224.749C100.803 224.316 107.393 225.814 108.938 226.172C124.657 229.791 141.961 230.906 158.164 230.571C163.951 230.449 171.839 230.155 167.42 222.247C163.063 214.445 148.366 206.054 139.791 204.286C137.511 203.815 134.779 203.632 132.452 203.312L133.606 193.994C134.353 195.212 136.137 194.05 136.923 193.314C138.41 191.91 138.862 189.605 139.915 187.913C140.567 187.462 140.53 188.016 140.57 188.496C140.844 191.456 140.585 195.716 143.102 197.718C146.036 200.042 147.928 197.353 149.016 194.711C149.422 193.726 149.009 192.295 150.27 191.6C151.017 192.171 151.002 193.119 151.518 193.805C152.734 195.435 156.713 197.829 158.691 197.813C163.172 197.779 165.869 193.603 165.824 189.608C165.793 187.171 164.235 184.774 162.773 182.902C164.165 183.332 165.538 183.816 166.943 184.218C170.559 185.25 175.013 186.841 178.926 186.734C179.567 186.719 181.755 186.249 182.223 185.947C183.451 185.164 183.515 181.907 182.703 180.743L182.713 180.744ZM94.8758 34.6925C92.7578 34.5113 90.9093 34.2376 89.1756 34.0942C90.9147 34.233 92.7583 34.5063 94.8758 34.6925ZM108.508 80.6147C108.543 80.6177 108.572 80.6203 108.607 80.6233C105.414 80.37 101.79 80.627 98.513 80.2863C98.513 80.2863 98.503 80.2855 98.498 80.285C101.751 80.6086 105.339 80.3586 108.503 80.6143L108.508 80.6147ZM149.469 65.814C147.392 75.4547 133.774 80.383 124.727 81.5863C122.055 81.94 119.741 81.8874 117.499 81.6805C119.706 81.8794 121.981 81.9286 124.612 81.5765C133.659 80.3731 147.277 75.4449 149.354 65.8041C150.454 60.6979 145.796 50.5561 142.183 46.6879C135.829 39.8895 129.177 37.6335 120.225 35.7981C118.292 35.4017 116.39 35.1636 114.505 35.0224C116.43 35.1621 118.372 35.4036 120.34 35.808C129.292 37.6434 135.944 39.8993 142.298 46.6977C145.911 50.5659 150.569 60.7078 149.469 65.814Z" fill="#EA128B"/>
<path d="M113.944 11.6284C121.527 12.2775 129.037 15.3297 135.455 20.6628C138.53 23.2149 143.339 28.8169 144.829 32.5034C146.419 36.4393 146.075 41.6404 147.223 45.4482C147.884 47.6331 149.798 49.8098 150.745 51.9389C152.382 55.6178 153.186 59.6171 153.48 63.5926L153.866 63.9018C154.189 63.8893 154.52 63.9026 154.86 63.9316C159.315 64.313 164.866 67.9907 165.791 72.1157C168.844 85.7695 162.917 100.075 159.437 113.054L161.29 126.555C162.266 141.813 163.667 157.107 161.85 172.367C164.881 172.757 168.172 173.711 171.07 174.718C173.827 175.676 181.181 178.55 182.712 180.744C183.524 181.907 183.46 185.165 182.232 185.948C181.759 186.249 179.571 186.714 178.936 186.735C178.356 186.751 177.764 186.73 177.159 186.678C173.713 186.383 170.028 185.099 166.947 184.223C165.542 183.822 164.169 183.338 162.777 182.907C164.239 184.779 165.802 187.177 165.833 189.614C165.878 193.614 163.181 197.785 158.7 197.818C158.614 197.821 158.53 197.814 158.44 197.806C156.392 197.631 152.694 195.367 151.527 193.806C151.012 193.119 151.031 192.172 150.28 191.601C149.018 192.301 149.431 193.727 149.026 194.711C148.197 196.719 146.908 198.757 145.045 198.597C144.456 198.547 143.815 198.276 143.112 197.719C140.594 195.721 140.848 191.456 140.58 188.497C140.549 188.153 140.561 187.767 140.326 187.747C140.236 187.74 140.106 187.789 139.925 187.914C138.871 189.606 138.425 191.912 136.933 193.315C136.37 193.844 135.291 194.595 134.451 194.523C134.122 194.495 133.828 194.339 133.621 193.995L132.467 203.313C134.794 203.638 137.526 203.816 139.805 204.288C148.38 206.061 163.077 214.452 167.435 222.249C171.849 230.151 163.96 230.45 158.179 230.572C149.898 230.747 141.327 230.54 132.825 229.813C124.324 229.085 116.637 227.945 108.952 226.178C107.733 225.898 103.36 224.901 101.127 224.71C100.533 224.659 100.089 224.666 99.9006 224.756C99.4812 224.956 98.7991 226.182 97.9086 226.658C96.8341 227.229 96.0039 227.349 95.2546 227.284C94.2756 227.201 93.4284 226.807 92.3444 226.714C92.2245 226.704 92.1047 226.693 91.9789 226.693C88.2162 226.627 83.3085 227.607 79.45 227.96C67.551 229.034 55.0649 230.39 43.0067 229.358C42.9717 229.355 42.9418 229.352 42.9068 229.349C37.2727 228.862 32.0483 227.516 34.5288 220.721C35.1898 218.911 43.8607 210.542 45.8108 209.313C47.4261 208.297 51.7881 206.808 52.8565 205.595C53.4074 204.969 53.3426 204.366 53.6397 204.005C54.4757 202.982 57.75 201.862 59.1097 201.728C60.2259 201.617 62.7494 202.18 63.1119 201.342C63.393 200.694 62.5531 198.724 62.459 197.753C61.7705 190.772 62.9303 183.768 62.6801 176.779L57.5625 177.385C58.206 182.576 57.817 187.959 55.087 192.584C53.0912 195.962 50.9028 197.331 49.0296 197.17C46.5271 196.956 44.5864 194.019 44.419 189.507C42.1072 191.92 40.4213 195.083 38.1337 197.508C36.6474 199.082 34.314 201.513 32.1462 201.327C31.317 201.256 30.5102 200.801 29.7876 199.765C27.5608 196.583 30.3513 191.36 31.3313 188.036C31.2381 188.008 31.159 187.991 31.0841 187.984C30.6944 187.951 30.5273 188.203 30.2182 188.467C28.5488 189.886 26.752 191.444 24.9874 192.738C23.4965 193.83 18.6866 197.705 16.8384 197.547C16.7735 197.542 16.7089 197.531 16.6498 197.516C13.1718 195.09 16.8098 189.9 18.4807 187.212C21.1826 182.86 24.8338 179.182 28.077 175.213C28.0582 175.196 28.0291 175.184 27.9941 175.181C27.0651 175.101 20.4492 179.509 16.4181 179.164C16.0385 179.132 15.6777 179.056 15.351 178.933C11.9103 177.614 17.8922 172.609 19.5262 172.087L35.5737 166.091C35.9323 165.54 35.2294 164.807 35.1867 164.121C34.964 160.799 36.7706 161.867 37.816 160.33C38.092 159.922 39.9521 154.635 40.0151 154.068C40.167 152.686 37.0673 148.937 39.48 149.143C39.7996 149.17 40.2142 149.266 40.7423 149.447C40.8856 148.345 40.0887 147.594 40.2371 146.432C40.3109 145.856 40.9609 146.082 41.2214 145.261C41.9353 143.003 42.1243 139.752 42.7856 137.163C46.7651 121.551 52.7039 103.412 63.6084 91.1131C64.7651 89.8066 68.0026 87.5136 68.4706 86.0227C68.8334 84.8842 68.3887 82.5822 68.6537 80.9334C69.0167 78.6604 69.8897 75.7685 71.6396 74.1715C68.641 70.4763 66.288 67.3585 65.2565 62.6521C63.5654 54.9127 65.7532 44.8498 70.793 38.61C72.5967 36.3751 74.7096 35.1856 76.5399 33.4097C80.1623 29.8947 83.0087 24.5465 86.8117 21.037C94.5819 13.8614 104.323 10.81 113.949 11.6338M114.505 35.0228C114.705 35.0399 114.9 35.0566 115.099 35.0737C116.793 35.2187 118.494 35.4446 120.225 35.8036C129.176 37.639 135.828 39.8949 142.182 46.6933C145.795 50.5615 150.453 60.7033 149.353 65.8095C147.276 75.4502 133.658 80.3784 124.611 81.5818C122.082 81.9175 119.876 81.8893 117.748 81.7072C117.668 81.7003 117.583 81.693 117.503 81.6862C117.623 81.6965 117.743 81.7067 117.863 81.717C119.991 81.8991 122.197 81.9273 124.731 81.5921C133.778 80.3887 147.396 75.4604 149.473 65.8198C150.573 60.7136 145.915 50.5717 142.302 46.7036C135.948 39.9052 129.296 37.6492 120.345 35.8138C118.614 35.4599 116.903 35.2281 115.209 35.0831C114.975 35.063 114.74 35.0429 114.505 35.0228ZM89.1758 34.0947C89.2108 34.0977 89.2507 34.1011 89.2857 34.1041C90.989 34.2499 92.803 34.5156 94.876 34.693C92.8484 34.5144 91.074 34.2571 89.4006 34.1139C89.3257 34.1075 89.2507 34.1011 89.1708 34.0942M98.8878 80.3187C98.7579 80.3076 98.628 80.2965 98.4982 80.2853C98.4982 80.2853 98.5081 80.2862 98.5131 80.2866C98.678 80.3007 98.8378 80.3144 99.0027 80.3285C102.145 80.5975 105.569 80.3786 108.608 80.6186C108.608 80.6186 108.608 80.6186 108.603 80.6182C108.573 80.6156 108.548 80.6135 108.523 80.6113C108.523 80.6113 108.518 80.6109 108.513 80.6105C105.475 80.3655 102.04 80.5885 98.8928 80.3191M114.235 8.17976C103.246 7.23914 92.6684 10.9016 84.4511 18.4857C82.2359 20.5299 80.3957 23.0177 78.6181 25.4206C77.096 27.4788 75.6535 29.4285 74.1194 30.9135C73.5327 31.4857 72.8641 32.0158 72.1571 32.5827C70.8836 33.6032 69.4327 34.759 68.0895 36.426C62.4767 43.3747 59.9162 54.4547 61.8647 63.3758C62.8299 67.7954 64.7657 70.9679 67.2539 74.2127C66.1015 76.2424 65.515 78.5414 65.224 80.3788C65.0444 81.4928 65.0842 82.6307 65.1203 83.6327C65.1333 84.0153 65.1532 84.5541 65.1409 84.8793C64.7141 85.405 63.6272 86.3611 63.0181 86.9012C62.2569 87.574 61.5395 88.2053 61.0007 88.8067C55.7568 94.7228 51.305 102.162 47.3881 111.55C44.4665 118.564 41.9314 126.423 39.4128 136.292C39.0677 137.638 38.852 139.06 38.6406 140.432C38.4702 141.557 38.3043 142.627 38.0942 143.508C37.1913 144.309 36.8799 145.256 36.7885 145.981C36.7701 146.14 36.757 146.295 36.7494 146.445C36.2837 146.776 35.9807 147.147 35.8098 147.383C34.3456 149.472 35.4225 151.793 36.1384 153.325C36.2282 153.513 36.3383 153.758 36.4309 153.972C36.0819 155.067 35.3469 157.157 34.9472 158.197C33.3538 158.954 31.615 160.301 31.6897 163.826L18.2915 168.834C16.2393 169.602 10.9349 173.434 10.8201 177.476C10.76 179.559 12.0177 181.348 14.0984 182.148C14.7222 182.387 15.3985 182.541 16.1128 182.602C16.5324 182.638 16.96 182.639 17.3946 182.616C16.7406 183.509 16.11 184.424 15.5213 185.377C15.4108 185.554 15.2945 185.739 15.1724 185.935C14.1969 187.478 12.8666 189.587 12.1794 191.828C10.6313 196.875 13.3965 199.461 14.6554 200.342C14.9736 200.565 15.3319 200.731 15.7052 200.839C15.9708 200.911 16.253 200.966 16.5377 200.99C18.8554 201.188 21.4256 199.707 25.468 196.7C25.4519 198.44 25.8346 200.165 26.9388 201.745C28.5462 204.041 30.4963 204.66 31.85 204.775C35.7262 205.107 38.8097 201.837 40.6552 199.882C41.5335 198.953 42.3067 197.96 43.0398 196.964C44.4204 199.085 46.3962 200.414 48.7339 200.614C50.7369 200.785 54.6152 200.198 58.0735 194.335C58.3199 193.92 58.5518 193.498 58.7645 193.064C58.7701 194.726 58.8352 196.398 59.0002 198.079C59.0051 198.14 59.0151 198.201 59.0204 198.256C58.9297 198.259 58.8435 198.266 58.7569 198.279C57.179 198.435 52.6874 199.672 50.9421 201.812C50.4766 202.379 50.2562 202.963 50.1285 203.343C49.465 203.753 47.9903 204.415 47.1487 204.79C45.9305 205.333 44.7799 205.852 43.9456 206.378C42.0641 207.567 37.723 211.849 37.2342 212.334C31.9906 217.532 31.4998 218.876 31.264 219.523C30.028 222.901 30.1478 225.773 31.614 228.072C33.858 231.587 38.4306 232.43 42.6061 232.792L42.706 232.801C54.0199 233.769 65.52 232.71 76.6396 231.69C77.6842 231.593 78.7237 231.496 79.7579 231.404C81.2029 231.272 82.7854 231.061 84.3176 230.851C86.9896 230.487 89.7479 230.116 91.9134 230.151C91.9584 230.155 91.9983 230.158 92.0433 230.162C92.313 230.185 92.6185 230.261 93.0022 230.364C93.5291 230.5 94.1842 230.666 94.9535 230.732C96.497 230.864 97.9942 230.531 99.5323 229.714C100.317 229.294 100.924 228.728 101.384 228.221C102.823 228.404 105.233 228.876 108.16 229.549C115.627 231.267 123.823 232.516 132.519 233.26C140.691 233.959 149.343 234.218 158.239 234.036C162.724 233.943 168.868 233.811 171.304 229.577C172.708 227.132 172.42 224.106 170.449 220.574C165.965 212.545 153.424 205.072 144.455 202.015C144.555 202.024 144.654 202.037 144.754 202.046C146.622 202.206 149.124 201.592 151.175 198.163C153.258 199.707 156.011 201.067 158.144 201.249C158.339 201.266 158.534 201.273 158.725 201.274C161.444 201.256 163.991 200.169 165.906 198.224C168.096 195.997 169.334 192.84 169.293 189.574C169.288 189.212 169.263 188.854 169.217 188.503C171.627 189.212 174.246 189.903 176.858 190.126C177.607 190.19 178.335 190.213 179.026 190.196C179.752 190.178 182.749 189.722 184.094 188.868C185.332 188.081 186.176 186.727 186.532 184.961C186.872 183.248 186.824 180.599 185.555 178.773C183.334 175.581 175.476 172.585 172.201 171.451C169.84 170.632 167.64 169.992 165.631 169.538C166.793 156.788 165.931 143.994 165.097 131.589C164.978 129.837 164.859 128.085 164.75 126.339C164.747 126.254 164.734 126.172 164.726 126.091L162.969 113.286C163.567 111.089 164.232 108.872 164.927 106.537C168.171 95.6507 171.849 83.316 169.174 71.3712C168.557 68.6078 166.6 65.9254 163.674 63.8177C161.53 62.2739 159.042 61.1774 156.662 60.7026C156.173 56.9613 155.248 53.5541 153.908 50.538C153.4 49.4003 152.738 48.3598 152.104 47.3468C151.451 46.3171 150.781 45.2558 150.537 44.4518C150.121 43.0709 149.928 41.3025 149.719 39.4274C149.417 36.6809 149.103 33.8431 148.038 31.2069C146.21 26.6934 140.84 20.6368 137.662 17.9955C130.808 12.2988 122.702 8.90446 114.235 8.17976ZM136.665 197.569C137.279 197.32 137.824 197 138.279 196.683C138.815 198.079 139.645 199.39 140.956 200.431C141.441 200.819 141.943 201.138 142.45 201.387C141.767 201.193 141.112 201.031 140.499 200.904C139.158 200.628 137.735 200.446 136.335 200.286L136.67 197.564L136.665 197.569Z" fill="#EA128B"/>
<path d="M135.521 20.6142C138.59 23.1657 143.389 28.7672 144.874 32.4541C146.458 36.3904 146.11 41.5931 147.252 45.4014C147.91 47.5866 149.82 49.7631 150.764 51.8924C152.396 55.5716 153.195 59.5716 153.484 63.5482L153.87 63.8572C158.446 63.7102 164.786 67.6253 165.779 72.0686C168.816 85.7249 162.881 100.037 159.392 113.021L161.23 126.525C162.19 141.787 163.574 157.085 161.745 172.35C164.772 172.738 168.058 173.691 170.952 174.697C173.705 175.654 181.049 178.525 182.576 180.719C183.386 181.883 183.319 185.141 182.091 185.925C181.619 186.227 179.433 186.693 178.798 186.714C174.889 186.823 170.435 185.238 166.83 184.202C165.427 183.801 164.056 183.318 162.665 182.888C164.124 184.76 165.683 187.157 165.712 189.595C165.757 193.596 163.055 197.769 158.579 197.805C156.602 197.822 152.63 195.424 151.417 193.799C150.903 193.113 150.923 192.165 150.173 191.594C148.912 192.295 149.323 193.721 148.917 194.706C147.828 197.35 145.934 200.045 143.007 197.717C140.494 195.72 140.752 191.454 140.487 188.493C140.442 188.018 140.484 187.459 139.833 187.91C138.779 189.603 138.331 191.91 136.839 193.314C136.057 194.056 134.27 195.214 133.524 193.996L132.362 203.317C134.687 203.641 137.416 203.818 139.692 204.288C148.256 206.058 162.929 214.445 167.275 222.242C171.676 230.145 163.796 230.447 158.021 230.572C141.834 230.919 124.55 229.807 108.852 226.193C107.309 225.841 100.727 224.34 99.811 224.774C99.3919 224.975 98.7092 226.202 97.8193 226.678C95.1869 228.081 94.0387 226.753 91.9009 226.716C88.1423 226.651 83.2389 227.634 79.3842 227.988C67.4666 229.071 54.9572 230.435 42.8839 229.395C37.2564 228.91 32.0388 227.566 34.5233 220.768C35.1854 218.957 43.8551 210.582 45.8044 209.352C47.4189 208.335 51.7776 206.844 52.8461 205.629C53.397 205.003 53.3329 204.4 53.6301 204.039C54.4661 203.016 57.738 201.894 59.0964 201.759C60.2115 201.648 62.7317 202.209 63.0946 201.371C63.3761 200.723 62.539 198.753 62.446 197.781C61.765 190.798 62.9304 183.792 62.6873 176.802L57.5746 177.41C58.2123 182.602 57.8185 187.986 55.0869 192.614C50.4284 200.507 44.7147 197.439 44.4283 189.541C42.1167 191.955 40.4296 195.12 38.1421 197.546C36.0921 199.721 32.4089 203.545 29.8027 199.808C27.5814 196.625 30.3735 191.405 31.3562 188.074C30.7735 187.894 30.6124 188.192 30.2438 188.507C28.5749 189.926 26.7784 191.485 25.0145 192.781C23.4704 193.915 18.3649 198.034 16.6812 197.564C13.2093 195.139 16.8485 189.945 18.5202 187.256C21.2234 182.902 24.8743 179.221 28.1178 175.25C27.6098 174.724 19.3292 180.481 15.4023 178.971C11.9666 177.653 17.947 172.645 19.5798 172.121L35.6159 166.117C35.9745 165.565 35.2731 164.833 35.2312 164.146C35.012 160.823 36.8156 161.891 37.8614 160.353C38.1374 159.945 40.0007 154.656 40.0642 154.089C40.238 152.522 36.2524 147.929 40.8001 149.466C40.9444 148.364 40.149 147.613 40.2984 146.451C40.3727 145.875 41.0218 146.101 41.2828 145.279C41.9981 143.021 42.1901 139.768 42.8532 137.178C46.8437 121.56 52.7938 103.413 63.6985 91.1065C64.8554 89.7991 68.0916 87.5041 68.5605 86.0126C68.924 84.8736 68.4821 82.5712 68.7484 80.9218C69.1132 78.648 69.9881 75.7549 71.7377 74.1567C68.7459 70.4618 66.3985 67.3442 65.3727 62.6369C63.6909 54.896 65.8862 44.8294 70.9267 38.5858C72.7306 36.3494 74.8424 35.1587 76.6725 33.3815C80.2944 29.864 83.1434 24.5081 86.9453 21.0009C100.815 8.16885 120.978 8.51757 135.521 20.6142ZM137.15 28.3155C137.109 28.2668 136.554 28.1743 136.292 27.8958C126.164 17.0092 111.228 12.0547 96.9952 18.6593C96.1845 19.0321 95.3544 19.9254 94.4522 20.3104C95.983 20.687 97.5314 19.9152 99.0435 19.8634C110.564 19.4851 121.698 22.5888 132.262 26.7085C133.575 27.2222 135.392 28.5472 136.618 28.9078C137.279 29.1048 137.34 28.5627 137.15 28.3155ZM139.475 36.4126C132.842 31.5736 131.989 31.8524 124.314 29.5608C112.273 25.9629 99.6251 21.7057 87.1896 26.0332L82.347 30.7822C87.6599 29.5933 93.0285 31.1107 98.41 31.2985C112.371 31.7761 120.491 29.4908 134.274 35.6426C137.605 37.1268 139.737 39.1213 142.753 40.9955L142.08 37.5135C141.312 37.1467 140.133 36.8905 139.471 36.4072L139.475 36.4126ZM142.33 46.6638C135.99 39.8663 129.347 37.6126 120.407 35.7806C112.529 34.1647 105.166 35.1688 97.2449 34.8246C88.9478 34.4685 84.8605 32.0109 77.4209 37.6884C75.0989 39.4588 74.8314 41.9467 73.1279 43.4184C72.5747 43.8934 71.7985 43.8021 71.421 44.2219C70.8213 44.8888 69.1649 50.7582 68.9672 51.9565C66.0172 69.7521 82.7183 78.6383 98.5601 80.2756C101.833 80.6149 105.464 80.3521 108.658 80.6095C114.443 81.0728 118.654 82.3809 124.744 81.5696C133.782 80.362 147.39 75.4264 149.474 65.7822C150.578 60.6741 145.935 50.5315 142.33 46.6638ZM158.408 70.3353C158.282 70.2241 155.656 68.7247 155.5 68.6712C155.021 68.5099 152.799 68.225 152.58 68.382C151.532 71.4712 149.978 74.3667 147.495 76.6154C148.861 76.978 148.939 78.7773 149.591 79.9125C150.58 81.6288 151.913 83.038 152.816 84.7068C155.96 90.5036 155.825 97.0301 157.329 103.269L159.562 95.9377C160.126 89.0261 161.377 83.0819 160.385 75.9773C160.204 74.6764 159.363 71.1649 158.408 70.3353ZM145.88 78.5817L137.028 83.0792C134.506 88.3124 132.158 93.922 131.993 99.7529L136.708 101.149L145.875 78.5812L145.88 78.5817ZM140.648 138.338C146.029 132.108 151.555 121.472 153.876 113.756C154.08 113.075 154.839 112.538 154.956 111.94C155.274 110.275 152.689 100.624 152.283 98.0235C151.872 95.3622 152.151 92.5539 151.525 89.9396C150.824 87.0226 148.658 84.1363 147.261 81.4813L140.558 102.683C143.216 104.044 147.076 105.393 146.886 108.861C146.535 115.214 141.812 121.801 139.234 127.396L138.479 140.026C139.683 139.988 139.584 139.146 140.037 138.672C140.235 138.463 140.57 138.432 140.653 138.338L140.648 138.338ZM66.7204 149.899C67.8042 145.382 68.4754 140.694 69.44 136.101C70.1676 132.638 70.5968 132.379 70.3997 128.797C70.1809 124.821 76.3849 110.356 78.367 106.031C79.6204 103.296 82.5322 100.621 82.6807 97.7016C82.723 96.8515 81.8819 94.9871 81.7744 93.7728C81.2685 88.0956 80.5084 86.0473 78.383 80.7391C78.1388 80.1258 78.223 79.3747 77.9795 78.8116C77.4901 77.6551 75.2229 77.0149 74.3366 75.9752C71.8635 79.3395 73.0042 83.9963 71.3837 87.7949C60.3171 97.6975 55.2534 111.461 50.7255 124.954C49.1553 129.636 47.3988 134.262 46.0925 139.031C46.0451 139.705 46.8864 140.329 47.3364 140.769C52.2124 145.529 59.8451 149.137 66.7204 149.899ZM89.61 89.8163C88.2922 88.2377 87.9206 82.6372 86.3095 82.0227C85.8615 81.854 85.3071 82.108 84.855 81.9288C84.2575 81.687 81.8132 80.1178 81.3715 80.4065L85.456 91.9125C86.8247 90.9496 87.611 89.6257 89.6046 89.8209L89.61 89.8163ZM132.338 84.748C128.08 85.4646 124.126 86.5133 119.711 86.4882C111.026 86.4305 100.122 84.7121 91.4608 83.6722C91.003 83.6181 89.1685 82.6181 89.4131 83.6984C89.767 85.2652 92.3037 87.8718 92.2163 89.9582C92.8526 90.8059 98.9874 90.8822 100.54 91.1201C105.015 91.808 110.624 93.0296 115.057 94.0905C119.49 95.1514 123.781 96.5167 127.924 98.3212C129.514 93.817 129.935 88.9419 132.338 84.748ZM91.3387 93.5892C88.921 92.4742 88.4449 93.3424 87.2669 95.3108C85.8953 97.6042 85.2404 100.451 83.1186 102.349C85.3548 103.589 81.9035 103.219 81.5256 103.644C78.6794 111.737 74.9126 119.606 74.3986 128.284C76.3954 128.324 78.3601 128.622 80.3001 128.797C90.5048 129.708 99.6923 132.47 109.42 135.434C115.642 137.325 122.165 139.147 128.695 139.478C130.408 135.37 132.155 131.261 134.129 127.267C135.235 125.026 137.189 122.562 138.087 120.399C138.707 118.905 139.513 114.173 140.568 113.344C140.956 113.036 141.582 113.24 141.875 112.868C142.287 112.346 143.35 108.655 143.027 108.146C142.704 107.636 141.456 106.942 140.873 106.651C139.306 105.87 132.396 103.448 130.923 103.458C129.45 103.468 127.94 106.618 126.911 101.88C118.504 98.5724 109.465 97.0784 100.638 95.4569C97.7826 94.9322 93.461 94.5737 91.3283 93.5934L91.3387 93.5892ZM137.617 154.253C142.285 154.561 146.946 154.587 151.517 153.621C152.131 153.493 152.616 153.052 153.207 152.896C154.323 152.6 157.759 152.321 158.282 151.486C158.88 144.708 157.95 137.765 157.365 130.956C157.296 130.172 157.549 129.385 157.479 128.61C157.26 126.171 156.785 123.726 156.332 121.322C155.835 121.315 155.72 121.782 155.526 122.107C153.308 125.895 151.711 130.182 149.311 133.995C147.247 137.274 138.197 147.695 137.779 150.24C137.599 151.344 137.973 153.028 137.618 154.248L137.617 154.253ZM134.483 144.395C135.005 142.155 134.983 138.533 135.191 136.085C135.209 135.88 135.831 135.426 135.649 134.904C133.611 136.467 133.306 141.513 131.366 143.11C130.221 144.047 123.26 143.287 121.461 142.988C115.965 142.073 110.084 140.436 105.118 137.969L88.0237 133.815C88.6162 135 89.2581 136.842 89.9748 137.868C90.4223 138.513 92.8269 141.315 93.4652 141.962C97.6776 146.253 111.66 153.606 117.668 154.455C118.388 154.557 119.121 154.398 119.806 154.201C125.012 152.732 128.725 150.864 132.279 147.195C133.183 146.263 134.051 146.271 134.488 144.396L134.483 144.395ZM82.3554 132.452L73.4194 131.339C72.8504 137.186 71.7098 142.958 70.8918 148.779C68.9181 162.846 66.8889 177.035 66.4843 191.266C66.4001 194.257 67.6081 199.833 65.658 202.429C65.505 202.631 61.7701 204.763 61.2378 204.994C57.205 206.729 51.1638 210.211 47.6393 212.999C44.336 215.609 41.5438 219.71 38.3545 222.516L38.0228 224.225C42.3302 224.161 46.6128 223.798 50.9176 223.587C64.1651 222.94 77.5469 221.364 90.8116 221.752C92.1301 221.789 93.5789 221.361 94.9924 221.757C95.1915 221.604 94.1389 217.622 94.0563 216.882C93.0163 207.745 94.7538 198.568 95.9466 189.591C97.0377 181.393 96.4028 175.755 101.033 168.427C101.509 167.675 102.019 167.12 102.771 166.617C102.836 170.62 102.983 174.68 103.018 178.69C103.04 181.192 103.072 183.771 103.063 186.351C103.044 190.869 103.481 198.238 102.812 202.378C102.385 205.029 100.713 206.774 101.434 209.748C100.39 209.85 100.878 209.429 100.686 208.921C100.152 207.515 99.6483 205.88 99.7218 204.37C98.5599 204.617 99.2568 205.756 99.1921 206.574C99.0886 207.906 98.6377 209.54 98.6019 210.666C98.5059 213.972 99.0862 217.185 100.157 220.31C105.752 220.46 111.067 222.546 116.714 223.273C129.515 224.917 144.697 225.574 157.721 226.073C158.602 226.108 163.42 226.187 163.683 226.054C164.14 225.822 164.127 225.625 163.933 225.186C163.676 224.597 158.765 219.779 157.939 219.101C153.435 215.393 144.536 211.43 139.069 209.297C137.221 208.577 134.025 207.039 132.153 206.889C130.386 206.749 129.043 210.064 126.951 206.255C126.199 204.102 127.972 198.644 128.263 196.168C128.838 191.377 128.093 185.965 129.48 181.604L133.159 155.611C130.646 157.264 128.226 159.182 125.275 160.075C118.569 162.104 111.205 162.004 104.669 159.267C99.2926 157.016 89.8071 149.97 86.5293 145.327C83.7178 141.346 82.2611 137.33 82.3509 132.447L82.3554 132.452ZM66.5004 153.069C66.0648 153.168 65.7675 153.353 65.2703 153.291C61.7269 152.823 53.2294 149.397 50.4022 147.308C49.7735 146.842 45.8436 142.716 45.2958 143.247L44.9542 146.898C51.1758 151.908 57.19 157.111 65.7668 157.546L66.5049 153.075L66.5004 153.069ZM158.43 155.707C157.704 155.143 154.768 156.69 153.743 156.924C148.6 158.118 142.625 157.347 137.382 157.015L136.909 162.554C137.526 162.516 137.262 161.841 137.958 161.282C139.613 159.957 142.527 160.854 142.318 163.191C142.202 164.491 141.088 165.115 141.561 166.345L141.006 167.076L137.336 165.919L136.825 163.601L135.812 171.182C137.229 171.359 137.864 171.694 138.594 170.375L138.705 171.73C139.273 172.085 139.921 172.201 140.581 172.302C142.748 172.643 156.024 173.433 157.227 172.697C157.688 172.415 157.746 171.978 157.851 171.51C158.444 168.864 158.775 162.912 158.828 160.054C158.842 159.423 158.623 155.859 158.43 155.707ZM48.6275 155.035C48.4828 155.731 48.0009 156.312 47.2312 156.322L43.5983 154.606C43.0045 156.795 42.2269 159.902 41.1811 161.912C40.5313 163.167 39.125 163.745 39.8027 164.933C41.2364 167.45 47.562 170.239 50.4044 170.853C52.4279 171.287 52.8782 169.955 53.7447 173.172L63.3852 172.683L64.6115 162.017C59.1191 160.891 53.2706 158.931 49.1406 155.089L48.6275 155.035ZM159.589 186.668C158.529 185.011 155.595 182.169 155.152 180.766C154.764 179.543 155.308 178.529 155.096 177.587C154.859 176.538 153.325 177.326 152.394 177.332C150.026 177.351 146.059 177.364 143.843 177.065C142.393 176.866 137.565 175.721 136.752 174.768C136.218 174.14 136.439 173.255 135.664 172.917L134.094 187.08C134.43 187.56 134.729 187.119 134.939 186.72C135.455 185.734 135.503 184.82 136.287 183.701C140.295 178.012 144.982 180.039 144.979 186.612C146.125 186.022 145.964 183.844 146.565 182.921C147.329 181.751 150.71 181.999 151.583 182.666C153.857 184.401 153.913 193.646 159.583 192.683C161.433 189.793 161.277 189.327 159.584 186.667L159.589 186.668ZM177.545 182.073L160.947 175.109C160.422 175.837 159.902 176.631 158.85 176.647L158.971 177.35C164.787 178.394 170.266 182.04 176.264 182.31C176.699 182.327 177.573 182.688 177.54 182.073L177.545 182.073ZM158.428 177.299L158.487 176.611L158.137 176.581L158.079 177.269L158.428 177.299ZM156.277 177.121L155.564 177.06L155.535 177.399L156.248 177.46L156.277 177.121ZM49.1005 174.297C44.3271 173.403 40.0429 170.838 36.5296 167.601L35.9221 168.242L37.3591 168.365C37.7837 170.987 35.88 171.448 34.5063 172.882C30.4718 177.112 25.9936 182.656 22.6491 187.457C21.6067 188.955 20.3744 190.618 19.7712 192.329C25.3932 187.927 31.8332 184.013 36.6294 178.747C38.4041 176.795 40.7069 171.302 43.6741 174.342C43.9264 175.744 39.229 180.912 38.2583 182.512C35.9186 186.375 33.3305 192.149 32.9616 196.592L37.9279 190.864C39.4407 188.448 41.0384 185.978 42.6428 183.724C43.5905 182.394 46.3757 177.962 47.2807 177.25C47.9758 176.702 49.1646 176.728 50.0203 176.771L49.1005 174.297ZM32.9049 169.738L21.8913 174.422L19.7273 175.93L30.0981 171.652L32.9049 169.738ZM53.4326 178.187L51.4275 177.243C51.1726 181.881 47.6023 186.738 49.6787 191.384C51.9073 189.295 53.166 185.792 53.4979 182.842C53.5833 182.076 53.6625 178.673 53.4326 178.187Z" fill="black"/>
<path d="M82.3553 132.454C82.2605 137.337 83.7222 141.353 86.5338 145.334C89.8115 149.977 99.2916 157.027 104.673 159.274C111.209 162.011 118.573 162.111 125.28 160.082C128.231 159.189 130.651 157.266 133.164 155.618L129.484 181.611C128.097 185.972 128.842 191.388 128.268 196.175C127.971 198.655 126.198 204.113 126.955 206.262C129.053 210.071 130.391 206.756 132.158 206.896C134.03 207.046 137.226 208.579 139.074 209.304C144.545 211.438 153.44 215.4 157.943 219.108C158.769 219.791 163.68 224.609 163.937 225.193C164.131 225.631 164.144 225.828 163.687 226.061C163.425 226.194 158.607 226.114 157.725 226.079C144.701 225.581 129.52 224.924 116.719 223.28C111.072 222.553 105.757 220.467 100.161 220.317C99.0906 217.192 98.5153 213.98 98.6063 210.673C98.6371 209.546 99.088 207.912 99.1965 206.581C99.2617 205.758 98.5644 204.624 99.7263 204.376C99.6578 205.887 100.157 207.521 100.69 208.928C100.883 209.436 100.395 209.857 101.439 209.755C100.712 206.785 102.389 205.035 102.816 202.385C103.481 198.244 103.048 190.881 103.067 186.358C103.076 183.778 103.045 181.199 103.022 178.697C102.987 174.686 102.841 170.627 102.775 166.624C102.024 167.127 101.514 167.681 101.038 168.434C96.4022 175.762 97.0421 181.4 95.951 189.598C94.7537 198.569 93.0212 207.746 94.0608 216.889C94.1434 217.629 95.1963 221.605 94.9969 221.764C93.5833 221.367 92.1346 221.796 90.816 221.759C77.5567 221.366 64.1699 222.941 50.922 223.594C46.6222 223.805 42.3396 224.168 38.0272 224.232L38.3589 222.523C41.5483 219.717 44.3404 215.616 47.6438 213.006C51.1678 210.223 57.2094 206.736 61.2422 205.001C61.7745 204.77 65.5144 202.639 65.6624 202.436C67.613 199.835 66.4 194.258 66.4887 191.273C66.8983 177.042 68.9225 162.853 70.8962 148.786C71.7142 142.965 72.8548 137.192 73.4238 131.346L82.3599 132.459L82.3553 132.454Z" fill="white"/>
<path d="M142.215 46.6551C135.875 39.8577 129.232 37.6039 120.292 35.7719C112.414 34.156 105.051 35.1601 97.13 34.816C88.8329 34.4599 84.7456 32.0023 77.306 37.6798C74.984 39.4502 74.7165 41.9381 73.013 43.4097C72.4598 43.8848 71.6836 43.7935 71.3061 44.2132C70.7064 44.8801 69.05 50.7496 68.8523 51.9479C65.9024 69.7434 82.6035 78.6297 98.4453 80.2669C101.718 80.6063 105.349 80.3435 108.543 80.6009C114.329 81.0641 118.539 82.3723 124.629 81.5609C133.667 80.3533 147.275 75.4178 149.359 65.7735C150.463 60.6655 145.82 50.5228 142.215 46.6551Z" fill="white"/>
<path d="M91.3388 93.59C93.4711 94.5753 97.7931 94.9288 100.648 95.4535C109.48 97.0754 118.519 98.5744 126.922 101.877C127.95 106.615 129.46 103.464 130.934 103.454C132.407 103.445 139.317 105.862 140.883 106.648C141.467 106.939 142.728 107.649 143.037 108.142C143.347 108.636 142.292 112.342 141.886 112.865C141.592 113.241 140.967 113.037 140.579 113.341C139.518 114.169 138.718 118.901 138.098 120.395C137.2 122.558 135.245 125.023 134.14 127.263C132.165 131.263 130.418 135.367 128.706 139.474C122.176 139.143 115.652 137.322 109.431 135.43C99.6974 132.471 90.5153 129.704 80.3106 128.794C78.3702 128.623 76.4059 128.32 74.4091 128.281C74.9226 119.607 78.6899 111.733 81.5361 103.64C81.914 103.216 85.3657 103.58 83.1291 102.345C85.2509 100.447 85.9058 97.6008 87.2774 95.3074C88.4554 93.339 88.9265 92.4703 91.3492 93.5858L91.3388 93.59ZM89.054 100.581C91.114 101.294 94.2136 102.427 96.3187 101.492C97.703 100.877 96.6952 99.6106 95.6934 99.2188C94.3607 98.6984 87.9319 98.6523 89.0536 100.586L89.054 100.581ZM105.175 101.358C102.798 101.186 98.8436 102.882 98.7541 105.405C98.68 107.453 101.143 111.037 103.142 111.529C104.653 111.899 108.064 111.567 109.01 110.307C109.351 109.849 109.653 106.37 109.572 105.665C109.549 105.467 108.548 102.535 108.423 102.408C108.061 102.051 105.82 101.403 105.175 101.358ZM122.225 104.57C121.792 103.92 119.526 102.863 118.681 102.751C113.266 102.013 111.724 107.656 115.477 110.859C117.622 112.694 119.621 112.583 121.61 110.658C122.99 109.325 123.245 106.103 122.225 104.565L122.225 104.57ZM95.1655 104.642C92.8981 103.65 86.0303 101.739 87.5085 106.033C88.0655 106.161 87.7611 105.487 88.3607 105.292C90.1799 104.704 92.7636 106.878 95.0832 105.961L95.166 104.637L95.1655 104.642ZM131.389 108.078C130.816 107.718 129.72 107.428 129.26 108.112C128.993 110.068 126.17 113.704 126.538 115.392C126.694 116.103 128.043 116.957 128.601 116.306C129.276 115.52 131.775 108.794 131.389 108.078ZM132.311 117.768C134.178 116.441 136.663 111.586 136.782 109.361C136.864 107.812 135.12 107.693 134.393 108.379C134.191 108.573 132.093 112.718 131.874 113.286C131.422 114.468 131.48 115.959 130.734 117.171C131.069 118.008 131.535 118.319 132.311 117.768ZM93.8813 111.804C95.2451 110.132 88.7899 108.628 87.7978 108.533C86.9351 108.455 86.0175 108.843 85.1167 108.621C85.0246 109.17 84.9589 109.411 85.3727 109.863C86.1778 110.735 93.1794 112.668 93.8813 111.804ZM97.4538 117.411C96.8091 120.786 95.7599 123.719 98.9764 126.193C101.028 127.769 104.159 127.001 105.393 124.787C107.458 121.086 107.352 115.433 101.725 115.646C99.9757 115.713 99.0432 116.924 97.4538 117.411ZM90.6227 116.07C89.523 115.53 82.2389 114.08 82.009 115.185C81.6969 117.96 91.9888 118.497 90.6227 116.07ZM113.187 117.372C105.835 118.191 108.89 130.573 115.223 131.686C119.897 132.506 122.584 125.339 121.787 121.841C121.15 119.06 115.841 117.076 113.192 117.372L113.187 117.372ZM87.7884 123.848C86.2763 124.547 85.1436 122.979 83.8368 122.391C79.1899 120.307 80.4085 123.816 83.2462 124.485C83.7142 124.595 88.9652 125.193 87.7934 123.848L87.7884 123.848Z" fill="white"/>
<path d="M66.7207 149.9C59.8454 149.138 52.2131 145.525 47.3366 140.77C46.8867 140.33 46.0458 139.701 46.0928 139.032C47.3941 134.262 49.1506 129.637 50.7258 124.955C55.2587 111.463 60.3174 97.6984 71.384 87.7958C73.0095 83.9976 71.8638 79.3405 74.3369 75.9761C75.2232 77.0158 77.4904 77.6561 77.9798 78.8126C78.2178 79.3802 78.1387 80.1317 78.3833 80.7401C80.5037 86.0478 81.2688 88.0965 81.7747 93.7738C81.8822 94.9881 82.7283 96.8529 82.681 97.7025C82.5275 100.622 79.6157 103.296 78.3673 106.032C76.3852 110.357 70.1812 124.822 70.4 128.798C70.5971 132.38 70.1679 132.639 69.4403 136.102C68.4757 140.695 67.8045 145.383 66.7207 149.9Z" fill="white"/>
<path d="M140.649 138.338C140.565 138.436 140.231 138.463 140.032 138.672C139.58 139.145 139.679 139.987 138.475 140.025L139.23 127.395C141.813 121.801 146.531 115.213 146.882 108.861C147.072 105.392 143.212 104.044 140.554 102.682L147.257 81.4808C148.659 84.1362 150.825 87.0225 151.521 89.9391C152.147 92.5535 151.868 95.3617 152.279 98.023C152.685 100.624 155.27 110.274 154.952 111.939C154.835 112.537 154.081 113.07 153.872 113.756C151.546 121.466 146.025 132.108 140.644 138.337L140.649 138.338Z" fill="white"/>
<path d="M134.483 144.396C134.046 146.272 133.177 146.264 132.274 147.196C128.719 150.865 125.007 152.727 119.801 154.202C119.116 154.394 118.383 154.558 117.663 154.456C111.655 153.607 97.6724 146.253 93.4601 141.962C92.8267 141.316 90.4221 138.515 89.9696 137.869C89.253 136.843 88.611 135.001 88.0186 133.815L105.113 137.97C110.079 140.437 115.96 142.074 121.456 142.989C123.254 143.288 130.215 144.053 131.361 143.111C133.306 141.519 133.605 136.473 135.644 134.904C135.825 135.427 135.204 135.881 135.186 136.086C134.978 138.533 135 142.156 134.478 144.396L134.483 144.396Z" fill="white"/>
<path d="M137.618 154.254C137.978 153.03 137.599 151.35 137.778 150.246C138.197 147.7 147.247 137.279 149.311 134.001C151.712 130.183 153.308 125.9 155.526 122.113C155.719 121.788 155.83 121.32 156.332 121.328C156.785 123.731 157.26 126.177 157.479 128.616C157.548 129.395 157.3 130.183 157.364 130.962C157.95 137.77 158.885 144.715 158.282 151.492C157.759 152.326 154.322 152.606 153.207 152.902C152.61 153.062 152.126 153.498 151.517 153.627C146.947 154.588 142.285 154.567 137.617 154.259L137.618 154.254Z" fill="white"/>
<path d="M132.338 84.7487C129.94 88.9429 129.514 93.8176 127.924 98.3218C123.781 96.5173 119.475 95.1558 115.057 94.0911C110.64 93.0265 105.01 91.8082 100.54 91.1207C98.9877 90.8828 92.8529 90.8065 92.2166 89.9589C92.3041 87.8724 89.7673 85.2658 89.4135 83.6991C89.1735 82.6241 91.0034 83.6187 91.4611 83.6728C100.122 84.7128 111.026 86.4361 119.711 86.4888C124.126 86.5189 128.081 85.4652 132.338 84.7487Z" fill="white"/>
<path d="M158.431 155.708C158.624 155.86 158.843 159.423 158.829 160.055C158.776 162.913 158.445 168.865 157.852 171.511C157.747 171.979 157.689 172.416 157.228 172.698C156.019 173.439 142.744 172.648 140.582 172.303C139.923 172.196 139.279 172.081 138.706 171.731L138.595 170.376C137.865 171.694 137.23 171.354 135.813 171.183L136.826 163.602L137.337 165.92L141.007 167.077L141.562 166.346C141.084 165.115 142.203 164.492 142.319 163.191C142.528 160.854 139.614 159.963 137.958 161.283C137.263 161.841 137.527 162.517 136.915 162.555L137.388 157.016C142.621 157.347 148.602 158.113 153.744 156.925C154.769 156.686 157.71 155.139 158.431 155.708ZM149.387 161.635C144.826 164.671 153.29 171.674 152.712 163.42C152.575 161.49 151.177 160.442 149.387 161.635Z" fill="white"/>
<path d="M139.475 36.4129C140.138 36.8962 141.312 37.157 142.085 37.5192L142.758 41.0013C139.742 39.1271 137.61 37.1326 134.279 35.6483C120.491 29.4962 112.37 31.7814 98.4147 31.3042C93.0328 31.1214 87.6646 29.5991 82.3517 30.788L87.1943 26.0389C99.6298 21.7114 112.278 25.9637 124.319 29.5666C131.989 31.8577 132.847 31.5793 139.48 36.4183L139.475 36.4129Z" fill="white"/>
<path d="M48.6274 155.036L49.1404 155.09C53.2705 158.932 59.114 160.892 64.6114 162.019L63.3851 172.685L53.7445 173.174C52.8781 169.956 52.4278 171.289 50.4042 170.855C47.5614 170.246 41.2363 167.452 39.8026 164.934C39.1253 163.742 40.5311 163.169 41.1809 161.914C42.2218 159.903 43.0044 156.796 43.5981 154.608L47.2311 156.323C48.0008 156.314 48.4826 155.732 48.6274 155.036ZM44.0826 158.591C42.0067 159.95 43.5274 163.746 45.9037 164.109C51.5397 164.966 47.9468 156.063 44.0826 158.591ZM53.902 163.902C51.5248 164.257 53.9673 169.677 56.131 168.762C57.2568 167.819 57.9517 165.799 56.5708 164.843C56.2103 164.591 54.3042 163.841 53.902 163.902Z" fill="white"/>
<path d="M158.409 70.3352C159.363 71.1648 160.204 74.6813 160.385 75.9772C161.377 83.0818 160.126 89.026 159.562 95.9376L157.329 103.269C155.825 97.03 155.96 90.5035 152.816 84.7067C151.913 83.0379 150.58 81.6287 149.591 79.9124C148.939 78.7772 148.861 76.9779 147.495 76.6153C149.979 74.3666 151.528 71.4657 152.58 68.3819C152.799 68.2249 155.021 68.5098 155.5 68.6711C155.661 68.725 158.282 70.224 158.409 70.3352Z" fill="white"/>
<path d="M49.1004 174.299L50.0202 176.773C49.1649 176.725 47.9757 176.704 47.2806 177.252C46.3752 177.968 43.5904 182.396 42.6427 183.726C41.0383 185.979 39.4406 188.449 37.9278 190.866L32.9615 196.594C33.3308 192.146 35.9235 186.377 38.2582 182.513C39.2289 180.914 43.9263 175.746 43.674 174.343C40.7068 171.303 38.409 176.797 36.6293 178.749C31.8331 184.014 25.3977 187.934 19.771 192.33C20.3793 190.62 21.6066 188.957 22.649 187.459C25.9931 182.662 30.4717 177.114 34.5062 172.883C35.8749 171.449 37.7786 170.988 37.359 168.366L35.922 168.244L36.53 167.598C40.0382 170.835 44.322 173.404 49.1009 174.294L49.1004 174.299Z" fill="white"/>
<path d="M159.591 186.668C161.284 189.324 161.44 189.794 159.59 192.684C153.925 193.647 153.864 184.402 151.589 182.667C150.712 181.999 147.335 181.757 146.572 182.922C145.971 183.845 146.132 186.018 144.986 186.613C144.984 180.04 140.302 178.013 136.294 183.702C135.505 184.82 135.462 185.735 134.946 186.721C134.736 187.12 134.437 187.561 134.101 187.081L135.671 172.918C136.445 173.261 136.224 174.146 136.759 174.769C137.572 175.722 142.4 176.867 143.85 177.066C146.066 177.365 150.027 177.356 152.401 177.333C153.331 177.327 154.866 176.539 155.103 177.588C155.314 178.53 154.771 179.539 155.159 180.767C155.602 182.17 158.536 185.012 159.596 186.669L159.591 186.668Z" fill="white"/>
<path d="M137.151 28.3166C137.341 28.5638 137.279 29.1059 136.618 28.9089C135.392 28.5483 133.576 27.2184 132.262 26.7096C121.698 22.5899 110.564 19.4912 99.0437 19.8645C97.5316 19.9163 95.9786 20.6827 94.4523 20.3115C95.3496 19.9261 96.1846 19.0332 96.9954 18.6604C111.228 12.0558 126.164 17.0103 136.292 27.8969C136.55 28.175 137.11 28.2679 137.151 28.3166Z" fill="white"/>
<path d="M145.88 78.5824L136.713 101.15L131.998 99.754C132.163 93.9232 134.506 88.3131 137.033 83.0804L145.885 78.5828L145.88 78.5824Z" fill="white"/>
<path d="M66.5004 153.07L65.7623 157.542C57.1855 157.107 51.1713 151.904 44.9497 146.894L45.2913 143.242C45.8391 142.712 49.7736 146.843 50.3977 147.303C53.2298 149.393 61.727 152.824 65.2658 153.287C65.7626 153.354 66.0599 153.169 66.4959 153.065L66.5004 153.07Z" fill="white"/>
<path d="M89.6105 89.8169C87.6173 89.6168 86.8256 90.9452 85.4619 91.9085L81.3773 80.4025C81.8191 80.1138 84.2634 81.6831 84.8609 81.9248C85.3126 82.109 85.8624 81.8496 86.3154 82.0187C87.9264 82.6332 88.2977 88.2387 89.6159 89.8123L89.6105 89.8169Z" fill="white"/>
<path d="M53.4323 178.187C53.6622 178.673 53.583 182.076 53.4976 182.842C53.1652 185.797 51.907 189.295 49.6784 191.384C47.602 186.738 51.1719 181.886 51.4272 177.243L53.4323 178.187Z" fill="white"/>
<path d="M177.546 182.073C177.58 182.683 176.705 182.327 176.27 182.31C170.272 182.04 164.793 178.394 158.977 177.351L158.856 176.647C159.908 176.632 160.423 175.837 160.953 175.109L177.551 182.073L177.546 182.073Z" fill="white"/>
<path d="M32.9046 169.739L30.0978 171.654L19.727 175.931L21.8909 174.424L32.9046 169.739Z" fill="white"/>
<path d="M156.273 177.12L155.559 177.06L155.53 177.399L156.244 177.459L156.273 177.12Z" fill="white"/>
<path d="M158.483 176.611L158.134 176.581L158.075 177.269L158.424 177.299L158.483 176.611Z" fill="white"/>
<path d="M113.187 117.372C115.841 117.076 121.149 119.066 121.782 121.841C122.584 125.339 119.892 132.506 115.218 131.686C108.885 130.573 105.835 118.191 113.182 117.372L113.187 117.372ZM113.936 121.262C111.118 121.831 114.591 127.314 116.544 126.155C116.999 125.882 117.748 122.758 117.411 122.176C117.043 121.538 114.698 121.112 113.935 121.267L113.936 121.262Z" fill="black"/>
<path d="M97.4527 117.411C99.0421 116.923 99.9697 115.712 101.724 115.646C107.351 115.433 107.457 121.086 105.392 124.786C104.158 127.001 101.027 127.768 98.9754 126.192C95.7539 123.718 96.8081 120.785 97.4527 117.411ZM102.761 121.343C102.658 121.134 100.393 119.76 100.051 120.007C99.5286 121.414 99.7676 122.619 101.065 123.554C102.013 123.514 103.181 122.197 102.761 121.343Z" fill="black"/>
<path d="M105.175 101.359C105.819 101.404 108.06 102.052 108.422 102.409C108.547 102.53 109.553 105.468 109.571 105.665C109.647 106.375 109.35 109.849 109.01 110.308C108.063 111.573 104.657 111.905 103.141 111.529C101.143 111.038 98.6843 107.454 98.7534 105.406C98.8429 102.882 102.797 101.181 105.175 101.359ZM102.008 105.904C100.25 108.009 108.737 111.499 104.917 105.61L102.008 105.904Z" fill="black"/>
<path d="M122.224 104.569C123.244 106.107 122.99 109.325 121.609 110.663C119.621 112.587 117.622 112.693 115.476 110.863C111.728 107.661 113.266 102.013 118.68 102.756C119.524 102.873 121.791 103.93 122.224 104.574L122.224 104.569ZM119.273 106C117.64 104.821 114.639 107.242 117.651 108.458C119.526 109.215 119.746 106.341 119.273 106Z" fill="black"/>
<path d="M132.311 117.768C131.535 118.32 131.069 118.009 130.734 117.172C131.48 115.96 131.427 114.464 131.874 113.287C132.088 112.718 134.191 108.573 134.393 108.38C135.12 107.694 136.864 107.812 136.782 109.362C136.663 111.586 134.178 116.441 132.311 117.768Z" fill="black"/>
<path d="M131.388 108.078C131.774 108.794 129.276 115.521 128.601 116.307C128.048 116.957 126.694 116.099 126.538 115.393C126.17 113.699 128.987 110.068 129.259 108.113C129.72 107.429 130.816 107.718 131.388 108.078Z" fill="black"/>
<path d="M93.8809 111.804C93.179 112.668 86.1773 110.735 85.3722 109.863C84.958 109.416 85.0237 109.176 85.1163 108.621C86.0215 108.849 86.9346 108.455 87.7974 108.533C88.7948 108.623 95.245 110.128 93.8809 111.804Z" fill="black"/>
<path d="M89.0534 100.581C87.9317 98.6478 94.3651 98.6993 95.6932 99.2143C96.6951 99.6061 97.7028 100.872 96.3185 101.487C94.213 102.427 91.1134 101.294 89.0538 100.576L89.0534 100.581Z" fill="black"/>
<path d="M90.6226 116.07C91.9887 118.496 81.6968 117.96 82.0088 115.185C82.2392 114.075 89.5229 115.529 90.6226 116.07Z" fill="black"/>
<path d="M95.165 104.642L95.0823 105.966C92.7631 106.878 90.1793 104.704 88.3597 105.297C87.7602 105.492 88.0645 106.166 87.5076 106.038C86.0294 101.744 92.8972 103.655 95.1646 104.647L95.165 104.642Z" fill="black"/>
<path d="M87.789 123.848C88.9608 125.193 83.7099 124.594 83.2418 124.484C80.4041 123.815 79.1906 120.307 83.8325 122.39C85.1392 122.979 86.272 124.547 87.784 123.847L87.789 123.848Z" fill="black"/>
<path d="M149.387 161.634C151.177 160.441 152.576 161.484 152.712 163.419C153.29 171.673 144.826 164.67 149.387 161.634Z" fill="black"/>
<path d="M44.0827 158.59C47.9469 156.062 51.5447 164.966 45.9038 164.108C43.5225 163.745 42.0018 159.949 44.0827 158.59Z" fill="black"/>
<path d="M53.9021 163.901C54.2994 163.84 56.205 164.595 56.5709 164.842C57.9518 165.798 57.2569 167.818 56.1311 168.762C53.9674 169.677 51.5249 164.256 53.9021 163.901Z" fill="black"/>
<path d="M113.935 121.263C114.698 121.107 117.044 121.528 117.411 122.172C117.743 122.757 116.999 125.878 116.544 126.15C114.59 127.314 111.118 121.831 113.936 121.258L113.935 121.263Z" fill="white"/>
<path d="M102.762 121.343C103.182 122.193 102.014 123.514 101.066 123.554C99.7682 122.62 99.5293 121.414 100.051 120.007C100.394 119.765 102.659 121.139 102.762 121.343Z" fill="white"/>
<path d="M102.008 105.903L104.918 105.609C108.737 111.499 100.251 108.003 102.008 105.903Z" fill="white"/>
<path d="M119.273 106C119.746 106.342 119.531 109.221 117.651 108.458C114.64 107.237 117.64 104.816 119.273 106Z" fill="white"/>
<path d="M129.843 46.0059C129.048 48.0773 128.389 49.9694 127.342 51.9389C125.73 54.985 123.538 58.77 120.9 61.2316C118.273 63.689 112.025 67.0126 108.378 66.9928C103.068 66.9618 95.9897 64.5755 91.7433 61.3913C88.8995 59.2607 82.772 51.9692 82.3766 48.5912C82.339 48.2666 82.4219 47.9423 82.4491 47.6232C83.5366 46.7167 85.8474 50.7351 86.371 51.3723C91.9498 58.145 100.592 64.3001 110.283 60.8031C110.702 60.6531 113.242 59.6344 113.357 59.5187C113.511 59.3661 113.405 58.9001 113.523 58.8148C113.716 58.6756 114.184 58.9013 114.412 58.8203C115.34 58.4877 120.53 53.3213 121.116 52.2164C121.446 51.5967 121.397 50.9297 121.591 50.5998C122.049 49.8304 122.95 49.0386 123.284 48.0678L129.838 46.0005L129.843 46.0059Z" fill="black"/>
<path d="M115.258 43.9945C115.577 44.3882 116.124 47.754 116.081 48.3681C115.982 49.9414 114.823 51.8712 113.371 50.1003C112.128 48.5833 112.964 45.4961 112.847 43.6884C113.241 43.25 114.885 43.5358 115.258 43.9945Z" fill="black"/>
<path d="M98.2513 49.192C98.2972 49.3014 99.0921 49.2336 98.5565 49.8557C97.3742 51.2262 95.9467 49.1662 95.5987 48.0619C95.1311 46.5909 94.8376 41.6649 97.5033 43.1125C99.8139 44.364 97.9255 48.416 98.2513 49.192Z" fill="black"/>
</svg>
