<svg width="95" height="151" viewBox="0 0 95 151" fill="none" xmlns="http://www.w3.org/2000/svg">
<path d="M81.1819 27.308L82.7949 24.0953C84.2212 21.4026 88.4336 15.1906 92.0462 17.91C93.8591 19.2697 93.3126 25.1218 93.086 27.2013C91.9529 37.4658 88.5669 49.2232 79.3556 54.8353C76.6495 56.475 73.5169 57.928 70.6108 59.1544C70.3042 60.2475 72.1039 64.8065 72.5971 66.1395C75.6231 74.3111 78.4891 81.043 79.9022 89.8544C81.9017 102.292 79.4622 118.955 72.5971 129.686C71.5173 131.379 69.7444 132.592 68.6246 134.271C68.9179 138.351 72.1572 141.936 69.0378 145.682C65.372 150.068 59.1467 149.122 54.1078 149.175C51.7483 149.201 49.6154 149.428 47.1893 149.348C46.4294 149.321 45.9495 148.708 45.3363 149.401C44.7365 148.882 43.0835 148.695 42.0437 148.428C39.4309 147.775 36.1383 147.309 33.6589 146.029C29.953 144.109 30.8062 142.71 31.0594 139.137C31.4194 133.965 31.8859 129.446 34.1121 124.647C34.6053 123.567 35.4985 123.1 35.3518 121.647C35.2985 121.048 34.7786 119.275 34.5787 118.581C33.4456 114.676 30.9395 108.97 28.7133 105.558C28.4733 105.184 28.2467 104.558 27.7268 104.638C27.4335 106.944 25.4606 109.623 23.5277 110.89C17.2624 115.009 6.83803 110.037 3.63872 103.878C0.746015 98.3059 0.372763 91.654 4.34523 86.5218L3.67871 85.9619C5.70494 86.0952 5.425 83.4024 6.30481 82.8026C7.18462 82.2027 10.4372 80.4031 11.4237 80.3764C13.6765 80.3231 18.1689 80.683 20.2618 81.3895C23.2211 82.3893 25.6606 85.7619 26.7537 88.6013C27.1803 89.7077 27.8735 93.4403 28.2867 94.0401C28.42 94.2268 29.913 95.0799 30.3396 95.4798C34.3121 99.2257 37.2714 103.931 39.5109 108.89L41.3105 114.729C42.017 113.929 42.4703 112.863 43.1235 112.05C44.1099 110.836 45.6029 108.824 47.2559 109.104C46.8427 106.624 47.0959 104.078 47.0426 101.559C46.8427 92.1206 45.9229 83.8823 43.83 74.6577C43.75 74.2844 43.55 73.3246 43.2168 73.138C42.5103 75.2042 41.6705 77.3104 40.0708 78.8701C34.5653 84.2556 29.8197 84.8955 22.7946 81.7628C18.3822 79.7899 14.5697 77.1771 12.0236 72.978C7.19795 65.0198 5.02509 59.6876 8.15774 50.303C9.5841 46.0106 10.7972 41.4116 13.7965 37.959C25.2474 24.7085 40.5374 33.2667 45.4696 47.3836C47.1626 52.2225 46.5627 55.5552 46.3628 60.4341C46.2695 62.6869 47.5092 63.1535 48.5623 64.9665C53.0147 72.6181 54.5343 81.7761 56.0007 90.3476C56.6539 94.1601 57.4404 98.4392 57.8136 102.252C58.0802 104.918 58.1735 107.677 57.1604 110.197C58.8667 111.156 60.0531 112.876 60.9996 114.569L63.6524 121.234C64.3455 118.621 64.9587 115.942 65.2253 113.249C66.905 96.3063 61.3462 78.7768 60.2664 62.0071C55.3208 55.5285 50.8551 46.6371 50.2019 38.3589C50.0153 36.0927 50.6952 29.7074 53.6545 29.4942C56.4406 29.2942 57.0938 32.4668 58.7068 33.9998C58.6934 31.2671 57.827 28.4677 57.587 25.7883C57.1871 21.3626 56.9072 11.818 59.6132 8.25877C61.0129 6.41917 64.2922 5.09945 66.2118 6.80575C68.5446 8.8853 68.4247 16.377 68.9179 19.3764L70.4375 11.898C71.5306 8.60536 72.6104 5.60601 75.0899 3.07323C77.1961 0.913695 80.0755 0.540443 81.6484 3.48647C83.7413 7.40562 82.6216 16.9769 82.035 21.4826C81.7817 23.3888 81.2752 25.3084 81.1685 27.2413L81.1819 27.308ZM86.0208 40.2518C88.1004 35.7461 91.1397 25.695 90.4599 20.8294C90.4065 20.4694 90.4332 20.0562 90.1666 19.7763C89.5401 19.283 86.8873 22.4557 86.4607 23.0556C83.3947 27.4279 78.7424 39.532 77.0095 44.8375C76.6362 45.9839 76.3429 50.8762 74.3567 49.7564C72.6237 48.7833 73.2369 46.6638 73.6902 45.1041C75.1965 39.8519 77.2761 35.0796 78.4091 29.6008C79.5156 24.3086 82.1683 9.43185 80.0888 4.8995C79.209 2.99324 78.1825 3.12655 76.7562 4.45959C69.931 10.8049 70.0776 35.7461 69.851 44.9175C69.8377 45.6506 69.771 48.4367 68.7046 48.3701C66.9183 47.6769 66.785 44.8908 66.8117 43.1978C66.905 36.8259 67.6781 30.4006 67.4782 24.0687C67.3715 20.8294 66.9983 11.938 65.9052 9.21856C64.7454 6.33918 61.7594 8.15212 60.8663 10.2583C58.8801 14.9373 59.8398 23.9487 60.533 28.9743C61.4795 35.9061 63.0791 42.7846 64.0789 49.7164C63.8923 53.5556 62.0127 53.1823 60.9063 49.943C59.2666 45.1574 59.7732 39.7319 57.2137 34.973C55.5208 31.8137 53.4012 28.5344 52.4681 34.4531C51.5217 40.4251 56.5339 51.6094 59.9465 56.515C62.0927 59.581 63.3591 59.9675 64.0656 64.0866C65.9452 75.1642 68.2647 88.9479 68.5979 100.025C68.8379 107.944 68.2913 116.209 64.3722 123.22L67.2516 130.712C67.9448 131.165 68.5446 129.552 68.7979 129.259C73.5435 123.874 75.7031 115.889 76.8628 108.77C79.249 94.0135 75.4231 82.2827 70.5442 68.6323C69.7044 66.2995 68.4113 63.8467 67.9714 61.3139C67.7181 59.9275 67.7581 58.3146 67.9181 56.9282C69.651 55.6218 71.7306 54.902 73.5969 53.7955C75.4631 52.6891 78.4758 50.7962 80.0088 49.4232C82.7549 46.9837 84.5278 43.4378 86.0075 40.2518H86.0208ZM37.0581 38.4122C31.1661 33.0401 24.9408 33.7732 18.3022 37.5457C16.5159 38.5722 15.4095 40.9317 14.4897 42.7313C10.224 51.0761 6.79803 58.8078 11.8769 67.7658C14.743 72.8181 25.0607 81.0829 31.0061 81.2296C32.9524 81.2829 36.165 79.2833 37.5114 77.897C39.8175 75.5108 43.79 66.4195 43.8833 63.1269C43.91 62.3537 43.2968 61.4605 43.4701 60.954C43.59 60.5807 44.2299 60.6474 44.3499 60.0209C44.4699 59.3943 44.5365 57.2481 44.5498 56.4483C44.7098 50.0364 41.8837 42.8113 37.0581 38.4255V38.4122ZM55.3075 114.489C54.681 114.849 53.6945 113.902 53.5479 113.289C54.0944 110.53 55.0142 108.33 54.8943 105.438C54.641 99.319 52.788 90.9741 51.7749 84.7222C50.9751 79.8032 50.4552 75.4842 48.7089 70.7119C48.469 70.0587 46.3361 64.8731 46.0162 64.8598L44.3099 70.5786C45.7496 73.018 46.6294 75.6041 47.3759 78.3369C49.7087 86.9617 50.9884 98.2259 50.4152 107.237C50.3752 107.97 50.042 110.77 49.6287 111.17C45.7229 112.809 43.4834 116.822 41.5505 120.394C40.7107 121.021 40.1508 119.994 39.6309 120.248C37.6713 121.221 38.8177 123.914 37.4047 124.3C37.1914 124.354 36.8315 124.14 36.7382 124.207C36.5782 124.327 35.3385 127.486 35.1919 127.966C34.8853 128.979 34.712 130.046 34.4854 131.072C34.2187 134.911 33.5256 138.79 33.6722 142.616C33.8322 142.91 35.5784 143.563 35.9784 143.683C43.2701 145.882 48.5623 145.616 55.9074 145.522C57.6003 145.496 59.5866 145.829 61.2795 145.736C63.4257 145.616 68.2514 144.149 67.9181 141.39C67.8648 140.91 67.4515 140.297 67.3049 139.737C65.4253 131.845 62.9458 124.434 59.7065 116.982C59.1867 115.782 57.8136 113.169 56.5472 112.729C56.2006 112.609 55.5874 114.182 55.2942 114.462L55.3075 114.489ZM23.741 106.731C24.7675 105.584 25.2074 104.904 25.5806 103.291C26.6204 98.6791 26.4738 94.9599 24.9541 90.4276C23.701 86.6951 21.8881 83.8024 17.7823 82.9892C16.7292 82.7892 12.6101 82.4693 11.6636 82.616C8.19773 83.1625 5.09174 88.428 4.11862 91.4674C1.63915 99.1724 7.73116 108.117 15.5295 109.517C19.102 110.157 21.3682 109.37 23.7543 106.731H23.741ZM28.6066 97.2128V100.479C28.6066 100.812 28.0468 101.585 28.3267 102.105C32.0859 106.397 34.9386 111.463 37.0315 116.782C37.3781 117.648 37.738 118.768 37.818 119.701C37.8846 119.768 39.2843 119.048 39.3376 118.968C39.391 118.888 39.8575 117.422 39.8575 117.342C39.8575 116.729 38.4978 114.742 38.1646 114.062C35.6318 108.637 33.5122 102.598 29.4864 98.0126C29.2332 97.7327 28.9399 97.3727 28.5933 97.2128H28.6066Z" fill="#EA128B"/>
<path d="M48.2428 150.748C47.8828 150.748 47.5229 150.748 47.1497 150.735C46.6964 150.722 46.3365 150.602 46.0699 150.509C46.0032 150.482 45.9499 150.469 45.8833 150.455C46.0299 150.482 46.2965 150.415 46.3898 150.309L44.4169 150.442C44.1903 150.295 43.2038 150.095 42.684 149.989C42.3374 149.922 41.9908 149.855 41.6975 149.775C41.0443 149.615 40.3511 149.469 39.6446 149.309C37.4851 148.842 35.019 148.309 33.0061 147.269C29.2069 145.296 29.2069 143.417 29.5135 140.484C29.5668 140.044 29.6068 139.564 29.6468 139.031C30.0067 133.819 30.4999 129.087 32.8194 124.048C33.0327 123.581 33.286 123.221 33.4993 122.928C33.8859 122.381 33.9792 122.221 33.9392 121.781C33.9259 121.635 33.8325 121.088 33.206 118.969C32.1929 115.476 30.1134 110.731 28.2471 107.505C27.2873 109.424 25.7143 111.144 24.288 112.077C21.5685 113.863 17.956 114.29 14.1035 113.277C9.13125 111.984 4.4256 108.464 2.38605 104.532C-1.06654 97.8666 -0.759938 90.8148 3.22586 85.6693L3.30585 85.7226L3.75908 84.5629C3.99903 84.4562 4.19898 83.9097 4.2923 83.6031C4.53225 82.9099 4.79885 82.1367 5.49204 81.6435C5.87862 81.3769 9.74445 79.0174 11.3708 78.9774C12.4372 78.9508 14.0102 79.0174 15.6098 79.164C13.6369 77.591 12.0639 75.7914 10.8109 73.7252C6.14523 66.0336 3.35917 60.2215 6.81175 49.8771C6.99838 49.3172 7.17167 48.7706 7.3583 48.1974C8.62469 44.3049 9.93107 40.2792 12.7171 37.0532C17.5161 31.5077 23.5015 29.0949 29.5935 30.2547C36.9919 31.6677 43.7371 38.2129 46.7897 46.931C48.2827 51.2234 48.0961 54.4361 47.8828 58.1686C47.8428 58.9151 47.7895 59.6883 47.7629 60.5014C47.7229 61.5145 48.0161 61.8878 48.656 62.6876C49.0026 63.1142 49.3892 63.6074 49.7758 64.2739C54.3081 72.0589 55.8411 81.0969 57.3341 89.8417L57.6674 91.8013C58.2672 95.2539 58.8804 98.8131 59.2004 102.119C59.4403 104.572 59.547 107.158 58.8271 109.637C60.3735 110.837 61.4266 112.49 62.2131 113.877L62.293 114.05L63.2928 116.569C63.5061 115.463 63.6927 114.29 63.8127 113.13C64.8391 102.799 63.0795 92.0279 61.3866 81.6035C60.3601 75.3249 59.307 68.8329 58.8804 62.541C53.1484 54.916 49.3892 45.9579 48.7893 38.4929C48.6427 36.6399 48.9893 31.801 50.9755 29.4815C51.682 28.655 52.5751 28.1751 53.5483 28.1085C54.8813 28.0285 55.8678 28.4551 56.6409 29.0949C56.4543 28.0551 56.2677 27.002 56.1744 25.9489C55.8811 22.7096 55.1879 11.792 58.4805 7.44628C59.6269 5.93994 61.5732 4.84685 63.4395 4.67355C64.8791 4.52691 66.1589 4.92683 67.1453 5.79331C68.3051 6.81975 68.9583 8.67268 69.3582 10.7522C70.5046 7.40629 71.6643 4.62023 74.0905 2.12744C75.6235 0.554444 77.4897 -0.205391 79.2094 0.0478876C80.2891 0.207853 81.8088 0.821053 82.9019 2.87394C84.8881 6.59313 84.3682 14.1648 83.6351 20.1369C85.0081 18.3239 86.9277 16.4043 89.0872 15.9111C90.4336 15.6045 91.7533 15.8978 92.8731 16.7509C93.4996 17.2308 95.4325 18.6705 94.4727 27.322C92.8997 41.4922 88.0608 51.1435 80.0758 55.9957C77.903 57.3155 75.2635 58.6352 72.0243 60.0349C72.1842 60.7547 72.6375 62.2344 73.7039 65.0871L73.9038 65.6203C74.3438 66.8201 74.797 68.0065 75.2236 69.1529C77.703 75.7381 80.0492 81.9501 81.2756 89.5884C83.4751 103.265 80.3824 120.048 73.7705 130.393C73.1307 131.379 72.3309 132.193 71.5577 132.979C71.0111 133.526 70.4913 134.059 70.0647 134.619C70.198 135.618 70.5179 136.605 70.8512 137.658C71.7177 140.364 72.6908 143.43 70.1047 146.549C66.5854 150.762 61.2399 150.655 56.521 150.575C55.6945 150.562 54.8946 150.549 54.1081 150.549C53.1883 150.549 52.2952 150.602 51.4154 150.642C50.389 150.695 49.3225 150.735 48.2161 150.735L48.2428 150.748ZM45.9632 147.643C46.3898 147.643 46.7497 147.762 46.963 147.829C47.0563 147.856 47.203 147.909 47.243 147.909C48.656 147.949 49.9357 147.896 51.3088 147.829C52.2286 147.789 53.1484 147.749 54.0948 147.736C54.908 147.736 55.7345 147.736 56.5876 147.762C60.88 147.842 65.3057 147.936 67.9585 144.75C68.1318 144.536 68.2917 144.323 68.4117 144.11C68.4117 144.11 68.3984 144.123 68.385 144.137C66.7054 146.136 63.1728 147.043 61.3466 147.149C60.3201 147.203 59.2537 147.123 58.2006 147.043C57.3874 146.976 56.6143 146.923 55.9078 146.936L54.3081 146.963C47.7095 147.056 42.4973 147.136 35.5388 145.03C34.7523 144.79 32.8728 144.15 32.4062 143.297L32.2329 142.67C32.2196 142.297 32.2062 141.937 32.2062 141.564C32.0596 143.257 32.2729 143.71 34.2724 144.736C35.9521 145.603 38.1116 146.07 40.2045 146.523C40.951 146.683 41.6708 146.843 42.3507 147.016C42.604 147.083 42.9106 147.136 43.2172 147.203C43.9237 147.349 44.6435 147.496 45.2567 147.736C45.4834 147.656 45.7233 147.629 45.9233 147.629L45.9632 147.643ZM56.0677 144.123C56.8409 144.123 57.6407 144.19 58.4272 144.243C59.3737 144.31 60.3601 144.39 61.1999 144.337C62.6663 144.257 65.2924 143.457 66.2388 142.324C66.5321 141.977 66.5454 141.737 66.5188 141.564C66.5055 141.51 66.3988 141.284 66.3322 141.124C66.1855 140.817 66.0389 140.457 65.9322 140.071C64.0793 132.299 61.6132 124.927 58.4139 117.556C57.9207 116.423 57.2941 115.396 56.7876 114.743C56.6143 115.05 56.4676 115.29 56.2677 115.489L55.9877 115.703C55.4145 116.036 54.7347 116.063 54.0682 115.783C53.175 115.409 52.3752 114.503 52.1619 113.623V113.01C52.3219 112.184 52.5085 111.397 52.7085 110.624C53.1617 108.851 53.5483 107.331 53.4683 105.492C53.295 101.173 52.2685 95.5471 51.3621 90.5882C51.0022 88.602 50.6556 86.6957 50.3756 84.9361L50.069 83.0165C49.4025 78.8174 48.8426 75.1916 47.3763 71.1791C47.2296 70.7792 46.8031 69.7394 46.3365 68.6597L45.8166 70.4059C47.2963 73.0854 48.1361 75.8314 48.7226 77.9643C51.1621 86.9357 52.3619 98.4532 51.802 107.318C51.7487 108.238 51.482 111.304 50.5756 112.17L50.149 112.45C46.5898 113.943 44.4702 117.889 42.7639 121.048L42.364 121.515C41.3909 122.248 40.4711 121.995 39.9379 121.768C39.8046 121.981 39.7379 122.315 39.6446 122.888C39.5113 123.768 39.2714 125.234 37.7384 125.661C37.6717 125.674 37.6184 125.687 37.5517 125.701C37.1652 126.62 36.6053 128.073 36.512 128.367C36.3253 128.98 36.192 129.62 36.0587 130.3C35.9921 130.62 35.9254 130.953 35.8588 131.273C35.7655 132.552 35.6322 133.832 35.4989 135.125C35.2589 137.338 35.019 139.618 35.0456 141.817C35.4855 142.017 36.1121 142.257 36.3653 142.337C42.9106 144.31 47.6695 144.243 54.2681 144.15L55.8678 144.123C55.8678 144.123 55.9877 144.123 56.0411 144.123H56.0677ZM66.6921 132.006C66.892 132.699 67.1053 133.392 67.2919 134.099L67.4519 133.472C68.0784 132.539 68.8383 131.766 69.5715 131.033C70.278 130.326 70.9312 129.66 71.4111 128.913C77.6897 119.102 80.6091 103.119 78.5162 90.0683C77.3298 82.7099 75.1436 76.8979 72.6108 70.1793C72.5575 70.0593 72.5175 69.9394 72.4775 69.8061C77.3831 83.6697 80.5557 94.854 78.2762 108.984C76.7166 118.595 73.9705 125.527 69.8781 130.18C69.9047 130.166 69.8647 130.233 69.8114 130.326C69.4648 130.953 68.9316 131.899 67.9585 132.139C67.5319 132.246 67.092 132.193 66.7054 131.993L66.6921 132.006ZM65.9322 123.314L67.8252 128.233C71.5177 123.994 74.0238 117.542 75.4902 108.531C77.7563 94.494 74.3304 83.3365 69.2382 69.0862C68.9849 68.3664 68.6783 67.6199 68.3584 66.8734C67.6519 65.1671 66.932 63.4208 66.5988 61.5412C66.3588 60.1548 66.3322 58.4485 66.5321 56.7422L67.0787 55.7825C68.2384 54.9026 69.5048 54.2894 70.7312 53.6896C71.491 53.3163 72.2109 52.9697 72.8907 52.5565C73.5306 52.1832 74.2238 51.7567 74.917 51.3167C74.5037 51.3167 74.0771 51.1968 73.6772 50.9702C70.9712 49.4638 71.851 46.3712 72.3309 44.7182C72.9307 42.652 73.5972 40.6524 74.2638 38.7195C75.3435 35.5602 76.3567 32.5742 77.0365 29.2949C78.9428 20.1102 80.3158 8.73933 78.8228 5.46005C78.6761 5.14011 78.5562 4.96682 78.4895 4.88684C78.3695 4.95349 78.1163 5.10012 77.7297 5.46005C71.9176 10.8589 71.5044 32.8541 71.3311 42.2387C71.3177 43.2385 71.2911 44.1316 71.2778 44.9181C71.2244 47.2376 70.8778 48.504 70.1047 49.2105C69.6914 49.5838 69.1715 49.7704 68.625 49.7438L68.1984 49.6504C65.3457 48.5307 65.399 44.4782 65.4124 43.1452C65.4523 40.4924 65.6123 37.813 65.7589 35.2136C65.9722 31.5477 66.1989 27.7485 66.0789 24.0693C65.8389 16.7776 65.2924 11.4054 64.5992 9.69913C64.4392 9.29921 64.2526 9.08593 64.066 9.08593C63.5328 9.08593 62.573 9.83243 62.1731 10.7656C60.8267 13.9515 60.7467 19.9902 61.9331 28.7483C62.4263 32.3342 63.1062 35.9734 63.7594 39.506C64.3726 42.7719 64.9991 46.1445 65.479 49.4905V49.7571C65.3324 52.8897 64.1326 53.7029 63.1462 53.8495C62.453 53.9428 60.7467 53.7962 59.5736 50.3836C58.8538 48.2774 58.5205 46.0779 58.2139 43.945C57.774 40.9857 57.3608 38.1996 55.9744 35.6268C55.1479 34.0805 54.6014 33.294 54.2681 32.8941C54.1481 33.2273 54.0015 33.7739 53.8549 34.6537C53.0151 39.9459 57.5874 50.6502 61.0933 55.6891C61.6398 56.4623 62.1331 57.0755 62.5596 57.6087C63.8394 59.195 64.8525 60.4348 65.439 63.834C67.212 74.2718 69.6381 88.562 69.9847 99.9595C70.198 106.865 69.9047 115.716 65.8923 123.301L65.9322 123.314ZM35.2989 116.236C35.5255 116.903 35.7388 117.556 35.9254 118.182C36.4586 119.995 36.6986 120.982 36.7519 121.502C36.8052 121.995 36.7652 122.421 36.6853 122.795C36.7386 122.795 36.7919 122.795 36.8452 122.795C36.8586 122.688 36.8852 122.568 36.8985 122.461C36.9652 122.021 37.0585 121.435 37.2985 120.848L36.8186 120.662L36.4453 119.809C36.4053 119.382 36.2587 118.595 35.7521 117.289C35.6188 116.929 35.4722 116.583 35.3256 116.236H35.2989ZM63.1862 121.741C63.2395 121.888 63.2928 122.021 63.3461 122.168C63.4261 122.021 63.5061 121.875 63.5861 121.715L63.1862 121.741ZM40.5244 115.29C41.0443 116.209 41.2843 116.796 41.2843 117.356C41.2843 117.529 41.1776 117.942 41.031 118.396C42.6973 115.37 44.9501 111.837 48.5627 110.091C48.7493 109.411 48.9626 107.918 49.0026 107.145C49.5225 98.9464 48.4827 88.402 46.3232 79.8972C47.6162 86.949 48.2827 93.8275 48.4427 101.573C48.456 102.372 48.4427 103.185 48.4427 103.985C48.416 105.705 48.3894 107.331 48.656 108.904L47.0297 110.517C46.2698 110.411 45.0168 111.957 44.4169 112.717L44.217 112.957C43.977 113.263 43.7371 113.637 43.4971 114.05C43.1639 114.596 42.8173 115.17 42.364 115.689L40.5244 115.29ZM33.9925 101.946C35.4989 104.545 36.7119 107.291 37.8983 109.984C38.3916 111.104 38.8715 112.21 39.378 113.29L38.1783 109.411C36.9252 106.651 35.5255 104.159 33.9925 101.946ZM52.0419 77.6977C52.3485 79.3107 52.6018 80.9237 52.8684 82.5766L53.175 84.4829C53.455 86.2158 53.8015 88.1088 54.1615 90.0817C55.0813 95.1339 56.121 100.853 56.3077 105.372C56.401 107.625 55.9211 109.504 55.4545 111.317C55.4012 111.517 55.3612 111.704 55.3079 111.904C55.6145 111.584 55.9744 111.344 56.4276 111.33L55.8544 109.717C56.7476 107.465 56.6543 104.892 56.4143 102.426C56.0944 99.213 55.4945 95.7071 54.908 92.3079L54.5747 90.3349C53.8549 86.1225 53.135 81.8435 52.0553 77.6977H52.0419ZM29.4202 93.1743C29.5535 93.2676 29.7268 93.3743 29.9134 93.4943C30.5533 93.9075 31.0065 94.2008 31.2864 94.4674C35.0056 97.9733 38.2049 102.639 40.7777 108.318L40.8444 108.478L41.7775 111.49C41.8575 111.384 41.9375 111.277 42.0308 111.17L42.2174 110.944C43.0572 109.891 44.217 108.464 45.6966 107.904C45.59 106.558 45.6033 105.225 45.63 103.919C45.63 103.146 45.6566 102.372 45.63 101.612C45.4434 92.8944 44.6169 85.296 42.9639 77.3511C42.4573 78.2576 41.8441 79.1374 41.0576 79.8972C36.2454 84.6029 31.8197 86.0425 26.1142 84.4829C26.9674 85.696 27.6206 86.9623 28.0738 88.0954C28.3004 88.6686 28.527 89.6551 28.807 90.7748C28.9936 91.548 29.2602 92.6678 29.4335 93.1477L29.4202 93.1743ZM25.0611 107.385C24.9811 107.478 24.8878 107.585 24.7945 107.691C23.4748 109.158 22.1551 110.131 20.6887 110.664C21.4352 110.451 22.1284 110.144 22.755 109.731C23.6081 109.171 24.4213 108.318 25.0611 107.398V107.385ZM54.7347 49.8771C56.401 53.7429 58.6805 57.622 61.3999 61.1946L61.6798 61.9544C62.0798 68.2597 63.1462 74.8183 64.186 81.1769C65.7323 90.7082 67.3319 100.519 66.8654 110.184C67.2786 106.625 67.2919 103.146 67.1986 100.066C66.8654 88.8553 64.4526 74.6717 62.6929 64.3273C62.2397 61.6612 61.5865 60.8613 60.4134 59.4083C59.9469 58.8351 59.4137 58.1819 58.8138 57.3154C57.6407 55.6358 56.121 52.9431 54.7213 49.8771H54.7347ZM12.4239 83.9897C12.1839 83.9897 11.9973 83.9897 11.8773 84.0163C9.23789 84.4429 6.39851 88.9486 5.45205 91.9079C4.46559 94.9606 4.98548 98.5198 6.8784 101.666C8.93129 105.078 12.2506 107.505 15.7698 108.144C18.8225 108.691 20.6354 108.078 22.7016 105.798C23.6214 104.785 23.9147 104.319 24.208 102.986C25.1944 98.5865 25.0345 95.0673 23.6214 90.8815C22.2484 86.7891 20.5421 84.9761 17.5161 84.3762C16.6763 84.2163 13.7436 83.9897 12.4239 83.9897ZM29.7401 101.573C30.7799 102.786 31.753 104.065 32.6861 105.425C31.873 103.839 30.9932 102.306 29.9801 100.879C29.9267 101.093 29.8601 101.279 29.7934 101.466C29.7934 101.493 29.7668 101.546 29.7534 101.586L29.7401 101.573ZM27.1273 102.812C27.074 103.066 27.0207 103.332 26.9674 103.599C26.9407 103.692 26.9274 103.785 26.9007 103.879L27.4873 103.279C27.4206 103.199 27.3406 103.119 27.274 103.039L27.1273 102.826V102.812ZM27.5139 95.2672C27.5806 95.8138 27.6206 96.3736 27.6472 96.9202L28.8336 96.1337C28.6737 96.027 28.5137 95.9337 28.4071 95.8537C28.0071 95.6005 27.7272 95.4138 27.5273 95.2539L27.5139 95.2672ZM12.5172 71.0858C12.7438 71.4724 12.9837 71.8723 13.237 72.2855C15.3432 75.7514 18.5559 78.3642 23.3682 80.5104C24.8345 81.1636 26.1809 81.6435 27.4473 81.9368C22.2217 80.1238 15.9831 75.2182 12.5172 71.0858ZM27.8872 35.9601C25.2078 35.9601 22.2884 36.9066 18.9958 38.7861C17.7027 39.5193 16.7296 41.4389 15.9431 42.9852L15.7431 43.3851C11.2774 52.1166 8.47806 58.9418 13.0904 67.0867C15.9431 72.1256 25.8876 79.7106 31.0198 79.8306C32.3262 79.8306 35.2189 78.2176 36.472 76.9245C38.5649 74.7517 42.364 65.9669 42.4573 63.0875C42.4573 62.9676 42.3507 62.6476 42.284 62.4477C42.0974 61.9011 41.8841 61.2213 42.1107 60.5148C42.2974 59.9415 42.6973 59.6483 42.9772 59.475C43.0306 58.9684 43.0839 57.942 43.1239 56.409C43.2705 50.237 40.4444 43.4251 36.0987 39.4527C33.5393 37.1198 30.8599 35.9601 27.8872 35.9601ZM43.0439 70.8592C42.8039 71.4324 42.5507 71.9923 42.2974 72.5521L43.5371 72.0856C43.3905 71.819 43.2438 71.5524 43.0972 71.2857L43.0439 70.8592ZM69.2915 60.4881C69.3182 60.688 69.3448 60.8747 69.3715 61.0613C69.6514 62.6343 70.318 64.2473 70.9712 65.8069C71.0378 65.9669 71.1045 66.1269 71.1711 66.2868L71.1045 66.1002C70.0913 63.4208 69.5315 61.6745 69.3048 60.4881H69.2915ZM45.2034 62.3544C45.2567 62.6076 45.2967 62.8742 45.2834 63.1542C45.2834 63.4208 45.2434 63.7274 45.1901 64.0473L45.8033 63.5941C45.5633 63.2342 45.3501 62.8342 45.1901 62.3544H45.2034ZM44.9635 61.5545C44.9901 61.6478 45.0301 61.7545 45.0568 61.8611C45.0301 61.7545 45.0168 61.6345 45.0035 61.5145C44.9901 61.5145 44.9768 61.5412 44.9635 61.5545ZM69.2649 57.702C69.2249 58.1286 69.2115 58.5552 69.2115 58.9684C69.2115 58.9018 69.2382 58.8351 69.2515 58.7685L70.0647 57.8487C73.5839 56.369 76.3833 54.9826 78.6228 53.6229C85.8213 49.2372 90.207 40.2925 91.6867 27.042C91.8333 25.6823 91.9133 24.5492 91.9266 23.6028C91.58 29.3349 88.9006 37.3465 87.3009 40.839C85.7946 44.1183 83.9283 47.8508 80.969 50.4769C79.0761 52.1566 75.4102 54.3694 74.3304 55.0093C73.5573 55.4758 72.7441 55.8624 71.9709 56.249C71.0111 56.7156 70.0913 57.1688 69.2649 57.7154V57.702ZM58.6672 34.667C60.1335 37.5597 60.5734 40.5991 61.0133 43.5451C61.3199 45.638 61.6132 47.6242 62.253 49.4905C62.373 49.8504 62.5063 50.1437 62.613 50.3703C62.6396 50.197 62.653 50.0104 62.6663 49.7704C62.1997 46.5311 61.5732 43.2252 60.9867 40.0392C60.6267 38.093 60.2535 36.1201 59.9069 34.1205L58.6538 34.667H58.6672ZM89.1539 22.0964C88.554 22.723 87.9008 23.4695 87.6342 23.8561C84.6748 28.0685 80.0625 40.0792 78.3695 45.2781C78.3029 45.4914 78.2496 45.8379 78.1696 46.2645C77.9563 47.4776 77.6897 48.8773 77.1165 49.9037C77.903 49.3572 78.6095 48.824 79.116 48.3841C81.6755 46.1179 83.3685 42.7053 84.7682 39.6793C86.7677 35.3202 89.2872 26.7887 89.1805 22.1098L89.1539 22.0964ZM15.6365 38.053C15.3699 38.3329 15.1166 38.6128 14.85 38.9194C12.5838 41.5455 11.3708 45.0115 10.251 48.4374C11.1042 46.3578 12.1306 44.2516 13.2237 42.1054L13.4236 41.7188C14.0235 40.5458 14.7034 39.1994 15.6232 38.0663L15.6365 38.053ZM80.3025 27.362C80.1158 28.3751 79.9425 29.2282 79.7959 29.8814C79.0761 33.334 77.983 36.5466 76.9299 39.6393C76.29 41.5322 75.6235 43.4918 75.0503 45.478C74.637 46.931 74.4771 47.7842 74.7703 48.2508C75.0503 47.5709 75.2769 46.2912 75.3835 45.7313C75.4902 45.1581 75.5702 44.7182 75.6768 44.3716C76.9432 40.4924 79.6359 33.334 82.222 27.8552L80.2891 27.3353L80.3025 27.362ZM68.705 19.6836C68.7983 21.2699 68.8516 22.763 68.8916 24.0027C69.0116 27.8019 68.785 31.6677 68.5717 35.4002C68.425 37.973 68.2651 40.6257 68.2251 43.1985C68.2118 44.2916 68.2917 45.0781 68.4117 45.638C68.425 45.4247 68.4384 45.1714 68.4384 44.8915C68.465 44.0917 68.4784 43.1852 68.4917 42.1987C68.5983 36.2134 68.7716 27.4953 69.8781 19.6836L68.6916 19.657L68.705 19.6836ZM26.5675 32.8008C23.2082 32.8008 19.9956 34.1072 17.0629 36.6799C17.2362 36.56 17.4094 36.44 17.5961 36.3333C22.395 33.6006 26.7274 32.6408 30.6732 33.454C30.14 33.294 29.6068 33.1474 29.0602 33.0541C28.2204 32.8941 27.3806 32.8141 26.5541 32.8141L26.5675 32.8008Z" fill="#EA128B"/>
<path d="M86.0217 40.2526C84.5554 43.4386 82.7824 46.9845 80.023 49.424C78.4767 50.797 75.4507 52.7033 73.6111 53.7964C71.7715 54.8895 69.6653 55.6226 67.9323 56.929C67.759 58.3154 67.7324 59.9284 67.9856 61.3147C68.4389 63.8475 69.7319 66.287 70.5584 68.6331C75.4374 82.2835 79.2632 94.0143 76.877 108.771C75.7306 115.903 73.5578 123.874 68.8121 129.26C68.5589 129.553 67.959 131.166 67.2658 130.713L64.3864 123.221C68.3056 116.196 68.8521 107.945 68.6122 100.026C68.2789 88.9487 65.9728 75.1784 64.0798 64.0875C63.3733 59.955 62.1069 59.5818 59.9607 56.5158C56.5348 51.6102 51.5359 40.4259 52.4823 34.4539C53.4155 28.5352 55.5217 31.8278 57.228 34.9738C59.7874 39.7194 59.2809 45.1582 60.9205 49.9439C62.0269 53.1832 63.8932 53.5564 64.0932 49.7172C63.0934 42.7854 61.4937 35.9069 60.5473 28.9751C59.8541 23.9495 58.8943 14.9381 60.8805 10.2591C61.7737 8.15294 64.7597 6.32667 65.9194 9.21937C67.0125 11.9388 67.3858 20.8435 67.4924 24.0695C67.6924 30.4014 66.9192 36.84 66.8259 43.1987C66.7992 44.8783 66.9325 47.6644 68.7188 48.3709C69.7986 48.4375 69.8519 45.6648 69.8652 44.9183C70.0919 35.7469 69.9452 10.8057 76.7704 4.46041C78.1968 3.12736 79.2232 2.99406 80.103 4.90031C82.1826 9.43266 79.5165 24.3094 78.4234 29.6016C77.2903 35.0804 75.2107 39.8527 73.7044 45.1049C73.2512 46.6646 72.638 48.7841 74.3709 49.7572C76.3705 50.877 76.6504 45.9847 77.0237 44.8383C78.7566 39.5328 83.409 27.4288 86.475 23.0564C86.8882 22.4565 89.541 19.2839 90.1808 19.7771C90.4474 20.0703 90.4208 20.4703 90.4741 20.8302C91.154 25.6825 88.1146 35.7469 86.0351 40.2526H86.0217Z" fill="#EA128B"/>
<path d="M67.5189 132.192C67.159 132.192 66.8124 132.086 66.4924 131.886L65.9459 131.219L63.0665 123.727L63.1465 122.541C67.119 115.436 67.3989 106.798 67.1989 100.066C66.8657 88.8549 64.4529 74.6713 62.6932 64.3269C62.24 61.6608 61.5868 60.861 60.4137 59.408C59.9472 58.8347 59.414 58.1816 58.8141 57.3151C55.6814 52.8227 50.016 41.0653 51.0958 34.2268C51.4024 32.3205 51.9756 30.0943 53.7352 29.7877C55.6948 29.4545 57.0811 31.734 58.4675 34.3067C60.0805 37.3061 60.547 40.4787 61.0003 43.5447C61.3069 45.6376 61.6002 47.6238 62.24 49.4901C62.36 49.85 62.4933 50.1433 62.5999 50.3699C62.6266 50.1966 62.6399 50.01 62.6533 49.7701C62.1867 46.5308 61.5602 43.2248 60.9736 40.0388C60.3071 36.4796 59.6272 32.8004 59.1207 29.1479C57.841 19.7632 57.9743 13.3913 59.5606 9.68542C60.2671 8.03245 62.0667 6.28616 64.053 6.28616H64.0929C65.4793 6.29949 66.6124 7.16597 67.2123 8.65898C68.3187 11.4317 68.7453 19.4566 68.8919 23.989C69.0119 27.7882 68.7853 31.654 68.572 35.3865C68.4253 37.9593 68.2654 40.612 68.2254 43.1848C68.2121 44.2779 68.292 45.0644 68.412 45.6243C68.4253 45.411 68.4387 45.1577 68.4387 44.8778C68.4653 44.078 68.4787 43.1715 68.492 42.185C68.7053 30.8008 69.1052 9.60544 75.7971 3.39346C76.5436 2.70027 77.69 1.7938 79.0364 2.06041C80.4761 2.34035 81.1426 3.79337 81.3692 4.27326C83.7553 9.47214 80.756 25.1621 79.7829 29.8544C79.063 33.307 77.9699 36.5196 76.9168 39.6123C76.277 41.5052 75.6104 43.4648 75.0372 45.451C74.624 46.904 74.464 47.7572 74.7573 48.2237C75.0372 47.5439 75.2639 46.2641 75.3705 45.7043C75.4771 45.1311 75.5571 44.6912 75.6638 44.3446C77.4634 38.8391 82.1424 26.6951 85.3017 22.1894C85.3283 22.1494 87.9678 18.5368 89.7141 18.2702C90.194 18.2036 90.6472 18.3102 91.0204 18.6035L91.1937 18.7635C91.7136 19.3367 91.7803 20.0032 91.8203 20.4031V20.5764C92.6068 26.0819 89.1942 36.6262 87.2746 40.7853C85.7682 44.0646 83.902 47.7971 80.9426 50.4232C79.0497 52.1029 75.3838 54.3157 74.3041 54.9556C73.5309 55.4222 72.7177 55.8087 71.9446 56.1953C70.9848 56.6619 70.065 57.1151 69.2385 57.6617C69.1319 58.8881 69.1718 60.0611 69.3451 61.0209C69.6251 62.5939 70.2916 64.2069 70.9448 65.7666C71.2781 66.5531 71.598 67.3396 71.8646 68.0994C77.1035 82.7362 80.6227 94.2404 78.2499 108.931C76.6902 118.542 73.9441 125.474 69.8517 130.126C69.8784 130.113 69.8384 130.179 69.785 130.273C69.4385 130.899 68.9052 131.846 67.9321 132.086C67.7855 132.126 67.6388 132.139 67.4922 132.139L67.5189 132.192ZM65.9325 123.314L67.8255 128.233C71.518 123.994 74.0241 117.542 75.4905 108.531C77.7566 94.4937 74.3307 83.3361 69.2385 69.0859C68.9852 68.366 68.6786 67.6195 68.3587 66.873C67.6522 65.1667 66.9323 63.4204 66.5991 61.5408C66.3591 60.1545 66.3325 58.4482 66.5324 56.7419L67.079 55.7821C68.2387 54.9023 69.5051 54.2891 70.7315 53.6892C71.4913 53.3159 72.2112 52.9694 72.891 52.5561C73.5309 52.1829 74.2241 51.7563 74.9173 51.3164C74.504 51.3164 74.0774 51.1964 73.6775 50.9698C70.9715 49.4635 71.8513 46.3708 72.3312 44.7178C72.931 42.6516 73.5975 40.652 74.2641 38.7191C75.3438 35.5598 76.357 32.5738 77.0368 29.2945C78.9431 20.1098 80.3161 8.73896 78.8231 5.45967C78.6764 5.13974 78.5565 4.96645 78.4898 4.88646C78.3698 4.95312 78.1166 5.09975 77.73 5.45967C71.9179 10.8585 71.5047 32.8537 71.3314 42.2383C71.318 43.2381 71.2914 44.1313 71.2781 44.9178C71.2247 47.2373 70.8781 48.5037 70.105 49.2102C69.6917 49.5834 69.1718 49.77 68.6253 49.7434L68.1987 49.6501C65.346 48.5303 65.3993 44.4779 65.4127 43.1448C65.4527 40.4921 65.6126 37.8126 65.7593 35.2132C65.9725 31.5473 66.1992 27.7482 66.0792 24.069C65.8392 16.7772 65.2927 11.405 64.5995 9.69875C64.4395 9.29884 64.2529 9.08555 64.0663 9.08555C63.5331 9.08555 62.5733 9.83206 62.1734 10.7652C60.827 13.9512 60.747 19.9898 61.9334 28.7479C62.4266 32.3338 63.1065 35.973 63.7597 39.5056C64.3729 42.7716 64.9994 46.1442 65.4793 49.4901V49.7567C65.3327 52.8894 64.1329 53.7025 63.1465 53.8492C62.4533 53.9425 60.747 53.7958 59.5739 50.3832C58.8541 48.277 58.5208 46.0775 58.2142 43.9446C57.7743 40.9853 57.3611 38.1992 55.9747 35.6265C55.1482 34.0801 54.6017 33.2936 54.2684 32.8937C54.1484 33.227 54.0018 33.7735 53.8552 34.6533C53.0154 39.9455 57.5877 50.6499 61.0936 55.6888C61.6402 56.4619 62.1334 57.0751 62.5599 57.6083C63.8397 59.1947 64.8528 60.4344 65.4393 63.8337C67.2123 74.2714 69.6384 88.5616 69.985 99.9592C70.1983 106.864 69.905 115.716 65.8926 123.301L65.9325 123.314ZM89.1542 22.0961C88.5543 22.7226 87.9011 23.4691 87.6345 23.8557C84.6751 28.0681 80.0628 40.0788 78.3698 45.2777C78.3032 45.491 78.2499 45.8376 78.1699 46.2641C77.9566 47.4772 77.69 48.8769 77.1168 49.9034C77.9033 49.3568 78.6098 48.8236 79.1164 48.3837C81.6758 46.1175 83.3688 42.7049 84.7685 39.6789C86.768 35.3199 89.2875 26.7884 89.1808 22.1094L89.1542 22.0961Z" fill="#EA128B"/>
<path d="M37.0582 38.4121C41.8705 42.7979 44.6965 50.023 44.5499 56.4349C44.5366 57.2347 44.4699 59.3809 44.3499 60.0075C44.23 60.634 43.5901 60.5673 43.4701 60.9406C43.2968 61.4471 43.8967 62.3403 43.8834 63.1134C43.7901 66.3927 39.8176 75.4974 37.5114 77.8836C36.165 79.2699 32.9524 81.2695 31.0062 81.2162C25.0741 81.0695 14.743 72.8047 11.877 67.7524C6.79809 58.7944 10.2373 51.0627 14.4898 42.7179C15.4096 40.9316 16.5027 38.5588 18.3023 37.5323C24.9408 33.7598 31.1661 33.0266 37.0582 38.3988V38.4121ZM22.8479 47.0103C23.5011 47.6635 25.6607 48.7432 26.4738 48.2367C28.0735 47.2369 29.9531 43.2511 28.8466 41.5715C27.9002 40.1184 24.4209 39.1986 23.0879 40.5583C22.648 41.0116 22.8613 41.4781 22.6347 41.9047C22.4747 42.198 22.1548 42.3979 21.9681 42.8112C21.2883 44.3442 21.6882 45.8505 22.8346 47.0103H22.8479Z" fill="#EA128B"/>
<path d="M31.0596 82.6431C31.0596 82.6431 30.9929 82.6431 30.9662 82.6431C24.3277 82.4831 13.61 73.6983 10.6507 68.4728C5.35847 59.1415 8.69108 51.0099 13.2368 42.1052L13.4367 41.7186C14.3832 39.839 15.5696 37.5062 17.6091 36.3464C25.5807 31.8008 32.2593 32.1474 38.0047 37.3862C43.0036 41.9452 46.123 49.4369 45.9497 56.4887C45.8963 58.4883 45.8297 59.768 45.723 60.3012C45.6031 60.9278 45.2698 61.3144 44.9632 61.5676C45.1098 62.0075 45.2965 62.5674 45.2831 63.1806C45.1765 66.7798 41.124 76.1778 38.5113 78.8839C37.0049 80.4435 33.5124 82.6564 31.0596 82.6564V82.6431ZM27.8869 35.9599C25.2075 35.9599 22.2881 36.9063 18.9955 38.7859C17.7025 39.5191 16.7293 41.4387 15.9428 42.985L15.7429 43.3849C11.2772 52.1297 8.47779 58.9415 13.0901 67.0864C15.9428 72.1253 25.8873 79.7104 31.0196 79.8303C32.3259 79.8303 35.2187 78.2174 36.4717 76.9243C38.5646 74.7514 42.3638 65.9667 42.4571 63.0873C42.4571 62.9673 42.3504 62.6474 42.2838 62.4474C42.0972 61.9009 41.8839 61.221 42.1105 60.5145C42.2971 59.9413 42.697 59.648 42.977 59.4748C43.0303 58.9682 43.0836 57.9418 43.1236 56.4088C43.2702 50.2368 40.4442 43.4249 36.0985 39.4524C33.539 37.1196 30.8596 35.9599 27.8869 35.9599ZM25.9007 49.7835C24.221 49.7835 22.3414 48.4905 21.8482 48.0106C20.2352 46.3976 19.7953 44.2381 20.6885 42.2518C20.8884 41.8119 21.155 41.5187 21.3283 41.332C21.3283 41.332 21.355 41.3054 21.3683 41.292V41.2387C21.4083 40.8788 21.475 40.2123 22.0882 39.5857C22.9013 38.7593 24.1544 38.3727 25.6341 38.5193C27.1671 38.6659 29.1266 39.4258 30.0331 40.8121C30.6063 41.6786 30.7396 42.8784 30.433 44.2781C29.9665 46.3709 28.5934 48.5971 27.2337 49.4503C26.8338 49.7035 26.3806 49.7969 25.914 49.7969L25.9007 49.7835ZM24.181 41.4787C24.181 41.4787 24.181 41.5053 24.181 41.5187C24.1544 41.7719 24.1144 42.1452 23.9011 42.5584C23.7545 42.8517 23.5545 43.065 23.4212 43.2116C23.3679 43.2783 23.2879 43.3583 23.2746 43.3849C22.8613 44.3314 23.048 45.2112 23.8478 46.011C24.221 46.3843 25.3808 46.9175 25.8474 46.9575C26.5005 46.4509 27.3804 45.0112 27.6736 43.6515C27.8469 42.8784 27.7536 42.4651 27.6736 42.3318C27.4337 41.9719 26.5005 41.412 25.3675 41.3054C24.7943 41.252 24.381 41.3454 24.181 41.4787Z" fill="#EA128B"/>
<path d="M55.3072 114.489C55.5871 114.209 56.2136 112.636 56.5602 112.756C57.8399 113.196 59.213 115.809 59.7195 117.009C62.9455 124.46 65.425 131.872 67.3179 139.764C67.4512 140.337 67.8644 140.95 67.9311 141.417C68.251 144.163 63.4387 145.643 61.2925 145.762C59.5996 145.856 57.6133 145.523 55.9203 145.549C48.5753 145.643 43.2698 145.909 35.9913 143.71C35.5781 143.59 33.8451 142.936 33.6852 142.643C33.5385 138.817 34.2317 134.938 34.4983 131.099C34.7383 130.059 34.8982 129.006 35.2048 127.993C35.3515 127.526 36.5779 124.354 36.7512 124.234C36.8445 124.167 37.2044 124.38 37.4177 124.327C38.8307 123.941 37.6843 121.248 39.6439 120.275C40.1638 120.021 40.7237 121.048 41.5635 120.421C43.4964 116.835 45.7359 112.836 49.6417 111.197C50.055 110.797 50.3882 107.997 50.4282 107.264C51.0014 98.2528 49.735 86.9886 47.3889 78.3638C46.6557 75.6444 45.7626 73.0583 44.3229 70.6055L46.0292 64.8867C46.3491 64.8867 48.482 70.0723 48.7219 70.7388C50.4682 75.5111 50.9881 79.8301 51.7879 84.7491C52.801 91.001 54.654 99.3326 54.9072 105.465C55.0272 108.357 54.1074 110.57 53.5609 113.316C53.7208 113.929 54.6939 114.876 55.3205 114.516L55.3072 114.489ZM48.3487 122.421C47.4822 122.221 46.2558 122.061 45.4693 122.514C44.0963 123.314 43.0831 128.646 42.7632 130.259C42.4166 130.166 42.2567 129.739 42.1233 129.446C41.7234 128.593 40.4704 124.714 40.1904 124.42C39.6705 123.874 38.7241 124.007 38.0842 124.22C38.3642 127.02 36.7378 129.473 36.5112 132.205C36.4446 133.005 36.2713 134.938 37.4977 134.325L38.7241 129.153C39.8705 130.526 41.2035 136.005 43.6697 135.565C45.1627 135.298 45.456 132.405 45.8025 131.179L47.1756 137.231C47.7888 138.524 48.9752 139.231 49.8683 140.177C52.4678 139.844 53.1076 138.457 54.0408 136.285C54.374 135.511 54.3074 134.338 55.1205 133.885L56.027 139.777C57.2267 141.07 59.1463 142.537 59.9995 140.004C60.2794 139.164 60.4927 135.858 60.6127 135.685C60.8926 135.298 60.8526 135.551 61.0659 135.685C61.4791 135.938 62.2123 136.711 62.6789 136.764C64.6518 136.418 63.9719 134.232 64.5585 132.765C63.2788 133.285 63.1721 132.339 62.1723 131.872C61.6124 131.619 60.1328 131.406 59.5596 131.632C59.2796 131.739 59.5596 132.259 58.9464 132.072C58.7331 130.059 58.5998 125.727 57.56 124.127C57.1068 123.421 54.4807 123.421 53.8941 123.981C52.8277 125.02 51.8146 130.219 51.2547 131.912C51.0147 132.632 50.4282 133.112 50.5215 134.098C49.1618 130.392 48.9352 126.327 48.362 122.434L48.3487 122.421Z" fill="#EA128B"/>
<path d="M60.6397 147.176C59.8399 147.176 59.0134 147.109 58.2135 147.056C57.4004 146.989 56.6272 146.936 55.9207 146.949L54.3211 146.976C47.7225 147.069 42.5103 147.149 35.5518 145.043C34.7653 144.803 32.8857 144.163 32.4192 143.31L32.2459 142.684C32.1392 140.044 32.4192 137.405 32.6991 134.832C32.8324 133.539 32.979 132.259 33.059 130.98L33.0857 130.766C33.1657 130.433 33.2323 130.086 33.299 129.753C33.4456 129.047 33.5922 128.3 33.8188 127.567C33.8188 127.527 35.1119 123.635 35.8717 123.088C36.1917 122.848 36.5249 122.795 36.8182 122.795C36.8315 122.688 36.8582 122.568 36.8715 122.461C37.0315 121.475 37.2848 119.835 38.9777 118.996C39.6576 118.662 40.2841 118.836 40.6707 119.009C42.377 115.876 44.6832 111.97 48.5357 110.104C48.7223 109.424 48.9356 107.931 48.9756 107.158C49.5221 98.5733 48.349 87.4157 45.9895 78.711C45.4163 76.6047 44.5632 73.8587 43.0702 71.2992L42.9369 70.1795L44.6432 64.4607L46.0029 63.4609C46.7227 63.4609 47.5359 63.4609 50.0153 70.2328C51.575 74.5119 52.1882 78.4444 52.8414 82.6034L53.148 84.5097C53.4279 86.2427 53.7745 88.1356 54.1344 90.1085C55.0542 95.1607 56.094 100.879 56.2806 105.398C56.3739 107.651 55.8941 109.531 55.4275 111.344C55.3742 111.544 55.3342 111.73 55.2809 111.93C55.7074 111.477 56.254 111.197 56.9871 111.451C58.9734 112.13 60.5464 115.476 60.9863 116.476C64.2522 124.008 66.7584 131.526 68.6513 139.458C68.6913 139.644 68.7846 139.831 68.8779 140.018C69.0512 140.391 69.2378 140.817 69.2911 141.284C69.4111 142.31 69.0912 143.324 68.3713 144.19C66.6917 146.19 63.1591 147.096 61.3329 147.203C61.0929 147.203 60.853 147.216 60.613 147.216L60.6397 147.176ZM56.0673 144.123C56.8405 144.123 57.6403 144.19 58.4268 144.243C59.3733 144.31 60.3597 144.39 61.1996 144.337C62.6659 144.257 65.292 143.457 66.2385 142.324C66.5317 141.977 66.5451 141.737 66.5184 141.564C66.5051 141.511 66.3984 141.284 66.3318 141.124C66.1851 140.817 66.0385 140.458 65.9319 140.071C65.6519 138.925 65.372 137.778 65.0654 136.645C64.6921 137.325 64.0389 137.911 62.9059 138.111H62.5193C62.2393 138.098 61.9727 138.005 61.7328 137.885C61.5995 139.058 61.4928 139.924 61.3195 140.431C60.773 142.044 59.8132 142.564 59.0934 142.71C57.827 142.977 56.4406 142.297 54.9609 140.697L54.601 139.964L54.401 138.698C53.5879 140.111 52.4281 141.244 50.002 141.551L48.8023 141.111C48.549 140.844 48.269 140.591 47.9891 140.351C47.2426 139.698 46.4028 138.951 45.8562 137.791L45.7629 137.498L45.4297 136.059C45.0297 136.485 44.5232 136.805 43.8833 136.925C41.6038 137.325 40.2041 135.245 39.1777 133.179L38.8311 134.632L38.0979 135.565C37.0848 136.072 36.3516 135.765 35.9917 135.525C35.7784 135.392 35.6185 135.219 35.4852 135.032C35.4852 135.059 35.4852 135.099 35.4852 135.125C35.2452 137.338 35.0053 139.618 35.0319 141.817C35.4718 142.017 36.0984 142.257 36.3516 142.337C42.8969 144.31 47.6558 144.243 54.2544 144.15L55.8541 144.123C55.8541 144.123 55.974 144.123 56.0274 144.123H56.0673ZM57.3471 139.098C57.9069 139.644 58.2935 139.871 58.4802 139.938C58.5201 139.871 58.5868 139.738 58.6668 139.538C58.7868 139.204 58.9334 137.791 59.0134 137.032C59.1733 135.499 59.2 135.219 59.4799 134.832C59.6132 134.645 60.0265 134.072 60.7863 134.059L62.0127 134.645C62.0127 134.645 61.9327 134.552 61.7994 134.472C61.9727 134.579 62.2127 134.765 62.4526 134.965C62.5193 135.019 62.5993 135.085 62.6792 135.152C62.7326 134.992 62.7859 134.699 62.8392 134.139C62.8392 134.112 62.8392 134.099 62.8392 134.072C62.466 133.899 62.1993 133.646 61.9994 133.472C61.8128 133.299 61.6928 133.206 61.5595 133.139C61.3595 133.046 60.813 132.953 60.3997 132.939C60.2931 133.072 60.1465 133.206 59.9465 133.312C59.5333 133.552 59.04 133.579 58.5068 133.419L57.5204 132.219C57.4804 131.833 57.4404 131.38 57.4004 130.86C57.2671 129.22 57.0271 126.247 56.4539 125.088C56.054 124.968 55.1742 124.968 54.7876 125.088C54.2811 125.821 53.5346 128.727 53.1746 130.153C52.948 131.06 52.7347 131.859 52.5614 132.366C52.4415 132.739 52.2682 133.046 52.1349 133.286C51.9216 133.672 51.8683 133.779 51.8949 133.979L49.1755 134.592C48.0824 131.606 47.6825 128.433 47.2959 125.367C47.2293 124.794 47.1493 124.234 47.0826 123.661C46.5761 123.621 46.2695 123.688 46.1628 123.755C45.9495 123.954 45.2297 125.034 44.1766 130.273L44.1233 130.553L42.3903 131.633C41.6172 131.433 41.2172 130.833 40.9906 130.406C41.0306 130.5 41.0706 130.593 41.1106 130.686C41.5238 131.579 42.7636 134.272 43.4034 134.179C43.7367 133.939 44.0833 132.313 44.2166 131.699C44.2966 131.353 44.3632 131.046 44.4299 130.806L47.1626 130.873L48.4957 136.752C48.8023 137.312 49.2955 137.765 49.882 138.271C50.0287 138.405 50.1753 138.538 50.3219 138.671C51.5483 138.365 51.9216 137.632 52.7347 135.725C52.8147 135.552 52.8547 135.339 52.8947 135.139C53.068 134.392 53.3213 133.272 54.401 132.659L56.4939 133.672L57.3337 139.125L57.3471 139.098ZM60.3064 130.113C61.2529 130.113 62.2793 130.353 62.7592 130.58C63.0258 130.7 63.2525 130.846 63.4391 130.993C62.0127 126.461 60.3597 122.022 58.4402 117.583C57.9469 116.449 57.3204 115.423 56.8139 114.77C56.6406 115.076 56.4939 115.316 56.294 115.516L56.014 115.73C55.4408 116.063 54.761 116.09 54.0944 115.81C53.2013 115.436 52.4015 114.53 52.1882 113.65V113.037C52.3482 112.21 52.5348 111.424 52.7347 110.651C53.188 108.878 53.5746 107.358 53.4946 105.518C53.3213 101.199 52.2948 95.574 51.3884 90.615C51.0284 88.6288 50.6819 86.7226 50.4019 84.9629L50.0953 83.0434C49.4288 78.8443 48.8689 75.2184 47.4026 71.2059C47.2559 70.806 46.8294 69.7662 46.3628 68.6865L45.8429 70.4328C47.3226 73.1122 48.1624 75.8582 48.7489 77.9911C51.1884 86.9625 52.3881 98.48 51.8283 107.345C51.7749 108.265 51.5083 111.331 50.6019 112.197L50.1753 112.477C46.6161 113.97 44.4965 117.916 42.7902 121.075L42.3903 121.542C41.4172 122.275 40.4974 122.022 39.9642 121.795C39.8575 121.982 39.7776 122.248 39.7109 122.701C40.3108 122.808 40.8173 123.061 41.2172 123.488C41.4972 123.781 41.6705 124.154 42.3237 125.967C43.0702 123.275 43.8167 121.902 44.7765 121.342C45.7229 120.795 47.0293 120.702 48.6823 121.088L49.7621 122.261C49.8954 123.181 50.0153 124.114 50.1353 125.048C50.2953 126.301 50.4552 127.567 50.6552 128.82C51.4017 125.967 52.0282 123.901 52.9214 123.021C53.9345 122.035 56.014 122.208 56.4139 122.261C57.547 122.395 58.3335 122.768 58.7468 123.408C59.6532 124.808 59.9598 127.287 60.1998 130.166C60.2398 130.166 60.2664 130.166 60.3064 130.166V130.113ZM39.8042 128.247C40.1508 128.66 40.4574 129.233 40.7773 129.913C40.564 129.42 40.3108 128.713 39.9375 127.674C39.7776 127.234 39.5909 126.687 39.4176 126.221C39.2977 126.994 39.0977 127.74 38.8844 128.473L39.8175 128.26L39.8042 128.247Z" fill="#EA128B"/>
<path d="M23.7414 106.731C21.3552 109.384 19.0891 110.17 15.5165 109.517C7.71821 108.104 1.6262 99.1728 4.10566 91.4678C5.09212 88.4151 8.19811 83.1629 11.6507 82.6164C12.5972 82.4697 16.7296 82.7897 17.7694 82.9896C21.8751 83.7894 23.6881 86.6955 24.9411 90.428C26.4608 94.9604 26.6074 98.6795 25.5677 103.292C25.2077 104.905 24.7545 105.598 23.7281 106.731H23.7414ZM21.142 90.9879C16.8762 91.6144 20.2888 100.253 23.7814 97.4531C24.9278 96.5333 25.5677 93.2007 24.5812 92.1476C23.7547 91.2812 22.3417 90.8146 21.142 90.9879Z" fill="#EA128B"/>
<path d="M17.6899 111.156C16.93 111.156 16.1302 111.076 15.277 110.917C10.9713 110.143 6.93219 107.224 4.46606 103.118C2.15989 99.279 1.54669 94.88 2.78642 91.0408C3.71955 88.1348 7.06549 81.9228 11.4512 81.2296C12.6776 81.0297 17.05 81.4163 18.0631 81.6162C23.2087 82.6293 25.1682 86.6151 26.3013 89.9877C27.8876 94.7067 28.0876 98.6658 26.9678 103.611C26.5413 105.531 25.9547 106.411 24.8083 107.691C22.6621 110.077 20.5026 111.156 17.7032 111.156H17.6899ZM12.4243 83.989C12.1844 83.989 11.9978 83.989 11.8778 84.0157C9.23835 84.4423 6.39897 88.948 5.45251 91.9073C4.46606 94.96 4.98594 98.5192 6.87887 101.665C8.93175 105.078 12.251 107.504 15.7703 108.144C18.8229 108.69 20.6359 108.077 22.7021 105.798C23.6219 104.785 23.9152 104.318 24.2084 102.985C24.5684 101.372 24.7816 99.8656 24.8216 98.4126C24.7683 98.4659 24.715 98.5059 24.6617 98.5459C23.3686 99.5856 21.8489 99.6923 20.5026 98.8658C18.5963 97.7061 17.3833 94.8 17.8498 92.5205C18.1831 90.8942 19.3162 89.8144 20.9425 89.5745C21.689 89.4678 22.4755 89.5345 23.222 89.7478C21.9156 86.4285 20.2493 84.8955 17.5166 84.3623C16.6767 84.2023 13.744 83.9757 12.4243 83.9757V83.989ZM21.6623 92.3605C21.5557 92.3605 21.449 92.3605 21.3557 92.3872C20.9825 92.4405 20.7292 92.5872 20.6225 93.1071C20.3959 94.2001 21.1024 95.9331 21.9823 96.4797C22.2622 96.6529 22.5021 96.6929 22.9154 96.3597C23.4753 95.9064 23.9152 93.6536 23.5552 93.1071C23.1287 92.6671 22.3555 92.3605 21.6623 92.3605Z" fill="#EA128B"/>
<path d="M28.6075 97.2139C28.9541 97.3605 29.2473 97.7204 29.5006 98.0137C33.5264 102.599 35.6459 108.638 38.1787 114.064C38.4987 114.757 39.8717 116.73 39.8717 117.343C39.8717 117.423 39.3918 118.902 39.3518 118.969C39.3118 119.036 37.8988 119.769 37.8321 119.702C37.7522 118.769 37.3789 117.649 37.0456 116.783C34.9528 111.464 32.1001 106.399 28.3409 102.106C28.0743 101.6 28.6208 100.813 28.6208 100.48V97.2139H28.6075Z" fill="#EA128B"/>
<path d="M37.9517 121.101L36.8053 120.662L36.4321 119.808C36.3921 119.382 36.2454 118.595 35.7389 117.289C33.5527 111.73 30.7133 106.931 27.2874 103.025L27.1008 102.759C26.6209 101.852 26.9808 100.933 27.1807 100.439C27.1941 100.399 27.2074 100.359 27.2207 100.333V97.2266L29.1803 95.9336C29.7935 96.2002 30.2201 96.6668 30.5133 97.0134C33.8859 100.866 35.9388 105.505 37.9117 109.997C38.4316 111.17 38.9382 112.33 39.4714 113.476C39.5647 113.676 39.7647 113.996 39.978 114.37C40.8711 115.863 41.2977 116.649 41.2843 117.382C41.2843 117.769 40.7111 119.515 40.4978 119.808C40.1379 120.315 38.4183 121.101 37.9517 121.128V121.101ZM29.7402 101.572C30.78 102.785 31.7531 104.065 32.6862 105.425C31.8731 103.839 30.9932 102.306 29.9801 100.879C29.9268 101.092 29.8602 101.279 29.7935 101.466C29.7935 101.492 29.7668 101.546 29.7535 101.586L29.7402 101.572Z" fill="#EA128B"/>
<path d="M22.8482 47.0106C21.6885 45.8509 21.3019 44.3579 21.9817 42.8115C22.1683 42.3983 22.4883 42.1983 22.6482 41.9051C22.8749 41.4785 22.6482 41.0119 23.1015 40.5587C24.4345 39.1856 27.9004 40.1188 28.8602 41.5718C29.9667 43.2514 28.0871 47.2372 26.4874 48.237C25.6609 48.7569 23.5147 47.6771 22.8615 47.0106H22.8482Z" fill="#EA128B"/>
<path d="M25.9006 49.783C24.221 49.783 22.3414 48.4899 21.8482 48.01C20.2352 46.3971 19.7953 44.2375 20.6884 42.2513C20.8884 41.8114 21.155 41.5181 21.3283 41.3315C21.3283 41.3315 21.3549 41.3048 21.3683 41.2915V41.2382C21.4082 40.8783 21.4749 40.2117 22.0881 39.5852C22.9013 38.7587 24.1543 38.3721 25.634 38.5188C27.167 38.6654 29.1266 39.4252 30.033 40.8116C30.6063 41.6781 30.7396 42.8778 30.433 44.2775C29.9664 46.3704 28.5934 48.5966 27.2336 49.4497C26.8337 49.703 26.3805 49.7963 25.9139 49.7963L25.9006 49.783ZM24.181 41.4781C24.181 41.4781 24.181 41.5048 24.181 41.5181C24.1543 41.7714 24.1143 42.1447 23.901 42.5579C23.7544 42.8512 23.5544 43.0645 23.4211 43.2111C23.3678 43.2777 23.2878 43.3577 23.2745 43.3844C22.8613 44.3308 23.0479 45.2107 23.8477 46.0105C24.221 46.3837 25.3807 46.9169 25.8473 46.9569C26.5005 46.4504 27.3803 45.0107 27.6736 43.651C27.8468 42.8778 27.7535 42.4646 27.6736 42.3313C27.4336 41.9714 26.5005 41.4115 25.3674 41.3048C24.7942 41.2515 24.3809 41.3448 24.181 41.4781Z" fill="#EA128B"/>
<path d="M48.3491 122.421C48.9223 126.313 49.1489 130.379 50.5086 134.085C50.4153 133.098 51.0019 132.632 51.2418 131.899C51.8017 130.206 52.8148 125.007 53.8812 123.967C54.4545 123.407 57.0806 123.407 57.5471 124.114C58.5869 125.713 58.7335 130.046 58.9335 132.059C59.5334 132.245 59.2801 131.725 59.5467 131.619C60.1199 131.392 61.5996 131.592 62.1595 131.859C63.1726 132.325 63.2792 133.272 64.5456 132.752C63.9724 134.218 64.6389 136.404 62.666 136.751C62.1994 136.711 61.4663 135.938 61.053 135.671C60.8397 135.538 60.8797 135.285 60.5998 135.671C60.4665 135.844 60.2665 139.15 59.9866 139.99C59.1334 142.51 57.2005 141.057 56.0141 139.764L55.1077 133.871C54.3078 134.338 54.3611 135.498 54.0279 136.271C53.0814 138.457 52.4549 139.844 49.8555 140.163C48.9623 139.217 47.7626 138.51 47.1627 137.217L45.7897 131.165C45.4564 132.405 45.1498 135.298 43.6568 135.551C41.1907 135.991 39.8576 130.512 38.7112 129.139L37.4848 134.311C36.2584 134.938 36.4317 132.992 36.4984 132.192C36.7116 129.459 38.3513 127.006 38.0713 124.207C38.7112 123.994 39.6577 123.86 40.1776 124.407C40.4575 124.7 41.7106 128.579 42.1105 129.432C42.2438 129.726 42.4037 130.152 42.7503 130.246C43.0836 128.633 44.0834 123.3 45.4564 122.501C46.2429 122.034 47.4826 122.207 48.3358 122.407L48.3491 122.421Z" fill="#EA128B"/>
<path d="M58.5739 142.777C57.4542 142.777 56.2544 142.084 54.988 140.711L54.6281 139.977L54.4282 138.711C53.615 140.124 52.4552 141.257 50.0291 141.564L48.8294 141.124C48.5761 140.857 48.2962 140.604 48.0162 140.364C47.2697 139.711 46.4299 138.964 45.8833 137.805L45.79 137.511L45.4568 136.072C45.0569 136.498 44.5503 136.818 43.9104 136.938C41.6309 137.338 40.2312 135.258 39.2048 133.192L38.8582 134.645L38.125 135.578C37.1119 136.085 36.3787 135.778 36.0188 135.538C34.8724 134.765 35.0057 133.126 35.0857 132.139C35.1923 130.766 35.5789 129.553 35.9388 128.393C36.3787 126.994 36.792 125.687 36.6587 124.367L37.6185 122.888C39.0981 122.408 40.3912 122.621 41.191 123.461C41.471 123.754 41.6443 124.128 42.2975 125.94C43.044 123.248 43.7905 121.875 44.7503 121.315C45.6967 120.768 47.0031 120.675 48.6561 121.062L49.7358 122.235C49.8691 123.154 49.9891 124.088 50.1091 125.021C50.2691 126.274 50.429 127.54 50.629 128.793C51.3755 125.94 52.002 123.874 52.8952 122.994C53.9083 122.008 55.9878 122.181 56.3877 122.235C57.5208 122.368 58.3073 122.741 58.7206 123.381C59.627 124.781 59.9336 127.26 60.1736 130.14C61.1334 130.126 62.2398 130.379 62.733 130.606C63.2662 130.846 63.6128 131.166 63.8794 131.393C63.9061 131.419 63.9461 131.446 63.9727 131.473C63.9727 131.473 63.9994 131.473 63.9994 131.459L65.839 133.286C65.719 133.579 65.679 134.005 65.6257 134.459C65.5057 135.605 65.2791 137.738 62.893 138.151H62.5064C62.2265 138.138 61.9598 138.044 61.7199 137.925C61.5866 139.098 61.48 139.964 61.3067 140.471C60.7601 142.084 59.8003 142.603 59.0805 142.75C58.9072 142.79 58.7206 142.803 58.5339 142.803L58.5739 142.777ZM57.3475 139.098C57.9074 139.644 58.294 139.871 58.4806 139.937C58.5206 139.871 58.5872 139.737 58.6672 139.537C58.7872 139.204 58.9338 137.791 59.0138 137.031C59.1738 135.498 59.2004 135.218 59.4804 134.832C59.6137 134.645 60.0269 134.072 60.7868 134.059L62.0132 134.645C62.0132 134.645 61.9332 134.552 61.7999 134.472C61.9732 134.579 62.2131 134.765 62.4531 134.965C62.5197 135.018 62.5997 135.085 62.6797 135.152C62.733 134.992 62.7863 134.699 62.8397 134.139C62.8397 134.112 62.8397 134.099 62.8397 134.072C62.4664 133.899 62.1998 133.645 61.9998 133.472C61.8132 133.299 61.6932 133.206 61.5599 133.139C61.36 133.046 60.8134 132.952 60.4002 132.939C60.2935 133.072 60.1469 133.206 59.947 133.312C59.5337 133.552 59.0405 133.579 58.5073 133.419L57.5208 132.219C57.4808 131.832 57.4408 131.379 57.4008 130.859C57.2675 129.22 57.0276 126.247 56.4544 125.087C56.0545 124.967 55.1747 124.967 54.7881 125.087C54.2815 125.82 53.535 128.727 53.1751 130.153C52.9485 131.059 52.7352 131.859 52.5619 132.366C52.4419 132.739 52.2686 133.046 52.1353 133.286C51.922 133.672 51.8687 133.779 51.8954 133.979L49.176 134.592C48.0829 131.606 47.683 128.433 47.2964 125.381C47.2297 124.807 47.1497 124.247 47.0831 123.674C46.5765 123.634 46.2699 123.701 46.1633 123.768C45.95 123.968 45.2301 125.047 44.177 130.286L44.1237 130.566L42.3908 131.646C41.6176 131.446 41.2177 130.846 40.9911 130.419C41.0311 130.513 41.0711 130.606 41.111 130.699C41.5243 131.593 42.764 134.285 43.4039 134.192C43.7371 133.952 44.0837 132.326 44.217 131.713C44.297 131.366 44.3637 131.059 44.4303 130.819L47.1631 130.886L48.4961 136.765C48.8027 137.325 49.2959 137.778 49.8825 138.284C50.0291 138.418 50.1757 138.551 50.3224 138.684C51.5488 138.378 51.922 137.645 52.7352 135.738C52.8152 135.565 52.8552 135.352 52.8952 135.152C53.0684 134.405 53.3217 133.286 54.4015 132.672L56.4944 133.685L57.3342 139.138L57.3475 139.098ZM39.8047 128.247C40.1513 128.66 40.4579 129.233 40.7778 129.913C40.5645 129.42 40.3112 128.713 39.938 127.673C39.778 127.233 39.5914 126.687 39.4181 126.22C39.2981 126.994 39.0981 127.74 38.8849 128.473L39.818 128.26L39.8047 128.247Z" fill="#EA128B"/>
<path d="M21.142 90.988C22.3418 90.8147 23.7548 91.2812 24.5813 92.1477C25.5811 93.2008 24.9412 96.5334 23.7815 97.4532C20.2889 100.253 16.8763 91.6145 21.142 90.988Z" fill="#EA128B"/>
<path d="M22.3547 99.4132C21.7282 99.4132 21.1017 99.2266 20.5018 98.8667C18.5955 97.7069 17.3825 94.8009 17.849 92.5214C18.1823 90.8951 19.3154 89.8153 20.9417 89.5754C22.608 89.3354 24.4743 89.9753 25.6074 91.1617C26.4338 92.0415 26.5405 93.3479 26.4738 94.3077C26.3805 95.774 25.7807 97.6403 24.6742 98.5334C23.9544 99.1066 23.1679 99.3999 22.3681 99.3999L22.3547 99.4132ZM21.6615 92.3614C21.5549 92.3614 21.4483 92.3614 21.3549 92.3881C20.9817 92.4414 20.7284 92.588 20.6218 93.1079C20.3952 94.201 21.1017 95.934 21.9815 96.4805C22.2614 96.6538 22.5014 96.6938 22.9146 96.3605C23.4745 95.9073 23.9144 93.6545 23.5545 93.1079C23.1279 92.668 22.3547 92.3614 21.6615 92.3614Z" fill="#EA128B"/>
<path d="M81.1829 27.308L82.7958 24.0953C84.2222 21.4026 88.4346 15.1906 92.0472 17.91C93.8601 19.2697 93.3136 25.1218 93.0869 27.2013C91.9539 37.4658 88.5679 49.2232 79.3566 54.8353C76.6505 56.475 73.5179 57.928 70.6118 59.1544C70.3052 60.2475 72.1048 64.8065 72.5981 66.1395C75.6241 74.3111 78.4901 81.043 79.9031 89.8544C81.9027 102.292 79.4632 118.955 72.5981 129.686C71.5183 131.379 69.7453 132.592 68.6256 134.271C68.9189 138.351 72.1581 141.936 69.0388 145.682C65.373 150.068 59.1476 149.122 54.1087 149.175C51.7492 149.201 49.6164 149.428 47.1902 149.348C46.4304 149.321 45.9505 148.708 45.3373 149.401C44.7374 148.882 43.0845 148.695 42.0447 148.428C39.4319 147.775 36.1393 147.309 33.6598 146.029C29.954 144.109 30.8071 142.71 31.0604 139.137C31.4203 133.965 31.8869 129.446 34.1131 124.647C34.6063 123.567 35.4994 123.1 35.3528 121.647C35.2995 121.048 34.7796 119.275 34.5796 118.581C33.4466 114.676 30.9404 108.97 28.7143 105.558C28.4743 105.184 28.2477 104.558 27.7278 104.638C27.4345 106.944 25.4616 109.623 23.5287 110.89C17.2634 115.009 6.839 110.037 3.6397 103.878C0.746991 98.3059 0.373739 91.654 4.34621 86.5218L3.67969 85.9619C5.70591 86.0952 5.42598 83.4024 6.30578 82.8026C7.18559 82.2027 10.4382 80.4031 11.4247 80.3764C13.6775 80.3231 18.1699 80.683 20.2628 81.3895C23.2221 82.3893 25.6616 85.7619 26.7547 88.6013C27.1812 89.7077 27.8744 93.4403 28.2877 94.0401C28.421 94.2268 29.914 95.0799 30.3406 95.4798C34.313 99.2257 37.2724 103.931 39.5119 108.89L41.3115 114.729C42.018 113.929 42.4713 112.863 43.1245 112.05C44.1109 110.836 45.6039 108.824 47.2569 109.104C46.8436 106.624 47.0969 104.078 47.0436 101.559C46.8436 92.1206 45.9238 83.8823 43.831 74.6577C43.751 74.2844 43.551 73.3246 43.2178 73.138C42.5112 75.2042 41.6714 77.3104 40.0718 78.8701C34.5663 84.2556 29.8207 84.8955 22.7955 81.7628C18.3832 79.7899 14.5707 77.1771 12.0245 72.978C7.19892 65.0198 5.02606 59.6876 8.15871 50.303C9.58507 46.0106 10.7981 41.4116 13.7975 37.959C25.2483 24.7085 40.5383 33.2667 45.4706 47.3836C47.1636 52.2225 46.5637 55.5552 46.3637 60.4341C46.2704 62.6869 47.5102 63.1535 48.5633 64.9665C53.0156 72.6181 54.5353 81.7761 56.0017 90.3476C56.6548 94.1601 57.4413 98.4392 57.8146 102.252C58.0812 104.918 58.1745 107.677 57.1614 110.197C58.8677 111.156 60.0541 112.876 61.0006 114.569L63.6533 121.234C64.3465 118.621 64.9597 115.942 65.2263 113.249C66.906 96.3063 61.3472 78.7768 60.2674 62.0071C55.3218 55.5285 50.8561 46.6371 50.2029 38.3589C50.0163 36.0927 50.6961 29.7074 53.6555 29.4942C56.4416 29.2942 57.0948 32.4668 58.7077 33.9998C58.6944 31.2671 57.8279 28.4677 57.588 25.7883C57.1881 21.3626 56.9081 11.818 59.6142 8.25877C61.0139 6.41917 64.2932 5.09945 66.2128 6.80575C68.5456 8.8853 68.4256 16.377 68.9189 19.3764L70.4385 11.898C71.5316 8.60536 72.6114 5.60601 75.0908 3.07323C77.1971 0.913695 80.0764 0.540443 81.6494 3.48647C83.7423 7.40562 82.6225 16.9769 82.036 21.4826C81.7827 23.3888 81.2762 25.3084 81.1695 27.2413L81.1829 27.308ZM86.0218 40.2518C88.1013 35.7461 91.1407 25.695 90.4608 20.8294C90.4075 20.4694 90.4342 20.0562 90.1676 19.7763C89.541 19.283 86.8883 22.4557 86.4617 23.0556C83.3957 27.4279 78.7434 39.532 77.0104 44.8375C76.6372 45.9839 76.3439 50.8762 74.3577 49.7564C72.6247 48.7833 73.2379 46.6638 73.6911 45.1041C75.1975 39.8519 77.277 35.0796 78.4101 29.6008C79.5165 24.3086 82.1693 9.43185 80.0898 4.8995C79.21 2.99324 78.1835 3.12655 76.7571 4.45959C69.932 10.8049 70.0786 35.7461 69.852 44.9175C69.8387 45.6506 69.772 48.4367 68.7056 48.3701C66.9193 47.6769 66.786 44.8908 66.8126 43.1978C66.906 36.8259 67.6791 30.4006 67.4792 24.0687C67.3725 20.8294 66.9993 11.938 65.9062 9.21856C64.7464 6.33918 61.7604 8.15212 60.8673 10.2583C58.881 14.9373 59.8408 23.9487 60.534 28.9743C61.4805 35.9061 63.0801 42.7846 64.0799 49.7164C63.8933 53.5556 62.0137 53.1823 60.9073 49.943C59.2676 45.1574 59.7742 39.7319 57.2147 34.973C55.5218 31.8137 53.4022 28.5344 52.4691 34.4531C51.5226 40.4251 56.5349 51.6094 59.9475 56.515C62.0937 59.581 63.3601 59.9675 64.0666 64.0866C65.9462 75.1642 68.2657 88.9479 68.5989 100.025C68.8389 107.944 68.2923 116.209 64.3732 123.22L67.2525 130.712C67.9457 131.165 68.5456 129.552 68.7989 129.259C73.5445 123.874 75.704 115.889 76.8638 108.77C79.2499 94.0135 75.4241 82.2827 70.5452 68.6323C69.7053 66.2995 68.4123 63.8467 67.9724 61.3139C67.7191 59.9275 67.7591 58.3146 67.9191 56.9282C69.652 55.6218 71.7316 54.902 73.5978 53.7955C75.4641 52.6891 78.4768 50.7962 80.0098 49.4232C82.7558 46.9837 84.5288 43.4378 86.0085 40.2518H86.0218ZM37.0591 38.4122C31.167 33.0401 24.9417 33.7732 18.3032 37.5457C16.5169 38.5722 15.4105 40.9317 14.4907 42.7313C10.2249 51.0761 6.79901 58.8078 11.8779 67.7658C14.744 72.8181 25.0617 81.0829 31.0071 81.2296C32.9533 81.2829 36.166 79.2833 37.5123 77.897C39.8185 75.5108 43.791 66.4195 43.8843 63.1269C43.9109 62.3537 43.2977 61.4605 43.471 60.954C43.591 60.5807 44.2309 60.6474 44.3509 60.0209C44.4708 59.3943 44.5375 57.2481 44.5508 56.4483C44.7108 50.0364 41.8847 42.8113 37.0591 38.4255V38.4122ZM55.3085 114.489C54.6819 114.849 53.6955 113.902 53.5489 113.289C54.0954 110.53 55.0152 108.33 54.8952 105.438C54.642 99.319 52.789 90.9741 51.7759 84.7222C50.9761 79.8032 50.4562 75.4842 48.7099 70.7119C48.47 70.0587 46.3371 64.8731 46.0172 64.8598L44.3109 70.5786C45.7506 73.018 46.6304 75.6041 47.3769 78.3369C49.7097 86.9617 50.9894 98.2259 50.4162 107.237C50.3762 107.97 50.0429 110.77 49.6297 111.17C45.7239 112.809 43.4844 116.822 41.5515 120.394C40.7116 121.021 40.1518 119.994 39.6319 120.248C37.6723 121.221 38.8187 123.914 37.4057 124.3C37.1924 124.354 36.8325 124.14 36.7392 124.207C36.5792 124.327 35.3395 127.486 35.1928 127.966C34.8862 128.979 34.7129 130.046 34.4863 131.072C34.2197 134.911 33.5265 138.79 33.6732 142.616C33.8331 142.91 35.5794 143.563 35.9793 143.683C43.2711 145.882 48.5633 145.616 55.9083 145.522C57.6013 145.496 59.5875 145.829 61.2805 145.736C63.4267 145.616 68.2523 144.149 67.9191 141.39C67.8657 140.91 67.4525 140.297 67.3059 139.737C65.4263 131.845 62.9468 124.434 59.7075 116.982C59.1876 115.782 57.8146 113.169 56.5482 112.729C56.2016 112.609 55.5884 114.182 55.2951 114.462L55.3085 114.489ZM23.742 106.731C24.7684 105.584 25.2083 104.904 25.5816 103.291C26.6214 98.6791 26.4747 94.9599 24.9551 90.4276C23.702 86.6951 21.8891 83.8024 17.7833 82.9892C16.7302 82.7892 12.6111 82.4693 11.6646 82.616C8.19871 83.1625 5.09271 88.428 4.11959 91.4674C1.64013 99.1724 7.73214 108.117 15.5304 109.517C19.103 110.157 21.3692 109.37 23.7553 106.731H23.742ZM28.6076 97.2128V100.479C28.6076 100.812 28.0477 101.585 28.3277 102.105C32.0869 106.397 34.9396 111.463 37.0324 116.782C37.379 117.648 37.739 118.768 37.8189 119.701C37.8856 119.768 39.2853 119.048 39.3386 118.968C39.3919 118.888 39.8585 117.422 39.8585 117.342C39.8585 116.729 38.4988 114.742 38.1655 114.062C35.6327 108.637 33.5132 102.598 29.4874 98.0126C29.2341 97.7327 28.9409 97.3727 28.5943 97.2128H28.6076Z" fill="black"/>
<path d="M86.0217 40.2526C84.5554 43.4386 82.7824 46.9845 80.023 49.424C78.4767 50.797 75.4507 52.7033 73.6111 53.7964C71.7715 54.8895 69.6653 55.6226 67.9323 56.929C67.759 58.3154 67.7324 59.9284 67.9856 61.3147C68.4389 63.8475 69.7319 66.287 70.5584 68.6331C75.4374 82.2835 79.2632 94.0143 76.877 108.771C75.7306 115.903 73.5578 123.874 68.8121 129.26C68.5589 129.553 67.959 131.166 67.2658 130.713L64.3864 123.221C68.3056 116.196 68.8521 107.945 68.6122 100.026C68.2789 88.9487 65.9728 75.1784 64.0798 64.0875C63.3733 59.955 62.1069 59.5818 59.9607 56.5158C56.5348 51.6102 51.5359 40.4259 52.4823 34.4539C53.4155 28.5352 55.5217 31.8278 57.228 34.9738C59.7874 39.7194 59.2809 45.1582 60.9205 49.9439C62.0269 53.1832 63.8932 53.5564 64.0932 49.7172C63.0934 42.7854 61.4937 35.9069 60.5473 28.9751C59.8541 23.9495 58.8943 14.9381 60.8805 10.2591C61.7737 8.15294 64.7597 6.32667 65.9194 9.21937C67.0125 11.9388 67.3858 20.8435 67.4924 24.0695C67.6924 30.4014 66.9192 36.84 66.8259 43.1987C66.7992 44.8783 66.9325 47.6644 68.7188 48.3709C69.7986 48.4375 69.8519 45.6648 69.8652 44.9183C70.0919 35.7469 69.9452 10.8057 76.7704 4.46041C78.1968 3.12736 79.2232 2.99406 80.103 4.90031C82.1826 9.43266 79.5165 24.3094 78.4234 29.6016C77.2903 35.0804 75.2107 39.8527 73.7044 45.1049C73.2512 46.6646 72.638 48.7841 74.3709 49.7572C76.3705 50.877 76.6504 45.9847 77.0237 44.8383C78.7566 39.5328 83.409 27.4288 86.475 23.0564C86.8882 22.4565 89.541 19.2839 90.1808 19.7771C90.4474 20.0703 90.4208 20.4703 90.4741 20.8302C91.154 25.6825 88.1146 35.7469 86.0351 40.2526H86.0217Z" fill="white"/>
<path d="M37.0592 38.4131C41.8714 42.7988 44.6975 50.0239 44.5509 56.4359C44.5375 57.2357 44.4709 59.3819 44.3509 60.0084C44.2309 60.635 43.5911 60.5683 43.4711 60.9416C43.2978 61.4481 43.8977 62.3413 43.8843 63.1144C43.791 66.3937 39.8186 75.4984 37.5124 77.8845C36.166 79.2709 32.9534 81.2705 31.0071 81.2172C25.0751 81.0705 14.744 72.8056 11.878 67.7534C6.79907 58.7954 10.2383 51.0637 14.4907 42.7188C15.4105 40.9326 16.5036 38.5598 18.3032 37.5333C24.9418 33.7608 31.1671 33.0276 37.0592 38.3998V38.4131ZM22.8489 47.0112C23.5021 47.6644 25.6616 48.7442 26.4748 48.2376C28.0744 47.2379 29.954 43.2521 28.8476 41.5724C27.9012 40.1194 24.4219 39.1996 23.0889 40.5593C22.649 41.0126 22.8622 41.4791 22.6356 41.9057C22.4757 42.199 22.1557 42.3989 21.9691 42.8122C21.2893 44.3452 21.6892 45.8515 22.8356 47.0112H22.8489Z" fill="white"/>
<path d="M55.3081 114.489C55.5881 114.209 56.2146 112.636 56.5612 112.756C57.8409 113.196 59.2139 115.809 59.7205 117.009C62.9465 124.46 65.4259 131.872 67.3189 139.764C67.4522 140.337 67.8654 140.95 67.932 141.417C68.252 144.163 63.4397 145.643 61.2935 145.762C59.6005 145.856 57.6143 145.523 55.9213 145.549C48.5763 145.643 43.2707 145.909 35.9923 143.71C35.5791 143.59 33.8461 142.936 33.6862 142.643C33.5395 138.817 34.2327 134.938 34.4993 131.099C34.7393 130.059 34.8992 129.006 35.2058 127.993C35.3525 127.526 36.5789 124.354 36.7522 124.234C36.8455 124.167 37.2054 124.38 37.4187 124.327C38.8317 123.941 37.6853 121.248 39.6449 120.275C40.1647 120.021 40.7246 121.048 41.5644 120.421C43.4974 116.835 45.7369 112.836 49.6427 111.197C50.0559 110.797 50.3892 107.997 50.4292 107.264C51.0024 98.2528 49.736 86.9886 47.3898 78.3638C46.6567 75.6444 45.7635 73.0583 44.3238 70.6055L46.0301 64.8867C46.3501 64.8867 48.4829 70.0723 48.7229 70.7388C50.4692 75.5111 50.9891 79.8301 51.7889 84.7491C52.802 91.001 54.6549 99.3326 54.9082 105.465C55.0282 108.357 54.1084 110.57 53.5618 113.316C53.7218 113.929 54.6949 114.876 55.3215 114.516L55.3081 114.489ZM48.3496 122.421C47.4832 122.221 46.2568 122.061 45.4703 122.514C44.0972 123.314 43.0841 128.646 42.7642 130.259C42.4176 130.166 42.2576 129.739 42.1243 129.446C41.7244 128.593 40.4713 124.714 40.1914 124.42C39.6715 123.874 38.7251 124.007 38.0852 124.22C38.3651 127.02 36.7388 129.473 36.5122 132.205C36.4456 133.005 36.2723 134.938 37.4987 134.325L38.7251 129.153C39.8715 130.526 41.2045 136.005 43.6707 135.565C45.1637 135.298 45.4569 132.405 45.8035 131.179L47.1766 137.231C47.7898 138.524 48.9762 139.231 49.8693 140.177C52.4687 139.844 53.1086 138.457 54.0417 136.285C54.375 135.511 54.3083 134.338 55.1215 133.885L56.028 139.777C57.2277 141.07 59.1473 142.537 60.0004 140.004C60.2804 139.164 60.4937 135.858 60.6136 135.685C60.8936 135.298 60.8536 135.551 61.0669 135.685C61.4801 135.938 62.2133 136.711 62.6799 136.764C64.6528 136.418 63.9729 134.232 64.5595 132.765C63.2797 133.285 63.1731 132.339 62.1733 131.872C61.6134 131.619 60.1337 131.406 59.5605 131.632C59.2806 131.739 59.5605 132.259 58.9473 132.072C58.734 130.059 58.6007 125.727 57.561 124.127C57.1077 123.421 54.4816 123.421 53.8951 123.981C52.8287 125.02 51.8156 130.219 51.2557 131.912C51.0157 132.632 50.4292 133.112 50.5225 134.098C49.1628 130.392 48.9362 126.327 48.363 122.434L48.3496 122.421Z" fill="white"/>
<path d="M23.7424 106.731C21.3562 109.384 19.0901 110.17 15.5175 109.517C7.71919 108.104 1.62718 99.1728 4.10664 91.4678C5.09309 88.4151 8.19909 83.1629 11.6517 82.6164C12.5981 82.4697 16.7306 82.7897 17.7703 82.9896C21.8761 83.7894 23.6891 86.6955 24.9421 90.428C26.4618 94.9604 26.6084 98.6795 25.5686 103.292C25.2087 104.905 24.7555 105.598 23.729 106.731H23.7424ZM21.1429 90.9879C16.8772 91.6144 20.2898 100.253 23.7824 97.4531C24.9288 96.5333 25.5686 93.2007 24.5822 92.1476C23.7557 91.2812 22.3427 90.8146 21.1429 90.9879Z" fill="white"/>
<path d="M28.6075 97.2129C28.9541 97.3595 29.2473 97.7194 29.5006 98.0127C33.5264 102.598 35.6459 108.637 38.1787 114.063C38.4987 114.756 39.8717 116.729 39.8717 117.342C39.8717 117.422 39.3918 118.902 39.3518 118.968C39.3118 119.035 37.8988 119.768 37.8321 119.701C37.7522 118.768 37.3789 117.648 37.0456 116.782C34.9528 111.463 32.1001 106.398 28.3409 102.105C28.0743 101.599 28.6208 100.812 28.6208 100.479V97.2129H28.6075Z" fill="white"/>
<path d="M22.8492 47.0106C21.6894 45.8509 21.3028 44.3579 21.9827 42.8115C22.1693 42.3983 22.4893 42.1983 22.6492 41.9051C22.8758 41.4785 22.6492 41.0119 23.1025 40.5587C24.4355 39.1856 27.9014 40.1188 28.8612 41.5718C29.9676 43.2514 28.088 47.2372 26.4884 48.237C25.6619 48.7569 23.5157 47.6771 22.8625 47.0106H22.8492Z" fill="black"/>
<path d="M48.3501 122.421C48.9233 126.313 49.1499 130.379 50.5096 134.085C50.4163 133.098 51.0029 132.632 51.2428 131.899C51.8027 130.206 52.8158 125.007 53.8822 123.967C54.4554 123.407 57.0815 123.407 57.5481 124.114C58.5879 125.713 58.7345 130.046 58.9345 132.059C59.5343 132.245 59.2811 131.725 59.5477 131.619C60.1209 131.392 61.6006 131.592 62.1604 131.859C63.1735 132.325 63.2802 133.272 64.5466 132.752C63.9734 134.218 64.6399 136.404 62.667 136.751C62.2004 136.711 61.4672 135.938 61.054 135.671C60.8407 135.538 60.8807 135.285 60.6008 135.671C60.4675 135.844 60.2675 139.15 59.9876 139.99C59.1344 142.51 57.2015 141.057 56.0151 139.764L55.1086 133.871C54.3088 134.338 54.3621 135.498 54.0289 136.271C53.0824 138.457 52.4559 139.844 49.8564 140.163C48.9633 139.217 47.7636 138.51 47.1637 137.217L45.7906 131.165C45.4574 132.405 45.1508 135.298 43.6578 135.551C41.1916 135.991 39.8586 130.512 38.7122 129.139L37.4858 134.311C36.2594 134.938 36.4327 132.992 36.4993 132.192C36.7126 129.459 38.3523 127.006 38.0723 124.207C38.7122 123.994 39.6586 123.86 40.1785 124.407C40.4585 124.7 41.7115 128.579 42.1115 129.432C42.2448 129.726 42.4047 130.152 42.7513 130.246C43.0846 128.633 44.0844 123.3 45.4574 122.501C46.2439 122.034 47.4836 122.207 48.3368 122.407L48.3501 122.421Z" fill="black"/>
<path d="M21.143 90.988C22.3427 90.8147 23.7558 91.2812 24.5823 92.1477C25.582 93.2008 24.9422 96.5334 23.7824 97.4532C20.2899 100.253 16.8773 91.6145 21.143 90.988Z" fill="black"/>
</svg>
