<svg width="153" height="220" viewBox="0 0 153 220" fill="none" xmlns="http://www.w3.org/2000/svg">
<path d="M38.2474 218.553C36.464 218.553 34.4519 218.37 32.9276 216.998C29.5894 213.965 28.0499 208.797 26.7085 204.255C26.3579 203.096 26.0378 201.984 25.6872 200.978L25.611 200.764C23.1874 193.6 22.349 191.954 22.0899 191.573C21.9985 191.542 21.8613 191.512 21.7698 191.481C21.1449 191.329 19.834 191.009 19.6053 189.317C19.3462 187.396 20.6571 186.726 21.4497 186.329C22.1356 185.979 22.41 185.811 22.5015 185.338C22.3948 184.805 21.8155 182.671 21.5259 181.619C21.3887 181.101 21.2668 180.689 21.2211 180.507C21.0686 179.943 20.8857 179.272 20.6876 178.54C19.6663 174.836 18.2639 169.76 18.8127 166.879C19.3462 164.09 20.1693 162.063 22.6844 160.538C24.7574 159.288 27.867 158.16 29.9095 157.581C30.2449 157.49 30.7326 157.429 31.2814 157.353C31.7539 157.292 32.6228 157.185 32.8362 157.078C32.8819 157.002 33.1715 156.499 33.3392 156.209C33.5831 155.783 33.8117 155.371 34.0556 155.081C34.1166 155.005 34.1928 154.914 34.269 154.837C33.7965 154.99 33.2477 155.051 32.6228 155.051C32.4094 155.051 32.1655 154.975 31.9978 154.837C29.6961 152.993 29.7114 150.569 29.7114 148.435C29.7114 147.734 29.7114 147.064 29.6504 146.408C29.3303 146.667 28.9949 146.942 28.6748 147.201C27.5926 148.1 26.4799 149.015 25.2909 149.838C21.7088 152.338 18.4773 153.542 15.4288 153.542H15.0629C12.7613 153.466 11.2522 151.972 10.9473 149.457C10.5053 145.905 13.5539 141.972 14.4989 140.86C14.7123 140.601 15.0629 140.296 15.505 139.915C15.7184 139.732 16.0232 139.457 16.3128 139.183C13.4624 139 7.47196 138.207 6.2068 135.769C4.88067 133.238 7.88352 130.235 10.1395 128.696C8.99625 127.126 8.56945 125.586 8.85907 124.108C9.27063 122.05 11.054 120.251 14.1788 118.757C16.2366 117.782 18.9804 117.569 21.404 117.386C21.6784 117.37 21.9375 117.34 22.2119 117.325C22.1052 117.096 21.9832 116.867 21.8918 116.7C21.6479 116.242 21.4497 115.831 21.3887 115.663C20.3979 113.041 19.834 110.359 19.2852 107.783C18.7212 105.1 18.1877 102.554 17.2122 100.039C17.1665 99.9172 17.136 99.7953 17.1207 99.6886C16.7701 99.6276 16.3433 99.5057 15.9927 99.2313C13.3405 97.204 10.4138 90.7105 9.60597 87.7991C9.07247 85.909 8.03595 79.949 8.32557 77.9217C8.75237 74.9799 10.3224 73.0745 11.8467 71.2301C12.807 70.0716 13.7063 68.9742 14.3008 67.6633C14.3922 67.4651 14.4989 67.0536 14.6209 66.6725C15.0324 65.2092 15.5964 63.1971 17.2274 63.1971C17.3341 63.1971 17.4408 63.1971 17.5475 63.2276C19.3767 63.5629 19.148 65.0262 19.0566 65.514C19.0261 65.6664 19.0108 65.8189 19.0108 65.9256C19.3309 69.7058 20.5961 73.4098 21.9527 77.312C23.2026 80.9703 24.5135 84.7658 25.0013 88.6985C25.3671 91.5946 25.1233 92.6159 24.6965 94.445C24.5745 94.9481 24.4373 95.5425 24.3001 96.259C24.2087 97.4479 26.3884 109.459 26.8762 111.563C27.0896 112.462 28.5834 117.538 28.9949 118.498C29.5894 118.986 31.129 120.145 31.4491 120.312C31.8301 120.48 32.3941 120.556 32.9886 120.632C34.2538 120.8 35.8238 121.029 36.5707 122.401C36.7231 122.66 36.7841 122.949 36.8146 123.193C37.0737 123.01 37.3481 122.843 37.6682 122.69C40.0003 121.654 42.4849 120.77 44.8781 119.931C46.4786 119.367 48.0029 118.834 49.4662 118.254L50.1673 117.98C55.6243 115.861 58.6729 114.383 59.2216 113.59C59.5722 113.072 60.3039 110.481 60.2886 109.795C60.2886 109.596 60.1819 109.398 60.0143 109.063C59.8161 108.697 59.5875 108.24 59.4808 107.645C59.2978 106.655 59.4503 105.755 59.5722 104.963C59.6484 104.49 59.7247 104.033 59.7247 103.606C59.7247 103.057 59.6637 102.432 59.618 101.823C59.5417 100.984 59.4655 100.115 59.5112 99.3075C59.6484 96.8534 60.06 94.5213 60.4868 92.2653C60.9898 89.5216 61.5081 86.6864 61.4776 83.6683C61.4776 83.0434 61.6148 82.4336 61.752 81.8544C61.7824 81.7325 61.8129 81.6105 61.8434 81.4886C61.3556 81.2752 60.5783 80.9703 60.1057 80.7874C59.2826 80.4673 58.7796 80.2691 58.5052 80.1167C54.3134 77.7693 50.0759 69.9345 47.9266 65.4683C41.4484 52.024 40.1832 36.7659 44.5427 24.6325C48.0029 15.0143 54.8926 7.60621 64.4652 3.21625C66.0657 2.48459 66.7821 2.46935 67.59 2.46935C67.9711 2.46935 68.3521 2.46935 68.9314 2.37789C69.2972 2.31692 69.7697 2.14925 70.2575 1.95109C70.9739 1.67672 71.797 1.35662 72.6811 1.26516C74.0377 1.11273 75.4858 1.05176 76.9796 1.05176C85.0584 1.05176 96.7039 3.30771 102.923 9.63351C107.603 14.4045 110.499 24.8307 112.816 33.199C113.38 35.2568 113.928 37.1927 114.416 38.7932C115.163 41.1711 116.154 43.3051 117.465 45.3172L119.797 45.0885C119.736 44.9361 119.69 44.7837 119.66 44.6312C118.943 40.7748 119.218 35.2721 119.431 30.8516C119.477 30.0743 119.507 29.3274 119.538 28.6262C119.553 28.1079 119.66 27.422 119.766 26.6903C119.888 25.9129 120.041 24.8459 119.995 24.4649C119.919 24.2972 119.355 23.535 118.989 23.0168C118.425 22.2546 117.907 21.5382 117.663 21.0047C116.916 19.3128 116.443 16.8282 117.373 14.9533C117.922 13.8253 118.913 13.0632 120.208 12.7431C120.91 12.5754 121.596 12.4839 122.266 12.4839C124.675 12.4839 126.732 13.5967 127.799 15.4563C128.882 17.3464 128.745 19.7243 127.418 21.965C127.068 22.5443 126.595 23.0168 126.138 23.4741C125.681 23.9161 125.254 24.3582 125.025 24.8155C124.934 26.5074 124.873 28.1841 124.797 29.8761C124.72 31.7205 124.644 33.5801 124.537 35.4245C124.507 36.1562 124.385 36.9488 124.294 37.7109C124.187 38.4426 124.095 39.1438 124.065 39.7535C124.019 40.729 123.928 43.9758 123.958 45.058C124.309 45.18 124.949 45.3324 125.33 45.4086C125.833 45.5153 126.306 45.622 126.656 45.7592C127.495 46.0793 128.348 46.4604 129.293 46.9634C129.568 46.7805 129.842 46.5823 130.132 46.3994C131.305 45.5915 132.54 44.7532 133.79 44.1282C134.064 43.991 134.384 43.9148 134.689 43.8538C134.948 43.7929 135.223 43.7319 135.406 43.6404C135.482 43.5947 135.543 43.549 135.65 43.4423C135.878 43.2136 136.275 42.8173 136.991 42.8173C137.357 42.8173 137.768 42.924 138.271 43.1527C140.299 44.052 140.725 46.125 141.046 47.7865C141.122 48.1981 141.213 48.6096 141.305 48.9755C142.524 53.2892 143.317 56.978 143.515 62.0691C143.515 62.3892 143.545 62.7246 143.561 63.0599C143.713 65.9408 143.926 69.4924 140.39 70.9405L140.527 72.1447C141.076 71.977 141.747 71.6721 142.402 71.3825C143.393 70.9405 144.429 70.4832 145.375 70.3003C145.42 70.3003 145.481 70.285 145.527 70.285C146.685 70.285 147.219 70.8338 147.57 71.3216C147.859 71.7179 147.966 72.3123 148.286 76.748C148.362 77.8303 148.438 78.7753 148.484 79.1869C148.911 82.3727 149.643 85.528 150.328 88.5765C150.679 90.1161 151.03 91.6708 151.35 93.2104C151.578 94.3231 151.441 95.8931 150.649 96.8839C150.069 97.6003 149.002 97.6461 147.874 97.707C147.265 97.7375 146.167 97.7832 145.847 98.0424C145.878 98.2558 145.939 98.6064 145.984 98.9112C146.243 100.359 146.442 101.64 146.259 102.493C146.121 103.133 145.786 103.743 145.496 104.292C145.375 104.521 145.176 104.886 145.146 105.008C145.161 105.054 145.283 105.542 145.359 105.847C145.466 106.289 145.573 106.716 145.603 106.99L145.71 107.889C146.091 111.075 146.548 115.023 144.673 117.95C144.369 118.422 143.85 118.879 143.393 119.291C143.21 119.459 143.027 119.611 142.92 119.718C142.859 120.023 142.814 120.831 142.798 121.318C142.768 122.035 142.722 122.721 142.631 123.193C142.219 125.281 141.305 129.992 137.25 131.119C137.25 131.165 137.25 131.211 137.25 131.257C137.159 132.857 137.037 135.052 135.558 136.134C135.238 136.363 134.826 136.485 134.293 136.485C132.159 136.485 127.647 134.442 126.626 133.665C125.528 132.842 124.339 130.738 123.989 129.595C123.806 129.016 123.882 128.437 123.943 128.025C123.943 127.934 123.974 127.797 123.989 127.705C123.913 127.659 123.806 127.598 123.73 127.553C123.47 127.4 123.15 127.217 122.891 126.928C122.571 126.577 122.343 126.15 122.129 125.739C121.992 125.48 121.763 125.022 121.626 124.946C121.26 124.717 120.59 124.474 119.934 124.245C119.263 124.016 118.547 123.757 117.892 123.437C117.419 124.093 116.794 124.565 116.23 124.992C115.819 125.312 115.422 125.602 115.133 125.937C114.934 128.879 114.645 131.836 114.279 134.732C112.618 147.567 111.52 159.319 110.788 171.727C110.636 174.318 110.407 176.482 110.102 178.327C110.24 178.418 110.423 178.494 110.621 178.571C110.926 178.693 111.261 178.845 111.566 179.058C112.267 179.561 112.816 180.964 113.7 184.592L113.776 184.896C114.462 187.625 115.102 190.552 114.843 193.646C114.813 194.073 114.66 194.423 114.538 194.713C114.477 194.85 114.401 195.048 114.401 195.124C114.37 195.673 114.401 196.313 114.431 196.969C114.492 197.929 114.538 198.92 114.401 199.895C114.188 201.435 113.7 203.203 111.718 204.499C110.194 205.49 107.389 206.785 104.844 207.928C97.8014 211.084 91.7195 212.486 85.1651 212.486C82.9701 212.486 80.7751 212.334 78.4277 211.998C77.0558 211.815 75.6687 211.541 74.3426 211.297C72.2543 210.901 70.0898 210.505 67.9558 210.367C66.8431 213.812 65.0902 214.574 61.8434 215.276C54.5421 216.861 44.7256 218.599 39.101 218.705C38.7961 218.705 38.476 218.705 38.1559 218.705" fill="#FF0A8F"/>
<path d="M36.3267 149.351C36.6316 150.738 36.7688 152.186 36.1743 153.329C38.2321 151.911 41.0063 150.387 42.0886 149.945C42.5763 149.747 43.1403 149.671 43.6738 149.594C43.9939 149.549 44.4969 149.488 44.6341 149.412C45.442 148.802 46.2346 147.232 46.9206 145.845C47.3474 145.006 47.7437 144.214 48.1552 143.604C48.3077 143.391 48.4601 143.223 48.6125 143.101C48.2162 143.162 47.8351 143.208 47.4693 143.223C47.3016 143.223 47.134 143.223 46.9663 143.223C46.3718 143.223 45.8231 143.177 45.3048 143.116C44.9085 143.086 44.5122 143.04 44.1311 143.04C43.5062 143.04 42.805 143.131 41.9057 143.802C41.113 144.397 40.4728 145.205 39.8021 146.073C38.8876 147.262 37.851 148.588 36.3115 149.32" fill="#FF0A8F"/>
<path d="M76.9641 1.95041C85.6983 1.95041 96.536 4.46549 102.222 10.2425C107.907 16.0196 111.063 31.2473 113.486 39.0059C114.309 41.6277 115.437 44.0056 116.992 46.2768L121.153 45.8652C121.138 45.347 120.711 44.7982 120.635 44.3714C119.812 39.9662 120.33 33.2136 120.528 28.595C120.574 27.4518 121.092 25.1349 120.986 24.266C120.909 23.6411 118.989 21.4918 118.577 20.5315C117.495 18.0622 117.266 14.4039 120.467 13.596C121.108 13.4436 121.717 13.3673 122.297 13.3673C126.458 13.3673 129.095 17.1628 126.61 21.3546C125.97 22.4369 124.598 23.2143 124.095 24.4794C123.912 28.0615 123.79 31.6741 123.607 35.2562C123.531 36.628 123.196 38.2743 123.135 39.6004C123.089 40.4235 122.937 45.1031 123.074 45.4689C123.272 46.0024 125.513 46.2615 126.351 46.5664C127.403 46.9627 128.394 47.4505 129.385 47.984C130.939 46.9627 132.601 45.7128 134.262 44.8897C134.643 44.7068 135.329 44.661 135.863 44.4019C136.427 44.1428 136.503 43.6702 137.036 43.6702C137.25 43.6702 137.524 43.7465 137.921 43.9141C139.933 44.7982 139.917 47.3285 140.42 49.112C141.716 53.7001 142.402 57.1907 142.6 61.977C142.737 65.2847 143.393 69.0192 139.384 70.1319L139.734 73.0433C139.856 73.1348 139.933 73.1653 140.024 73.1653C140.146 73.1653 140.253 73.0891 140.405 73.0586C141.884 72.7537 144.018 71.4276 145.633 71.1075C145.664 71.1075 145.694 71.1075 145.725 71.1075C146.258 71.1075 146.548 71.3056 146.853 71.7324C147.158 72.1592 147.432 77.9363 147.6 79.1557C148.255 83.9877 149.536 88.6216 150.481 93.2402C150.664 94.1243 150.557 95.3894 149.978 96.1059C149.261 96.9899 145.633 95.9991 144.963 97.5844C144.826 97.9045 145.664 100.892 145.405 102.112C145.207 103.041 144.353 104.124 144.292 104.672C144.246 105.023 144.688 106.349 144.749 106.913C145.115 110.16 145.816 114.336 143.972 117.233C143.545 117.888 142.28 118.787 142.158 119.107C141.929 119.702 141.975 121.927 141.807 122.827C141.198 125.967 140.1 129.595 136.472 130.143C136.335 131.637 136.472 134.183 135.131 135.173C134.979 135.28 134.75 135.341 134.445 135.341C132.586 135.341 128.302 133.42 127.357 132.719C126.488 132.064 125.391 130.159 125.056 129.137C124.827 128.406 125.269 127.537 125.025 127.079C124.796 126.653 124.11 126.5 123.745 126.089C123.211 125.494 122.906 124.336 122.297 123.955C121.214 123.253 118.852 122.872 117.678 121.882C117.099 123.543 115.254 124.107 114.325 125.418C114.126 128.436 113.837 131.469 113.456 134.457C111.825 147.139 110.697 158.846 109.965 171.513C109.828 173.799 109.614 176.284 109.203 178.509C109.675 179.18 110.56 179.271 111.154 179.698C111.87 180.216 112.709 183.89 112.983 184.987C113.684 187.777 114.264 190.551 114.02 193.417C113.974 193.95 113.608 194.438 113.578 194.91C113.486 196.328 113.821 198.066 113.593 199.62C113.364 201.312 112.831 202.562 111.337 203.538C109.721 204.59 106.444 206.068 104.6 206.891C98.0298 209.833 91.9937 211.357 85.3173 211.357C83.1985 211.357 81.0035 211.205 78.7171 210.885C74.9368 210.367 71.2176 209.33 67.3764 209.208C66.4161 212.79 65.1052 213.446 61.767 214.177C55.7003 215.488 45.2437 217.47 39.2227 217.577C38.9178 217.577 38.613 217.577 38.2929 217.577C36.6162 217.577 34.8937 217.424 33.6438 216.281C29.6654 212.668 28.324 205.519 26.6625 200.657C26.1443 199.148 23.4768 191.206 22.7299 190.764C22.0744 190.368 20.8245 190.627 20.6264 189.179C20.3063 186.816 23.2634 187.67 23.5378 185.353C23.5682 185.094 22.4098 180.994 22.2269 180.262C21.3885 176.985 19.2088 170.293 19.8337 167.062C20.3063 164.562 21.0227 162.733 23.2481 161.376C25.1383 160.233 28.0497 159.135 30.2294 158.526C30.9306 158.327 32.9121 158.266 33.4152 157.916C33.842 157.626 34.4212 156.254 34.8632 155.706C35.9302 154.41 40.8537 151.529 42.4999 150.858C43.323 150.523 44.7406 150.599 45.2589 150.218C46.8289 149.044 47.9569 145.722 49.0087 144.167C49.4202 143.572 49.847 143.709 49.9232 143.587C50.2738 143.084 50.411 142.261 50.7159 141.697C49.7098 141.926 48.4751 142.2 47.4539 142.246C47.3014 142.246 47.149 142.246 46.9966 142.246C45.9296 142.246 45.0303 142.078 44.1767 142.078C43.323 142.078 42.4085 142.261 41.372 143.039C39.1008 144.731 38.11 147.901 35.2138 148.74C35.8693 151.331 36.2656 154.075 32.6835 154.075C29.5892 151.605 31.4641 147.977 30.3666 144.655C28.4917 146.087 26.754 147.688 24.8182 149.044C22.1202 150.935 18.8887 152.566 15.5047 152.566C15.398 152.566 15.2761 152.566 15.1694 152.566C13.2031 152.505 12.2123 151.209 11.9836 149.334C11.6635 146.682 13.6299 143.466 15.3066 141.484C15.8706 140.813 18.3856 138.999 18.2027 138.207C18.0046 138.222 17.7607 138.222 17.5016 138.222C14.5749 138.222 8.1729 137.292 7.13638 135.28C5.97792 133.039 9.89535 129.869 11.6635 128.909C7.89853 124.717 10.3526 121.683 14.6664 119.61C17.151 118.421 20.9312 118.452 23.6749 118.147C23.7816 117.903 22.5317 115.739 22.364 115.297C20.413 110.114 20.1691 104.779 18.1875 99.6574C18.0808 99.3831 18.1418 98.9105 18.1113 98.8343C18.0351 98.7124 17.1357 98.7886 16.648 98.4228C14.2701 96.6089 11.4196 90.405 10.5965 87.4936C10.063 85.5882 9.07223 79.8417 9.34661 78.0125C9.98681 73.5616 13.6451 71.5953 15.2456 68.0132C15.6877 67.0071 16.0535 64.1262 17.2729 64.1262C17.3186 64.1262 17.3796 64.1262 17.4253 64.1262C18.66 64.3549 18.0351 65.1627 18.096 65.9401C18.7515 73.5159 23.0805 80.8325 24.0865 88.7588C24.5285 92.2799 24.0408 92.7677 23.4006 96.0144C23.2024 97.0357 25.5346 109.824 25.9919 111.73C26.2053 112.614 28.0039 118.833 28.2935 119.077C28.7356 119.458 30.7019 120.967 31.1135 121.15C32.5616 121.76 34.9699 121.348 35.7778 122.811C36.0827 123.375 35.7626 124.427 36.7534 124.534C37.1344 124.138 37.6222 123.756 38.1405 123.528C41.9359 121.821 46.1735 120.586 49.908 119.107C51.9505 118.3 59.0232 115.678 60.1055 114.092C60.5933 113.391 61.3554 110.587 61.3402 109.718C61.3249 108.895 60.6847 108.376 60.517 107.416C60.2732 106.044 60.7762 104.825 60.7762 103.544C60.7762 102.264 60.4866 100.618 60.5628 99.2916C60.8524 93.9414 62.5748 89.2161 62.5291 83.5914C62.5291 82.7226 62.8949 81.7928 62.9864 80.9392C62.9407 80.6191 59.6482 79.5216 59.0385 79.171C55.0601 76.9455 50.853 69.0802 48.8562 64.9493C38.6892 43.8684 40.3812 15.288 64.907 4.0082C67.0715 3.01741 67.2544 3.52043 69.114 3.23081C70.1658 3.06314 71.4615 2.27051 72.8181 2.13332C74.129 1.99614 75.5466 1.91992 77.0251 1.91992" fill="#FF0A8F"/>
<path d="M76.9643 0C75.4247 0 73.9462 0.0762145 72.5591 0.228644C71.553 0.335344 70.6385 0.685931 69.8915 0.975546C69.4647 1.14322 69.0227 1.31089 68.7636 1.34138C68.2606 1.41759 67.9252 1.41759 67.5594 1.41759C66.5534 1.41759 65.6997 1.4938 64.0383 2.25595C54.2218 6.76785 47.1644 14.3588 43.6128 24.2362C39.1618 36.5982 40.4423 52.146 47.0424 65.8189C49.7404 71.3978 53.8255 78.5467 58.0326 80.9094C58.3679 81.0923 58.8862 81.3057 59.755 81.641C60.0141 81.7477 60.3647 81.8849 60.7153 82.0221C60.6086 82.5251 60.5019 83.0586 60.5172 83.6378C60.5476 86.5645 60.0599 89.232 59.5416 92.0519C59.1301 94.3383 58.688 96.701 58.5508 99.2008C58.5051 100.07 58.5813 100.984 58.6575 101.853C58.7185 102.463 58.7642 103.057 58.7642 103.545C58.7642 103.896 58.7033 104.307 58.627 104.749C58.4899 105.572 58.3222 106.609 58.5356 107.767C58.6728 108.514 58.9624 109.078 59.1605 109.475C59.2215 109.581 59.2977 109.734 59.3282 109.795C59.2825 110.435 58.7337 112.432 58.4441 112.98C57.9716 113.483 56.0815 114.596 49.8471 117.02L49.146 117.294C47.6979 117.873 46.1888 118.392 44.5883 118.956C42.1952 119.794 39.7106 120.663 37.3632 121.715C36.3419 120.053 34.4213 119.779 33.1409 119.611C32.6684 119.55 32.1806 119.474 31.891 119.382C31.5404 119.169 30.4429 118.346 29.8332 117.858C29.3607 116.593 28.065 112.188 27.8516 111.288C27.3334 109.078 25.3365 97.9357 25.306 96.2742C25.4432 95.6188 25.5652 95.0853 25.6719 94.6127C26.1444 92.5702 26.3578 91.4574 25.992 88.5156C25.489 84.4762 24.1628 80.6502 22.8977 76.931C21.5715 73.0745 20.3216 69.4314 20.0168 65.7731C20.0168 65.7579 20.032 65.6817 20.0472 65.6055C20.474 62.9989 18.5839 62.3587 17.7456 62.2063C17.5779 62.1758 17.4102 62.1606 17.2425 62.1606C14.8647 62.1606 14.133 64.7824 13.691 66.3371C13.5995 66.642 13.4928 67.0536 13.4318 67.206C12.8983 68.3949 12.0295 69.4467 11.1149 70.5594C9.57537 72.4191 7.83768 74.5226 7.38039 77.7388C7.04505 80.0253 8.14253 86.0919 8.69128 88.0278C9.4077 90.5733 12.3648 97.6308 15.4286 99.9782C15.7335 100.207 16.0536 100.359 16.3737 100.466C17.3035 102.874 17.8218 105.344 18.3705 107.966C18.9193 110.587 19.4985 113.301 20.5045 115.999C20.5503 116.12 20.6112 116.273 20.7027 116.441C18.3705 116.623 15.8097 116.883 13.7977 117.858C10.3832 119.489 8.40166 121.532 7.92913 123.894C7.62428 125.388 7.92913 126.912 8.84371 128.437C6.55727 130.19 3.81355 133.223 5.36833 136.195C6.603 138.558 10.932 139.534 14.0568 139.915C13.9501 140.021 13.8586 140.113 13.7824 140.219C12.4868 141.759 9.52964 145.737 10.0022 149.579C10.368 152.581 12.2581 154.426 15.0628 154.517C15.2 154.517 15.3219 154.517 15.4591 154.517C18.7211 154.517 22.1355 153.252 25.8853 150.646C26.8913 149.944 27.8516 149.182 28.7662 148.42C28.7662 150.661 28.7509 153.45 31.4185 155.584C31.6928 155.798 32.0129 155.935 32.3483 155.996C32.3025 156.072 32.2568 156.148 32.2111 156.225C31.9062 156.286 31.4489 156.331 31.1746 156.377C30.5801 156.453 30.0771 156.514 29.6503 156.636C27.4553 157.261 24.3305 158.404 22.1813 159.7C19.3613 161.407 18.4163 163.724 17.8523 166.696C17.2578 169.806 18.7059 175.004 19.7424 178.799C19.9405 179.531 20.1235 180.186 20.2759 180.75C20.3216 180.933 20.4436 181.36 20.5807 181.863C20.8094 182.686 21.2819 184.424 21.4648 185.217C21.3581 185.278 21.16 185.369 21.0075 185.445C20.1844 185.857 18.2791 186.817 18.6297 189.439C18.9345 191.695 20.6722 192.213 21.4343 192.396C21.8002 193.112 22.6843 195.17 24.6658 201.054L24.7421 201.283C25.0774 202.273 25.3975 203.371 25.7481 204.529C27.1352 209.209 28.7205 214.498 32.2568 217.714C34.0097 219.315 36.2505 219.528 38.2168 219.528C38.5369 219.528 38.857 219.528 39.1771 219.528C44.8627 219.422 54.7553 217.684 62.1024 216.083C65.5321 215.337 67.4679 214.391 68.6874 211.251C70.5013 211.419 72.3304 211.754 74.2205 212.105C75.5619 212.349 76.949 212.608 78.3514 212.806C80.7445 213.142 82.9852 213.294 85.2259 213.294C91.9328 213.294 98.1214 211.861 105.301 208.645C107.877 207.486 110.727 206.176 112.313 205.154C114.645 203.645 115.209 201.542 115.437 199.88C115.59 198.813 115.529 197.716 115.468 196.771C115.437 196.161 115.407 195.597 115.422 195.124C115.437 195.063 115.468 195.003 115.498 194.942C115.636 194.606 115.818 194.149 115.864 193.585C116.139 190.338 115.483 187.32 114.782 184.5L114.706 184.195C113.73 180.217 113.136 178.799 112.191 178.113C111.871 177.885 111.535 177.717 111.246 177.595C111.505 175.888 111.688 173.922 111.825 171.635C112.556 159.258 113.654 147.521 115.315 134.717C115.681 131.897 115.956 129.046 116.154 126.227C116.367 126.044 116.626 125.83 116.885 125.632C117.312 125.312 117.785 124.946 118.212 124.489C118.699 124.687 119.202 124.87 119.66 125.022C120.163 125.205 120.727 125.388 121.032 125.556C121.108 125.678 121.214 125.891 121.306 126.044C121.535 126.486 121.794 126.989 122.205 127.431C122.464 127.705 122.739 127.903 122.983 128.056C122.922 128.513 122.906 129.107 123.105 129.732C123.501 130.982 124.797 133.314 126.092 134.29C127.251 135.159 131.945 137.308 134.339 137.308C135.07 137.308 135.695 137.125 136.183 136.775C137.86 135.555 138.134 133.421 138.241 131.699C142.295 130.113 143.256 125.22 143.637 123.239C143.743 122.705 143.774 121.989 143.82 121.227C143.835 120.891 143.865 120.388 143.896 120.038C143.957 119.977 144.033 119.931 144.094 119.87C144.597 119.413 145.176 118.91 145.542 118.331C147.615 115.099 147.112 110.953 146.716 107.615L146.609 106.731C146.563 106.365 146.457 105.923 146.335 105.45C146.304 105.298 146.243 105.1 146.213 104.932C146.274 104.825 146.335 104.704 146.38 104.612C146.685 104.033 147.066 103.332 147.234 102.554C147.463 101.518 147.265 100.207 146.975 98.6064C147.295 98.5759 147.661 98.5606 147.935 98.5454C149.17 98.4844 150.557 98.4235 151.426 97.3717C152.493 96.0456 152.584 94.1249 152.325 92.8903C152.005 91.3355 151.655 89.7655 151.304 88.2412C150.618 85.2078 149.902 82.0831 149.475 78.943C149.429 78.5772 149.353 77.5559 149.277 76.5651C148.941 71.9465 148.85 71.2758 148.377 70.6204C148.118 70.2698 147.341 69.1876 145.664 69.1876H145.496C145.39 69.1876 145.283 69.2028 145.192 69.2333C144.582 69.3552 143.942 69.5686 143.317 69.8278C144.81 67.7852 144.658 64.9958 144.536 62.9075C144.521 62.5874 144.506 62.252 144.49 61.9319C144.277 56.7341 143.469 52.9843 142.234 48.6096C142.143 48.2895 142.067 47.9085 141.99 47.4969C141.655 45.8049 141.137 43.2594 138.652 42.1619C138.012 41.8723 137.479 41.7503 136.976 41.7503C135.863 41.7503 135.223 42.3905 134.948 42.6649C134.948 42.6649 134.918 42.6801 134.918 42.6954C134.811 42.7411 134.613 42.7716 134.461 42.8173C134.11 42.8935 133.729 42.985 133.348 43.1679C132.022 43.8234 130.772 44.677 129.568 45.5001C129.446 45.5763 129.339 45.6677 129.217 45.744C128.44 45.3476 127.723 45.0428 126.991 44.7684C126.58 44.616 126.077 44.5093 125.543 44.3873C125.376 44.3416 125.147 44.2959 124.934 44.2502C124.934 42.924 125.01 40.6376 125.056 39.7383C125.086 39.159 125.178 38.4883 125.269 37.7567C125.376 36.9793 125.482 36.1714 125.528 35.394C125.62 33.5344 125.696 31.6748 125.787 29.8304C125.864 28.2299 125.924 26.6294 126.001 25.0289C126.184 24.7545 126.504 24.4344 126.839 24.099C127.312 23.6265 127.86 23.093 128.272 22.3918C129.781 19.8463 129.918 17.1178 128.653 14.9076C127.418 12.7431 125.025 11.4474 122.266 11.4474C121.519 11.4474 120.742 11.5389 119.965 11.737C118.364 12.1334 117.16 13.0784 116.474 14.4655C115.132 17.2092 116.352 20.4255 116.748 21.3401C117.023 21.9803 117.587 22.7424 118.181 23.5503C118.44 23.9161 118.821 24.4191 119.004 24.724C118.989 25.1356 118.852 25.9739 118.776 26.4922C118.669 27.2543 118.562 27.9555 118.532 28.5347C118.501 29.2359 118.471 29.9676 118.425 30.7449C118.212 34.9977 117.952 40.2565 118.562 44.1739L117.937 44.2349C116.824 42.4515 115.971 40.5461 115.315 38.4426C114.828 36.8726 114.294 34.9367 113.73 32.8942C111.383 24.4039 108.456 13.8406 103.594 8.90186C97.1764 2.33217 85.2259 0 76.9643 0Z" fill="#FF0A8F"/>
<path d="M37.4243 149.868C38.7962 149.029 39.7412 147.81 40.5948 146.697C41.2198 145.889 41.8143 145.112 42.5002 144.609C43.1404 144.136 43.5825 144.045 44.1464 144.045C44.4665 144.045 44.8171 144.075 45.2287 144.121C45.6555 144.167 46.1433 144.213 46.6615 144.228C46.4634 144.609 46.25 145.005 46.0518 145.417C45.5031 146.499 44.7714 147.962 44.1617 148.542C43.994 148.572 43.7349 148.603 43.552 148.633C42.9727 148.709 42.3325 148.801 41.7228 149.045C40.8845 149.38 39.223 150.264 37.5615 151.27C37.5615 150.782 37.5005 150.325 37.4243 149.868Z" fill="#FF0A8F"/>
<path d="M8.32577 59.2031C9.28608 59.2031 10.3226 59.386 11.4658 59.7366C12.3499 59.9958 13.1578 60.1482 12.4566 61.2304C11.6792 62.4346 6.26798 66.3063 4.86563 66.6569C4.40835 66.7636 4.01203 66.8246 3.6462 66.8246C0.871992 66.8246 0.795777 63.7608 3.006 61.642C4.75893 59.9653 6.40517 59.2184 8.32577 59.2184" fill="#FF0A8F"/>
<path d="M28.1717 51.4443C30.9611 51.4443 28.0193 56.4593 27.3486 57.5415C25.8243 59.9651 25.2298 60.1175 22.8672 61.3522C22.5775 61.5047 22.3946 61.9772 22.3032 62.0077C22.2422 62.0229 22.1812 62.0382 22.1203 62.0382C21.5258 62.0382 20.9008 61.0931 20.977 60.4377C21.1447 58.7914 23.5836 54.0814 24.9402 52.9991C25.1231 52.8467 27.5925 51.4901 27.7601 51.4748C27.9126 51.4596 28.065 51.4443 28.1869 51.4443" fill="#FF0A8F"/>
<path d="M31.1595 64.9651C31.2814 64.9651 31.4034 64.9651 31.5101 64.9803C32.3942 65.1022 36.1134 66.5351 36.0525 67.4649C35.9305 69.3855 33.7051 69.9647 31.2967 69.9647C29.0712 69.9647 26.6781 69.4617 25.6263 69.0502C24.5136 68.6081 24.0411 67.8002 24.9251 66.7942C25.1385 66.5503 25.4891 66.6723 25.672 66.5656C26.8305 65.9254 29.6657 64.9346 31.1747 64.9346" fill="#FF0A8F"/>
<path d="M134.217 44.8902C134.598 44.7073 135.284 44.6615 135.817 44.4024C136.594 44.0366 136.442 43.2744 137.875 43.9146C139.887 44.7987 139.872 47.3291 140.375 49.1125C141.67 53.7006 142.356 57.1912 142.554 61.9775C142.692 65.2852 143.347 69.0197 139.338 70.1324L139.689 73.0438C139.978 73.2725 140.1 73.1048 140.344 73.0591C141.823 72.7542 143.957 71.4281 145.573 71.108C146.167 71.0928 146.457 71.2757 146.792 71.733C147.097 72.1598 147.371 77.9368 147.539 79.1562C148.194 83.9883 149.475 88.6221 150.42 93.2407C150.603 94.1248 150.496 95.3899 149.917 96.1064C149.2 96.9905 145.573 95.9997 144.902 97.5849C144.765 97.905 145.603 100.893 145.344 102.112C145.146 103.042 144.292 104.124 144.231 104.673C144.185 105.023 144.627 106.365 144.688 106.914C145.054 110.16 145.755 114.337 143.911 117.233C143.484 117.888 142.219 118.788 142.097 119.108C141.868 119.702 141.914 121.928 141.747 122.827C141.137 125.967 140.039 129.595 136.412 130.144C136.274 131.638 136.412 134.183 135.07 135.174C133.973 135.982 128.394 133.528 127.296 132.72C126.427 132.064 125.315 130.159 124.995 129.138C124.766 128.406 125.208 127.537 124.964 127.08C124.735 126.653 124.05 126.501 123.684 126.089C123.15 125.495 122.845 124.336 122.236 123.955C121.153 123.254 118.791 122.873 117.617 121.882C117.038 123.544 115.193 124.108 114.264 125.418C114.065 128.421 113.776 131.47 113.395 134.458C111.764 147.14 110.636 158.846 109.904 171.513C109.767 173.799 109.554 176.284 109.142 178.51C109.615 179.18 110.499 179.272 111.078 179.698C111.794 180.201 112.648 183.89 112.907 184.973C113.608 187.777 114.187 190.536 113.943 193.417C113.898 193.951 113.532 194.438 113.501 194.911C113.41 196.329 113.745 198.066 113.517 199.621C113.288 201.313 112.755 202.563 111.261 203.538C109.645 204.59 106.368 206.069 104.523 206.892C95.8654 210.764 88.122 212.196 78.6409 210.885C74.8607 210.367 71.1414 209.331 67.3154 209.209C66.3551 212.791 65.0442 213.446 61.706 214.178C55.6394 215.489 45.198 217.47 39.1618 217.577C37.2259 217.608 35.0767 217.638 33.5829 216.281C29.6197 212.669 28.2631 205.52 26.6016 200.657C26.0834 199.148 23.4159 191.207 22.669 190.765C22.0135 190.369 20.7636 190.628 20.5654 189.18C20.2453 186.817 23.2025 187.671 23.4768 185.354C23.5073 185.094 22.3489 180.994 22.1659 180.262C21.3276 176.985 19.1478 170.294 19.7728 167.062C20.2453 164.562 20.9617 162.733 23.1872 161.377C25.0773 160.233 27.9887 159.136 30.1685 158.526C30.8696 158.328 32.8512 158.267 33.3542 157.916C33.781 157.627 34.3603 156.255 34.8023 155.706C35.8693 154.41 40.7775 151.53 42.439 150.859C43.2621 150.524 44.6797 150.6 45.198 150.219C46.768 149.045 47.896 145.722 48.9477 144.167C49.3593 143.573 49.7861 143.71 49.8623 143.588C50.2129 143.085 50.3501 142.262 50.6549 141.698C49.6489 141.927 48.4142 142.201 47.3929 142.247C44.9388 142.369 43.4755 141.424 41.311 143.039C39.0398 144.731 38.049 147.902 35.1529 148.74C35.8083 151.331 36.2047 154.075 32.6073 154.075C29.513 151.606 31.3879 147.978 30.2904 144.655C28.4155 146.088 26.6778 147.688 24.742 149.045C21.9525 150.996 18.6143 152.688 15.0932 152.566C13.1269 152.505 12.1361 151.209 11.9075 149.335C11.5874 146.682 13.5537 143.466 15.2304 141.485C15.7944 140.814 18.3095 139 18.1266 138.207C15.7029 138.39 8.18819 137.476 7.06021 135.296C5.88651 133.055 9.81918 129.885 11.5874 128.924C7.82236 124.733 10.2765 121.699 14.5902 119.626C17.0748 118.437 20.855 118.468 23.5988 118.163C23.7055 117.919 22.4556 115.754 22.2879 115.312C20.3368 110.13 20.0929 104.795 18.1113 99.6732C18.0046 99.3988 18.0656 98.9263 18.0351 98.8501C17.9589 98.7129 17.0596 98.8044 16.587 98.4385C14.2091 96.6246 11.3587 90.4208 10.5356 87.5094C10.0021 85.604 9.02655 79.8574 9.28568 78.0283C9.92588 73.5773 13.5842 71.611 15.1847 68.0289C15.6572 66.9772 16.023 63.8981 17.3644 64.1572C18.5991 64.3859 17.9741 65.1937 18.0351 65.9711C18.6906 73.5469 23.0195 80.8635 24.0256 88.7898C24.4676 92.3109 23.9798 92.7987 23.3396 96.0454C23.1415 97.0667 25.4736 109.855 25.9309 111.761C26.1443 112.645 27.943 118.864 28.2326 119.108C28.6747 119.489 30.641 120.998 31.0525 121.181C32.5006 121.791 34.909 121.379 35.7169 122.842C36.0217 123.406 35.7016 124.458 36.6924 124.565C37.0735 124.169 37.5613 123.787 38.0795 123.559C41.875 121.867 46.1125 120.617 49.8471 119.138C51.8896 118.331 58.9471 115.709 60.0446 114.123C60.5323 113.422 61.2945 110.618 61.2792 109.749C61.264 108.926 60.6238 108.407 60.4561 107.447C60.2122 106.075 60.7152 104.856 60.7152 103.575C60.7152 102.295 60.4256 100.634 60.5018 99.3226C60.7915 93.9724 62.5139 89.2471 62.4682 83.6224C62.4682 82.7536 62.834 81.8238 62.9407 80.9702C62.895 80.6501 59.6025 79.5526 58.9928 79.202C55.0144 76.9765 50.8074 69.1112 48.8105 64.9803C38.6435 43.8994 40.3355 15.3189 64.8766 4.03919C67.0411 3.0484 67.224 3.55142 69.0836 3.2618C70.1354 3.09413 71.431 2.3015 72.7724 2.16431C81.8876 1.20401 95.591 3.49045 102.222 10.2431C107.907 16.0201 111.047 31.2478 113.486 39.0064C114.309 41.6282 115.437 44.0061 116.992 46.2773L121.153 45.8657C121.123 45.3475 120.711 44.7835 120.635 44.3719C119.812 39.9667 120.33 33.2141 120.528 28.5955C120.574 27.4523 121.092 25.1354 120.986 24.2665C120.909 23.6416 119.004 21.4923 118.577 20.532C117.495 18.0627 117.266 14.4044 120.467 13.5965C125.62 12.3161 129.446 16.5689 126.61 21.3551C125.97 22.4374 124.583 23.2148 124.095 24.4799C123.912 28.062 123.79 31.6746 123.607 35.2567C123.531 36.6285 123.196 38.2748 123.135 39.6009C123.089 40.424 122.937 45.1036 123.074 45.4694C123.272 46.0029 125.513 46.2621 126.351 46.5669C127.403 46.9632 128.409 47.451 129.385 47.9845C130.939 46.9632 132.601 45.7133 134.262 44.8902" fill="#1D1D1B"/>
<path d="M101.003 14.6173C97.4511 9.19087 90.6985 7.22453 84.7995 5.34965L80.0132 4.92285C83.9916 6.84346 89.0675 7.42269 92.2837 10.7304C99.8594 18.55 101.628 32.5125 103.167 42.8167C103.32 43.8837 103.777 45.1946 103.823 46.3531C103.868 47.1609 103.426 52.4807 103.731 52.6179C105.88 51.9167 107.649 50.0876 109.691 49.2187C110.286 48.9749 111.002 49.112 111.322 48.9291C111.901 48.5785 112.511 47.4048 112.755 46.7646L113.837 47.3591C113.197 46.2616 112.282 44.9965 111.718 43.8837C109.158 38.6707 107.649 31.7351 105.697 26.1715C103.853 22.8333 103.015 17.6964 101.003 14.6173Z" fill="#1D1D1B"/>
<path d="M93.9908 21.0666C92.4818 17.576 90.2411 12.622 86.7505 10.8386C84.4945 9.68013 81.5221 8.32352 79.1747 7.24127C74.7543 5.21396 67.3615 4.46706 63.2002 7.34797C62.5447 7.80526 58.3377 11.2654 58.4596 11.6617L65.6543 9.64965C78.2907 9.57343 82.452 21.3105 84.4183 31.6756C85.9731 39.9221 86.2017 50.2415 84.0372 58.3965C83.961 58.6708 83.6409 58.9757 84.0372 59.0672C85.0585 58.0154 86.781 57.7867 88.1223 57.3142C89.9667 56.674 91.1862 56.1253 93.1677 55.8357C95.195 55.546 96.826 55.3631 98.7619 56.3844L100.027 55.2107C99.0972 53.7474 99.8136 52.467 99.7679 51.0341C99.6002 46.1107 98.4265 41.5988 97.5729 36.8582C96.5821 31.4165 96.1553 26.0815 93.9908 21.0666Z" fill="#1D1D1B"/>
<path d="M77.33 19.9524C73.0162 11.828 66.477 10.578 58.1239 13.398C57.4532 13.6266 56.0814 14.0992 55.5783 14.5412C53.2614 16.5075 50.914 21.1719 49.8013 23.9613C45.3656 35.0582 47.4082 46.5056 50.7921 57.2976C51.1274 58.3646 51.2798 58.395 51.5999 59.2182C53.4139 63.8672 57.0264 73.074 61.0048 75.9396C61.9804 76.6408 63.1388 77.0524 64.2363 77.5249C64.6479 76.2597 65.2423 75.2689 65.974 74.1867C69.2512 69.3699 72.2388 65.986 77.2538 63.0441C77.5281 62.8765 77.9702 62.9679 78.2903 62.8002C78.6866 62.5716 80.6682 57.7548 80.7596 57.0994C80.8206 56.7183 80.531 56.0324 80.5462 55.4837C80.6682 51.6729 81.1712 47.5878 81.2626 43.5027C81.2931 42.1309 81.659 40.759 81.5523 39.4176C80.5462 39.2042 81.4151 40.9876 80.2871 41.1553C81.034 41.384 80.409 41.5059 80.2719 42.0089C79.0829 46.0788 76.4459 51.0785 73.3973 54.0661C67.4526 59.9041 61.1725 58.6999 55.7155 52.9991C54.4351 51.6577 50.8835 46.597 50.6549 44.8898C50.5177 43.8381 51.1274 43.4265 52.0268 43.9295C53.3529 44.6612 55.6546 47.847 57.0112 49.0816C59.2214 51.0785 60.9896 52.1302 64.0534 52.4351C66.1417 52.6485 67.3916 51.7644 68.9007 50.4535C73.7479 46.2922 76.5069 38.5031 76.5983 32.2077C76.5983 31.5675 76.2172 30.3024 76.3239 29.6622C76.4306 29.0982 77.1471 28.4122 77.0861 27.6501L77.894 27.0556L77.9244 27.6044C78.5951 27.5129 78.9457 26.9947 79.4792 27.7263C79.967 27.1471 79.4792 26.9947 79.4487 26.8117C79.1896 24.6015 78.3208 21.9188 77.2842 19.9524" fill="#1D1D1B"/>
<path d="M138.591 54.2797C138.393 53.2736 137.143 46.9326 136.686 46.6582C134.415 46.8411 132.037 47.5423 130.253 49.0209C131.808 49.8592 132.692 51.414 133.439 52.9078C135.268 56.5204 137.082 61.3371 138.043 65.2546C138.18 65.8338 137.814 67.1599 138.713 67.2819C138.988 67.2361 139.552 67.0989 139.735 66.9313C140.085 66.5807 139.643 60.6359 139.536 59.6604C139.338 57.9227 138.896 55.9716 138.576 54.3101" fill="#1D1D1B"/>
<path d="M126.702 50.4688C127.007 48.7159 124.065 48.6092 122.815 48.5634C116.245 48.3196 108.639 51.6425 102.938 54.8283C102.496 55.0722 99.4477 57.0233 99.5087 57.2671C100.225 57.7549 101.429 60.2243 101.323 60.9712C101.246 61.4589 100.728 61.5961 100.865 62.2821C100.957 62.7393 101.78 63.8978 101.993 64.4618C107.267 78.1347 111.078 92.1734 115.026 106.258C115.697 108.636 116.535 111.12 117.099 113.529C117.221 114.062 117.373 116.654 117.724 116.806C121.718 116.532 124.964 113.971 128.684 112.706C132.342 109.55 137.799 107.233 141.335 104.124C143.103 102.569 142.814 100.938 142.235 98.8955C141.93 98.5297 141.366 98.9717 140.817 98.7583C139.552 98.2553 140.283 96.0146 140.131 94.9629C140.71 95.0086 140.817 96.3042 141 96.3957C142.006 96.8225 140.924 94.0483 140.847 93.6367C139.156 85.1464 137.509 76.5189 135.68 68.2268C134.887 64.6447 132.342 56.1392 130.452 53.1668C130.01 52.4656 128.226 50.4078 127.479 50.3011L127.129 50.667L126.687 50.5145L126.702 50.4688Z" fill="#1D1D1B"/>
<path d="M144.811 73.6087C144.43 73.0142 140.848 74.4928 140.085 74.7062L144.216 94.5067C145.314 93.9732 146.411 93.6226 147.646 93.6836C146.305 87.0987 144.399 80.3918 144.826 73.6239" fill="#1D1D1B"/>
<path d="M97.1004 59.7523C96.0486 58.9139 95.1645 60.0419 94.4024 60.1943C93.625 60.3468 94.8444 59.5999 94.1433 59.5541C92.5275 59.4779 87.0858 60.2706 85.6682 60.9412C85.3634 61.0784 82.4824 62.8161 82.3453 62.9533C81.5526 63.7459 81.7965 64.5538 80.2722 64.7977C79.8607 64.8587 79.4796 64.5843 78.9461 64.7825C76.8273 65.5751 72.1477 69.8279 70.6082 71.6113C68.398 74.1721 65.6543 80.4217 64.9836 83.7141C63.9166 89.0187 63.2002 98.637 63.7794 104.002C63.9471 105.588 64.8159 105.252 64.8464 105.344C64.9074 105.496 65.1208 106.518 65.3342 107.127C66.264 109.749 66.9956 112.569 69.023 114.581C69.8003 112.538 71.6447 111.106 72.605 109.261C74.2055 106.213 75.1811 102.112 76.6749 98.9266C77.6047 96.9755 79.0375 95.0092 79.9369 93.0733C82.1623 88.2565 80.7752 86.8542 85.6987 83.0892C86.3084 82.6167 86.7047 81.5497 87.7565 81.7631C88.6558 81.946 89.1893 82.2204 88.9149 83.1654C88.5034 84.583 86.659 86.8085 85.9121 88.3328C84.7536 90.6802 84.2049 93.4849 83.1074 95.7408C82.5282 96.9145 81.7051 97.8901 81.1106 99.1705C78.5498 104.704 77.3151 108.697 73.9007 113.849C72.8337 115.465 70.974 117.919 70.1814 119.535C69.8613 120.175 69.7699 120.617 69.6784 121.288L69.0992 120.77C64.0995 129.778 57.1945 137.445 51.9052 146.271C51.7223 146.576 51.2802 146.728 51.1125 147.094C50.8229 147.658 50.9601 148.481 50.4723 149.213C50.3199 149.442 46.5854 152.109 46.1586 152.292C42.8661 153.71 41.1132 153.313 37.6988 155.798C36.5708 156.621 35.3819 157.536 36.0373 159.09L38.7201 155.752C41.3266 154.792 45.8995 155.402 45.0001 159.106C45.6403 159.471 45.808 158.603 46.6616 158.343C47.3628 158.13 49.2681 158.252 49.8169 158.694L49.9083 159.822C51.6003 159.182 53.5514 159.883 53.7038 161.849C53.7648 162.672 52.9112 164.852 53.5209 165.325C53.7496 165.508 55.1519 165.721 55.4873 165.66C56.7067 165.462 61.1576 160.218 62.377 158.984C65.3951 155.935 68.7486 152.902 71.599 149.731C72.4983 148.725 73.9769 147.155 74.297 145.981C75.3183 146.484 74.8305 146.103 75.0896 145.753C79.0528 140.479 81.5069 135.723 85.0585 130.175C90.0429 122.401 92.6647 113.605 98.0912 106.167C98.5332 105.572 99.2954 105.313 99.2039 104.49C101.262 104.963 99.1125 107.219 98.6247 108.377C98.1522 109.505 97.9388 110.664 97.5272 111.67C94.4481 119.276 91.0947 126.745 87.3297 134.031C92.5428 132.4 97.954 131.455 102.984 128.986C105.149 127.919 107.466 126.577 109.478 125.251C110.301 124.702 114.462 121.821 114.858 121.349C114.965 121.227 115.072 120.983 114.889 120.968C111.551 121.684 113.121 118.316 115.102 117.492C113.929 111.898 112.115 106.426 110.575 100.893C108.365 92.9666 106.2 84.9031 103.731 77.0682C102.618 73.5319 100.652 65.5903 98.8228 62.8619C98.1826 61.9168 96.6583 61.2309 97.0851 59.7066" fill="#1D1D1B"/>
<path d="M143.104 106.349L142.57 106.288C141.701 106.822 140.802 107.858 140.07 108.376C134.567 112.233 128.973 116.074 122.739 118.559C121.733 118.955 120.514 119.229 119.553 119.748C123.151 122.461 126.733 120.22 130.437 119.382C133.119 118.772 136.336 118.498 138.942 117.705C139.293 117.598 141.396 116.79 141.579 116.669C144.369 114.763 143.134 109.199 143.104 106.334" fill="#1D1D1B"/>
<path d="M137.174 127.339C138.272 126.882 139.415 124.367 139.765 123.269C139.918 122.812 140.467 119.962 140.238 119.87L125.574 123.879C128.044 124.55 134.872 128.269 137.159 127.339" fill="#1D1D1B"/>
<path d="M19.5291 78.4691C18.5535 75.2224 17.4865 72.0061 16.5567 68.7441C15.5507 72.0214 12.4411 73.6066 11.5418 76.9143C10.6729 80.0696 13.2795 89.2763 14.6208 92.4316C15.1696 93.712 17.0902 97.4313 18.4163 97.6447C18.7974 97.7057 21.221 95.4192 20.1845 94.4894L19.9406 95.0534L19.4986 94.8705L18.2334 87.935L16.9225 84.4139C16.389 86.6698 18.2029 89.9775 18.1724 91.9134C18.1724 92.4164 17.7304 92.8127 17.6389 93.2852C17.5017 94.0321 18.1267 95.2668 16.9073 95.6326L16.4043 94.901L13.0965 79.6733L13.2642 79.1398C14.194 79.338 14.4074 79.841 14.8038 80.5879C15.1239 80.4202 14.1026 77.8899 15.2153 77.6612C15.7031 77.5698 16.4805 78.3929 16.5414 77.707L15.9775 73.9725C16.0384 73.3627 16.7701 73.8658 16.9987 74.1401C16.7701 74.9023 17.1512 75.3596 17.2883 76.076C18.3401 81.3043 19.0413 86.304 20.8399 91.4103C20.9314 91.6847 21.343 91.639 21.4039 91.9134C21.6326 92.8432 20.9314 94.5656 21.6478 95.4954C23.2483 91.5018 21.9222 86.3954 20.8552 82.3408C20.5046 80.9994 19.9101 79.7038 19.5291 78.4539" fill="#1D1D1B"/>
<path d="M135.055 129.991C132.296 129.747 129.872 128.147 127.22 127.644C127.571 128.345 127.86 130.052 128.318 130.585C128.912 131.302 133.912 133.985 134.476 133.116L135.055 129.991Z" fill="#1D1D1B"/>
<path d="M105.469 180.934C104.341 178.723 105.149 176.041 105.316 173.739C106.018 164.532 107.161 154.64 108.792 145.555C109.935 139.183 111.779 132.903 112.587 126.471C109.783 128.589 106.582 130.632 103.396 132.111C100.332 133.528 97.9083 134.016 94.7378 134.915C92.7867 135.479 90.8509 136.165 88.8998 136.76C88.5949 137.491 89.2351 138.162 89.357 138.787C89.7534 140.83 90.2107 145.265 90.1497 147.323C90.1192 148.634 89.54 150.356 89.7381 151.637C89.8601 152.429 90.4545 153.481 90.6222 154.472C91.2014 157.932 91.2929 161.499 91.6892 164.974C92.0093 167.764 92.9086 170.645 92.8934 173.541C92.8782 176.193 92.3142 180.873 89.2503 181.437C88.3815 180.156 87.6803 180.903 86.5066 181.223C86.1865 181.315 85.6225 181.177 85.4853 181.269C85.3024 181.406 85.2415 181.848 84.9671 182.046C84.7384 182.214 84.2812 182.123 83.9458 182.336C83.5038 182.626 83.1989 183.174 82.6654 183.357C81.446 183.769 81.4002 182.687 81.0801 182.687C80.6076 182.687 77.9401 184.287 77.3456 184.668C74.3123 186.604 70.4406 189.561 67.956 192.137C67.4377 192.686 64.0843 196.771 64.0386 197.198C64.0386 197.32 64.8007 199.225 65.1666 199.195C69.0078 199.118 72.849 199.195 76.6902 199.195C86.3237 199.195 96.3535 199.423 105.804 197.228C108.624 196.573 110.865 195.475 111.49 192.32C111.779 190.872 109.828 181.879 108.99 180.522C108.914 180.4 108.533 179.851 108.472 179.882C108.152 181.406 106.368 182.717 105.454 180.918" fill="#1D1D1B"/>
<path d="M16.5721 92.3119C16.755 91.1839 16.3282 89.8578 15.9014 88.8213L16.5721 92.3119Z" fill="#1D1D1B"/>
<path d="M63.9928 110.618C63.124 110.039 63.3984 111.639 63.2917 112.127C62.621 114.993 62.3161 116.425 59.9077 118.346C56.9659 120.693 52.332 121.928 48.9176 123.285C45.7166 124.565 42.3479 126.562 39.1164 127.873C37.7293 128.437 36.0373 129.367 34.7265 128.117C33.9643 127.385 33.3851 125.053 32.5315 125.099C28.6445 126.288 24.9253 128.117 21.0231 129.229C16.816 130.434 14.4077 129.992 10.7036 133.025C10.4597 133.223 9.33177 134.092 9.42323 134.275C11.9536 135.342 14.7278 135.753 17.441 135.692C17.9745 135.692 20.9926 135.433 21.2975 135.311C22.4559 134.854 24.8795 132.461 26.3429 131.638C28.1568 130.616 29.2238 130.662 30.7633 132.232C30.7938 132.385 30.1231 133.802 29.9554 133.97C28.3244 135.555 25.9618 136.333 24.2393 137.567C22.3645 138.909 16.313 145.494 15.4899 147.429C15.368 147.734 15.2308 148.451 15.3832 148.695C15.7033 149.213 18.1574 148.603 18.6909 148.42C22.4712 147.155 29.3 141.088 32.1047 137.872C33.5985 136.165 34.8179 134.199 36.1898 132.4C37.2568 132.69 38.2171 132.994 38.9945 133.833C38.1866 135.296 38.0951 136.927 37.6226 138.451C37.1958 139.823 36.4794 140.905 36.2355 142.415C36.1745 142.796 35.9154 142.75 36.5404 142.948C38.3238 140.555 39.909 138.207 43.1253 138.086C45.8538 137.979 48.4146 138.36 51.1888 137.765C51.4022 137.72 53.3228 137.079 53.4143 137.003C54.2221 136.378 54.3898 135.113 54.9385 134.275C58.17 129.351 62.3466 124.702 65.4562 119.52C65.8982 118.803 66.1726 117.675 66.828 116.974C66.9804 116.349 63.7642 111.944 63.9928 110.587" fill="#1D1D1B"/>
<path d="M19.8799 93.9726L20.0781 93.5153L19.8494 93.4238L19.6665 93.8811L19.8799 93.9726Z" fill="#1D1D1B"/>
<path d="M87.6652 179.164L85.2568 137.733C84.4642 138.999 83.2905 140.553 82.696 141.895C82.132 143.145 83.2447 148.342 83.3819 150.095C84.1136 159.378 82.2235 169.469 83.3514 178.752C83.3819 179.042 83.3972 179.331 83.6106 179.56L87.6652 179.164Z" fill="#1D1D1B"/>
<path d="M30.7176 122.341L28.6141 121.564L27.9586 122.524C26.9678 122.067 26.6935 121.106 25.5198 120.695C25.1082 122.112 24.1784 120.817 23.34 120.634C22.1358 120.375 16.6484 121.747 15.3375 122.311C12.3042 123.621 10.2159 125.374 13.6455 127.92C16.8923 126.487 20.3829 124.978 23.7973 124.002C25.977 123.378 28.2025 123.286 30.1993 122.737C30.4432 122.676 30.6109 122.92 30.7023 122.341" fill="#1D1D1B"/>
<path d="M71.3855 179.47C74.1902 178.144 77.315 176.94 80.2874 176.071L80.5313 175.781C80.577 171.605 80.4246 167.428 80.699 163.267C80.8057 161.62 81.202 159.898 81.3087 158.313C81.5983 153.801 81.6288 149.335 81.0953 144.838C80.7295 144.686 77.8638 148.923 77.3608 149.548C72.605 155.493 67.651 160.599 62.1331 165.782C60.0753 167.702 56.1122 170.507 54.4964 172.473C54.3287 172.672 54.1611 172.839 54.1001 173.114L54.9842 173.51C54.786 174.181 54.7555 174.653 54.908 175.339C55.7006 178.982 59.6028 183.89 60.3802 187.808L61.5234 189.881C64.069 185.399 66.6602 181.726 71.4008 179.47" fill="#1D1D1B"/>
<path d="M51.3869 162.336C51.204 161.894 50.1828 162.763 50.0151 162.93C48.9786 163.921 45.8233 169.973 45.1069 171.604C44.924 172.03 44.4819 172.305 44.3447 172.762C44.6648 172.823 44.9697 172.579 45.2441 172.427C47.6982 171.055 49.8779 169.012 50.8077 166.269C51.0211 165.613 50.7163 165.034 50.8077 164.546C50.9144 163.936 51.4936 163.144 51.3869 162.321" fill="#1D1D1B"/>
<path d="M41.098 159.38C40.2902 158.542 39.6804 158.771 38.7506 159.304C36.1746 160.783 32.7754 166.179 32.0742 169.014C31.6932 170.523 31.8761 172.047 33.629 170.767C35.1076 169.7 39.1622 164.167 40.031 162.429C40.5036 161.469 40.6712 160.356 41.098 159.38Z" fill="#1D1D1B"/>
<path d="M38.0953 174.089C38.3849 173.967 40.0616 172.443 40.3817 172.092C42.5614 169.806 44.7869 166.269 46.0825 163.434C46.3264 162.901 46.235 162.2 46.5855 161.666C43.8418 162.596 41.6011 165.172 40.0159 167.535C39.0403 168.983 37.5008 171.696 37.1349 173.357C36.9673 174.074 37.4855 174.333 38.0953 174.089Z" fill="#1D1D1B"/>
<path d="M77.0711 181.848C78.2448 181.238 79.1594 180.628 80.4855 180.247C80.6684 179.759 80.6227 177.991 80.0739 177.869L70.8672 182.579C67.3156 185.338 64.8006 189.118 62.5903 192.99C62.9104 192.99 63.6268 192.365 63.8555 192.152C68.6722 187.457 70.9739 185.018 77.0711 181.832" fill="#1D1D1B"/>
<path d="M34.8789 171.742C31.4949 174.577 29.7573 171.041 30.9157 167.794C31.2815 166.772 32.9125 164.974 32.4095 163.983C31.8608 162.931 30.1688 163.998 29.4829 164.257C28.1415 164.73 25.8246 165.629 25.1234 166.986C24.6356 167.946 25.3978 168.678 25.0015 169.653C26.1294 174.394 26.7849 179.333 28.614 183.936C28.675 184.073 28.4921 184.363 28.614 184.637C29.1018 185.872 32.1809 185.415 33.2479 184.973C34.01 184.652 33.9338 184.226 34.4826 183.875C36.9062 182.366 41.7382 181.573 44.5886 179.958C46.9665 178.601 48.6585 176.33 50.8077 174.851C51.0821 174.668 51.2802 174.623 51.6003 174.729L51.7833 174.287C51.2345 173.982 51.0668 173.51 51.2802 172.915L50.7772 172.519C48.6737 173.312 47.1037 175.339 45.0306 175.994C43.2015 176.574 42.5003 176.558 41.5095 174.821C39.2383 176.635 36.1745 178.784 34.6197 174.988L34.9246 171.757L34.8789 171.742Z" fill="#1D1D1B"/>
<path d="M111.993 197.686C111.505 197.335 111.581 197.625 111.368 197.777C107.146 200.506 99.2802 201.573 94.2043 201.893C86.2628 202.411 78.2145 202.152 70.2272 202.243C68.9926 202.243 67.7579 202.381 66.5232 202.396C66.2641 202.396 66.1879 202.106 66.0659 202.624L67.1177 206.618C67.514 207.136 70.5016 207.121 71.34 207.243C79.6016 208.462 86.0799 209.804 94.4939 208.112C98.5333 207.289 107.039 204.179 110.469 201.984C112.13 200.932 111.81 199.362 112.008 197.686" fill="#1D1D1B"/>
<path d="M55.6394 184.363C55.3802 183.784 52.8651 177.443 52.4993 177.534L50.4873 179.729C51.2037 181.375 51.9811 183.296 52.2249 185.079C52.3926 186.299 52.0878 187.412 50.7769 187.701C50.4263 187.594 49.4507 185.811 49.2373 185.354C48.9935 184.805 48.0331 181.147 47.4387 181.284C45.6248 183.601 43.0487 184.927 40.6861 186.573C40.5489 187.168 43.8109 193.067 44.2986 194.149C45.3199 196.374 45.9449 198.783 46.7375 200.978C47.4844 203.051 50.2739 207.608 47.896 209.422C45.7467 211.053 45.579 207.166 45.2742 206.206C44.4663 203.691 43.064 200.2 42.1037 197.609C40.869 194.332 38.8112 191.299 38.4606 187.686L32.9579 188.997C32.8665 189.195 33.903 192.701 34.1164 193.234C34.848 195.018 36.9516 196.801 34.3145 197.868C33.9335 197.929 33.6743 197.731 33.4 197.502C33.2475 197.38 31.4489 194.759 31.2355 194.423C30.8239 193.737 29.4063 190.171 29.1472 189.988L25.5651 190.064C25.2602 190.232 26.9979 193.28 27.1504 193.661C29.1015 198.707 30.5343 205.703 32.9884 210.306C33.6438 211.541 34.6651 212.715 35.5949 213.751C36.982 213.599 38.4454 213.828 39.8172 213.66C47.0119 212.822 54.0846 211.404 61.2335 210.139C62.392 209.925 63.7333 210.657 63.8248 208.797C64.0077 205.017 61.9804 203.097 60.9896 199.972C60.2884 197.777 60.6085 193.524 59.3129 191.802C57.56 189.454 56.8283 187.168 55.6241 184.363" fill="#1D1D1B"/>
<path d="M11.4655 59.7209C12.3496 59.98 13.1575 60.1324 12.4563 61.2147C11.6789 62.4189 6.26772 66.2906 4.86537 66.6412C0.917457 67.6167 0.521142 64.0194 3.00574 61.6263C5.64276 59.0959 8.03589 58.7149 11.4655 59.7361" fill="#1D1D1B"/>
<path d="M22.288 62.0236C21.6478 62.2522 20.8856 61.17 20.9618 60.4536C21.1295 58.8073 23.5684 54.0973 24.925 53.015C25.1079 52.8626 27.5773 51.506 27.7449 51.4907C31.2356 50.9725 28.065 56.4142 27.3486 57.5574C25.8243 59.981 25.2298 60.1335 22.8672 61.3682C22.5776 61.5206 22.3947 61.9931 22.3032 62.0236" fill="#1D1D1B"/>
<path d="M25.6569 66.5798C26.9068 65.8939 30.1383 64.7812 31.5102 64.9793C32.3943 65.1013 36.1135 66.5341 36.0526 67.4639C35.8087 71.1527 27.8366 69.918 25.6112 69.0492C24.4984 68.6071 24.0259 67.7993 24.91 66.7932C25.1234 66.5646 25.474 66.6713 25.6569 66.5798Z" fill="#1D1D1B"/>
<path d="M6.34452 52.7041C3.44027 51.6324 -0.774477 49.2728 1.48711 45.5774C2.0069 45.279 3.47083 45.744 3.98167 46.06C5.53412 47.0163 7.28115 50.9452 6.33867 52.69" fill="#1D1D1B"/>
<path d="M97.1001 59.7525C96.6733 61.2768 98.2128 61.9627 98.8377 62.9078C100.682 65.6362 102.633 73.5778 103.746 77.1141C106.215 84.949 108.38 93.0125 110.59 100.939C112.13 106.457 113.943 111.929 115.117 117.538C113.12 118.361 111.55 121.73 114.904 121.014C115.071 121.014 114.98 121.273 114.873 121.395C114.477 121.867 110.316 124.748 109.493 125.297C107.48 126.623 105.164 127.98 103.014 129.032C97.9841 131.501 92.5577 132.431 87.3598 134.077C91.1248 126.791 94.4783 119.322 97.5573 111.716C97.9537 110.725 98.1671 109.551 98.6548 108.423C99.1426 107.249 101.277 104.993 99.2341 104.536C99.3408 105.359 98.5634 105.603 98.1213 106.213C92.6949 113.651 90.0731 122.447 85.0886 130.22C81.537 135.769 79.0677 140.525 75.1198 145.799C74.8607 146.149 75.3484 146.546 74.3272 146.027C73.9918 147.201 72.5285 148.786 71.6292 149.777C68.7787 152.948 65.4253 155.981 62.4072 159.03C61.1878 160.264 56.7368 165.508 55.5174 165.706C55.1668 165.767 53.7797 165.538 53.5511 165.371C52.9414 164.898 53.795 162.718 53.734 161.895C53.5816 159.929 51.6305 159.228 49.9385 159.868L49.847 158.74C49.2983 158.298 47.3929 158.176 46.6918 158.389C45.8382 158.648 45.6705 159.517 45.0303 159.151C45.9449 155.447 41.3567 154.823 38.7502 155.798L36.0675 159.136C35.412 157.581 36.601 156.667 37.7442 155.844C41.1586 153.359 42.9115 153.756 46.204 152.338C46.6308 152.155 50.3653 149.503 50.5177 149.259C51.0055 148.527 50.8683 147.704 51.1579 147.14C51.3409 146.774 51.7829 146.622 51.9658 146.317C57.2551 137.491 64.1601 129.824 69.1598 120.816L69.739 121.334C69.8305 120.648 69.922 120.206 70.2421 119.581C71.0347 117.965 72.8943 115.511 73.9613 113.895C77.3757 108.728 78.6104 104.734 81.1712 99.2164C81.7657 97.936 82.5888 96.9757 83.168 95.7867C84.2655 93.5308 84.8143 90.7413 85.9727 88.3939C86.7196 86.8696 88.564 84.6441 88.9756 83.2266C89.25 82.2815 88.7165 82.0071 87.8171 81.8242C86.7654 81.6108 86.369 82.6778 85.7593 83.1503C80.8359 86.9153 82.223 88.3177 79.9975 93.1344C79.0982 95.0855 77.6654 97.0366 76.7355 98.9877C75.2265 102.173 74.2509 106.274 72.6657 109.322C71.7054 111.167 69.861 112.6 69.0836 114.627C67.0563 112.615 66.3399 109.795 65.4101 107.173C65.1814 106.548 64.9833 105.542 64.9223 105.39C64.8918 105.298 64.0229 105.634 63.8553 104.048C63.276 98.6829 63.9925 89.0646 65.0595 83.7601C65.7149 80.4676 68.4739 74.218 70.6841 71.6572C72.2236 69.8738 76.9032 65.621 79.022 64.8284C79.5555 64.6302 79.9365 64.9046 80.3481 64.8436C81.8724 64.5997 81.6285 63.7918 82.4211 62.9992C82.5583 62.862 85.4392 61.1243 85.7441 60.9871C87.1769 60.3165 92.6186 59.5086 94.2192 59.6C94.9203 59.6305 93.7009 60.3927 94.4783 60.2402C95.2404 60.0878 96.1245 58.9598 97.1763 59.7982" fill="white"/>
<path d="M105.484 180.934C106.399 182.732 108.197 181.406 108.502 179.882C108.548 179.851 108.929 180.4 109.005 180.522C109.843 181.863 111.794 190.872 111.505 192.32C110.88 195.475 108.639 196.573 105.819 197.228C96.3534 199.423 86.3236 199.195 76.7053 199.195C72.8641 199.195 69.0229 199.118 65.1817 199.195C64.8311 199.225 64.0537 197.32 64.0537 197.198C64.0994 196.771 67.4529 192.686 67.9711 192.137C70.4405 189.546 74.3274 186.604 77.3608 184.668C77.9552 184.287 80.6075 182.687 81.0953 182.687C81.4001 182.687 81.4611 183.769 82.6805 183.357C83.214 183.19 83.5189 182.61 83.9609 182.336C84.2963 182.123 84.7536 182.214 84.9822 182.046C85.2566 181.848 85.3176 181.391 85.5005 181.269C85.6377 181.177 86.1864 181.315 86.5218 181.223C87.6802 180.903 88.3814 180.171 89.2502 181.437C92.2988 180.873 92.878 176.178 92.8933 173.541C92.9085 170.645 92.0092 167.779 91.6891 164.99C91.2928 161.529 91.2166 157.947 90.6221 154.487C90.4544 153.496 89.8599 152.445 89.738 151.637C89.5551 150.341 90.1191 148.634 90.1496 147.323C90.1953 145.265 89.7533 140.83 89.3417 138.787C89.2197 138.162 88.5948 137.491 88.8996 136.76C90.8507 136.165 92.7866 135.479 94.7377 134.915C97.893 134.016 100.317 133.528 103.396 132.111C106.597 130.632 109.782 128.589 112.587 126.471C111.764 132.903 109.935 139.183 108.792 145.555C107.161 154.655 106.017 164.547 105.316 173.739C105.149 176.025 104.341 178.723 105.469 180.934" fill="white"/>
<path d="M126.702 50.4686L127.144 50.6211L127.494 50.2552C128.241 50.3619 130.025 52.435 130.467 53.1209C132.357 56.0933 134.918 64.5836 135.695 68.1809C137.524 76.473 139.17 85.1158 140.847 93.5908C140.939 94.0176 142.006 96.7766 141 96.3498C140.817 96.2736 140.71 94.9627 140.131 94.917C140.283 95.9687 139.552 98.2094 140.817 98.7124C141.365 98.9258 141.929 98.4838 142.234 98.8496C142.829 100.892 143.103 102.538 141.335 104.078C137.799 107.188 132.342 109.504 128.683 112.66C124.964 113.94 121.702 116.501 117.708 116.76C117.358 116.592 117.205 114.016 117.084 113.483C116.52 111.074 115.666 108.59 115.01 106.212C111.063 92.1275 107.252 78.0888 101.978 64.4159C101.764 63.8519 100.941 62.6934 100.85 62.2362C100.713 61.5655 101.246 61.413 101.307 60.9253C101.414 60.1936 100.21 57.7243 99.4932 57.2212C99.4475 56.9926 102.481 55.0415 102.923 54.7824C108.608 51.5966 116.23 48.2737 122.8 48.5175C124.05 48.5633 126.991 48.67 126.687 50.4229" fill="white"/>
<path d="M120.026 61.4901C119.416 59.6152 118.791 56.3837 116.474 56.1398C115.407 56.0331 113.791 57.6489 112.846 57.8927C112.038 58.1062 110.026 57.5117 109.493 57.969C107.237 61.0633 109.935 64.5387 110.941 67.5568C111.764 70.0413 112.587 72.7393 113.334 75.2544C115.316 81.9003 117.541 88.5462 119.416 95.2074C120.285 98.2712 120.742 102.097 121.718 105.009C122.343 106.868 122.678 107.966 124.843 107.569C126.062 107.341 130.574 103.987 131.443 102.981C134.064 99.9784 132.693 99.2772 131.687 96.2134C128.15 85.4367 124.065 74.8429 120.62 63.9747C120.376 63.2125 120.315 62.4809 119.995 61.4901" fill="white"/>
<path d="M77.3303 19.9524C78.3668 21.9035 79.2356 24.6015 79.4948 26.7965C79.5252 26.9794 80.013 27.1318 79.5252 27.7111C79.007 26.9794 78.6411 27.5129 77.9705 27.5891L77.94 27.0404L77.1321 27.6349C77.1778 28.397 76.4767 29.0829 76.37 29.6469C76.248 30.2871 76.6443 31.5523 76.6443 32.1925C76.5529 38.4878 73.7939 46.2769 68.9467 50.4382C67.4376 51.7339 66.1877 52.618 64.0994 52.4198C61.0356 52.115 59.2827 51.0784 57.0572 49.0664C55.7006 47.847 53.4141 44.6612 52.0728 43.9143C51.1582 43.4113 50.5637 43.8228 50.7009 44.8746C50.9143 46.5666 54.4811 51.6424 55.7615 52.9838C61.2033 58.6847 67.4833 59.8888 73.4433 54.0508C76.4919 51.0632 79.1137 46.0635 80.3179 41.9937C80.4703 41.5059 81.08 41.384 80.3331 41.1401C81.4611 40.9572 80.5922 39.189 81.5983 39.4024C81.705 40.7438 81.3391 42.1156 81.3087 43.4875C81.2324 47.5573 80.7294 51.6577 80.5922 55.4684C80.577 56.0019 80.8514 56.6878 80.8056 57.0842C80.7142 57.7396 78.7326 62.5564 78.3363 62.785C78.0162 62.9679 77.5894 62.8612 77.2998 63.0289C72.2849 65.9708 69.2972 69.3547 66.02 74.1714C65.2884 75.2537 64.6786 76.2445 64.2671 77.5096C63.1696 77.0371 62.0111 76.6256 61.0356 75.9244C57.0572 73.074 53.4446 63.8672 51.6307 59.2182C51.3106 58.3798 51.1429 58.3493 50.8228 57.2976C47.4389 46.5056 45.3964 35.0582 49.832 23.9613C50.9448 21.1566 53.2922 16.4923 55.6091 14.5412C56.1121 14.1144 57.484 13.6266 58.1547 13.398C66.4926 10.578 73.0318 11.828 77.3607 19.9524" fill="white"/>
<path d="M71.6446 38.5039C71.0349 34.9218 69.6326 30.0898 68.4436 26.7059C67.712 24.6481 66.9041 21.8891 64.2366 22.1635C63.1848 23.1848 64.0232 24.4804 63.8707 25.3798C63.764 25.9742 63.383 26.523 63.2458 27.1479C62.9257 28.6722 65.7609 36.2937 66.5687 38.0923C66.8583 38.7325 68.2912 41.7659 68.7942 41.8726C69.9984 42.1927 71.7666 39.7081 71.8885 38.9155C71.919 38.7173 71.6599 38.6258 71.6446 38.5344" fill="white"/>
<path d="M58.1852 29.1145C58.0785 28.7335 58.17 28.3372 58.048 27.9408C57.4078 25.944 56.9353 24.5874 54.7403 23.9929C53.2465 23.5966 53.5971 24.6636 53.0179 25.0904C52.8959 25.1819 52.5453 25.0447 52.3319 25.2428C51.7375 25.7459 51.6155 27.3159 51.7222 28.078C52.3777 32.4985 53.7038 37.0561 55.6549 40.9888C56.1274 41.9338 56.4323 42.4216 57.545 41.9186C58.9474 41.2936 59.6333 38.809 59.6028 37.361C59.5418 34.3429 59.0693 32.0564 58.2005 29.0993" fill="white"/>
<path d="M55.6394 184.363C56.8588 187.168 57.5752 189.454 59.3281 191.802C60.6238 193.54 60.3037 197.777 61.0049 199.972C61.9957 203.097 64.023 205.017 63.84 208.798C63.7486 210.642 62.4072 209.926 61.2488 210.139C54.0998 211.404 47.0424 212.822 39.8325 213.66C38.4454 213.813 36.9973 213.599 35.6102 213.752C34.6804 212.7 33.6591 211.541 33.0036 210.307C30.5495 205.703 29.1015 198.692 27.1656 193.662C27.0284 193.296 25.2907 190.247 25.5803 190.064L29.1624 189.988C29.4063 190.171 30.8392 193.738 31.2507 194.424C31.4641 194.774 33.2628 197.381 33.4152 197.503C33.6896 197.731 33.9487 197.93 34.3298 197.869C36.9668 196.786 34.8633 195.018 34.1316 193.235C33.9182 192.701 32.8817 189.195 32.9732 188.997L38.4758 187.686C38.8264 191.299 40.8842 194.317 42.1189 197.609C43.0944 200.201 44.4816 203.691 45.2894 206.206C45.5943 207.167 45.762 211.054 47.9112 209.423C50.3043 207.609 47.5149 203.051 46.7527 200.978C45.9601 198.783 45.3199 196.39 44.3139 194.149C43.8261 193.067 40.5641 187.153 40.7013 186.574C43.064 184.927 45.64 183.601 47.4539 181.284C48.0484 181.147 48.9935 184.805 49.2526 185.354C49.466 185.811 50.4415 187.595 50.7921 187.702C52.1182 187.412 52.4079 186.284 52.2402 185.08C51.9963 183.281 51.2189 181.376 50.5025 179.73L52.5146 177.535C52.8804 177.428 55.3955 183.769 55.6546 184.363" fill="white"/>
<path d="M93.9908 21.0666C96.1553 26.0815 96.5974 31.4165 97.5729 36.8582C98.4265 41.5988 99.6155 46.1259 99.7679 51.0341C99.8136 52.467 99.0972 53.7474 100.027 55.2107L98.7619 56.3844C96.826 55.3784 95.195 55.546 93.1677 55.8357C91.1709 56.1253 89.9515 56.674 88.1223 57.3142C86.781 57.7867 85.0585 58.0154 84.0372 59.0672C83.6409 58.9757 83.961 58.6708 84.0372 58.3965C86.1865 50.2415 85.9731 39.9221 84.4183 31.6756C82.452 21.3105 78.2754 9.57343 65.6543 9.64965L58.4596 11.6617C58.3377 11.2654 62.5447 7.80526 63.2002 7.34797C67.3615 4.46706 74.7543 5.21396 79.1747 7.24127C81.5374 8.32352 84.4945 9.69538 86.7505 10.8386C90.2411 12.622 92.4818 17.576 93.9908 21.0666Z" fill="white"/>
<path d="M63.9925 110.619C63.7486 111.975 66.9801 116.38 66.8276 117.005C66.157 117.707 65.8826 118.834 65.4558 119.551C62.331 124.733 58.1697 129.383 54.9382 134.306C54.3894 135.144 54.2218 136.41 53.4139 137.035C53.3224 137.111 51.4018 137.751 51.1732 137.797C48.399 138.391 45.8229 138.025 43.1097 138.117C39.8934 138.239 38.3082 140.586 36.5247 142.979C35.8845 142.781 36.1589 142.827 36.2199 142.446C36.4638 140.937 37.1802 139.839 37.607 138.483C38.0795 136.958 38.171 135.327 38.9788 133.864C38.2167 133.026 37.2564 132.706 36.1742 132.431C34.8023 134.23 33.5829 136.196 32.0891 137.903C29.2844 141.12 22.4555 147.171 18.6753 148.451C18.1418 148.634 15.7029 149.244 15.3676 148.726C15.2152 148.482 15.3371 147.75 15.4743 147.461C16.3126 145.525 22.3641 138.94 24.2237 137.599C25.9462 136.364 28.3088 135.571 29.9398 134.001C30.1075 133.834 30.7934 132.416 30.7477 132.263C29.2081 130.693 28.1411 130.663 26.3272 131.669C24.8487 132.492 22.4403 134.885 21.2818 135.343C20.977 135.465 17.9589 135.708 17.4254 135.724C14.6969 135.769 11.9227 135.373 9.4076 134.306C9.31615 134.123 10.4441 133.254 10.688 133.056C14.392 130.023 16.8157 130.465 21.0075 129.261C24.9096 128.148 28.6289 126.319 32.5159 125.13C33.3695 125.099 33.9487 127.416 34.7108 128.148C36.0217 129.413 37.7137 128.468 39.1008 127.904C42.3323 126.608 45.701 124.596 48.902 123.316C52.3164 121.959 56.9502 120.709 59.8921 118.377C62.3005 116.457 62.6054 115.024 63.276 112.158C63.398 111.67 63.1084 110.07 63.9772 110.649" fill="white"/>
<path d="M71.3858 179.47C66.63 181.726 64.0539 185.384 61.4931 189.881L60.3499 187.808C59.5725 183.89 55.6856 178.982 54.8777 175.339C54.7253 174.653 54.7558 174.181 54.9539 173.51L54.0698 173.114C54.1308 172.839 54.2985 172.672 54.4661 172.473C56.0819 170.507 60.045 167.702 62.1028 165.782C67.636 160.599 72.5747 155.493 77.3305 149.548C77.8183 148.938 80.6839 144.686 81.065 144.838C81.5985 149.335 81.5833 153.816 81.2784 158.313C81.1717 159.898 80.7754 161.62 80.6687 163.267C80.4096 167.443 80.5468 171.62 80.501 175.781L80.2571 176.071C77.3 176.94 74.16 178.144 71.3553 179.47" fill="white"/>
<path d="M101.003 14.6173C103.015 17.6964 103.853 22.8333 105.697 26.1715C107.648 31.7199 109.158 38.6707 111.718 43.8837C112.267 45.0117 113.182 46.2769 113.837 47.3591L112.755 46.7646C112.526 47.4048 111.901 48.5785 111.337 48.9291C111.032 49.112 110.301 48.9749 109.706 49.2187C107.679 50.0723 105.896 51.9015 103.746 52.6179C103.441 52.4807 103.883 47.1609 103.838 46.3531C103.777 45.1946 103.335 43.8837 103.182 42.8167C101.643 32.5125 99.8746 18.5348 92.2989 10.7304C89.0826 7.42269 84.0067 6.84346 80.0283 4.92285L84.8146 5.34965C90.7136 7.22453 97.4662 9.20611 101.018 14.6326" fill="white"/>
<path d="M111.992 197.684C111.794 199.376 112.114 200.931 110.453 201.998C107.023 204.178 98.5177 207.302 94.4783 208.126C86.049 209.833 79.586 208.491 71.3243 207.257C70.486 207.135 67.4984 207.15 67.1021 206.632L66.0503 202.638C66.1722 202.12 66.2485 202.409 66.5076 202.409C67.7423 202.394 68.9769 202.272 70.2116 202.257C78.1989 202.166 86.2472 202.425 94.1887 201.906C99.2646 201.571 107.115 200.504 111.352 197.791C111.581 197.638 111.489 197.349 111.977 197.699" fill="white"/>
<path d="M34.8785 171.741L34.5889 174.973C36.1437 178.768 39.2075 176.619 41.4787 174.805C42.4695 176.543 43.1554 176.558 44.9998 175.979C47.0728 175.323 48.6276 173.296 50.7464 172.503L51.2494 172.9C51.036 173.479 51.2036 173.967 51.7524 174.256L51.5695 174.698C51.2494 174.592 51.0512 174.637 50.7768 174.82C48.6276 176.299 46.9509 178.57 44.5577 179.927C41.7226 181.558 36.8753 182.335 34.4517 183.844C33.9029 184.195 33.9792 184.622 33.217 184.926C32.15 185.368 29.0709 185.841 28.5984 184.591C28.4917 184.317 28.6746 184.042 28.5984 183.89C26.7693 179.302 26.1138 174.363 24.9858 169.607C25.3822 168.632 24.62 167.9 25.1078 166.94C25.809 165.583 28.1259 164.684 29.4673 164.211C30.1684 163.967 31.8604 162.885 32.3939 163.937C32.8969 164.928 31.2659 166.726 30.9001 167.748C29.7416 171.01 31.4793 174.531 34.8632 171.696" fill="white"/>
<path d="M143.104 106.349C143.119 109.215 144.369 114.779 141.579 116.684C141.396 116.806 139.293 117.599 138.942 117.705C136.336 118.498 133.119 118.788 130.437 119.397C126.748 120.22 123.151 122.461 119.553 119.763C120.529 119.245 121.733 118.971 122.739 118.574C128.973 116.09 134.567 112.248 140.07 108.392C140.817 107.874 141.701 106.837 142.57 106.304L143.104 106.365V106.349Z" fill="white"/>
<path d="M87.6652 179.165L83.6106 179.561C83.3819 179.333 83.3819 179.043 83.3514 178.769C82.2082 169.486 84.1136 159.38 83.3819 150.112C83.2447 148.359 82.132 143.161 82.696 141.911C83.2905 140.57 84.4794 139.03 85.2568 137.75L87.6652 179.18V179.165Z" fill="white"/>
<path d="M19.5294 78.4709C19.9105 79.736 20.505 81.0164 20.8555 82.3578C21.9073 86.4124 23.2487 91.5188 21.6482 95.5124C20.9318 94.5826 21.6482 92.8602 21.4043 91.9303C21.3433 91.6712 20.9318 91.7017 20.8403 91.4273C19.0569 86.321 18.3405 81.3213 17.2887 76.093C17.1363 75.3613 16.7704 74.9193 16.9991 74.1571C16.7704 73.898 16.0388 73.3797 15.9778 73.9894L16.5418 77.724C16.4656 78.4099 15.7034 77.5868 15.2157 77.6782C14.1029 77.8916 15.1242 80.4372 14.8041 80.6049C14.423 79.858 14.1944 79.3549 13.2798 79.1568L13.1121 79.6903L16.4199 94.918L16.9229 95.6496C18.1423 95.299 17.5173 94.0491 17.6545 93.3175C17.746 92.8297 18.188 92.4486 18.188 91.9456C18.2185 90.0097 16.4046 86.6868 16.9381 84.4461L18.249 87.9672L19.5142 94.9027L19.9562 95.0856L20.2001 94.5216C21.2214 95.4515 18.813 97.7379 18.4319 97.6769C17.0905 97.4788 15.1699 93.7443 14.6364 92.4638C13.2798 89.3086 10.7038 80.1018 11.5574 76.9466C12.4567 73.6236 15.5663 72.0383 16.5723 68.7764C17.5021 72.0383 18.5691 75.2546 19.5446 78.5013" fill="white"/>
<path d="M138.591 54.2808C138.911 55.9423 139.353 57.8934 139.552 59.6311C139.658 60.6219 140.1 66.5514 139.75 66.902C139.567 67.0849 139.018 67.2068 138.728 67.2526C137.814 67.1306 138.195 65.8045 138.043 65.2253C137.082 61.3078 135.268 56.4911 133.439 52.8785C132.677 51.3847 131.793 49.8299 130.253 48.9916C132.037 47.513 134.415 46.8118 136.686 46.6289C137.143 46.9185 138.393 53.2443 138.591 54.2504" fill="white"/>
<path d="M144.81 73.6087C144.384 80.3765 146.289 87.0834 147.63 93.6684C146.396 93.6226 145.313 93.9732 144.201 94.5067L140.07 74.7062C140.847 74.4928 144.414 73.0142 144.795 73.6087" fill="white"/>
<path d="M30.7176 122.341C30.6262 122.92 30.4585 122.676 30.2146 122.737C28.2178 123.286 25.9923 123.378 23.8126 124.002C20.4134 124.978 16.9076 126.487 13.6608 127.92C10.2159 125.374 12.3194 123.621 15.3375 122.311C16.6332 121.747 22.1359 120.375 23.3401 120.634C24.1784 120.817 25.1082 122.112 25.5198 120.695C26.6935 121.106 26.9679 122.067 27.9587 122.524L28.6141 121.564L30.7176 122.341Z" fill="white"/>
<path d="M137.174 127.339C134.888 128.284 128.059 124.565 125.589 123.879L140.253 119.87C140.482 119.962 139.918 122.812 139.78 123.269C139.43 124.367 138.287 126.882 137.189 127.339" fill="white"/>
<path d="M41.098 159.38C40.6712 160.356 40.5035 161.484 40.031 162.429C39.1621 164.167 35.1227 169.7 33.6442 170.767C31.876 172.032 31.7083 170.523 32.0894 169.014C32.8058 166.179 36.1897 160.783 38.7658 159.304C39.6956 158.771 40.3053 158.542 41.1132 159.38" fill="white"/>
<path d="M77.071 181.848C70.9586 185.034 68.6569 187.473 63.8554 192.167C63.6267 192.381 62.9256 192.99 62.6055 193.006C64.8157 189.134 67.3308 185.354 70.8824 182.595L80.0891 177.885C80.6378 178.007 80.6836 179.775 80.5006 180.263C79.1593 180.644 78.2599 181.253 77.0862 181.863" fill="white"/>
<path d="M38.0953 174.089C37.4855 174.333 36.9673 174.089 37.1349 173.357C37.5008 171.711 39.0403 168.998 40.0159 167.535C41.6011 165.172 43.8418 162.596 46.5855 161.666C46.235 162.2 46.3264 162.901 46.0825 163.434C44.7869 166.269 42.5614 169.821 40.3817 172.092C40.0463 172.443 38.3849 173.967 38.0953 174.089Z" fill="white"/>
<path d="M135.055 129.991L134.476 133.116C133.897 133.985 128.912 131.302 128.318 130.585C127.86 130.037 127.586 128.345 127.22 127.644C129.888 128.162 132.296 129.762 135.055 129.991Z" fill="white"/>
<path d="M51.3869 162.337C51.4784 163.145 50.9144 163.937 50.8077 164.562C50.7163 165.035 51.0211 165.629 50.8077 166.285C49.8779 169.028 47.6982 171.071 45.2441 172.443C44.9697 172.595 44.6648 172.854 44.3447 172.778C44.4819 172.306 44.924 172.047 45.1069 171.62C45.8233 169.989 48.9786 163.937 50.0151 162.947C50.1828 162.794 51.204 161.91 51.3869 162.367" fill="white"/>
<path d="M16.5721 92.3119L15.9014 88.8213C16.3282 89.8578 16.755 91.1839 16.5721 92.3119Z" fill="white"/>
<path d="M19.8549 93.4171L19.667 93.8672L19.8921 93.9611L20.08 93.511L19.8549 93.4171Z" fill="white"/>
<path d="M120.026 61.5041C120.346 62.4797 120.407 63.2266 120.651 63.9887C124.096 74.8569 128.181 85.4507 131.717 96.2275C132.723 99.2913 134.095 99.9925 131.473 102.995C130.589 104.001 126.077 107.355 124.873 107.583C122.708 107.98 122.373 106.882 121.748 105.023C120.773 102.111 120.315 98.2853 119.446 95.2214C117.572 88.5603 115.346 81.9144 113.365 75.2837C112.618 72.7686 111.81 70.0706 110.971 67.5861C109.965 64.568 107.252 61.0926 109.508 57.9983C110.042 57.5257 112.069 58.1355 112.861 57.9221C113.807 57.6782 115.422 56.0624 116.474 56.1691C118.791 56.413 119.401 59.6445 120.026 61.5194" fill="#1D1D1B"/>
<path d="M120.026 71.8698C119.462 70.0407 118.654 68.181 118.196 66.3062C117.511 63.5777 117.48 60.6815 116.154 58.1055C115.392 58.2274 114.767 58.8829 114.127 59.1115C111.596 60.0261 109.63 58.4256 111.291 62.343C113.258 66.9616 114.66 70.6351 116.215 75.4519C119.004 84.1708 121.824 92.9203 124.111 101.776C124.294 102.508 124.568 103.224 124.736 103.971C125.117 104.154 128.211 101.715 128.714 101.273C129.187 100.877 130.01 100.405 129.979 99.7643C128.988 97.3255 127.799 94.9019 126.839 92.463C124.217 85.7256 122.144 78.8053 120.041 71.8698" fill="#1D1D1B"/>
<path d="M58.1853 29.1141C59.0542 32.056 59.5267 34.3424 59.5877 37.3758C59.6181 38.8086 58.9322 41.2932 57.5299 41.9334C56.4324 42.4364 56.1123 41.9334 55.6397 41.0036C53.6734 37.0709 52.3625 32.5133 51.7071 28.0928C51.6004 27.3307 51.7223 25.7759 52.3168 25.2576C52.5454 25.0595 52.896 25.1967 53.0027 25.1052C53.582 24.6784 53.2314 23.5962 54.7252 24.0077C56.9354 24.6022 57.3927 25.9588 58.0329 27.9556C58.1548 28.3367 58.0634 28.7483 58.1701 29.1293" fill="#1D1D1B"/>
<path d="M71.6446 38.5039C71.6599 38.6106 71.919 38.6868 71.8885 38.9002C71.7666 39.7081 69.9984 42.1774 68.7942 41.8573C68.2912 41.7506 66.8583 38.7173 66.5687 38.0771C65.7609 36.2937 62.9257 28.657 63.2458 27.1327C63.3677 26.5077 63.764 25.9742 63.8707 25.3645C64.0384 24.4652 63.1848 23.1848 64.2366 22.1635C66.9041 21.8891 67.712 24.6481 68.4436 26.7059C69.6326 30.0898 71.0349 34.9218 71.6446 38.5039Z" fill="#1D1D1B"/>
<path d="M120.026 71.8698C122.129 78.8053 124.202 85.7256 126.824 92.463C127.784 94.9018 128.973 97.3407 129.964 99.7643C129.979 100.42 129.171 100.877 128.699 101.273C128.181 101.715 125.102 104.139 124.721 103.971C124.553 103.224 124.294 102.508 124.096 101.776C121.824 92.9203 118.989 84.1708 116.2 75.4519C114.66 70.6351 113.243 66.9616 111.276 62.343C109.615 58.4256 111.581 60.0108 114.111 59.1115C114.752 58.8829 115.392 58.2274 116.139 58.1055C117.48 60.6968 117.495 63.5929 118.181 66.3062C118.654 68.181 119.462 70.0407 120.01 71.8698" fill="white"/>
</svg>
