<?xml version="1.0" encoding="UTF-8"?><svg id="Layer_1" xmlns="http://www.w3.org/2000/svg" viewBox="0 0 612 419"><path d="M526.751,155.834c27.907,16.479,46.722,47.4,46.722,82.845l.016-.017c0,25.914-10.069,49.407-26.379,66.615-7.233,45.361-45.54,79.962-91.726,79.962-21.147,0-40.624-7.262-56.24-19.464-19.681,16.762-44.957,26.858-72.534,26.858-37.598,0-70.941-18.768-91.632-47.682-20.359,19.729-43.999,38.78-76.49,40.252-67.528,3.06-119.977-36.802-119.977-127.188,0-29.295,15.33-54.086,32.664-74.578-2.584-9.782-3.987-20.061-3.987-30.671,0-64.51,50.898-116.8,113.693-116.8,23.999,0,46.249,7.66,64.592,20.691,16.246-9.185,34.903-14.424,54.758-14.424,10.857,0,21.352,1.608,31.311,4.526,18.264-12.865,40.356-20.392,64.166-20.392,39.867,0,74.928,21.105,95.225,53.02,23.4,5.819,40.797,27.472,40.797,53.302,0,8.273-1.781,16.115-4.98,23.145Z" style="fill:#fbc000;"/></svg>