<svg width="447" height="401" viewBox="0 0 447 401" fill="none" xmlns="http://www.w3.org/2000/svg">
<path d="M409.029 322.993C403.641 316.336 394.971 312.054 381.749 309.559C372.574 307.808 363.108 307.275 352.785 307.929C338.844 308.813 325.335 311.769 313.808 314.466L303.234 316.936L304.952 315.127C330.096 288.572 343.937 241.938 346.52 207.514L348.218 184.878L347.382 182.198C354.122 179.705 359.484 175.966 364.398 172.522C376.938 163.728 384.552 152.948 388.376 138.609C394.029 117.388 392.144 92.9127 383.256 71.5141C382.352 69.3386 381.543 67.0904 380.7 64.8442C378.122 57.8092 375.218 49.8617 369.828 42.6383C355.033 22.6806 339.569 18.9952 329.2 19.4525L328.238 19.5135C312.67 20.5003 296.95 29.5951 287.746 42.6426C272.598 29.7391 253.142 20.9079 229.553 16.2711L216.762 13.7493L215.725 13.6817C209.532 13.2412 203.463 13.1926 197.655 13.5608C183.481 14.4593 170.391 17.7219 157.628 23.5298C147.294 28.2174 128.103 38.7986 115.48 56.7951L107.687 67.9202L102.035 78.6429L101.772 79.2261C92.817 99.8895 87.0671 117.484 83.657 134.663C78.4541 160.887 90.0086 215.41 100.033 235.803L123.831 284.217L136.202 301.163L144.888 313.576L116.874 321.684L91.529 329.822C70.1349 336.677 54.6518 341.625 34.0039 361.829C29.8602 365.858 21.262 374.268 23.0108 388.187C24.0263 396.321 29.3814 401.414 32.6081 404.476C33.0691 404.913 33.528 405.317 33.9204 405.725C35.7716 408.641 36.346 417.702 36.6258 422.117L40.7297 487.91L45.5541 509.866C50.7598 533.631 59.4775 573.369 89.517 571.465C91.8405 571.318 94.1783 570.87 96.466 570.158C104.995 567.485 110.376 559.845 113.679 550.971C118.254 558.479 125.463 566.521 138.294 568.64C140.585 569.028 142.925 569.146 145.282 568.997C157.331 568.233 168.289 560.773 174.016 550.179C181.675 559.025 192.898 564.145 204.316 563.422C209.859 563.07 215.154 561.435 220.036 558.526C225.076 555.507 229.359 551.57 232.772 547.054C232.986 547.274 233.202 547.527 233.449 547.744C241.697 557.986 253.849 563.581 266.13 562.802C272.304 562.411 278.306 560.364 283.519 556.901L286.781 554.728L288.765 551.337C290.598 548.188 292.129 544.991 293.427 541.81C298.123 547.544 305.245 554.224 316.781 555.359C318.457 555.52 320.192 555.543 321.885 555.436C339.61 554.312 351.58 539.156 358.238 523.271C366.348 535.554 376.502 547.475 385.506 554.402C389.816 557.728 395.408 559.207 402.08 558.784C405.001 558.599 410.621 557.876 415.377 555.108L418.367 553.386L420.427 550.656C428.264 540.228 433.558 526.995 434.955 514.342L438.4 482.997L439.725 462.884L439.683 448.023L437.764 413.019L430.239 371.072C426.793 351.928 419.932 336.232 409.265 323.045L409.029 322.993Z" fill="#FBC000"/>
<path d="M223.278 492.435L223.989 522.584C224.178 531.336 218.27 539.609 211.205 543.823C200.769 550.05 188.411 544.368 183.421 533.987C177.747 522.282 172.757 510.868 170.408 497.986L163.299 458.912L156.075 414.346C150.164 422.052 152.153 429.758 153.091 437.73L159.291 489.793L162.314 513.296C163.289 520.799 162.361 529.823 160.704 537.326C158.708 546.318 149.413 553.205 140.894 551.813C131.598 550.269 127.898 542.372 124.258 534.904C121.274 528.828 117.719 522.688 116.812 515.747L109.05 456.918C106.667 438.773 106.677 405.813 95.2618 405.004C92.3717 428.282 94.8536 450.087 97.1248 472.771L101.42 515.823C102.768 529.201 98.2611 551.682 91.3004 553.856C73.262 559.499 65.7652 523.249 61.697 504.81L57.4351 485.418L53.4153 420.953C52.8851 412.589 52.1891 402.135 47.4385 395.538C45.1369 392.351 40.1135 389.337 39.7019 385.997C39.0291 380.641 42.1216 377.379 45.7284 373.817C64.2122 355.749 76.7194 352.224 98.995 345.08L121.499 337.854L168.82 324.157L176.864 320.148L158.183 303.036L149.901 291.197L138.296 275.303L115.149 228.214C105.852 209.307 96.0683 158.538 100.189 137.848C103.804 119.689 109.925 102.705 117.255 85.8437L122.103 76.6382L129.285 66.385C137.691 54.4212 151.413 44.82 164.563 38.8208C180.857 31.4226 197.247 29.2172 214.456 30.4592L226.234 32.7787C251.678 37.7644 275.266 48.6998 290.736 70.8809L299.917 54.8356C305.615 44.8431 317.834 36.7701 329.867 36.2739C340.835 35.8119 349.786 44.0093 356.165 52.6364C361.597 59.9904 363.991 69.37 367.534 77.9435C374.694 95.2192 376.719 116.12 371.932 134.186C369.052 145 363.583 152.312 354.585 158.614C346.64 164.183 340.003 168.836 328.216 167.951C328.012 174.729 329.209 180.985 331.008 186.77L329.54 206.192C327.139 238.237 313.942 280.832 292.548 303.45L269.341 327.983C267.998 329.401 264.934 331.528 262.699 333.07C266.752 341.811 272.596 341.474 283.957 338.787L317.584 330.923C337.779 326.177 357.958 322.232 378.501 326.129C384.269 327.229 392.333 329.318 395.804 333.597C405.565 345.642 410.629 359.285 413.294 373.979L420.654 414.904L422.478 448.414L422.523 462.275L421.271 481.417L417.867 512.36C416.788 522.16 412.484 532.597 406.645 540.365C404.297 541.714 397.753 542.562 395.614 540.898C382.684 530.92 365.15 506.137 360.695 491.589L349.699 455.861L347.444 496.528C346.609 511.745 335.172 540.03 318.27 538.369C311.529 537.697 307.836 533.065 303.715 527.461C294.748 515.332 287.665 504.017 282.793 488.662L282.544 505.241C282.348 518.451 280.752 531.116 274.013 542.574C264.545 548.84 252.818 545.217 246.022 536.317C237.552 527.822 232.623 516.837 228.474 505.536L223.305 492.333L223.278 492.435ZM232.065 479.647L240.815 506.753C244.756 518.968 256.32 537.364 265.721 533.735C269.602 523.458 271.571 511.936 270.982 500.542L267.257 429.693L265.256 398.127C265.063 395.073 266.987 391.252 269.376 390.567C271.504 389.966 277.198 393.037 277.237 395.235C277.698 419.334 281.897 441.929 287.177 465.289C290.515 480.108 295.866 493.533 302.915 506.949C307.273 515.238 311.454 523.371 320.595 527.724C331.338 514.246 336.382 498.129 336.201 481.078L335.606 419.129L333.991 386.805C333.864 384.813 335.964 380.081 337.912 380.324C339.591 380.518 343.133 381.726 345.597 382.736L356.813 427.716L362.597 448.511C368.256 468.915 373.218 489.362 385.462 507.449L399.173 523.443L403.204 510.79L407.96 479.628L408.402 460.838L409.181 448.424L407.513 420.003L401.702 382.479L390.437 345.135C377.706 333.044 351.04 337.701 331.735 341.757L287.762 350.977C276.234 354.707 265.488 354.988 256.562 344.556C250.443 337.412 249.097 325.633 254.123 315.55C256.25 311.25 259.651 309.168 262.458 305.091L272.064 291.018L287.418 271.949C297.303 259.658 302.642 245.556 308.591 231.115C315.99 213.249 318.871 196.137 315.311 176.767L312.624 162.24L310.142 147.801L306.812 135.748C302.924 121.731 298.399 107.121 290.6 95.0178L282.024 81.6977C271.264 64.9501 256.091 54.2811 236.955 48.3956C229.206 46.0207 221.739 43.3614 213.125 43.1076C192.222 42.4664 170.588 48.1702 153.4 60.9239C148.053 64.8954 143.017 71.1467 138.586 76.4265C128.825 88.0429 124.59 103.242 120.051 117.86C117.618 125.745 113.74 134.489 113.449 143.039C112.655 164.685 115.938 187.039 122.477 207.653L138.425 245.801C143.376 257.651 149.023 268.924 156.648 279.338L174.412 303.54L188.262 316.992C187.937 334.476 157.533 339.569 136.674 345.924L104.733 355.68L73.633 367.15C63.7981 370.772 55.0388 377.693 48.4922 385.873C63.7811 393.635 61.0038 410.808 62.55 427.839L69.0317 498.547L78.1404 532.362C79.4497 537.245 82.4971 541.684 86.8824 545.672C93.0227 533.185 92.9303 520.16 91.2857 506.834L84.3411 449.853C82.3117 433.085 82.3081 417.256 85.6464 401.047L92.7101 395.767C100.305 395.186 108.862 399.276 110.541 406.834L115.986 431.217L121.19 479.144C123.339 498.837 125.948 517.401 134.952 535.359C136.328 538.138 141.994 543.411 144.532 541.917C152.561 537.143 152.299 527.228 152.056 519.712C150.919 486.524 138.851 459.128 142.332 420.982C143.096 412.536 147.707 402.212 156.411 400.194C162.829 399.454 166.05 409.781 166.959 415.189L174.405 460.107C177.703 480.061 180.787 499.261 188.11 518.059C190.335 523.717 194.074 531.712 198.668 534.786C204.219 537.7 212.926 530.483 212.548 525.042L209.061 472.141C207.766 452.76 200.394 405.871 210.16 406.418C211.733 406.519 215.82 408.426 216.197 410.168L223.397 441.205L232.202 479.705L232.065 479.647ZM359.758 129.825C361.819 118.164 361.844 107.531 359.354 96.6249C354.511 75.4364 342.524 40.9038 323.255 48.6905C310.517 53.8304 301.268 64.5812 296.333 77.1581L309.612 102.644L318.12 129.599C320.537 137.244 323.21 143.14 323.979 151.056C324.153 152.745 324.944 155.761 325.812 156.839C330.076 162.067 356.051 150.723 359.758 129.825Z" fill="black"/>
<path d="M232.065 479.647L223.259 441.147L216.06 410.11C215.652 408.403 211.563 406.463 210.023 406.36C200.29 405.811 207.662 452.7 208.924 472.083L212.41 524.984C212.758 530.461 204.081 537.642 198.531 534.728C193.939 531.687 190.2 523.692 187.973 518.001C180.616 499.205 177.566 480.002 174.268 460.049L166.822 415.131C165.912 409.723 162.692 399.396 156.273 400.136C147.572 402.187 142.959 412.478 142.194 420.924C138.714 459.07 150.817 486.497 151.919 519.654C152.162 527.17 152.426 537.118 144.395 541.859C141.89 543.351 136.224 538.078 134.814 535.301C125.811 517.343 123.201 498.779 121.053 479.086L115.849 431.159L110.404 406.776C108.725 399.218 100.168 395.128 92.5728 395.709L85.5091 400.989C82.204 417.195 82.1766 433.06 84.2038 449.795L91.1484 506.776C92.7598 520.104 92.8855 533.127 86.7451 545.614C82.3599 541.626 79.3124 537.187 78.0031 532.304L68.8944 498.489L62.4127 427.781C60.8333 410.752 63.6106 393.579 48.3549 385.815C54.9036 377.668 63.663 370.747 73.4958 367.091L104.595 355.622L136.537 345.866C157.427 339.476 187.831 334.383 188.125 316.934L174.275 303.482L156.511 279.28C148.85 268.835 143.236 257.56 138.288 245.743L122.339 207.595C115.767 186.983 112.484 164.629 113.311 142.981C113.634 134.396 117.481 125.687 119.913 117.801C124.452 103.183 128.688 87.9848 138.449 76.3683C142.913 71.0864 147.914 64.804 153.263 60.8657C170.486 48.1431 192.087 42.4414 212.988 43.0495C221.602 43.3032 229.102 45.9605 236.818 48.3374C255.954 54.2229 271.129 64.9252 281.886 81.6395L290.462 94.9596C298.263 107.096 302.787 121.673 306.675 135.69L310.005 147.743L312.486 162.182L315.174 176.709C318.767 196.077 315.853 213.191 308.454 231.057C302.471 245.5 297.166 259.6 287.281 271.89L271.927 290.96L262.321 305.033C259.513 309.11 256.146 311.189 253.986 315.492C248.993 325.573 250.339 337.352 256.424 344.498C265.351 354.93 276.13 354.646 287.625 350.918L331.598 341.699C350.903 337.643 377.569 332.986 390.299 345.077L401.565 382.421L407.376 419.945L409.044 448.366L408.265 460.78L407.823 479.57L403.066 510.732L399.036 523.385L385.325 507.391C373.081 489.304 368.15 468.821 362.46 448.453L356.676 427.657L345.46 382.678C342.963 381.67 339.453 380.459 337.775 380.266C335.827 380.023 333.76 384.753 333.853 386.747L335.469 419.071L336.063 481.02C336.244 498.071 331.17 514.223 320.458 527.666C311.315 523.28 307.135 515.18 302.777 506.891C295.728 493.474 290.378 480.05 287.039 465.231C281.759 441.871 277.561 419.275 277.1 395.176C277.061 392.979 271.365 389.874 269.239 390.509C266.849 391.194 264.892 395.017 265.086 398.071L267.087 429.637L270.845 500.484C271.434 511.878 269.465 523.4 265.584 533.677C256.182 537.306 244.618 518.91 240.678 506.695L231.928 479.589L232.065 479.647ZM190.194 175.033C204.764 158.313 206.109 135.366 192.199 119.385C188.066 114.648 184.339 111.051 178.075 108.982C172.391 107.11 164.237 104.127 158.825 109.17C146.959 120.186 140.182 137.346 141.491 153.792C141.917 158.931 144.152 165.288 146.337 170.315C148.171 174.531 154.81 179.376 158.582 181.57C170.274 188.327 181.746 184.767 190.165 175.102L190.194 175.033ZM190.237 216.188L196.445 205.83L209.113 231.655C214.775 241.061 221.774 248.949 232.575 251.63C241.188 248.718 246.548 242.313 248.974 233.794L251.555 220.366L248.651 176.66L256.225 183.112C262.107 188.104 269.862 192.145 277.632 192.752C283.996 193.249 286.217 188.342 286.437 183.396C287.087 167.891 286.118 153.656 280.182 138.869L287.139 120.865L288.973 116.15C289.374 115.124 285.342 114.08 284.627 114.892L275.599 124.929C269.966 131.218 268.714 135.663 270.052 144.143L275.912 181.397C270.518 178.84 264.783 176.17 261.691 172.601L245.5 153.765C242.983 150.858 240.64 147.541 237.097 148.432C233.851 149.271 231.486 154.02 232.357 157.764C237.419 179.271 239.116 199.726 238.954 221.365C238.915 228.1 237.18 234.375 232.177 240.091C224.956 234.483 220.293 228.214 216.352 220.732L204.118 197.546C201.92 193.353 192.729 195.568 190.244 198.425C177.234 213.48 175.781 238.4 180.178 257.817C191.348 260.542 184.158 235.436 190.203 216.191L190.237 216.188Z" fill="white"/>
<path d="M359.758 129.826C356.084 150.721 330.078 162.1 325.812 156.839C324.944 155.761 324.119 152.747 323.979 151.056C323.21 143.14 320.537 137.244 318.12 129.599L309.612 102.644L296.333 77.1581C301.301 64.5791 310.55 53.8283 323.255 48.6905C342.493 40.9391 354.511 75.4364 359.354 96.6249C361.844 107.531 361.819 118.164 359.758 129.826ZM344.067 77.3316C335.882 81.7496 333.026 94.5279 339.175 100.57C344.362 105.64 351.328 100.933 353.646 96.4868C358.459 87.2503 347.482 75.4821 344.065 77.2984L344.067 77.3316Z" fill="white"/>
<path d="M190.237 216.188C184.192 235.434 191.38 260.506 180.212 257.815C175.848 238.396 177.301 213.476 190.277 198.423C192.76 195.533 201.951 193.317 204.152 197.543L216.386 220.729C220.326 228.211 224.989 234.481 232.21 240.089C237.213 234.373 238.915 228.099 238.988 221.363C239.149 199.724 237.453 179.269 232.39 157.761C231.52 154.017 233.885 149.268 237.131 148.429C240.707 147.536 243.05 150.854 245.534 153.762L261.725 172.598C264.784 176.17 270.518 178.839 275.946 181.395L270.085 144.141C268.748 135.661 269.999 131.216 275.632 124.927L284.661 114.89C285.409 114.076 289.408 115.122 289.006 116.147L287.172 120.862L280.215 138.866C286.152 153.654 287.087 167.891 286.47 183.394C286.284 188.338 284.062 193.244 277.665 192.75C269.895 192.143 262.143 188.135 256.259 183.109L248.685 176.658L251.589 220.364L249.007 233.792C246.581 242.31 241.188 248.717 232.608 251.628C221.774 248.948 214.808 241.058 209.147 231.653L196.479 205.828L190.27 216.186L190.237 216.188Z" fill="black"/>
<path d="M190.194 175.032C181.777 184.731 170.303 188.257 158.611 181.5C154.841 179.34 148.2 174.462 146.366 170.246C144.184 165.252 141.946 158.862 141.52 153.723C140.18 137.312 146.988 120.117 158.854 109.1C164.266 104.058 172.422 107.074 178.104 108.913C184.334 110.984 188.093 114.545 192.228 119.315C206.14 135.33 204.76 158.246 190.223 174.964L190.194 175.032ZM172.414 172.66C183.543 170.522 188.484 158.578 189.276 150.029C191.029 131.422 170.707 114.181 161.017 120.627C152.191 126.486 151.199 140.279 151.238 151.407C151.245 162.038 160.101 175.04 172.414 172.66Z" fill="black"/>
<path d="M344.067 77.3313C347.482 75.4818 358.462 87.2832 353.648 96.5197C351.331 100.966 344.364 105.673 339.177 100.603C332.993 94.5297 335.851 81.7846 344.069 77.3645L344.067 77.3313Z" fill="black"/>
<path d="M172.414 172.661C160.101 175.041 151.28 162.07 151.238 151.408C151.232 140.278 152.191 126.486 161.017 120.628C170.707 114.182 190.996 131.425 189.276 150.03C188.482 158.545 183.574 170.487 172.414 172.661ZM171.895 146.066C172.06 143.423 169.609 139.979 167.839 139.925C166.07 139.87 162.102 141.421 161.809 143.106C161.114 147.383 166.217 153.758 169.51 152.616C170.751 152.204 171.696 149.245 171.897 146.099L171.895 146.066Z" fill="white"/>
<path d="M171.895 146.066C171.694 149.211 170.749 152.17 169.508 152.582C166.215 153.724 161.112 147.349 161.807 143.073C162.067 141.39 166.103 139.868 167.837 139.891C169.572 139.914 172.056 143.356 171.893 146.033L171.895 146.066Z" fill="black"/>
</svg>
