<svg width="612" height="419" viewBox="0 0 612 419" fill="none" xmlns="http://www.w3.org/2000/svg">
<path d="M558.533 148.107C590.458 166.959 611.982 202.331 611.982 242.88L612 242.861C612 272.506 600.481 299.381 581.823 319.067C573.549 370.959 529.727 410.541 476.891 410.541C452.699 410.541 430.418 402.234 412.554 388.275C390.039 407.45 361.124 419 329.577 419C286.566 419 248.422 397.53 224.753 364.453C201.463 387.023 174.419 408.816 137.25 410.5C60 414 -5.1618e-06 368.4 -5.1618e-06 265C-4.50901e-06 231.487 17.5373 203.127 37.3665 179.685C34.4101 168.495 32.8058 156.736 32.8058 144.598C32.8058 70.8006 91.0317 10.9814 162.868 10.9814C190.322 10.9814 215.776 19.7438 236.759 34.6512C255.344 24.1439 276.687 18.1506 299.401 18.1506C311.821 18.1506 323.827 19.9903 335.22 23.3284C356.113 8.61064 381.386 7.42882e-06 408.624 7.95938e-06C454.231 8.84774e-06 494.34 24.1439 517.559 60.6537C544.328 67.3109 564.23 92.0806 564.23 121.63C564.23 131.094 562.193 140.065 558.533 148.107Z" fill="#FBC000"/>
</svg>
