<svg width="612" height="419" viewBox="0 0 612 419" fill="none" xmlns="http://www.w3.org/2000/svg">
<path d="M611.982 242.88C611.982 202.331 590.458 166.959 558.533 148.107C562.193 140.065 564.23 131.094 564.23 121.63C564.23 92.0806 544.328 67.3109 517.559 60.6537C494.34 24.1439 454.231 8.84774e-06 408.624 7.95938e-06C381.386 7.42882e-06 356.113 8.61064 335.22 23.3284C323.827 19.9903 311.821 18.1506 299.401 18.1506C276.687 18.1506 255.344 24.1439 236.759 34.6512C215.776 19.7438 190.322 10.9814 162.868 10.9814C91.0317 10.9814 32.8058 70.8006 32.8058 144.598C32.8058 156.736 34.4101 168.495 37.3665 179.685C17.5373 203.127 -4.50901e-06 231.487 -5.1618e-06 265C-5.98415e-06 307.219 15.701 323.515 45.4628 348C45.4628 368.5 25.4792 378 25.4792 378C25.4792 378 51.772 400.671 87.4286 384C90.6733 384.247 112.841 402 147.38 402C181.919 402 201.463 387.023 224.753 364.453C248.422 397.53 286.566 419 329.577 419C361.124 419 390.039 407.45 412.554 388.275C430.418 402.234 452.699 410.541 476.891 410.541C529.727 410.541 573.549 370.959 581.823 319.067C600.481 299.381 612 272.506 612 242.861L611.982 242.88Z" fill="#F26524"/>
</svg>
