<?xml version="1.0" encoding="UTF-8"?><svg id="Layer_1" xmlns="http://www.w3.org/2000/svg" viewBox="0 0 26.5 410.17"><path d="M15.04,408.87c-4,0-6.82-.91-8.61-2.78-2.74-2.87-2.74-7.28-2.44-13.68.06-1.19.38-3.21.72-5.35.39-2.46.83-5.25.79-6.41-.02-.26-.4-1.09-.65-1.64-.76-1.68-1.71-3.78-.94-5.43.18-.39.52-.87,1.13-1.24-.19-1.71-1.13-4.95-1.72-7-.78-2.72-.98-3.47-.94-4,.05-.76.32-1.43.57-2.08.55-1.39.98-2.49-.6-4.41-.25-.31-.35-.71-.27-1.1.08-.39.34-.72.7-.89l.24-.12c-1.15-2.22-.64-3.95-.18-5.51.22-.75.43-1.46.46-2.24.04-.95-.19-2.23-.43-3.59-.26-1.48-.54-3.02-.55-4.51-.03-3.23.18-6.77.4-10.52.38-6.37.76-12.95.04-18.69-.07-.58-.42-1.4-.73-2.12-.41-.96-.77-1.79-.74-2.55.04-1.07,1-1.43,1.48-1.57-.02-.35-.14-.81-.24-1.2-.27-1.04-.57-2.21.09-3.24.14-.22.32-.42.53-.58-1.63-4.01-.99-7.82-.41-11.22.3-1.81.59-3.51.56-5.18-.01-.78-.26-1.56-.53-2.39-.27-.85-.55-1.72-.62-2.7-.15-1.95-.12-3.22-.09-4.46.04-1.77.07-3.29-.42-6.54-.42-2.79.48-12.53.97-15.19.34-1.88.23-2.35-.01-3.38-.12-.49-.26-1.1-.39-1.97-.23-1.59-.85-21.32-.64-23.4.1-1.01.54-1.81.97-2.58.42-.76.81-1.47.89-2.41.11-1.21-.02-3.79-.13-6.06-.07-1.34-.13-2.59-.14-3.46-.02-1.59-.22-3.94-.43-6.43-.39-4.59-.8-9.33-.3-11.59.15-.68.46-1.27.76-1.85.57-1.08,1.15-2.19.87-4.22-.21-1.5-.39-1.98-.51-2.3-.32-.87-.32-1.25,0-4.06.43-3.87.34-7.8.25-11.6-.08-3.67-.17-7.46.2-11.29.31-3.28.13-7.76-.05-12.09-.15-3.62-.29-7.03-.17-9.88.05-1.08.37-2.21.72-3.41.59-2.06,1.2-4.18.12-5.41-.47-.53-.42-1.34.1-1.82l.74-.68c-1.56-2.74-.55-4.62.14-5.9.29-.54.54-1,.58-1.42.03-.32-.19-.92-.38-1.44-.25-.68-.53-1.45-.54-2.25-.01-1.19.17-2.81.36-4.54.19-1.73.39-3.51.43-5.11.14-5.19.26-10.38.38-15.57.52-22.43,1.06-45.63,3.05-68.61l.07-.83c.41-4.93.76-8.22,1.26-9.38.85-1.99,2.87-2.26,4.35-2.46l.16-.02c.06,0,.12-.01.17-.01.07,0,.14,0,.21.02,1.1.18,2.94.49,3.69,16.35,1.6,33.97,2.71,66.62,3.31,97.04.12,5.94.34,12.13.55,18.11.49,13.95,1,28.38.32,41.7-.31,6.13-.06,12.93.19,19.5.3,7.96.61,16.19-.06,23.56-.07.79-.42,1.43-.7,1.94-.5.92-.59,1.09.45,2,.33.29.5.72.44,1.16-.06.43-.33.81-.73,1l-.51.25c.65,4.2.58,8.45.5,12.56-.07,3.82-.14,7.43.34,10.98.02,0,.23.21.36.34.35.35,1.29,1.29.58,2.37-.12.19-.29.34-.49.44l-1.05.54c.83,1.97.71,4.05.59,6.08-.06,1-.11,2.03-.05,3.01,1.75,27.38,1.73,54.72,1.71,81.17,0,9.27-.01,18.86.06,28.33,0,.53-.31,1-.79,1.21.19.52.31,1.09.24,1.68-.38,3.32-.45,6.77-.52,10.1-.17,8.7-.35,17.69-6.1,25.56-.23.31-.58.51-.97.53-.72.05-1.39.07-2.03.07Z" style="fill:#e11c84;"/><path d="M15.5,2.6c1.85.31,2.49,12.74,2.6,15.12,1.5,32.04,2.67,64.87,3.31,97,.39,19.7,1.84,40.72.87,59.73-.69,13.58,1.34,29.61.13,43-.15,1.7-2.45,2.74.2,5.04l-1.4.67c1.5,8.14-.07,16.55.99,24.46.11.81,1.4,1.43,1.14,1.81l-2.23,1.14c1.92,2.85.8,6.29,1.02,9.73,2.36,36.91,1.5,72.91,1.77,109.43l-1.22.48c.3.67.76,1.53.68,2.25-1.38,12.01,1.29,24.54-6.37,35.04-.69.04-1.33.07-1.95.07-10.13,0-10.18-5.94-9.76-15.1.12-2.52,1.59-9.56,1.51-11.86-.06-1.67-3.88-6.47-.43-7.43.2-2.48-2.76-10.79-2.69-11.76.13-1.97,2.55-3.91-.32-7.4l1.55-.75c-2.61-3.43-.42-5.24-.29-8.23.09-2.17-.95-5.39-.98-8.16-.07-8.66,1.6-20.09.43-29.36-.19-1.51-1.5-3.51-1.46-4.45.02-.45,1.19-.35,1.36-.77.71-1.8-1.9-4.72.93-5.24-3.18-6.08-.19-11.63-.28-17.08-.03-1.83-1.02-3.41-1.15-5.17-.35-4.66.32-5.46-.52-11.09-.39-2.57.47-12.07.96-14.76.56-3.08,0-3.11-.39-5.76-.22-1.51-.82-21.21-.63-23.09.16-1.62,1.66-2.77,1.86-5,.18-2.04-.24-7.29-.26-9.66-.05-4.46-1.48-14.46-.76-17.72.36-1.63,2.15-2.97,1.65-6.53-.58-4.14-1.03-1.43-.51-6.04.86-7.68-.29-15.18.45-22.91.58-6.07-.48-15.75-.21-22.04.12-2.85,2.8-7.13.52-9.74l1.56-1.43c-2.82-3.81.11-5.2.32-7.41.11-1.17-.9-2.62-.92-3.83-.03-2.22.71-6.31.79-9.6.74-27.99.99-55.94,3.42-84.1.18-2.12.65-8.46,1.23-9.81.58-1.37,2.13-1.52,3.49-1.7M15.5,0c-.12,0-.23,0-.35.02l-.16.02c-1.48.2-4.24.57-5.38,3.24-.51,1.19-.85,3.65-1.36,9.77l-.07.84c-1.99,23.02-2.53,46.23-3.05,68.69-.12,5.19-.24,10.38-.38,15.57-.04,1.54-.24,3.3-.43,5-.2,1.76-.38,3.43-.37,4.7.01,1.02.35,1.94.62,2.68.11.29.26.72.3.91-.05.19-.26.59-.42.88-.66,1.23-1.79,3.33-.59,6.21l-.03.02c-1.04.96-1.13,2.57-.2,3.63.61.7.08,2.55-.4,4.19-.35,1.22-.71,2.49-.77,3.72-.13,2.9.02,6.35.17,9.99.18,4.28.36,8.71.05,11.91-.37,3.9-.29,7.73-.2,11.44.09,3.93.18,7.65-.25,11.43-.31,2.81-.36,3.44.08,4.65.1.27.25.67.44,2.04.23,1.61-.2,2.42-.73,3.44-.33.62-.69,1.32-.88,2.17-.51,2.28-.22,6.23.27,11.98.21,2.47.41,4.8.43,6.33,0,.91.07,2.18.14,3.52.1,2.12.23,4.76.13,5.88-.06.66-.36,1.21-.74,1.89-.44.8-1,1.8-1.12,3.08-.21,2.11.42,22.11.65,23.72.13.92.29,1.56.41,2.08.22.92.29,1.24,0,2.84-.45,2.44-1.44,12.51-.97,15.62.47,3.13.44,4.61.41,6.32-.02,1.21-.05,2.58.1,4.58.08,1.13.4,2.12.68,2.99.24.77.46,1.43.47,2.02.03,1.55-.25,3.2-.54,4.94-.57,3.36-1.2,7.11.19,11.15-.04.06-.08.12-.12.17-.96,1.51-.54,3.17-.26,4.27.01.04.02.08.03.13-1.06.69-1.29,1.66-1.31,2.27-.04,1.05.39,2.05.84,3.11.25.58.59,1.37.64,1.77.71,5.62.33,12.14-.05,18.44-.22,3.77-.43,7.34-.41,10.61.01,1.6.31,3.26.57,4.73.23,1.29.44,2.5.41,3.31-.03.62-.21,1.22-.41,1.92-.42,1.42-.95,3.22-.19,5.43-.3.33-.51.74-.61,1.18-.17.78.03,1.59.53,2.21,1.09,1.33.92,1.78.39,3.11-.28.71-.59,1.51-.66,2.46-.05.79.18,1.64.99,4.46.44,1.54,1.26,4.36,1.58,6.07-.44.42-.73.87-.91,1.26-1.03,2.2.06,4.6.93,6.52.18.4.45,1,.53,1.26,0,1.11-.43,3.84-.78,6.05-.35,2.17-.67,4.23-.73,5.49-.26,5.48-.52,11.16,2.8,14.64,2.05,2.14,5.17,3.19,9.55,3.19.67,0,1.38-.02,2.11-.07.77-.05,1.48-.44,1.94-1.06,5.99-8.21,6.17-17.41,6.35-26.31.07-3.3.13-6.71.51-9.97.05-.47.02-.92-.06-1.35.39-.46.62-1.06.61-1.7-.07-9.46-.06-19.05-.06-28.32.02-26.47.04-53.84-1.71-81.26-.06-.9,0-1.85.05-2.85.1-1.74.21-3.63-.3-5.51l.05-.02c.4-.2.74-.51.98-.88.49-.73,1.04-2.23-.74-4.01-.01-.01-.03-.03-.05-.05-.4-3.31-.33-6.72-.27-10.33.07-3.87.15-7.86-.38-11.85.6-.41,1.01-1.06,1.11-1.8.12-.87-.21-1.74-.87-2.31-.1-.09-.19-.17-.25-.23.03-.06.06-.11.09-.16.32-.59.75-1.39.85-2.44.68-7.45.37-15.72.07-23.72-.25-6.54-.5-13.31-.19-19.38.68-13.37.17-27.83-.32-41.81-.21-5.98-.43-12.16-.55-18.1-.6-30.41-1.71-63.07-3.31-97.07-.08-1.79-.28-5.28-.66-8.52C19.39,3.55,18.54.47,15.93.04c-.14-.02-.29-.04-.43-.04h0Z" style="fill:#e11c84;"/><path d="M23.89,369.73l-1.22.48c.3.67.76,1.53.68,2.25-1.38,12.01,1.29,24.54-6.37,35.04-12.07.77-12.16-5.32-11.7-15.04.12-2.52,1.59-9.56,1.51-11.86-.06-1.67-3.88-6.47-.43-7.43.2-2.48-2.76-10.79-2.69-11.76.13-1.97,2.55-3.91-.32-7.4l1.55-.75c-2.61-3.43-.42-5.24-.29-8.23.09-2.17-.95-5.39-.98-8.16-.07-8.66,1.6-20.09.43-29.36-.19-1.51-1.5-3.51-1.46-4.45.02-.45,1.19-.35,1.36-.77.71-1.8-1.9-4.72.93-5.24-3.18-6.08-.19-11.63-.28-17.08-.03-1.83-1.02-3.41-1.15-5.17-.35-4.66.32-5.46-.52-11.09-.39-2.57.47-12.07.96-14.76.56-3.08,0-3.11-.39-5.76-.22-1.51-.82-21.21-.63-23.09.16-1.62,1.66-2.77,1.86-5,.18-2.04-.24-7.29-.26-9.66-.05-4.46-1.48-14.46-.76-17.72.36-1.63,2.15-2.97,1.65-6.53-.58-4.14-1.03-1.43-.51-6.04.86-7.68-.29-15.18.45-22.91.58-6.07-.48-15.75-.21-22.04.12-2.85,2.8-7.13.52-9.74l1.56-1.43c-2.82-3.81.11-5.2.32-7.41.11-1.17-.9-2.62-.92-3.83-.03-2.22.71-6.31.79-9.6.74-27.99.99-55.94,3.42-84.1.18-2.12.65-8.46,1.23-9.81s2.13-1.52,3.49-1.7c1.85.31,2.49,12.74,2.6,15.13,1.5,32.04,2.67,64.87,3.31,97,.39,19.7,1.84,40.72.87,59.73-.69,13.58,1.34,29.61.13,43-.15,1.7-2.45,2.74.2,5.04l-1.4.67c1.5,8.14-.07,16.55.99,24.46.11.81,1.4,1.43,1.14,1.81l-2.23,1.14c1.92,2.85.8,6.29,1.02,9.73,2.36,36.91,1.5,72.91,1.76,109.43Z"/></svg>