<?xml version="1.0" encoding="UTF-8"?><svg id="Layer_1" xmlns="http://www.w3.org/2000/svg" viewBox="0 0 37.74 429.13"><path d="M17,427.83c-1.29,0-2.75-.34-4.45-1.03-2.21-.9-3.99-4.2-5.77-10.69-5.81-21.11-5.5-39.89-5.15-61.64l.04-2.22c.02-1.15-.07-3.33-.16-5.63-.18-4.36-.28-7.3-.1-8.36.15-.88.87-1.24,1.39-1.41-.06-.29-.13-.62-.19-.89-.4-1.8-.62-2.95-.34-3.8.18-.54.55-.86.93-1.05-.29-.36-.62-.8-.72-1.4-.07-.45.06-.78.43-1.66.43-1.04,1.33-3.21,1.21-4.42-.06-.65-.33-1.37-.59-2.07-.32-.85-.62-1.66-.6-2.46.03-1.24.79-2,1.34-2.55.47-.48.72-.74.77-1.17.33-2.93.15-6.65-1.03-7.87-.28-.29-.41-.71-.35-1.11.06-.4.31-.75.68-.95l.68-.36c-.35-2.43.26-4.48.85-6.47.57-1.9,1.1-3.7.78-5.81-.04-.26-.55-.92-.77-1.2-.48-.62-1.2-1.55-.41-2.46.22-.25.52-.41.85-.44-.11-.43-.17-.93.03-1.46.2-.54.41-1.05.62-1.55.99-2.39,1.59-3.83-.08-6.51-.22-.35-.26-.77-.11-1.15.15-.38.46-.67.85-.78.56-.16.93-.38,1.05-.61.23-.47-.2-1.56-.51-2.36-.35-.89-.68-1.73-.59-2.55.11-.91.77-1.46,1.3-1.9.19-.16.5-.42.56-.54.03-.2-.08-1.01-.15-1.61-.15-1.22-.34-2.74-.15-4,.18-1.19.48-2.43.76-3.64.86-3.6,1.74-7.32-.15-10.36-.21-.35-.26-.77-.11-1.15s.46-.67.85-.79c1.32-.39,1.35-1.83.89-5.12-.17-1.22-.33-2.38-.24-3.4.09-1.04.44-2.37.85-3.91.56-2.09,1.2-4.47,1.17-6.32-.07-5.88.41-9.7.96-14.14.23-1.82.46-3.7.69-5.91.05-.48-.21-1.7-.4-2.59-.36-1.7-.55-2.7-.33-3.46.22-.74.79-1.07,1.28-1.25-.11-3.42.26-6.67.63-9.81.27-2.32.55-4.73.63-7.19.08-2.54.31-5.15.52-7.68.32-3.73.65-7.59.56-11.46-.11-5.26.25-11.08.6-16.71.37-5.85.75-11.9.6-17.38-.46-17.13-1.16-36.42-2.12-58.96-.36-8.48.11-17.24.57-25.71.65-12.08,1.33-24.56-.45-36.18-.08-.53-.35-1.1-.63-1.7-.69-1.48-1.74-3.72.71-5.87,1.3-1.14,2.61-1.71,3.87-1.71,4.51,0,6.54,6.98,7.35,11.15,1.86,9.56,2.33,20.92,2.75,30.94l.08,1.99c.6,14.22,1.47,28.66,2.32,42.63,2.51,41.44,5.1,84.29.8,126.61-.05.48-.36.9-.82,1.08l-.52.21c-.1,16.42-1.52,32.97-2.89,48.99-.5,5.88-1.02,11.96-1.48,17.99l.67.33c.48.24.76.75.71,1.28-.98,10.85-2.4,21.81-3.78,32.41-4.03,31.05-8.2,63.16-1.41,95.02.05.22.04.44-.03.65-.44,1.42-.67,3.22-.88,4.97-.58,4.57-1.3,10.27-6.7,10.27Z" style="fill:#e11c84;"/><path d="M20.84,2.6c3.64,0,5.44,6.85,6.08,10.1,1.97,10.1,2.37,22.38,2.81,32.74,2.37,56.42,8.85,112.6,3.12,169.06l-1.34.53c-.08,22.92-2.72,45.49-4.43,68.64l1.45.72c-3.87,42.82-14.32,84.88-5.16,127.82-1.64,5.33-.37,14.32-6.34,14.32-1.07,0-2.37-.29-3.96-.94-2.49-1.01-4.24-7.03-5.01-9.83-5.95-21.65-5.42-41.07-5.07-63.49.05-2.93-.57-12.11-.28-13.78.1-.55,1.46-.4,1.51-.9.08-.82-1.02-4.04-.69-5.01.2-.6,1.49-.38,1.47-.84-.05-1-1.09-1.5-1.21-2.22-.05-.31,1.86-3.85,1.64-6-.16-1.64-1.21-3.27-1.18-4.37.04-1.48,1.9-1.85,2.1-3.62.28-2.47.37-7.11-1.39-8.92l1.53-.81c-1.22-4.88,2.23-8.16,1.45-13.17-.16-1.04-1.69-2.38-1.49-2.61.15.01.29.02.42.02,1.88,0,.38-1.47.7-2.32,1.21-3.27,2.84-5.32.43-9.2,4.15-1.19.69-4.97.88-6.62.09-.8,1.63-1.32,1.83-2.3.19-.94-.56-3.8-.28-5.71.7-4.67,3.31-10.26.43-14.88,3.69-1.08,1.33-6.68,1.58-9.66.19-2.32,2.07-6.96,2.03-10.36-.1-8.11.85-12.13,1.64-19.9.14-1.39-1.05-4.87-.77-5.82.17-.57,1.39-.43,1.37-.79-.36-6.15,1.01-11.62,1.22-17.79.21-6.21,1.23-12.62,1.09-19.21-.23-10.64,1.5-23.23,1.2-34.1-.53-19.54-1.3-39.75-2.12-58.98-.88-20.53,3.16-42.12.11-62.04-.35-2.29-2.84-4.21-.35-6.38,1.12-.98,2.13-1.39,3.02-1.39M20.84,0h0c-1.59,0-3.18.68-4.73,2.03-3.19,2.79-1.74,5.9-1.04,7.4.23.49.47,1,.52,1.34,1.76,11.49,1.09,23.91.43,35.92-.46,8.5-.94,17.3-.57,25.84.96,22.51,1.65,41.79,2.12,58.93.15,5.43-.23,11.45-.6,17.26-.35,5.65-.72,11.5-.61,16.82.08,3.79-.24,7.62-.56,11.32-.22,2.54-.44,5.17-.53,7.75-.08,2.41-.35,4.79-.62,7.09-.34,2.95-.69,5.97-.65,9.18-.5.34-.97.86-1.21,1.66-.31,1.06-.1,2.19.3,4.09.15.69.39,1.85.37,2.22-.22,2.17-.46,4.05-.68,5.86-.56,4.48-1.04,8.35-.97,14.31.02,1.68-.59,3.96-1.13,5.97-.43,1.6-.8,2.98-.89,4.14-.1,1.16.08,2.44.25,3.68.14,1.02.43,3.14.12,3.67,0,0-.04.01-.09.03-.78.23-1.41.81-1.7,1.57-.29.76-.21,1.61.22,2.3,1.61,2.58.82,5.88-.01,9.37-.29,1.23-.6,2.51-.78,3.75-.22,1.44-.02,3.05.14,4.35.04.29.08.65.11.94-.02.02-.04.03-.06.05-.6.5-1.59,1.33-1.76,2.75-.13,1.14.28,2.18.67,3.18.13.34.33.84.43,1.2-.03.01-.07.02-.11.03-.78.23-1.42.81-1.71,1.57-.29.76-.21,1.62.22,2.31,1.32,2.11.95,2.99-.02,5.33-.21.5-.42,1.02-.64,1.59-.14.38-.2.76-.21,1.1-.16.11-.3.25-.43.4-1.49,1.71-.09,3.51.37,4.11.15.2.43.55.53.75.24,1.77-.23,3.31-.76,5.1-.54,1.8-1.13,3.79-.99,6.1-.67.39-1.13,1.07-1.25,1.84-.13.81.13,1.63.7,2.22.62.64,1.04,3.52.68,6.78-.07.1-.27.3-.4.44-.62.63-1.67,1.68-1.71,3.44-.03,1.05.33,2.02.68,2.95.23.62.47,1.26.52,1.74.09.89-.78,3-1.11,3.79-.4.97-.64,1.55-.51,2.36.06.36.16.67.3.95-.18.24-.34.53-.46.88-.38,1.15-.15,2.44.29,4.41-.66.46-1.05,1.09-1.19,1.88-.2,1.14-.13,3.63.08,8.63.09,2.29.18,4.45.16,5.56l-.04,2.21c-.35,21.85-.66,40.71,5.2,62.01,1.93,7.01,3.88,10.47,6.54,11.55,1.86.76,3.48,1.13,4.94,1.13,6.55,0,7.42-6.86,7.99-11.4.22-1.77.43-3.44.84-4.75.13-.42.15-.87.06-1.31-6.75-31.64-2.59-63.64,1.42-94.58,1.38-10.61,2.8-21.59,3.79-32.46.09-1.02-.42-2-1.31-2.5.44-5.75.93-11.52,1.41-17.12,1.35-15.76,2.74-32.04,2.89-48.23.74-.41,1.25-1.16,1.34-2.02,4.31-42.43,1.72-85.33-.79-126.82-.84-13.96-1.72-28.4-2.31-42.61l-.08-2.01c-.42-10.06-.89-21.47-2.77-31.12-1.08-5.57-3.46-12.2-8.63-12.2h0Z" style="fill:#e11c84;"/><path d="M32.84,214.5l-1.34.53c-.08,22.92-2.72,45.49-4.43,68.64l1.45.72c-3.87,42.82-14.32,84.88-5.16,127.82-1.93,6.28.18,17.65-10.31,13.38-2.49-1.01-4.24-7.03-5.01-9.83-5.95-21.65-5.42-41.07-5.07-63.49.05-2.93-.57-12.11-.28-13.78.1-.55,1.46-.4,1.51-.9.08-.82-1.02-4.04-.69-5.01.2-.6,1.49-.38,1.47-.84-.05-1-1.09-1.5-1.21-2.22-.05-.31,1.86-3.85,1.64-6-.16-1.64-1.21-3.27-1.18-4.37.04-1.48,1.9-1.85,2.1-3.62.28-2.47.37-7.11-1.39-8.92l1.53-.81c-1.22-4.88,2.23-8.16,1.45-13.17-.16-1.04-1.69-2.38-1.49-2.61,2.5.22.78-1.39,1.11-2.3,1.21-3.27,2.84-5.32.43-9.2,4.15-1.19.69-4.97.88-6.62.09-.8,1.63-1.32,1.83-2.3s-.56-3.8-.28-5.71c.7-4.67,3.31-10.26.43-14.88,3.69-1.08,1.33-6.68,1.58-9.66.19-2.32,2.07-6.96,2.03-10.36-.1-8.11.85-12.13,1.64-19.9.14-1.39-1.05-4.87-.77-5.82.17-.57,1.39-.43,1.37-.79-.36-6.15,1.01-11.62,1.22-17.79.21-6.21,1.23-12.62,1.09-19.21-.23-10.64,1.5-23.23,1.2-34.1-.53-19.54-1.3-39.75-2.12-58.98-.88-20.53,3.16-42.12.11-62.04-.35-2.29-2.84-4.21-.35-6.38,5.7-4.97,8.31,4.67,9.09,8.7,1.97,10.1,2.37,22.38,2.81,32.74,2.37,56.42,8.85,112.6,3.12,169.06Z"/></svg>