<?xml version="1.0" encoding="UTF-8"?><svg id="Layer_1" xmlns="http://www.w3.org/2000/svg" viewBox="0 0 32.57 422.74"><path d="M18.53,421.44c-.47,0-.91-.25-1.15-.68l-.33-.61c-.7.16-1.37.24-2.01.24-8.4,0-9.22-12.59-9.77-20.92-.1-1.51-.18-2.82-.3-3.87-1.99-17.7-2.97-35.17-2.83-50.53,0-.49.29-.94.73-1.16l.64-.31c-.6-5.86-.44-12.17-.3-17.76.03-1.23.06-2.45.08-3.63-.03-.14-.34-.7-.56-1.11-.47-.87-1.07-1.95-1.25-3.11-.2-1.28.19-2.32.54-3.24.49-1.3.79-2.08-.41-3.5-.26-.31-.36-.72-.28-1.11.08-.39.34-.73.71-.9l.49-.24c-.74-2.3-1.53-6.36-.51-8.58.11-.24.23-.44.36-.62-.99-1.8-.44-3.34.01-4.62.29-.81.56-1.57.5-2.43-.04-.6-.39-1.14-.73-1.65-.44-.67-.99-1.51-.63-2.49.18-.5.54-.85.97-1.11l-.36-.95c-.12-.32-.11-.68.03-1s.41-.56.73-.68c1.25-.46.49-5.85.24-7.62-.23-1.64-.35-2.53-.25-3.15.11-.66.54-1.17,1.05-1.75,1.18-1.37,1.81-2.32.58-3.96-.23-.3-.31-.69-.23-1.06.08-.37.32-.69.66-.87l.31-.16c-1.15-2.36-.33-4.65.19-6.11.17-.46.39-1.1.38-1.31-.03-.3-.21-.55-.5-.94-1.07-1.46-1.33-2.78.62-4.65-.82-2-.1-4.93.54-7.58.3-1.22.61-2.49.58-3.09-.03-.76-.42-1.29-.83-1.84-.47-.63-1.05-1.41-.79-2.43.2-.8.84-1.38,1.63-1.85-.49-2.16-.39-4.28-.28-6.35.08-1.66.16-3.22-.06-4.75-.1-.7-.46-1.72-.82-2.71-.56-1.57-1.04-2.92-.91-3.97.13-1.04,1.09-1.33,1.45-1.44.04-.01.1-.03.15-.05.05-1.8-.06-3.6-.18-5.5-.21-3.27-.42-6.65.18-10.1.14-.82.51-1.47.84-2.04.31-.54.58-1.02.63-1.59.05-.61-.16-1.43-.35-2.15-.23-.89-.43-1.66-.28-2.37.2-.94.94-1.56,1.48-2.01.06-.05.13-.11.2-.17,0-.01-.01-.02-.02-.04-.33-.61-.84-1.53-.88-2.61-.19-5.28.6-11.43,1.36-17.38.6-4.72,1.18-9.17,1.27-13.07.01-.63-.37-1.6-.71-2.46-.41-1.05-.77-1.95-.7-2.78.09-1.1,1.13-1.4,1.57-1.53,0,0,.01,0,.02,0,.27-1.71.36-7.04.42-10.67.04-2.69.08-5.01.17-6.24l.08-1.18c.36-5.01.8-11.24,1.03-16.6.22-5.15.88-10.48,1.52-15.64.75-6.04,1.45-11.75,1.51-17.11.22-21.82-.88-45.22-1.86-63.16-.04-.71-.21-1.86-.42-3.2-.73-4.84-1.74-11.47.57-14.6.7-.94,1.67-1.53,2.81-1.7.11-.02.29-.04.47-.04,1.85,0,2.41,1.82,2.71,2.8.06.19.11.37.17.53,4.88,12.4,7.88,37.86,9.49,51.53,2.37,20.1,1.53,40.15.72,59.54-.22,5.22-.44,10.61-.6,15.95-.46,15.38-1.14,30.98-1.79,46.08-.42,9.58-.84,19.49-1.21,29.25-.19,4.97.4,12.78,1.03,21.05,1.2,15.83,2.55,33.77-.61,41.68-.97,2.44-1.92,9.67-2.54,19.36-.06,1,.06,2.08.18,3.22.28,2.53.6,5.36-1.21,7.73l.59.56c.38.36.5.92.31,1.41-2.15,5.51-1.76,12.22-1.38,18.72.17,2.86.33,5.56.28,8.19-.06,3.73-.51,6.97-.95,10.11-.48,3.44-.93,6.69-.9,10.54.03,4.27-.14,8.61-.31,13.2-.47,12.43-.96,25.28,2.49,37.41.05.19.06.39.03.59-.2,1.12-.22,3.05-.24,5.09-.05,6.11-.12,13.72-4.59,15.5-.16.06-.32.09-.48.09Z" style="fill:#e11c84;"/><path d="M17.34,2.6c1.12,0,1.33,1.62,1.68,2.5,4.76,12.11,7.79,37.47,9.41,51.21,2.99,25.35.88,49.99.11,75.29-.76,25.12-2.05,50.17-3.01,75.32-.55,14.38,5.21,50.54.51,62.3-1.43,3.57-2.29,14.49-2.63,19.76-.24,3.76,1.8,8.1-1.56,11.09l1.51,1.45c-3.2,8.2-1.04,18.64-1.18,27.36-.12,7.62-1.9,13.1-1.85,20.67.11,15.93-2.55,34.15,2.23,50.96-.8,4.39,1.04,17.6-4.03,19.61l-.82-1.53c-.97.32-1.86.47-2.67.47-8.56,0-8.02-16.91-8.78-23.63-1.87-16.65-2.97-34.07-2.82-50.37l1.46-.72c-.85-7.26-.44-15.2-.31-22.13.02-.92-1.54-2.69-1.82-4.44-.4-2.52,2.52-4.2-.17-7.37l1.56-.76c-1.03-2.24-2.38-8.91-.01-9.6-2.4-2.76.24-4.41.04-7.4-.16-2.47-3.21-3.52-.03-4.46l-.8-2.13c3.09-1.15.56-10.16.83-11.78.18-1.11,4.05-3.14,1.38-6.7l1.55-.83c-2.65-3.2.17-6.43,0-8.03-.21-2.08-3.15-2.3.53-5.21-2.11-2.01.8-8.62.72-10.97-.1-3.04-3.88-3.45.23-5.42-1.28-3.94-.02-7.99-.59-11.94-.27-1.88-1.89-5.01-1.72-6.33.07-.54,1.56-.16,1.61-1.54.15-4.93-.94-10.21-.02-15.49.23-1.32,1.36-2.17,1.49-3.74.13-1.55-.83-3.48-.65-4.36.2-.96,1.81-1.57,1.86-2.29.04-.45-1.01-1.56-1.06-2.85-.33-9.24,2.42-21.37,2.63-30.37.04-1.68-1.5-4.03-1.41-5.16.04-.44,1.29-.34,1.46-.9.6-1.98.49-14.24.72-17.57.35-5.01.86-11.99,1.12-17.81.48-10.95,2.92-22.62,3.03-32.8.21-20.23-.68-41.71-1.86-63.24-.21-3.8-3.71-17.31,1.86-18.14.1-.02.19-.03.28-.03M17.34,0h0c-.24,0-.49.02-.73.07-1.46.23-2.71.99-3.6,2.2-2.43,3.29-1.77,9.24-.81,15.57.19,1.25.37,2.43.4,3.08.98,17.93,2.08,41.29,1.86,63.07-.05,5.29-.75,10.96-1.5,16.96-.64,5.19-1.3,10.55-1.53,15.75-.23,5.33-.67,11.53-1.03,16.52l-.09,1.22c-.09,1.27-.13,3.6-.17,6.31-.05,2.98-.13,7.64-.32,9.76-1.26.63-1.62,1.59-1.68,2.36-.1,1.14.33,2.22.78,3.37.23.59.62,1.58.61,1.95-.09,3.83-.66,8.25-1.26,12.93-.77,6-1.56,12.21-1.37,17.59.03.89.29,1.66.58,2.29-.54.52-1.13,1.24-1.33,2.23-.21,1.01.05,2,.3,2.96.15.59.34,1.33.31,1.72-.02.27-.18.56-.46,1.04-.36.63-.81,1.42-1,2.47-.62,3.59-.41,7.05-.2,10.4.1,1.57.19,3.08.19,4.53-1.14.59-1.51,1.5-1.6,2.21-.17,1.35.36,2.85.97,4.57.32.88.67,1.88.75,2.46.2,1.41.13,2.91.05,4.5-.09,1.8-.19,3.79.15,5.83-.68.54-1.23,1.22-1.45,2.12-.4,1.63.48,2.82,1.01,3.53.4.54.56.79.58,1.11.01.42-.31,1.76-.55,2.74-.59,2.42-1.28,5.25-.74,7.54-1.66,1.9-1.71,3.73-.2,5.77.06.09.14.19.2.28-.06.21-.17.52-.26.76-.49,1.38-1.29,3.63-.55,6.07-.32.34-.54.76-.65,1.22-.16.74,0,1.52.46,2.13.62.82.65.98-.52,2.33-.55.64-1.18,1.37-1.35,2.39-.13.81-.01,1.72.24,3.54.2,1.45.73,5.2.28,6.36-.5.27-.91.7-1.15,1.22-.29.63-.31,1.35-.06,2l.03.09c-.26.29-.49.64-.65,1.07-.59,1.6.26,2.89.76,3.66.25.38.5.77.52,1.02.04.6-.17,1.18-.43,1.91-.42,1.18-1.04,2.95-.25,4.98-.03.05-.05.1-.07.16-1.07,2.34-.53,5.98.15,8.49-.47.37-.81.9-.93,1.5-.17.79.04,1.61.56,2.22.7.83.65.96.19,2.2-.36.97-.86,2.29-.6,3.91.22,1.38.87,2.57,1.39,3.52.13.24.3.55.39.75-.02,1.09-.05,2.2-.08,3.33-.14,5.35-.29,11.35.22,17.03-.79.46-1.28,1.3-1.29,2.22-.14,15.41.84,32.94,2.84,50.69.12,1.02.2,2.31.3,3.81.54,8.28,1.45,22.13,11.06,22.13.43,0,.88-.03,1.33-.09.49.73,1.31,1.15,2.16,1.15.32,0,.64-.06.96-.18,5.28-2.09,5.35-10.19,5.41-16.69.02-1.99.03-3.86.22-4.87.07-.39.05-.79-.06-1.18-3.39-11.94-2.91-24.68-2.44-37.01.17-4.61.34-8.96.31-13.26-.03-3.76.42-6.96.89-10.35.44-3.17.9-6.45.96-10.26.04-2.68-.12-5.53-.28-8.29-.37-6.36-.76-12.93,1.29-18.17.35-.9.17-1.91-.44-2.63,1.41-2.57,1.09-5.45.84-7.68-.12-1.08-.24-2.11-.18-3,.6-9.42,1.54-16.68,2.45-18.96,3.27-8.19,1.9-26.29.69-42.26-.62-8.23-1.21-16-1.02-20.9.37-9.75.8-19.65,1.21-29.22.65-15.11,1.33-30.73,1.8-46.12.16-5.33.39-10.73.6-15.94.81-19.44,1.65-39.54-.73-59.73-1.62-13.73-4.63-39.29-9.57-51.86-.05-.13-.09-.28-.14-.43-.31-1.02-1.14-3.72-3.96-3.72h0Z" style="fill:#e11c84;"/><path d="M26.04,269.23c-1.43,3.57-2.29,14.49-2.63,19.76-.24,3.76,1.8,8.1-1.56,11.09l1.51,1.45c-3.2,8.2-1.04,18.64-1.18,27.36-.12,7.62-1.9,13.1-1.85,20.67.11,15.93-2.55,34.15,2.23,50.96-.8,4.39,1.04,17.6-4.03,19.61l-.82-1.53c-11.34,3.75-10.62-15.81-11.44-23.16-1.87-16.65-2.97-34.07-2.82-50.37l1.46-.72c-.85-7.26-.44-15.2-.31-22.13.02-.92-1.54-2.69-1.82-4.44-.4-2.52,2.52-4.2-.17-7.37l1.56-.76c-1.03-2.24-2.37-8.91-.01-9.6-2.4-2.76.24-4.41.04-7.4-.16-2.47-3.21-3.52-.03-4.46l-.8-2.13c3.09-1.15.56-10.16.83-11.78.18-1.11,4.05-3.14,1.38-6.7l1.55-.83c-2.65-3.2.17-6.43,0-8.03-.21-2.08-3.15-2.3.53-5.21-2.11-2.01.8-8.62.72-10.97-.1-3.04-3.88-3.45.23-5.42-1.28-3.94-.02-7.99-.59-11.94-.27-1.88-1.89-5.01-1.72-6.33.07-.54,1.56-.16,1.61-1.54.15-4.93-.94-10.21-.02-15.49.23-1.32,1.36-2.17,1.49-3.74.13-1.55-.83-3.48-.65-4.36.2-.96,1.81-1.57,1.86-2.29.04-.45-1.01-1.56-1.06-2.85-.33-9.24,2.42-21.37,2.63-30.37.04-1.68-1.5-4.03-1.41-5.16.04-.44,1.29-.34,1.46-.9.6-1.98.49-14.24.72-17.57.35-5.01.86-11.99,1.12-17.81.48-10.95,2.92-22.62,3.03-32.8.21-20.23-.68-41.71-1.86-63.24-.21-3.8-3.71-17.31,1.86-18.14,1.37-.29,1.58,1.52,1.96,2.47,4.76,12.11,7.79,37.47,9.41,51.21,2.99,25.35.88,49.99.11,75.29-.76,25.12-2.05,50.17-3.01,75.32-.55,14.38,5.21,50.54.51,62.3Z"/></svg>