<svg width="244" height="523" viewBox="0 0 244 523" fill="none" xmlns="http://www.w3.org/2000/svg">
<path d="M151.495 417.997C152.091 420.815 149.626 425.529 151.089 428.048C151.414 428.59 157.943 431.652 159.975 434.523C165.041 441.703 169.024 454.842 173.657 462.726C176.935 468.334 184.141 478.06 188.449 483.479C190.399 485.917 197.497 492.771 201.832 497.539C202.13 492.825 202.889 487.949 204.379 482.828C197.362 475.026 191.889 466.031 186.281 457.091C186.281 457.091 205.056 439.291 205.896 440.402C207.413 442.407 213.292 449.18 216.895 453.894C219.388 449.695 222.205 445.902 225.538 442.759L193.027 396.594L192.838 382.75C189.722 381.856 186.227 382.642 184.71 378.93C169.593 347.07 160.436 314.289 151.116 280.397C150.249 277.227 146.7 269.993 146.51 267.989C146.266 265.117 150.222 261.405 151.251 258.615C164.96 221.553 169.809 163.82 155.559 126.704C149.165 110.042 132.639 94.9249 124.376 77.0171C122.263 72.4385 123.699 68.1851 115.138 70.7588C109.855 72.3301 113.214 77.8298 112.916 81.0538C112.456 85.7949 106.008 112.48 102.188 113.7C98.5575 114.865 95.1439 110.747 92.0012 109.392C88.0458 107.712 68.377 101.59 67.7539 99.4221C75.4209 76.8003 91.5407 57.6192 106.875 39.7113C108.175 38.1942 108.663 35.8372 110.288 34.022C113.892 29.9582 120.312 27.3845 123.049 24.5669C125.433 22.1015 126.679 17.5501 125.568 14.299C124.728 11.8066 112.266 9.61212 109.096 9.15156C85.5262 5.62959 54.9122 8.6639 31.4776 13.2695C26.9804 14.1365 13.8137 17.225 10.7793 19.88C7.96178 22.3183 7.82633 34.6451 7.74506 39.007C6.47173 117.872 20.7221 170.593 61.2518 237.022C67.6184 247.48 80.162 262.191 85.2282 272.242C86.7454 275.249 86.2035 279.015 88.1 281.887C90.8363 286.005 96.2546 286.899 100.616 285.869L103.868 296.489L97.4467 302.477C97.7176 313.341 104.978 309.006 108.446 311.065C109.448 311.634 116.601 329.135 117.793 331.899C126.733 352.678 130.418 374.704 139.521 394.454C142.23 400.333 150.195 412.227 151.414 417.916L151.495 417.997ZM184.358 406.7C189.099 411.495 192.458 421.411 197.335 426.585C192.946 430.405 190.399 436.095 186.796 440.348C185.496 441.892 182.272 446.254 180.402 444.845L169.349 422.955C170.541 414.854 177.856 411.305 181.594 405.535C183.301 405.074 183.41 405.779 184.358 406.7ZM165.664 366.766C170.433 372.401 171.868 381.071 174.713 387.898C174.523 391.23 169.999 392.639 168.346 394.508C167.398 395.592 160.625 404.776 159.975 404.343L150.005 383.265L163.958 372.455L166.802 378.145L165.691 366.766H165.664ZM107.525 122.423C107.389 120.987 105.683 119.66 105.683 118.955C105.683 117.574 118.443 99.368 117.847 94.4914C118.335 94.1121 119.635 95.6293 120.096 96.1982C144.018 124.509 152.498 149.786 150.195 186.956C149.057 205.244 144.912 237.51 135.836 253.196C133.533 257.179 131.989 260.972 126.923 258.506C131.312 249.647 138.383 238.865 129.117 230.683C125.27 227.296 111.047 223.585 110.857 220.361C109.909 204.837 130.743 184.654 126.408 170.728C123.726 162.032 94.7917 164.172 93.8976 155.394C93.0849 147.402 108.988 137.459 107.525 122.396V122.423ZM106.495 264.846C105.168 266.851 96.0108 273.217 94.1957 270.779C93.2474 269.533 93.5996 266.634 92.7598 265.09C92.1367 263.898 90.3486 263.627 89.563 262.354C64.1506 221.147 35.7853 171.026 26.872 123.399C21.2369 93.4077 21.0201 61.2766 21.1827 30.771C27.3868 29.5518 33.2386 26.8968 39.4969 25.7319C48.654 24.0251 66.9411 21.8035 76.6942 21.0179C81.0831 20.6928 96.3088 20.7198 100.075 21.6952C100.725 21.8577 102.459 23.0769 101.375 23.8083C92.8953 32.1798 86.5828 42.556 79.6743 52.255C78.6448 53.7179 76.6401 54.1514 76.0982 54.91C70.0025 63.5252 53.2325 93.3264 54.0182 102.998C54.3975 107.577 60.2223 110.503 64.0152 112.453C72.9826 117.032 83.684 118.305 92.3534 124.022C93.3829 129.765 87.3956 132.691 85.4449 135.427C82.9525 138.868 78.8345 148.946 78.6178 153.064C77.6966 169.374 97.5551 177.149 111.074 177.61C111.805 178.558 105.872 185.521 105.141 187.038C101.24 194.949 96.4714 213.886 97.528 222.501C99.1264 235.885 119.906 237.239 120.123 239.678C118.01 247.209 112.781 252.519 108.744 259.021C107.633 260.782 107.742 263.085 106.577 264.819L106.495 264.846ZM116.763 292.642L113.268 280.18L137.164 277.904C138.491 282.618 135.159 285.138 131.393 287.495C129.28 288.85 118.335 294.024 116.736 292.642H116.763ZM121.233 304.129L140.035 296.164L148.515 323.446L130.309 326.399L121.233 304.157V304.129ZM154.259 334.852L158.675 352.272C156.697 354.385 144.506 364.924 142.907 363.325L136.08 339.403L154.286 334.825L154.259 334.852Z" fill="var(--color-ralph-orange)"/>
<path d="M196.847 506.208C194.87 504.041 191.591 497.972 189.234 495.534C186.254 492.472 183.572 489.709 182.461 488.327C178.208 482.99 170.622 472.749 167.019 466.654C164.716 462.725 162.63 457.849 160.625 453.135C158.35 447.825 156.02 442.325 153.663 438.993C152.985 438.234 150.114 436.527 149.003 435.904C146.998 434.739 145.562 433.899 144.451 432.003C142.121 427.993 142.961 423.74 143.53 420.895C143.639 420.326 143.774 419.757 143.828 419.243C143.07 416.56 139.629 410.546 137.299 406.509C135.376 403.15 133.615 400.034 132.558 397.759C127.6 387.003 124.159 375.597 120.854 364.571C117.901 354.736 114.867 344.577 110.749 335.013L109.719 332.548C106.739 325.423 104.599 320.465 103.353 317.756C94.5208 317.295 90.0506 312.148 89.8068 302.72L92.2451 296.895L95.1439 294.213L95.0627 293.942C89.563 293.373 84.6864 290.664 81.7334 286.221C79.7828 283.268 79.268 280.233 78.8887 278.039C78.7533 277.226 78.5636 276.115 78.374 275.763C75.7731 270.589 70.5715 263.545 65.5865 256.718C61.5227 251.191 57.5402 245.718 54.6955 241.085C13.5969 173.735 -1.22239 118.955 0.0780264 38.9519C0.348947 23.7533 1.78481 17.5763 5.74025 14.1085C10.671 9.80089 25.5716 6.63112 30.0147 5.76418C59.2741 0.0206702 89.2921 -1.55067 110.261 1.592C130.418 4.62631 131.962 9.17777 132.883 11.887C134.888 17.7659 133.1 25.3788 128.603 29.9844C126.76 31.908 124.403 33.3709 121.911 34.9152C119.771 36.2698 117.332 37.7598 116.059 39.1957C115.869 39.4125 115.517 40.144 115.273 40.6045C114.677 41.7966 113.973 43.2866 112.727 44.7496C99.8308 59.8398 85.3908 76.7453 77.3444 95.8993C80.9748 97.3352 85.7701 99.0149 88.3438 99.9089C91.3239 100.966 93.8164 101.832 95.0085 102.347C96.4714 102.97 97.7177 103.783 98.8555 104.542C101.456 97.6061 104.924 83.9517 105.249 80.3756C105.222 80.2943 105.087 79.8338 105.005 79.3461C102.946 68.7802 108.175 64.8519 112.943 63.416C116.384 62.3865 120.881 61.4654 124.918 63.6598C128.928 65.8272 130.038 69.6472 130.716 71.9229C130.878 72.5189 131.068 73.1691 131.366 73.8193C134.996 81.676 140.631 89.316 146.077 96.7121C152.444 105.354 159.027 114.295 162.738 123.967C178.127 164.09 172.031 224.668 158.458 261.323C157.726 263.301 156.534 265.035 155.478 266.579C155.18 267.013 154.773 267.609 154.448 268.096C154.801 268.909 155.369 270.236 155.911 271.564C156.995 274.138 158.052 276.766 158.485 278.418C167.236 310.224 176.284 343.087 191.131 374.649C192.892 374.92 193.894 375.11 194.897 375.381L200.505 382.695L200.667 394.155L231.796 438.37L243.987 453.785C241.414 456.196 234.668 464.486 230.55 473.264L223.696 487.542C222.476 491.741 210.827 517.532 210.529 522.111L196.793 506.181L196.847 506.208ZM176.745 451.672C177.829 454.137 178.885 456.386 179.942 458.282L180.321 452.918C179.102 452.81 177.91 452.376 176.745 451.699V451.672ZM177.585 422.141L182.922 432.707C183.41 431.976 183.87 431.299 184.331 430.594C185.279 429.158 186.281 427.614 187.419 426.097C186.227 424.2 185.144 422.223 184.087 420.299C183.41 419.08 182.732 417.834 182.055 416.669C179.861 418.863 178.343 420.435 177.558 422.141H177.585ZM202.835 423.902L202.564 429.24L206.519 429.158L202.835 423.929V423.902ZM158.702 423.74C160.083 424.607 161.33 425.447 162.468 426.286L161.736 421.816C162.901 414.041 167.561 409.381 171.327 405.642C172.844 404.125 174.28 402.689 175.174 401.335L179.671 398.084C181.947 397.488 184.033 397.569 185.902 398.3L185.387 396.729L185.279 389.062C184.304 388.737 183.301 388.276 182.299 387.626L182.407 388.303C182.055 394.399 177.233 397.596 174.903 399.113L172.735 401.335C166.965 408.812 162.928 413.96 157.483 411.711C158.187 413.364 158.729 414.935 159.027 416.371C159.596 419.08 159.108 421.627 158.702 423.713V423.74ZM178.127 411.305C178.127 411.305 178.181 411.359 178.208 411.386L178.127 411.305ZM188.015 402.852L184.385 406.699L188.124 402.987L188.015 402.852ZM159.596 385.567L161.844 390.281C162.17 389.875 162.413 389.577 162.549 389.414C163.66 388.168 164.879 387.301 165.99 386.57C165.637 385.513 165.285 384.429 164.933 383.373C164.77 382.858 164.608 382.343 164.445 381.856L159.596 385.594V385.567ZM138.437 369.231C140.035 374.378 141.688 379.363 143.584 384.213L145.264 377.196L159.217 366.386L160.165 366.603L169.213 362.756C167.913 359.532 166.667 356.281 165.448 353.03L164.283 357.527C164.283 357.527 150.981 371.046 143.557 371.208L138.41 369.204L138.437 369.231ZM191.673 375.624C191.673 375.624 191.673 375.679 191.7 375.679C191.7 375.679 191.7 375.651 191.673 375.624ZM145.643 344.956L147.594 351.783C148.461 351.079 149.301 350.375 150.059 349.724L148.651 344.198L145.616 344.956H145.643ZM125.677 330.679C127.004 333.876 128.223 337.072 129.361 340.296L133.154 333.713L131.583 333.984L125.704 330.679H125.677ZM152.389 327.374L157.699 330.543C156.832 327.807 155.965 325.098 155.126 322.361L151.956 327.482L152.362 327.374H152.389ZM131.258 308.247L135.159 317.783L138.545 317.241L135.213 306.567L131.258 308.247ZM108.338 303.018C109.665 303.262 111.101 303.695 112.51 304.535C113.268 304.968 113.837 305.321 114.515 306.133L116.845 300.471C114.921 300.336 113.16 299.74 111.724 298.493L110.668 296.814L108.338 303.045V303.018ZM140.225 290.528L146.781 293.563C145.969 290.61 145.156 287.657 144.343 284.704C143.395 287.115 141.851 289.011 140.225 290.528ZM99.0181 278.5L105.899 282.455L105.845 282.292L112.537 272.539L136.432 270.264L139.792 272.566C139.25 271.076 138.952 269.884 138.843 268.719C138.464 264.222 140.984 260.538 142.826 257.883C143.314 257.205 143.801 256.528 144.099 255.932C145.102 253.196 146.077 250.324 146.998 247.344C145.671 250.92 144.153 254.225 142.501 257.097C140.144 261.215 134.698 270.887 123.563 265.495L120.285 255.851C119.798 256.555 119.31 257.232 118.822 257.91C117.603 259.616 116.357 261.35 115.219 263.165C114.731 265.17 114.217 267.202 112.889 269.207C111.047 271.97 104.653 276.901 99.0181 278.554V278.5ZM95.4961 257.368C96.661 258.099 98.2053 259.21 99.3161 261.052C99.587 260.863 99.8037 260.673 99.9934 260.51C100.535 258.424 101.023 256.718 102.134 254.957C103.434 252.87 104.843 250.866 106.279 248.888C107.579 247.1 108.771 245.393 109.801 243.713C102.35 241.031 91.2426 235.803 89.7797 223.449C88.4793 212.828 93.8706 192.293 98.124 183.677C98.1511 183.596 98.2053 183.515 98.2595 183.407C90.8634 181.375 83.1693 177.663 77.7509 171.73C72.8201 166.339 70.436 159.755 70.8424 152.684C71.1946 146.561 76.0982 135.183 79.1325 130.983C80.1078 129.629 81.2728 128.572 82.3836 127.57C79.7015 126.459 76.8297 125.511 73.8496 124.563C69.4336 123.127 64.8821 121.637 60.4661 119.388C55.6979 116.95 47.0285 112.507 46.297 103.702C45.132 89.3972 66.6431 54.9362 69.7587 50.5473C71.032 48.7592 72.6575 47.8652 73.6599 47.3233L77.9405 41.2547C80.8393 37.0284 83.7923 32.7478 86.9892 28.5757C83.1692 28.5757 79.3493 28.5757 77.2361 28.7382C67.9164 29.4697 49.9815 31.6371 40.8786 33.3439C38.0068 33.8857 35.2164 34.7797 32.4259 35.6738C31.2339 36.0531 30.0418 36.4323 28.8498 36.7845C28.7685 66.2336 29.3645 94.8969 34.4307 122.016C42.9647 167.639 70.0025 215.971 95.4961 257.368ZM118.768 217.082C120.231 217.786 122.1 218.572 123.428 219.141C127.654 220.929 131.664 222.636 134.238 224.912C135.159 225.724 135.999 226.564 136.73 227.431C139.792 214.481 141.715 199.472 142.528 186.495C144.506 154.662 138.41 132.717 120.394 108.876C119.039 111.315 117.386 114.078 115.463 117.275C115.111 117.844 114.786 118.386 114.488 118.873C114.813 119.686 115.084 120.607 115.192 121.664C116.33 133.259 110.099 142.064 105.547 148.485C104.518 149.948 103.136 151.899 102.296 153.361C104.707 154.228 108.744 155.095 111.426 155.691C121.098 157.777 131.122 159.918 133.777 168.506C137.028 178.909 131.366 189.719 125.893 200.177C122.778 206.137 119.581 212.232 118.768 217.082ZM116.98 183.434C115.978 185.168 114.677 186.901 113.35 188.689C112.7 189.556 112.104 190.342 111.805 190.83C110.613 193.241 109.34 196.953 108.202 201.043C109.476 198.361 110.857 195.679 112.239 193.051C113.892 189.909 115.625 186.576 116.953 183.461L116.98 183.434ZM116.14 172.434L117.034 172.868C118.47 174.683 118.958 176.471 118.822 178.259C119.364 176.227 119.5 174.439 119.066 173.03C118.741 172.976 117.63 172.732 116.14 172.407V172.434ZM94.6292 137.188C93.979 137.838 93.3558 138.407 92.8411 138.867C92.3534 139.301 91.8929 139.68 91.5678 140.086C90.7008 141.306 89.4004 144.069 88.2896 146.859C89.563 144.34 91.2698 141.929 92.9495 139.572C93.4913 138.786 94.0602 138 94.6021 137.215L94.6292 137.188ZM119.798 86.9319C120.231 87.0402 120.692 87.2028 121.152 87.3924C120.773 86.7422 120.421 86.1191 120.069 85.4689C119.987 85.9295 119.906 86.4171 119.798 86.9319ZM16.6042 25.433C16.4958 25.8935 16.3603 26.5438 16.2249 27.4378L18.5006 24.7015C17.7691 24.9724 17.1189 25.2162 16.6042 25.433ZM106.17 16.5468C107.66 17.8472 108.88 19.6353 109.259 21.8297L107.389 26.2728C109.53 24.4848 111.86 23.0489 113.837 21.8026C115.192 20.9628 117.034 19.7978 117.576 19.256C117.684 19.1476 117.766 19.0393 117.847 18.8767C115.273 18.1452 111.453 17.3325 108.013 16.8177C107.417 16.7364 106.793 16.6281 106.17 16.5468Z" fill="#F26524"/>
<path d="M76.0711 54.9638C69.9754 63.5791 53.1784 93.4074 53.9911 103.052C54.3704 107.631 60.1952 110.557 63.9881 112.507C72.9555 117.113 83.6569 118.359 92.3263 124.103C93.3558 129.819 87.3956 132.772 85.4178 135.508C82.9254 138.949 78.8074 149 78.5907 153.118C77.6696 169.428 97.528 177.203 111.02 177.691C111.751 178.612 105.818 185.602 105.087 187.119C101.185 195.03 96.4172 213.94 97.4738 222.555C99.0993 235.938 119.852 237.293 120.069 239.731C117.955 247.29 112.727 252.573 108.69 259.075C107.606 260.836 107.688 263.139 106.523 264.873C105.168 266.878 96.0108 273.244 94.1957 270.806C93.2475 269.56 93.5997 266.688 92.7598 265.117C92.1367 263.925 90.3486 263.654 89.563 262.407C64.1507 221.2 35.7853 171.08 26.872 123.452C21.264 93.4616 21.0201 61.3304 21.1827 30.8248C27.3868 29.5786 33.2386 26.9507 39.4698 25.7857C48.6269 24.0789 66.914 21.8303 76.6671 21.0717C81.0831 20.7195 96.2818 20.7737 100.048 21.7219C100.698 21.8845 102.432 23.1036 101.348 23.8622C92.8682 32.2336 86.5557 42.6099 79.6473 52.3088C78.6178 53.7718 76.6129 54.2052 76.0711 54.9638Z" fill="var(--color-ralph-orange)"/>
<path d="M95.5232 279.041C92.4618 279.041 89.7526 277.713 88.0187 275.41C86.5016 273.406 86.0681 271.13 85.8513 269.45C84.9031 268.746 83.8736 267.825 83.0338 266.47C56.592 223.61 28.3892 173.301 19.3134 124.86C13.624 94.4899 13.326 61.7356 13.5157 30.7695L19.7197 23.265C22.456 22.7231 25.084 21.8562 27.7661 21.0163C31.1797 19.9327 34.5933 18.8761 38.1152 18.1988C47.8683 16.3836 66.5618 14.135 76.1253 13.3764C79.6744 13.0784 96.5527 12.8616 101.998 14.2433C105.033 15.029 108.582 17.7382 109.313 21.802L105.845 30.1464C100.779 35.2667 95.9025 42.3919 90.7008 49.9506C89.1295 52.2263 87.5582 54.5292 85.9597 56.7778C84.578 58.7284 82.817 59.8663 81.625 60.5436C74.0121 71.7597 61.3331 96.7114 61.7124 102.428C62.2542 102.943 66.02 104.866 67.4288 105.598C70.8695 107.359 74.6624 108.578 78.672 109.905C84.6322 111.829 90.8092 113.834 96.6069 117.708L99.9392 122.747C101.456 131.118 95.6857 136.374 92.9224 138.894C92.4347 139.327 91.9741 139.706 91.649 140.113C89.9151 142.524 86.4745 151.139 86.3119 153.578C86.1494 156.531 87.0705 159.023 89.2378 161.38C94.3311 166.961 104.247 169.752 111.318 170.022L117.061 172.894C121.288 178.15 117.441 183.325 113.377 188.797C112.727 189.664 112.131 190.423 111.833 190.91C108.473 197.71 104.328 214.995 105.141 221.66C105.656 225.832 111.697 228.162 117.847 230.194C122.019 231.575 127.221 233.282 127.763 239.053L127.519 241.816C125.677 248.4 122.046 253.466 118.849 257.936C117.63 259.643 116.384 261.35 115.273 263.165C114.813 265.17 114.298 267.174 112.998 269.152C110.722 272.512 101.971 278.932 95.8483 279.095C95.767 279.095 95.6857 279.095 95.5774 279.095L95.5232 279.041ZM95.5232 257.367C96.6882 258.099 98.2053 259.209 99.3161 261.052C99.8037 260.672 100.21 260.347 100.481 260.076C100.481 258.64 100.969 256.852 102.134 254.983C103.434 252.87 104.87 250.865 106.279 248.887C107.579 247.072 108.798 245.392 109.828 243.713C102.377 241.031 91.2697 235.802 89.7797 223.448C88.4793 212.801 93.8706 192.292 98.1511 183.677C98.1782 183.596 98.2324 183.514 98.2866 183.406C90.8904 181.374 83.2234 177.662 77.7779 171.729C72.8472 166.338 70.4631 159.755 70.8695 152.684C71.1946 146.588 76.1253 135.209 79.1596 130.983C80.1349 129.628 81.2728 128.572 82.3836 127.569C79.7015 126.458 76.8297 125.51 73.8496 124.535C69.4336 123.099 64.855 121.609 60.439 119.36C55.6708 116.922 47.0014 112.479 46.2699 103.701C45.105 89.6133 66.6973 54.8814 69.7316 50.5466C71.0049 48.7586 72.6575 47.8645 73.6329 47.3227C74.8791 45.6701 76.3962 43.4485 77.9405 41.2541C80.8393 37.0548 83.7923 32.7472 86.9892 28.6021C83.1421 28.5479 79.3222 28.6021 77.2632 28.7647C68.2415 29.469 50.0086 31.6635 40.8786 33.3703C38.0068 33.9121 35.1893 34.8333 32.3988 35.7002C31.2338 36.0795 30.0418 36.4588 28.8768 36.7839C28.7685 66.1787 29.3645 94.7879 34.4578 122.015C42.9918 167.611 70.0296 215.97 95.5232 257.367Z" fill="var(--color-ralph-orange)"/>
<path d="M126.95 258.533C131.339 249.674 138.41 238.891 129.144 230.709C125.297 227.323 111.074 223.638 110.884 220.387C109.936 204.864 130.743 184.68 126.435 170.755C123.726 162.058 94.7918 164.199 93.8977 155.421C93.1121 147.429 108.988 137.486 107.525 122.45C107.39 120.987 105.71 119.686 105.71 118.982C105.71 117.6 118.47 99.3944 117.847 94.4908C118.335 94.1115 119.635 95.6286 120.096 96.1976C144.045 124.509 152.498 149.786 150.195 186.983C149.084 205.243 144.939 237.537 135.836 253.196C133.533 257.178 131.962 260.971 126.923 258.506" fill="var(--color-ralph-orange)"/>
<path d="M129.822 267.068C127.952 267.068 125.893 266.607 123.563 265.47L120.041 255.12L121.477 252.33C126.625 242.333 127.14 239.217 124.051 236.508C123.157 235.804 119.581 234.287 117.441 233.393C110.017 230.25 103.597 227.514 103.217 220.903C102.648 211.502 107.525 202.128 112.266 193.08C116.086 185.765 120.448 177.475 119.093 173.113C118.28 172.95 111.968 171.596 108.229 170.81C98.422 168.697 87.2601 166.313 86.2577 156.262C85.6346 150.031 89.3732 144.748 92.9765 139.654C96.3901 134.832 99.9391 129.847 99.9391 124.456C99.018 123.155 98.0156 121.421 98.0156 119.037C98.0156 116.464 98.9096 114.946 102.323 109.311C104.355 105.979 109.719 97.0928 110.207 94.4648L113.241 88.3962C114.325 87.6106 119.933 83.9802 126.056 91.3493C151.387 121.286 160.327 148.242 157.916 187.499C157.428 195.545 154.367 236.725 142.528 257.125C140.686 260.349 136.866 267.122 129.849 267.122L129.822 267.068ZM118.768 217.083C120.231 217.788 122.127 218.573 123.455 219.142C127.681 220.93 131.691 222.637 134.265 224.913C135.213 225.726 136.026 226.593 136.757 227.432C139.819 214.482 141.742 199.473 142.528 186.496C144.505 154.636 138.41 132.692 120.421 108.878C119.066 111.316 117.441 114.079 115.517 117.249C115.165 117.818 114.84 118.387 114.515 118.875C114.867 119.715 115.138 120.663 115.219 121.719C116.357 133.234 110.099 142.038 105.547 148.486C104.518 149.922 103.136 151.873 102.296 153.336C104.707 154.203 108.744 155.07 111.426 155.666C121.098 157.752 131.122 159.892 133.777 168.48C137.001 178.911 131.366 189.72 125.893 200.178C122.778 206.138 119.581 212.261 118.768 217.11V217.083Z" fill="#F26524"/>
<path d="M204.812 480.959C207.115 473.725 210.664 466.681 213.671 459.691C214.593 457.578 215.812 455.79 216.922 453.921C213.319 449.207 207.413 442.434 205.923 440.429C205.083 439.318 204.325 436.04 203.81 436.257L186.308 457.118C191.916 466.058 197.389 475.053 204.406 482.855C204.596 482.205 204.623 481.609 204.839 480.959H204.812Z" fill="var(--color-ralph-orange)"/>
<path d="M198.635 488.028C191.646 480.226 186.146 471.448 180.836 462.941L179.752 461.207L180.375 452.159L197.877 431.298L200.694 429.185L206.871 429.13C210.177 430.512 211.287 433.411 212.019 435.334C212.615 436.527 213.915 438.071 215.46 439.913C217.871 442.785 220.851 446.361 223.018 449.206L223.533 457.821L222.612 459.338C221.935 460.422 221.257 461.478 220.715 462.724L218.115 468.576C215.839 473.615 213.699 478.357 212.181 483.179L211.775 485.021L198.663 487.974L198.635 488.028ZM195.791 457.794C197.823 461.018 199.827 464.133 201.914 467.168C202.618 465.542 203.349 463.917 204.081 462.318L206.6 456.683C206.898 455.951 207.251 455.274 207.603 454.597C206.248 452.944 204.867 451.292 203.647 449.829C203.458 449.585 203.268 449.368 203.079 449.151L195.818 457.821L195.791 457.794Z" fill="var(--color-ralph-orange)"/>
<path d="M186.823 440.347C185.523 441.892 182.299 446.253 180.43 444.845L169.376 422.954C170.568 414.854 177.856 411.305 181.622 405.507C183.328 405.073 183.437 405.751 184.385 406.699C189.126 411.494 192.486 421.383 197.362 426.585C193 430.405 190.427 436.094 186.85 440.347" fill="var(--color-ralph-orange)"/>
<path d="M181.134 452.946C179.292 452.946 177.504 452.295 175.77 450.995L173.521 448.313L162.468 426.422L161.736 421.844C162.874 414.041 167.561 409.382 171.3 405.616C172.817 404.099 174.253 402.663 175.147 401.308L179.698 398.03C183.681 397.028 187.067 398.03 189.749 401.146C193.027 404.451 195.384 408.758 197.66 412.931C199.421 416.127 201.236 419.46 202.97 421.302L202.428 432.383C200.559 434.008 198.933 436.501 197.199 439.101C195.764 441.269 194.328 443.409 192.756 445.278L186.85 440.321L192.377 445.712C188.476 450.507 184.71 452.918 181.161 452.918L181.134 452.946ZM177.585 422.115L182.922 432.708C183.383 432.03 183.843 431.326 184.331 430.622C185.279 429.186 186.308 427.642 187.446 426.124C186.281 424.255 185.198 422.277 184.141 420.354C183.464 419.108 182.759 417.834 182.082 416.669C179.888 418.864 178.371 420.435 177.585 422.142V422.115ZM178.912 412.145C178.912 412.145 178.939 412.172 178.967 412.199C178.967 412.199 178.939 412.145 178.912 412.145ZM192.702 445.333L186.823 440.348L192.729 445.306L192.702 445.333Z" fill="var(--color-ralph-orange)"/>
<path d="M148.542 323.445L130.336 326.398L121.261 304.128L140.035 296.163L148.542 323.445Z" fill="var(--color-ralph-orange)"/>
<path d="M131.583 334.012L123.211 329.298L114.135 307.028L118.253 297.031L137.028 289.066L147.377 293.861L155.884 321.143L149.761 331.059L131.556 334.012H131.583ZM131.258 308.247L135.159 317.783L138.545 317.242L135.213 306.567L131.258 308.247Z" fill="var(--color-ralph-orange)"/>
<path d="M168.319 394.509C167.344 395.593 160.598 404.777 159.948 404.37L149.978 383.293L163.958 372.483L166.775 378.172L165.664 366.767C170.433 372.402 171.869 381.098 174.713 387.898C174.524 391.231 169.999 392.639 168.347 394.509" fill="var(--color-ralph-orange)"/>
<path d="M160.029 412.281C158.675 412.281 157.239 411.82 155.667 410.763L152.985 407.648L143.015 386.543L145.264 377.142L159.244 366.332L160.192 366.549L171.543 361.754C175.77 366.766 177.802 373.051 179.617 378.605C180.321 380.773 180.998 382.94 181.838 384.918L182.407 388.304C182.055 394.4 177.233 397.597 174.903 399.141L174.09 399.629L172.627 401.498C167.832 407.675 164.283 412.281 160.029 412.281ZM159.596 385.568L161.817 390.282C162.142 389.875 162.413 389.55 162.549 389.388C163.632 388.169 164.852 387.302 165.962 386.57C165.61 385.514 165.258 384.457 164.906 383.373C164.743 382.859 164.581 382.344 164.391 381.829L159.542 385.568H159.596Z" fill="var(--color-ralph-orange)"/>
<path d="M154.259 334.851L158.675 352.271C156.697 354.384 144.506 364.896 142.907 363.325L136.08 339.402L154.286 334.824L154.259 334.851Z" fill="var(--color-ralph-orange)"/>
<path d="M143.584 371.209L137.516 368.879L135.457 365.465L128.63 341.543L134.156 331.953L152.362 327.374L161.709 332.955L166.125 350.375L164.283 357.527C164.283 357.527 150.953 371.019 143.584 371.182V371.209ZM145.643 344.957L147.594 351.784C148.461 351.107 149.301 350.402 150.059 349.725L148.651 344.198L145.643 344.957Z" fill="var(--color-ralph-orange)"/>
<path d="M137.191 277.904C138.518 282.618 135.186 285.137 131.42 287.494C129.307 288.849 118.362 294.024 116.763 292.642L113.268 280.18L137.164 277.904H137.191Z" fill="var(--color-ralph-orange)"/>
<path d="M117.874 300.498C115.544 300.498 113.377 299.929 111.67 298.439L109.34 294.727L105.845 282.265L112.537 272.512L136.432 270.236L144.587 275.817C147.567 286.383 138.843 291.937 135.538 294.023C133.425 295.351 124.864 300.498 117.847 300.498H117.874Z" fill="var(--color-ralph-orange)"/>
<path d="M151.495 417.996C152.091 420.814 149.626 425.528 151.089 428.048C151.414 428.589 157.943 431.651 159.975 434.523C165.041 441.702 169.024 454.842 173.657 462.725C176.935 468.333 184.141 478.059 188.449 483.478C190.399 485.916 199.638 501.982 203.973 506.723C204.271 502.009 210.718 490.982 212.209 485.862C217.708 476.542 221.826 468.306 224.292 460.883L203.81 436.229C204.325 435.986 205.083 439.291 205.923 440.402C207.44 442.406 220.688 457.551 224.292 462.265C226.784 458.066 231.119 454.408 234.451 451.293L193.082 396.621L192.892 382.777C189.776 381.883 186.281 382.668 184.764 378.957C169.647 347.097 160.49 314.315 151.17 280.423C150.303 277.253 146.754 270.02 146.565 268.015C146.321 265.143 150.276 261.432 151.306 258.641C165.014 221.579 169.864 163.846 155.613 126.73C149.22 110.069 132.693 94.9512 124.43 77.0434C122.317 72.4649 123.753 68.2114 115.192 70.7852C109.909 72.3565 113.269 77.8562 112.97 81.0801C112.51 85.8212 106.062 112.507 102.242 113.726C98.6117 114.891 95.1981 110.773 92.0554 109.418C88.1 107.739 68.4312 101.616 67.8081 99.4485C75.4751 76.8267 91.5949 57.6455 106.929 39.7377C108.229 38.2206 108.717 35.8636 110.343 34.0484C113.946 29.9846 120.367 27.4109 123.103 24.5933C125.487 22.1279 126.733 17.5764 125.622 14.3254C124.783 11.8329 112.32 9.63849 109.151 9.17792C85.5804 5.65596 54.9665 8.69026 31.5319 13.2959C27.0346 14.1629 13.8679 17.2513 10.8336 19.9064C8.016 22.3446 7.88053 34.6715 7.79926 39.0333C6.52593 117.898 20.7763 170.619 61.306 237.049C67.6726 247.506 80.2162 262.217 85.2824 272.268C86.7996 275.276 86.2577 279.041 88.1542 281.913C90.8905 286.031 96.3089 286.925 100.671 285.896L103.922 296.516L97.5009 302.503C97.7719 313.367 105.033 309.032 108.5 311.091C109.503 311.66 116.655 329.162 117.847 331.925C126.787 352.705 130.472 374.73 139.575 394.481C142.284 400.36 150.249 412.253 151.468 417.942L151.495 417.996ZM184.358 406.699C189.099 411.494 192.458 421.41 197.335 426.585C192.946 430.405 190.399 436.094 186.796 440.347C185.496 441.892 182.272 446.253 180.403 444.845L169.349 422.954C170.541 414.854 177.856 411.305 181.595 405.534C183.301 405.074 183.41 405.778 184.358 406.699ZM165.664 366.765C170.433 372.401 171.869 381.07 174.713 387.897C174.524 391.23 169.999 392.638 168.347 394.508C167.398 395.591 160.625 404.776 159.975 404.342L150.005 383.264L163.958 372.455L166.802 378.144L165.692 366.765H165.664ZM107.525 122.423C107.39 120.987 105.683 119.659 105.683 118.955C105.683 117.573 118.443 99.3672 117.847 94.4907C118.335 94.1114 119.635 95.6285 120.096 96.1975C144.018 124.509 152.498 149.785 150.195 186.956C149.057 205.243 144.912 237.509 135.836 253.196C133.533 257.178 131.989 260.971 126.923 258.506C131.312 249.647 138.383 238.864 129.117 230.682C125.27 227.296 111.047 223.584 110.857 220.36C109.909 204.836 130.743 184.653 126.408 170.728C123.726 162.031 94.7917 164.171 93.8977 155.394C93.0849 147.401 108.988 137.459 107.525 122.395V122.423ZM106.495 264.845C105.168 266.85 96.0109 273.217 94.1957 270.778C93.2475 269.532 93.5997 266.633 92.7598 265.089C92.1367 263.897 90.3487 263.626 89.563 262.353C64.1507 221.146 35.7853 171.026 26.872 123.398C21.2369 93.407 21.0202 61.2759 21.1827 30.7703C27.3868 29.5511 33.2387 26.8961 39.4969 25.7311C48.654 24.0243 66.9412 21.8028 76.6943 21.0171C81.0832 20.692 96.3089 20.7191 100.075 21.6944C100.725 21.857 102.459 23.0761 101.375 23.8076C92.8953 32.179 86.5828 42.5553 79.6744 52.2542C78.6449 53.7172 76.6401 54.1507 76.0983 54.9092C70.0025 63.5245 53.2326 93.3257 54.0182 102.998C54.3975 107.576 60.2223 110.502 64.0152 112.453C72.9827 117.031 83.684 118.305 92.3535 124.021C93.383 129.764 87.3956 132.69 85.445 135.427C82.9525 138.867 78.8345 148.946 78.6178 153.064C77.6967 169.373 97.5551 177.148 111.074 177.609C111.805 178.557 105.872 185.52 105.141 187.037C101.24 194.948 96.4714 213.885 97.528 222.5C99.1264 235.884 119.906 237.238 120.123 239.677C118.01 247.208 112.781 252.518 108.744 259.02C107.633 260.781 107.742 263.084 106.577 264.818L106.495 264.845ZM116.763 292.642L113.269 280.179L137.164 277.904C138.491 282.618 135.159 285.137 131.393 287.494C129.28 288.849 118.335 294.023 116.736 292.642H116.763ZM121.234 304.129L140.035 296.164L148.515 323.445L130.309 326.398L121.234 304.156V304.129ZM154.259 334.851L158.675 352.271C156.697 354.384 144.506 364.923 142.907 363.325L136.08 339.402L154.286 334.824L154.259 334.851Z" fill="#1D1D1B"/>
<path d="M76.0711 54.9638C69.9754 63.5791 53.1784 93.4074 53.9911 103.052C54.3704 107.631 60.1952 110.557 63.9881 112.507C72.9555 117.113 83.6569 118.359 92.3263 124.103C93.3558 129.819 87.3956 132.772 85.4178 135.508C82.9254 138.949 78.8074 149 78.5907 153.118C77.6696 169.428 97.528 177.203 111.02 177.691C111.751 178.612 105.818 185.602 105.087 187.119C101.185 195.03 96.4172 213.94 97.4738 222.555C99.0993 235.938 119.852 237.293 120.069 239.731C117.955 247.29 112.727 252.573 108.69 259.075C107.606 260.836 107.688 263.139 106.523 264.873C105.168 266.878 96.0108 273.244 94.1957 270.806C93.2475 269.56 93.5997 266.688 92.7598 265.117C92.1367 263.925 90.3486 263.654 89.563 262.407C64.1507 221.2 35.7853 171.08 26.872 123.452C21.264 93.4616 21.0201 61.3304 21.1827 30.8248C27.3868 29.5786 33.2386 26.9507 39.4698 25.7857C48.6269 24.0789 66.914 21.8303 76.6671 21.0717C81.0831 20.7195 96.2818 20.7737 100.048 21.7219C100.698 21.8845 102.432 23.1036 101.348 23.8622C92.8682 32.2336 86.5557 42.6099 79.6473 52.3088C78.6178 53.7718 76.6129 54.2052 76.0711 54.9638Z" fill="white"/>
<path d="M126.95 258.533C131.339 249.674 138.41 238.891 129.144 230.709C125.297 227.323 111.074 223.638 110.884 220.387C109.936 204.864 130.743 184.68 126.435 170.755C123.726 162.058 94.7918 164.199 93.8977 155.421C93.1121 147.429 108.988 137.486 107.525 122.45C107.39 120.987 105.71 119.686 105.71 118.982C105.71 117.6 118.47 99.3944 117.847 94.4908C118.335 94.1115 119.635 95.6286 120.096 96.1976C144.045 124.509 152.498 149.786 150.195 186.983C149.084 205.243 144.939 237.537 135.836 253.196C133.533 257.178 131.962 260.971 126.923 258.506" fill="white"/>
<path d="M204.812 480.959C207.115 473.725 210.664 466.681 213.671 459.691C214.593 457.578 215.812 455.79 216.922 453.921C213.319 449.207 207.413 442.434 205.923 440.429C205.083 439.318 204.325 436.04 203.81 436.257L186.308 457.118C191.916 466.058 197.389 475.053 204.406 482.855C204.596 482.205 204.623 481.609 204.839 480.959H204.812Z" fill="white"/>
<path d="M186.823 440.347C185.523 441.892 182.299 446.253 180.43 444.845L169.376 422.954C170.568 414.854 177.856 411.305 181.622 405.507C183.328 405.073 183.437 405.751 184.385 406.699C189.126 411.494 192.486 421.383 197.362 426.585C193 430.405 190.427 436.094 186.85 440.347" fill="white"/>
<path d="M148.542 323.445L130.336 326.398L121.261 304.128L140.035 296.163L148.542 323.445Z" fill="white"/>
<path d="M168.319 394.509C167.344 395.593 160.598 404.777 159.948 404.37L149.978 383.293L163.958 372.483L166.775 378.172L165.664 366.767C170.433 372.402 171.869 381.098 174.713 387.898C174.524 391.231 169.999 392.639 168.347 394.509" fill="white"/>
<path d="M154.259 334.851L158.675 352.271C156.697 354.384 144.506 364.896 142.907 363.325L136.08 339.402L154.286 334.824L154.259 334.851Z" fill="white"/>
<path d="M137.191 277.904C138.518 282.618 135.186 285.137 131.42 287.494C129.307 288.849 118.362 294.024 116.763 292.642L113.268 280.18L137.164 277.904H137.191Z" fill="white"/>
</svg>
