<svg width="270" height="470" viewBox="0 0 270 470" fill="none" xmlns="http://www.w3.org/2000/svg">
<path d="M21.2732 160.478C43.4886 182.91 108.835 193.991 120.186 212.251C123.41 217.425 131.971 233.057 134.382 238.53C149.256 272.422 114.795 289.571 109.268 318.451C106.423 333.271 111.273 349.553 119.698 361.826C124.873 369.357 141.318 385.667 149.852 388.511C171.309 395.637 224.626 384.827 217.528 422.783C216.85 426.413 211.026 444.267 207.802 452.259C208.885 452.638 209.942 453.072 210.999 453.532C219.614 436.654 234.867 411.214 219.397 394.58C198.807 372.419 165.457 384.177 148.118 370.847C142.971 366.892 134.491 356.57 131.565 351.693C130.4 349.797 127.176 345.787 126.363 343.918C112.302 311.624 139.801 298.295 147.766 270.309C155.081 244.734 145.436 235.171 134.518 214.743C132.73 211.411 132.296 206.209 130.129 203.554C111.977 181.474 60.4482 175.406 36.0112 159.286C31.1889 156.089 18.1847 143.654 16.6405 138.289C14.0938 129.43 29.5904 125.339 36.0654 125.692C46.9022 126.342 61.2068 139.888 69.1448 147.365C75.8636 153.651 82.9617 163.81 89.6534 168.551C94.9364 172.317 100.924 176.706 100.842 166.736C100.815 162.862 88.922 144.439 86.1044 139.969C71.0412 116.291 44.4911 82.9405 52.8354 52.7329C56.0052 41.2188 68.9551 31.3031 80.7673 37.8864C88.1092 41.9773 97.4559 73.8646 100.436 83.1843C103.199 91.8808 116.61 145.442 119.888 147.636C121.378 148.639 123.058 148.801 124.765 148.937C127.609 138.506 124.44 127.913 124.223 117.51C123.708 92.7749 124.277 60.3186 133.976 37.5072C137.959 28.1062 152.995 1.55606 160.905 22.4169C167.922 40.9208 158.332 91.2848 153.807 111.631C150.692 125.746 145.761 139.996 143.702 154.003L147.197 156.468L150.529 155.222C165.647 123.904 182.687 72.2933 211.242 50.8635C216.634 46.8268 226.224 41.5168 233.106 44.2531C234.081 54.9544 230.288 65.439 226.631 75.3818C212.028 115.099 200.026 132.248 166.134 157.01C162.206 159.855 155.65 162.293 152.263 165.192C138.69 176.868 140.668 193.991 149.175 207.916C153.834 215.556 168.491 228.641 170.333 235.333C172.555 243.406 169.656 257.928 166.568 265.703C158.169 286.7 127.826 315.851 139.34 339.475C155.189 371.958 232.564 347.196 246.435 397.289C250.174 410.808 249.523 434.351 242.534 446.786C240.989 449.55 238.605 450.796 237.738 452.34C236.113 455.185 235.029 457.623 234.244 459.926C238.958 459.899 243.374 460.414 247.6 461.28C249.28 459.14 250.797 457.162 251.582 455.699C254.644 450.064 257.516 442.208 258.843 435.949C269.057 387.536 248.06 361.094 201.029 351.531C183.473 347.982 140.424 351.341 147.359 322.407C153.862 295.179 177.892 281.2 180.059 246.874C181.604 222.519 159.632 215.583 151.586 195.995C142.998 175.108 164.536 169.825 177.188 160.559C209.996 136.501 224.924 109.328 236.194 70.3698C238.362 62.8924 245.405 40.4602 235.246 37.0737C215.36 30.4632 195.935 53.0309 185.64 67.1187L160.418 109.355C163.804 94.0211 166.784 77.2782 168.085 61.592C169.114 49.1838 170.957 18.7324 159.388 11.255C150.123 5.26767 143.756 9.76494 137.39 17.2423C121.839 35.5836 117.179 66.8478 116.068 90.1469C115.689 98.3287 116.068 106.781 116.556 114.909L95.2886 51.2699C81.282 13.6933 45.7373 27.5102 43.4616 64.0573C41.7006 92.4769 61.2881 119.162 74.9154 142.272C57.712 131.544 45.0058 111.604 21.1106 120.923C-0.535881 129.349 9.24434 148.395 21.1919 160.451L21.2732 160.478Z" fill="#7B3FE4"/>
<path d="M234.379 468.297L226.36 457.189C227.281 454.453 228.581 451.554 230.478 448.168C231.48 446.407 232.781 445.188 233.81 444.212C234.46 443.616 235.002 443.074 235.273 442.641C240.989 432.481 241.64 411.133 238.416 399.51C232.076 376.672 208.831 372.744 184.205 368.626C171.309 366.458 158.142 364.264 147.793 358.845C149.825 361.067 151.775 363.018 153.238 364.128C158.874 368.436 168.22 369.411 178.082 370.441C193.037 371.985 211.703 373.909 225.547 388.809C243.834 408.478 229.828 435.407 220.562 453.234L218.476 457.271L207.72 461.172C206.826 460.793 205.932 460.413 205.011 460.088L200.053 449.035C203.413 440.745 208.831 423.731 209.292 421.184C210.809 413.057 208.479 410.049 207.72 409.047C202.383 402.166 185.749 400.946 172.311 399.998C162.964 399.321 154.132 398.698 147.197 396.395C136.225 392.765 118.425 374.721 112.79 366.512C102.36 351.341 97.9707 332.756 101.032 316.826C103.443 304.255 110.216 294.204 116.745 284.478C127.501 268.493 133.732 257.901 126.688 241.862C124.521 236.931 116.258 221.76 113.061 216.666C108.862 209.921 89.1658 202.362 71.7998 195.724C50.1262 187.434 27.694 178.846 15.313 166.33C9.8133 160.776 -2.62194 146.281 0.493641 131.462C1.71278 125.746 5.74949 117.916 18.1576 113.094C30.0239 108.461 39.8583 109.761 48.284 113.392C40.2105 97.9493 34.0877 81.2877 35.1985 63.5153C36.6073 40.9747 49.5844 23.4191 66.7878 20.8725C78.8438 19.1115 94.6926 25.3698 103.227 48.3167L109.81 67.9313C112.627 47.9103 118.669 26.3993 131.077 11.7425C135.006 7.13683 146.899 -6.89684 164.021 4.12961C175.237 11.3903 179.22 29.8399 176.538 62.2149C176.402 63.732 176.267 65.2492 176.104 66.7934L178.515 62.7296C199.484 33.9579 219.316 22.8773 237.955 29.0272C255.348 34.8249 247.844 60.5352 244.647 71.5345C233.512 110.005 218.828 140.402 182.254 167.251C179.274 169.418 175.86 171.423 172.392 173.401C158.928 181.176 155.893 184.075 159.442 192.717C162.016 199.002 166.622 203.987 171.498 209.27C180.032 218.509 189.677 228.939 188.512 247.335C187.131 269.171 177.675 283.773 169.331 296.642C163.533 305.582 158.061 314.062 155.595 324.276C154.295 329.694 155.812 331.808 156.3 332.512C160.797 338.797 177.648 340.423 188.81 341.479C194.12 341.994 198.997 342.482 202.763 343.24C229.746 348.713 248.846 359.739 259.52 375.995C269.87 391.735 272.416 412.46 267.106 437.602C265.616 444.673 262.446 453.342 259.033 459.628C258.057 461.416 256.296 463.8 254.292 466.346L246.002 469.408C241.884 468.595 238.091 468.189 234.379 468.216V468.297ZM145.219 216.721C145.761 217.696 146.33 218.644 146.845 219.565C154.62 233.166 161.474 245.086 157.519 265.54C158.034 264.538 158.467 263.536 158.846 262.587C161.664 255.489 163.831 243 162.314 237.582C161.556 235.36 155.866 228.993 152.48 225.2C149.852 222.247 147.332 219.43 145.219 216.748V216.721ZM105.746 177.844C117.612 182.829 128.205 188.762 135.412 196.808C132.269 184.373 134.653 172.534 142.402 163.349L138.907 160.884L135.439 152.811C136.766 143.708 139.205 134.605 141.589 125.8C143.025 120.463 144.461 115.153 145.653 109.843C152.886 77.1426 158.007 38.3739 153.076 25.4239C152.859 24.855 152.669 24.3674 152.48 23.9881C149.527 26.6702 144.704 33.7141 141.724 40.8122C132.703 62.0523 132.134 92.8831 132.648 117.347C132.703 120.517 133.082 123.687 133.434 126.884C134.274 134.253 135.195 142.597 132.865 151.158L124.142 157.335C122.028 157.2 118.561 156.902 115.201 154.626C111.381 152.079 109.702 149.234 96.8329 101.552C94.828 94.1835 93.2296 88.1961 92.471 85.7849L91.4145 82.4797C82.7992 54.9 78.4374 46.8808 76.2971 44.9844C74.4007 43.982 72.0437 43.8736 69.497 44.9302C65.5958 46.5828 62.1551 50.6195 60.9359 55.0084C54.7048 77.4948 72.3417 104.018 86.5108 125.339C88.8678 128.888 91.1164 132.275 93.1754 135.499C108.049 158.852 109.187 163.268 109.214 166.709C109.268 171.585 108.103 175.324 105.746 177.844ZM25.2016 136.826C27.6398 140.673 36.6615 149.641 40.644 152.269C49.2593 157.958 62.0467 162.428 75.7823 167.061C74.2381 165.381 72.721 163.647 71.2309 161.941C68.603 158.906 65.975 155.899 63.4013 153.488C57.2514 147.69 43.0823 134.632 35.5507 134.063C32.5977 133.9 27.3147 135.363 25.1745 136.826H25.2016ZM76.9202 143.22C78.329 144.656 79.7378 146.173 81.1195 147.744C80.6318 146.986 80.1442 146.2 79.6294 145.387C78.9792 144.358 78.3561 143.383 77.733 142.434L76.9202 143.22ZM224.545 52.9223C222.133 53.8435 219.235 55.4148 216.309 57.6093C195.746 73.0246 180.656 107.757 168.545 135.688C166.486 140.402 164.509 144.981 162.558 149.316C193.416 126.586 204.605 111.224 218.828 72.5369C221.185 66.062 223.623 59.4515 224.545 52.9223Z" fill="#7B3FE4"/>
<path d="M36.0383 159.259C60.4753 175.406 111.977 181.447 130.156 203.527C132.323 206.155 132.757 211.357 134.545 214.689C145.463 235.143 155.081 244.68 147.793 270.255C139.801 298.241 112.329 311.543 126.39 343.864C127.203 345.733 130.454 349.716 131.592 351.639C134.545 356.516 143.025 366.838 148.172 370.793C165.511 384.15 198.861 372.392 219.451 394.526C234.921 411.187 219.668 436.627 211.053 453.478C215.604 455.402 219.993 457.704 224.084 460.657C227.633 460.143 231.047 459.926 234.352 459.899C235.138 457.596 236.221 455.131 237.847 452.286C238.714 450.742 241.098 449.495 242.642 446.759C249.632 434.324 250.309 410.781 246.543 397.262C232.672 347.169 155.27 371.931 139.449 339.475C127.907 315.823 158.278 286.672 166.676 265.703C169.765 257.928 172.663 243.407 170.442 235.333C168.6 228.668 153.943 215.583 149.256 207.943C140.776 194.018 138.771 176.896 152.371 165.219C155.731 162.32 162.314 159.882 166.243 157.037C200.135 132.275 212.164 115.126 226.739 75.4089C230.396 65.4662 234.162 54.9815 233.214 44.2802C226.333 41.5168 216.742 46.8269 211.324 50.8636C182.769 72.2933 165.728 123.931 150.61 155.222L147.278 156.468L143.783 154.003C145.842 139.996 150.746 125.746 153.889 111.631C158.386 91.2849 168.004 40.9479 160.96 22.4169C153.049 1.55609 138.04 28.1063 134.057 37.5072C124.358 60.3187 123.789 92.7749 124.304 117.51C124.521 127.913 127.691 138.506 124.846 148.937C123.112 148.801 121.459 148.666 119.942 147.663C116.664 145.469 103.281 91.8809 100.49 83.1843C97.5101 73.8376 88.1634 41.9774 80.8214 37.8865C69.0093 31.3031 56.0593 41.1917 52.8896 52.7058C44.5452 82.9134 71.1225 116.264 86.1586 139.942C88.9761 144.385 100.87 162.835 100.897 166.709C100.978 176.652 94.9906 172.29 89.7076 168.524C83.043 163.756 75.9178 153.596 69.199 147.311C61.261 139.861 46.9564 126.288 36.1196 125.665C29.6446 125.285 14.148 129.403 16.6946 138.262C18.2389 143.6 31.216 156.035 36.0654 159.232L36.0383 159.259Z" fill="#7B3FE4"/>
<path d="M225.222 468.975L219.153 467.485C215.902 465.128 212.164 463.096 207.748 461.227L203.548 449.685L205.661 445.595C215.415 426.82 222.757 410.429 213.274 400.243C203.738 389.948 190.49 388.566 176.375 387.13C164.59 385.884 152.399 384.637 143.025 377.431C136.631 372.5 127.582 361.23 124.385 355.974C124.006 355.324 123.356 354.457 122.679 353.536C120.782 350.908 119.482 349.039 118.669 347.196C107.751 322.109 118.398 305.664 127.799 291.17C132.459 283.991 137.254 276.567 139.72 267.979C144.894 249.855 140.424 242.052 132.296 227.883C130.644 225.011 128.91 221.977 127.149 218.645C125.957 216.423 125.279 214.066 124.683 212.007C124.358 210.896 123.871 209.217 123.573 208.702C114.551 197.73 93.5818 190.686 73.2899 183.886C57.4411 178.549 42.4321 173.509 31.4327 166.249C27.5315 163.675 11.2492 149.641 8.64834 140.62C7.26664 135.797 8.24196 130.948 11.4117 126.992C17.8596 118.919 31.1889 116.968 36.6073 117.293C49.3947 118.133 62.9137 129.918 74.6987 140.999C76.8931 143.058 79.0334 145.361 81.1466 147.718C80.6318 146.878 80.0629 146.011 79.494 145.117C77.0828 141.297 74.8612 137.992 72.5855 134.524C56.547 110.358 36.5802 80.2858 44.8162 50.4574C47.417 41.0836 54.4068 33.0102 63.0762 29.3799C70.364 26.3456 78.1123 26.7519 84.9124 30.5448C91.9834 34.4732 97.8895 46.7729 107.507 77.5224L108.482 80.6109C109.295 83.1304 110.975 89.3616 113.034 97.0015C113.792 99.8462 114.741 103.341 115.77 107.107C115.689 83.0491 117.369 55.2798 126.309 34.2022C128.314 29.4611 139.069 5.91817 153.645 6.21618C158.196 6.29746 164.725 8.65447 168.789 19.4371C175.887 38.1306 168.789 80.8547 163.831 105.129C175.02 81.0985 188.214 57.7181 206.285 44.145C211.432 40.2979 224.734 31.791 236.33 36.478L241.558 43.4948C242.696 56.2551 238.226 68.4466 234.596 78.2539C219.153 120.274 205.526 138.669 171.173 163.756C169.06 165.301 166.324 166.763 163.588 168.172C161.393 169.31 158.928 170.583 157.844 171.532C145.463 182.179 152.724 197.459 156.435 203.527C158.007 206.101 161.583 210.111 165.023 213.958C172.42 222.248 177.052 227.666 178.515 233.031C181.55 244.084 177.621 260.8 174.451 268.765C171.607 275.89 166.839 283.313 161.772 291.197C151.559 307.1 141.02 323.545 146.98 335.763C152.073 346.221 169.033 349.066 187.022 352.073C213.058 356.435 245.433 361.853 254.644 394.987C258.87 410.294 258.301 436.004 249.957 450.823C248.413 453.533 246.57 455.266 245.324 456.431C243.834 458.707 242.94 460.685 242.29 462.581L234.433 468.243C231.48 468.243 228.446 468.46 225.276 468.921L225.222 468.975ZM222.404 449.713C223.705 450.444 224.951 451.176 226.143 451.961C226.983 451.88 227.796 451.799 228.608 451.744C229.15 450.607 229.773 449.414 230.478 448.168C231.507 446.38 232.781 445.188 233.783 444.24C234.433 443.617 235.002 443.102 235.273 442.642C240.962 432.536 241.613 411.161 238.389 399.511C232.049 376.672 208.804 372.771 184.178 368.653C171.282 366.486 158.142 364.291 147.766 358.873C149.798 361.095 151.748 363.018 153.184 364.156C158.792 368.464 168.166 369.439 178.028 370.468C193.01 372.013 211.649 373.936 225.493 388.837C242.615 407.259 231.48 431.994 222.35 449.74L222.404 449.713ZM145.3 216.83C145.815 217.751 146.357 218.672 146.872 219.566C154.647 233.166 161.502 245.087 157.546 265.568C158.061 264.566 158.494 263.563 158.874 262.615C161.691 255.517 163.859 243.027 162.341 237.582C161.583 235.388 155.893 229.021 152.507 225.228C149.906 222.329 147.387 219.512 145.3 216.857V216.83ZM105.746 177.844C117.612 182.829 128.233 188.789 135.439 196.863C132.296 184.4 134.68 172.534 142.429 163.35H142.402L138.907 160.885L135.439 152.838C136.766 143.735 139.205 134.632 141.589 125.827C143.025 120.49 144.461 115.153 145.653 109.843C152.344 79.5272 158.305 39.2143 153.049 25.4244C152.832 24.8555 152.642 24.3949 152.453 23.9886C149.5 26.6978 144.704 33.7417 141.697 40.8127C132.54 62.3238 132.134 94.78 132.594 117.348C132.676 120.544 133.028 123.714 133.407 126.911C134.247 134.28 135.168 142.597 132.865 151.158L124.142 157.308C122.083 157.173 118.669 156.902 115.283 154.68C111.354 152.025 109.674 149.154 96.7787 101.418C94.801 94.1027 93.2025 88.1424 92.4439 85.7583L91.4415 82.5886C82.7992 54.9276 78.4103 46.8542 76.27 44.9849C74.4007 43.9825 72.0166 43.847 69.4699 44.9307C65.5687 46.5562 62.128 50.62 60.9088 55.0089C54.7048 77.4682 72.3417 103.991 86.4837 125.313C88.8407 128.862 91.1164 132.275 93.1754 135.499C108.022 158.771 109.214 163.214 109.241 166.682C109.241 171.613 108.103 175.352 105.746 177.871V177.844ZM40.644 152.269C49.2593 157.959 62.0467 162.429 75.8094 167.061C74.2652 165.382 72.721 163.621 71.2309 161.887C68.603 158.88 65.975 155.845 63.4284 153.461C57.2514 147.637 43.3803 134.47 35.6049 134.063C32.6248 133.874 27.3689 135.364 25.2287 136.827C27.6669 140.647 36.6886 149.614 40.6711 152.269H40.644ZM224.545 52.9228C222.133 53.8439 219.235 55.4153 216.309 57.6097C195.773 72.998 180.71 107.73 168.6 135.608C166.541 140.349 164.536 144.927 162.612 149.289C193.47 126.559 204.632 111.171 218.855 72.5104C221.131 66.3334 223.624 59.5604 224.572 52.9228H224.545Z" fill="#7B3FE4"/>
<path d="M21.2732 160.478C43.4886 182.91 108.835 193.991 120.186 212.251C123.41 217.425 131.971 233.057 134.382 238.53C149.256 272.422 114.795 289.571 109.268 318.451C106.423 333.271 111.273 349.553 119.698 361.826C124.873 369.357 141.318 385.667 149.852 388.511C171.309 395.637 224.626 384.827 217.528 422.783C216.85 426.413 211.026 444.267 207.802 452.259C208.885 452.638 209.942 453.072 210.999 453.532C219.614 436.654 234.867 411.214 219.397 394.58C198.807 372.419 165.457 384.177 148.118 370.847C142.971 366.892 134.491 356.57 131.565 351.693C130.4 349.797 127.176 345.787 126.363 343.918C112.302 311.624 139.801 298.295 147.766 270.309C155.081 244.734 145.436 235.171 134.518 214.743C132.73 211.411 132.296 206.209 130.129 203.554C111.977 181.474 60.4482 175.406 36.0112 159.286C31.1889 156.089 18.1847 143.654 16.6405 138.289C14.0938 129.43 29.5904 125.339 36.0654 125.692C46.9022 126.342 61.2068 139.888 69.1448 147.365C75.8636 153.651 82.9617 163.81 89.6534 168.551C94.9364 172.317 100.924 176.706 100.842 166.736C100.815 162.862 88.922 144.439 86.1044 139.969C71.0412 116.291 44.4911 82.9405 52.8354 52.7329C56.0052 41.2188 68.9551 31.3031 80.7673 37.8864C88.1092 41.9773 97.4559 73.8646 100.436 83.1843C103.199 91.8808 116.61 145.442 119.888 147.636C121.378 148.639 123.058 148.801 124.765 148.937C127.609 138.506 124.44 127.913 124.223 117.51C123.708 92.7749 124.277 60.3186 133.976 37.5072C137.959 28.1062 152.995 1.55606 160.905 22.4169C167.922 40.9208 158.332 91.2848 153.807 111.631C150.692 125.746 145.761 139.996 143.702 154.003L147.197 156.468L150.529 155.222C165.647 123.904 182.687 72.2933 211.242 50.8635C216.634 46.8268 226.224 41.5168 233.106 44.2531C234.081 54.9544 230.288 65.439 226.631 75.3818C212.028 115.099 200.026 132.248 166.134 157.01C162.206 159.855 155.65 162.293 152.263 165.192C138.69 176.868 140.668 193.991 149.175 207.916C153.834 215.556 168.491 228.641 170.333 235.333C172.555 243.406 169.656 257.928 166.568 265.703C158.169 286.7 127.826 315.851 139.34 339.475C155.189 371.958 232.564 347.196 246.435 397.289C250.174 410.808 249.523 434.351 242.534 446.786C240.989 449.55 238.605 450.796 237.738 452.34C236.113 455.185 235.029 457.623 234.244 459.926C238.958 459.899 243.374 460.414 247.6 461.28C249.28 459.14 250.797 457.162 251.582 455.699C254.644 450.064 257.516 442.208 258.843 435.949C269.057 387.536 248.06 361.094 201.029 351.531C183.473 347.982 140.424 351.341 147.359 322.407C153.862 295.179 177.892 281.2 180.059 246.874C181.604 222.519 159.632 215.583 151.586 195.995C142.998 175.108 164.536 169.825 177.188 160.559C209.996 136.501 224.924 109.328 236.194 70.3698C238.362 62.8924 245.405 40.4602 235.246 37.0737C215.36 30.4632 195.935 53.0309 185.64 67.1187L160.418 109.355C163.804 94.0211 166.784 77.2782 168.085 61.592C169.114 49.1838 170.957 18.7324 159.388 11.255C150.123 5.26767 143.756 9.76494 137.39 17.2423C121.839 35.5836 117.179 66.8478 116.068 90.1469C115.689 98.3287 116.068 106.781 116.556 114.909L95.2886 51.2699C81.282 13.6933 45.7373 27.5102 43.4616 64.0573C41.7006 92.4769 61.2881 119.162 74.9154 142.272C57.712 131.544 45.0058 111.604 21.1106 120.923C-0.535881 129.349 9.24434 148.395 21.1919 160.451L21.2732 160.478Z" fill="#1D1D1B"/>
<path d="M36.0383 159.259C60.4753 175.406 111.977 181.447 130.156 203.527C132.323 206.155 132.757 211.357 134.545 214.689C145.463 235.143 155.081 244.68 147.793 270.255C139.801 298.241 112.329 311.543 126.39 343.864C127.203 345.733 130.454 349.716 131.592 351.639C134.545 356.516 143.025 366.838 148.172 370.793C165.511 384.15 198.861 372.392 219.451 394.526C234.921 411.187 219.668 436.627 211.053 453.478C215.604 455.402 219.993 457.704 224.084 460.657C227.633 460.143 231.047 459.926 234.352 459.899C235.138 457.596 236.221 455.131 237.847 452.286C238.714 450.742 241.098 449.495 242.642 446.759C249.632 434.324 250.309 410.781 246.543 397.262C232.672 347.169 155.27 371.931 139.449 339.475C127.907 315.823 158.278 286.672 166.676 265.703C169.765 257.928 172.663 243.407 170.442 235.333C168.6 228.668 153.943 215.583 149.256 207.943C140.776 194.018 138.771 176.896 152.371 165.219C155.731 162.32 162.314 159.882 166.243 157.037C200.135 132.275 212.164 115.126 226.739 75.4089C230.396 65.4662 234.162 54.9815 233.214 44.2802C226.333 41.5168 216.742 46.8269 211.324 50.8636C182.769 72.2933 165.728 123.931 150.61 155.222L147.278 156.468L143.783 154.003C145.842 139.996 150.746 125.746 153.889 111.631C158.386 91.2849 168.004 40.9479 160.96 22.4169C153.049 1.55609 138.04 28.1063 134.057 37.5072C124.358 60.3187 123.789 92.7749 124.304 117.51C124.521 127.913 127.691 138.506 124.846 148.937C123.112 148.801 121.459 148.666 119.942 147.663C116.664 145.469 103.281 91.8809 100.49 83.1843C97.5101 73.8376 88.1634 41.9774 80.8214 37.8865C69.0093 31.3031 56.0593 41.1917 52.8896 52.7058C44.5452 82.9134 71.1225 116.264 86.1586 139.942C88.9761 144.385 100.87 162.835 100.897 166.709C100.978 176.652 94.9906 172.29 89.7076 168.524C83.043 163.756 75.9178 153.596 69.199 147.311C61.261 139.861 46.9564 126.288 36.1196 125.665C29.6446 125.285 14.148 129.403 16.6946 138.262C18.2389 143.6 31.216 156.035 36.0654 159.232L36.0383 159.259Z" fill="white"/>
</svg>
