<?xml version="1.0" encoding="UTF-8"?><svg id="Layer_1" xmlns="http://www.w3.org/2000/svg" viewBox="0 0 270 470"><path d="M21.273,160.478c22.215,22.432,87.562,33.513,98.913,51.773,3.224,5.174,11.785,20.806,14.196,26.279,14.874,33.892-19.587,51.041-25.114,79.921-2.845,14.82,2.005,31.102,10.43,43.375,5.175,7.531,21.62,23.841,30.154,26.685,21.457,7.126,74.774-3.684,67.676,34.272-.678,3.63-6.502,21.484-9.726,29.476,1.083.379,2.14.813,3.197,1.273,8.615-16.878,23.868-42.318,8.398-58.952-20.59-22.161-53.94-10.403-71.279-23.733-5.147-3.955-13.627-14.277-16.553-19.154-1.165-1.896-4.389-5.906-5.202-7.775-14.061-32.294,13.438-45.623,21.403-73.609,7.315-25.575-2.33-35.138-13.248-55.566-1.788-3.332-2.222-8.534-4.389-11.189-18.152-22.08-69.681-28.148-94.118-44.268-4.822-3.197-17.826-15.632-19.371-20.997-2.547-8.859,12.95-12.95,19.425-12.597,10.837.65,25.141,14.196,33.079,21.673,6.719,6.286,13.817,16.445,20.509,21.186,5.283,3.766,11.271,8.155,11.189-1.815-.027-3.874-11.92-22.297-14.738-26.767-15.063-23.678-41.613-57.028-33.269-87.236,3.17-11.514,16.12-21.43,27.932-14.847,7.342,4.091,16.689,35.978,19.669,45.298,2.763,8.696,16.174,62.258,19.452,64.452,1.49,1.003,3.17,1.165,4.877,1.301,2.844-10.431-.325-21.024-.542-31.427-.515-24.735.054-57.191,9.753-80.003,3.983-9.401,19.019-35.951,26.929-15.09,7.017,18.504-2.573,68.868-7.098,89.214-3.115,14.115-8.046,28.365-10.105,42.372l3.495,2.465,3.332-1.246c15.118-31.318,32.158-82.929,60.713-104.359,5.392-4.037,14.982-9.347,21.864-6.61.975,10.701-2.818,21.186-6.475,31.129-14.603,39.717-26.605,56.866-60.497,81.628-3.928,2.845-10.484,5.283-13.871,8.182-13.573,11.676-11.595,28.799-3.088,42.724,4.659,7.64,19.316,20.725,21.158,27.417,2.222,8.073-.677,22.595-3.765,30.37-8.399,20.997-38.742,50.148-27.228,73.772,15.849,32.483,93.224,7.721,107.095,57.814,3.739,13.519,3.088,37.062-3.901,49.497-1.545,2.764-3.929,4.01-4.796,5.554-1.625,2.845-2.709,5.283-3.494,7.586,4.714-.027,9.13.488,13.356,1.354,1.68-2.14,3.197-4.118,3.982-5.581,3.062-5.635,5.934-13.491,7.261-19.75,10.214-48.413-10.783-74.855-57.814-84.418-17.556-3.549-60.605-.19-53.67-29.124,6.503-27.228,30.533-41.207,32.7-75.533,1.545-24.355-20.427-31.291-28.473-50.879-8.588-20.887,12.95-26.17,25.602-35.436,32.808-24.058,47.736-51.231,59.006-90.189,2.168-7.477,9.211-29.91-.948-33.296-19.886-6.611-39.311,15.957-49.606,30.045l-25.222,42.236c3.386-15.334,6.366-32.077,7.667-47.763,1.029-12.408,2.872-42.86-8.697-50.337-9.265-5.987-15.632-1.49-21.998,5.987-15.551,18.341-20.211,49.606-21.322,72.905-.379,8.182,0,16.634.488,24.762l-21.267-63.639c-14.007-37.577-49.551-23.76-51.827,12.787-1.761,28.42,17.826,55.105,31.454,78.215-17.203-10.728-29.91-30.668-53.805-21.349-21.646,8.426-11.866,27.472.081,39.528l.081.027Z" style="fill:#7b3fe4;"/><path d="M234.379,468.297l-8.019-11.108c.921-2.736,2.221-5.635,4.118-9.021,1.002-1.761,2.303-2.98,3.332-3.956.65-.596,1.192-1.138,1.463-1.571,5.716-10.16,6.367-31.508,3.143-43.131-6.34-22.838-29.585-26.766-54.211-30.884-12.896-2.168-26.063-4.362-36.412-9.781,2.032,2.222,3.982,4.173,5.445,5.283,5.636,4.308,14.982,5.283,24.844,6.313,14.955,1.544,33.621,3.468,47.465,18.368,18.287,19.669,4.281,46.598-4.985,64.425l-2.086,4.037-10.756,3.901c-.894-.379-1.788-.759-2.709-1.084l-4.958-11.053c3.36-8.29,8.778-25.304,9.239-27.851,1.517-8.127-.813-11.135-1.572-12.137-5.337-6.881-21.971-8.101-35.409-9.049-9.347-.677-18.179-1.3-25.114-3.603-10.972-3.63-28.772-21.674-34.407-29.883-10.43-15.171-14.819-33.756-11.758-49.686,2.411-12.571,9.184-22.622,15.713-32.348,10.756-15.985,16.987-26.577,9.943-42.616-2.167-4.931-10.43-20.102-13.627-25.196-4.199-6.745-23.895-14.304-41.261-20.942-21.674-8.29-44.106-16.878-56.487-29.394-5.5-5.554-17.935-20.049-14.819-34.868,1.219-5.716,5.256-13.546,17.664-18.368,11.866-4.633,21.701-3.333,30.126.298-8.074-15.443-14.196-32.104-13.085-49.877,1.409-22.541,14.386-40.096,31.589-42.643,12.056-1.761,27.905,4.497,36.439,27.444l6.583,19.615c2.817-20.021,8.859-41.532,21.267-56.189,3.929-4.606,15.822-18.639,32.944-7.613,11.216,7.261,15.199,25.71,12.517,58.085-.136,1.517-.271,3.034-.434,4.579l2.411-4.064c20.969-28.772,40.801-39.852,59.44-33.702,17.393,5.798,9.889,31.508,6.692,42.507-11.135,38.47-25.819,68.867-62.393,95.717-2.98,2.167-6.394,4.172-9.862,6.15-13.464,7.775-16.499,10.674-12.95,19.316,2.574,6.285,7.18,11.27,12.056,16.553,8.534,9.239,18.179,19.669,17.014,38.065-1.381,21.836-10.837,36.438-19.181,49.307-5.798,8.94-11.27,17.42-13.736,27.634-1.3,5.418.217,7.532.705,8.236,4.497,6.285,21.348,7.911,32.51,8.967,5.31.515,10.187,1.003,13.953,1.761,26.983,5.473,46.083,16.499,56.757,32.755,10.35,15.74,12.896,36.465,7.586,61.607-1.49,7.071-4.66,15.74-8.073,22.026-.976,1.788-2.737,4.172-4.741,6.718l-8.29,3.062c-4.118-.813-7.911-1.219-11.623-1.192v.081ZM145.219,216.721c.542.975,1.111,1.923,1.626,2.844,7.775,13.601,14.629,25.521,10.674,45.975.515-1.002.948-2.004,1.327-2.953,2.818-7.098,4.985-19.587,3.468-25.005-.758-2.222-6.448-8.589-9.834-12.382-2.628-2.953-5.148-5.77-7.261-8.452v-.027ZM105.746,177.844c11.866,4.985,22.459,10.918,29.666,18.964-3.143-12.435-.759-24.274,6.99-33.459l-3.495-2.465-3.468-8.073c1.327-9.103,3.766-18.206,6.15-27.011,1.436-5.337,2.872-10.647,4.064-15.957,7.233-32.7,12.354-71.469,7.423-84.419-.217-.569-.407-1.057-.596-1.436-2.953,2.682-7.776,9.726-10.756,16.824-9.021,21.24-9.59,52.071-9.076,76.535.055,3.17.434,6.34.786,9.537.84,7.369,1.761,15.713-.569,24.274l-8.723,6.177c-2.114-.135-5.581-.433-8.941-2.709-3.82-2.547-5.499-5.392-18.368-53.074-2.005-7.368-3.603-13.356-4.362-15.767l-1.057-3.305c-8.615-27.58-12.977-35.599-15.117-37.495-1.896-1.002-4.253-1.111-6.8-.054-3.901,1.653-7.342,5.689-8.561,10.078-6.231,22.486,11.406,49.01,25.575,70.331,2.357,3.549,4.606,6.936,6.665,10.16,14.874,23.353,16.012,27.769,16.039,31.21.054,4.876-1.111,8.615-3.468,11.135ZM25.202,136.826c2.438,3.847,11.46,12.815,15.442,15.443,8.615,5.689,21.403,10.159,35.138,14.792-1.544-1.68-3.061-3.414-4.551-5.12-2.628-3.035-5.256-6.042-7.83-8.453-6.15-5.798-20.319-18.856-27.851-19.425-2.953-.163-8.236,1.3-10.376,2.763h.027ZM76.92,143.22c1.409,1.436,2.818,2.953,4.199,4.524-.488-.758-.975-1.544-1.49-2.357-.65-1.029-1.273-2.004-1.896-2.953l-.813.786ZM224.545,52.922c-2.412.921-5.31,2.493-8.236,4.687-20.563,15.415-35.653,50.148-47.764,78.079-2.059,4.714-4.036,9.293-5.987,13.628,30.858-22.73,42.047-38.092,56.27-76.779,2.357-6.475,4.795-13.085,5.717-19.615Z" style="fill:#7b3fe4;"/><path d="M36.038,159.259c24.437,16.147,75.939,22.188,94.118,44.268,2.167,2.628,2.601,7.83,4.389,11.162,10.918,20.454,20.536,29.991,13.248,55.566-7.992,27.986-35.464,41.288-21.403,73.609.813,1.869,4.064,5.852,5.202,7.775,2.953,4.877,11.433,15.199,16.58,19.154,17.339,13.357,50.689,1.599,71.279,23.733,15.47,16.661.217,42.101-8.398,58.952,4.551,1.924,8.94,4.226,13.031,7.179,3.549-.514,6.963-.731,10.268-.758.786-2.303,1.869-4.768,3.495-7.613.867-1.544,3.251-2.791,4.795-5.527,6.99-12.435,7.667-35.978,3.901-49.497-13.871-50.093-91.273-25.331-107.094-57.787-11.542-23.652,18.829-52.803,27.227-73.772,3.089-7.775,5.987-22.296,3.766-30.37-1.842-6.665-16.499-19.75-21.186-27.39-8.48-13.925-10.485-31.047,3.115-42.724,3.36-2.899,9.943-5.337,13.872-8.182,33.892-24.762,45.921-41.911,60.496-81.628,3.657-9.943,7.423-20.427,6.475-31.129-6.881-2.763-16.472,2.547-21.89,6.583-28.555,21.43-45.596,73.067-60.714,104.358l-3.332,1.246-3.495-2.465c2.059-14.007,6.963-28.257,10.106-42.372,4.497-20.346,14.115-70.683,7.071-89.214-7.911-20.861-22.92,5.689-26.903,15.09-9.699,22.812-10.268,55.268-9.753,80.003.217,10.403,3.387,20.996.542,31.427-1.734-.136-3.387-.271-4.904-1.274-3.278-2.194-16.661-55.782-19.452-64.479-2.98-9.347-12.327-41.207-19.669-45.298-11.812-6.583-24.762,3.305-27.932,14.819-8.344,30.208,18.233,63.558,33.269,87.236,2.817,4.443,14.711,22.893,14.738,26.767.081,9.943-5.906,5.581-11.189,1.815-6.665-4.768-13.79-14.928-20.509-21.213-7.938-7.45-22.243-21.023-33.079-21.646-6.475-.38-21.972,3.738-19.425,12.597,1.544,5.338,14.521,17.773,19.371,20.97l-.027.027Z" style="fill:#7b3fe4;"/><path d="M225.222,468.975l-6.069-1.49c-3.251-2.357-6.989-4.389-11.405-6.258l-4.2-11.542,2.113-4.09c9.754-18.775,17.096-35.166,7.613-45.352-9.536-10.295-22.784-11.677-36.899-13.113-11.785-1.246-23.976-2.493-33.35-9.699-6.394-4.931-15.443-16.201-18.64-21.457-.379-.65-1.029-1.517-1.706-2.438-1.897-2.628-3.197-4.497-4.01-6.34-10.918-25.087-.271-41.532,9.13-56.026,4.66-7.179,9.455-14.603,11.921-23.191,5.174-18.124.704-25.927-7.424-40.096-1.652-2.872-3.386-5.906-5.147-9.238-1.192-2.222-1.87-4.579-2.466-6.638-.325-1.111-.812-2.79-1.11-3.305-9.022-10.972-29.991-18.016-50.283-24.816-15.849-5.337-30.858-10.377-41.857-17.637-3.901-2.574-20.183-16.608-22.784-25.629-1.382-4.823-.406-9.672,2.763-13.628,6.448-8.073,19.777-10.024,25.196-9.699,12.787.84,26.306,12.625,38.091,23.706,2.194,2.059,4.335,4.362,6.448,6.719-.515-.84-1.084-1.707-1.653-2.601-2.411-3.82-4.633-7.125-6.909-10.593-16.039-24.166-36.005-54.238-27.769-84.067,2.601-9.374,9.591-17.447,18.26-21.078,7.288-3.034,15.036-2.628,21.836,1.165,7.071,3.928,12.977,16.228,22.595,46.978l.975,3.089c.813,2.52,2.493,8.751,4.552,16.391.758,2.845,1.707,6.34,2.736,10.105-.081-24.058,1.599-51.827,10.539-72.905,2.005-4.741,12.76-28.284,27.336-27.986,4.551.081,11.08,2.438,15.144,13.221,7.098,18.694,0,61.418-4.958,85.692,11.189-24.03,24.383-47.411,42.454-60.984,5.147-3.847,18.449-12.354,30.045-7.667l5.228,7.017c1.138,12.76-3.332,24.952-6.962,34.759-15.443,42.02-29.07,60.415-63.423,85.502-2.113,1.545-4.849,3.007-7.585,4.416-2.195,1.138-4.66,2.411-5.744,3.36-12.381,10.647-5.12,25.927-1.409,31.995,1.572,2.574,5.148,6.584,8.588,10.431,7.397,8.29,12.029,13.708,13.492,19.073,3.035,11.053-.894,27.769-4.064,35.734-2.844,7.125-7.612,14.548-12.679,22.432-10.213,15.903-20.752,32.348-14.792,44.566,5.093,10.458,22.053,13.303,40.042,16.31,26.036,4.362,58.411,9.78,67.622,42.914,4.226,15.307,3.657,41.017-4.687,55.836-1.544,2.71-3.387,4.443-4.633,5.608-1.49,2.276-2.384,4.254-3.034,6.15l-7.857,5.662c-2.953,0-5.987.217-9.157.678l-.054.054ZM222.404,449.713c1.301.731,2.547,1.463,3.739,2.248.84-.081,1.653-.162,2.465-.217.542-1.137,1.165-2.33,1.87-3.576,1.029-1.788,2.303-2.98,3.305-3.928.65-.623,1.219-1.138,1.49-1.598,5.689-10.106,6.34-31.481,3.116-43.131-6.34-22.839-29.585-26.74-54.211-30.858-12.896-2.167-26.036-4.362-36.412-9.78,2.032,2.222,3.982,4.145,5.418,5.283,5.608,4.308,14.982,5.283,24.844,6.312,14.982,1.545,33.621,3.468,47.465,18.369,17.122,18.422,5.987,43.157-3.143,60.903l.054-.027ZM145.3,216.83c.515.921,1.057,1.842,1.572,2.736,7.775,13.6,14.63,25.521,10.674,46.002.515-1.002.948-2.005,1.328-2.953,2.817-7.098,4.985-19.588,3.467-25.033-.758-2.194-6.448-8.561-9.834-12.354-2.601-2.899-5.12-5.716-7.207-8.371v-.027ZM105.746,177.844c11.866,4.985,22.487,10.945,29.693,19.019-3.143-12.463-.759-24.329,6.99-33.513h-.027l-3.495-2.465-3.468-8.047c1.327-9.103,3.766-18.206,6.15-27.011,1.436-5.337,2.872-10.674,4.064-15.984,6.691-30.316,12.652-70.629,7.396-84.419-.217-.569-.407-1.03-.596-1.436-2.953,2.709-7.749,9.753-10.756,16.824-9.157,21.511-9.563,53.967-9.103,76.535.082,3.196.434,6.366.813,9.563.84,7.369,1.761,15.686-.542,24.247l-8.723,6.15c-2.059-.135-5.473-.406-8.859-2.628-3.929-2.655-5.609-5.526-18.504-53.262-1.978-7.315-3.576-13.276-4.335-15.66l-1.002-3.17c-8.642-27.661-13.031-35.734-15.172-37.604-1.869-1.002-4.253-1.138-6.8-.054-3.901,1.625-7.342,5.689-8.561,10.078-6.204,22.459,11.433,48.982,25.575,70.304,2.357,3.549,4.633,6.962,6.692,10.186,14.847,23.272,16.039,27.715,16.066,31.183,0,4.931-1.138,8.67-3.495,11.189v-.027ZM40.644,152.269c8.615,5.69,21.403,10.16,35.165,14.792-1.544-1.679-3.088-3.44-4.578-5.174-2.628-3.007-5.256-6.042-7.803-8.426-6.177-5.824-20.048-18.991-27.823-19.398-2.98-.189-8.236,1.301-10.376,2.764,2.438,3.82,11.46,12.787,15.442,15.442h-.027ZM224.545,52.923c-2.412.921-5.31,2.493-8.236,4.687-20.536,15.388-35.599,50.12-47.709,77.998-2.059,4.741-4.064,9.319-5.988,13.681,30.858-22.73,42.02-38.118,56.243-76.779,2.276-6.177,4.769-12.95,5.717-19.588h-.027Z" style="fill:#7b3fe4;"/><path d="M21.273,160.478c22.215,22.432,87.562,33.513,98.913,51.773,3.224,5.174,11.785,20.806,14.196,26.279,14.874,33.892-19.587,51.041-25.114,79.921-2.845,14.82,2.005,31.102,10.43,43.375,5.175,7.531,21.62,23.841,30.154,26.685,21.457,7.126,74.774-3.684,67.676,34.272-.678,3.63-6.502,21.484-9.726,29.476,1.083.379,2.14.813,3.197,1.273,8.615-16.878,23.868-42.318,8.398-58.952-20.59-22.161-53.94-10.403-71.279-23.733-5.147-3.955-13.627-14.277-16.553-19.154-1.165-1.896-4.389-5.906-5.202-7.775-14.061-32.294,13.438-45.623,21.403-73.609,7.315-25.575-2.33-35.138-13.248-55.566-1.788-3.332-2.222-8.534-4.389-11.189-18.152-22.08-69.681-28.148-94.118-44.268-4.822-3.197-17.826-15.632-19.371-20.997-2.547-8.859,12.95-12.95,19.425-12.597,10.837.65,25.141,14.196,33.079,21.673,6.719,6.286,13.817,16.445,20.509,21.186,5.283,3.766,11.271,8.155,11.189-1.815-.027-3.874-11.92-22.297-14.738-26.767-15.063-23.678-41.613-57.028-33.269-87.236,3.17-11.514,16.12-21.43,27.932-14.847,7.342,4.091,16.689,35.978,19.669,45.298,2.763,8.696,16.174,62.258,19.452,64.452,1.49,1.003,3.17,1.165,4.877,1.301,2.844-10.431-.325-21.024-.542-31.427-.515-24.735.054-57.191,9.753-80.003,3.983-9.401,19.019-35.951,26.929-15.09,7.017,18.504-2.573,68.868-7.098,89.214-3.115,14.115-8.046,28.365-10.105,42.372l3.495,2.465,3.332-1.246c15.118-31.318,32.158-82.929,60.713-104.359,5.392-4.037,14.982-9.347,21.864-6.61.975,10.701-2.818,21.186-6.475,31.129-14.603,39.717-26.605,56.866-60.497,81.628-3.928,2.845-10.484,5.283-13.871,8.182-13.573,11.676-11.595,28.799-3.088,42.724,4.659,7.64,19.316,20.725,21.158,27.417,2.222,8.073-.677,22.595-3.765,30.37-8.399,20.997-38.742,50.148-27.228,73.772,15.849,32.483,93.224,7.721,107.095,57.814,3.739,13.519,3.088,37.062-3.901,49.497-1.545,2.764-3.929,4.01-4.796,5.554-1.625,2.845-2.709,5.283-3.494,7.586,4.714-.027,9.13.488,13.356,1.354,1.68-2.14,3.197-4.118,3.982-5.581,3.062-5.635,5.934-13.491,7.261-19.75,10.214-48.413-10.783-74.855-57.814-84.418-17.556-3.549-60.605-.19-53.67-29.124,6.503-27.228,30.533-41.207,32.7-75.533,1.545-24.355-20.427-31.291-28.473-50.879-8.588-20.887,12.95-26.17,25.602-35.436,32.808-24.058,47.736-51.231,59.006-90.189,2.168-7.477,9.211-29.91-.948-33.296-19.886-6.611-39.311,15.957-49.606,30.045l-25.222,42.236c3.386-15.334,6.366-32.077,7.667-47.763,1.029-12.408,2.872-42.86-8.697-50.337-9.265-5.987-15.632-1.49-21.998,5.987-15.551,18.341-20.211,49.606-21.322,72.905-.379,8.182,0,16.634.488,24.762l-21.267-63.639c-14.007-37.577-49.551-23.76-51.827,12.787-1.761,28.42,17.826,55.105,31.454,78.215-17.203-10.728-29.91-30.668-53.805-21.349-21.646,8.426-11.866,27.472.081,39.528l.081.027Z" style="fill:#1d1d1b;"/><path d="M36.038,159.259c24.437,16.147,75.939,22.188,94.118,44.268,2.167,2.628,2.601,7.83,4.389,11.162,10.918,20.454,20.536,29.991,13.248,55.566-7.992,27.986-35.464,41.288-21.403,73.609.813,1.869,4.064,5.852,5.202,7.775,2.953,4.877,11.433,15.199,16.58,19.154,17.339,13.357,50.689,1.599,71.279,23.733,15.47,16.661.217,42.101-8.398,58.952,4.551,1.924,8.94,4.226,13.031,7.179,3.549-.514,6.963-.731,10.268-.758.786-2.303,1.869-4.768,3.495-7.613.867-1.544,3.251-2.791,4.795-5.527,6.99-12.435,7.667-35.978,3.901-49.497-13.871-50.093-91.273-25.331-107.094-57.787-11.542-23.652,18.829-52.803,27.227-73.772,3.089-7.775,5.987-22.296,3.766-30.37-1.842-6.665-16.499-19.75-21.186-27.39-8.48-13.925-10.485-31.047,3.115-42.724,3.36-2.899,9.943-5.337,13.872-8.182,33.892-24.762,45.921-41.911,60.496-81.628,3.657-9.943,7.423-20.427,6.475-31.129-6.881-2.763-16.472,2.547-21.89,6.583-28.555,21.43-45.596,73.067-60.714,104.358l-3.332,1.246-3.495-2.465c2.059-14.007,6.963-28.257,10.106-42.372,4.497-20.346,14.115-70.683,7.071-89.214-7.911-20.861-22.92,5.689-26.903,15.09-9.699,22.812-10.268,55.268-9.753,80.003.217,10.403,3.387,20.996.542,31.427-1.734-.136-3.387-.271-4.904-1.274-3.278-2.194-16.661-55.782-19.452-64.479-2.98-9.347-12.327-41.207-19.669-45.298-11.812-6.583-24.762,3.305-27.932,14.819-8.344,30.208,18.233,63.558,33.269,87.236,2.817,4.443,14.711,22.893,14.738,26.767.081,9.943-5.906,5.581-11.189,1.815-6.665-4.768-13.79-14.928-20.509-21.213-7.938-7.45-22.243-21.023-33.079-21.646-6.475-.38-21.972,3.738-19.425,12.597,1.544,5.338,14.521,17.773,19.371,20.97l-.027.027Z" style="fill:#fff;"/><path d="M78.204,275.265c-.29-.669-2.904-22.112-2.904-22.112l11.646-3.211-3.973-13.755,13.967-4.135,6.755,5.614,2.997,17.11-14.492,1.635-6.103,14.144-7.888,4.682-.005.028Z" style="fill:#7b3fe4;"/><path d="M121.117,232.075c24.022-9.657,48.959-16.965,74.394-21.778.895-.164,1.897-.306,2.642.17.794.514,1.075,1.516,1.287,2.449,1.977,8.744,3.95,17.515,5.927,26.259-32.082,7.67-63.581,17.822-94.11,30.335-2.285-10.923-4.593-21.878-6.878-32.799,5.292-1.303,10.578-2.579,15.869-3.882" style="fill:#7b3fe4;"/><path d="M108.568,274.545l-8.488-40.552,19.71-5.322,2.713,6.793-13.824,3.966,5.263,25.072c28.242-11.332,57.514-20.766,87.094-28.022l-5.081-22.528c-25.5,4.857-49.976,12.085-73.452,21.512l-2.713-6.793c24.198-9.707,49.462-17.119,75.075-21.983,1.039-.192,3.236-.608,5.302.679,2.11,1.351,2.623,3.625,2.884,4.734l6.73,29.787-3.503.836c-31.82,7.609-63.319,17.76-93.575,30.158l-4.049,1.652-.086.011Z" style="fill:#1c1b1a;"/><path d="M75.307,287.065l-1.145-5.378c-1.748-8.198-2.842-16.606-3.293-25.031-.069-1.24-.222-4.085,1.87-6.14,1.549-1.544,3.522-1.808,4.61-1.962,9.092-1.218,18.325-1.573,27.42-1.061l-.4,6.756c.779.149,1.559.298,2.333.474l-1.589,7.143c-4.14-.931-8.368-1.545-12.61-1.798l-5.176,12.647c-1.42,3.493-3.366,8.28-7.512,11.169l-4.498,3.128-.01.053ZM78.129,255.842s.002.278.02.477c.258,5.208.816,10.446,1.611,15.618.258-.621.516-1.24.811-1.909l5.265-12.965c.21-.518.531-1.321,1.158-2.121-2.907.198-5.808.507-8.692.876-.027-.005-.113.006-.172.023Z" style="fill:#1c1b1a;"/><path d="M93.227,248.271c-3.217-4.157-6.023-8.569-8.444-13.243l-1.254,2.186c.374-.207.77-.383,1.171-.586.305-.136.214-.099-.209.072.241-.093.476-.16.712-.226,1.161-.392-1.056.132.172-.023-.826.094-.938.1-.343.046l.365-.015c-.837.008-.95.014-.338.02.553.021.499.011-.215-.041.607.032,1.225.15,1.864.161,1.718.049,3.445-.095,5.104-.613,1.097-.348,2.493-.946,3.015-2.074.332-.716.309-1.614.506-2.357.475-1.61,1.343-3.09,2.422-4.361l-9.934,1.252c3.444,2.387,6.893,4.748,10.309,7.13.837.578,2.373.704,3.339.749,1.326.059,2.913-.084,4.197-.535,1.37-.463,3.721-1.687,1.756-3.067-3.444-2.387-6.893-4.748-10.309-7.13-1.43-.971-3.967-.815-5.511-.608-1.544.207-3.344.588-4.423,1.86-.903,1.083-1.629,2.254-2.128,3.553-.263.647-.45,1.336-.611,2.03-.072.377-.171.748-.216,1.131-.061.463-.202.184.054.01l1.903-.919c1.323-.361,2.626-.474,3.958-.303-.575-.054-1.123-.103-1.697-.158-.387-.018-.741-.057-1.106-.043-1.664-.039-3.305.093-4.945.365-2.331.391-4.67,1.115-6.727,2.256-.903.496-1.821,1.074-1.254,2.186,2.422,4.674,5.227,9.086,8.444,13.243.537.688,1.822.961,2.606,1.084,1.322.224,2.894.162,4.223-.085.927-.185,4.938-1.203,3.62-2.905l-.076-.042Z" style="fill:#1c1b1a;"/><path d="M131.096,253.754l-5.968,1.927c-1.365.436-1.91.667-2.339-.587-.281-.862-.073-1.074.485-1.663.484-.494.348-.799.087-1.768-.439-1.785-1.672-5.534-2.525-8.069-.346-.958-.413-1.194-.987-1.249-.618-.118-1.116.011-1.469-1.061-.385-1.19.056-1.607,1.539-2.077,1.424-.453,4.091-1.142,6.006-1.835.658-.238.892-.583,1.571-.788.83-.26,1.256-.01,2.424,1.746.718,1.197,1.131,1.807,1.334,2.347.243.771-.161,1.28-.959,1.517-.744.249-1.209-.231-2.315-1.586-.791-.96-.947-.877-2.964-.232-1.75.558-1.638.551-.85,2.989.645,2.02.491,2.241,1.797,1.822,1.006-.31.945-.573.669-1.461-.226-.713-.191-1.04.403-1.234.626-.214,1.071.373,1.709,1.554,1.062,1.877,1.698,3.504.564,3.901-.572.225-.847.061-1.309-.585-.343-.54-.467-.62-1.355-.343-1.274.398-1.129.37-.385,2.742.849,2.7.602,2.681,2.951,1.903,1.632-.525,1.798-.66,1.776-2.003-.079-1.771-.068-2.411.734-2.676.921-.298,1.368-.017,1.654.818.154.503.307,1.453.484,2.713.264,2.114.231,2.582-.685,2.853-.712.226-1.185.081-2.047.362l-.032.021Z" style="fill:#fff;"/><path d="M123.536,256.079c-.348-.067-.596-.339-.81-.964-.291-.895-.063-1.136.489-1.72.431-.439.358-.706.141-1.498l-.059-.218c-.426-1.735-1.608-5.343-2.524-8.065l-.032-.088c-.318-.883-.389-1.068-.898-1.115-.104-.019-.198-.032-.288-.044-.498-.066-.929-.122-1.237-1.063-.173-.534-.181-.906-.025-1.208.226-.44.806-.699,1.608-.953.507-.161,1.184-.356,1.902-.563,1.345-.387,2.869-.825,4.102-1.271.303-.11.518-.245.725-.375.236-.149.481-.303.85-.414.887-.278,1.354.054,2.499,1.773.176.293.332.549.472.778.445.728.713,1.168.87,1.583.112.355.097.667-.043.93-.163.306-.486.533-.96.674-.809.271-1.316-.297-2.387-1.607-.742-.9-.854-.864-2.735-.261l-.157.05c-.78.249-1.161.38-1.294.638-.154.3.018.828.361,1.879l.126.388c.086.27.158.508.221.716.217.72.327,1.081.541,1.193.175.093.447.031.951-.13.448-.138.665-.26.751-.423.103-.195.024-.476-.125-.955-.224-.704-.216-1.102.446-1.318.663-.228,1.124.355,1.788,1.586.998,1.764,1.337,2.832,1.1,3.462-.096.255-.289.434-.574.534-.633.248-.941.014-1.385-.609-.319-.506-.407-.59-1.281-.318-.518.162-.771.247-.862.424-.12.231.018.66.319,1.599.061.191.129.402.202.637.073.231.137.441.196.634.299.977.449,1.467.744,1.619.296.152.764-.006,1.702-.318l.225-.074c1.638-.527,1.751-.654,1.73-1.939-.081-1.818-.066-2.461.78-2.74.922-.299,1.426-.051,1.739.859.17.555.334,1.638.487,2.726.265,2.118.229,2.642-.731,2.926-.342.109-.627.133-.928.159-.327.027-.665.056-1.109.2l-.04.024-6.121,1.976c-.639.205-1.102.354-1.46.286ZM120.011,242.301c.462.088.568.38.856,1.181l.032.089c.918,2.726,2.1,6.337,2.527,8.075l.059.216c.219.801.31,1.133-.163,1.615-.553.584-.736.777-.469,1.596.391,1.144.856.994,2.103.593l6.152-1.997c.462-.151.81-.18,1.147-.209.294-.025.571-.049.9-.153.875-.259.9-.691.639-2.781-.152-1.081-.315-2.159-.482-2.702-.284-.83-.725-1.049-1.57-.774-.754.248-.766.864-.688,2.609.022,1.394-.185,1.544-1.823,2.07l-.223.074c-.976.324-1.462.49-1.806.31-.345-.178-.501-.686-.811-1.699-.059-.192-.123-.402-.195-.632-.073-.235-.141-.446-.202-.636-.322-1.005-.456-1.42-.31-1.701.121-.233.43-.33.941-.489.921-.288,1.071-.2,1.431.371.461.645.714.76,1.228.559.251-.088.413-.237.495-.456.287-.765-.486-2.279-1.092-3.351-.629-1.166-1.055-1.719-1.629-1.523-.517.168-.594.415-.361,1.151.159.514.243.816.115,1.058-.104.197-.344.338-.829.488-.551.177-.835.235-1.053.121-.264-.138-.379-.518-.607-1.273-.063-.208-.135-.445-.22-.714l-.126-.387c-.365-1.12-.532-1.631-.353-1.981.163-.319.618-.464,1.372-.704l.157-.05c1.882-.603,2.08-.666,2.879.303,1.1,1.347,1.548,1.796,2.243,1.565.441-.131.736-.336.882-.61.122-.23.134-.507.034-.824-.15-.4-.416-.836-.857-1.557-.14-.229-.296-.485-.471-.776-1.172-1.762-1.575-1.96-2.347-1.717-.352.106-.579.249-.818.399-.214.135-.434.273-.751.388-1.237.447-2.763.886-4.111,1.274-.716.206-1.393.401-1.898.561-.922.292-1.351.541-1.529.887-.138.268-.128.609.033,1.105.282.86.655.907,1.128.972.094.012.19.025.29.044.053.005.103.012.149.021Z" style="fill:#fff;"/><path d="M139.272,249.462c-2.079-3.55-3.976-6.449-5.754-9.829-.615-1.009-.831-1.19-1.412-1.357-.554-.162-.964-.351-1.228-1.155-.402-1.248.239-1.543,2.792-2.366,2.612-.839,3.325-.926,3.727.322.188.621-.019.973-.572,1.536-.506.461-.353.825.143,1.729,1.101,2.107,2.901,5.519,4.174,7.602.668,1.021.718,1.197,1.045,1.093.359-.127.195-.437.155-1.393-.399-2.865-.777-6.284-1.249-8.912-.126-.943-.236-1.243-.886-1.34-.468-.173-.887-.17-1.156-.946-.357-1.045.026-1.445,2.574-2.241,1.809-.575,2.298-.509,2.689.654.209.653-.056,1.021-.315,1.501-.397.621-.341.911-.182,1.974.62,3.604,1.01,7.248,1.285,11.344.138,1.755-.13,1.843-2.287,2.491-1.932.634-2.401,1.047-3.548-.678l.005-.027Z" style="fill:#fff;"/><path d="M140.594,250.757c-.453-.087-.854-.436-1.383-1.232l-.016-.023.006-.029c-.702-1.199-1.386-2.328-2.048-3.419-1.296-2.139-2.521-4.159-3.694-6.391-.619-1.016-.825-1.167-1.371-1.324-.551-.161-.995-.351-1.273-1.198-.216-.668-.125-1.078.31-1.416.453-.351,1.332-.65,2.525-1.034,2.671-.858,3.392-.933,3.811.365.199.657-.021,1.026-.588,1.603-.477.435-.333.763.153,1.65,1.198,2.292,2.933,5.571,4.173,7.599.092.14.173.266.245.377.451.698.498.759.723.687.203-.072.2-.202.155-.688-.016-.17-.036-.382-.046-.639-.129-.92-.253-1.882-.384-2.901-.268-2.077-.545-4.225-.864-6.002-.121-.904-.228-1.173-.75-1.273-.026-.005-.053-.01-.08-.014-.089-.031-.163-.054-.235-.077-.379-.119-.738-.232-.975-.913-.148-.433-.157-.725-.027-.98.231-.456.923-.808,2.644-1.346,1.776-.565,2.355-.542,2.772.696.198.618-.007.988-.244,1.416l-.075.137c-.376.589-.336.857-.187,1.855l.011.078c.586,3.402.994,7.009,1.286,11.349.143,1.816-.187,1.915-2.334,2.559-.203.067-.39.131-.564.191-.726.249-1.226.421-1.675.336ZM139.337,249.474c.986,1.476,1.431,1.322,2.889.821.175-.06.363-.125.568-.192,2.151-.646,2.375-.713,2.241-2.423-.291-4.337-.699-7.939-1.285-11.338l-.012-.079c-.151-1.01-.197-1.315.204-1.943.023-.042.048-.088.073-.134.232-.418.414-.749.234-1.31-.367-1.092-.78-1.189-2.605-.61-1.681.525-2.352.86-2.565,1.279-.111.219-.1.481.035.876.214.618.512.711.888.83.075.023.151.047.228.075.693.105.805.464.929,1.395.319,1.777.596,3.927.864,6.005.131,1.018.255,1.98.385,2.906.011.26.031.47.046.638.045.477.067.716-.245.827-.333.105-.426-.04-.878-.742-.071-.111-.152-.236-.245-.378-1.243-2.033-2.979-5.315-4.177-7.607-.489-.89-.682-1.305-.128-1.809.537-.547.733-.872.553-1.467-.384-1.19-1.033-1.117-3.643-.277-1.179.38-2.048.675-2.484,1.013-.393.305-.465.649-.265,1.269.258.787.653.957,1.183,1.112.617.178.848.398,1.45,1.387,1.174,2.232,2.397,4.25,3.692,6.388.666,1.099,1.354,2.235,2.062,3.443l.013.022-.005.024Z" style="fill:#fff;"/><path d="M157.628,245.246l-5.968,1.927c-1.365.436-1.91.666-2.339-.587-.281-.863-.073-1.074.49-1.691.484-.493.342-.771.087-1.768-.439-1.785-1.672-5.534-2.525-8.068-.346-.959-.412-1.195-.987-1.249-.618-.118-1.116.01-1.468-1.062-.386-1.189.051-1.58,1.534-2.049,1.424-.453,4.091-1.142,5.979-1.841.658-.237.891-.583,1.571-.787.83-.26,1.256-.011,2.424,1.746.691,1.192,1.131,1.806,1.334,2.347.243.771-.161,1.28-.959,1.518-.744.248-1.209-.231-2.289-1.581-.818-.965-.973-.883-2.964-.232-1.723.563-1.638.551-.85,2.989.645,2.019.491,2.241,1.797,1.822,1.006-.31.945-.573.67-1.462-.226-.712-.191-1.04.403-1.233.626-.215,1.044.367,1.709,1.554,1.062,1.877,1.698,3.504.564,3.9-.572.226-.847.061-1.309-.584-.342-.54-.467-.62-1.355-.344-1.274.398-1.129.37-.385,2.743.849,2.699.602,2.681,2.946,1.93,1.632-.525,1.798-.66,1.776-2.003-.079-1.771-.068-2.411.708-2.681.921-.298,1.368-.017,1.649.845.154.504.307,1.454.484,2.714.264,2.114.231,2.581-.685,2.853-.712.226-1.185.08-2.047.361l.005-.027Z" style="fill:#fff;"/><path d="M150.069,247.571c-.348-.067-.597-.338-.811-.963-.289-.889-.064-1.137.482-1.733l.023-.025c.411-.418.349-.652.145-1.426-.023-.086-.047-.18-.073-.28-.427-1.737-1.608-5.344-2.523-8.063l-.032-.089c-.318-.882-.382-1.06-.898-1.114-.103-.019-.197-.032-.288-.044-.496-.066-.928-.123-1.237-1.064-.172-.531-.181-.899-.029-1.194.221-.429.778-.678,1.606-.94.491-.157,1.143-.345,1.833-.544,1.363-.393,2.908-.839,4.143-1.296.304-.109.518-.244.726-.375.236-.149.481-.303.849-.413.888-.277,1.355.053,2.499,1.773.239.412.444.748.625,1.045.35.575.581.955.717,1.316.112.355.097.667-.043.93-.163.306-.486.533-.959.675-.78.259-1.264-.233-2.36-1.603-.767-.906-.88-.868-2.748-.257l-.144.047q-1.583.517-.909,2.591l.102.314c.086.27.158.509.221.717.217.719.326,1.08.541,1.193.177.09.446.031.951-.131.448-.138.665-.26.751-.422.103-.195.024-.477-.125-.957-.224-.704-.216-1.101.446-1.316.702-.242,1.165.471,1.788,1.584.998,1.765,1.338,2.833,1.101,3.463-.095.254-.288.434-.573.533-.634.25-.94.014-1.385-.608-.321-.506-.408-.59-1.281-.319-.518.162-.771.247-.863.424-.12.231.017.661.319,1.601.061.19.129.401.202.635.073.232.138.443.197.636.299.977.449,1.468.745,1.622.294.154.764,0,1.703-.302l.218-.07c1.637-.527,1.75-.653,1.729-1.939-.078-1.738-.077-2.457.752-2.744.928-.303,1.431-.045,1.734.887.169.55.334,1.635.487,2.725.265,2.117.229,2.641-.732,2.926-.342.109-.626.133-.927.158-.329.028-.67.056-1.118.203l-.108.035.005-.027-6.013,1.941c-.639.205-1.102.354-1.46.286ZM146.549,233.766c.462.088.567.381.855,1.181l.032.09c.917,2.724,2.099,6.334,2.527,8.075.025.099.05.192.073.278.207.787.285,1.082-.177,1.552l-.021.023c-.538.588-.719.786-.454,1.601.391,1.143.858.993,2.103.593l6.227-2.01-.005.027c.41-.122.73-.149,1.041-.175.293-.024.571-.047.9-.152.875-.26.9-.692.639-2.782-.152-1.084-.316-2.163-.482-2.703-.281-.862-.706-1.08-1.564-.801-.729.253-.739.87-.661,2.614.022,1.394-.185,1.544-1.823,2.07l-.217.07c-.975.315-1.465.47-1.806.293-.345-.18-.501-.688-.811-1.701-.059-.193-.124-.403-.196-.635-.074-.234-.141-.444-.202-.634-.323-1.006-.456-1.423-.31-1.703.121-.234.43-.33.941-.49.919-.287,1.069-.2,1.431.372.467.652.708.762,1.228.557.251-.088.413-.237.495-.455.288-.765-.485-2.278-1.092-3.351-.689-1.231-1.07-1.715-1.629-1.523-.517.168-.594.415-.361,1.15.16.515.243.818.116,1.059-.104.197-.344.338-.829.487-.54.173-.835.234-1.053.121-.264-.138-.378-.517-.606-1.272-.063-.208-.135-.445-.221-.715l-.102-.314c-.688-2.118-.715-2.2.994-2.759l.143-.047c1.871-.612,2.066-.676,2.893.299,1.076,1.346,1.516,1.795,2.217,1.561.44-.131.736-.336.882-.61.123-.23.134-.508.035-.824-.13-.346-.359-.721-.705-1.29-.181-.297-.386-.634-.624-1.043-1.172-1.761-1.574-1.957-2.346-1.716-.352.106-.578.248-.817.399-.214.134-.435.273-.751.387-1.24.458-2.787.905-4.152,1.299-.689.199-1.34.387-1.83.543-.773.245-1.329.487-1.528.874-.134.261-.123.597.037,1.091.283.861.652.91,1.128.973.093.012.19.025.289.044.054.005.104.012.15.021Z" style="fill:#fff;"/><path d="M170.723,240.138c-.569-.667-1.323-1.675-4.089-5.133-2.942-3.407-3.164-4.286-3.609-4.148-.3.11-.103.538.156,1.368l1.934,6.059c.347,1.098.595,1.257,1.397,1.438.752.144,1.017.361,1.227,1.015.336,1.012-.256,1.484-2.274,2.131-2.045.64-2.804.97-3.244-.37-.204-.68-.1-1.078.431-1.674.42-.45.589-.752.166-2.032l-2.446-7.607c-.457-1.398-.662-1.493-1.295-1.53-.709-.08-1.06-.286-1.329-1.063-.364-1.157-.174-1.567,2.764-2.511,2.109-.684,2.735-.899,3.589.463.891,1.314,1.521,2.243,3.701,4.974,2.574,3.002,2.843,3.778,3.197,3.679.295-.083.087-.457-.221-1.465l-1.796-5.614c-.369-1.13-.478-1.29-1.203-1.429-.677-.102-1.075-.206-1.334-1.036-.352-1.071.421-1.621,2.23-2.195,1.836-.569,2.549-.656,2.929.56.243.771.09,1.133-.292,1.673-.569.644-.547.676.438,3.681,1.939,6.032,2.473,7.026,3.123,9.019.352,1.071-.116,1.484-1.631,1.975-1.552.54-2.052.389-2.626-.251l.107.021Z" style="fill:#fff;"/><path d="M163.007,243.473c-.392-.075-.652-.355-.849-.953-.211-.703-.103-1.125.445-1.739.39-.418.573-.694.152-1.967l-2.446-7.607c-.451-1.377-.645-1.449-1.235-1.484-.698-.079-1.099-.271-1.388-1.108-.387-1.23-.097-1.663,2.807-2.596l.045-.014c2.054-.667,2.745-.891,3.621.505.883,1.301,1.52,2.241,3.697,4.968,1.118,1.304,1.797,2.183,2.247,2.765.54.7.721.934.88.892.052-.015.069-.036.078-.053.054-.101-.035-.371-.169-.781-.052-.158-.112-.339-.176-.548l-1.796-5.613c-.371-1.137-.468-1.253-1.152-1.384-.677-.103-1.113-.209-1.385-1.082-.124-.377-.115-.698.03-.979.254-.498.905-.874,2.244-1.299,1.829-.566,2.614-.67,3.013.603.243.773.103,1.159-.301,1.732q-.54.613.406,3.496l.041.126c1.253,3.895,1.921,5.693,2.409,7.007.271.729.484,1.305.715,2.011.148.45.152.788.012,1.063-.226.446-.838.72-1.686.996-1.61.56-2.113.379-2.697-.269l-.132-.148.117.022c-.271-.325-.605-.749-1.154-1.445-.586-.743-1.472-1.867-2.815-3.545-1.316-1.524-2.077-2.527-2.58-3.191-.58-.765-.754-.998-.957-.935-.184.068-.105.338.09.941.034.106.072.221.11.344l1.934,6.058c.337,1.065.556,1.214,1.348,1.393.773.147,1.06.386,1.276,1.06.126.379.123.677-.01.939-.234.462-.881.819-2.307,1.276l-.336.106c-.992.313-1.665.526-2.142.435ZM159.385,229.623c.464.089.672.382,1.051,1.543l2.446,7.607c.421,1.273.269,1.617-.18,2.098-.516.577-.613.954-.417,1.609.395,1.201,1.006,1.006,2.825.431l.336-.106c1.387-.444,2.012-.783,2.229-1.209.116-.227.116-.493.002-.837-.202-.632-.444-.831-1.176-.971-.843-.19-1.1-.384-1.448-1.483l-1.934-6.059c-.039-.123-.075-.238-.109-.343-.207-.64-.322-.992-.006-1.108.292-.094.482.158,1.106.98.502.663,1.261,1.664,2.576,3.187,1.344,1.681,2.231,2.805,2.817,3.548.632.801.98,1.243,1.272,1.584l.123.145-.09-.017c.512.5,1.024.567,2.413.083.981-.318,1.432-.579,1.61-.93.123-.241.116-.547-.02-.961-.23-.704-.444-1.279-.714-2.007-.488-1.314-1.157-3.115-2.41-7.012l-.041-.126c-.952-2.901-.97-2.956-.383-3.62.381-.54.505-.885.278-1.609-.351-1.117-.923-1.114-2.846-.517-1.285.408-1.932.776-2.165,1.232-.127.249-.134.536-.022.878.25.799.63.893,1.281.991.771.147.886.34,1.257,1.474l1.796,5.614c.064.208.123.389.175.545.161.489.241.734.161.885-.031.058-.083.097-.159.118-.246.069-.409-.146-1.022-.939-.449-.58-1.127-1.458-2.244-2.761-2.181-2.733-2.82-3.674-3.704-4.977-.824-1.313-1.384-1.131-3.47-.455l-.045.015c-3.012.967-3.051,1.379-2.722,2.427.267.772.624.943,1.273,1.017.112.006.211.016.3.033Z" style="fill:#fff;"/><path d="M180.19,236.816c-.265-.804-.027-1.176.555-1.735.536-.622.766-.802.37-1.937l-2.827-8.823c-.231-.686-.269-.777-1.281-.44-.98.315-.887.416-.836,1.458.055,2.046-.047,2.724-.995,3.017-.712.226-1.464.083-1.767-.812-.154-.504-.269-1.362-.409-2.672-.219-2.496.04-2.976,1.051-3.313.83-.26,1.197.006,2.235-.326l5.341-1.712c1.012-.336,1.126-.789,1.929-1.053.947-.293,1.523-.099,2.781,2.065.642,1.015,1.019,1.812,1.195,2.348.292.948-.122,1.51-.807,1.742-1.011.337-1.612-.308-2.656-1.846-.662-.907-.588-1.005-1.717-.635-.889.276-.946.433-.704,1.204l2.772,8.673c.352,1.071.541,1.247,1.218,1.348.795.068,1.235.097,1.528,1.045.418,1.307-.186,1.554-3.156,2.52-2.789.889-3.454,1.013-3.827-.09l.005-.027Z" style="fill:#fff;"/><path d="M180.907,237.677c-.394-.075-.622-.331-.786-.813l-.006-.017.005-.027c-.26-.804-.031-1.203.577-1.787l.075-.088c.48-.553.641-.738.279-1.78l-2.827-8.825c-.224-.661-.243-.715-1.196-.397-.853.274-.85.341-.803,1.159l.013.232c.053,1.988-.023,2.769-1.042,3.084-.881.28-1.574-.038-1.85-.855-.161-.523-.276-1.415-.412-2.685-.199-2.273-.08-2.993,1.096-3.383.4-.125.691-.131,1-.138.341-.007.695-.015,1.236-.188l5.342-1.711c.523-.174.799-.378,1.066-.575.244-.18.473-.35.862-.478.982-.304,1.596-.08,2.859,2.095.569.901.997,1.741,1.201,2.361.273.886-.036,1.552-.849,1.826-1.026.342-1.647-.273-2.732-1.873-.061-.083-.116-.161-.167-.232-.488-.685-.498-.696-1.474-.377-.406.127-.658.231-.742.393-.077.148-.031.37.082.728l2.772,8.673c.353,1.076.539,1.203,1.165,1.302h.02c.784.07,1.258.109,1.562,1.091.452,1.415-.322,1.667-3.2,2.603-1.611.514-2.547.791-3.125.681ZM180.254,236.838c.35,1.015.942.924,3.738.032,2.966-.965,3.512-1.186,3.113-2.436-.277-.897-.667-.929-1.446-.997l-.024-.002c-.727-.11-.927-.33-1.276-1.394l-2.772-8.673c-.126-.402-.172-.64-.072-.83.107-.204.37-.318.82-.458,1.046-.342,1.11-.294,1.624.426.051.071.106.148.167.233,1.096,1.614,1.649,2.131,2.581,1.823.432-.146,1.105-.555.765-1.659-.2-.609-.622-1.437-1.188-2.332-1.276-2.196-1.828-2.308-2.705-2.037-.368.121-.589.285-.823.458-.275.203-.56.414-1.104.595l-5.343,1.712c-.56.179-.923.186-1.274.194-.299.007-.581.013-.961.132-.97.323-1.22.787-1.005,3.244.135,1.261.249,2.147.406,2.657.359,1.062,1.297.892,1.683.768.892-.276,1.003-.877.948-2.952l-.013-.229c-.047-.837-.056-.988.895-1.294,1.021-.338,1.113-.263,1.364.483l2.827,8.824c.388,1.112.185,1.345-.304,1.909l-.08.092c-.565.543-.801.883-.542,1.67l.006.017-.005.026Z" style="fill:#fff;"/></svg>