<?xml version="1.0" encoding="UTF-8"?><svg id="Layer_1" xmlns="http://www.w3.org/2000/svg" viewBox="0 0 870.332 861.718"><path d="M595.544,825.678c44.561-15.583,108.169-78.851,134.403-108.538,17.199-19.463,57.343-49.221,96.344-133.861,96.245-208.872-59.028-455.697-239.342-536.649C406.636-34.323,169.323,26.365,58.051,254.028c-111.271,227.662,4.625,353.012,37.41,421.277,32.784,68.265,142.998,121.865,234.352,158.76,91.353,36.891,210.03,11.09,265.731-8.387Z" style="fill:#fff;"/><path d="M562.397,26.896c33.464,11.392,65.034,25.809,93.842,42.862,5.983,3.532,11.358,5.999,16.107,8.173,8.74,4.009,15.634,7.173,22.446,14.72,2.668,2.988,7.096,6.421,13.537,11.314,4.487,3.407,9.126,6.935,12.238,9.925,3.362,3.235,5.292,5.944,7.155,8.565,2.269,3.179,4.608,6.452,9.328,10.424l.933.79c8.673,7.33,17.629,14.903,24.848,22.099l-.035.301,1.122,3.035c.434,1.169,1.052,2.764,1.901,4.872l2.897,7.219,7.707,1.12c.483.069.995.166,1.53.284-.044.346-.129.853-.29,1.591l-1.407,6.484,4.293,5.077c11.784,13.931,17.988,28.119,25.176,44.55,2.255,5.158,4.584,10.481,7.242,16.132l10.134,21.301c11.404,23.766,24.299,50.642,33.622,77.984.655,2.01.481,4.213.128,7.914-.315,3.274-.675,6.966-.144,10.985.438,3.188,1.662,6.066,5.342,14.161,2.021,4.428,4.729,10.452,5.276,12.444,7.991,38.549-.214,101.15-21.43,163.483-10.882,31.978-24.222,60.57-37.576,80.57-1.859.79-3.489,1.885-4.892,3.288l-1.41,1.405-.94,1.754c-28.58,53.124-82.566,110.909-148.121,158.53-56.964,41.402-109.521,60.33-170.409,61.387-26.467.474-73.81-1.129-96.226-6.184-4.838-1.092-9.823-2.187-14.646-3.24l-.694-.153c-22.401-4.9-45.565-9.964-68.609-17.81-8.259-2.813-15.923-5.772-23.426-9.045-20.256-8.83-40.8-19.869-60.662-30.544l-.124-.066c-6.446-3.466-13.756-7.393-20.849-11.118-22.837-11.926-48.284-32.196-71.662-57.087-23.447-24.959-42.812-52.442-54.538-77.379-28.588-60.779-59.923-130.859-69.88-193.465-2.628-16.559-.636-25.597,2.117-38.11l.216-.978c1.271-5.803,2.707-12.364,3.775-20.265.676-4.843-.329-8.868-1.286-11.833l-.219-.681.004-.009-.007-.019.031-.245c3.136-23.549,8.144-44.992,15.752-67.433l.002-.005,1.848-5.19c8.954-25.241,20.333-49.324,34.663-77.716,1.967-3.887,3.1-7.047,4.001-9.702l.52-1.525c1.248-3.664,2.274-6.279,5.071-9.137,3.36-3.426,7.016-7.238,11.472-12.717,11.568-14.194,21.918-28.517,31.921-42.365l.097-.131c23.837-33.076,49.417-59.89,78.216-81.992,50.869-38.999,80.118-48.526,142.175-57.365,10.284-1.471,18.322-5.692,25.413-9.418,6.788-3.57,12.632-6.643,19.745-7.304,56.315-5.143,122.256,3.909,185.653,25.494l-.014-.006ZM834.166,533.641c2.292-7.675,4.444-14.003,6.353-19.611,5.858-17.212,10.091-29.649,11.651-58.617,7.505-140.124-73.112-283.223-210.383-373.46-30.901-20.306-57.128-33.791-82.547-42.444l-.009-.004c-40.505-13.791-78.426-15.69-138.52-14.468-44.409.922-87.642,2.573-128.38,12.517-42.421,10.354-78.836,28.942-114.604,58.498-18.555,15.319-31.117,32.365-44.421,50.412-2.707,3.671-6.291,8.515-10.042,13.497-4.814,6.299-9.645,12.553-14.364,18.593-30.332,39.096-61.663,79.486-79.126,130.792l-.138.404c-.678,1.993-1.381,4.055-2.032,6.235l-.049.169c-2.24,7.867-6.872,31.279-10.454,55.385-7.056,47.508-3.839,55.395-2.29,59.188l.243.591.297.567c.721,2.097.151,13.748-.223,21.458-.353,7.264-.639,13.552-.529,16.905l.091,2.804.787,1.656c1.298,4.389,3.028,12.557,4.832,21.255l.243,1.168c1.914,9.399,4.074,20.052,6.314,26.637,5.954,17.608,14.945,36.701,23.647,55.162l1.464,3.098c2.624,5.551,5.084,10.758,7.325,15.772l.052.119c2.509,5.478,4.97,11.131,7.349,16.603l1.364,3.132c12.701,29.23,24.697,56.846,48.135,85.131,23.126,27.869,40.843,47.708,74.74,68.48,1.515,4.105,4.676,7.293,8.75,8.847l.231.087c15.896,5.729,31.871,11.704,49.61,18.366l.857.321c26.059,9.751,52.969,19.815,79.445,28.827,5.201,1.769,10.3,3.47,15.161,5.054,41.024,13.367,90.404,19.008,139.044,15.883,44.616-2.867,85.438-12.869,112.002-27.446,58.945-32.365,98.537-66.489,146.084-125.905l4.573-5.714c26.042-32.478,55.561-69.303,73.852-106.907.332-.692.65-1.46.899-2.19,1.411-4.147,1.087-7.909.641-10.513.019-.018.273-.301.273-.301l.212-.259c1.682-2.072,4.233-5.205,5.796-9.808.62-1.818,1.019-3.698,1.228-5.743,1.515-1.771,2.69-3.869,3.492-6.22l4.375-12.86-3.308-1.125.007-.018Z" style="fill:#ea128b;"/><path d="M559.768,32.46c32.985,11.23,64.112,25.453,92.507,42.272,5.891,3.487,11.198,5.917,15.875,8.064,8.614,3.958,15.414,7.074,22.126,14.524,2.63,2.944,6.991,6.336,13.341,11.162,4.422,3.362,8.999,6.84,12.063,9.794,3.313,3.192,5.215,5.867,7.051,8.454,2.236,3.137,4.54,6.369,9.189,10.288l.917.777c8.548,7.231,17.374,14.704,24.488,21.805l-.038.295,1.107,2.996c.425,1.154,1.038,2.726,1.871,4.811l2.854,7.126,7.598,1.102c.476.071.982.161,1.51.281-.042.342-.124.844-.287,1.571l-1.392,6.405,4.229,5.007c11.613,13.748,17.722,27.756,24.797,43.978,2.222,5.09,4.516,10.35,7.128,15.927l9.98,21.03c11.232,23.467,23.931,50,33.109,76.992.646,1.984.475,4.157.122,7.81-.313,3.233-.668,6.879-.145,10.847.428,3.151,1.636,5.992,5.258,13.981,1.993,4.373,4.661,10.32,5.193,12.285,7.856,38.066-.266,99.887-21.222,161.453-10.748,31.583-23.916,59.829-37.096,79.583-1.834.781-3.438,1.866-4.827,3.249l-1.391,1.387-.931,1.732c-28.211,52.479-81.478,109.571-146.141,156.634-56.195,40.916-108.025,59.641-168.061,60.72-26.094.483-72.776-1.072-94.881-6.051-4.77-1.078-9.685-2.151-14.441-3.19l-.685-.149c-22.084-4.827-44.923-9.813-67.64-17.55-8.145-2.773-15.7-5.693-23.094-8.923-19.97-8.711-40.219-19.597-59.8-30.129l-.123-.067c-6.356-3.42-13.557-7.293-20.553-10.963-22.513-11.764-47.587-31.768-70.629-56.333-23.106-24.635-42.185-51.762-53.731-76.381-28.158-60.003-59.012-129.195-68.791-191.006-2.583-16.354-.614-25.281,2.11-37.637l.211-.964c1.256-5.736,2.679-12.208,3.732-20.015.669-4.782-.322-8.758-1.264-11.685l-.218-.67.004-.009-.007-.019.033-.239c3.107-23.26,8.056-44.439,15.569-66.6v-.004s1.826-5.126,1.826-5.126c8.842-24.932,20.077-48.72,34.221-76.766,1.941-3.84,3.061-6.959,3.954-9.586l.512-1.507c1.233-3.618,2.245-6.203,5.007-9.029,3.314-3.382,6.923-7.151,11.318-12.564,11.417-14.023,21.625-28.171,31.497-41.856l.094-.127c23.526-32.676,48.762-59.173,77.172-81.01,50.181-38.54,79.024-47.964,140.221-56.728,10.14-1.457,18.068-5.632,25.065-9.315,6.696-3.532,12.46-6.567,19.476-7.223,55.533-5.113,120.544,3.792,183.042,25.068l.011.011ZM827.453,532.718c2.265-7.581,4.393-13.831,6.276-19.371,5.785-17.002,9.968-29.28,11.522-57.892,7.478-138.378-71.929-279.641-207.231-368.672-30.458-20.033-56.311-33.334-81.37-41.868l-.009-.004c-39.933-13.592-77.322-15.449-136.576-14.209-43.791.935-86.422,2.591-126.596,12.434-41.832,10.247-77.75,28.624-113.033,57.832-18.306,15.139-30.701,31.979-43.828,49.809-2.672,3.629-6.208,8.415-9.91,13.334-4.748,6.223-9.52,12.403-14.174,18.371-29.931,38.626-60.848,78.529-78.096,129.206l-.135.395c-.673,1.97-1.364,4.005-2.007,6.157l-.047.164c-2.212,7.769-6.793,30.891-10.338,54.701-6.987,46.919-3.816,54.707-2.29,58.447l.236.582.289.559c.708,2.07.145,13.575-.233,21.188-.355,7.173-.638,13.383-.532,16.698l.09,2.772.776,1.634c1.279,4.334,2.977,12.397,4.751,20.986l.24,1.151c1.876,9.281,4.008,19.799,6.209,26.304,5.859,17.385,14.716,36.233,23.285,54.459l1.44,3.056c2.582,5.479,5.01,10.619,7.215,15.569l.052.119c2.471,5.408,4.896,10.991,7.239,16.39l1.342,3.096c12.507,28.862,24.319,56.12,47.413,84.038,22.787,27.505,40.247,47.091,73.66,67.583,1.491,4.052,4.607,7.198,8.622,8.73l.226.086c15.672,5.649,31.42,11.544,48.906,18.108l.843.315c25.688,9.611,52.22,19.537,78.319,28.422,5.127,1.745,10.158,3.422,14.948,4.985,40.443,13.175,89.132,18.717,137.093,15.605,43.991-2.856,84.249-12.757,110.452-27.167,58.143-31.995,97.199-65.714,144.117-124.412l4.51-5.647c25.697-32.087,54.826-68.468,72.881-105.617.329-.683.641-1.438.887-2.164,1.394-4.096,1.075-7.808.641-10.38.018-.018.266-.299.266-.299l.21-.255c1.662-2.049,4.177-5.139,5.721-9.687.61-1.796,1.01-3.655,1.214-5.676,1.494-1.749,2.657-3.821,3.447-6.145l4.321-12.704-3.262-1.11.008-.006Z"/></svg>