<?xml version="1.0" encoding="UTF-8"?><svg id="Layer_1" xmlns="http://www.w3.org/2000/svg" viewBox="0 0 107.235 242.079"><path d="M107.235,24.293c-28.536,4.407-55.94,22.373-72.042,55.317-25.985,53.165,1.08,82.437,8.736,98.379,7.656,15.942,33.394,28.459,54.727,37.074,2.767,1.118,5.643,1.987,8.579,2.647V24.293Z" style="opacity:.06;"/><path d="M107.235,0C70.353,4.433,34.495,26.914,13.732,69.395c-32.349,66.186,1.345,102.628,10.876,122.474,9.531,19.846,41.572,35.429,68.131,46.155,4.637,1.872,9.516,3.188,14.497,4.056V0Z" style="opacity:.06;"/><path d="M107.235,50.729c-19.474,4.257-37.794,17.28-48.857,39.916-19.109,39.098.794,60.625,6.425,72.349,5.63,11.724,24.558,20.929,40.247,27.265.718.29,1.449.55,2.186.796V50.729Z" style="opacity:.06;"/></svg>