<?xml version="1.0" encoding="UTF-8"?>
<svg id="Layer_1" xmlns="http://www.w3.org/2000/svg" version="1.1" viewBox="0 0 1440 266" preserveAspectRatio="none">
  <!-- Generator: Adobe Illustrator 30.3.0, SVG Export Plug-In . SVG Version: 2.1.3 Build 182)  -->
  <defs>
    <style>
      .st0 {
        fill: #5fbcbf;
      }
    </style>
  </defs>
  <path class="st0" d="M1440,214c-26.2-17.3-55.6-34.6-89.5-52.8-91.6-49.2-191.8-84.4-306.2-107.8h-.5c-48-10-97.6-20.2-148.3-33.7-19.6-5.2-33.8-10.3-46.7-15-10.8-4-18.8-3.6-29.9-2.5l-4.6.4c-8,.8-17.6,1.5-30.1.9-91.1-4.1-167.4-5.6-243.9.6l-15.7,1.3c-67.6,6.4-129.6,18.5-194.8,37.9l-.7.2h0s0,0,0,0l-1.5,1.4c-6.6,6-16,13.3-29.4,17.2-21.9,6.5-40.8,10.4-57.4,13.9l-2.8.6c-35.9,7.5-61.9,12.8-102.2,39.1C89.8,145.6,44.4,181.4,0,220.8v30.7c14.3-11.6,32.8-24.8,49.6-36.8l2.8-2c20.6-14.9,40-28.9,49.9-37.5l3.4-4,7.2-3.5c8.7-4.2,25.4-10.8,44.8-18.4,20.6-8,51.7-20.2,56.4-24.5l1.1-1.4,1.2-1.3c8.1-8.5,25-26.1,157.5-63.3,67.2-18.9,133.9-34.2,157.1-37.6h.5c6.5-.9,12.7-1.5,18.7-2.1h1.2c154.7-14.7,297.1,19.7,434.9,53,21.3,5.2,43.4,10.5,65.5,15.6,17.4,3.9,34.3,7.6,47.1,10.4,62.8,13.5,122.1,26.3,184,56.7,58.6,28.8,110.3,61,157,98.1v-38.9Z"/>
  <path d="M1350.5,175.1c-91.6-49.2-191.8-84.4-306.2-107.8h-.5c-48-10-97.6-20.2-148.3-33.7-19.6-5.2-33.8-10.3-46.7-15-10.8-4-18.8-3.6-29.9-2.5l-4.6.4c-8,.8-17.6,1.5-30.1.9-91.1-4.1-167.4-5.6-243.9.6l-15.7,1.3c-67.6,6.4-129.6,18.5-194.8,37.9l-.7.2h0s0,0,0,0l-1.5,1.4c-6.6,6-16,13.3-29.4,17.2-21.9,6.5-40.8,10.4-57.4,13.9l-2.8.6c-35.9,7.5-61.9,12.8-102.2,39.1C89.8,159.5,44.4,195.3,0,234.7v30.7c14.4-11.6,32.8-24.8,49.6-36.8l2.8-2c20.6-14.9,40-28.9,49.9-37.5l3.4-4,7.2-3.5c8.7-4.2,25.4-10.8,44.8-18.4,20.6-8,51.7-20.2,56.4-24.5l1.1-1.4,1.2-1.3c8.1-8.5,25-26.1,157.5-63.3,67.2-18.9,133.9-34.2,157.1-37.6h.5c6.5-.9,12.7-1.5,18.7-2.1h1.2c154.7-14.7,297.1,19.7,434.9,53,21.3,5.2,43.4,10.5,65.5,15.6,17.4,3.9,34.3,7.6,47.1,10.4,62.8,13.5,122.1,26.3,184,56.7,58.1,28.5,109.5,60.5,156,97.2h1.1v-38.1c-26.2-17.3-55.6-34.6-89.5-52.8Z"/>
</svg>