<?xml version="1.0" encoding="UTF-8"?><svg id="Layer_1" xmlns="http://www.w3.org/2000/svg" viewBox="0 0 630.696 626.518"><path d="M103.803,537.896c23.641,25.014,83.676,57.272,111.222,65.866,18.06,5.635,62.972,11.641,130.833,12.308,167.463,1.646,277.331-151.542,277.331-295.814S525.806,9.083,323.257,9.083c-184.528,0-233.136,108.615-268.708,150.854-35.573,42.24-38.309,131.655-35.573,203.517,2.736,71.861,55.274,143.174,84.827,174.442Z" style="fill:#e82e88;"/><path d="M18.509,410.158c-7.612-24.962-12.595-50.094-14.807-74.71-.464-5.108-1.306-9.392-2.052-13.175-1.369-6.965-2.448-12.461-.865-19.798.639-2.887.785-7.02.938-12.99.105-4.158.218-8.459.667-11.613.488-3.41,1.278-5.735,2.044-7.982.925-2.731,1.878-5.544,2.221-10.086l.07-.899c.65-8.358,1.323-16.991,2.519-24.42l.196-.109,1.334-1.981c.513-.764,1.202-1.823,2.098-3.241l3.075-4.85-2.654-5.1c-.167-.319-.33-.668-.49-1.039.226-.123.566-.291,1.078-.512l4.491-1.955,1.19-4.762c3.262-13.07,9.086-22.907,15.828-34.302,2.117-3.576,4.301-7.268,6.54-11.298l8.389-15.26c9.318-17.086,19.856-36.406,32.214-53.786.922-1.259,2.317-2.106,4.686-3.491,2.097-1.223,4.465-2.601,6.643-4.653,1.721-1.638,2.918-3.612,6.18-9.309,1.78-3.121,4.22-7.342,5.178-8.529,19.648-21.416,60.69-43.509,107.185-57.69C236.259,5.342,259.144.999,276.886.371c1.276.773,2.635,1.277,4.081,1.512l1.45.238,1.456-.193c44.155-5.797,102.064,1.617,158.874,20.346,49.378,16.265,83.391,39.585,110.291,75.606,11.703,15.651,31.167,44.705,37.808,60.315,1.433,3.37,2.928,6.828,4.378,10.172l.208.482c6.728,15.534,13.688,31.596,18.928,48.786,1.878,6.162,3.412,12.03,4.688,17.936,3.449,15.944,5.698,33.015,7.872,49.519l.014.103c.704,5.357,1.505,11.43,2.333,17.286,2.708,18.827,1.542,42.816-3.284,67.56-4.837,24.814-12.947,48.272-22.828,66.055-24.079,43.347-52.545,92.352-85.755,125.326-8.787,8.719-15.061,11.424-23.745,15.173l-.679.292c-4.025,1.743-8.575,3.713-13.769,6.481-3.193,1.685-5.17,4.024-6.534,5.876l-.313.425h-.007s-.009.014-.009.014l-.16.087c-15.461,8.28-30.468,14.53-47.194,19.655h-.003l-3.907,1.132c-18.984,5.525-38.321,9.098-61.512,12.761-3.178.499-5.56,1.183-7.539,1.789l-1.138.346c-2.733.833-4.743,1.347-7.662.904-3.501-.535-7.362-1.08-12.567-1.386-13.494-.807-26.54-.828-39.151-.847h-.121c-30.098-.012-57.198-3.77-82.863-11.487-45.309-13.651-63.635-27.063-95.702-60.428-5.318-5.526-11.315-8.521-16.605-11.161-5.068-2.526-9.43-4.702-12.894-8.678-27.376-31.518-50.401-74.928-64.819-122.22l.002.01ZM204.848,28.731c-5.586,1.938-10.306,3.379-14.489,4.655-12.839,3.916-22.115,6.746-40.143,18.308C63.032,107.648,12.083,217.679,17.243,338.845c1.166,27.273,4.402,48.802,10.184,67.764v.007c9.214,30.215,24.435,53.752,51.093,89.226,19.711,26.208,39.35,51.396,62.883,71.511,24.503,20.947,51.349,34.744,84.486,43.421,17.182,4.507,32.814,4.68,49.365,4.864,3.367.038,7.815.095,12.418.193,5.85.167,11.681.363,17.335.584,36.508,1.305,74.221,2.651,112.492-9.022l.301-.091c1.487-.454,3.025-.922,4.612-1.473l.122-.043c5.68-2.052,21.704-9.377,37.691-17.631,31.505-16.268,34.842-21.598,36.446-24.162l.249-.401.212-.422c.945-1.337,8.171-6.022,12.951-9.124,4.504-2.922,8.395-5.463,10.356-6.976l1.641-1.264.652-1.186c2.07-2.671,6.217-7.231,10.649-12.064l.595-.65c4.805-5.201,10.255-11.091,13.234-15.274,7.98-11.164,15.54-24.786,22.845-37.964l1.224-2.213c2.194-3.967,4.252-7.688,6.289-11.193l.049-.082c2.199-3.866,4.524-7.78,6.776-11.566l1.289-2.168c12.031-20.219,23.4-39.32,30.234-65.563,6.719-25.878,10.961-45.051,8.782-74.319,1.806-2.678,2.352-5.947,1.525-9.058l-.047-.176c-3.426-11.995-6.738-24.143-10.4-37.644l-.177-.652c-5.401-19.819-10.98-40.281-17.004-60.031-1.184-3.879-2.364-7.667-3.512-11.263-9.69-30.343-27.614-62.36-50.47-90.151-20.965-25.492-44.568-45.633-64.761-55.258-44.819-21.35-82.343-30.348-138.45-33.2l-5.396-.274c-30.692-1.59-65.488-3.388-95.907,1.877-.558.1-1.155.24-1.7.407-3.093.943-5.207,2.76-6.574,4.151-.019-.004-.298-.034-.298-.034l-.247-.015c-1.967-.114-4.944-.29-8.376.759-1.357.413-2.655.985-3.971,1.742-1.714-.144-3.478.057-5.232.591l-9.592,2.927.753,2.467-.014.003Z"/><path d="M22.976,409.333c-7.502-24.606-12.41-49.39-14.584-73.656-.453-5.034-1.286-9.262-2.017-12.99-1.345-6.868-2.412-12.286-.845-19.521.629-2.845.78-6.921.932-12.807.106-4.1.216-8.343.663-11.453.483-3.361,1.265-5.655,2.023-7.871.915-2.693,1.857-5.467,2.199-9.943l.07-.885c.644-8.24,1.313-16.752,2.499-24.077l.193-.105,1.317-1.955c.508-.753,1.186-1.798,2.075-3.196l3.038-4.785-2.617-5.027c-.163-.316-.328-.657-.483-1.026.223-.122.559-.289,1.065-.506l4.438-1.929,1.175-4.693c3.226-12.888,8.983-22.592,15.649-33.829,2.091-3.526,4.252-7.17,6.467-11.141l8.294-15.051c9.212-16.853,19.63-35.907,31.84-53.05.911-1.243,2.286-2.078,4.627-3.443,2.071-1.207,4.41-2.567,6.561-4.592,1.703-1.616,2.883-3.565,6.107-9.182,1.76-3.08,4.172-7.244,5.119-8.411,19.416-21.128,59.956-42.932,105.88-56.938,23.557-7.187,46.16-11.483,63.681-12.11,1.258.762,2.601,1.255,4.028,1.49l1.431.235,1.439-.189c43.611-5.739,100.793,1.542,156.884,19.978,48.756,16.014,82.333,38.987,108.88,74.487,11.546,15.424,30.754,44.061,37.307,59.453,1.412,3.322,2.89,6.73,4.319,10.027l.206.475c6.636,15.313,13.502,31.146,18.667,48.093,1.853,6.076,3.362,11.862,4.617,17.685,3.397,15.722,5.611,32.548,7.748,48.823l.014.103c.693,5.283,1.479,11.268,2.298,17.042,2.665,18.563,1.498,42.214-3.277,66.615-4.791,24.471-12.812,47.604-22.579,65.142-23.8,42.755-51.941,91.089-84.752,123.613-8.684,8.602-14.88,11.274-23.458,14.973l-.669.289c-3.978,1.722-8.469,3.662-13.6,6.399-3.154,1.662-5.108,3.971-6.456,5.798l-.307.42h-.007s-.008.014-.008.014l-.158.083c-15.275,8.173-30.098,14.345-46.615,19.405h-.003s-3.859,1.119-3.859,1.119c-18.75,5.459-37.848,8.99-60.752,12.616-3.138.494-5.489,1.169-7.449,1.767l-1.123.343c-2.7.823-4.685,1.331-7.569.896-3.457-.526-7.272-1.063-12.41-1.361-13.327-.79-26.206-.801-38.663-.812h-.117c-29.725.002-56.486-3.686-81.825-11.285-44.737-13.437-62.826-26.65-94.477-59.532-5.247-5.446-11.169-8.394-16.394-10.997-5.005-2.488-9.309-4.632-12.729-8.551-27.021-31.064-49.732-73.853-63.948-120.473v-.011ZM207.19,33.151c-5.518,1.914-10.181,3.335-14.312,4.597-12.681,3.869-21.841,6.66-39.652,18.073C67.099,111.038,16.728,219.552,21.761,339.018c1.139,26.889,4.324,48.115,10.021,66.81v.007c9.086,29.786,24.104,52.987,50.41,87.95,19.451,25.831,38.835,50.656,62.063,70.477,24.186,20.641,50.69,34.231,83.41,42.768,16.967,4.435,32.403,4.596,48.748,4.768,3.326.036,7.719.089,12.263.185,5.776.16,11.537.352,17.121.566,36.052,1.267,73.295,2.575,111.097-8.955l.294-.089c1.47-.447,2.988-.911,4.554-1.454l.119-.042c5.608-2.027,21.437-9.258,37.23-17.406,31.124-16.055,34.421-21.315,36.003-23.842l.247-.393.21-.414c.935-1.317,8.071-5.943,12.794-9.001,4.451-2.882,8.293-5.392,10.233-6.885l1.622-1.25.645-1.17c2.043-2.636,6.141-7.131,10.522-11.899l.586-.641c4.751-5.128,10.132-10.942,13.08-15.067,7.887-11.011,15.358-24.448,22.58-37.444l1.209-2.181c2.169-3.911,4.201-7.583,6.215-11.039l.048-.083c2.174-3.813,4.473-7.674,6.697-11.407l1.275-2.14c11.895-19.944,23.129-38.78,29.892-64.659,6.647-25.517,10.849-44.427,8.71-73.285,1.785-2.641,2.325-5.865,1.511-8.931l-.046-.173c-3.377-11.826-6.639-23.803-10.251-37.11l-.175-.641c-5.324-19.536-10.824-39.713-16.76-59.181-1.166-3.825-2.332-7.562-3.462-11.106-9.555-29.913-27.239-61.473-49.795-88.863-20.689-25.122-43.988-44.969-63.925-54.45-44.251-21.029-81.301-29.88-136.707-32.665l-5.328-.266c-30.309-1.552-64.671-3.308-94.715,1.902-.551.098-1.138.237-1.679.402-3.056.932-5.142,2.725-6.495,4.094-.019-.003-.294-.031-.294-.031l-.243-.016c-1.945-.111-4.881-.285-8.272.752-1.34.409-2.626.971-3.924,1.722-1.692-.141-3.435.056-5.169.586l-9.474,2.892.742,2.433-.008-.002Z"/><path d="M191.778,546.665c-4.199-.565-8.289-1.558-11.749-3.923-5.661-3.862-9.864-9.514-11.906-16.07-1.381-4.406-.769-9.242.791-13.394.503-1.335,1.578-1.766,2.724-2.456,1.448-.868,4.47-5.677,7.24-7.842,4.378-3.419,10.519-2.831,14.975.366,5.346,3.828,9.579,8.815,12.966,14.448,4.808,8.002,5.608,19.912-2.065,25.73-3.683,2.793-8.115,3.79-12.965,3.135l-.011.006ZM203.586,538.179c.865-1.271,1.95-3.407,2.056-4.869l.227-3.343c.398-5.757-4.986-14.448-9.149-18.544l-2.822-2.781c-3.275-3.231-10.279-5.298-14.079-.838l-3.23,3.799c-1.589,1.871-3.095,3.54-5.178,4.978l-1.195,3.355c-.188,4.602,1.451,8.172,3.867,11.705,3.395,4.952,7.915,8.867,13.934,10.06,5.521,1.101,12.492.966,15.567-3.514l.002-.008Z"/><path d="M253.64,577.485c-2.353-1.004-4.14-2.383-5.506-4.358-2.294-3.314-2.359-7.518.152-10.79,5.232-6.83,13.629-10.846,22.271-10.018,1.297.124,2.193.206,3.433-.014,1.967-.341,3.917,1.3,4.874,2.87,2.108,3.456,2.417,6.977,1.913,10.823-.6,4.544-2.629,8.624-6.746,10.885-5.488,3.005-11.411,4.431-17.222,1.947l-3.164-1.356-.005.011ZM256.74,574.778c6.717,3.295,17.805-.42,19.625-6.482,1.707-5.677,1.672-9.922-2.797-13.946l-1.336.306c-.256.059-.615-.63-.838-1.055-4.273.088-8.781.855-12.473,3.195-3.444,2.191-6.531,4.657-8.392,8.255-1.506,2.914-.239,6.557,2.592,7.947l3.627,1.777-.008.003Z"/><path d="M241.275,532.626c-4.285,3.867-11.216,2.45-14.928-1.647-4.452-4.912-6.256-14.52-4.322-20.779.405-1.308,1.675-2.117,2.983-2.448,1.619-1.62,3.871-3.443,6.375-3.04,6.703,1.067,11.152,10.139,12.688,16.896.842,3.746.475,8.083-2.789,11.028l-.007-.01ZM227.847,526.882c2.297,3.832,7.716,5.076,11.102,2.182,1.123-.966,1.68-3.544,1.536-5.048-.55-5.687-3.989-14.893-9.294-16.517-2.087-.639-4.001,1.331-5.07,2.725-1.468,1.922-1.372,3.926-1.14,4.133l.887.802c-.764.58-1.358,1.557-1.158,2.466.722,3.236,1.386,6.321,3.147,9.251l-.01.006Z"/><path d="M121.733,485.353l-.885,2.878c-.649,2.109-2.616,2.673-4.642,2.339-2.276-.374-4.207-1.927-5.109-3.88-1.048-2.262-.764-4.793.569-6.819.331-.502.851-.785,1.419-.963l2.596-.826c1.965-.626,3.645-.01,4.849,1.601.557.747,1.057,1.498,1.22,2.491.169,1.023.317,2.108-.012,3.18h-.005ZM118.265,488.433c1.039-.997,1.349-2.468,1.597-3.821.343-1.854-.135-3.638-1.805-4.745-1.596-.344-2.913.336-4.446-.01-.496,1.05-.927,2.296-1.284,3.505l-.381.704c.524,3.395,4.697,5.93,6.318,4.371v-.004Z"/><path d="M144.798,502.857c-5.402.918-9.948-1.234-13.327-4.97-2.867-3.172-4.175-6.992-3.275-11.236.464-2.208,1.854-4.107,4.486-4.136,5.844-4.452,11.505.981,15.544,6.606,1.719,2.397,2.669,4.905,2.243,7.887-.426,2.983-2.473,5.302-5.671,5.849ZM131.541,484.492c-.042-.173-.213-.274-.378-.23-.165.044-.275.212-.23.377.044.165.213.274.378.23.166-.044.275-.212.23-.377ZM144.085,489.425c-3.173-3.534-5.001-5.539-10.137-4.997l-3.766,4.011c.191,7.348,8.484,13.571,14.821,11.222,2.931-1.079,2.994-5.886-.918-10.236Z"/><path d="M225.358,554.508c-1.122,2.988-4.724,3.036-6.93,1.52-2.722-1.865-4.192-4.543-3.632-7.947.125-.783,3.604-3.031,6.115-2.752,3.825.417,5.693,5.838,4.439,9.176l.008.003ZM222.501,554.241c1.404-.512.748-5.491-1.58-6.007-.969-.213-2.027.124-2.834.665l-1.592,1.061c.528,2.401,3.093,5.328,6.006,4.281Z"/><path d="M201.413,527.067c-.09,4.477-4.291,7.254-8.294,7.641-3.463.33-6.656-.156-9.7-1.903-1.275-.738-2.368-2.234-3.353-3.306-2.481-2.706-3.184-5.748-2.121-9.21.657-2.119,1.332-4.404,3.066-5.983,3.246-2.941,8.021-.51,11.703,2.096l3.441,2.431c2.605,1.833,5.331,4.472,5.255,8.243l.003-.009ZM185.848,530.995c5.026,1.98,11.31,1.296,12.693-3.031.571-1.774.071-3.853-1.491-5.415-3.329-3.327-7.374-6.509-11.967-8.001-2.557-.831-4.853,2.031-5.477,3.872.944-.548,1.99-1.167,2.659-1.208.779-.045,1.786.781,1.834,1.818l-1.761-.414c-1.373,1.284-2.512,3.908-1.901,6.008.774,2.621,2.766,5.336,5.394,6.367l.017.004Z"/><path d="M263.777,571.775c-1.193-.904-2.711-2.365-3.299-3.336-1.325-2.225-.168-3.64,1.26-4.962l2.176-2.006c.436-.401,1.798-.861,2.373-.756,2.861.547,4.176,6.336,1.38,10.003-.807,1.063-2.645,2.003-3.89,1.057ZM264.76,569.324c1.992-2.056,2.12-4.025,1.207-6.271-1.701.968-2.514,1.858-3.515,3.361.716,1.132,1.296,1.903,2.3,2.907l.008.003Z"/><path d="M437.351,134.113c-5.156-1.466-10.097-3.45-13.997-7.043-6.385-5.87-10.616-13.725-11.974-22.327-.934-5.787.717-11.751,3.43-16.685.875-1.585,2.3-1.934,3.862-2.594,1.972-.829,6.636-6.325,10.501-8.546,6.1-3.511,13.683-1.666,18.686,3.166,5.995,5.772,10.385,12.797,13.598,20.482,4.558,10.916,3.381,26.019-7.293,31.944-5.124,2.845-10.857,3.3-16.813,1.603ZM453.694,125.581c1.315-1.441,3.064-3.928,3.464-5.745l.897-4.158c1.551-7.159-3.603-19.045-8.069-24.938l-3.025-4.002c-3.511-4.647-11.905-8.504-17.48-3.587l-4.741,4.19c-2.332,2.064-4.524,3.889-7.396,5.32l-2.111,3.998c-1.076,5.747.324,10.526,2.704,15.398,3.346,6.831,8.291,12.562,15.611,15.144,6.714,2.377,15.47,3.463,20.141-1.61l.005-.01Z"/><path d="M453.693,125.58c-4.661,5.078-13.427,3.987-20.141,1.611-7.32-2.582-12.265-8.313-15.611-15.145-2.38-4.872-3.791-9.655-2.704-15.398l2.111-3.997c2.872-1.432,5.054-3.261,7.396-5.32l4.741-4.19c5.565-4.922,13.969-1.061,17.48,3.586l3.025,4.002c4.466,5.894,9.61,17.775,8.069,24.939l-.897,4.157c-.395,1.807-2.139,4.309-3.464,5.745l-.005.01ZM453.003,111.232c.784-4.722-2.158-8.532-5.076-11.298l-3.865-3.674c-4.149-3.93-9.681-7.854-14.274-4.739-2.457,1.661-3.72,4.409-4.934,6.962-1.965,4.157-1.652,8.1.972,11.95,1.037,1.523,2.128,3.61,3.595,4.756,3.493,2.743,7.399,3.937,11.801,4.137,5.094.238,10.854-2.497,11.785-8.104l-.004.01Z" style="fill:#e82e88;"/><path d="M451.004,111.234c-.931,5.606-6.701,8.337-11.785,8.103-4.398-.209-8.309-1.394-11.801-4.136-1.463-1.157-2.558-3.233-3.596-4.756-2.613-3.846-2.937-7.793-.972-11.951,1.21-2.543,2.474-5.291,4.934-6.962,4.604-3.11,10.14.804,14.275,4.74l3.865,3.673c2.928,2.771,5.859,6.576,5.075,11.299l.005-.01ZM430.786,113.375c5.934,3.391,13.93,3.664,16.453-1.521,1.039-2.126.793-4.827-.877-7.071-3.562-4.777-8.047-9.503-13.526-12.203-3.051-1.504-6.449,1.677-7.568,3.876,1.283-.518,2.706-1.108,3.551-1.037.984.083,2.095,1.301,1.965,2.613l-2.131-.837c-1.954,1.365-3.86,4.455-3.479,7.203.49,3.432,2.489,7.201,5.592,8.968l.02.009Z"/><path d="M430.786,113.374c-3.104-1.768-5.107-5.526-5.592-8.968-.381-2.748,1.525-5.839,3.479-7.203l2.13.837c.131-1.312-.98-2.531-1.964-2.614-.856-.074-2.269.52-3.552,1.038,1.119-2.199,4.517-5.38,7.568-3.876,5.484,2.69,9.955,7.421,13.527,12.203,1.674,2.234,1.91,4.93.876,7.07-2.533,5.181-10.519,4.913-16.452,1.522l-.02-.009Z" style="fill:#e82e88;"/><path d="M501.36,140.392c-.451.818-.999,2.296-1.537,2.839-2.3,2.355-5.137,3.775-8.186,4.705-9.231,2.829-18.992,3.663-25.644-3.78-2.278.242-3.487-1.365-3.56-3.586-.1-3.115,2.217-5.813,5.074-7.083,8.019-3.583,18.686-4.697,27.175-2.455,2.609.69,6.342,2.531,7.177,4.629.643,1.626.414,3.043-.507,4.728l.008.003ZM498.513,136.86c-1.406-1.218-2.645-1.975-4.31-2.424-7.76-2.096-17.937-1.281-25.15,2.359-1.233.62-2.183,1.61-2.632,2.751-.45,1.141-.321,2.865.629,3.809,6.972,6.901,18.416,4.219,26.94.059,1.666-.811,3.052-2.454,4.168-3.912l.347-2.645.008.003Z"/><path d="M484.801,140.764c-.772,1.209-2.238,1.083-3.338.595l-2.182-.37c-.231-.707-.268-2.032.285-2.587,1.169-1.189,3.781-1.266,4.756-.273.496.51.845,2.054.471,2.631l.008.004Z"/></svg>