<?xml version="1.0" encoding="UTF-8"?><svg id="Layer_1" xmlns="http://www.w3.org/2000/svg" viewBox="0 0 1458.773 276.052" preserveAspectRatio="none"><path d="M965.676,42.133l-.894-.141-.871-.259c-9.341-2.867-17.388-7.637-23.929-14.217C871.748,9.775,780.22,0,681.61,0c-195.08,0-377.712,36.235-476.77,94.581-1.858,1.222-8.07,6.251-28.823,25.755-19.717,18.469-27.482,25.378-37.27,30.266-11.811,5.827-23.599,8.6-33.27,10.879-9.341,2.186-15.223,3.69-18.329,6.04C57.141,190.592,28.011,215.579,0,241.006v23.046C117.756,168.518,250.375,97.72,392.461,57.83c84.634-23.733,126.492-23.733,179.456-23.733,17.694,0,37.67,0,61.693-.917.612-.258,1.271-.564,1.93-.869l.353-.141c8.705-3.713,21.858-9.352,38.046-9.352,7.577,0,14.823,1.175,21.67,3.478,5.647-1.128,11.13-1.668,16.683-1.668,14.635,0,26.376,3.76,34.728,6.815,7.694-3.689,18.071-7.332,30.894-7.332,2.682,0,5.506.165,8.282.494,124.892,15.579,257.341,63.422,374.211,105.626l21.45,7.73c108.618,39.111,196.88,78.734,276.917,125.871v-21.256c-169.444-104.666-344.678-176.354-493.098-200.441Z" style="fill:#ea128b;"/><path d="M965.676,54.133l-.894-.141-.871-.259c-9.341-2.867-17.388-7.637-23.929-14.217-68.234-17.741-159.762-27.517-258.372-27.517-195.08,0-377.712,36.235-476.77,94.581-1.858,1.222-8.07,6.251-28.823,25.755-19.717,18.469-27.482,25.378-37.27,30.266-11.811,5.827-23.599,8.6-33.27,10.879-9.341,2.186-15.223,3.69-18.329,6.04C57.141,202.592,28.011,227.579,0,253.006v23.046C117.756,180.518,250.375,109.721,392.461,69.83c84.634-23.733,126.492-23.733,179.456-23.733,17.694,0,37.67,0,61.693-.917.612-.258,1.271-.564,1.93-.869l.353-.141c8.705-3.713,21.858-9.352,38.046-9.352,7.577,0,14.823,1.175,21.67,3.478,5.647-1.128,11.13-1.668,16.683-1.668,14.635,0,26.376,3.76,34.728,6.815,7.694-3.689,18.071-7.332,30.894-7.332,2.682,0,5.506.165,8.282.494,124.892,15.579,257.341,63.422,374.211,105.626l21.45,7.73c108.618,39.111,196.88,78.734,276.917,125.871v-21.256c-169.444-104.666-344.678-176.354-493.098-200.441Z"/></svg>