<?xml version="1.0" encoding="UTF-8"?><svg id="Layer_1" xmlns="http://www.w3.org/2000/svg" viewBox="0 0 1441.691 266.572" preserveAspectRatio="none"><path d="M1009.789,19.188C776.898-14.466,547.496-3.494,380.433,49.299l-5.504,1.747-5.775.074c-5.774.074-11.376-.935-16.831-3.075-68.31,14.613-153.967,47.159-241.393,91.736-38.567,19.644-75.751,40.675-110.93,62.572v53.938c12.805-7.214,25.681-13.786,39.721-20.937,15.333-7.823,32.631-16.63,52.952-27.996l-4.595-9.053,35.137-17.934c6.438-3.271,13.122-5.264,19.879-5.879,4.57-3.838,9.214-6.962,14.178-9.496,12.581-6.421,24.228-7.774,31.919-8.684l.958-.123s1.106-.074,1.179-.074c4.35-6.322,11.303-14.834,22.631-20.615,2.015-1.033,4.202-1.993,6.315-2.755,114.234-41.281,250.239-58.181,370.223-73.089l21.082-2.632c219.279-27.43,370.788-18.303,559.03,33.727,79.797,22.079,177.648,78.175,271.082,155.041v-50.311c-117.878-95.517-253.693-150.604-431.902-176.293Z" style="fill:#fbc000;"/><path d="M1002.909,38.696c-87.131-12.645-174.287-19.066-259.011-19.066-138.044,0-264.76,17.196-366.463,49.718l-6.094,1.944-7.027.074c-5.627,0-11.18-.984-16.512-2.927-67.548,14.834-152.149,47.431-238.445,91.933-37.847,19.515-74.4,40.359-109.357,62.329v43.869l1.438.003c10.713-5.904,21.574-11.513,33.123-17.466,14.301-7.38,30.395-15.695,49.045-26.126l-4.644-9.25,38.799-20.025c6.487-3.346,13.195-5.437,20.026-6.248,4.472-3.691,9.042-6.741,13.932-9.25,13.219-6.815,25.284-8.266,33.245-9.25h.32c6.585-9.201,14.104-15.917,22.974-20.493,2.163-1.107,4.497-2.14,6.758-2.976,114.357-41.821,250.165-58.968,370.001-74.097l21.009-2.682c81.628-10.381,152.984-15.425,218.197-15.425,113.719,0,218.766,15.129,340.636,49.079,81.156,22.615,181.852,81.268,276.832,161.087v-39.776c-119.235-100.974-256.655-158.586-438.782-184.978Z"/></svg>