<?xml version="1.0" encoding="UTF-8"?><svg id="Layer_1" xmlns="http://www.w3.org/2000/svg" viewBox="0 0 1439.432 265.277" preserveAspectRatio="none"><path d="M1262.632,131.68c-22.36-7.91-45.41-16.316-65.76-23.73l-.4-.142c-62.68-22.857-127.47-46.492-190.53-63.776-23.356-6.422-47.037-11.83-72.418-16.552-70.784-13.199-140.742-18.181-208.41-23.022l-2.101-.142c-14.568-1.039-29.607-2.125-44.246-3.258-67.785-5.266-207.087,10.2-284.364,22.857C247.839,47.829,122.963,105.026,0,205.993v48.601c24.842-21.429,51.094-42.516,79.133-63.694,71.61-54.095,186.924-100.824,316.332-128.237,141.096-29.893,288.071-34.379,413.821-12.656,14.898,2.574,30.552,5.407,46.536,8.382,81.314,15.159,164.38,33.222,244.79,50.719l2.65.566c54.75,11.972,104.05,22.715,153.02,32.75l.7.142c12.59,2.81,23.21,10.838,29.38,22.219,62.756,27.016,109.406,55.452,153.07,88.651v-27.423c-60.922-42.348-122.095-75.107-176.8-94.332Z" style="fill:#7b3fe4;"/><path d="M1261.602,143.485c-22.36-7.91-45.4-16.316-65.75-23.73l-.4-.142c-62.69-22.856-127.48-46.492-190.54-63.776-23.349-6.422-47.031-11.83-72.412-16.552-70.784-13.199-140.742-18.181-208.409-23.022l-2.102-.142c-14.567-1.039-29.607-2.125-44.246-3.258-67.785-5.265-207.087,10.201-284.364,22.857C247.227,59.57,122.646,116.528,0,216.981v48.295h.336c24.46-21.039,50.243-41.77,77.773-62.573,71.611-54.095,186.924-100.824,316.333-128.237,141.096-29.893,288.071-34.379,413.82-12.656,14.898,2.574,30.552,5.407,46.536,8.382,81.314,15.159,164.374,33.222,244.794,50.719l2.64.567c54.76,11.971,104.05,22.714,153.02,32.75l.71.141c12.59,2.81,23.21,10.838,29.37,22.219,62.78,27.036,109.44,55.489,153.12,88.688h.98v-26.744c-61.245-42.69-122.801-75.727-177.83-95.048Z"/></svg>