<?xml version="1.0" encoding="UTF-8"?><svg id="Layer_1" preserveAspectRatio="none" xmlns="http://www.w3.org/2000/svg" viewBox="0 0 1462.021 278.407"><path d="M964.576,42.133l-.894-.141-.871-.259c-9.341-2.867-17.388-7.637-23.929-14.217C870.648,9.775,779.12,0,680.51,0c-195.08,0-377.712,36.235-476.77,94.581-1.858,1.222-8.07,6.251-28.823,25.755-19.717,18.469-27.482,25.378-37.27,30.266-11.811,5.827-23.599,8.6-33.27,10.879-9.341,2.186-15.223,3.69-18.329,6.04C56.433,190.291,27.674,214.927,0,240.011v23.151C117.482,168.079,249.718,97.596,391.361,57.83c84.634-23.733,126.492-23.733,179.456-23.733,17.694,0,37.67,0,61.693-.917.612-.258,1.271-.564,1.93-.869l.353-.141c8.705-3.713,21.858-9.352,38.046-9.352,7.577,0,14.823,1.175,21.67,3.478,5.647-1.128,11.13-1.668,16.683-1.668,14.635,0,26.376,3.76,34.728,6.814,7.694-3.689,18.071-7.332,30.894-7.332,2.682,0,5.506.165,8.282.494,124.892,15.579,257.341,63.422,374.211,105.626l21.45,7.73c110.589,39.821,200.074,80.176,281.263,128.448v-21.143c-170.791-106.13-347.756-178.839-497.444-203.132Z" style="fill:#f26524;"/><path d="M964.576,54.133l-.894-.141-.871-.259c-9.341-2.867-17.388-7.637-23.929-14.217-68.234-17.741-159.762-27.517-258.372-27.517-195.08,0-377.712,36.235-476.77,94.581-1.858,1.222-8.07,6.251-28.823,25.755-19.717,18.469-27.482,25.378-37.27,30.266-11.811,5.827-23.599,8.6-33.27,10.879-9.341,2.186-15.223,3.69-18.329,6.04C56.433,202.291,27.674,226.928,0,252.011v23.15C117.482,180.079,249.718,109.597,391.361,69.83c84.634-23.733,126.492-23.733,179.456-23.733,17.694,0,37.67,0,61.693-.917.612-.258,1.271-.564,1.93-.869l.353-.141c8.705-3.713,21.858-9.352,38.046-9.352,7.577,0,14.823,1.175,21.67,3.478,5.647-1.128,11.13-1.668,16.683-1.668,14.635,0,26.376,3.76,34.728,6.814,7.694-3.689,18.071-7.332,30.894-7.332,2.682,0,5.506.165,8.282.494,124.892,15.579,257.341,63.422,374.211,105.626l21.45,7.73c110.589,39.821,200.074,80.176,281.263,128.448v-21.143c-170.791-106.13-347.756-178.839-497.444-203.132Z"/></svg>