<svg width="43" height="43" viewBox="0 0 43 43" fill="none" xmlns="http://www.w3.org/2000/svg">
<g clip-path="url(#clip0_476_21926)">
<mask id="mask0_476_21926" style="mask-type:luminance" maskUnits="userSpaceOnUse" x="0" y="0" width="43" height="43">
<path d="M43 0H0V43H43V0Z" fill="white"/>
</mask>
<g mask="url(#mask0_476_21926)">
<path d="M43 21.5C43 33.3708 33.3708 43 21.5 43C9.62919 43 0 33.3708 0 21.5C0 9.62919 9.62919 0 21.5 0C33.3708 0 43 9.621 43 21.5Z" fill="#E3E3DB"/>
</g>
<path d="M11.3884 16.56C11.2412 16.2982 10.8157 16.3227 10.5376 16.3882C7.96053 16.9854 6.31612 20.446 6.25886 20.4542C6.2834 20.4542 6.21795 20.4869 6.20977 20.4624C6.07887 20.1106 5.89889 19.8079 5.85798 19.7097C5.61255 19.1452 4.70444 18.8507 4.16449 19.1534C4.00905 19.2434 3.95996 19.3334 4.03359 19.5215C4.23812 19.996 6.38975 26.77 6.87244 28.0954C7.10151 28.7253 7.98507 29.1098 8.60684 28.8644C8.81955 28.7826 8.9259 28.6598 8.82773 28.4062C8.63138 27.9072 8.4514 27.4 8.26323 26.8927C8.19778 26.7209 8.14051 26.5491 8.08325 26.3855C7.55965 24.8883 7.49421 22.5649 7.96053 21.0514C8.07507 20.6914 8.21414 20.3315 8.37777 19.996C9.01589 18.6952 9.90764 17.6644 11.2166 17.0181C11.4539 16.9036 11.4702 16.7236 11.3802 16.56" fill="black"/>
<path d="M35.7026 19.5868C36.2099 19.1859 36.758 18.9241 37.437 19.0305C38.4188 19.1859 39.1878 20.2577 38.9424 21.223C38.2879 23.7837 36.848 26.0826 39.3432 28.3161C39.4332 28.3897 39.4905 28.4961 39.5068 28.6106C39.5968 29.3878 37.9361 28.5206 37.707 28.3815C37.0852 28.0216 36.5289 27.498 36.2835 26.8026C35.8744 25.6327 36.1853 24.4219 36.5944 23.3011C36.8234 22.6875 37.7315 20.9285 36.9625 20.5031C36.2426 20.1022 33.7064 24.5691 33.2483 26.2463C33.1828 26.4917 33.1256 26.7453 33.0683 26.9907C33.0192 27.2116 32.8883 27.2853 32.6674 27.2116C32.0784 27.0153 31.1703 26.3035 31.293 25.6981C31.5303 24.5609 31.972 22.8184 32.242 21.6894C32.9619 18.646 33.7228 15.6353 33.2156 12.4856C33.1174 11.8638 33.8619 11.8229 34.1073 12.2402C34.7373 13.3201 34.8682 14.6209 34.8109 15.8726C34.7209 17.6479 34.5654 19.4641 34.0991 21.174C34.0173 21.4685 33.9437 21.7712 33.8619 22.0657C34.0337 21.7957 35.0481 20.1268 35.7108 19.595" fill="black"/>
<path d="M30.6549 18.2609C29.8531 16.6738 28.1351 16.4611 27.0388 17.8437C26.6216 18.3755 25.8198 20.2162 25.7217 20.5107C25.7135 20.1999 25.7298 19.889 25.7544 19.5863C25.7707 19.2754 25.7871 18.9727 25.8116 18.6618C25.8689 17.95 25.2062 17.2546 24.4945 17.2792C24.2654 17.2792 24.1672 17.3937 24.1754 17.631C24.1836 17.8355 24.1754 18.1709 24.1509 18.3755C24.0527 19.7008 24.0609 20.7153 23.9382 22.057C23.8645 22.8178 23.3246 23.9059 22.4492 23.865C21.672 23.8241 21.2629 23.0878 21.0911 22.3924C21.4347 21.2634 21.6393 19.9953 21.8847 18.76C21.9092 18.6209 22.441 14.6367 22.5965 12.7796C22.7274 11.1515 23.2264 6.85643 20.5675 7.00369C19.1031 7.08551 18.7186 9.02443 18.5304 10.1698C18.2686 11.7406 18.3423 13.3441 18.4077 14.9312C18.4568 16.0684 18.5304 17.2056 18.6859 18.3346C18.8741 19.7663 19.1768 22.2533 19.2013 22.4006C19.2013 22.4006 19.0049 23.8405 18.1132 23.9386C16.5015 24.1104 16.0597 20.4862 15.9288 19.7663C15.8634 19.4308 15.6425 19.3245 15.3398 19.4799C14.6935 19.8235 14.7262 20.5189 14.7099 21.157C14.6935 21.8524 14.7262 22.556 14.5544 23.235C14.3499 24.0204 13.5072 24.7813 12.7218 24.1513C12.3128 23.8241 12.1492 23.2841 12.1001 22.7605C12.0183 21.967 12.0183 21.1652 12.3701 20.4535C12.7873 19.6108 13.45 18.94 14.3908 18.7436C14.6935 18.6782 14.9962 18.6536 15.2989 18.6209C15.4789 18.6045 15.847 18.6209 15.8061 18.3427C15.7816 18.1791 15.5525 18.0728 15.4134 18.0237C15.1762 17.95 14.9144 17.9419 14.6608 17.9337C14.1863 17.9337 13.7036 18.0237 13.2536 18.1791C12.4928 18.4409 11.7892 18.9072 11.2983 19.5454C11.0856 19.8235 10.9138 20.1344 10.7993 20.4616C10.3984 21.6806 10.4475 22.8996 10.8156 24.1104C11.0365 24.8304 11.3556 25.4849 11.9528 25.9757C12.6728 26.5648 13.5236 26.622 14.2517 26.1475C15.2907 25.4685 15.438 24.2168 15.5525 23.7914C15.5852 23.8568 15.6261 23.9223 15.6752 23.9959C16.2152 24.7895 17.156 25.8203 18.2032 25.8039C19.2095 25.7876 19.7167 24.8304 19.9376 24.3804C20.4285 25.3294 21.1239 25.9103 22.1874 25.763C22.8664 25.6648 23.251 25.3376 23.7173 24.9531C23.6109 26.0984 23.0137 31.4571 22.9401 32.3734C22.8664 33.2897 23.39 34.1487 24.2736 34.2796C24.5927 34.3287 24.7317 34.0423 24.7399 33.7723C24.7972 32.3079 25.2635 26.5893 25.3208 25.1167C25.3208 25.0349 25.3126 25.0185 25.3453 25.0104C25.3862 25.0349 25.5008 25.1249 25.5417 25.1576C26.5889 25.9757 27.6933 26.0085 28.7569 25.2067C29.8613 24.3722 30.4912 23.2187 30.8676 21.9097C31.2194 20.6744 31.2521 19.4472 30.6549 18.2691M20.4285 19.4799C20.4285 19.4799 20.0767 16.4693 20.0685 14.9557C20.0521 12.9759 20.1012 10.8079 20.3057 9.67074C20.363 9.35168 20.363 9.26987 20.4612 8.97535C20.5103 8.82809 20.5757 8.68901 20.6657 8.68083C21.0257 8.66446 20.993 10.6443 20.993 11.1433C21.0011 14.3831 20.7066 17.8682 20.4366 19.4799M29.2068 19.9953C29.1577 21.2961 28.8387 22.4415 28.1924 23.5787C27.9796 23.9468 27.6442 24.2904 27.1861 24.225C26.8097 24.1759 26.5152 23.865 26.4089 23.5132C26.1389 22.646 26.8425 20.6089 27.0879 20.028C27.3252 19.4636 27.7424 18.6782 28.3069 18.3836C29.3214 17.8519 29.2314 19.4226 29.2068 20.0035" fill="black"/>
</g>
<defs>
<clipPath id="clip0_476_21926">
<rect width="43" height="43" fill="white"/>
</clipPath>
</defs>
</svg>
