<svg width="176" height="120" viewBox="0 0 176 120" fill="none" xmlns="http://www.w3.org/2000/svg">
<path d="M172.597 88.909L172.565 93.2486L172.565 93.2564L172.564 93.2652L172.177 98.5292L172.177 98.5321L171.748 103.491L171.748 103.493C171.648 104.563 171.257 105.615 170.885 106.676C170.218 108.57 169.682 109.871 168.765 110.784C167.839 111.705 166.555 112.202 164.471 112.584L164.436 112.591L164.399 112.587C162.195 112.352 160.63 111.669 159.473 110.043L159.473 110.042L155.004 103.704L154.994 103.691L154.987 103.677L151.55 97.1695L151.545 97.16L151.545 97.159L148.291 90.2822L148.288 90.2755L148.284 90.2679L145.291 82.7107L145.289 82.705L143.859 78.7829L143.857 78.7791L142.201 73.9938L140.165 68.5797L140.16 68.5682L140.158 68.5566L139.136 64.7566L138.045 61.1868L134.667 51.2871C134.584 51.6693 134.504 52.0387 134.436 52.3932C134.317 53.0112 134.251 53.5262 134.286 53.8914L134.622 57.2385L134.623 57.2629L134.657 63.5068L134.98 71.3167L134.98 71.3265L134.73 71.3268L134.98 71.3265L135.002 76.21L135.269 84.2514L135.269 84.2533L135.427 90.2908L135.427 90.2996L135.177 90.298L135.426 90.2997L135.362 97.3754L136.759 98.0208L136.762 98.0226C136.876 98.0773 136.944 98.172 136.984 98.2622C137.023 98.351 137.04 98.4493 137.047 98.5427C137.061 98.7302 137.035 98.9497 136.99 99.1575C136.944 99.3676 136.876 99.5817 136.797 99.7632C136.723 99.9333 136.624 100.114 136.498 100.218L135.882 100.728L135.929 100.559C135.578 100.752 135.161 100.931 134.734 101.071C134.036 101.299 133.263 101.437 132.654 101.341L132.558 101.326L132.497 101.249C131.151 99.5364 130.941 97.3462 130.74 95.3826L130.178 89.7908L130.176 89.7811L129.707 82.2501L129.559 79.1833L129.166 75.709L129.164 75.6963L128.503 65.0126L128.083 59.067L128.082 59.0563L127.959 54.5736L127.463 50.6095L127.462 50.5959L127.461 50.5822L127.348 44.0742L127.348 44.0733L127.224 35.1245L127.223 35.1119L127.224 35.1118L127.431 29.4429L127.431 29.442C127.468 28.5309 127.967 27.6665 128.596 27.011C129.223 26.3572 130.017 25.8701 130.701 25.7482L131.103 25.6916C133.084 25.4864 134.638 26.4404 135.859 27.9185C137.153 29.4867 138.096 31.6697 138.82 33.7701L139.876 36.843L141.819 41.7835L141.818 41.7836L143.534 46.0908L143.537 46.0994L143.541 46.109L148.578 62.3337L151.041 69.9418L151.041 69.9427L152.591 74.7556L154.121 78.8654L157.056 86.1203L159.533 91.479L162.91 97.3507L162.89 89.2446L162.89 89.2377L163.093 81.6195C162.649 80.1505 162.524 78.6043 162.638 77.0532L162.535 72.1843L162.286 68.966L162.286 68.9533L162.013 58.0221L162.013 58.0182L161.952 51.2144L161.88 45.56L161.88 45.5531L161.881 45.5453L162.078 41.0648L162.078 41.0638L162.334 35.8795L162.035 28.8369L162.034 28.8222L162.035 28.8075L162.473 23.0141L161.89 19.9253L160.553 19.0922C160.339 18.9599 160.211 18.7692 160.153 18.5414C160.099 18.3237 160.11 18.0795 160.152 17.8278C160.237 17.3293 160.464 16.7002 160.697 16.0045C161.171 14.5887 161.711 12.7911 161.432 10.7649C161.036 7.87619 161.317 5.02484 162.483 2.39796C163.425 0.263166 166.447 -0.566188 168.306 1.24534L168.307 1.2453C170.908 3.79074 171.295 7.89595 171.183 11.3579L171.613 18.0696L171.615 18.0871L171.613 18.1048L171.301 22.1049L171.738 28.4184C171.915 30.9834 171.457 33.4627 171.127 35.9487L171.376 40.0234L171.377 40.0371L171.429 49.4302L171.428 49.4332L171.378 57.2298L171.561 66.5707L171.672 71.3687L172.039 76.2337C172.162 77.674 172.137 79.1006 171.898 80.5012L172.452 85.9125L172.597 88.909Z" fill="black" stroke="black" stroke-width="0.5"/>
<path d="M72.0507 7.03627C73.4701 6.3543 75.1704 5.95599 76.663 6.11309C78.1651 6.27128 79.484 6.99998 80.0427 8.58517L80.1295 8.86452C80.4986 10.2568 79.9341 11.5611 78.9646 12.7131C77.9317 13.9405 76.4042 15.0405 74.9155 15.9693L70.5104 18.7177L70.5047 18.7209L66.206 21.2441L62.1948 23.8669L62.1853 23.8732L62.1843 23.8723L60.0481 25.1328L60.0491 25.1337L56.5642 27.3166L56.5528 27.324L50.494 30.6721L50.493 30.6712L47.4694 32.4868C47.5553 32.7903 47.7066 33.1236 47.8924 33.4734C48.1141 33.8908 48.3663 34.3021 48.5981 34.7085L48.5991 34.7084L50.8269 38.5784L50.8312 38.586L53.7089 44.0124L53.7144 44.0248L55.7095 48.3196L55.716 48.332L55.7195 48.3445L58.4868 56.4727L58.4902 56.4823L58.4927 56.493L59.7201 61.4523L59.7214 61.4591L59.7227 61.4669L61.384 70.4618L61.3865 70.4744L61.3872 70.4871L61.6978 74.1551L62.5817 81.4433L62.6107 81.7196C62.67 82.385 62.6677 83.1924 62.6448 83.991C62.6317 84.4492 62.6113 84.9083 62.5925 85.3399C62.5736 85.7723 62.5556 86.1764 62.546 86.528L62.3977 92.0337C62.3716 93.054 62.1336 94.5287 61.7866 95.9906C61.4394 97.4529 60.9774 98.9259 60.4936 99.9392L60.4937 99.9402C60.2934 100.358 60.1068 100.793 59.9187 101.237C59.7312 101.679 59.5415 102.132 59.3398 102.574C58.9367 103.458 58.4745 104.322 57.8437 105.046L57.8438 105.047L55.9211 107.249C53.9525 109.488 50.7807 111.019 47.7894 111.689L47.7904 111.69C42.8688 112.806 37.6577 111.975 33.1366 109.657L33.1205 109.648L33.1053 109.638L29.76 107.251L29.7529 107.245L29.7458 107.239L26.7708 104.767L26.7617 104.759L26.7534 104.751L24.8182 102.815C23.316 101.309 22.3924 99.8322 21.5714 98.4332C20.7481 97.0303 20.0374 95.724 18.9507 94.5059L18.9177 94.4694L18.9017 94.4223L18.2119 92.4835C15.5915 87.6732 14.4962 81.9137 16.6356 76.7491C17.9659 73.5382 20.1142 71.4563 23.6088 70.5226L23.6098 70.5226C24.5728 70.2676 25.7462 70.0203 26.9059 69.9815C28.062 69.9428 29.2331 70.1102 30.1686 70.714C32.4999 72.2057 33.3039 74.9216 32.4661 77.2693L32.4662 77.2703C32.2153 77.963 31.5937 78.5528 30.9446 78.8893C30.6174 79.0589 30.2687 79.1723 29.9388 79.1978C29.6092 79.2232 29.2785 79.1614 29.017 78.9577L29.016 78.9578C28.6565 78.6762 28.3804 78.1669 28.1582 77.6508C27.972 77.2184 27.8083 76.7427 27.6632 76.3255C26.7382 76.8047 26.1241 77.8157 25.7941 79.0719C25.4827 80.2577 25.4365 81.6214 25.6045 82.8481L25.689 83.3641C26.3351 86.7423 27.2874 90.1604 29.5082 92.8281L29.532 92.8152L29.6656 92.971L31.0373 94.5729L31.0404 94.5767L33.4284 97.469L36.8947 100.805L39.6567 102.43L39.8779 102.555C42.1592 103.799 44.2689 103.486 46.7255 102.777C49.14 102.081 50.5611 100.503 51.5335 98.4672C52.5132 96.416 53.026 93.9266 53.6305 91.4197L53.6304 91.4187C53.9258 90.2071 54.2836 89.0993 54.2627 87.8607L54.1999 84.0605L54.2005 84.0537L54.2392 79.3364L53.9358 75.5341L53.9358 75.5331L53.5691 71.5129L52.6648 62.6858L51.6157 58.0366L51.6156 58.0356L50.1593 52.1399L48.1899 46.0019L46.401 41.5643L46.401 41.5633L43.5095 34.937L41.3878 36.012C39.7242 36.8571 38.3265 37.5015 36.8308 38.6513L36.8101 38.6669L36.7881 38.6778L34.5196 39.7882L31.0799 41.6316C29.548 42.4511 28.1111 43.3348 26.6272 44.1838C25.1568 45.025 23.652 45.8236 22.0068 46.4615C19.5539 48.1501 16.9439 49.4398 14.0656 50.1867C11.1392 52.3517 7.90336 54.1243 4.16938 53.841L4.16933 53.84C3.63342 53.8016 3.06067 53.4353 2.63267 53.0135C2.41389 52.7979 2.22113 52.5564 2.07883 52.3138C1.93852 52.0745 1.83688 51.816 1.82499 51.5703C1.79537 50.9555 2.05196 50.421 2.43052 49.9738C2.80751 49.5287 3.3172 49.1552 3.82829 48.8506L10.6459 44.6926L17.4748 40.2827L20.5577 38.1759L20.571 38.1674L26.7188 34.5158L29.6954 32.374L29.7067 32.3657L29.842 32.5762L29.7077 32.3656L33.864 29.7094L38.348 26.7334L38.3584 26.7261L43.7819 23.5024L45.8682 22.2414L51.2287 18.8888L53.6726 17.3182L53.6754 17.3161L53.6764 17.316L56.488 15.5655L56.4993 15.5581L56.5118 15.5526L60.8456 13.4764C61.1228 13.2235 61.494 12.84 61.9038 12.4468C62.308 12.0589 62.7519 11.6628 63.1142 11.4743L63.1171 11.4732L68.641 8.67097L68.6458 8.66878L72.0507 7.03627Z" fill="black" stroke="black" stroke-width="0.5"/>
<path d="M86.2028 54.4764C89.5145 54.1113 92.3332 55.5203 94.9191 57.1187L95.4332 57.44C98.0047 59.0734 99.4402 61.2509 100.814 63.9025C100.891 64.027 100.991 64.1792 101.105 64.3518C101.22 64.5248 101.346 64.7164 101.468 64.9112C101.707 65.2936 101.949 65.7168 102.048 66.0643L102.047 66.0644L103.153 69.8945L103.156 69.9061L103.159 69.9187L104.208 75.6199L104.21 75.6335L104.211 75.6471L104.411 78.4142L104.413 78.4385L104.409 78.4631L103.938 82.1942C104.204 87.2581 103.389 91.9779 100.323 96.1705C99.9049 98.7043 98.3162 100.338 96.5348 101.923L96.4616 101.987C94.4439 104.774 91.3479 106.311 88.0785 106.769C84.9663 107.205 81.6809 106.667 78.9849 105.287L78.4539 105L75.4475 103.275C72.7556 101.728 70.9015 99.2218 69.3314 96.6466C68.693 95.6053 67.8478 94.3894 67.485 93.164L67.4839 93.1621L65.1244 84.894L65.1151 84.8631L65.1145 84.8309L64.9347 76.9388L64.9337 76.9164L64.9375 76.8937L65.5614 72.9402L65.5629 72.9293L65.5653 72.9185L66.336 69.7987L66.4447 69.3965C67.0282 67.4169 68.1793 65.8859 69.3902 64.3163C70.9848 62.2326 72.9575 60.8744 75.0152 59.2908L75.4107 58.9755C75.8052 58.653 76.196 58.3114 76.5959 57.9661C77.1266 57.5079 77.672 57.0436 78.247 56.6205C79.3984 55.773 80.6857 55.0798 82.2727 54.9062L86.2028 54.4764ZM84.9382 62.4429C84.5703 62.4412 84.182 62.5208 83.6191 62.7235C83.0767 62.9195 82.3753 63.1047 81.7276 63.4003C81.1037 63.6851 80.6345 64.031 80.4705 64.4816C80.7571 66.0802 81.7492 66.7681 82.6967 67.3416C83.1659 67.6257 83.6605 67.9011 84.0017 68.2506C84.1777 68.431 84.3222 68.6386 84.4068 68.8881C84.4916 69.1382 84.5115 69.4159 84.461 69.7292L84.4611 69.7302C84.4265 69.9406 84.2917 70.148 84.1396 70.3225C83.9818 70.5036 83.7793 70.6792 83.5655 70.8263C83.3522 70.9731 83.1177 71.0983 82.8939 71.1715C82.6803 71.2414 82.4283 71.2796 82.213 71.1848L82.2111 71.1839L77.7623 69.1691C77.1252 68.8806 76.5881 68.2693 76.1064 67.6131C75.8627 67.2812 75.6254 66.9262 75.3929 66.5818C75.2279 66.3375 75.0627 66.0994 74.8992 65.8723C73.1227 68.4555 72.1116 71.2732 71.9502 74.23L71.794 77.3593L71.794 77.3602C71.6912 79.2877 71.9218 81.0405 72.2481 82.9102L72.3927 83.7197L72.3928 83.7216C73.2488 88.5966 75.3646 92.8011 79.2329 96.0249L79.4335 96.1912L79.4223 96.2025C80.7803 97.3152 82.2957 98.3181 84.0683 98.7388C87.319 99.5094 89.8532 97.3074 91.5512 94.6308C92.3983 93.2978 93.28 92.1537 93.6464 90.6523L94.6945 86.3704L95.6239 82.0198C95.684 78.6634 95.1519 75.5552 94.5493 72.1734L94.5492 72.1715C94.462 71.6622 94.2153 71.0223 93.9256 70.3683C93.7819 70.0438 93.6297 69.7213 93.4857 69.4148C93.3428 69.1107 93.2072 68.8206 93.0967 68.5653L92.9646 68.2793C91.5753 65.3652 89.2747 63.6199 86.2093 62.6887L86.2093 62.6897C85.6782 62.5298 85.3089 62.4448 84.9382 62.4429Z" fill="black" stroke="black" stroke-width="0.5"/>
<path d="M113.065 59.3115C113.559 59.2056 114.023 59.3882 114.422 59.6988C114.821 60.0092 115.182 60.4655 115.49 60.9672C116.104 61.9694 116.546 63.2185 116.663 64.0452L120.146 87.8476L120.147 87.8563L120.948 95.0615L121.363 98.4321L121.365 98.4408L121.7 102.27L121.713 102.257L121.763 102.825C121.885 104.221 121.581 105.484 120.86 106.42C120.137 107.359 119.014 107.943 117.558 108.013C116.316 108.073 115.142 107.418 114.348 106.435C113.565 105.466 113.132 104.152 113.367 102.819C112.778 100.966 112.573 99.1812 112.706 97.2917L112.129 92.4672L112.128 92.4536L111.817 87.6768L111.537 81.8603L111.259 68.3268L111.259 68.3199L111.316 61.2035L111.316 61.2005C111.32 60.9868 111.411 60.7704 111.527 60.5793C111.645 60.3838 111.803 60.1905 111.974 60.0181C112.145 59.8454 112.335 59.6883 112.518 59.5656C112.697 59.446 112.89 59.3463 113.065 59.3105L113.065 59.3115Z" fill="black" stroke="black" stroke-width="0.5"/>
<path d="M108.931 22.0709C109.373 21.9468 109.897 21.9821 110.374 22.151C110.855 22.3209 111.314 22.6347 111.613 23.0934L111.732 23.2989L111.732 23.3009L114.366 28.6715L114.493 28.9373C114.793 29.5971 115.113 30.5193 115.099 31.276C115.093 31.7072 114.831 32.1166 114.473 32.4892C114.134 32.8422 113.673 33.1955 113.154 33.547L113.239 35.2999C113.251 35.5521 113.149 35.9031 113.011 36.1918C112.939 36.3406 112.851 36.4873 112.749 36.6072C112.651 36.7224 112.52 36.8378 112.356 36.8813C112.188 36.9256 112.009 36.8848 111.862 36.8298C111.708 36.7718 111.551 36.6823 111.407 36.5809C111.262 36.479 111.123 36.3598 111.01 36.2373C110.9 36.1185 110.797 35.9808 110.746 35.8403L108.008 28.3247C107.593 27.1856 107.082 25.9363 107.014 24.8441C106.979 24.289 107.057 23.7516 107.331 23.2772C107.607 22.8009 108.066 22.4141 108.746 22.1336L108.931 22.0709Z" fill="black" stroke="black" stroke-width="0.5"/>
</svg>
