<svg width="253" height="350" viewBox="0 0 253 350" fill="none" xmlns="http://www.w3.org/2000/svg">
<mask id="path-1-outside-1_2257_1993" maskUnits="userSpaceOnUse" x="194.203" y="94.3105" width="59" height="152" fill="black">
<rect fill="white" x="194.203" y="94.3105" width="59" height="152"/>
<path d="M198.296 230.557C196.043 229.743 195.256 228.023 195.23 226.157L195.203 223.25L195.603 218.024L195.99 212.904L196.35 208.424L196.816 202.837L197.243 196.37L197.43 193.304C197.576 190.877 197.616 188.144 198.136 185.864C198.43 184.61 198.776 183.65 198.776 182.424L198.736 176.197C197.923 175.557 197.216 174.517 197.363 173.517C197.483 172.784 198.47 172.051 199.643 171.557L199.883 165.851L200.576 161.117L200.923 156.557L201.203 152.144L201.603 147.624L201.99 143.544L202.336 138.731L202.976 132.064L203.803 117.598L201.576 117.104C201.043 116.078 201.19 114.691 201.496 113.438C202.31 110.118 203.616 105.931 206.083 105.718C206.856 105.651 208.27 106.531 208.496 107.478C209.443 111.438 209.736 115.358 209.896 119.411L210.19 126.984L210.11 132.917L210.256 139.544L210.23 142.811L210.07 149.264L209.483 159.931V162.957L209.03 169.344L216.39 167.504L224.11 165.584L227.59 164.691L232.03 163.597L237.936 162.384L235.016 160.557C234.67 160.344 234.39 159.477 234.43 159.104C234.47 158.731 235.563 158.264 235.936 158.424L240.336 160.331L240.749 156.264L241.336 148.411L242.029 142.571L242.669 136.117L243.656 127.037L243.949 123.251L244.656 116.224L245.203 110.344L245.616 106.158C245.696 105.384 245.589 103.771 245.469 103.024L244.696 98.0244C244.536 96.971 245.669 95.651 246.496 95.411C247.763 95.0377 249.163 95.731 249.589 97.051C251.696 103.544 251.643 110.131 251.403 116.838L251.163 123.304L251.016 126.811L250.683 136.317L250.363 143.837L250.309 149.584L250.043 158.544L249.763 167.064L249.296 174.144L248.949 180.57L248.696 187.77L247.576 203.557L247.296 206.704L246.829 212.104L245.949 218.53L244.029 228.303L242.523 234.463L241.736 238.503L240.403 243.49C240.203 244.237 238.963 245.063 238.256 245.197C237.549 245.33 235.763 244.997 235.43 244.303C234.83 243.103 234.816 241.637 234.87 240.437L235.083 235.863L235.79 231.69C236.043 230.183 235.923 228.903 236.11 227.357L236.456 224.53L236.923 220.104L237.443 214.877L238.23 204.837L238.483 199.917L238.776 194.437L239.163 187.05L239.576 179.997L239.843 174.811L239.976 167.384L236.15 168.757L232.123 169.957L227.71 171.157L224.243 172.037L217.07 173.344L208.15 174.464C208.27 175.704 208.603 177.37 208.416 178.344L207.71 182.144C207.376 183.904 207.27 185.024 207.47 186.77C207.696 188.65 207.27 190.957 207.043 192.89L206.523 197.384L206.136 203.237L205.803 208.557L205.483 213.784L205.03 218.144L204.31 223.504C204.07 225.317 203.563 226.93 202.656 228.637C201.936 229.97 199.763 231.077 198.296 230.543V230.557Z"/>
</mask>
<path d="M198.296 230.557C196.043 229.743 195.256 228.023 195.23 226.157L195.203 223.25L195.603 218.024L195.99 212.904L196.35 208.424L196.816 202.837L197.243 196.37L197.43 193.304C197.576 190.877 197.616 188.144 198.136 185.864C198.43 184.61 198.776 183.65 198.776 182.424L198.736 176.197C197.923 175.557 197.216 174.517 197.363 173.517C197.483 172.784 198.47 172.051 199.643 171.557L199.883 165.851L200.576 161.117L200.923 156.557L201.203 152.144L201.603 147.624L201.99 143.544L202.336 138.731L202.976 132.064L203.803 117.598L201.576 117.104C201.043 116.078 201.19 114.691 201.496 113.438C202.31 110.118 203.616 105.931 206.083 105.718C206.856 105.651 208.27 106.531 208.496 107.478C209.443 111.438 209.736 115.358 209.896 119.411L210.19 126.984L210.11 132.917L210.256 139.544L210.23 142.811L210.07 149.264L209.483 159.931V162.957L209.03 169.344L216.39 167.504L224.11 165.584L227.59 164.691L232.03 163.597L237.936 162.384L235.016 160.557C234.67 160.344 234.39 159.477 234.43 159.104C234.47 158.731 235.563 158.264 235.936 158.424L240.336 160.331L240.749 156.264L241.336 148.411L242.029 142.571L242.669 136.117L243.656 127.037L243.949 123.251L244.656 116.224L245.203 110.344L245.616 106.158C245.696 105.384 245.589 103.771 245.469 103.024L244.696 98.0244C244.536 96.971 245.669 95.651 246.496 95.411C247.763 95.0377 249.163 95.731 249.589 97.051C251.696 103.544 251.643 110.131 251.403 116.838L251.163 123.304L251.016 126.811L250.683 136.317L250.363 143.837L250.309 149.584L250.043 158.544L249.763 167.064L249.296 174.144L248.949 180.57L248.696 187.77L247.576 203.557L247.296 206.704L246.829 212.104L245.949 218.53L244.029 228.303L242.523 234.463L241.736 238.503L240.403 243.49C240.203 244.237 238.963 245.063 238.256 245.197C237.549 245.33 235.763 244.997 235.43 244.303C234.83 243.103 234.816 241.637 234.87 240.437L235.083 235.863L235.79 231.69C236.043 230.183 235.923 228.903 236.11 227.357L236.456 224.53L236.923 220.104L237.443 214.877L238.23 204.837L238.483 199.917L238.776 194.437L239.163 187.05L239.576 179.997L239.843 174.811L239.976 167.384L236.15 168.757L232.123 169.957L227.71 171.157L224.243 172.037L217.07 173.344L208.15 174.464C208.27 175.704 208.603 177.37 208.416 178.344L207.71 182.144C207.376 183.904 207.27 185.024 207.47 186.77C207.696 188.65 207.27 190.957 207.043 192.89L206.523 197.384L206.136 203.237L205.803 208.557L205.483 213.784L205.03 218.144L204.31 223.504C204.07 225.317 203.563 226.93 202.656 228.637C201.936 229.97 199.763 231.077 198.296 230.543V230.557Z" fill="black"/>
<path d="M198.296 230.557C196.043 229.743 195.256 228.023 195.23 226.157L195.203 223.25L195.603 218.024L195.99 212.904L196.35 208.424L196.816 202.837L197.243 196.37L197.43 193.304C197.576 190.877 197.616 188.144 198.136 185.864C198.43 184.61 198.776 183.65 198.776 182.424L198.736 176.197C197.923 175.557 197.216 174.517 197.363 173.517C197.483 172.784 198.47 172.051 199.643 171.557L199.883 165.851L200.576 161.117L200.923 156.557L201.203 152.144L201.603 147.624L201.99 143.544L202.336 138.731L202.976 132.064L203.803 117.598L201.576 117.104C201.043 116.078 201.19 114.691 201.496 113.438C202.31 110.118 203.616 105.931 206.083 105.718C206.856 105.651 208.27 106.531 208.496 107.478C209.443 111.438 209.736 115.358 209.896 119.411L210.19 126.984L210.11 132.917L210.256 139.544L210.23 142.811L210.07 149.264L209.483 159.931V162.957L209.03 169.344L216.39 167.504L224.11 165.584L227.59 164.691L232.03 163.597L237.936 162.384L235.016 160.557C234.67 160.344 234.39 159.477 234.43 159.104C234.47 158.731 235.563 158.264 235.936 158.424L240.336 160.331L240.749 156.264L241.336 148.411L242.029 142.571L242.669 136.117L243.656 127.037L243.949 123.251L244.656 116.224L245.203 110.344L245.616 106.158C245.696 105.384 245.589 103.771 245.469 103.024L244.696 98.0244C244.536 96.971 245.669 95.651 246.496 95.411C247.763 95.0377 249.163 95.731 249.589 97.051C251.696 103.544 251.643 110.131 251.403 116.838L251.163 123.304L251.016 126.811L250.683 136.317L250.363 143.837L250.309 149.584L250.043 158.544L249.763 167.064L249.296 174.144L248.949 180.57L248.696 187.77L247.576 203.557L247.296 206.704L246.829 212.104L245.949 218.53L244.029 228.303L242.523 234.463L241.736 238.503L240.403 243.49C240.203 244.237 238.963 245.063 238.256 245.197C237.549 245.33 235.763 244.997 235.43 244.303C234.83 243.103 234.816 241.637 234.87 240.437L235.083 235.863L235.79 231.69C236.043 230.183 235.923 228.903 236.11 227.357L236.456 224.53L236.923 220.104L237.443 214.877L238.23 204.837L238.483 199.917L238.776 194.437L239.163 187.05L239.576 179.997L239.843 174.811L239.976 167.384L236.15 168.757L232.123 169.957L227.71 171.157L224.243 172.037L217.07 173.344L208.15 174.464C208.27 175.704 208.603 177.37 208.416 178.344L207.71 182.144C207.376 183.904 207.27 185.024 207.47 186.77C207.696 188.65 207.27 190.957 207.043 192.89L206.523 197.384L206.136 203.237L205.803 208.557L205.483 213.784L205.03 218.144L204.31 223.504C204.07 225.317 203.563 226.93 202.656 228.637C201.936 229.97 199.763 231.077 198.296 230.543V230.557Z" stroke="black" stroke-width="1.5" mask="url(#path-1-outside-1_2257_1993)"/>
<path d="M31.875 120.403C33.7111 119.373 35.3467 119.45 37.2305 119.517H37.2314C39.8802 119.611 41.8327 120.105 43.54 121.068C45.0274 121.908 46.3065 123.093 47.6885 124.632L48.2881 125.312L48.5889 125.673C51.6513 129.46 53.2334 135.176 53.2988 139.886V139.887L53.3662 145.126V145.154L53.3623 145.183L52.9219 148.343L52.9199 148.36L52.915 148.378L51.502 154.298L51.4941 154.331L51.4814 154.361L48.668 160.788H48.667C47.7379 162.902 46.625 164.89 45.04 166.611L45.0391 166.612L42.3594 169.506C38.9812 173.156 34.7393 174.874 30.0195 176.107H30.0186L26.752 176.959L26.7529 176.96L22.7002 178.02L20.6738 178.924C20.9859 179.783 21.7097 180.569 22.5674 181.255L22.9863 181.575L22.9883 181.576H22.9873L26.8145 184.416L26.832 184.429L26.8477 184.444C28.4511 185.949 30.1925 187.248 31.9268 188.591C33.4385 189.761 34.9412 190.961 36.3047 192.341L36.8799 192.943L36.8965 192.961L36.9102 192.981L41.3506 199.274L41.3721 199.306L41.3877 199.34L42.6279 202.166L42.9209 202.803C43.2202 203.427 43.5355 204.02 43.8428 204.629C44.1979 205.333 44.5365 206.052 44.8008 206.831L44.9102 207.169L46.9629 213.969L46.9639 213.97C47.3337 215.207 47.2915 216.592 46.9229 217.821C46.5549 219.048 45.8487 220.158 44.8477 220.806C43.8805 221.431 42.991 221.642 42.1348 221.563C41.2912 221.486 40.5175 221.131 39.7744 220.694L39.7734 220.693C38.7873 220.11 38.2899 219.445 37.9766 218.665C37.8243 218.286 37.7172 217.886 37.6162 217.473C37.5137 217.054 37.4173 216.624 37.2832 216.153V216.152L36.0908 212.006L33.8008 206.604L30.5127 201.139L26.042 195.9L21.1455 191.51L21.1768 195.742H21.1895L21.1924 196.114C21.2059 197.893 21.0976 199.513 20.8145 201.347L20.415 203.948C21.1421 206.033 21.3263 207.843 21.0977 210.089L20.873 212.341L21.2051 218.671C21.2973 220.422 21.3339 222.625 19.9199 224.156L19.9209 224.157C18.8495 225.324 17.1241 225.806 15.5508 225.637C13.9747 225.467 12.4493 224.628 11.8652 223.033V223.032C11.6991 222.582 11.5086 221.941 11.3594 221.311C11.2118 220.687 11.0957 220.037 11.0957 219.584V215.622C11.1093 213.322 11.3217 211.425 11.0586 209.215V209.214C10.8707 207.599 11.1857 206.256 11.4219 204.954C11.6589 203.647 11.8279 202.342 11.4268 200.699V200.698C11.306 200.195 11.1536 199.524 11.0352 198.867C10.9182 198.219 10.8281 197.555 10.8428 197.079L10.9355 193.704L10.6162 182.688L10.6152 182.66L10.6191 182.632C10.8007 181.153 10.7218 179.719 10.4004 178.421L10.3799 178.339L10.3965 178.256C10.9181 175.7 10.8417 173.314 10.2529 170.789L10.2314 170.699L10.2549 170.609L10.7197 168.824L10.5361 164.734C10.4459 162.762 10.2817 160.819 11.1475 158.751L10.5596 157.168L10.5361 157.105V157.039L10.4736 142.305C7.23026 145.921 4.66682 149.929 3.24414 154.514C3.2411 154.717 3.22681 154.944 3.2373 155.197C3.24274 155.328 3.25518 155.432 3.27344 155.503C3.27587 155.512 3.27917 155.52 3.28125 155.526L4.57031 156.229L4.57715 156.231L4.58301 156.235L5.63086 156.859H5.63184C5.77079 156.94 5.8382 157.067 5.86914 157.165C5.8998 157.262 5.90512 157.362 5.90234 157.445C5.89672 157.614 5.85353 157.798 5.7959 157.96C5.73824 158.122 5.65592 158.292 5.55371 158.427C5.50292 158.494 5.4361 158.568 5.35156 158.624C5.26877 158.679 5.14368 158.733 4.99219 158.716V158.717L4.9834 158.716H4.98047V158.715L3.69922 158.584V158.583C2.78391 158.492 2.05067 158.167 1.50684 157.627C0.965883 157.09 0.641072 156.369 0.486328 155.54C0.179314 153.894 0.526784 151.736 1.29883 149.422C2.84717 144.78 6.17133 139.307 9.88574 135.586L14.8721 130.586L14.8877 130.571L14.9043 130.558L21.5312 125.291L22.0332 124.9C24.5104 123.017 26.4765 122.14 28.0693 121.616C28.9104 121.34 29.6519 121.162 30.2773 120.991C30.8331 120.84 31.2972 120.694 31.7041 120.493L31.875 120.403ZM33.082 126.586H33.0811C32.9555 126.589 32.717 126.641 32.3594 126.759C32.0129 126.873 31.5868 127.038 31.1025 127.244C30.1348 127.656 28.9517 128.223 27.7344 128.85C25.2917 130.107 22.7514 131.584 21.5537 132.508L16.9404 136.068L16.9395 136.067L14.4619 138.152C15.3829 138.908 16.0881 140.037 16.6377 141.358C17.266 142.869 17.7078 144.67 18.0293 146.55C18.6717 150.306 18.846 154.447 19.0449 157.318L19.2305 160.055L19.8252 166.236H19.8496L19.8721 166.587L20.1729 171.394L22.4893 170.552L22.5 170.548L31.0684 167.718C33.4278 166.472 35.7185 165.333 37.3506 163.495C42.0829 158.143 44.8146 151.681 45.7656 144.681V144.68C46.001 142.973 46.0221 140.894 45.8115 138.887C45.6005 136.875 45.16 134.967 44.4932 133.588L42.9199 130.334L42.9189 130.333C42.402 129.256 41.3596 128.276 40.1162 127.57C38.874 126.866 37.4776 126.461 36.2949 126.492L33.082 126.586Z" fill="black" stroke="black" stroke-width="0.75"/>
<path d="M164.957 131.638C168.103 131.803 170.555 133.014 173.102 134.529C174.395 135.3 175.382 136.363 176.372 137.237L176.913 137.72C179.588 140.136 181.759 142.597 183.152 146.072L185.578 152.125C187.046 155.778 187.203 159.995 186.897 163.919L186.83 164.7L186.563 167.487C186.402 169.168 186.024 171.336 185.292 172.978V172.979L183.225 177.578L183.211 177.61L183.192 177.639L181.112 180.639C179.652 182.741 177.978 184.83 175.796 186.271L175.795 186.271L171.996 188.764L171.997 188.765C168.721 190.926 164.63 192.127 160.765 192.424L160.766 192.425L156.672 192.745L156.642 192.748L156.611 192.745L151.251 192.271L151.552 193.38L151.578 193.475L151.554 193.569C151.3 194.588 151.246 195.695 151.272 196.936L151.539 207.45L151.858 215.943L151.859 215.952L151.965 223.593V223.608L151.819 228.675L151.817 228.694L151.231 235.935L151.23 235.942L151.229 235.949L150.75 239.909L150.748 239.926L150.744 239.942L150.01 243.369L149.909 243.843L149.815 243.796C149.43 244.718 148.566 245.165 147.653 245.299C146.612 245.451 145.431 245.217 144.569 244.786C142.845 243.924 142.308 241.905 142.322 239.835L142.349 235.575L142.295 231.082V231.075L142.388 217.222L142.335 213.684V213.681L142.255 201.609L142.016 198.063L142.014 198.038L142.016 198.013L142.283 194.066C142.516 190.6 142.095 189.325 141.569 188.719C141.306 188.415 140.993 188.25 140.609 188.058C140.234 187.87 139.786 187.655 139.388 187.246L139.386 187.244L136.787 184.538L136.786 184.537C136.282 184.01 135.873 183.008 135.647 182.032C135.532 181.534 135.459 181.022 135.447 180.549C135.435 180.082 135.482 179.626 135.628 179.259C136.22 177.776 137.477 176.856 138.888 176.443C140.182 176.065 141.63 176.103 142.885 176.53C143.256 175.711 143.31 174.804 143.261 173.816C143.234 173.26 143.177 172.709 143.133 172.125C143.09 171.551 143.061 170.961 143.096 170.376V170.374L143.736 160.321L143.737 160.311L143.738 160.301L144.081 157.394L144.048 154.727L143.259 155.188L143.26 155.188C143.141 155.259 143.009 155.277 142.903 155.278C142.792 155.28 142.676 155.264 142.561 155.237C142.331 155.184 142.066 155.082 141.79 154.941C141.235 154.659 140.591 154.202 140.021 153.599C138.879 152.389 137.993 150.536 138.826 148.307C140.189 144.645 142.263 141.716 144.718 138.609L144.258 135.047L144.243 134.887C144.216 134.505 144.262 134.065 144.366 133.671C144.479 133.24 144.688 132.763 145.043 132.517C145.232 132.386 145.487 132.314 145.729 132.274C145.981 132.233 146.264 132.22 146.539 132.234C146.812 132.249 147.093 132.292 147.336 132.371C147.566 132.446 147.825 132.573 147.979 132.799L149.495 135.002C149.802 134.836 150.123 134.656 150.456 134.464C150.89 134.212 151.346 133.946 151.812 133.7C152.74 133.211 153.745 132.78 154.779 132.679L164.899 131.639L164.927 131.636L164.957 131.638ZM159.828 137.826C157.064 137.906 154.263 138.889 150.458 140.546L151.178 155.006V155.022L151.218 161.155V161.166L151.166 163.593L151.206 171.05V171.1L151.193 171.148C150.495 173.748 150.735 176.335 151.161 179.128L151.166 179.16V179.191L151.091 183.199C153.306 183.536 156.616 183.341 159.839 182.748C163.225 182.125 166.42 181.083 168.101 179.843H168.102L170.755 177.896L171.333 177.471C173.642 175.476 174.823 172.583 175.824 169.778L177.089 166.193L177.09 166.192C177.874 163.985 178.197 161.722 177.963 159.437L177.658 156.439L176.863 152.54C176.435 150.44 175.592 148.709 174.432 146.864V146.863C174.196 146.489 173.965 146.075 173.736 145.656C173.504 145.233 173.273 144.805 173.03 144.392C172.601 143.662 172.156 143.013 171.651 142.56L171.43 142.377L169.236 140.712C165.432 138.593 162.627 137.746 159.828 137.826ZM142.474 180.135C142.438 180.14 142.413 180.144 142.399 180.147C142.39 180.154 142.379 180.164 142.365 180.178C142.346 180.195 142.327 180.215 142.309 180.236C142.35 180.263 142.393 180.29 142.437 180.317L142.474 180.135ZM144.659 145.857C143.623 147.147 142.845 148.466 142.491 150.143C142.457 150.306 142.49 150.502 142.607 150.726C142.724 150.95 142.915 151.18 143.151 151.389C143.502 151.699 143.906 151.922 144.243 152.025L144.659 145.857Z" fill="black" stroke="black" stroke-width="0.75"/>
<path d="M75.6089 145.989C76.0126 146.003 76.4182 146.047 76.7778 146.131C77.1296 146.213 77.4756 146.341 77.7251 146.55L80.9253 149.23L80.979 149.275L81.0132 149.338C82.7691 152.559 83.9905 155.966 84.8335 159.512L84.9966 160.223L84.9976 160.224L86.064 165.091L86.0659 165.099L86.0669 165.106L88.1206 176.906L88.1226 176.921L88.1245 176.935L88.4438 180.281L88.4966 180.729C88.5578 181.179 88.641 181.633 88.7163 182.098C88.8149 182.706 88.8994 183.329 88.8853 183.926V183.927C88.8661 184.656 88.9361 185.313 89.0317 185.999C89.1266 186.679 89.2503 187.405 89.3247 188.23L89.5513 190.75V190.754L89.9233 195.427H89.9243L90.3374 199.587V199.588L90.9634 206.101L91.3765 209.673L91.4263 210.141C91.6419 212.479 91.3874 214.771 91.1636 217.084L90.7778 221.285L90.7632 221.438L90.647 221.536L88.2866 223.536C87.3662 224.318 86.3359 224.386 85.3237 223.991C84.3395 223.608 83.3651 222.789 82.4556 221.791C80.6307 219.79 78.9493 216.932 77.8589 214.852L77.8579 214.85C77.7822 214.704 77.7426 214.525 77.7192 214.363C77.6948 214.194 77.6838 214.009 77.6812 213.831C77.6759 213.48 77.7029 213.12 77.7427 212.913L77.7661 212.827C77.7949 212.745 77.8379 212.676 77.8784 212.621C77.9349 212.545 78.0035 212.476 78.0737 212.415C78.2141 212.293 78.3883 212.18 78.563 212.091C78.7357 212.003 78.9297 211.929 79.1128 211.896C79.2042 211.881 79.3093 211.872 79.4146 211.888C79.4941 211.9 79.5875 211.928 79.6733 211.988L79.7563 212.06L79.7612 212.064L81.9556 214.477L81.2437 206.658L81.1499 205.627L81.1997 205.677L80.6646 196.294L73.5933 196.851L73.5747 196.853H73.5571L68.8638 196.759C68.377 196.75 68.069 196.858 67.8638 197.008C67.657 197.158 67.5137 197.38 67.4116 197.673C67.3083 197.969 67.2551 198.316 67.2153 198.69C67.1869 198.958 67.1641 199.255 67.1313 199.533L67.0942 199.803L66.1216 205.936L66.1206 205.941L64.2134 216.901C64.0074 218.082 63.6317 219.177 62.9683 220.07C62.2995 220.97 61.354 221.644 60.0493 221.999L60.0483 221.998C59.2973 222.204 58.4292 222.099 57.6948 221.729C56.9552 221.355 56.3253 220.698 56.0942 219.783V219.784C55.5544 217.706 55.2284 215.537 55.2827 213.321V213.32L55.4165 208.507V208.494L55.6704 204.4V204.396L56.3237 195.557V195.553L57.0835 186.459L57.0845 186.451L57.0854 186.444L57.8989 179.95L58.6851 173.538L58.8062 172.607C59.4385 167.972 60.4846 163.613 62.1323 159.147C62.3222 158.629 62.7692 158.156 63.2603 157.83C63.749 157.506 64.3596 157.277 64.9165 157.346H64.9224C65.1902 157.383 65.4261 157.524 65.6235 157.691C65.8235 157.861 66.0095 158.081 66.1802 158.318C66.351 158.556 66.5139 158.822 66.6665 159.096L68.0464 154.737L68.0493 154.728L68.0532 154.719L69.3862 151.186L69.3872 151.185C69.7364 150.265 70.1855 149.206 70.8188 148.291C71.4532 147.374 72.2906 146.574 73.4233 146.214L73.4282 146.212C73.9607 146.049 74.8086 145.962 75.6089 145.989ZM74.4819 157.348C72.9869 161.738 71.8382 165.76 71.2017 170.118V170.119L70.7622 173.105L70.7612 173.11L69.6812 179.817L69.1099 184.482L69.1089 184.489L68.4224 189.385L73.5552 189.263L73.564 189.262V189.263H73.5942L79.7681 189.536L78.3804 177.164L76.7964 167.392L75.2935 159.933L74.4819 157.348ZM65.4556 164.027C65.504 163.907 65.5561 163.793 65.6011 163.691C65.6978 163.473 65.7661 163.306 65.7896 163.164C65.8103 163.039 65.7887 162.979 65.7485 162.931C65.7217 162.898 65.674 162.857 65.5913 162.813L65.4556 164.027Z" fill="black" stroke="black" stroke-width="0.75"/>
<path d="M108.612 113.281C109.31 113.167 109.886 113.401 110.333 113.856C110.764 114.296 111.072 114.934 111.301 115.643C111.702 116.886 111.899 118.472 112.022 119.938L112.071 120.557V120.558L112.444 125.717L112.445 125.735V125.754L112.219 134.78V134.785L111.778 146.651V146.659L111.777 146.667L111.458 150.747L111.457 150.749L110.564 161.202L110.563 161.214L110.19 161.171L110.562 161.214L109.791 167.935L109.525 173.721L109.524 173.744L109.521 173.767L108.71 178.543L108.485 183.733L108.484 183.748L108.482 183.762L106.51 200.295L105.929 206.688L108.155 206.229L108.177 206.226L110.923 205.827L113.853 205.151H113.854C116.883 204.457 120.388 203.781 123.597 203.835H123.598L127.957 203.915L127.971 203.916L132.477 204.156H132.476C132.734 204.169 132.972 204.166 133.217 204.166C133.455 204.166 133.7 204.17 133.939 204.202C134.424 204.267 134.88 204.446 135.314 204.898C136.269 205.461 136.977 206.261 137.293 207.216C137.616 208.191 137.517 209.288 136.92 210.389L136.866 210.488L136.767 210.541C133.497 212.285 130.179 212.595 126.697 212.848L122.961 213.631L122.936 213.635L116.322 214.555L116.316 214.556L112.806 214.993L104.439 217.041H104.438C104.018 217.143 103.614 217.28 103.205 217.421C102.801 217.56 102.387 217.706 101.972 217.814C101.129 218.035 100.242 218.112 99.2598 217.703L99.2578 217.702C97.215 216.84 96.4877 214.674 96.3525 212.285C96.2163 209.877 96.6687 207.086 97.1426 204.736V204.735L97.6094 202.442L98.3389 196.829L100.498 179.697L100.501 179.678L100.505 179.658L101.398 175.832C101.579 175.061 101.553 174.201 101.539 173.295C101.526 172.418 101.524 171.485 101.811 170.685V170.684C102.223 169.537 102.412 168.413 102.532 167.273C102.592 166.702 102.635 166.131 102.681 165.549C102.726 164.969 102.774 164.378 102.845 163.78L103.911 154.7L104.443 149.215L104.777 145.722L105.284 140.494V140.489L105.976 134.327L106.256 128.088V128.085L106.909 115.165C106.93 114.71 107.225 114.263 107.525 113.948C107.684 113.782 107.862 113.634 108.041 113.519C108.215 113.407 108.414 113.312 108.612 113.28V113.281Z" fill="black" stroke="black" stroke-width="0.75"/>
<path d="M184.347 88.909L184.315 93.2486L184.315 93.2564L184.314 93.2652L183.927 98.5292L183.927 98.5321L183.498 103.491L183.498 103.493C183.398 104.563 183.007 105.615 182.635 106.676C181.968 108.57 181.432 109.871 180.515 110.784C179.589 111.705 178.305 112.202 176.221 112.584L176.186 112.591L176.149 112.587C173.945 112.352 172.38 111.669 171.223 110.043L171.223 110.042L166.754 103.704L166.744 103.691L166.737 103.677L163.3 97.1695L163.295 97.16L163.295 97.159L160.041 90.2822L160.038 90.2755L160.034 90.2679L157.041 82.7107L157.039 82.705L155.609 78.7829L155.607 78.7791L153.951 73.9938L151.915 68.5797L151.91 68.5682L151.908 68.5566L150.886 64.7566L149.795 61.1868L146.417 51.2871C146.334 51.6693 146.254 52.0387 146.186 52.3932C146.067 53.0112 146.001 53.5262 146.036 53.8914L146.372 57.2385L146.373 57.2629L146.407 63.5068L146.73 71.3167L146.73 71.3265L146.48 71.3268L146.73 71.3265L146.752 76.21L147.019 84.2514L147.019 84.2533L147.177 90.2908L147.177 90.2996L146.927 90.298L147.176 90.2997L147.112 97.3754L148.509 98.0208L148.512 98.0226C148.626 98.0773 148.694 98.172 148.734 98.2622C148.773 98.351 148.79 98.4493 148.797 98.5427C148.811 98.7302 148.785 98.9497 148.74 99.1575C148.694 99.3676 148.626 99.5817 148.547 99.7632C148.473 99.9333 148.374 100.114 148.248 100.218L147.632 100.728L147.679 100.559C147.328 100.752 146.911 100.931 146.484 101.071C145.786 101.299 145.013 101.437 144.404 101.341L144.308 101.326L144.247 101.249C142.901 99.5364 142.691 97.3462 142.49 95.3826L141.928 89.7908L141.926 89.7811L141.457 82.2501L141.309 79.1833L140.916 75.709L140.914 75.6963L140.253 65.0126L139.833 59.067L139.832 59.0563L139.709 54.5736L139.213 50.6095L139.212 50.5959L139.211 50.5822L139.098 44.0742L139.098 44.0733L138.974 35.1245L138.973 35.1119L138.974 35.1118L139.181 29.4429L139.181 29.442C139.218 28.5309 139.717 27.6665 140.346 27.011C140.973 26.3572 141.767 25.8701 142.451 25.7482L142.853 25.6916C144.834 25.4864 146.388 26.4404 147.609 27.9185C148.903 29.4867 149.846 31.6697 150.57 33.7701L151.626 36.843L153.569 41.7835L153.568 41.7836L155.284 46.0908L155.287 46.0994L155.291 46.109L160.328 62.3337L162.791 69.9418L162.791 69.9427L164.341 74.7556L165.871 78.8654L168.806 86.1203L171.283 91.479L174.66 97.3507L174.64 89.2446L174.64 89.2377L174.843 81.6195C174.399 80.1505 174.274 78.6043 174.388 77.0532L174.285 72.1843L174.036 68.966L174.036 68.9533L173.763 58.0221L173.763 58.0182L173.702 51.2144L173.63 45.56L173.63 45.5531L173.631 45.5453L173.828 41.0648L173.828 41.0638L174.084 35.8795L173.785 28.8369L173.784 28.8222L173.785 28.8075L174.223 23.0141L173.64 19.9253L172.303 19.0922C172.089 18.9599 171.961 18.7692 171.903 18.5414C171.849 18.3237 171.86 18.0795 171.902 17.8278C171.987 17.3293 172.214 16.7002 172.447 16.0045C172.921 14.5887 173.461 12.7911 173.182 10.7649C172.786 7.87619 173.067 5.02484 174.233 2.39796C175.175 0.263166 178.197 -0.566188 180.056 1.24534L180.057 1.2453C182.658 3.79074 183.045 7.89595 182.933 11.3579L183.363 18.0696L183.365 18.0871L183.363 18.1048L183.051 22.1049L183.488 28.4184C183.665 30.9834 183.207 33.4627 182.877 35.9487L183.126 40.0234L183.127 40.0371L183.179 49.4302L183.178 49.4332L183.128 57.2298L183.311 66.5707L183.422 71.3687L183.789 76.2337C183.912 77.674 183.887 79.1006 183.648 80.5012L184.202 85.9125L184.347 88.909Z" fill="black" stroke="black" stroke-width="0.5"/>
<path d="M83.8007 7.03627C85.2201 6.3543 86.9204 5.95599 88.413 6.11309C89.9151 6.27128 91.234 6.99998 91.7927 8.58517L91.8795 8.86452C92.2486 10.2568 91.6841 11.5611 90.7146 12.7131C89.6817 13.9405 88.1542 15.0405 86.6655 15.9693L82.2604 18.7177L82.2547 18.7209L77.956 21.2441L73.9448 23.8669L73.9353 23.8732L73.9343 23.8723L71.7981 25.1328L71.7991 25.1337L68.3142 27.3166L68.3028 27.324L62.244 30.6721L62.243 30.6712L59.2194 32.4868C59.3053 32.7903 59.4566 33.1236 59.6424 33.4734C59.8641 33.8908 60.1163 34.3021 60.3481 34.7085L60.3491 34.7084L62.5769 38.5784L62.5812 38.586L65.4589 44.0124L65.4644 44.0248L67.4595 48.3196L67.466 48.332L67.4695 48.3445L70.2368 56.4727L70.2402 56.4823L70.2427 56.493L71.4701 61.4523L71.4714 61.4591L71.4727 61.4669L73.134 70.4618L73.1365 70.4744L73.1372 70.4871L73.4478 74.1551L74.3317 81.4433L74.3607 81.7196C74.42 82.385 74.4177 83.1924 74.3948 83.991C74.3817 84.4492 74.3613 84.9083 74.3425 85.3399C74.3236 85.7723 74.3056 86.1764 74.296 86.528L74.1477 92.0337C74.1216 93.054 73.8836 94.5287 73.5366 95.9906C73.1894 97.4529 72.7274 98.9259 72.2436 99.9392L72.2437 99.9402C72.0434 100.358 71.8568 100.793 71.6687 101.237C71.4812 101.679 71.2915 102.132 71.0898 102.574C70.6867 103.458 70.2245 104.322 69.5937 105.046L69.5938 105.047L67.6711 107.249C65.7025 109.488 62.5307 111.019 59.5394 111.689L59.5404 111.69C54.6188 112.806 49.4077 111.975 44.8866 109.657L44.8705 109.648L44.8553 109.638L41.51 107.251L41.5029 107.245L41.4958 107.239L38.5208 104.767L38.5117 104.759L38.5034 104.751L36.5682 102.815C35.066 101.309 34.1424 99.8322 33.3214 98.4332C32.4981 97.0303 31.7874 95.724 30.7007 94.5059L30.6677 94.4694L30.6517 94.4223L29.9619 92.4835C27.3415 87.6732 26.2462 81.9137 28.3856 76.7491C29.7159 73.5382 31.8642 71.4563 35.3588 70.5226L35.3598 70.5226C36.3228 70.2676 37.4962 70.0203 38.6559 69.9815C39.812 69.9428 40.9831 70.1102 41.9186 70.714C44.2499 72.2057 45.0539 74.9216 44.2161 77.2693L44.2162 77.2703C43.9653 77.963 43.3437 78.5528 42.6946 78.8893C42.3674 79.0589 42.0187 79.1723 41.6888 79.1978C41.3592 79.2232 41.0285 79.1614 40.767 78.9577L40.766 78.9578C40.4065 78.6762 40.1304 78.1669 39.9082 77.6508C39.722 77.2184 39.5583 76.7427 39.4132 76.3255C38.4882 76.8047 37.8741 77.8157 37.5441 79.0719C37.2327 80.2577 37.1865 81.6214 37.3545 82.8481L37.439 83.3641C38.0851 86.7423 39.0374 90.1604 41.2582 92.8281L41.282 92.8152L41.4156 92.971L42.7873 94.5729L42.7904 94.5767L45.1784 97.469L48.6447 100.805L51.4067 102.43L51.6279 102.555C53.9092 103.799 56.0189 103.486 58.4755 102.777C60.89 102.081 62.3111 100.503 63.2835 98.4672C64.2632 96.416 64.776 93.9266 65.3805 91.4197L65.3804 91.4187C65.6758 90.2071 66.0336 89.0993 66.0127 87.8607L65.9499 84.0605L65.9505 84.0537L65.9892 79.3364L65.6858 75.5341L65.6858 75.5331L65.3191 71.5129L64.4148 62.6858L63.3657 58.0366L63.3656 58.0356L61.9093 52.1399L59.9399 46.0019L58.151 41.5643L58.151 41.5633L55.2595 34.937L53.1378 36.012C51.4742 36.8571 50.0765 37.5015 48.5808 38.6513L48.5601 38.6669L48.5381 38.6778L46.2696 39.7882L42.8299 41.6316C41.298 42.4511 39.8611 43.3348 38.3772 44.1838C36.9068 45.025 35.402 45.8236 33.7568 46.4615C31.3039 48.1501 28.6939 49.4398 25.8156 50.1867C22.8892 52.3517 19.6534 54.1243 15.9194 53.841L15.9193 53.84C15.3834 53.8016 14.8107 53.4353 14.3827 53.0135C14.1639 52.7979 13.9711 52.5564 13.8288 52.3138C13.6885 52.0745 13.5869 51.816 13.575 51.5703C13.5454 50.9555 13.802 50.421 14.1805 49.9738C14.5575 49.5287 15.0672 49.1552 15.5783 48.8506L22.3959 44.6926L29.2248 40.2827L32.3077 38.1759L32.321 38.1674L38.4688 34.5158L41.4454 32.374L41.4567 32.3657L41.592 32.5762L41.4577 32.3656L45.614 29.7094L50.098 26.7334L50.1084 26.7261L55.5319 23.5024L57.6182 22.2414L62.9787 18.8888L65.4226 17.3182L65.4254 17.3161L65.4264 17.316L68.238 15.5655L68.2493 15.5581L68.2618 15.5526L72.5956 13.4764C72.8728 13.2235 73.244 12.84 73.6538 12.4468C74.058 12.0589 74.5019 11.6628 74.8642 11.4743L74.8671 11.4732L80.391 8.67097L80.3958 8.66878L83.8007 7.03627Z" fill="black" stroke="black" stroke-width="0.5"/>
<path d="M97.9528 54.4764C101.264 54.1113 104.083 55.5203 106.669 57.1187L107.183 57.44C109.755 59.0734 111.19 61.2509 112.564 63.9025C112.641 64.027 112.741 64.1792 112.855 64.3518C112.97 64.5248 113.096 64.7164 113.218 64.9112C113.457 65.2936 113.699 65.7168 113.798 66.0643L113.797 66.0644L114.903 69.8945L114.906 69.9061L114.909 69.9187L115.958 75.6199L115.96 75.6335L115.961 75.6471L116.161 78.4142L116.163 78.4385L116.159 78.4631L115.688 82.1942C115.954 87.2581 115.139 91.9779 112.073 96.1705C111.655 98.7043 110.066 100.338 108.285 101.923L108.212 101.987C106.194 104.774 103.098 106.311 99.8285 106.769C96.7163 107.205 93.4309 106.667 90.7349 105.287L90.2039 105L87.1975 103.275C84.5056 101.728 82.6515 99.2218 81.0814 96.6466C80.443 95.6053 79.5978 94.3894 79.235 93.164L79.2339 93.1621L76.8744 84.894L76.8651 84.8631L76.8645 84.8309L76.6847 76.9388L76.6837 76.9164L76.6875 76.8937L77.3114 72.9402L77.3129 72.9293L77.3153 72.9185L78.086 69.7987L78.1947 69.3965C78.7782 67.4169 79.9293 65.8859 81.1402 64.3163C82.7348 62.2326 84.7075 60.8744 86.7652 59.2908L87.1607 58.9755C87.5552 58.653 87.946 58.3114 88.3459 57.9661C88.8766 57.5079 89.422 57.0436 89.997 56.6205C91.1484 55.773 92.4357 55.0798 94.0227 54.9062L97.9528 54.4764ZM96.6882 62.4429C96.3203 62.4412 95.932 62.5208 95.3691 62.7235C94.8267 62.9195 94.1253 63.1047 93.4776 63.4003C92.8537 63.6851 92.3845 64.031 92.2205 64.4816C92.5071 66.0802 93.4992 66.7681 94.4467 67.3416C94.9159 67.6257 95.4105 67.9011 95.7517 68.2506C95.9277 68.431 96.0722 68.6386 96.1568 68.8881C96.2416 69.1382 96.2615 69.4159 96.211 69.7292L96.2111 69.7302C96.1765 69.9406 96.0417 70.148 95.8896 70.3225C95.7318 70.5036 95.5293 70.6792 95.3155 70.8263C95.1022 70.9731 94.8677 71.0983 94.6439 71.1715C94.4303 71.2414 94.1783 71.2796 93.963 71.1848L93.9611 71.1839L89.5123 69.1691C88.8752 68.8806 88.3381 68.2693 87.8564 67.6131C87.6127 67.2812 87.3754 66.9262 87.1429 66.5818C86.9779 66.3375 86.8127 66.0994 86.6492 65.8723C84.8727 68.4555 83.8616 71.2732 83.7002 74.23L83.544 77.3593L83.544 77.3602C83.4412 79.2877 83.6718 81.0405 83.9981 82.9102L84.1427 83.7197L84.1428 83.7216C84.9988 88.5966 87.1146 92.8011 90.9829 96.0249L91.1835 96.1912L91.1723 96.2025C92.5303 97.3152 94.0457 98.3181 95.8183 98.7388C99.069 99.5094 101.603 97.3074 103.301 94.6308C104.148 93.2978 105.03 92.1537 105.396 90.6523L106.444 86.3704L107.374 82.0198C107.434 78.6634 106.902 75.5552 106.299 72.1734L106.299 72.1715C106.212 71.6622 105.965 71.0223 105.676 70.3683C105.532 70.0438 105.38 69.7213 105.236 69.4148C105.093 69.1107 104.957 68.8206 104.847 68.5653L104.715 68.2793C103.325 65.3652 101.025 63.6199 97.9593 62.6887L97.9593 62.6897C97.4282 62.5298 97.0589 62.4448 96.6882 62.4429Z" fill="black" stroke="black" stroke-width="0.5"/>
<path d="M124.815 59.3115C125.309 59.2056 125.773 59.3882 126.172 59.6988C126.571 60.0092 126.932 60.4655 127.24 60.9672C127.854 61.9694 128.296 63.2185 128.413 64.0452L131.896 87.8476L131.897 87.8563L132.698 95.0615L133.113 98.4321L133.115 98.4408L133.45 102.27L133.463 102.257L133.513 102.825C133.635 104.221 133.331 105.484 132.61 106.42C131.887 107.359 130.764 107.943 129.308 108.013C128.066 108.073 126.892 107.418 126.098 106.435C125.315 105.466 124.882 104.152 125.117 102.819C124.528 100.966 124.323 99.1812 124.456 97.2917L123.879 92.4672L123.878 92.4536L123.567 87.6768L123.287 81.8603L123.009 68.3268L123.009 68.3199L123.066 61.2035L123.066 61.2005C123.07 60.9868 123.161 60.7704 123.277 60.5793C123.395 60.3838 123.553 60.1905 123.724 60.0181C123.895 59.8454 124.085 59.6883 124.268 59.5656C124.447 59.446 124.64 59.3463 124.815 59.3105L124.815 59.3115Z" fill="black" stroke="black" stroke-width="0.5"/>
<path d="M120.681 22.0709C121.123 21.9468 121.647 21.9821 122.124 22.151C122.605 22.3209 123.064 22.6347 123.363 23.0934L123.482 23.2989L123.482 23.3009L126.116 28.6715L126.243 28.9373C126.543 29.5971 126.863 30.5193 126.849 31.276C126.843 31.7072 126.581 32.1166 126.223 32.4892C125.884 32.8422 125.423 33.1955 124.904 33.547L124.989 35.2999C125.001 35.5521 124.899 35.9031 124.761 36.1918C124.689 36.3406 124.601 36.4873 124.499 36.6072C124.401 36.7224 124.27 36.8378 124.106 36.8813C123.938 36.9256 123.759 36.8848 123.612 36.8298C123.458 36.7718 123.301 36.6823 123.157 36.5809C123.012 36.479 122.873 36.3598 122.76 36.2373C122.65 36.1185 122.547 35.9808 122.496 35.8403L119.758 28.3247C119.343 27.1856 118.832 25.9363 118.764 24.8441C118.729 24.289 118.807 23.7516 119.081 23.2772C119.357 22.8009 119.816 22.4141 120.496 22.1336L120.681 22.0709Z" fill="black" stroke="black" stroke-width="0.5"/>
<path d="M146.75 314.874C146.75 311.674 147.412 310.394 148.073 305.274H150.058C150.719 307.408 152.174 312.314 152.704 314.874C153.365 318.074 146.75 318.074 146.75 314.874Z" fill="black"/>
<path d="M147.697 262.794C148.401 256.961 147.79 245.809 145.485 240.164L150.482 240.339C150.006 244.422 149.023 253.468 148.901 256.978C148.747 261.366 151.184 277.56 151.082 280.485C150.979 283.411 147.002 282.686 147.115 279.468C147.227 276.25 146.993 268.627 147.697 262.794Z" fill="black" stroke="black"/>
<ellipse cx="151.25" cy="345.274" rx="21.5" ry="4" fill="black"/>
</svg>
