<?xml version="1.0" encoding="UTF-8"?><svg id="Layer_1" xmlns="http://www.w3.org/2000/svg" viewBox="0 0 147.84 59.88"><path d="M23.2,58.58c-.29,0-.57-.1-.79-.27-.08.02-.17.04-.23.06-.29.07-.59.15-.9.15h-.32c-2.16,0-4.59-.29-6.74-.55-.59-.07-1.15-.14-1.69-.2-.54-.06-1.14-.1-1.77-.14-1.47-.09-3.14-.2-4.45-.59-1.51-.45-2.36-1.86-2.15-3.58.04-.31.18-.58.4-.79-.03-.19-.05-.36-.07-.53-.02-.16-.04-.32-.07-.49-.01-.07-.02-.15-.02-.22l-.07-4.31c-.13-.11-.24-.24-.32-.39-.03-.02-.06-.04-.1-.06-.31-.19-.74-.44-1-.94-.47-.9-.69-3.11-.68-3.82.01-.69.05-1.39.1-2.09.07-1.11.14-2.26.06-3.37-.07-.99-.28-2.01-.5-3.09-.46-2.24-.95-4.56-.2-6.97.15-.49.57-.84,1.08-.9l.37-.05-.56-13.97c0-.16.02-.31.06-.46.27-.83,1.13-1.33,2.28-1.33.09,0,.25,0,.44.02.34-.59.97-.92,1.74-.92.58,0,1.11.18,1.38.29.37.15.65.46.77.85l.16.56c.74-.02,1.48-.04,2.22-.07,1.3-.04,2.6-.09,3.9-.09,1.17,0,2.31.02,3.44.04,1.11.02,2.22.04,3.32.04,2.18,0,3.88-.08,5.51-.25,1.23-.13,2.51-.35,3.76-.57,1.66-.29,3.39-.59,5.09-.69.74-.04,1.49-.06,2.23-.06.52,0,1.04,0,1.55.01.51,0,1.01.01,1.52.01.57,0,1.15,0,1.72-.03,2.5-.11,4.99-.24,7.48-.37,4.43-.23,9-.48,13.54-.59,7.64-.19,17.7-.48,27.81-1.04.59-.03,1.12-.07,1.59-.1-.17-.24-.24-.54-.2-.92.15-1.34,1.14-1.6,7.04-1.88,2.73-.13,5.56-.44,8.55-.76,3.94-.43,8.02-.87,11.86-.87.93,0,1.83.03,2.67.08.99.06,1.92.29,2.81.52.8.2,1.55.39,2.29.44.2.01.42.02.65.02,2.08,0,5.13-.53,7.36-.92l1.08-.19c.16-.03.32-.04.48-.04.12,0,.25,0,.37.01,0,0,.02,0,.03,0,.35-.33.98-.92,1.9-.92.39,0,.78.11,1.14.32.85.49,1.02,1.58,1.17,2.64.12.07.25.15.37.27.53.53.55,1.32.57,2.33,0,.21,0,.39.02.5l.19,1.36c.68,4.81,1.33,9.35,1.42,14.37.03,1.5.08,3.03.13,4.58.08,2.22.16,4.51.16,6.77,0,1.01-.03,2.02-.06,3.05-.06,1.99-.13,4.05.08,6h0s.04.06.06.12c.18.41.53,1.23.08,2.18.05.47-.03.95-.24,1.44-.86,2.04-2.49,2.04-3.03,2.04-.21,0-.44-.01-.67-.03-.19-.01-.39-.02-.6-.02-.1,0-.19,0-.29.01-.83.07-1.53.25-2.17.49.12.19.19.42.19.66,0,.7-.55,1.29-1.25,1.31-.02,0-1.3-.01-2.78-.03-.63.28-1.21.47-1.82.6-.14.03-.29.04-.44.04-.19,0-.41-.03-.63-.06-.12-.02-.24-.04-.36-.04-.24.02-.62.13-.96.22-.58.16-1.18.33-1.73.35h0c-.41,0-.7-.11-.91-.19-.06-.02-.11-.05-.18-.06-.32.05-.7.09-1.06.14-1.01.13-1.97.25-3.1.25-.3,0-.61,0-.94-.03h-.02c-.24,0-.41.03-.56.06-.27.05-.51.08-.73.08-.2,0-.38-.03-.54-.07-.35.11-.71.16-1.1.16-.3,0-.59-.03-.88-.07-.18-.02-.37-.05-.55-.05s-.3.03-.43.11c-.21.13-.44.19-.68.19-.12,0-.23-.02-.35-.05-.18-.05-.34-.14-.48-.25-1.33.17-2.44.34-3.45.54-.56.11-1.06.12-1.5.12-.36,0-.69.01-1.06.07-1.78.27-3.59.43-5.34.58-2.19.19-4.45.39-6.58.8-.31.06-.62.09-.96.09-.3,0-.58-.02-.86-.05-.2-.02-.39-.04-.59-.04-.06,0-.11,0-.17,0-.42.03-.8.11-1.21.19-.5.1-1.06.21-1.75.26-1.9.12-4.02.36-6.08.59l-1.3.15c-2.96.33-5.28.48-7.3.48h-.19c-1.07,0-2.14-.02-3.2-.03-1.32-.02-2.64-.04-3.95-.04-2.21,0-5.12.04-8.12.38-.05,0-.1,0-.15,0-.29,0-.58-.1-.8-.28-1.08.06-2.18.12-3.28.17-1.94.09-3.95.19-5.89.35-1.46.12-2.88.3-4.26.47-2.31.29-4.69.59-7.2.61h-1.28c-1.66,0-3.33-.02-5-.04-1.67-.02-3.33-.04-5-.04-2.85,0-5.17.06-7.29.2-.03,0-.06,0-.08,0ZM23.85,52.94c2.15,0,4.3.03,6.44.06,2.11.03,4.22.06,6.33.06,1.03,0,2.06,0,3.09-.03,2.65-.05,5.19-.39,7.88-.75,1.7-.23,3.47-.46,5.25-.61,4.99-.42,10.07-.52,14.98-.61,5.08-.1,10.33-.2,15.4-.66,7.6-.7,14.48-1.4,20.84-2.14-.28-.3-.36-.69-.34-.94.07-1.55.07-1.62,26.15-1.94,1.59-.12,3.02-.19,4.37-.22.45-.17.91-.35,1.4-.55.2-.08.43-.18.68-.27.57-.22,1.21-.47,1.65-.72.06-.05.13-.13.21-.22.27-.28.65-.69,1.22-.94l-.04-5.68c-.36-2.75-.05-6.08.16-8.3.33-3.53.19-7.51.05-11.36-.03-.86-.06-1.7-.09-2.52-.03-.9-.07-1.8-.12-2.7-.07-1.43-.14-2.89-.14-4.36,0,0,0,0,0,0-.48.07-.89.13-1.22.29-.18.09-.38.14-.58.14-.25,0-.49-.07-.7-.21-.16.03-.32.04-.49.04-.18,0-.37-.02-.55-.04-.09,0-.19-.02-.28-.02-.71.07-1.37.17-2.03.27-1.28.19-2.61.39-4.03.39-.36,0-.72-.01-1.09-.04,0,.09,0,.18.01.29.01,1.35-1.23,1.44-3.11,1.57-.91.06-1.83.12-2.75.17-2.39.13-4.85.27-7.05.66-.14.03-.31.04-.5.04-.16,0-.33,0-.51-.02-.13,0-.26-.02-.38-.02-7.43.6-15.26,1.13-24.01,1.61-1.85.1-3.6.15-5.29.19-1.35.03-2.7.07-4.11.13-.13,0-.27,0-.42,0-.4,0-.86-.02-1.31-.04-.41-.02-.81-.04-1.15-.04-.14,0-.28,0-.39.01-4.14.34-8.39.52-12.28.52h-.13c-2.96,0-6.24.14-9.59.4-3.37.26-6.81.35-10.14.43-2.65.07-5.4.13-8.01.29-1.97.12-3.88.36-5.72.59-2.6.32-5.29.66-8.14.66-.24,0-.95,0-.95,0-.56,0-1.07.04-1.61.08-.53.04-1.09.09-1.68.09-.34,0-.69-.01-1.05-.05-2.19-.21-4.41-.25-6.56-.28-.43,0-.85-.01-1.27-.02.22,2.16.34,4.1.35,5.91.03,6.94-.26,11.34-.87,13.08-.15.43-.42.73-.65.93l.59,2.79c.01.06.02.12.03.18.08,1.19.19,2.38.31,3.57.25,2.73.52,5.54.42,8.26.35-.02.77-.03,1.25-.03,2.06,0,5.13.19,6.58.41.02,0,1.94.36,2.43,1.34.06.12.1.24.12.37.03.2.05.4.05.59.12,0,.24.01.36.01.36,0,.71-.03,1.07-.06.41-.03.81-.06,1.2-.07h.52Z" style="fill:#e11c84;"/><path d="M140.98,2.6c.15,0,.32.04.49.14.48.27.52,2.23.7,2.48.07.1.43.08.57.22.24.24.16,1.65.22,2.09.75,5.32,1.51,10.18,1.6,15.58.07,3.65.29,7.53.3,11.33,0,3.02-.3,6.15.03,9.18.05.5.6.99.22,1.68-.01.02-.07.03-.12.03-.03,0-.06,0-.09,0-.02,0-.04,0-.04,0-.04.06.42.47.03,1.38-.45,1.06-1.08,1.24-1.82,1.24-.39,0-.82-.05-1.27-.05-.13,0-.27,0-.4.02-2.65.22-4.15,1.41-5.88,2.28-.84-.02-1.69-.03-2.54-.03-1.2,0-2.39.03-3.57.13-10.65-.09-27.36-.22-29.18-.22-.12,0-.18,0-.16,0,.3.02.22.34.3.34,0,0,0,0,.01,0,.13-.04.27-.26.46-.26,0,0,0,0,.01,0,.16,0,1.19.44,1.59.49,1.03.13,2.2.1,3.02.25.38.07.58.1.7.1.23,0,.22-.08.74-.08h0c.35,0,.79.31,1.18.36,1.82.24,3.64.14,5.36.41.19.03.4.04.62.04.77,0,1.74-.13,2.6-.13.27,0,.54.01.78.05-1.38.17-2.75.36-4.09.62-.87.17-1.56.04-2.51.19-3.98.6-8.06.64-11.97,1.39-.25.05-.49.07-.71.07-.51,0-.97-.08-1.45-.08-.09,0-.18,0-.27.01-1.05.08-1.79.38-2.93.45-2.35.14-5.04.48-7.44.74-2.37.26-4.87.47-7.16.47-.06,0-.12,0-.18,0-2.41-.01-4.79-.07-7.16-.07-2.75,0-5.49.08-8.27.39l-.17-.32c-3.24.21-6.61.29-9.91.56-3.94.33-7.46,1.05-11.36,1.08-.42,0-.85,0-1.27,0-3.32,0-6.67-.08-10.01-.08-2.46,0-4.92.05-7.36.2-.06-.24-.26-.32-.52-.32-.46,0-1.09.25-1.43.26-.1,0-.2,0-.3,0-2.67,0-5.8-.47-8.29-.74-1.78-.2-4.29-.17-5.99-.68-1-.3-1.34-1.23-1.23-2.18l.79-.17c-.48-.64-.4-1.3-.55-2.04l-.09-5.43-.45.14c-.08-.45-.9-.61-1.09-.99-.3-.58-.54-2.49-.53-3.2.03-1.81.29-3.67.16-5.57-.22-3.17-1.74-6.42-.76-9.59l1.55-.2-.61-15.16c.1-.31.55-.44,1.04-.44s1.01.13,1.25.33c.35-.21.15-.67.32-.95.12-.21.35-.28.61-.28.32,0,.68.11.9.2l.39,1.36.32.16c2.28-.03,4.54-.17,6.82-.17h.02c2.3,0,4.52.08,6.76.08,1.87,0,3.73-.05,5.65-.25,2.9-.3,5.89-1.09,8.78-1.25.71-.04,1.43-.05,2.16-.05,1.03,0,2.06.02,3.08.02.59,0,1.18,0,1.77-.03,7.01-.31,13.96-.79,20.99-.96,9.31-.23,18.57-.52,27.85-1.04,15.95-.89-7.43-2.15,8.42-2.9,6.5-.31,13.77-1.63,20.35-1.63.88,0,1.74.02,2.59.08,1.73.11,3.36.84,5.09.96.23.02.48.02.74.02,2.55,0,6.31-.73,8.66-1.12.09-.01.18-.02.27-.02.19,0,.39.02.57.02.09,0,.17,0,.26-.02.34-.06.78-.9,1.47-.9M140.55,5.89c-1.04.45-2.14.28-3.14.77l-.44-.45c-.22.23-.48.29-.75.29s-.56-.06-.83-.06c-.06,0-.11,0-.16,0-2.02.22-3.87.66-5.9.66-.34,0-.69-.01-1.04-.04-1.32-.11-2.59-.6-3.74-.68-.59-.04-1.18-.05-1.78-.05-1.6,0-3.22.1-4.75.1-.26,0-.51,0-.76,0,0,0,0,0,0,0-.17,0-2.42.57-2.97.63-9.43.98,20.27,1.2,10.78,1.88-3.33.24-6.81.29-9.94.85-.08.01-.17.02-.27.02-.27,0-.61-.03-.89-.03-.06,0-.12,0-.18,0-8.05.65-15.95,1.17-23.9,1.61-3.27.18-6.17.17-9.38.31-.11,0-.24,0-.37,0-.76,0-1.73-.07-2.46-.07-.18,0-.35,0-.5.02-3.99.32-8.21.51-12.18.51-.04,0-.08,0-.12,0-.03,0-.06,0-.09,0-3.23,0-6.6.17-9.6.4-6.04.47-12.25.37-18.13.72-4.82.29-9.02,1.24-13.78,1.24-.23,0-.47,0-.7,0-.08,0-.16,0-.24,0-1.2,0-2.18.17-3.29.17-.3,0-.6-.01-.93-.04-2.85-.28-5.74-.25-8.43-.31-.28,0-.53-.09-.79-.17l-.18.32c.28,2.34.47,4.71.48,7.07.01,2.71,0,10.35-.8,12.64-.18.51-.82.61-.83,1l.73,3.42c.29,4.22.95,8.51.67,12.52-.02.3.17.57.16.87.32-.26.47-.29.86-.33.4-.04.95-.06,1.57-.06,2.08,0,5.04.19,6.39.4.28.04,1.35.42,1.45.63.09.58-.01,1.07-.25,1.59.1-.01.2-.02.3-.02.4,0,.79.09,1.19.12.15.01.3.02.45.02.77,0,1.53-.12,2.27-.12.17,0,.35,0,.52,0,4.28,0,8.53.13,12.76.13,1.04,0,2.08,0,3.11-.03,4.48-.08,8.75-.98,13.21-1.36,10.11-.86,20.37-.36,30.39-1.28,8.98-.82,18.06-1.76,26.89-2.87,1.87-.24,3.76-.48,5.66-.72,1.3.04,2.6.06,3.89.06,2.03,0,4.04-.05,6.04-.14,3.33-.16,5.49-.46,8.14-1.38.18,0,.35,0,.51,0,1.25,0,2.12.01,2.46.04l.04.07c.18-.03.16-.05-.04-.07l-.12-.23c-.4,0-.8-.01-1.2-.01-.37,0-.74,0-1.11.01.52-.19,1.07-.41,1.65-.65.69-.29,1.74-.65,2.47-1.06.54-.3.9-1.19,1.81-1.19.09,0,.19,0,.3.03l-.04-6.89c-.35-2.55-.06-5.76.15-8.09.41-4.42.1-9.58-.03-14.04-.09-2.89-.34-5.77-.23-8.67M9.26,53.29l-.16-.95s-.09-.01-.12-.01c-.43,0,.07.66-.2.97h.48M134.48,46.45c-.18.07-.36.13-.53.19-1.13,0-2.5.02-4.03.03,1.52-.11,3.04-.2,4.56-.22M129.92,46.68c-2.76.21-5.5.51-8.26.78-1.9.18-3.84.41-5.77.65-3.59-.1-7.19-.34-10.74-.7-1.72-.18,14.84-.6,24.78-.73M135.51,50.22c.55.01,1.11.03,1.65.04.35,0,.87.12,1.03.13-.19,0-1.28-.01-2.98-.03.1-.05.2-.09.29-.14M129.4,50.31c2.29.02,4.29.04,5.81.05-.56.26-1.15.49-1.82.63-.05.01-.11.02-.17.02-.28,0-.64-.1-.99-.1-.06,0-.12,0-.18,0-.69.08-1.84.54-2.56.57,0,0,0,0-.01,0-.25,0-.58-.25-.98-.25-.03,0-.07,0-.1,0-1.57.17-2.67.38-4.11.38-.27,0-.56,0-.86-.02-.04,0-.09,0-.13,0-.49,0-.92.15-1.25.15-.19,0-.36-.05-.49-.2-.41.23-.79.29-1.15.29-.49,0-.96-.11-1.43-.11-.36,0-.72.07-1.1.3l-.16-.31c-.09-.02-.18-.04-.27-.05,2.5-.3,5.02-.52,7.46-.89l.14.31c1.41-.4,2.87-.63,4.36-.75M138.19,50.39s.03,0,.03,0c0,0,0,0,0,0,0,0-.01,0-.02,0M140.98,0h0c-1.07,0-1.87.49-2.38.9-.22,0-.42.02-.62.06-.34.06-.7.12-1.09.19-2.18.38-5.17.9-7.14.9-.2,0-.39,0-.56-.02-.63-.04-1.33-.22-2.07-.41-.91-.23-1.93-.49-3.04-.55-.87-.05-1.79-.08-2.75-.08-3.91,0-8.03.45-12,.88-2.97.32-5.77.63-8.47.76-5.21.25-7.88.38-8.26,2.89-.06,0-.12,0-.18.01-10.09.56-20.14.85-27.77,1.04-4.56.11-9.15.36-13.6.59-2.48.13-4.96.26-7.45.37-.49.02-1.01.03-1.65.03-.5,0-1,0-1.51-.01-.52,0-1.05-.01-1.57-.01-.89,0-1.62.02-2.31.06-1.78.1-3.53.41-5.23.71-1.28.22-2.49.43-3.67.56-1.59.17-3.25.24-5.38.24-1.1,0-2.19-.02-3.3-.04-1.14-.02-2.29-.04-3.46-.04-1.35,0-2.67.04-3.96.09-.42.01-.83.03-1.25.04-.28-.58-.77-1.04-1.38-1.29-.36-.14-1.07-.38-1.87-.38-.91,0-1.74.33-2.34.9-1.95.06-3.01,1.18-3.35,2.23-.1.3-.14.61-.13.92l.52,12.91c-.64.31-1.13.87-1.35,1.57-.85,2.73-.31,5.33.17,7.62.21,1.03.42,2.01.48,2.92.07,1.03,0,2.08-.07,3.2-.04.7-.09,1.42-.1,2.16,0,.61.17,3.17.82,4.44.36.69.89,1.09,1.27,1.33l.06,3.8c0,.15.02.3.05.44.03.14.04.27.05.4,0,0,0,.02,0,.03-.17.3-.28.63-.33.98-.29,2.35.94,4.35,3.06,4.99,1.46.44,3.2.55,4.74.64.63.04,1.22.08,1.71.13.54.06,1.1.13,1.69.2,2.18.26,4.65.56,6.88.56h.34c.34,0,.65-.06.93-.13.3.12.63.19.97.19.06,0,.11,0,.17,0,2.09-.14,4.37-.2,7.19-.2,1.66,0,3.33.02,4.99.04,1.68.02,3.35.04,5.02.04.43,0,.86,0,1.29,0,2.58-.02,5-.32,7.35-.62,1.37-.17,2.78-.35,4.21-.47,1.93-.16,3.93-.26,5.86-.35.96-.05,1.92-.09,2.87-.15.35.17.73.26,1.12.26.1,0,.2,0,.29-.02,2.94-.33,5.81-.38,7.98-.38,1.31,0,2.62.02,3.93.04,1.07.01,2.14.03,3.21.03h.2c2.07,0,4.44-.16,7.45-.49l1.3-.15c2.04-.23,4.14-.47,6.01-.58.78-.05,1.39-.17,1.93-.28.38-.08.71-.14,1.05-.17.02,0,.05,0,.07,0,.16,0,.32.02.48.03.27.02.6.05.98.05.42,0,.82-.04,1.21-.11,2.07-.4,4.19-.59,6.45-.79,1.77-.16,3.6-.32,5.42-.59.28-.04.55-.05.89-.05.47,0,1.05-.02,1.72-.15.86-.17,1.81-.32,2.92-.46.14.06.28.12.42.16.23.06.46.09.69.09.41,0,.83-.1,1.2-.29.09,0,.19.02.3.03.28.03.63.08,1.04.08s.78-.04,1.15-.13c.16.02.33.04.5.04.38,0,.7-.06.96-.1.1-.02.24-.04.29-.04.34.02.67.03.99.03,1.22,0,2.21-.13,3.26-.26.25-.03.5-.06.77-.09.27.1.67.22,1.16.22.03,0,.08,0,.11,0,.71-.03,1.41-.22,2.04-.4.2-.06.49-.14.65-.17.03,0,.08.01.12.02.21.03.5.08.83.08.25,0,.49-.02.72-.07.6-.13,1.2-.32,1.81-.57,1.29.01,2.13.02,2.36.02.04,0,.07,0,.1,0,.03,0,.06,0,.09,0,1.32-.04,2.39-1.06,2.51-2.35.25-.05.51-.09.8-.11.06,0,.12,0,.18,0,.18,0,.35.01.52.02.26.02.51.03.75.03,2.51,0,3.68-1.54,4.22-2.84.19-.46.36-1.05.36-1.72.47-1.32,0-2.45-.18-2.89-.17-1.78-.12-3.63-.05-5.59.03-1.01.07-2.06.06-3.09,0-2.28-.09-4.58-.16-6.81-.06-1.58-.11-3.08-.13-4.56-.09-5.09-.74-9.66-1.43-14.51l-.19-1.35c0-.1,0-.24-.01-.38-.02-1.14-.05-2.32-.96-3.23-.03-.03-.05-.05-.08-.08-.18-1.09-.53-2.35-1.73-3.04-.56-.32-1.17-.49-1.79-.49h0ZM129.37,9.71c1.5,0,2.86-.21,4.17-.41.64-.1,1.25-.19,1.87-.26.03,0,.07,0,.12.01.18.02.42.04.69.04.09,0,.18,0,.27,0,.3.11.61.17.93.17.18,0,.36-.02.53-.06.03.93.07,1.84.12,2.74.04.89.09,1.79.11,2.68.02.82.06,1.66.09,2.52.14,3.81.28,7.76-.04,11.21-.21,2.25-.53,5.63-.17,8.51l.03,4.85c-.39.29-.68.59-.86.78-.02.02-.03.04-.05.05-.37.19-.9.39-1.34.56-.26.1-.5.19-.71.28-.41.17-.78.32-1.14.46-1.29.03-2.66.1-4.18.21-4.58.06-10.83.19-15.95.32-2.63.07-4.84.14-6.38.21-.83.03-1.49.07-1.95.1-2.39.16-3.02,1.39-3.11,2.44-5.93.68-12.32,1.33-19.32,1.97-5.03.46-10.25.56-15.31.66-4.93.09-10.04.19-15.07.62-1.81.15-3.59.39-5.32.62-2.65.35-5.15.69-7.72.73-1.02.02-2.04.03-3.07.03-2.09,0-4.23-.03-6.31-.06-2.11-.03-4.29-.06-6.46-.06h-.53c-.46,0-.89.04-1.3.07-.07,0-.15.01-.22.02-.03-.07-.06-.15-.1-.22-.81-1.64-3.29-2.04-3.4-2.05-1.51-.23-4.55-.42-6.7-.42,0-2.35-.23-4.73-.44-7.05-.11-1.16-.22-2.37-.3-3.53,0-.12-.03-.24-.05-.36l-.46-2.15c.18-.24.34-.53.46-.88.25-.7.99-2.83.95-13.51,0-1.43-.08-2.95-.22-4.58,2.07.03,4.2.07,6.27.27.39.04.77.06,1.18.06.65,0,1.23-.05,1.79-.09.51-.04.99-.08,1.5-.08h.19c.25,0,.51,0,.76,0,2.94,0,5.66-.34,8.3-.67,1.82-.23,3.71-.46,5.64-.58,2.59-.16,5.2-.22,7.96-.29,3.35-.08,6.81-.17,10.21-.44,3.32-.26,6.57-.4,9.4-.4h.22c3.93,0,8.21-.18,12.39-.52.08,0,.18,0,.28,0,.33,0,.71.02,1.09.03.47.02.95.04,1.36.04.17,0,.33,0,.48,0,1.4-.06,2.76-.1,4.09-.13,1.7-.04,3.46-.08,5.32-.19,8.77-.49,16.61-1.02,23.97-1.61.07,0,.17,0,.28.02.2.01.4.02.58.02.27,0,.51-.02.73-.06,2.12-.38,4.54-.51,6.89-.64.93-.05,1.86-.1,2.78-.17,1.54-.11,3.55-.25,4.14-1.82h0Z" style="fill:#e11c84;"/><path d="M36.62,55.67c-2.12,0-4.24-.03-6.37-.06-2.13-.03-4.26-.06-6.4-.06h-.52c-.33,0-.66.03-1,.06-.42.03-.85.07-1.28.07-.18,0-.36,0-.55-.02-.19-.01-.38-.04-.57-.07-.17-.02-.35-.05-.52-.05-.04,0-.08,0-.12,0-.06,0-.12.01-.18.01-.41,0-.79-.19-1.04-.52-.28-.38-.34-.88-.14-1.32.05-.1.08-.2.11-.29-.14-.05-.27-.09-.35-.11-1.16-.17-4.06-.38-6.17-.38-.61,0-1.11.02-1.44.05-.05,0-.09,0-.13.01-.24.18-.55.28-.85.28-.2,0-.39-.04-.57-.13-.43-.22-.73-.63-.75-1.11l-.02-.08c-.06-.21-.16-.52-.13-.91.19-2.77-.08-5.66-.36-8.71-.11-1.18-.22-2.36-.3-3.54l-.71-3.34c-.02-.1-.03-.2-.03-.3.02-.83.62-1.28.87-1.47.02-.02.04-.03.07-.05.25-.81.73-3.5.69-12.09,0-2.06-.17-4.33-.48-6.92-.03-.27.02-.55.15-.79l.18-.32c.23-.42.67-.67,1.14-.67.13,0,.26.02.38.06.2.06.36.11.44.11.57.01,1.16.02,1.75.03,2.2.03,4.48.06,6.78.29.28.03.54.04.8.04.51,0,.99-.04,1.47-.08.57-.05,1.15-.09,1.81-.09,0,0,.72,0,.95,0,2.69,0,5.18-.31,7.82-.64,1.88-.23,3.83-.48,5.88-.6,2.66-.16,5.43-.23,8.1-.3,3.3-.08,6.7-.17,10-.42,3.41-.27,6.77-.41,9.7-.41h.22c3.82,0,8-.18,12.07-.51.18-.01.38-.02.6-.02.38,0,.82.02,1.26.04.41.02.83.04,1.2.04.11,0,.21,0,.31,0,1.43-.06,2.8-.1,4.16-.13,1.67-.04,3.4-.08,5.21-.18,7.97-.44,15.17-.92,21.94-1.45-.54-.25-.62-.61-.64-1.16-.04-1.38,1.39-1.53,3.04-1.7.23-.02,1.2-.25,1.73-.37,1.01-.23,1.17-.27,1.38-.27.28,0,.52,0,.77,0,.74,0,1.5-.02,2.28-.05.82-.03,1.65-.05,2.47-.05.63,0,1.26.02,1.87.06.67.05,1.34.2,1.99.35.62.14,1.2.28,1.77.33.32.03.63.04.94.04,1.23,0,2.4-.18,3.65-.36.69-.1,1.4-.21,2.12-.29.1-.01.2-.02.3-.02.18,0,.37.02.55.04.07,0,.14.02.21.02.23-.18.51-.29.81-.29h.01c.28,0,.55.09.77.26.38-.1.75-.15,1.1-.2.46-.07.85-.12,1.19-.27.17-.07.34-.1.51-.1.26,0,.52.08.74.23.37.25.58.68.56,1.12-.08,1.93.02,3.91.11,5.83.04.92.09,1.83.12,2.75.02.82.05,1.65.09,2.51.14,3.93.29,8-.06,11.7-.2,2.12-.5,5.32-.16,7.79,0,.06.01.11.01.17l.04,6.89c0,.39-.17.76-.47,1.01-.24.2-.53.3-.83.3-.08,0-.16,0-.24-.02-.11.02-.29.2-.39.31-.21.23-.48.51-.84.71-.28.16-.59.3-.91.44.05.17.06.31.06.35.02.43-.22,1.21-1.22,1.37-.07.01-.14.02-.21.02-.17,0-.33-.03-.48-.09-.33-.01-.93-.02-2.02-.02h-.29c-2.85.96-5.22,1.24-8.3,1.38-1.99.09-4.04.14-6.1.14-1.27,0-2.54-.02-3.82-.05-1.06.13-5.56.71-5.56.71-8.04,1.01-16.85,1.95-26.93,2.88-5.17.47-10.47.57-15.59.67-4.87.09-9.91.19-14.81.61-1.72.15-3.45.38-5.12.6-2.64.35-5.37.72-8.17.77-1.05.02-2.09.03-3.14.03Z" style="fill:#e11c84;"/><path d="M140.55,5.89c-.11,2.9.14,5.78.23,8.67.13,4.46.45,9.62.03,14.04-.22,2.33-.51,5.53-.15,8.09l.04,6.89c-.11-.02-.2-.03-.3-.03-.91,0-1.27.89-1.81,1.19-.72.4-1.78.77-2.47,1.06-.58.24-1.13.46-1.65.65-1.53.03-3.05.11-4.56.22-9.93.13-26.5.55-24.78.73,3.55.36,7.15.6,10.74.7-1.9.24-3.79.48-5.66.72-8.82,1.11-17.91,2.05-26.89,2.87-10.02.92-20.28.42-30.39,1.28-4.46.38-8.73,1.28-13.21,1.36-1.04.02-2.08.03-3.11.03-4.24,0-8.48-.13-12.76-.13-.17,0-.35,0-.52,0-.74,0-1.5.12-2.27.12-.15,0-.3,0-.45-.02-.39-.03-.79-.12-1.19-.12-.1,0-.2,0-.3.02.24-.52.34-1,.25-1.59-.1-.21-1.18-.59-1.45-.63-1.34-.2-4.3-.4-6.39-.4-.63,0-1.17.02-1.57.06-.4.04-.54.06-.86.33.02-.3-.18-.57-.16-.87.28-4.02-.38-8.3-.67-12.52l-.73-3.42c0-.39.65-.49.83-1,.8-2.28.81-9.93.8-12.64-.01-2.36-.2-4.73-.48-7.07l.18-.32c.26.08.52.17.79.17,2.68.06,5.57.03,8.43.31.32.03.63.04.93.04,1.11,0,2.09-.17,3.29-.17.08,0,.16,0,.24,0,.24,0,.47,0,.7,0,4.77,0,8.97-.95,13.78-1.24,5.88-.36,12.09-.25,18.13-.72,3.01-.23,6.38-.4,9.6-.4.03,0,.06,0,.09,0,.04,0,.08,0,.12,0,3.97,0,8.19-.19,12.18-.51.14-.01.31-.02.5-.02.73,0,1.7.07,2.46.07.13,0,.25,0,.37,0,3.21-.14,6.11-.13,9.38-.31,7.95-.44,15.85-.96,23.9-1.61.06,0,.12,0,.18,0,.28,0,.62.03.89.03.1,0,.2,0,.27-.02,3.12-.56,6.61-.61,9.94-.85,9.49-.68-20.21-.89-10.78-1.88.55-.06,2.8-.63,2.97-.63h0c.25,0,.5,0,.76,0,1.53,0,3.15-.1,4.75-.1.6,0,1.2.01,1.78.05,1.16.08,2.42.57,3.74.68.35.03.7.04,1.04.04,2.03,0,3.88-.44,5.9-.66.05,0,.11,0,.16,0,.27,0,.56.06.83.06s.53-.06.75-.29l.44.45c.99-.49,2.1-.33,3.14-.77M135.6,46.44c.4,0,.8,0,1.2.01l.12.23c-.34-.03-1.21-.04-2.46-.04-.16,0-.33,0-.51,0,.17-.06.35-.12.53-.19.37,0,.74-.01,1.11-.01M133.95,46.64c-2.65.92-4.81,1.23-8.14,1.38-1.99.09-4.01.14-6.04.14-1.29,0-2.59-.02-3.89-.06,1.94-.24,3.87-.47,5.78-.65,2.76-.27,5.5-.57,8.26-.78,1.53-.02,2.91-.03,4.03-.03M136.92,46.69c.2.02.22.04.04.07l-.04-.07M140.55,3.29c-.35,0-.7.07-1.03.21-.18.08-.51.13-.87.18-.23.03-.47.07-.73.12-.3-.12-.63-.18-.96-.18,0,0-.02,0-.03,0-.38,0-.76.09-1.1.25-.14-.01-.29-.02-.46-.02-.15,0-.3,0-.44.02-.76.08-1.48.19-2.17.29-1.19.18-2.32.35-3.45.35-.28,0-.57-.01-.84-.03-.48-.04-1.01-.16-1.58-.3-.7-.16-1.41-.33-2.2-.39-.6-.04-1.24-.06-1.96-.06-.85,0-1.7.03-2.52.05-.78.03-1.52.05-2.23.05-.23,0-.46,0-.69,0-.02,0-.05,0-.07,0-.37,0-.62.06-1.67.3-.47.11-1.36.31-1.6.35-1.57.16-4.23.44-4.18,3-6.22.47-12.83.9-20.07,1.31-1.78.1-3.5.14-5.16.18-1.35.03-2.75.07-4.19.13-.08,0-.16,0-.25,0-.35,0-.74-.02-1.14-.04-.47-.02-.93-.04-1.32-.04-.26,0-.5,0-.71.03-4.04.33-8.18.5-11.97.5h-.12s-.1,0-.1,0c-2.96,0-6.36.14-9.81.41-3.27.26-6.66.34-9.93.42-2.69.07-5.47.14-8.15.3-2.1.13-4.06.37-5.97.61-2.6.32-5.05.63-7.66.63-.22,0-.43,0-.65,0-.1,0-.2,0-.3,0-.72,0-1.35.05-1.92.1-.48.04-.93.08-1.37.08-.24,0-.46-.01-.67-.03-2.35-.23-4.66-.26-6.89-.29-.55,0-1.09-.02-1.63-.03-.04-.01-.09-.03-.13-.04l-.05-.02c-.26-.08-.51-.12-.77-.12-.93,0-1.81.5-2.28,1.34l-.18.32c-.27.48-.37,1.03-.31,1.57.3,2.54.46,4.76.47,6.77.03,7.53-.34,10.35-.54,11.34-.43.38-1.06,1.1-1.08,2.24,0,.2.01.4.06.59l.69,3.25c.08,1.17.19,2.34.3,3.47.28,3,.55,5.84.36,8.51-.04.57.08,1.03.16,1.3.08.88.61,1.66,1.41,2.07.37.19.78.28,1.18.28.46,0,.91-.12,1.32-.36.22-.01.57-.03,1.12-.03,1.58,0,3.63.12,5,.25.04.47.21.93.51,1.32.5.66,1.27,1.04,2.08,1.04.11,0,.21,0,.32-.02.07,0,.22.02.33.04.22.03.43.06.65.07.21.02.43.02.64.02.5,0,.97-.04,1.38-.07.33-.03.63-.05.89-.05h.52c2.13,0,4.29.03,6.38.06,2.09.03,4.25.06,6.39.06,1.05,0,2.11,0,3.16-.03,2.87-.05,5.64-.42,8.31-.78,1.66-.22,3.38-.45,5.07-.59,4.86-.41,9.88-.51,14.73-.6,5.15-.1,10.47-.2,15.69-.68,10.11-.93,18.93-1.87,26.97-2.88.8-.1,1.61-.2,2.41-.31,1.01-.13,2.03-.26,3.05-.39,1.26.03,2.52.05,3.76.05,2.08,0,4.15-.05,6.16-.14,3.12-.15,5.54-.42,8.45-1.38h.08c.92,0,1.47,0,1.79.02.23.06.47.1.71.1.14,0,.28-.01.42-.03,1.4-.23,2.12-1.21,2.27-2.19.07-.04.14-.07.21-.11.47-.26.81-.59,1.05-.84.53-.04,1.04-.25,1.45-.59.6-.5.94-1.24.94-2.02l-.04-6.89c0-.11,0-.23-.02-.34-.32-2.31-.03-5.43.17-7.49.35-3.78.2-8.09.06-11.88-.03-.84-.06-1.68-.08-2.48-.03-.93-.07-1.85-.12-2.78-.1-1.97-.19-3.84-.11-5.71.04-.89-.39-1.74-1.13-2.25-.44-.3-.96-.46-1.48-.46h0ZM140.55,8.49h0,0Z" style="fill:#e11c84;"/><path d="M118.99,45.82c-1.32,0-2.26-1.16-2.71-1.85-.72-1.12-1.46-4.04-1.61-4.78-.8-3.96-1.26-9.23-1.22-13.76.01-1.16.07-2.33.13-3.46.08-1.57.16-3.04.12-4.52,0-.33.11-.66.33-.9.16-.18.29-.34.4-.48.75-.92,1.28-1.37,2.91-1.54.22-.02.41-.03.57-.03.51,0,.93.09,1.28.27.14-.03.3-.06.47-.06.06,0,.18,0,.24.02,1.42.19,2.22.96,2.27,2.15.71.63.84.76.96,1.12.15.43.2.66.23.82.03.11.04.16.41.8.4.69.43,1.41.44,1.88,0,.11,0,.21.02.29.07.21.17.47.28.73.1.24.2.49.3.75.14.06.28.16.39.27.26.26.39.62.37.97.06.09.13.18.18.29.29.59.41,1.25.53,1.89.06.34.13.68.21.98.07-2.5.17-5.02.27-7.49.05-1.32.11-2.65.16-3.96.02-.43,0-.9-.04-1.4-.05-.87-.1-1.85.06-2.88.31-2,1.85-3.4,3.74-3.4.09,0,.18,0,.27,0,.45.03.78.23.96.34.09,0,.16,0,.23,0,.76,0,1.36.18,2.13,1.05,1.21,1.36,1.15,2.92,1.1,4.18-.01.33-.03.66-.01.99.22,4.42.05,8.89-.12,13.2-.04,1.02-.08,2.04-.11,3.06-.03.92,0,1.9.01,2.93.04,1.96.09,3.98-.23,5.86-.08.5-.33.87-.5,1.12h0c.09.32.16.71.03,1.16-.55,2.03-2.79,2.69-4.26,3.13l-.34.1c-.13.04-.25.06-.38.06-.42,0-.81-.2-1.06-.55-.05-.04-.29-.12-.43-.16-.27-.08-.57-.18-.86-.36-.02-.01-2.99-2.28-3.31-2.66-.26-.31-.41-.69-.51-1.03-.2-.05-.4-.14-.55-.27-.1-.08-.5-.45-.47-1.04-.1-.1-.2-.22-.28-.37-.4-.71-.65-1.53-.89-2.33v-.03c-.01.06-.02.11-.03.17-.06.33,0,1.48.05,2.41.19,3.56.17,5.08-.79,5.82-.4.3-.86.46-1.34.46Z" style="fill:#e11c84;"/><path d="M130.69,9.85c.06,0,.12,0,.18,0,.26.02.46.26.71.31.79.14.97-.19,1.73.66,1.15,1.28.69,2.91.76,4.36.26,5.4-.05,10.87-.23,16.15-.09,2.73.26,5.91-.19,8.62-.08.45-.51.77-.57,1.18-.04.3.22.62.13.98-.4,1.46-2.49,1.95-3.73,2.33-.42-.6-1.24-.6-1.67-.88-.19-.12-2.89-2.25-3.01-2.4-.3-.36-.36-1.27-.59-1.42-.06-.04-.15-.05-.25-.05-.13,0-.26.02-.34.02-.03,0-.04,0-.05,0-.03-.02.23-.36.19-.53-.06-.25-.49-.26-.63-.53-.84-1.48-.99-3.93-2.27-5.16l-.98-3.82c-.06-.07-.12-.1-.18-.1-.35,0-.45,1.34-.44,1.49.09,1.89.28,3.9.54,5.82-.22,1.3.57,6.79-.25,7.42-.18.14-.37.2-.55.2-.66,0-1.29-.75-1.62-1.25-.52-.8-1.23-3.32-1.43-4.32-.84-4.17-1.23-9.35-1.2-13.5.02-2.68.32-5.39.24-8.03.93-1.04.91-1.42,2.47-1.59.17-.02.31-.03.44-.03.88,0,.88.37.95.38.02,0,.03,0,.05,0,.22,0,.5-.17.75-.17.02,0,.04,0,.07,0,1.62.22,1.01,1.24,1.13,1.42.04.06,1.01.89,1.03.96.36,1.07.03.62.75,1.87.37.64.2,1.43.33,1.86.24.8.76,1.67.84,2.55l.46-.22c-.45.91.1.49.3.92.57,1.2.37,3.28,1.57,4.18l1.6,4.71c.3-1.03-.03-2.05-.02-2.94.05-4.95.31-10.03.5-15.04.05-1.28-.22-2.69,0-4.13.19-1.21,1.09-2.3,2.46-2.3M119.41,29.47h.46s-.46-.43-.46-.43v.43M124.27,24.46h0M130.69,7.25c-2.51,0-4.62,1.9-5.03,4.51-.18,1.16-.12,2.22-.07,3.15.03.47.05.91.04,1.29-.05,1.32-.1,2.64-.16,3.97,0,.15-.01.3-.02.45-.07-.49-.22-1.07-.56-1.65-.16-.27-.24-.41-.28-.49-.06-.24-.12-.51-.26-.91-.19-.55-.44-.85-.96-1.33-.3-1.5-1.51-2.55-3.32-2.79-.13-.02-.27-.03-.41-.03-.11,0-.22,0-.32.02-.4-.14-.87-.23-1.44-.23-.22,0-.46.01-.71.04-2.16.23-2.96,1.01-3.78,2.01-.1.13-.22.27-.37.43-.44.5-.68,1.14-.66,1.81.04,1.42-.03,2.87-.11,4.41-.06,1.14-.12,2.32-.13,3.51-.04,4.69.42,9.93,1.25,14.03.12.58.9,3.84,1.79,5.22.59.91,1.87,2.44,3.8,2.44.77,0,1.5-.25,2.13-.73,1.08-.83,1.38-2.12,1.41-3.92.08.13.18.26.28.39.47.56,3.59,2.91,3.62,2.92.43.27.86.41,1.16.5.02,0,.04.01.06.02.49.49,1.15.76,1.83.76.25,0,.51-.04.76-.11l.33-.1c1.54-.46,4.41-1.3,5.15-4.03.13-.47.13-.9.09-1.26.16-.3.33-.68.41-1.15.34-2,.29-4.09.24-6.1-.02-1.02-.04-1.98-.02-2.86.03-1.01.07-2.03.11-3.05.17-4.35.34-8.84.12-13.32-.01-.25,0-.55.01-.87.05-1.33.13-3.35-1.43-5.1-1.1-1.24-2.08-1.46-2.97-1.49-.3-.15-.71-.31-1.23-.35-.12,0-.24-.01-.36-.01h0Z" style="fill:#e11c84;"/><path d="M82.32,51.9c-.16,0-.33-.02-.51-.05-.46-.09-2.52-1.13-2.93-1.87-.42-.76-.83-4.36-.83-4.39-.45-4.55-.42-9.19-.4-13.67v-1.91c.01-.94,0-1.87,0-2.81-.03-3.26-.07-6.63.43-9.99.03-.19.1-.38.21-.54.33-.49.96-1.07,2.09-1.07.24,0,.49.03.74.06.13.02.26.04.39.04.21-.13.65-.46.96-.69.62-.46,1.2-.9,1.69-1.14,1.44-.71,2.96-1.09,4.4-1.09,2.18,0,4.06.84,5.44,2.42.44.51.77,1.24,1.09,1.94.17.38.35.77.48.98.01.01.11.08.18.13.19.13.43.3.61.6,3.23,5.33,3.73,9.8,1.71,15.42-1.33,3.71-5.08,10.62-9.47,13.4-1.08.68-2.25,1.43-3.67,1.54-.22.99-.75,2.69-2.58,2.69ZM83.91,20.28c.01.64.08,1.3.15,1.99.07.7.15,1.42.16,2.16.03,1.13.04,2.32.05,3.53.04,4.2.08,8.53.73,12.27.07-.02.13-.04.21-.05.29-.23.98-.79,1.25-1.01.14-.27.41-1.01.6-1.52.38-1.04.64-1.71.91-2.14.4-.64.78-1.2,1.13-1.72,1.46-2.18,2.26-3.37,2.48-6.47.03-.42.2-.72.31-.93.01-.02.03-.05.04-.07-.08-.97-1.07-2.7-1.8-3.98-.35-.61-.67-1.18-.91-1.67-.16-.32-.29-.77-.44-1.28-.08-.26-.19-.64-.28-.88-.07-.02-.17-.03-.33-.03-1.37,0-3.49,1.08-4.25,1.82Z" style="fill:#e11c84;"/><path d="M88.54,14.09c1.66,0,3.25.59,4.45,1.97.55.63,1.01,2.06,1.46,2.76.23.36.67.54.76.69,2.98,4.92,3.53,8.93,1.59,14.31-1.44,4-5.14,10.33-8.94,12.74-1.04.66-2.12,1.36-3.35,1.36-.19,0-.38-.02-.58-.05-.37.3-.2,2.73-1.63,2.73-.08,0-.17,0-.27-.03-.29-.05-1.9-.98-2.03-1.22-.2-.37-.61-3.27-.67-3.89-.5-5.11-.4-10.3-.39-15.45.01-4.23-.22-8.42.4-12.61.27-.4.63-.5,1.02-.5s.78.1,1.14.1c.13,0,.25-.01.36-.04.48-.13,2.07-1.53,2.85-1.92,1.22-.6,2.54-.95,3.82-.95M84.04,42.78c.25,0,.03-.38.31-.45.05-.01.1-.02.16-.02.12,0,.26.02.38.02.06,0,.13,0,.19-.02,0-1.21.31-.64.84-1.06.23-.18,1.46-1.16,1.52-1.24.42-.55,1.15-3.1,1.61-3.83,2.1-3.34,3.5-4.56,3.8-8.8.02-.32.37-.58.35-1.06-.07-1.77-2.08-4.65-2.84-6.24-.27-.56-.63-2.3-.93-2.55-.31-.27-.76-.38-1.29-.38-1.91,0-4.82,1.51-5.55,2.66-.03,1.56.28,3.09.32,4.63.12,5.4-.1,11.94,1.01,17.14.08.38,0,.8.02,1.18.03,0,.06.01.09.01M88.54,11.49h0c-1.64,0-3.36.42-4.97,1.22-.59.29-1.22.76-1.89,1.26-.15.11-.35.26-.52.39-.22-.03-.49-.05-.78-.05-1.79,0-2.76,1.03-3.17,1.64-.22.32-.36.69-.42,1.08-.51,3.46-.48,6.88-.44,10.19,0,.93.02,1.86.02,2.79v1.9c-.03,4.52-.05,9.2.4,13.81,0,.04.39,3.8.98,4.89.7,1.28,3.25,2.41,3.83,2.52.25.05.5.07.75.07,1.72,0,2.93-.95,3.6-2.83,1.32-.31,2.4-.99,3.32-1.58,4.7-2.98,8.64-10.22,10.03-14.08,2.17-6.04,1.64-10.83-1.82-16.54-.29-.48-.66-.76-.9-.94-.09-.18-.2-.43-.29-.63-.34-.75-.73-1.6-1.29-2.25-1.61-1.85-3.89-2.87-6.42-2.87h0ZM85.24,20.88c.59-.4,1.54-.85,2.31-1.03.16.53.3.98.48,1.37.25.53.59,1.12.95,1.75.45.79,1.32,2.32,1.57,3.14-.12.27-.25.65-.28,1.1-.19,2.75-.84,3.72-2.26,5.84-.36.53-.74,1.1-1.15,1.76-.32.52-.59,1.19-.97,2.21-.27-2.89-.29-6.02-.32-9.07-.01-1.22-.02-2.41-.05-3.55-.02-.79-.1-1.54-.17-2.26-.04-.43-.09-.85-.12-1.25h0Z" style="fill:#e11c84;"/><path d="M60.91,48.15c-1.15,0-2.23-.72-2.52-1.68-.41-1.37-.64-3.87-.76-5.22-.41-4.52-.41-9.22,0-14.39.02-.26,0-.63-.01-1.02-.06-1.27-.13-2.85.88-3.9.55-.58,1.3-.87,2.23-.87,2.32.03,4.21,1.02,5.13,2.63.25.45.37.88.46,1.23.06.23.12.43.19.57.74,1.34,1.33,2.39,1.85,3.55-.18-2.86-.24-5.97,1.17-8.48.78-1.38,1.84-1.59,2.4-1.59,1.98,0,3.45,2.35,3.59,3.97.13,1.55.09,3.26.04,4.91-.02.88-.05,1.75-.04,2.57,0,.45.02,1,.04,1.63.14,4.62.14,8.94-1.32,11.01-.46.66-2.35,2.08-3.2,2.32-.19.05-.39.08-.59.08-1.35,0-2.95-1.18-3.41-1.55-1.81-1.43-2.49-3.76-3.04-5.64l-.15-.51s-.13-.16-.18-.22c.24,4.33.31,7.32-.4,9-.42,1-1.3,1.6-2.35,1.6Z" style="fill:#e11c84;"/><path d="M71.92,20.28c1.09,0,2.19,1.6,2.3,2.78.2,2.3-.02,5.04,0,7.38.02,2.78.55,9.62-1.04,11.88-.31.45-1.97,1.66-2.49,1.81-.07.02-.16.03-.24.03-.81,0-2.07-.84-2.61-1.27-1.66-1.31-2.21-3.71-2.78-5.6-.09-.29-.41-.51-.5-.8-.62-2.16-.58-4.66-2.03-6.59-.39.25-.33.6-.36.97-.3,3.57,1.03,12.48-.1,15.17-.25.59-.7.8-1.15.8-.58,0-1.15-.36-1.27-.75-.37-1.22-.59-3.62-.71-4.96-.43-4.81-.37-9.47,0-14.17.12-1.57-.71-4.59,1.8-4.59.02,0,.03,0,.05,0,1.58.02,3.18.62,3.95,1.98.33.59.33,1.22.65,1.79,1.23,2.21,2.03,3.64,2.77,6.12.12.42,1.23,6.16,1.55,6.16,0,0,0,0,.01,0,.71-1.2-.15-2.94-.13-4.25,0-.68.28-1.28.26-1.95-.07-3.47-.92-7.89.83-11,.37-.66.82-.93,1.26-.93M71.92,17.68h0c-1.44,0-2.72.82-3.53,2.25-.63,1.11-1,2.3-1.2,3.52-.06-.13-.13-.26-.2-.4-1.15-2.02-3.46-3.25-6.18-3.29-.01,0-.07,0-.08,0-1.62,0-2.62.69-3.18,1.27-1.39,1.45-1.3,3.5-1.23,4.86.01.32.03.68.02.86-.41,5.24-.41,10.02,0,14.61.17,1.93.39,4.1.81,5.48.46,1.51,2.04,2.61,3.76,2.61,1.57,0,2.93-.92,3.55-2.4.35-.84.54-1.91.62-3.23.33.4.71.78,1.14,1.12.7.55,2.5,1.83,4.22,1.83.33,0,.65-.04.95-.13,1.16-.33,3.29-1.94,3.91-2.82,1.69-2.4,1.7-6.77,1.55-11.8-.02-.61-.03-1.16-.04-1.59,0-.79.02-1.63.04-2.52.05-1.69.09-3.43-.05-5.06-.21-2.44-2.27-5.16-4.89-5.16h0Z" style="fill:#e11c84;"/><path d="M50.16,48.74c-1.77,0-3.53-1.43-4.21-2.18-4.55-5.05-5.88-14.81-4.5-20.95.03-.13,1.14-3.49,1.69-4.07.9-.93,2.1-.93,2.49-.93.28,0,.55.02.81.04.17.01.34.03.49.03.04,0,.08,0,.11,0,.08-.01.29-.09.45-.14.41-.15.92-.33,1.49-.38.27-.02.55-.04.83-.04,2.21,0,4.15.76,5.32,2.08.8.9.88,1.6.89,2.35,0,.18,0,.38.05.63.86,4.82.21,11.04-.61,14.9-.31,1.44-1.45,6.29-3.42,7.99-.52.45-1.18.69-1.9.69ZM47.12,28.96c-.08,1.18-.16,2.29-.11,3.41.07,1.44.52,3.48,1.15,5.2.15.42.35.85.57,1.3.5-2.39.9-5.25,1.16-7.22.09-.67.08-4.11-.08-5.28-.09-.02-.21-.05-.38-.05l-.11.91c-.07.55-.48,1-1.02,1.12-.09.02-.18.03-.27.03-.32,0-.62-.11-.86-.32-.02.3-.04.6-.06.9Z" style="fill:#e11c84;"/><path d="M49.83,21.4c1.61,0,3.31.47,4.34,1.64.8.9.45,1.3.64,2.34.76,4.26.32,10.07-.6,14.4-.4,1.87-1.52,6-3,7.27-.3.26-.66.37-1.05.37-1.18,0-2.57-1.01-3.24-1.75-4.21-4.68-5.51-13.96-4.2-19.8.09-.42,1.16-3.24,1.36-3.46.42-.44.99-.53,1.55-.53.46,0,.92.07,1.3.07.1,0,.2,0,.29-.02.48-.07,1.16-.45,1.88-.52.24-.02.48-.03.72-.03M48.03,27.07l-1.04-1.74-1.05.8c0,2.11-.33,4.17-.23,6.29.08,1.75.63,3.95,1.23,5.59.52,1.41,1.45,2.9,2.02,4.31,1.17-.68.77-1.92.98-2.89.53-2.43.96-5.46,1.24-7.62.11-.84.12-5.87-.26-6.28-.35-.37-.94-.53-1.52-.53-.41,0-.82.07-1.14.2l-.22,1.86M49.83,18.8c-.32,0-.63.01-.95.04-.74.07-1.36.29-1.82.45-.07.03-.14.05-.2.07-.1,0-.21-.01-.32-.02-.25-.02-.57-.04-.91-.04-1.43,0-2.58.45-3.43,1.33-.89.93-2.02,4.66-2.02,4.69-1.48,6.6-.09,16.68,4.8,22.11.24.27,2.43,2.61,5.18,2.61,1.04,0,1.99-.35,2.75-1.01,2.21-1.91,3.42-6.72,3.84-8.7.88-4.17,1.51-10.4.62-15.4-.02-.13-.03-.23-.03-.43-.02-.89-.13-1.95-1.22-3.18-1.42-1.6-3.71-2.52-6.29-2.52h0ZM48.37,29.65c.07,0,.13-.02.2-.03.03,0,.05-.01.08-.02,0,.83-.01,1.57-.05,1.89-.08.57-.15,1.11-.22,1.63-.04-.29-.06-.56-.07-.81-.04-.86,0-1.74.06-2.65h0Z" style="fill:#e11c84;"/><path d="M106.86,46.95c-2.82,0-5.33-3.31-6.58-6.6-1.66-4.38-2.02-11.36-.85-16.25.01-.05,1.53-5.62,3.32-6.73.62-.39,1.47-.58,2.53-.58,1.86,0,4.35.63,5.49,1.83,1.12,1.18,1.8,3.88,1.95,5,.51,3.77.08,14.85-1.23,18.7-1.31,3.83-3.24,4.63-4.63,4.63ZM105.5,23.22c-.07.17-.14.33-.21.48-.15.33-.28.62-.34.92-.6,3.08-.4,8.08.45,11.38.08.3.2.69.35,1.1.31-3.25.6-11.68.01-13.31-.04-.1-.15-.36-.26-.58Z" style="fill:#e11c84;"/><path d="M105.27,18.09c1.68,0,3.76.6,4.55,1.43.8.84,1.45,3.15,1.6,4.28.52,3.81.02,14.59-1.18,18.1-.93,2.71-2.14,3.75-3.4,3.75-2.09,0-4.28-2.91-5.36-5.76-1.62-4.27-1.86-11.08-.8-15.49.3-1.24,1.71-5.29,2.74-5.93.43-.27,1.1-.39,1.84-.39M106.09,40.37c.67-.15.85-2.12.92-2.83.27-2.48.75-12.06-.03-14.2-.09-.24-.48-1.12-.61-1.23-.31-.27-1.37-.35-1.79-.71.02,1.18-.69,1.88-.9,2.96-.66,3.38-.4,8.62.47,11.95.2.79,1.25,3.91,1.95,4.05M105.27,15.49h0c-1.3,0-2.38.26-3.21.78-2.35,1.45-3.88,7.47-3.9,7.53-1.23,5.11-.84,12.43.9,17.02,1.3,3.43,4.12,7.44,7.79,7.44,1.81,0,4.3-.96,5.86-5.51,1.39-4.07,1.83-15.32,1.29-19.29,0-.04-.57-3.91-2.3-5.72-1.46-1.54-4.36-2.24-6.44-2.24h0Z" style="fill:#e11c84;"/><path d="M34.69,47.29c-1.15,0-2.29-.12-3.56-.39,0,0-6.82.34-6.84.34-.22,0-.43-.06-.62-.16-2.61-1.43-3.31-2.9-3.82-5.45-.99-4.94-1.03-10.44-1.07-15.76-.01-1.48-.02-2.92-.05-4.33,0-.24-.06-.54-.11-.85-.17-.98-.41-2.32.52-3.57.22-.29.56-.48.92-.51l.24-.02c.32-.03.66-.06.99-.06,1.93,0,2.53,1.17,2.71,1.87.35,1.32.55,3.26.72,4.82l.06.56c.28,2.58.47,5.24.64,7.81.15,2.17.31,4.42.52,6.59.05.46.12.92.2,1.39.05.33.11.66.15,1,.57-.08,1.17-.11,1.8-.11,1.41,0,2.8.19,4.14.37,1.1.15,2.13.29,3.16.33h.15c.25,0,.57-.01.93-.03.5-.02,1.07-.05,1.65-.05,3.19,0,4.86.96,4.97,2.86.08,1.46-1.65,2.68-2.56,2.9-.37.09-.71.1-.94.1-.12,0-.67-.01-.67-.01-.09,0-.18,0-.27.02-1.46.22-2.69.37-3.95.37Z" style="fill:#e11c84;"/><path d="M21.27,17.83c.66,0,1.26.16,1.45.9.36,1.4.58,3.69.74,5.19.52,4.75.7,9.65,1.16,14.38.13,1.27.46,2.54.46,3.82.99-.28,1.99-.38,2.98-.38,2.43,0,4.86.6,7.25.69.06,0,.13,0,.2,0,.62,0,1.59-.08,2.58-.08,1.76,0,3.59.25,3.67,1.64.03.6-1,1.43-1.57,1.56-.21.05-.42.06-.63.06-.22,0-.45-.01-.67-.01-.16,0-.31,0-.47.03-1.41.21-2.57.35-3.75.35-1.07,0-2.16-.12-3.46-.4l-6.95.35c-2.19-1.2-2.72-2.31-3.17-4.57-1.24-6.2-.96-13.52-1.1-19.86-.03-1.16-.69-2.49.15-3.61.35-.03.74-.08,1.11-.08M21.27,15.23c-.41,0-.8.04-1.12.07l-.23.02c-.73.07-1.4.44-1.84,1.03-1.28,1.7-.96,3.5-.76,4.58.05.25.09.52.09.65.03,1.39.04,2.8.05,4.31.04,5.38.08,10.94,1.1,16,.57,2.83,1.45,4.68,4.47,6.34.38.21.81.32,1.25.32.04,0,.09,0,.13,0l6.61-.33c1.3.26,2.47.38,3.66.38,1.34,0,2.62-.15,4.14-.38.01,0,.02,0,.04,0,.01,0,.02,0,.04,0,.08,0,.17,0,.25,0,.14,0,.28,0,.42,0,.29,0,.74-.01,1.24-.13,1.53-.37,3.68-2.09,3.56-4.24-.09-1.53-1.02-4.09-6.27-4.09-.62,0-1.2.03-1.71.05-.34.02-.63.03-.87.03h-.1c-.97-.04-1.97-.17-3.04-.32-1.38-.19-2.82-.38-4.32-.38-.24,0-.47,0-.7.01-.06-.39-.12-.76-.15-1.11-.21-2.14-.37-4.38-.52-6.54-.18-2.58-.36-5.25-.65-7.86l-.06-.56c-.17-1.6-.38-3.59-.75-5-.17-.67-.97-2.85-3.97-2.85h0Z" style="fill:#e11c84;"/><path d="M141.47,2.75c.48.27.52,2.23.7,2.48.07.1.43.08.57.22.24.24.16,1.65.22,2.09.75,5.32,1.51,10.18,1.6,15.58.07,3.65.29,7.53.3,11.33,0,3.02-.3,6.15.03,9.18.05.5.6.99.22,1.68-.03.05-.24.01-.26.03-.04.06.42.47.03,1.38-.75,1.78-2.02,1.09-3.49,1.21-3.65.3-5.12,2.44-8,3.06-.34.07-.85-.13-1.34-.08-.69.08-1.84.54-2.56.57-.27.01-.64-.3-1.1-.25-1.87.21-3.07.46-4.97.36-.83-.05-1.49.38-1.87-.06-1.35.75-2.43-.29-3.69.47l-.16-.31c-1.22-.28-3.18.16-4.27,0-1.72-.27-3.54-.17-5.36-.41-.39-.05-.83-.36-1.18-.36-.79,0-.34.2-1.44-.01-.82-.16-1.99-.12-3.02-.25-.4-.05-1.43-.48-1.59-.49-.2-.01-.34.22-.48.26-.09.03,0-.32-.31-.34-.47-.03,38.47.29,38.16.3-.1,0-.68-.13-1.06-.14-4.07-.09-8.31-.28-12.13.81l-.14-.31c-3.79.57-7.78.79-11.55,1.51-.87.17-1.56.04-2.51.19-3.98.6-8.06.64-11.97,1.39-.92.18-1.64-.07-2.44,0-1.05.08-1.79.38-2.93.45-2.35.14-5.04.48-7.44.74-2.44.27-5,.49-7.34.47-5.22-.03-10.26-.26-15.43.32l-.17-.32c-3.24.21-6.61.29-9.91.56-3.94.33-7.46,1.05-11.36,1.08-6.18.04-12.47-.28-18.64.12-.18-.68-1.42-.07-1.94-.06-2.73.04-6.01-.45-8.59-.74-1.78-.2-4.29-.17-5.99-.68-1-.3-1.34-1.23-1.23-2.18l.79-.17c-.48-.64-.4-1.3-.55-2.04l-.09-5.43-.45.14c-.08-.45-.9-.61-1.09-.99-.3-.58-.54-2.49-.53-3.2.03-1.81.29-3.67.16-5.57-.22-3.17-1.74-6.42-.76-9.59l1.55-.2-.61-15.16c.21-.62,1.82-.51,2.29-.11.35-.21.15-.67.32-.95.26-.46,1.11-.24,1.51-.08l.39,1.36.32.16c2.28-.03,4.56-.17,6.84-.17,4.22,0,8.2.26,12.4-.17,2.9-.3,5.89-1.09,8.78-1.25,2.32-.13,4.69.04,7.01-.06,7.01-.31,13.96-.79,20.99-.96,9.31-.23,18.57-.52,27.85-1.04,15.95-.89-7.43-2.15,8.42-2.9,7.37-.35,15.71-2,22.94-1.56,1.73.11,3.36.84,5.09.96,2.51.18,6.81-.66,9.4-1.1.36-.06.76.05,1.1-.02.41-.08.99-1.31,1.96-.76ZM140.81,28.6c.41-4.42.1-9.58-.03-14.04-.09-2.89-.34-5.77-.23-8.67-1.04.45-2.14.28-3.14.77l-.44-.45c-.48.51-1.16.18-1.75.24-2.36.25-4.49.81-6.95.62-1.32-.11-2.59-.6-3.74-.68-2.41-.17-5,.1-7.29.04-.16,0-2.42.57-2.97.63-9.43.98,20.27,1.2,10.78,1.88-3.33.24-6.81.29-9.94.85-.32.06-.96-.04-1.35,0-8.05.65-15.95,1.17-23.9,1.61-3.27.18-6.17.17-9.38.31-.95.04-2.5-.12-3.32-.05-4.03.33-8.3.52-12.3.51-3.26,0-6.66.17-9.7.4-6.04.47-12.25.37-18.13.72-5.05.31-9.43,1.34-14.49,1.24-1.64-.03-2.86.28-4.46.13-2.85-.28-5.74-.25-8.43-.31-.28,0-.53-.09-.79-.17l-.18.32c.28,2.34.47,4.71.48,7.07.01,2.71,0,10.35-.8,12.64-.18.51-.82.61-.83,1l.73,3.42c.29,4.22.95,8.51.67,12.52-.02.3.17.57.16.87.32-.26.47-.29.86-.33,1.72-.17,6.21.07,7.96.34.28.04,1.35.42,1.45.63.09.58-.01,1.07-.25,1.59.51-.07,1,.07,1.49.1.93.07,1.84-.11,2.72-.11,5.51-.01,10.96.2,16.4.1,4.48-.08,8.75-.98,13.21-1.36,10.11-.86,20.37-.36,30.39-1.28,8.98-.82,18.06-1.76,26.89-2.87,3.77-.48,7.67-1.01,11.43-1.37,5.04-.49,10.05-1.11,15.14-1l.16.3c2.51-.41-34.34.39-31.82.65,6.84.7,13.89.94,20.67.62,4.19-.2,6.52-.63,10.32-2.22.69-.29,1.74-.65,2.47-1.06.59-.33.97-1.38,2.11-1.16l-.04-6.89c-.35-2.55-.06-5.76.15-8.09ZM9.1,52.34c-.64-.12-.03.63-.32.95h.48s-.16-.95-.16-.95Z"/><path d="M140.81,28.6c-.22,2.33-.51,5.53-.15,8.09l.04,6.89c-1.14-.22-1.51.83-2.11,1.16-.72.4-1.78.77-2.47,1.06-3.8,1.59-6.13,2.02-10.32,2.22-6.78.32-13.82.08-20.67-.62-2.52-.26,34.33-1.06,31.82-.65l-.16-.3c-5.09-.11-10.1.51-15.14,1-3.76.36-7.66.9-11.43,1.37-8.82,1.11-17.91,2.05-26.89,2.87-10.02.92-20.28.42-30.39,1.28-4.46.38-8.73,1.28-13.21,1.36-5.44.1-10.89-.11-16.4-.1-.88,0-1.79.18-2.72.11-.49-.04-.98-.17-1.49-.1.24-.52.34-1,.25-1.59-.1-.21-1.18-.59-1.45-.63-1.75-.26-6.24-.51-7.96-.34-.4.04-.54.06-.86.33.02-.3-.18-.57-.16-.87.28-4.02-.38-8.3-.67-12.52l-.73-3.42c0-.39.65-.49.83-1,.8-2.28.81-9.93.8-12.64-.01-2.36-.2-4.73-.48-7.07l.18-.32c.26.08.52.17.79.17,2.68.06,5.57.03,8.43.31,1.6.16,2.82-.16,4.46-.13,5.06.1,9.43-.93,14.49-1.24,5.88-.36,12.09-.25,18.13-.72,3.04-.24,6.44-.41,9.7-.4,4.01,0,8.27-.18,12.3-.51.82-.07,2.37.09,3.32.05,3.21-.14,6.11-.13,9.38-.31,7.95-.44,15.85-.96,23.9-1.61.39-.03,1.02.07,1.35,0,3.12-.56,6.61-.61,9.94-.85,9.49-.68-20.21-.89-10.78-1.88.55-.06,2.81-.63,2.97-.63,2.3.06,4.88-.21,7.29-.04,1.16.08,2.42.57,3.74.68,2.45.2,4.58-.36,6.95-.62.59-.06,1.27.27,1.75-.24l.44.45c.99-.49,2.1-.33,3.14-.77-.11,2.9.14,5.78.23,8.67.13,4.46.45,9.62.03,14.04Z" style="fill:#fff;"/><path d="M127.82,43.58c-.19-.12-2.89-2.25-3.01-2.4-.3-.36-.37-1.27-.59-1.42-.18-.12-.59,0-.64-.04-.03-.02.23-.36.19-.53-.06-.25-.49-.26-.63-.53-.84-1.48-.99-3.93-2.27-5.16l-.98-3.82c-.5-.52-.62,1.22-.62,1.39.09,1.89.28,3.9.54,5.82-.22,1.3.57,6.79-.25,7.42s-1.75-.41-2.17-1.06c-.52-.8-1.23-3.32-1.43-4.32-.84-4.17-1.23-9.35-1.2-13.5.02-2.68.32-5.39.24-8.03.93-1.04.91-1.42,2.47-1.59,1.32-.14,1.3.35,1.39.36.24.03.58-.2.87-.17,1.62.22,1.01,1.24,1.13,1.42.04.06,1.01.89,1.03.96.36,1.07.03.62.75,1.87.37.64.2,1.43.33,1.86.24.8.76,1.67.84,2.55l.46-.22c-.45.91.1.49.31.92.57,1.2.37,3.28,1.57,4.18l1.6,4.71c.3-1.03-.03-2.05-.02-2.94.05-4.95.31-10.03.5-15.04.05-1.28-.22-2.69,0-4.13.2-1.27,1.17-2.4,2.64-2.3.26.02.46.26.71.31.79.14.97-.19,1.73.66,1.15,1.28.69,2.91.76,4.36.26,5.4-.05,10.87-.23,16.15-.09,2.73.26,5.91-.19,8.62-.08.45-.51.77-.57,1.18-.04.3.22.62.13.98-.4,1.46-2.49,1.95-3.73,2.33-.42-.6-1.24-.6-1.67-.88ZM119.87,29.47l-.46-.43v.43s.46,0,.46,0Z"/><path d="M95.22,19.52c2.98,4.92,3.53,8.93,1.59,14.31-1.44,4-5.13,10.33-8.94,12.74-1.2.76-2.46,1.57-3.93,1.3-.39.31-.18,3.02-1.9,2.7-.29-.05-1.9-.98-2.03-1.21-.2-.37-.61-3.27-.67-3.89-.5-5.11-.4-10.3-.39-15.45.01-4.23-.22-8.42.4-12.61.63-.93,1.74-.23,2.52-.45.48-.13,2.07-1.53,2.85-1.92,2.8-1.38,6.14-1.43,8.27,1.02.55.63,1.01,2.06,1.46,2.76.23.36.67.54.76.69ZM89.45,17.54c-1.44-1.24-5.91.82-6.84,2.28-.03,1.56.28,3.09.32,4.63.12,5.4-.1,11.94,1.01,17.14.08.38,0,.8.02,1.18.38.09.09-.36.4-.44.22-.05.5.04.73-.02,0-1.21.31-.64.84-1.06.23-.18,1.46-1.16,1.52-1.24.42-.55,1.15-3.1,1.61-3.83,2.1-3.34,3.5-4.56,3.8-8.8.02-.32.37-.58.35-1.06-.07-1.77-2.08-4.66-2.84-6.24-.27-.56-.63-2.3-.93-2.55Z"/><path d="M67.83,42.9c-1.66-1.31-2.21-3.71-2.78-5.6-.09-.29-.41-.51-.5-.8-.62-2.16-.58-4.66-2.03-6.59-.39.25-.33.6-.36.97-.3,3.57,1.03,12.48-.1,15.17-.56,1.34-2.21.75-2.42.05-.37-1.22-.59-3.62-.71-4.96-.43-4.81-.37-9.47,0-14.17.12-1.58-.72-4.63,1.84-4.59,1.58.02,3.18.62,3.95,1.98.33.59.33,1.22.65,1.79,1.23,2.21,2.03,3.64,2.77,6.12.13.42,1.25,6.28,1.56,6.16.71-1.2-.15-2.94-.13-4.25,0-.68.28-1.28.26-1.95-.07-3.47-.92-7.89.83-11,1.29-2.3,3.41.19,3.56,1.86.2,2.3-.02,5.04,0,7.38.02,2.78.55,9.62-1.04,11.88-.31.45-1.97,1.66-2.49,1.81-.77.22-2.26-.77-2.85-1.24Z"/><path d="M54.17,23.05c.8.9.45,1.3.64,2.34.76,4.26.32,10.07-.6,14.4-.4,1.87-1.52,6-3,7.27-1.23,1.06-3.41-.4-4.29-1.38-4.21-4.68-5.51-13.96-4.2-19.8.09-.42,1.16-3.24,1.36-3.46.85-.89,2.32-.37,3.14-.48.48-.07,1.16-.45,1.88-.52,1.79-.16,3.87.26,5.06,1.61ZM51.19,31.82c.11-.84.12-5.87-.26-6.28-.59-.64-1.88-.63-2.67-.33l-.22,1.86-1.04-1.74-1.05.8c0,2.11-.33,4.17-.23,6.29.08,1.75.63,3.95,1.23,5.59.52,1.41,1.45,2.9,2.02,4.31,1.17-.68.77-1.92.98-2.89.53-2.43.96-5.46,1.24-7.62Z"/><path d="M109.83,19.52c.8.84,1.45,3.15,1.6,4.28.52,3.81.02,14.59-1.18,18.1-2.48,7.25-7.03,2.54-8.76-2.01-1.62-4.27-1.86-11.08-.8-15.49.3-1.24,1.71-5.29,2.74-5.93,1.41-.87,5.25-.16,6.39,1.04ZM106.37,22.11c-.31-.27-1.37-.35-1.79-.71.02,1.18-.69,1.88-.9,2.96-.66,3.38-.4,8.62.47,11.95.2.79,1.25,3.91,1.95,4.05.67-.15.85-2.12.92-2.83.27-2.48.75-12.06-.03-14.2-.09-.24-.48-1.12-.61-1.23Z"/><path d="M25.1,42.12c3.41-.95,6.86.18,10.23.32,1.52.06,6.32-.7,6.45,1.56.03.6-1,1.43-1.57,1.56s-1.18,0-1.77.08c-2.69.41-4.48.55-7.21-.04l-6.95.35c-2.19-1.2-2.72-2.31-3.17-4.57-1.24-6.2-.96-13.52-1.1-19.86-.03-1.16-.69-2.49.15-3.61.98-.09,2.26-.33,2.56.82.36,1.4.58,3.69.74,5.19.52,4.75.7,9.65,1.16,14.38.13,1.27.46,2.54.46,3.82Z"/></svg>