<svg width="267" height="78" viewBox="0 0 267 78" fill="none" xmlns="http://www.w3.org/2000/svg">
<path d="M139.84 9.30371C144.789 4.50737 151.331 1.91734 157.818 5.15234H157.819C159.856 6.17089 161.894 7.76057 162.099 10.4102L162.113 10.6699V10.6709C162.191 13.3253 160.445 15.3724 158.38 16.6191L157.496 17.1592L157.495 17.1602C157.338 17.2554 157.176 17.2568 157.067 17.2402C156.959 17.2237 156.865 17.1843 156.795 17.1475C156.652 17.0733 156.52 16.9655 156.414 16.8594C156.307 16.7526 156.202 16.621 156.127 16.4814C156.089 16.4118 156.05 16.3235 156.029 16.2236C156.009 16.1265 155.999 15.9776 156.067 15.8223C156.16 15.6114 156.32 15.4227 156.476 15.2637C156.638 15.0987 156.834 14.9284 157.035 14.7578C157.448 14.4068 157.9 14.0405 158.302 13.6201C158.704 13.2011 159.02 12.7639 159.175 12.2998C159.305 11.9087 159.327 11.4774 159.155 10.9834L159.069 10.7676C158.74 10.0351 158.106 9.48007 157.31 9.05469C156.515 8.62955 155.597 8.35483 154.765 8.16699H154.763C151.382 7.38914 148.467 8.45705 145.722 10.4834L145.723 10.4844C143.632 12.0311 141.558 13.8115 141.146 16.3584C140.935 17.6852 141.71 19.0165 143.139 20.1973C144.554 21.3657 146.502 22.2897 148.338 22.7861H148.339C153.769 24.2604 159.086 25.6589 164.301 27.877C167.186 29.1047 169.444 31.2642 170.558 34.3271C171.712 37.4987 170.163 40.8178 168.246 43.0146L168.245 43.0156C163.66 48.2517 156.713 50.7854 150.465 52.9033C147.698 53.8402 145.166 53.3802 142.48 52.1504C139.644 50.8518 138.376 47.864 137.592 45.0391V45.0381C136.893 42.5079 136.778 39.7906 137.457 37.5029C138.14 35.2 139.64 33.3125 142.15 32.5596H142.151C143.64 32.1154 145.428 32.6226 146.738 33.3652C147.402 33.7417 147.988 34.2021 148.382 34.6855C148.755 35.1439 149.053 35.7503 148.846 36.3535L148.847 36.3545C148.753 36.6316 148.608 36.8759 148.387 37.0469C148.16 37.2232 147.901 37.2825 147.656 37.2783C147.421 37.2743 147.187 37.2129 146.975 37.1387C146.761 37.0636 146.538 36.9637 146.321 36.8643C145.871 36.658 145.433 36.4454 144.977 36.3154C144.53 36.1878 144.111 36.1544 143.714 36.2773L143.713 36.2783C143.497 36.3447 143.156 36.5975 142.835 36.9932C142.559 37.3336 142.361 37.7017 142.287 38L142.262 38.123C142.091 39.3727 142.453 41.3111 143.189 43.0361C143.554 43.8908 143.999 44.6657 144.49 45.2578C144.986 45.856 145.496 46.2276 145.98 46.3525L146.291 46.418C147.045 46.5486 148 46.5188 148.988 46.375C149.969 46.2323 150.943 45.9838 151.72 45.7061L152.042 45.585L158.704 42.9424L161.551 40.873L163.748 38.9297L163.749 38.9287C164.547 38.2253 164.936 37.2935 164.913 36.2568C164.901 35.7086 164.66 35.1699 164.201 34.6357C163.74 34.099 163.079 33.5908 162.283 33.1191C160.691 32.1758 158.649 31.4295 156.856 30.8965L156.499 30.79V30.7812L149.118 28.5986L149.106 28.5947L149.093 28.5898L143.996 26.79V26.7891C141.675 25.9716 139.481 24.5196 137.968 22.6982C136.455 20.8754 135.594 18.6437 136.048 16.3057V16.3047C136.594 13.4944 137.828 11.2528 139.84 9.30371Z" fill="#F26524" stroke="#F26524"/>
<path d="M227.767 2.01562H227.769C228.275 2.03501 228.989 2.15935 229.657 2.33496C230.311 2.5069 231.001 2.74887 231.424 3.03516L233.951 4.73047C236.203 6.2414 237.858 9.08009 238.29 11.751L238.33 12.0498C238.658 15.1201 236.411 17.7474 234.117 19.2158V19.2168C232.714 20.1116 231.204 21.1839 229.593 21.7246L220.285 24.8516L220.286 24.8525L215.996 26.3027C216.551 27.4408 217.296 28.0955 218.255 28.791L218.737 29.1348L218.739 29.1357L222.959 32.124H222.96C226.354 34.5324 230.139 36.8571 231.876 40.8252H231.875C232.373 41.9587 232.554 43.161 231.939 44.334V44.335C231.673 44.8414 231.058 45.3073 230.436 45.5791C229.821 45.848 228.998 46.0131 228.331 45.6396V45.6387C227.168 44.9873 226.284 44.1189 225.479 43.2393C224.661 42.3441 223.949 41.469 223.068 40.6934L223.067 40.6924L219.478 37.5205V37.5195L213.43 32.5928L213.729 39.8086V39.8096C213.759 40.5733 213.767 41.3513 213.493 41.9766C213.189 42.6715 212.584 43.096 211.633 43.2656C210.946 43.3883 210.161 43.2404 209.536 42.8105C208.894 42.369 208.432 41.6368 208.422 40.6465V40.6455L208.386 35.7949V35.7715L208.615 30.0654L209.141 13.2832V13.2822L209.379 6.25586V6.25293C209.393 5.89453 209.581 5.50241 209.77 5.21582C209.871 5.06291 209.989 4.91465 210.115 4.79102C210.204 4.70381 210.316 4.61021 210.446 4.54102L210.582 4.48145C210.836 4.39147 211.1 4.43998 211.288 4.5C211.493 4.56549 211.697 4.67339 211.878 4.79883C212.058 4.92431 212.233 5.08068 212.37 5.25684C212.483 5.40362 212.599 5.60113 212.633 5.83105L212.641 5.93164V5.93359L212.803 10.9365C215.644 5.4997 221.856 1.81483 227.767 2.01562ZM226.329 6.7207C223.169 6.7207 219.923 8.48607 218.219 10.8691L218.059 11.1016C216.687 13.1735 215.902 15.2448 215.422 17.5596H215.421L214.586 21.5732C217.667 20.6082 221.048 19.7346 224.243 18.5713C227.644 17.3326 230.665 15.8122 232.596 13.6484C232.787 11.9981 232.156 10.2887 231.004 8.96973C229.818 7.61313 228.126 6.71672 226.33 6.7207H226.329Z" fill="#F26524" stroke="#F26524"/>
<path d="M102.624 8.23828C107.955 6.41095 113.328 8.1324 116.319 12.9746L116.647 13.5283C118.231 16.3105 118.89 19.3101 118.099 22.6572C117.618 24.7086 116.885 26.7673 115.035 28.3574C112.845 30.2447 110.039 31.9458 107.124 32.6514H107.123L101.728 33.9512L105.473 35.959L111.26 38.5059L112.42 39.0293C115.117 40.2801 117.717 41.7514 119.975 43.6963H119.974C120.834 44.4346 121.162 45.3889 121.098 46.3408C121.036 47.2734 120.601 48.1832 119.976 48.9072L119.977 48.9082C119.789 49.13 119.504 49.3567 119.227 49.5293C118.966 49.6918 118.619 49.8654 118.306 49.8877C118.033 49.907 117.811 49.7754 117.672 49.667C117.524 49.5508 117.393 49.4003 117.284 49.252C117.116 49.0236 116.967 48.7533 116.862 48.5049C115.515 47.9239 114.289 47.1448 113.104 46.3477C111.849 45.5031 110.648 44.6483 109.345 43.9375L102.256 40.0664L102.245 40.0605L102.234 40.0537L100.612 39.0576L101.416 50.8135V50.8145C101.451 51.3424 101.252 51.9073 101.003 52.3555C100.755 52.7997 100.398 53.2344 100.012 53.4512H100.011C99.5861 53.6888 99.1714 53.8236 98.7701 53.832C98.3597 53.8406 97.9942 53.7164 97.6832 53.4893C97.0894 53.0556 96.7289 52.2748 96.4879 51.4355C95.9992 49.7341 95.8801 47.3259 95.776 45.3604L95.3463 37.2061L95.1099 33.6836L95.109 33.6758L94.8551 28.5703L94.4635 22.3984C93.658 21.6958 93.1754 21.0235 92.9459 20.3291C92.6994 19.583 92.7654 18.8781 92.9293 18.2002C93.0105 17.864 93.1187 17.5249 93.2281 17.1885C93.3392 16.847 93.4521 16.5071 93.5543 16.1475C93.7568 15.4345 93.9089 14.6649 93.8804 13.7773L93.8697 13.4551L94.1607 13.3125L95.5933 12.6113C97.4714 10.2376 100.026 9.13233 102.623 8.23828H102.624ZM108.626 12.1797C106.978 11.5136 104.755 11.6064 102.6 12.3066C100.524 12.9813 98.5927 14.1958 97.3814 15.71L99.5015 29.7236L107.095 27.624C109.965 26.2447 112.039 24.1641 113.253 21.2168C113.27 17.3609 111.791 13.4666 108.626 12.1797Z" fill="#F26524" stroke="#F26524"/>
<path d="M264.375 2.64648C264.676 2.66611 264.979 2.72601 265.249 2.82227C265.478 2.90436 265.712 3.0234 265.897 3.19141L265.973 3.2666L265.975 3.26855C266.241 3.55601 266.403 3.87099 266.467 4.20703C266.531 4.53842 266.495 4.85992 266.415 5.1543C266.261 5.71723 265.911 6.28242 265.658 6.72949C264.508 8.77621 264.06 11.1977 263.462 13.6279L261.549 21.3799L261.546 21.3916L258.905 31.0303L258.904 31.0342L257.45 36.1719L256.262 41.8535L255.923 43.7617L255.921 43.7734L255.919 43.7852L254.778 48.7969L254.779 48.7979L253.761 53.3857L251.91 61.8262L251.906 61.8438L250.01 69.21L250.006 69.2256L248.085 75.8145C248.02 76.0368 247.881 76.2301 247.748 76.3809C247.609 76.5383 247.443 76.6865 247.277 76.8154C246.952 77.0681 246.575 77.2892 246.309 77.3906L246.308 77.3896C245.993 77.5104 245.669 77.4059 245.465 77.3135C245.233 77.2083 245.002 77.0487 244.799 76.876C244.596 76.7023 244.403 76.4979 244.256 76.29C244.124 76.1024 243.972 75.8328 243.972 75.543V75.541C243.99 70.7328 244.608 66.1045 245.717 61.2842L245.713 61.2832L249.899 43.0898C250.129 42.0909 250.207 41.5485 250.12 41.0576C250.033 40.5732 249.774 40.0798 249.156 39.2217L245.454 34.083L245.445 34.0713L245.437 34.0596L243.015 30.2578V30.2568L239.831 25.5781C238.96 24.2978 237.726 23.5805 236.118 23.1025V23.1016C235.803 23.0086 235.618 22.7641 235.516 22.5547C235.412 22.3402 235.36 22.0947 235.338 21.8672C235.317 21.636 235.324 21.3953 235.358 21.1758C235.391 20.9658 235.455 20.7307 235.578 20.542C236.047 19.8162 236.849 19.612 237.647 19.6543C238.444 19.6967 239.345 19.9838 240.204 20.3711C241.07 20.7616 241.93 21.2706 242.658 21.7881C243.378 22.3002 244 22.8424 244.366 23.3105L252.495 33.6631L253.33 30.9268L253.573 30.1562C254.157 28.3644 254.847 26.6102 255.511 24.8672C256.273 22.8675 257.003 20.8745 257.526 18.8037L260.438 7.22559L260.439 7.22461C260.819 5.72998 261.421 4.2796 262.633 3.13867H262.634C263.092 2.70884 263.803 2.60932 264.375 2.64648Z" fill="#F26524" stroke="#F26524"/>
<path d="M182.862 0.642578C183.171 0.490254 183.499 0.457756 183.817 0.556641C184.121 0.651171 184.372 0.851643 184.576 1.08594C184.977 1.5476 185.292 2.25151 185.536 3.03809C185.974 4.45264 186.234 6.31017 186.271 8.04199L198.135 5.18457L198.136 5.18359C198.644 5.06245 199.38 5.06941 200.036 5.18262C200.369 5.24014 200.705 5.32939 200.998 5.45605C201.246 5.5634 201.503 5.7146 201.691 5.93164L201.767 6.02832V6.0293C202.055 6.43888 202.108 6.8933 201.932 7.33008C201.772 7.72702 201.441 8.06501 201.06 8.35254C200.292 8.93219 199.104 9.46526 197.796 9.94238C195.823 10.6626 193.459 11.2951 191.563 11.7754L189.854 12.2021L186.302 13.085L185.731 21.541L185.732 21.542L185.127 36.3018L185.042 39.084L185.045 39.0801C185.103 38.9696 185.187 38.8715 185.256 38.7979C185.332 38.7179 185.419 38.6389 185.505 38.5674C185.663 38.4352 185.86 38.2935 186.024 38.2168L186.034 38.2119C186.215 38.1284 186.4 38.1456 186.546 38.209C186.676 38.266 186.77 38.3554 186.83 38.4248C186.951 38.5654 187.04 38.747 187.103 38.9062C187.169 39.0727 187.222 39.2566 187.251 39.4287C187.276 39.5804 187.297 39.7983 187.237 39.9932V39.9951L184.551 48.6436L184.552 48.6445C184.482 48.8738 184.341 49.0783 184.194 49.2441C184.043 49.4148 183.861 49.5718 183.674 49.7051C183.487 49.8384 183.284 49.9562 183.084 50.041C182.892 50.1222 182.665 50.1895 182.442 50.1855H182.437C181.19 50.1511 180.415 49.2305 179.986 48.1064C179.556 46.9779 179.41 45.5108 179.468 44.0469L180.035 30.2188H179.991L180.041 29.6729L181.454 14.1885L170.02 16.2803L170.188 17.3174L170.268 17.8164L169.769 17.8916C168.272 18.1184 166.581 18.2873 165.071 17.5889V17.5879C164.766 17.448 164.506 17.2239 164.397 16.8896C164.291 16.5631 164.362 16.2365 164.491 15.9619C164.741 15.428 165.304 14.8753 166.005 14.3594C167.432 13.3077 169.689 12.2251 172.162 11.6084L182.052 9.14258L181.995 2.3623V2.3584C181.995 2.09043 182.096 1.73876 182.217 1.45605C182.281 1.30705 182.361 1.15303 182.455 1.01855C182.541 0.894857 182.674 0.736321 182.86 0.643555L182.862 0.642578Z" fill="#F26524" stroke="#F26524"/>
<path d="M68.5698 15.875C69.6671 15.717 70.8422 15.8808 71.7642 16.001H71.7652C73.9304 16.2876 76.3831 16.8499 78.0845 17.7148C78.9282 18.1438 79.658 18.6823 80.0386 19.3633C80.2342 19.7133 80.3378 20.1005 80.312 20.5166C80.2864 20.9297 80.1358 21.3396 79.8755 21.7412H79.8745C79.7756 21.8931 79.6272 21.9931 79.4575 22.0303C79.3039 22.0639 79.1629 22.0401 79.0601 22.0098C78.8587 21.9502 78.6694 21.8252 78.5191 21.7051C78.2866 21.5192 78.0433 21.2594 77.8726 20.998L73.4946 20.0166H73.4937C72.0919 19.7004 70.5321 19.7249 69.3726 20.1777L69.6128 31.7861C72.731 32.6375 75.3358 31.8891 77.9663 30.8301C80.663 29.7444 83.4652 28.2834 86.7193 28.1611L86.9536 29.1123L75.854 34.3975L75.855 34.3984C73.8733 35.3431 71.8 35.6357 69.689 35.5498L69.7788 41.6816L69.7935 42.3076C69.8349 43.5819 69.9534 44.7394 70.2681 46.1758L82.856 41.2295L85.2163 40.1104H85.2173C85.8299 39.8203 86.6795 39.6425 87.4956 39.6787C88.3023 39.7146 89.186 39.9669 89.7359 40.6621C90.2917 41.3634 90.1973 42.2164 89.8872 42.8926C89.5773 43.568 89.012 44.1767 88.4097 44.5254C85.8715 45.9949 82.3454 47.9743 78.815 49.4951C77.0495 50.2556 75.2718 50.9056 73.6089 51.3203C72.0553 51.7078 70.5723 51.8969 69.2788 51.7588L69.023 51.7266C67.6202 51.5241 66.4469 50.6751 65.6333 49.5723C64.8203 48.4702 64.3394 47.0805 64.3394 45.7266V45.7256L64.356 35.1133C63.9148 34.6406 63.6659 34.0632 63.6763 33.4658C63.6867 32.8679 63.9555 32.3065 64.4478 31.8711L64.6284 22.4814L64.6548 21.9336C64.697 21.3568 64.7858 20.702 64.9146 20.0674C65.0845 19.2301 65.3341 18.3795 65.6655 17.7832C66.3537 16.5445 67.4447 16.037 68.5698 15.875Z" fill="#F26524" stroke="#F26524"/>
<path d="M57.5859 13.4951C58.7968 12.9705 60.0211 13.6833 60.8114 14.9414C61.6151 16.2211 62.0965 18.2004 61.9247 20.6904V20.6914L61.5566 25.9346L61.5527 25.9678L59.4736 41.0674L59.4716 41.082L59.4687 41.0967L57.2841 52.1162C57.1679 52.7043 56.8608 53.3687 56.54 53.9727C56.2176 54.5793 55.8437 55.1909 55.5868 55.6396L55.5038 55.7842L55.3515 55.8506C53.237 56.769 51.1212 55.4676 50.1952 53.5947V53.5957C47.8172 48.8145 46.447 43.7421 45.1572 38.5596L45.1532 38.5439L41.4853 21.4248L41.4657 21.333L41.4814 21.2393L41.6738 20.0596C41.7132 19.8144 41.8775 19.6389 41.9843 19.543C42.1099 19.4302 42.2628 19.3344 42.415 19.2607C42.5675 19.1869 42.7403 19.1247 42.914 19.0947C43.0753 19.0669 43.3026 19.0554 43.5165 19.1533L43.8085 19.2861V19.2959L45.078 19.8789H45.08C45.4299 20.041 45.5048 20.396 45.5204 20.5898C45.538 20.8095 45.5029 21.0502 45.4521 21.2656C45.3706 21.6107 45.2253 21.9889 45.0654 22.2842L48.871 36.2627V36.2637C49.985 40.3704 51.2353 44.1602 52.8525 48.1191L53.9296 42.3281L55.5829 28.418L56.0214 20.1055L56.0566 15.6885C56.0575 15.4586 56.1342 15.2257 56.2216 15.0303C56.3137 14.8243 56.4385 14.6148 56.5761 14.4219C56.7139 14.2286 56.8721 14.0421 57.0361 13.8848C57.1946 13.7327 57.3831 13.5833 57.5849 13.4951H57.5859Z" fill="#F26524" stroke="#F26524"/>
<path d="M198.514 17.6943C200.699 17.4589 202.417 18.1759 203.77 19.4717C205.103 20.7485 206.071 22.5743 206.827 24.5586V24.5596C208.275 28.3693 208.211 32.7003 206.875 36.3916C205.539 40.0835 202.911 43.1829 199.194 44.4443V44.4434C197.847 44.9017 196.304 44.8631 194.904 44.4307C193.504 43.9981 192.206 43.1588 191.376 41.9668V41.9658C190.211 40.2984 189.323 38.6155 188.535 36.71C188.04 36.5181 187.477 36.281 186.97 35.9951C186.413 35.6808 185.847 35.2686 185.55 34.7324V34.7314C184.78 33.3519 184.735 31.9139 185.097 30.4053C186.315 25.3031 190.02 21.421 194.45 18.877L194.451 18.876C195.792 18.1102 197.073 17.8557 198.513 17.6953L198.514 17.6943ZM198.705 23.3223L198.706 23.3232C197.788 23.3657 196.791 23.7759 195.813 24.374C194.842 24.9679 193.932 25.7202 193.193 26.3916L193.192 26.3926L191.131 28.2568C191.024 29.9499 191.557 32.0154 192.145 33.6572C192.598 33.5876 193.045 33.5406 193.454 33.5264C193.908 33.5106 194.355 33.5329 194.718 33.6309L194.867 33.6777L195.096 33.7588L195.174 33.9893C195.307 34.3889 195.303 34.7758 195.163 35.1201C195.025 35.4581 194.775 35.7104 194.494 35.8857C194.099 36.1321 193.606 36.251 193.126 36.2529C193.123 37.6583 194.204 38.9563 195.523 39.5371H195.525C196.974 40.18 198.54 39.6949 199.887 38.5098L199.888 38.5088C202.859 35.9005 203.509 32.0729 202.645 28.1299L202.557 27.748C202.308 26.731 201.91 25.5727 201.276 24.6934C200.653 23.8291 199.835 23.2709 198.705 23.3223Z" fill="#F26524" stroke="#F26524"/>
<path d="M10.7793 15.9785C12.9633 14.5951 15.3379 14.0695 17.3193 14.2188C19.2695 14.3657 20.9793 15.189 21.5898 16.6631L21.6474 16.8262C21.8997 17.6727 21.5775 18.9292 20.4678 19.6064L20.3476 19.6797H19.8164L19.7158 19.3115L19.251 17.6172L19.2402 17.5967C19.2312 17.5845 19.2149 17.5672 19.1855 17.5459C19.1227 17.5004 19.0136 17.4482 18.8437 17.4072C18.5025 17.325 17.9969 17.3084 17.3623 17.4043C16.1004 17.595 14.4306 18.213 12.7568 19.4297C9.42858 21.849 6.0701 26.6483 5.9492 35.1689C5.89654 39.0938 6.06476 42.8765 8.16795 46.1191H8.16698C10.3966 49.5479 13.7078 52.1366 17.3389 54.1133C17.7249 54.323 18.136 54.3759 18.4814 54.2861C18.8157 54.1992 19.1245 53.9708 19.3223 53.54L19.3232 53.5391C19.7827 52.5469 19.94 51.2811 20.1064 50.2705C20.1468 50.0255 20.1887 49.7919 20.2373 49.5889C20.2842 49.393 20.3452 49.1882 20.4375 49.0215C20.5241 48.865 20.7104 48.6162 21.0488 48.5918C21.279 48.5752 21.4684 48.6746 21.6084 48.7832L21.7324 48.8916L21.7353 48.8945L22.4551 49.6113L22.5791 49.7344L22.5986 49.9082C22.9079 52.6078 22.4212 55.2594 20.5869 57.4033L20.5146 57.4883L20.414 57.5332C17.7412 58.7467 14.9356 58.1531 12.4326 57.1025H12.4316C7.44365 54.9989 3.65868 51.2355 1.87987 46.0557C0.128579 40.9567 0.064956 34.9002 1.57127 29.3994C3.07735 23.8997 6.16816 18.9023 10.7793 15.9785Z" fill="#F26524" stroke="#F26524"/>
<path d="M32.1093 20.5762C34.1897 20.4884 35.9121 21.6351 37.2294 23.2412C38.5473 24.848 39.5118 26.9713 40.0947 29.0029L40.2333 29.5059C41.5982 34.7053 40.9776 40.0075 39.4648 43.9238C38.6846 45.9434 37.6549 47.6248 36.5078 48.7363C35.367 49.8416 34.0302 50.4508 32.6884 50.0996L32.3144 50.001V49.9785C29.3264 49.0016 27.4594 46.0445 26.3574 42.7188C25.2016 39.2307 24.8297 35.1795 24.9365 32.0771C25.0214 29.5735 25.5294 26.7885 26.6386 24.5869C27.7506 22.3801 29.5142 20.6837 32.1093 20.5771V20.5762ZM31.5087 24.002C30.709 24.6058 30.2745 25.6363 30.0429 26.8525C29.794 28.1599 29.8018 29.5349 29.7519 30.5889V30.5918C29.7339 30.933 29.4912 31.1211 29.3144 31.2012C29.1411 31.2796 28.95 31.3003 28.7939 31.2988C28.6329 31.2973 28.4592 31.2718 28.3036 31.2158C28.2601 31.2002 28.2037 31.1729 28.1415 31.1377C27.8392 35.0969 28.8692 39.7341 30.3329 42.8232C30.7417 43.6858 31.1774 44.4124 31.6152 44.9619C32.0582 45.5181 32.4753 45.8577 32.8369 46.0029C33.168 46.1359 33.4591 46.1124 33.7538 45.9092C34.0805 45.684 34.4485 45.21 34.7997 44.3496C36.7436 39.5873 37.6709 34.4494 35.9423 29.7061L35.9413 29.7041C35.499 28.4809 34.9071 27.2162 34.1308 26.1631C33.4073 25.1816 32.5411 24.4077 31.5087 24.002Z" fill="#F26524" stroke="#F26524"/>
</svg>
