<svg width="253" height="152" viewBox="0 0 253 152" fill="none" xmlns="http://www.w3.org/2000/svg">
<mask id="path-1-outside-1_329_165" maskUnits="userSpaceOnUse" x="194.203" y="-0.25" width="59" height="152" fill="black">
<rect fill="white" x="194.203" y="-0.25" width="59" height="152"/>
<path d="M198.296 135.996C196.043 135.183 195.256 133.463 195.23 131.596L195.203 128.69L195.603 123.463L195.99 118.343L196.35 113.863L196.816 108.276L197.243 101.81L197.43 98.7432C197.576 96.3165 197.616 93.5832 198.136 91.3032C198.43 90.0499 198.776 89.0899 198.776 87.8633L198.736 81.6366C197.923 80.9966 197.216 79.9566 197.363 78.9566C197.483 78.2233 198.47 77.49 199.643 76.9967L199.883 71.29L200.576 66.5567L200.923 61.9968L201.203 57.5834L201.603 53.0635L201.99 48.9835L202.336 44.1702L202.976 37.5036L203.803 23.037L201.576 22.5437C201.043 21.517 201.19 20.1304 201.496 18.877C202.31 15.5571 203.616 11.3704 206.083 11.1571C206.856 11.0904 208.27 11.9704 208.496 12.9171C209.443 16.8771 209.736 20.797 209.896 24.8503L210.19 32.4236L210.11 38.3569L210.256 44.9835L210.23 48.2502L210.07 54.7035L209.483 65.3701V68.3967L209.03 74.7833L216.39 72.9433L224.11 71.0234L227.59 70.13L232.03 69.0367L237.936 67.8234L235.016 65.9967C234.67 65.7834 234.39 64.9167 234.43 64.5434C234.47 64.1701 235.563 63.7034 235.936 63.8634L240.336 65.7701L240.749 61.7034L241.336 53.8501L242.029 48.0102L242.669 41.5569L243.656 32.477L243.949 28.6903L244.656 21.6637L245.203 15.7837L245.616 11.5971C245.696 10.8238 245.589 9.21044 245.469 8.46378L244.696 3.46381C244.536 2.41048 245.669 1.09049 246.496 0.850495C247.763 0.477164 249.163 1.17049 249.589 2.49048C251.696 8.98377 251.643 15.5704 251.403 22.277L251.163 28.7436L251.016 32.2503L250.683 41.7569L250.363 49.2768L250.309 55.0235L250.043 63.9834L249.763 72.5033L249.296 79.5833L248.949 86.0099L248.696 93.2099L247.576 108.996L247.296 112.143L246.829 117.543L245.949 123.97L244.029 133.743L242.523 139.903L241.736 143.943L240.403 148.93C240.203 149.676 238.963 150.503 238.256 150.636C237.549 150.77 235.763 150.436 235.43 149.743C234.83 148.543 234.816 147.076 234.87 145.876L235.083 141.303L235.79 137.13C236.043 135.623 235.923 134.343 236.11 132.796L236.456 129.97L236.923 125.543L237.443 120.316L238.23 110.276L238.483 105.356L238.776 99.8765L239.163 92.4899L239.576 85.4366L239.843 80.25L239.976 72.8233L236.15 74.1967L232.123 75.3967L227.71 76.5967L224.243 77.4767L217.07 78.7833L208.15 79.9033C208.27 81.1433 208.603 82.8099 208.416 83.7833L207.71 87.5833C207.376 89.3432 207.27 90.4632 207.47 92.2099C207.696 94.0899 207.27 96.3965 207.043 98.3298L206.523 102.823L206.136 108.676L205.803 113.996L205.483 119.223L205.03 123.583L204.31 128.943C204.07 130.756 203.563 132.37 202.656 134.076C201.936 135.41 199.763 136.516 198.296 135.983V135.996Z"/>
</mask>
<path d="M198.296 135.996C196.043 135.183 195.256 133.463 195.23 131.596L195.203 128.69L195.603 123.463L195.99 118.343L196.35 113.863L196.816 108.276L197.243 101.81L197.43 98.7432C197.576 96.3165 197.616 93.5832 198.136 91.3032C198.43 90.0499 198.776 89.0899 198.776 87.8633L198.736 81.6366C197.923 80.9966 197.216 79.9566 197.363 78.9566C197.483 78.2233 198.47 77.49 199.643 76.9967L199.883 71.29L200.576 66.5567L200.923 61.9968L201.203 57.5834L201.603 53.0635L201.99 48.9835L202.336 44.1702L202.976 37.5036L203.803 23.037L201.576 22.5437C201.043 21.517 201.19 20.1304 201.496 18.877C202.31 15.5571 203.616 11.3704 206.083 11.1571C206.856 11.0904 208.27 11.9704 208.496 12.9171C209.443 16.8771 209.736 20.797 209.896 24.8503L210.19 32.4236L210.11 38.3569L210.256 44.9835L210.23 48.2502L210.07 54.7035L209.483 65.3701V68.3967L209.03 74.7833L216.39 72.9433L224.11 71.0234L227.59 70.13L232.03 69.0367L237.936 67.8234L235.016 65.9967C234.67 65.7834 234.39 64.9167 234.43 64.5434C234.47 64.1701 235.563 63.7034 235.936 63.8634L240.336 65.7701L240.749 61.7034L241.336 53.8501L242.029 48.0102L242.669 41.5569L243.656 32.477L243.949 28.6903L244.656 21.6637L245.203 15.7837L245.616 11.5971C245.696 10.8238 245.589 9.21044 245.469 8.46378L244.696 3.46381C244.536 2.41048 245.669 1.09049 246.496 0.850495C247.763 0.477164 249.163 1.17049 249.589 2.49048C251.696 8.98377 251.643 15.5704 251.403 22.277L251.163 28.7436L251.016 32.2503L250.683 41.7569L250.363 49.2768L250.309 55.0235L250.043 63.9834L249.763 72.5033L249.296 79.5833L248.949 86.0099L248.696 93.2099L247.576 108.996L247.296 112.143L246.829 117.543L245.949 123.97L244.029 133.743L242.523 139.903L241.736 143.943L240.403 148.93C240.203 149.676 238.963 150.503 238.256 150.636C237.549 150.77 235.763 150.436 235.43 149.743C234.83 148.543 234.816 147.076 234.87 145.876L235.083 141.303L235.79 137.13C236.043 135.623 235.923 134.343 236.11 132.796L236.456 129.97L236.923 125.543L237.443 120.316L238.23 110.276L238.483 105.356L238.776 99.8765L239.163 92.4899L239.576 85.4366L239.843 80.25L239.976 72.8233L236.15 74.1967L232.123 75.3967L227.71 76.5967L224.243 77.4767L217.07 78.7833L208.15 79.9033C208.27 81.1433 208.603 82.8099 208.416 83.7833L207.71 87.5833C207.376 89.3432 207.27 90.4632 207.47 92.2099C207.696 94.0899 207.27 96.3965 207.043 98.3298L206.523 102.823L206.136 108.676L205.803 113.996L205.483 119.223L205.03 123.583L204.31 128.943C204.07 130.756 203.563 132.37 202.656 134.076C201.936 135.41 199.763 136.516 198.296 135.983V135.996Z" fill="black"/>
<path d="M198.296 135.996C196.043 135.183 195.256 133.463 195.23 131.596L195.203 128.69L195.603 123.463L195.99 118.343L196.35 113.863L196.816 108.276L197.243 101.81L197.43 98.7432C197.576 96.3165 197.616 93.5832 198.136 91.3032C198.43 90.0499 198.776 89.0899 198.776 87.8633L198.736 81.6366C197.923 80.9966 197.216 79.9566 197.363 78.9566C197.483 78.2233 198.47 77.49 199.643 76.9967L199.883 71.29L200.576 66.5567L200.923 61.9968L201.203 57.5834L201.603 53.0635L201.99 48.9835L202.336 44.1702L202.976 37.5036L203.803 23.037L201.576 22.5437C201.043 21.517 201.19 20.1304 201.496 18.877C202.31 15.5571 203.616 11.3704 206.083 11.1571C206.856 11.0904 208.27 11.9704 208.496 12.9171C209.443 16.8771 209.736 20.797 209.896 24.8503L210.19 32.4236L210.11 38.3569L210.256 44.9835L210.23 48.2502L210.07 54.7035L209.483 65.3701V68.3967L209.03 74.7833L216.39 72.9433L224.11 71.0234L227.59 70.13L232.03 69.0367L237.936 67.8234L235.016 65.9967C234.67 65.7834 234.39 64.9167 234.43 64.5434C234.47 64.1701 235.563 63.7034 235.936 63.8634L240.336 65.7701L240.749 61.7034L241.336 53.8501L242.029 48.0102L242.669 41.5569L243.656 32.477L243.949 28.6903L244.656 21.6637L245.203 15.7837L245.616 11.5971C245.696 10.8238 245.589 9.21044 245.469 8.46378L244.696 3.46381C244.536 2.41048 245.669 1.09049 246.496 0.850495C247.763 0.477164 249.163 1.17049 249.589 2.49048C251.696 8.98377 251.643 15.5704 251.403 22.277L251.163 28.7436L251.016 32.2503L250.683 41.7569L250.363 49.2768L250.309 55.0235L250.043 63.9834L249.763 72.5033L249.296 79.5833L248.949 86.0099L248.696 93.2099L247.576 108.996L247.296 112.143L246.829 117.543L245.949 123.97L244.029 133.743L242.523 139.903L241.736 143.943L240.403 148.93C240.203 149.676 238.963 150.503 238.256 150.636C237.549 150.77 235.763 150.436 235.43 149.743C234.83 148.543 234.816 147.076 234.87 145.876L235.083 141.303L235.79 137.13C236.043 135.623 235.923 134.343 236.11 132.796L236.456 129.97L236.923 125.543L237.443 120.316L238.23 110.276L238.483 105.356L238.776 99.8765L239.163 92.4899L239.576 85.4366L239.843 80.25L239.976 72.8233L236.15 74.1967L232.123 75.3967L227.71 76.5967L224.243 77.4767L217.07 78.7833L208.15 79.9033C208.27 81.1433 208.603 82.8099 208.416 83.7833L207.71 87.5833C207.376 89.3432 207.27 90.4632 207.47 92.2099C207.696 94.0899 207.27 96.3965 207.043 98.3298L206.523 102.823L206.136 108.676L205.803 113.996L205.483 119.223L205.03 123.583L204.31 128.943C204.07 130.756 203.563 132.37 202.656 134.076C201.936 135.41 199.763 136.516 198.296 135.983V135.996Z" stroke="black" stroke-width="1.5" mask="url(#path-1-outside-1_329_165)"/>
<path d="M31.875 25.8428C33.7111 24.8121 35.3467 24.8897 37.2305 24.9561H37.2314C39.8802 25.0509 41.8327 25.5441 43.54 26.5078C45.0274 27.3474 46.3065 28.5322 47.6885 30.0713L48.2881 30.752L48.5889 31.1123C51.6513 34.8996 53.2334 40.6157 53.2988 45.3252V45.3262L53.3662 50.5654V50.5938L53.3623 50.6221L52.9219 53.7822L52.9199 53.7998L52.915 53.8174L51.502 59.7373L51.4941 59.7705L51.4814 59.8008L48.668 66.2275H48.667C47.7379 68.3415 46.625 70.3291 45.04 72.0508L45.0391 72.0518L42.3594 74.9453C38.9812 78.5959 34.7393 80.3133 30.0195 81.5469H30.0186L26.752 82.3984L26.7529 82.3994L22.7002 83.459L20.6738 84.3633C20.9859 85.2228 21.7097 86.0083 22.5674 86.6943L22.9863 87.0146L22.9883 87.0156H22.9873L26.8145 89.8555L26.832 89.8682L26.8477 89.8838C28.4511 91.3882 30.1925 92.6877 31.9268 94.0303C33.4385 95.2006 34.9412 96.4008 36.3047 97.7803L36.8799 98.3828L36.8965 98.4004L36.9102 98.4209L41.3506 104.714L41.3721 104.745L41.3877 104.779L42.6279 107.605L42.9209 108.242C43.2202 108.866 43.5355 109.459 43.8428 110.068C44.1979 110.773 44.5365 111.491 44.8008 112.271L44.9102 112.608L46.9629 119.408L46.9639 119.409C47.3337 120.647 47.2915 122.032 46.9229 123.261C46.5549 124.487 45.8487 125.597 44.8477 126.245C43.8805 126.871 42.991 127.082 42.1348 127.003C41.2912 126.925 40.5175 126.57 39.7744 126.134L39.7734 126.133C38.7873 125.55 38.2899 124.884 37.9766 124.104C37.8243 123.726 37.7172 123.325 37.6162 122.912C37.5137 122.493 37.4173 122.064 37.2832 121.593V121.592L36.0908 117.445L33.8008 112.044L30.5127 106.578L26.042 101.34L21.1455 96.9492L21.1768 101.182H21.1895L21.1924 101.554C21.2059 103.332 21.0976 104.952 20.8145 106.786L20.415 109.388C21.1421 111.473 21.3263 113.283 21.0977 115.528L20.873 117.78L21.2051 124.11C21.2973 125.862 21.3339 128.064 19.9199 129.596L19.9209 129.597C18.8495 130.764 17.1241 131.246 15.5508 131.076C13.9747 130.906 12.4493 130.067 11.8652 128.473V128.472C11.6991 128.021 11.5086 127.381 11.3594 126.75C11.2118 126.126 11.0957 125.477 11.0957 125.023V121.062C11.1093 118.762 11.3217 116.864 11.0586 114.654V114.653C10.8707 113.039 11.1857 111.696 11.4219 110.394C11.6589 109.087 11.8279 107.782 11.4268 106.139V106.138C11.306 105.634 11.1536 104.963 11.0352 104.307C10.9182 103.658 10.8281 102.995 10.8428 102.519L10.9355 99.1436L10.6162 88.1279L10.6152 88.0996L10.6191 88.0713C10.8007 86.5928 10.7218 85.1589 10.4004 83.8604L10.3799 83.7783L10.3965 83.6953C10.9181 81.1392 10.8417 78.7536 10.2529 76.2285L10.2314 76.1387L10.2549 76.0488L10.7197 74.2637L10.5361 70.1738C10.4459 68.2019 10.2817 66.2587 11.1475 64.1904L10.5596 62.6074L10.5361 62.5449V62.4785L10.4736 47.7441C7.23026 51.3602 4.66682 55.3684 3.24414 59.9531C3.2411 60.1561 3.22681 60.3833 3.2373 60.6367C3.24274 60.7678 3.25518 60.8719 3.27344 60.9424C3.27587 60.9517 3.27917 60.9593 3.28125 60.9658L4.57031 61.668L4.57715 61.6709L4.58301 61.6748L5.63086 62.2988H5.63184C5.77079 62.3793 5.8382 62.5063 5.86914 62.6045C5.8998 62.7019 5.90512 62.8011 5.90234 62.8848C5.89672 63.0535 5.85353 63.2373 5.7959 63.3994C5.73824 63.5616 5.65592 63.7313 5.55371 63.8662C5.50292 63.9332 5.4361 64.007 5.35156 64.0635C5.26877 64.1187 5.14368 64.1724 4.99219 64.1553V64.1562L4.9834 64.1553H4.98047V64.1543L3.69922 64.0234V64.0225C2.78391 63.9319 2.05067 63.6065 1.50684 63.0664C0.965883 62.5291 0.641072 61.8088 0.486328 60.9795C0.179314 59.3335 0.526784 57.1758 1.29883 54.8613C2.84717 50.2199 6.17133 44.7465 9.88574 41.0254L14.8721 36.0254L14.8877 36.0107L14.9043 35.9971L21.5312 30.7305L22.0332 30.3398C24.5104 28.4565 26.4765 27.5792 28.0693 27.0557C28.9104 26.7793 29.6519 26.6012 30.2773 26.4307C30.8331 26.2792 31.2972 26.1337 31.7041 25.9326L31.875 25.8428ZM33.082 32.0254H33.0811C32.9555 32.0288 32.717 32.0803 32.3594 32.1982C32.0129 32.3125 31.5868 32.4776 31.1025 32.6836C30.1348 33.0953 28.9517 33.6625 27.7344 34.2891C25.2917 35.5462 22.7514 37.023 21.5537 37.9473L16.9404 41.5078L16.9395 41.5068L14.4619 43.5918C15.3829 44.3479 16.0881 45.4767 16.6377 46.7979C17.266 48.3083 17.7078 50.1098 18.0293 51.9893C18.6717 55.745 18.846 59.8864 19.0449 62.7578L19.2305 65.4941L19.8252 71.6758H19.8496L19.8721 72.0264L20.1729 76.833L22.4893 75.9912L22.5 75.9873L31.0684 73.1572C33.4278 71.911 35.7185 70.7722 37.3506 68.9346C42.0829 63.5824 44.8146 57.1204 45.7656 50.1201V50.1191C46.001 48.4129 46.0221 46.3335 45.8115 44.3262C45.6005 42.3146 45.16 40.406 44.4932 39.0273L42.9199 35.7734L42.9189 35.7725C42.402 34.6959 41.3596 33.7153 40.1162 33.0098C38.874 32.305 37.4776 31.9007 36.2949 31.9316L33.082 32.0254Z" fill="black" stroke="black" stroke-width="0.75"/>
<path d="M164.957 37.0771C168.103 37.2421 170.555 38.4538 173.102 39.9688C174.395 40.7393 175.382 41.8026 176.372 42.6768L176.913 43.1592C179.588 45.5751 181.759 48.0365 183.152 51.5117L185.578 57.5645C187.046 61.2172 187.203 65.434 186.897 69.3584L186.83 70.1396L186.563 72.9268C186.402 74.6077 186.024 76.7753 185.292 78.417V78.418L183.225 83.0176L183.211 83.0498L183.192 83.0781L181.112 86.0781C179.652 88.1808 177.978 90.2692 175.796 91.71L175.795 91.7109L171.996 94.2031L171.997 94.2041C168.721 96.3652 164.63 97.566 160.765 97.8633L160.766 97.8643L156.672 98.1846L156.642 98.1875L156.611 98.1846L151.251 97.7109L151.552 98.8193L151.578 98.9141L151.554 99.0088C151.3 100.027 151.246 101.134 151.272 102.375L151.539 112.89L151.858 121.383L151.859 121.392L151.965 129.032V129.048L151.819 134.114L151.817 134.134L151.231 141.374L151.23 141.382L151.229 141.389L150.75 145.349L150.748 145.365L150.744 145.382L150.01 148.809L149.909 149.282L149.815 149.235C149.43 150.158 148.566 150.605 147.653 150.738C146.612 150.89 145.431 150.657 144.569 150.226C142.845 149.363 142.308 147.344 142.322 145.274L142.349 141.015L142.295 136.521V136.515L142.388 122.661L142.335 119.123V119.12L142.255 107.049L142.016 103.503L142.014 103.478L142.016 103.452L142.283 99.5059C142.516 96.0399 142.095 94.7642 141.569 94.1582C141.306 93.8548 140.993 93.6892 140.609 93.4971C140.234 93.3096 139.786 93.0948 139.388 92.6855L139.386 92.6836L136.787 89.9775L136.786 89.9766C136.282 89.4491 135.873 88.4479 135.647 87.4717C135.532 86.9738 135.459 86.461 135.447 85.9883C135.435 85.5214 135.482 85.0652 135.628 84.6982C136.22 83.2151 137.477 82.2959 138.888 81.8828C140.182 81.5042 141.63 81.5425 142.885 81.9697C143.256 81.1502 143.31 80.2439 143.261 79.2559C143.234 78.6998 143.177 78.1482 143.133 77.5645C143.09 76.9901 143.061 76.4009 143.096 75.8154V75.8135L143.736 65.7607L143.737 65.75L143.738 65.7402L144.081 62.833L144.048 60.166L143.259 60.627L143.26 60.6279C143.141 60.6983 143.009 60.7162 142.903 60.7178C142.792 60.7194 142.676 60.7032 142.561 60.6768C142.331 60.6238 142.066 60.5214 141.79 60.3809C141.235 60.0988 140.591 59.6416 140.021 59.0381C138.879 57.8286 137.993 55.9759 138.826 53.7461C140.189 50.0844 142.263 47.1559 144.718 44.0488L144.258 40.4863L144.243 40.3262C144.216 39.9442 144.262 39.5046 144.366 39.1104C144.479 38.6797 144.688 38.2026 145.043 37.9561C145.232 37.8254 145.487 37.7536 145.729 37.7139C145.981 37.6724 146.264 37.6592 146.539 37.6738C146.812 37.6884 147.093 37.731 147.336 37.8105C147.566 37.8855 147.825 38.0126 147.979 38.2383L149.495 40.4414C149.802 40.2759 150.123 40.0958 150.456 39.9033C150.89 39.6515 151.346 39.3855 151.812 39.1396C152.74 38.6502 153.745 38.219 154.779 38.1182L164.899 37.0781L164.927 37.0752L164.957 37.0771ZM159.828 43.2656C157.064 43.345 154.263 44.328 150.458 45.9854L151.178 60.4453V60.4619L151.218 66.5947V66.6055L151.166 69.0322L151.206 76.4893V76.5391L151.193 76.5879C150.495 79.1872 150.735 81.774 151.161 84.5674L151.166 84.5996V84.6309L151.091 88.6387C153.306 88.9758 156.616 88.7805 159.839 88.1875C163.225 87.5645 166.42 86.5222 168.101 85.2822H168.102L170.755 83.335L171.333 82.9102C173.642 80.9158 174.823 78.0227 175.824 75.2178L177.089 71.6328L177.09 71.6318C177.874 69.4249 178.197 67.161 177.963 64.876L177.658 61.8789L176.863 57.9795C176.435 55.8795 175.592 54.1487 174.432 52.3037V52.3027C174.196 51.9289 173.965 51.5146 173.736 51.0957C173.504 50.6726 173.273 50.2448 173.03 49.8311C172.601 49.1015 172.156 48.4529 171.651 47.999L171.43 47.8164L169.236 46.1514C165.432 44.032 162.627 43.1852 159.828 43.2656ZM142.474 85.5742C142.438 85.579 142.413 85.5839 142.399 85.5869C142.39 85.5935 142.379 85.6039 142.365 85.6172C142.346 85.6348 142.327 85.6543 142.309 85.6758C142.35 85.7028 142.393 85.7297 142.437 85.7568L142.474 85.5742ZM144.659 51.2969C143.623 52.5865 142.845 53.9051 142.491 55.582C142.457 55.7454 142.49 55.9413 142.607 56.165C142.724 56.3895 142.915 56.619 143.151 56.8281C143.502 57.1388 143.906 57.3619 144.243 57.4648L144.659 51.2969Z" fill="black" stroke="black" stroke-width="0.75"/>
<path d="M75.6089 51.4287C76.0126 51.4426 76.4182 51.4866 76.7778 51.5703C77.1296 51.6522 77.4756 51.7805 77.7251 51.9893L80.9253 54.6699L80.979 54.7148L81.0132 54.7773C82.7691 57.9987 83.9905 61.4058 84.8335 64.9512L84.9966 65.6621L84.9976 65.6631L86.064 70.5303L86.0659 70.5381L86.0669 70.5459L88.1206 82.3457L88.1226 82.3604L88.1245 82.374L88.4438 85.7207L88.4966 86.1689C88.5578 86.6187 88.641 87.0724 88.7163 87.5371C88.8149 88.1455 88.8994 88.7681 88.8853 89.3652V89.3662C88.8661 90.0956 88.9361 90.7525 89.0317 91.4385C89.1266 92.1187 89.2503 92.8446 89.3247 93.6699L89.5513 96.1895V96.1934L89.9233 100.866H89.9243L90.3374 105.026V105.027L90.9634 111.54L91.3765 115.112L91.4263 115.58C91.6419 117.918 91.3874 120.21 91.1636 122.523L90.7778 126.725L90.7632 126.877L90.647 126.976L88.2866 128.976C87.3662 129.758 86.3359 129.825 85.3237 129.431C84.3395 129.047 83.3651 128.228 82.4556 127.23C80.6307 125.229 78.9493 122.371 77.8589 120.291L77.8579 120.289C77.7822 120.143 77.7426 119.964 77.7192 119.803C77.6948 119.633 77.6838 119.448 77.6812 119.271C77.6759 118.92 77.7029 118.559 77.7427 118.353L77.7661 118.267C77.7949 118.185 77.8379 118.115 77.8784 118.061C77.9349 117.985 78.0035 117.916 78.0737 117.854C78.2141 117.732 78.3883 117.619 78.563 117.53C78.7357 117.443 78.9297 117.368 79.1128 117.336C79.2042 117.32 79.3093 117.311 79.4146 117.327C79.4941 117.339 79.5875 117.368 79.6733 117.428L79.7563 117.499L79.7612 117.504L81.9556 119.916L81.2437 112.098L81.1499 111.066L81.1997 111.116L80.6646 101.733L73.5933 102.29L73.5747 102.292H73.5571L68.8638 102.198C68.377 102.189 68.069 102.298 67.8638 102.447C67.657 102.598 67.5137 102.82 67.4116 103.112C67.3083 103.409 67.2551 103.755 67.2153 104.13C67.1869 104.398 67.1641 104.695 67.1313 104.973L67.0942 105.242L66.1216 111.375L66.1206 111.381L64.2134 122.341C64.0074 123.522 63.6317 124.617 62.9683 125.51C62.2995 126.41 61.354 127.084 60.0493 127.438L60.0483 127.438C59.2973 127.644 58.4292 127.539 57.6948 127.168C56.9552 126.794 56.3253 126.138 56.0942 125.223V125.224C55.5544 123.145 55.2284 120.976 55.2827 118.761V118.76L55.4165 113.946V113.934L55.6704 109.84V109.836L56.3237 100.996V100.992L57.0835 91.8984L57.0845 91.8906L57.0854 91.8838L57.8989 85.3896L58.6851 78.9775L58.8062 78.0469C59.4385 73.411 60.4846 69.0521 62.1323 64.5869C62.3222 64.0681 62.7692 63.5951 63.2603 63.2695C63.749 62.9455 64.3596 62.7167 64.9165 62.7852H64.9224C65.1902 62.822 65.4261 62.963 65.6235 63.1309C65.8235 63.3009 66.0095 63.5208 66.1802 63.7578C66.351 63.995 66.5139 64.2615 66.6665 64.5352L68.0464 60.1768L68.0493 60.167L68.0532 60.1582L69.3862 56.625L69.3872 56.624C69.7364 55.7042 70.1855 54.6458 70.8188 53.7305C71.4532 52.8138 72.2906 52.0139 73.4233 51.6533L73.4282 51.6514C73.9607 51.4887 74.8086 51.4012 75.6089 51.4287ZM74.4819 62.7871C72.9869 67.1778 71.8382 71.2 71.2017 75.5576V75.5586L70.7622 78.5449L70.7612 78.5498L69.6812 85.2568L69.1099 89.9219L69.1089 89.9287L68.4224 94.8242L73.5552 94.7021L73.564 94.7012V94.7021H73.5942L79.7681 94.9756L78.3804 82.6035L76.7964 72.8311L75.2935 65.3721L74.4819 62.7871ZM65.4556 69.4668C65.504 69.3469 65.5561 69.2325 65.6011 69.1309C65.6978 68.9123 65.7661 68.745 65.7896 68.6035C65.8103 68.4782 65.7887 68.4184 65.7485 68.3701C65.7217 68.3379 65.674 68.297 65.5913 68.2529L65.4556 69.4668Z" fill="black" stroke="black" stroke-width="0.75"/>
<path d="M108.612 18.7207C109.31 18.6066 109.886 18.8404 110.333 19.2959C110.764 19.735 111.072 20.373 111.301 21.082C111.702 22.3257 111.899 23.9116 112.022 25.377L112.071 25.9961V25.9971L112.444 31.1562L112.445 31.1748V31.1934L112.219 40.2197V40.2246L111.778 52.0908V52.0986L111.777 52.1064L111.458 56.1865L111.457 56.1885L110.564 66.6416L110.563 66.6533L110.19 66.6104L110.562 66.6533L109.791 73.374L109.525 79.1602L109.524 79.1836L109.521 79.2061L108.71 83.9824L108.485 89.1729L108.484 89.1875L108.482 89.2012L106.51 105.734L105.929 112.127L108.155 111.669L108.177 111.665L110.923 111.267L113.853 110.591H113.854C116.883 109.897 120.388 109.22 123.597 109.274H123.598L127.957 109.354L127.971 109.355L132.477 109.596H132.476C132.734 109.608 132.972 109.605 133.217 109.605C133.455 109.606 133.7 109.61 133.939 109.642C134.424 109.706 134.88 109.886 135.314 110.338C136.269 110.9 136.977 111.7 137.293 112.655C137.616 113.631 137.517 114.728 136.92 115.828L136.866 115.928L136.767 115.98C133.497 117.724 130.179 118.034 126.697 118.287L122.961 119.07L122.936 119.074L116.322 119.994L116.316 119.995L112.806 120.433L104.439 122.48H104.438C104.018 122.582 103.614 122.719 103.205 122.86C102.801 123 102.387 123.145 101.972 123.254C101.129 123.474 100.242 123.552 99.2598 123.143L99.2578 123.142C97.215 122.28 96.4877 120.113 96.3525 117.725C96.2163 115.316 96.6687 112.525 97.1426 110.176V110.175L97.6094 107.882L98.3389 102.269L100.498 85.1367L100.501 85.1172L100.505 85.0977L101.398 81.2715C101.579 80.5 101.553 79.64 101.539 78.7344C101.526 77.8572 101.524 76.9249 101.811 76.124V76.123C102.223 74.9761 102.412 73.8528 102.532 72.7129C102.592 72.1418 102.635 71.5705 102.681 70.9883C102.726 70.4081 102.774 69.8178 102.845 69.2197L103.911 60.1396L104.443 54.6543L104.777 51.1611L105.284 45.9336V45.9287L105.976 39.7666L106.256 33.5273V33.5244L106.909 20.6045C106.93 20.149 107.225 19.7029 107.525 19.3877C107.684 19.2217 107.862 19.0731 108.041 18.958C108.215 18.8462 108.414 18.751 108.612 18.7197V18.7207Z" fill="black" stroke="black" stroke-width="0.75"/>
</svg>
