<svg width="535" height="113" viewBox="0 0 535 113" fill="none" xmlns="http://www.w3.org/2000/svg">
<path d="M6.10262 102.259L7.92631 47.8878C7.97697 46.6745 6.27992 43.3632 5.59604 43.9193C5.06413 44.3743 3.79768 46.1943 3.72169 47.2559L0.0489786 99.2255C-0.50826 107.036 3.77235 111.535 8.66085 112.572C14.9678 113.911 28.7721 112.167 29.6586 105.469C29.9879 103.068 29.8359 98.998 29.456 96.9758C25.8846 101.374 10.1806 106.278 6.10262 102.233V102.259Z" fill="#D9D9D9"/>
<path d="M77.024 62.7255C78.6198 69.525 66.2085 69.3228 63.1437 69.4744L42.1713 70.3591L41.9433 85.5506C48.6555 84.2109 89.6379 75.9706 88.2448 85.8539C88.0168 87.4717 85.4079 89.1147 83.1537 89.1147C69.2227 89.0641 54.4812 89.1147 41.1834 92.5271C39.917 92.8557 37.5614 95.6867 36.2949 95.4845C26.29 93.8668 32.0396 77.285 32.3183 75.8695C33.914 68.0842 33.9393 60.1725 34.6485 52.0838L36.0416 36.2604C36.1176 35.2746 37.5867 33.7074 38.3972 33.6821C39.2078 33.6821 41.1328 35.1482 41.2341 36.0329L42.1713 45.8909L59.0911 42.8577C63.9542 41.973 77.5559 39.3189 79.7849 43.9699C81.5326 47.5845 71.401 50.4914 69.1973 50.4155C65.3727 49.6825 62.0546 49.0253 58.4578 49.5056L42.2472 51.7299L42.5765 63.9135L72.2368 59.9955C73.8832 59.7933 76.6441 61.3605 76.9734 62.7507" fill="#D9D9D9"/>
<path d="M108.761 92.072C108.812 93.0578 107.064 94.7767 106.203 94.8525C102.1 95.1811 102.302 84.8934 102.429 81.7337L104.075 44.9556L87.6621 46.9272C86.8262 47.0283 85.0279 45.7645 84.9012 44.9556C84.7999 44.1468 85.9144 42.3521 86.7249 42.1752L95.5901 40.4816L121.451 35.0218C122.869 34.7184 125.022 35.6537 125.428 36.7406C126.01 38.333 124.769 40.3552 122.895 40.7596L107.925 43.9951L108.204 66.3906C108.28 72.9373 107.925 79.3324 108.356 85.8792L108.761 92.072Z" fill="#D9D9D9"/>
<path d="M140.499 25.0629C140.068 29.3853 138.472 49.6827 134.192 48.8991C133.305 48.7475 131.937 46.5484 132.089 45.5626L135.61 24.8859C135.762 23.9507 137.079 22.5099 137.89 22.4341C138.827 22.3582 140.575 24.0771 140.473 25.0376" fill="#D9D9D9"/>
<path d="M175.022 71.2943C170.007 67.0983 163.548 66.8961 158.355 66.7444C154.708 66.6433 151.567 66.5422 150.351 65.0256C147.287 61.2593 147.565 56.1533 148.325 52.5134C150.2 43.6412 157.19 33.5556 164.13 29.5619C166.106 39.8749 161.724 46.2447 158.811 50.4913C156.76 53.474 155.139 55.8247 157.52 57.6447L157.874 57.9227L158.254 57.6699C166.638 52.0584 171.248 42.4532 170.893 31.3313C170.817 29.1574 170.057 26.2506 168.132 24.5065C167.018 23.5207 165.701 23.0657 164.181 23.1921C160.382 23.4954 157.646 26.4781 155.215 29.1069C154.733 29.6377 154.252 30.1685 153.771 30.6488C145.286 39.2935 141.208 50.4154 142.55 61.1835C143.867 71.6734 152.479 72.3812 160.078 72.9878C166.359 73.4934 171.78 73.9231 172.312 79.5599C172.464 81.1018 170.311 83.3009 167.221 84.7922C163.497 86.5616 157.976 87.4716 154.455 84.3119V80.5962L153.72 80.7226C151.947 81.0259 150.655 81.3545 149.921 81.7084C148.781 82.2392 148.528 85.0703 148.933 86.1066C150.833 90.9851 155.848 94.1953 160.99 94.1953C161.978 94.1953 162.991 94.0689 163.979 93.8161C168.664 92.6028 175.731 90.7576 178.391 84.4383C180.189 80.1412 178.087 73.8725 175.047 71.3448L175.022 71.2943Z" fill="#D9D9D9"/>
<path d="M214.865 36.2858C213.649 39.041 213.446 41.5181 212.99 44.2986L204.226 98.9729C204.049 100.035 203.188 101.905 202.631 102.486C201.921 103.219 199.743 101.02 199.718 99.8323C199.363 78.4479 205.721 42.7062 210.128 21.5746C210.432 20.0832 212.256 18.3391 213.218 18.1622C222.514 16.2158 226.491 61.3353 231.404 71.4714C234.951 62.8772 238.851 13.3595 248.426 11.4132C256.531 9.77018 258.557 37.7519 259.14 45.8405C260.204 60.9562 261.875 75.1113 264.028 90.2523C264.408 92.9569 263.471 95.9396 261.774 96.5968C259.9 97.3299 256.885 95.4341 256.556 92.7294L253.897 72.1034C251.516 53.7775 252.402 44.9811 248.932 27.8685C247.514 32.8228 246.425 36.6649 245.563 41.0884L240.168 68.7668L237.281 84.1352C236.926 86.0057 234.419 88.6851 232.975 88.9884C225.959 90.3787 222.489 69.1965 220.842 62.1189L214.89 36.2858H214.865Z" fill="#D9D9D9"/>
<path d="M312.559 50.6179C308.075 55.37 305.137 51.8564 301.743 51.7048L280.593 50.8201L279.2 69.879L311.824 67.6546C313.572 67.5282 316.991 69.6009 317.27 71.1681C318.815 79.3326 283.126 75.541 278.035 76.0719C276.769 78.8271 272.995 84.7419 269.499 81.835C265.396 78.4479 267.498 71.4462 268.436 66.7193C271.652 50.3651 271.475 34.845 271.399 18.0358C271.399 16.8225 273.172 14.0925 274.363 14.1937C275.553 14.2948 277.782 16.0894 278.01 17.2269L279.53 24.7342C286.723 24.5572 322.64 16.8225 321.12 25.9728C320.867 27.4641 318.942 30.4215 317.473 30.8765L312.356 32.469C311.318 32.7976 310.076 30.2699 309.063 29.1071L280.492 31.2557C279.783 35.6286 279.935 39.4707 280.821 44.6778L309.899 43.7678C311.242 43.7172 314.104 45.613 314.585 46.523C315.193 47.6099 313.572 49.5815 312.508 50.6937" fill="#D9D9D9"/>
<path d="M345.841 73.5189L365.623 70.1065C366.586 69.7021 368.131 67.5535 369.169 67.3766C370.36 67.1744 378.617 69.2976 379.655 72.5331C380.111 73.9739 377.426 77.0577 375.881 77.3357L348.957 81.8098C341.94 82.9725 335.355 83.6297 328.187 84.1605C325.477 84.3627 323.273 80.4448 323.577 77.5885L326.085 55.3447C326.236 54.005 323.146 51.5531 323.628 50.6179C324.109 49.6826 326.718 47.7869 326.768 46.6494L327.756 26.9333C327.883 24.355 331.024 21.3976 333.607 21.0438C340.091 20.1843 363.344 16.14 365.446 20.5129C365.826 21.2712 363.926 23.0912 362.71 23.2429L334.95 26.7058L334.57 45.8658L354.149 43.0601C356.125 42.782 360.228 43.8942 361.469 45.1075C363.217 46.8263 364.255 49.6068 364.23 52.6653L358.354 49.8596L334.392 52.2103L332.341 74.9091C337.407 74.6058 341.231 74.3278 345.791 73.5442" fill="#D9D9D9"/>
<path d="M437.102 2.46507C436.089 1.20122 432.998 -2.66617 400.147 3.27394L372.893 8.20296C371.55 8.43045 369.473 9.51736 369.22 11.1098C368.992 12.5001 369.574 13.41 370.081 13.9156C372.158 15.9883 377.35 15.4322 381.606 14.7497L400.603 11.7165L398.728 30.4468L395.663 72.078C395.511 74.0749 395.055 75.996 394.6 77.8665C393.713 81.6075 392.877 85.1463 395.613 86.9662C396.069 87.2696 396.727 87.3959 397.436 87.3959C398.981 87.3959 400.78 86.8146 401.438 85.8793C403.085 83.5791 404.098 80.9503 404.326 78.4731C404.529 76.4004 404.731 74.3783 404.959 72.3561C405.44 67.9832 405.947 63.4586 406.048 58.9087L407.289 10.7559L433.809 8.32934C434.974 8.22824 436.747 7.01494 437.431 5.47304C437.887 4.4114 437.76 3.34977 437.051 2.49035L437.102 2.46507Z" fill="#D9D9D9"/>
<path d="M485.556 35.9571C486.848 18.7687 479.376 17.1257 480.819 13.41C481.275 12.2473 484.315 11.7164 485.657 12.677C488.925 14.9772 491.356 19.0973 491.812 23.2933C492.8 32.6458 493.053 41.9478 491.508 51.2245C490.191 59.2373 485.429 73.4683 475.551 74.3782C469.801 74.909 465.014 69.4239 463.14 64.1157C456.909 46.346 454.655 26.6552 454.705 7.77321C454.705 6.98962 456.149 5.49828 456.807 5.473C457.491 5.44773 458.91 6.81269 458.96 7.49517C460.708 27.0343 462.659 47.6098 470.384 65.5565C470.865 66.6687 473.246 68.1854 474.386 68.0842C478.438 67.7556 483.96 57.114 484.492 50.087L485.556 35.9571Z" fill="#D9D9D9"/>
<path d="M500.829 67.3763L499.107 42.7312V29.5113L498.727 8.17749C498.727 7.29279 500.12 5.44757 500.905 5.39702C501.691 5.32119 502.45 6.78725 503.236 8.53137L506.655 4.41121C510.378 -0.0881026 518.053 -1.60473 522.992 2.03517C536.822 12.1713 539.38 35.957 527.096 45.36C521.143 49.9099 513.165 50.0363 506.25 46.6997L507.187 66.34C507.263 67.7555 505.541 69.8282 504.401 70.081C503.058 70.3843 500.931 68.9941 500.829 67.4016M512.481 41.9223C518.23 43.7676 525.601 41.2651 527.526 34.6173C530.439 24.557 527.805 12.3482 518.661 6.43337C514.203 3.55179 508.327 8.55665 507.339 13.0054C505.186 22.5854 504.274 31.3818 505.971 41.4926C508.453 40.9113 512.329 39.4958 514.431 38.6869C514.938 38.4847 515.546 40.3046 515.064 40.5574L512.481 41.9223Z" fill="#D9D9D9"/>
</svg>
