<svg width="576" height="132" viewBox="0 0 576 132" fill="none" xmlns="http://www.w3.org/2000/svg">
<path d="M220.538 65.8688C220.622 65.9106 220.608 66.3012 220.677 66.3292C221.054 66.4408 221.431 65.8827 222.114 66.7337C222.575 67.3196 222.421 67.7242 222.616 68.1427C222.756 68.4496 223.188 68.4078 223.244 68.645C224.332 73.8904 220.37 83.2513 217.483 87.6876C216.953 88.5107 215.39 90.5754 214.665 91.0776C212.07 92.8912 209.405 89.7523 209.838 89.3617L212.307 90.0034C212.949 89.9894 214.162 87.6457 214.483 86.9621C215.474 84.7998 216.98 79.359 217.357 77.3502C217.831 74.839 217.706 71.7978 218.362 69.2309L217.859 68.4217L216.06 70.054C215.753 68.5752 219.38 65.2829 220.566 65.8967L220.538 65.8688Z" fill="#E3E3DB"/>
<path d="M489.213 0.189367C489.213 0.189367 489.297 0.552084 489.436 0.635787C489.701 0.789245 490.12 0.705541 490.287 0.984554C490.357 1.09616 491.18 3.18875 491.208 3.31431C491.445 4.37456 491.585 5.19765 491.822 6.43925C492.868 11.6847 492.394 17.7951 492.394 23.8218C492.394 25.1052 493.342 27.1699 492.24 28.1046L492.896 28.4534L492.268 37.9398L492.854 38.2328C492.673 39.8092 492.157 42.2505 493.217 43.4782L492.533 44.106C493.677 46.0591 492.701 47.8587 492.701 49.5328C492.701 53.8017 493.049 58.3217 493.245 62.7161C493.287 63.5671 494.235 65.3389 492.882 65.2412L493.538 65.7295L492.882 66.8734L493.566 67.0687L493.231 68.0453L493.817 68.3382C493.538 72.1328 493.538 74.616 491.836 78.1176C491.515 78.7733 492.003 79.3174 491.013 79.9033C489.283 80.9357 487.413 78.5501 486.772 77.0853C485.153 73.4023 484.832 71.505 484.693 67.4035C484.693 67.278 482.893 66.148 484.386 65.7155L483.702 61.1955L484.386 60.5119L483.73 60.6793C483.87 59.8144 484.4 59.1169 484.274 58.1682C483.312 50.4117 483.702 41.9855 483.828 34.0755C483.856 32.2061 484.791 30.1414 483.396 28.4394L484.051 28.0767C484.205 25.8027 483.27 22.5801 483.368 20.5852C483.423 19.3575 484.442 18.1578 483.396 16.4977L478.876 30.4902C478.973 34.2987 477.201 37.9258 476.532 41.553C476.434 42.0552 476.769 42.5854 476.685 43.0318C476.434 44.3013 473.309 47.9564 471.803 47.9145C471.538 47.0217 470.924 47.3565 470.352 47.0496C469.877 46.7985 467.115 44.957 467.045 44.7059C466.99 44.2315 467.129 43.6596 466.976 43.2131C465.064 37.5352 463.99 30.4483 462.874 24.8122C462.735 24.1287 462.986 22.915 462.749 22.2314C462.581 21.7431 461.967 21.785 461.856 21.6594C461.758 21.5478 462.637 20.1109 461.814 20.069C460.405 26.584 459.414 33.5453 458.996 40.2138C458.34 50.7604 459.554 61.6698 458.87 71.9236C458.773 73.4721 458.354 77.9781 455.829 77.2946C455.731 77.2667 454.155 76.318 454.071 76.2483C453.123 75.4252 452.76 73.8069 452.662 72.5932C452.537 71.0586 453.011 69.5798 452.955 68.3801C452.565 60.0376 452.314 51.8346 452.816 43.4782C452.899 42.0413 452.872 34.1313 453.039 33.657C453.639 31.8852 453.248 32.0805 453.471 30.3786C454.267 24.0868 455.536 17.6835 457.81 11.9916C457.908 11.7544 459.191 9.71765 459.359 9.5921C460.796 8.5179 463.99 8.37839 465.413 9.45259C465.846 9.77346 466.013 10.5826 466.404 11.0988C466.627 11.4057 467.199 11.4754 467.31 11.6289C467.408 11.7544 467.115 12.6891 467.213 13.0379C467.589 14.3214 468.929 20.6131 469.11 20.9898C469.138 21.0456 469.752 21.0735 469.877 21.6734C470.101 22.8034 470.031 25.0773 470.338 26.3887C470.421 26.7653 471.286 26.8072 471.3 27.1002C471.3 27.1978 470.115 28.9835 471.147 28.8998C472.528 28.0209 471.231 26.7235 471.314 26.6119C471.342 26.57 471.984 26.6537 472.235 26.0539C472.681 25.0215 472.919 21.8826 473.295 20.641C473.867 18.7577 474.9 16.8464 475.416 14.5167C475.681 13.3169 475.081 12.2148 476.546 12.5357L475.89 11.894L477.188 11.5452C476.532 10.471 477.606 9.96877 477.941 9.17358C478.931 6.84382 479.657 3.85839 481.303 1.43097C481.959 0.46838 481.526 1.76579 482.098 1.73789C481.763 0.649738 483.075 0.454429 483.954 0.231219C485.781 -0.229152 486.548 0.0917126 488.139 0.384676C488.46 0.440479 488.864 0.0219594 489.213 0.175416V0.189367Z" fill="#E3E3DB"/>
<path d="M207.773 5.36512C208.08 5.54648 209.098 6.69043 209.224 7.1508L209.824 6.87179L210.158 8.83883L211.135 8.50402L210.884 9.67587L211.763 10.1781L211.442 11.5732L212.125 11.9359C210.8 13.303 212.404 14.3772 212.39 14.5307C212.265 16.6233 212.739 16.3722 212.725 16.4977C212.656 18.2974 212.349 18.2137 212.572 20.4597C212.949 24.1845 212.139 28.1047 212.153 31.9132C212.153 33.2525 213.214 35.9449 211.777 36.4751L212.432 36.8378L211.805 41.4136L212.432 41.7065L211.777 43.0458L212.432 43.3527C211.316 44.9849 212.293 47.6635 211.121 49.2538L211.749 49.5468L210.828 57.136C211.302 60.3027 209.642 63.2603 208.917 66.0086C208.652 67.013 208.875 69.0777 208.666 69.7194C207.926 71.8399 205.136 74.2534 203.113 75.1741C202.444 74.3092 201.342 74.1278 200.588 73.6117C200.058 73.235 196.738 70.5425 196.557 70.2635C196.236 69.8031 195.175 66.6224 195.022 66.4829C194.841 66.3294 194.338 66.4829 194.171 66.3852C194.017 66.2876 193.501 63.4137 193.278 62.8418C191.939 59.4936 190.446 55.6432 189.553 52.4625C189.47 52.1416 189.986 51.193 189.804 50.635C189.497 49.7142 188.075 49.505 188.744 47.7611L187.265 41.2322C187.112 43.5062 186.554 46.101 186.428 48.3331C185.954 56.829 186.972 74.5603 184.21 81.8704C183.052 84.9396 182.076 82.0099 181.741 80.294C181.141 77.197 181.197 70.9192 181.085 67.585C180.653 54.4714 180.485 40.6463 181.392 27.6303C181.476 26.3887 180.541 24.0869 182.034 23.3894L181.378 23.0685C181.504 22.7755 183.248 21.0875 183.513 21.0177C184.001 20.8782 187.112 21.241 187.614 21.4223C189.525 22.0919 189.246 24.7286 189.888 25.9284C191.813 29.4858 191.855 33.7407 193.655 36.7262C193.752 36.8936 193.543 37.1168 193.822 37.4376C193.976 37.619 194.422 37.5772 194.464 37.633C194.562 37.7585 193.99 38.1631 193.906 38.5118C193.669 39.5163 194.687 40.7858 194.91 41.8461C195.454 44.3572 195.161 44.3014 196.222 47.1054C196.877 48.8493 196.961 53.2716 197.91 54.6527C198.454 55.4479 199.291 57.4847 199.709 58.7124C200.016 59.6052 200.03 60.8747 200.253 61.4188C200.449 61.8931 200.309 61.935 200.993 61.8373C200.56 60.7213 201.607 60.5818 201.676 60.0516C201.816 59.0751 201.286 57.0522 201.649 56.4384L202.304 56.5919L201.649 55.7688C202.583 54.0808 202.458 51.3185 202.569 49.2259C202.611 48.5424 201.718 47.6495 202.946 47.7472V47.1054L202.332 46.9659C203.546 44.7338 202.402 41.3299 202.709 39.4047C202.737 39.2094 203.155 39.2512 203.183 39.0699C203.63 36.7959 202.918 34.1871 202.96 31.8853C203.03 27.4071 203.643 23.0406 203.546 18.5764C203.518 17.6138 203.267 16.6651 203.281 15.6886C202.555 15.9397 203.309 17.5301 201.983 17.3208C201.76 15.2701 202.374 13.303 202.318 11.2523C202.262 9.25735 201.286 6.94154 202.053 4.96055C202.862 4.13747 206.81 4.76525 207.773 5.35117V5.36512Z" fill="#E3E3DB"/>
<path d="M424.761 7.06739C424.845 7.09529 425.877 8.01604 425.975 8.26715C426.561 9.85752 425.501 14.5868 425.208 16.3585C423.659 26.0403 422.501 35.3732 421.469 45.0689C421.427 45.4735 421.176 45.8083 420.911 46.1013L421.567 46.2687L420.911 47.4126L421.567 47.9009L420.59 48.0683C421.873 49.1425 420.702 50.4957 420.59 51.3607C420.353 53.2022 421.218 55.6435 419.934 57.2339L420.534 57.5548C420.45 58.4337 420.144 59.4939 420.088 60.3309C419.976 62.3956 419.613 65.953 419.683 68.0177C419.725 69.0501 420.743 71.7007 419.599 71.4775C420.646 72.5796 419.739 74.156 419.683 75.579C419.599 77.7832 420.018 79.8758 419.251 81.787L419.92 82.0939C419.697 82.4288 419.488 82.8194 419.446 83.2239C418.888 88.2183 418.916 93.0592 418.679 97.9279C418.428 103.062 418.735 107.163 418.86 112.144C418.888 113.288 418.33 116.078 419.251 116.454C418.051 121.532 419.46 128.829 413.88 131.605L411.383 129.568C411.187 125.62 410.573 121.672 410.253 117.724C410.155 116.524 409.987 115.255 409.904 114.18C409.374 107.568 409.36 99.9926 410.015 92.9894C410.28 90.1295 409.722 89.3901 410.336 85.9583C410.49 85.1212 409.695 84.0749 410.755 84.2423L410.085 83.7541C410.713 82.3729 410.629 80.7547 410.699 79.2341C410.922 74.9373 410.755 70.4033 411.048 66.0926C411.117 65.0044 411.885 63.7767 411.634 62.2143C411.522 61.5167 410.448 61.6283 411.745 61.1401C411.745 59.8287 411.396 57.9175 411.48 56.6898C411.55 55.6435 412.261 54.1508 412.261 53.6625C412.289 50.9282 412.052 50.7468 412.694 48.0544C413.015 46.6872 412.443 45.1108 412.582 43.8552C412.694 42.795 413.852 41.093 413.922 40.2141C413.949 39.7258 413.629 39.1818 413.684 38.6377C414.033 35.2337 414.173 31.8437 415.331 28.6351L411.229 29.5698C410.936 28.663 410.057 28.9978 409.276 28.649C408.355 28.2445 403.849 25.273 403.305 24.6452C403.249 24.5894 403.528 24.2406 403.459 24.143C402.301 22.734 401.366 20.0833 400.794 18.1582C400.292 16.4841 398.743 10.4713 398.994 9.15999C399.05 8.89493 399.078 8.64381 399.301 8.47641L399.776 8.35085C401.771 8.43455 403.891 10.1086 403.235 12.257L404.24 12.4663C404.337 14.0846 404.951 16.0516 405.565 17.5583C405.705 17.907 406.207 17.8373 406.374 18.4511C406.458 18.772 406.221 19.1905 406.304 19.3719C406.584 19.9717 408.76 22.0364 409.388 22.3712C410.95 23.2222 411.285 23.1525 412.638 22.162C415.261 20.2228 417.897 13.387 418.721 9.89937C418.888 9.20184 418.567 8.46246 418.916 7.82073C419.251 7.48591 421.204 6.94184 421.734 6.87208C422.738 6.73258 422.934 7.16505 423.673 7.30455C423.994 7.36036 424.398 6.94184 424.747 7.09529L424.761 7.06739Z" fill="#E3E3DB"/>
<path d="M542.616 35.7776C547.136 31.5087 549.034 24.7008 549.173 18.6183C549.257 14.8237 547.932 5.14201 542.24 8.42041C539.561 9.95498 537.469 13.4705 536.311 16.2746C532.739 24.924 532.111 40.2279 535.669 48.6122C535.808 48.9191 534.846 50.8583 536.715 50.5234C535.697 52.3091 537.092 52.7834 537.636 53.6902C538.473 55.0993 539.129 57.4011 540.691 58.4893C543.425 60.4005 545.183 57.429 545.239 54.7784L545.825 55.0574C546.355 54.1785 546.676 53.5089 546.216 52.5184L547.513 52.1696C546.76 51.2628 548.392 47.4962 547.513 46.7707L544.555 47.4403C543.537 46.701 541.291 45.6268 540.607 44.427C540.119 43.5621 539.729 39.8233 540.705 39.1676C540.97 38.9863 541.57 39.1118 541.933 38.9305C544.276 37.8423 547.918 36.796 549.661 35.5126C550.345 35.0103 549.606 34.1175 551.224 34.8708C551.587 33.2107 554.335 34.6895 553.721 32.8759L555.214 33.1549C555.353 33.1549 555.325 32.6666 555.814 32.4992C557.781 31.8296 559.817 31.132 561.882 30.8809L561.91 29.9323C563.542 30.9228 563.347 29.6812 564.184 29.4301C564.463 29.3464 569.639 28.593 569.932 28.593C570.434 28.593 574.424 28.8999 574.619 29.0395C574.745 29.1371 574.773 29.5835 574.996 29.723C575.261 29.9044 575.693 29.5556 575.875 30.0857C576.154 30.9367 575.484 31.8714 575.4 32.4574C575.317 33.0154 575.693 33.4618 575.526 34.1872C575.177 35.7218 572.331 38.1353 570.866 38.3445C569.471 38.5398 568.955 38.7212 567.783 38.9444C567.1 39.07 566.458 38.5259 566.179 38.6096C565.621 38.791 564.421 39.8651 563.514 40.2C562.217 40.7022 561.296 40.9393 559.915 41.5113C558.939 41.9159 555.883 42.8366 555.353 43.4923C554.405 44.6642 555.284 46.5196 555.242 47.7752C555.004 53.4949 552.535 62.3257 547.694 65.9249C546.397 66.8875 545.978 66.4411 545.03 66.8317C542.965 67.6827 543.997 68.5895 541.068 67.334C539.896 66.8317 537.761 65.3251 536.701 64.502C533.214 61.8095 532.432 60.1773 530.535 56.2572C527.173 49.2818 526.531 43.3249 526.741 35.3312C527.006 25.3146 528.373 16.8884 533.73 8.44831C535.041 6.36966 539.324 3.17497 541.835 2.7983C554.335 0.887061 553.93 18.8973 550.443 26.4586C549.103 29.3603 546.23 33.113 543.774 35.1777C543.412 35.4846 543.244 35.9729 542.63 35.8334L542.616 35.7776Z" fill="#E3E3DB"/>
<path d="M97.158 24.0028C98.9716 25.5514 98.7345 27.1836 99.4739 29.039C99.6692 29.5273 100.395 29.9458 100.422 30.2667C100.45 30.5875 100.06 31.034 100.046 31.3548C99.99 36.1259 99.446 40.2414 97.0464 44.4545C95.3166 47.4818 92.638 49.1977 90.0572 51.36C91.3267 51.8623 92.1358 53.9409 93.0426 55.0849C93.768 56.0196 94.5214 56.3125 95.191 57.024C96.1257 58.0145 96.4466 60.3164 98.5671 60.2047L98.2462 61.1534L101.05 62.967C101.915 63.4971 101.65 64.4039 102.362 65.1014C102.836 65.5618 104.538 65.8548 103.799 66.7476C105.64 66.2872 105.277 67.2777 105.919 67.766C106.714 68.3659 108.5 69.3006 109.337 69.9004C109.783 70.2213 112.281 73.8206 112.587 74.5321C113.731 77.3082 113.201 82.8048 108.974 81.1307C108.681 81.0191 108.709 80.489 108.514 80.475C108.053 80.4332 107.523 80.9215 107.147 80.768C107.063 80.7401 106.212 79.3729 106.031 79.2753C105.877 79.1916 105.445 79.624 104.942 79.2334C103.422 78.0755 101.873 76.3038 99.8505 74.7971C99.4738 74.5181 99.3343 73.7927 99.153 73.695C98.3996 73.2625 97.7021 74.3925 97.8835 72.3418H96.9348C97.5347 71.3792 95.1631 70.319 94.4377 69.5935C91.8289 66.9848 88.969 63.7343 86.7927 60.6233C85.9417 59.4235 85.3558 57.4983 84.5188 56.5078C84.2676 56.2149 83.7794 56.4241 83.5283 56.0614C83.1097 55.4615 82.6633 53.7735 82.2169 53.0202C81.7286 53.2294 81.4078 54.6663 81.352 55.1546C81.1427 56.9542 81.5194 59.2701 81.4775 61.1115C81.4775 61.5859 80.9753 61.8788 80.9613 62.3531C80.8776 65.3525 81.6449 67.6404 80.7521 71.0304C79.9709 74.0159 76.2181 72.2721 75.6601 70.5422C74.7394 67.7102 75.7299 63.9575 74.6975 61.0278C75.9949 51.8065 73.9721 40.632 75.4787 31.6478C75.8415 29.5273 76.1763 29.6389 78.2968 29.8063C78.4921 31.1177 78.4502 32.5825 78.6455 33.8799C78.7153 34.3403 78.7292 34.7867 79.2873 34.3682L80.2778 30.448L80.9195 30.7828L81.3101 28.5368L82.2309 28.4949C81.617 27.6579 82.9005 28.0485 82.3704 26.8488C84.0863 26.5558 83.7236 24.2958 85.8162 24.5609V23.7657C88.3133 22.8031 91.1732 21.3941 93.9215 22.1753C94.2563 22.273 96.879 23.8075 97.158 24.0307V24.0028ZM91.5638 39.781C93.1263 36.684 95.0654 30.3643 91.8289 27.8532C85.579 30.8247 83.8212 38.3022 82.5517 44.5103L88.0762 44.4545C87.9367 43.2268 88.7737 43.6593 89.4433 43.0594C89.7363 42.7943 91.3267 40.2693 91.5778 39.795L91.5638 39.781Z" fill="#E3E3DB"/>
<path d="M369.293 12.8009C369.726 13.0241 370.158 12.5638 370.549 12.7312C377.343 15.6887 385.169 23.4313 382.742 32.1365C382.658 32.4574 381.989 34.0477 381.486 33.8245C380.314 33.3084 378.989 27.2259 378.18 25.9982C377.72 25.3007 377.008 25.1751 376.827 24.924C376.757 24.8264 377.008 24.2823 376.715 23.9056C375.39 22.1478 373.283 20.0692 371.288 19.1485C369.014 18.1022 365.471 17.0001 365.792 20.7807C365.931 22.4408 367.145 26.5144 367.912 28.0071C368.024 28.2164 368.498 28.2024 368.554 28.4814C368.652 28.9837 368.401 29.8904 368.596 30.1834C368.721 30.3648 369.489 30.295 369.782 30.6438C370.242 31.1739 373.088 35.0103 373.353 35.1498C375.181 36.1264 378.18 36.81 379.924 37.5493C380.245 37.6889 381.975 39.349 382.114 39.349C382.421 39.349 382.826 38.9863 383.37 39.056C383.914 39.1258 390.457 44.5665 391.573 45.3059C393.247 48.5146 395.06 51.6674 395.897 55.4201C395.953 55.6712 396.26 58.0707 396.232 58.2102C396.162 58.7822 395.074 58.838 396.302 59.1728C396.107 61.6421 396.274 64.0835 395.897 66.5527C395.423 69.594 394.126 72.7329 393.47 75.9694C393.344 76.5693 393.735 77.1134 393.595 77.6993C393.386 78.62 391.935 79.7221 391.489 80.5173C390.694 81.9263 390.582 83.1261 389.466 84.6188C388.838 85.4558 384.165 89.1528 383.411 89.1388C382.951 89.1388 382.644 88.5808 382.365 88.5389C381.961 88.4692 381.654 89.0551 381.444 89.0691C381.068 89.097 375.976 84.9955 375.432 84.3677C374.497 83.3074 373.939 81.8008 373.046 80.7266L372.46 80.9637C372.377 80.1964 372.586 79.3036 372.46 78.5642C372.418 78.3131 371.93 78.355 371.888 78.1876C370.284 72.1748 367.494 62.1025 377.05 62.3117C378.068 63.3999 373.813 64.0835 373.311 65.5483C372.921 66.6643 374.748 70.5705 375.362 71.6866C376.631 74.0303 378.905 76.7785 380.803 78.355C381.138 78.634 382.156 78.5084 382.616 78.9827C382.268 77.7132 383.286 77.7551 383.467 76.7088C383.928 74.1558 383.9 75.7881 384.876 74.1977C386.104 72.2027 387.081 68.3384 387.736 66.1621C388.197 64.6554 388.029 64.209 388.141 62.7861C388.545 57.6383 388.434 56.0897 386.216 51.5697C385.797 50.7188 385.63 49.4492 384.821 48.6401C379.338 43.1854 369.572 42.1949 364.857 35.0522C361.662 30.1974 359.905 23.0825 360.086 17.2791C360.086 17.0838 360.588 17.1535 360.63 16.9861C360.728 16.456 360.477 15.4515 360.784 14.9214C361.188 14.2239 363.309 13.6519 363.825 12.9683L369.07 12.2568L369.279 12.8009H369.293Z" fill="#E3E3DB"/>
<path d="M514.087 16.9022C514.199 17.0138 515.761 19.1483 515.928 19.4552C516.333 20.2225 516.556 21.199 516.793 22.036L517.435 21.7152C517.742 23.8217 517.519 25.6772 519.751 26.5142L519.43 27.7977C520.295 28.0209 519.737 28.2999 519.835 28.5231C519.918 28.6905 520.895 28.3557 519.723 29.7507C519.695 29.9321 520.295 29.8345 520.379 30.1274C521.327 33.6848 522.011 37.2143 522.918 40.9531C523.211 42.1668 523.657 45.9474 524.062 46.7566C524.131 46.8961 525.722 47.3704 523.992 47.5797V48.2214C525.066 48.6818 525.08 51.8904 525.373 53.2297C525.694 54.6666 526.754 57.3591 526.866 58.6007C526.922 59.1308 526.14 59.4796 526.266 59.6749C526.28 59.7028 526.684 59.6191 526.81 59.7865C527.494 60.7351 526.991 62.0604 527.047 63.0788C527.131 64.8506 527.452 66.5944 527.103 68.5335C526.88 69.7751 526.447 72.0491 524.801 72.0212C524.327 72.0212 522.039 70.1379 521.676 69.6914C521.425 69.3845 520.881 67.6965 520.546 67.2361C517.826 63.5532 514.729 60.4701 513.194 55.9361C514.547 55.7129 515.147 58.2101 515.831 59.1168C516.333 59.7865 517.365 60.3027 517.756 61.1815L518.746 60.8188L517.798 54.9735L516.793 54.7782L516.947 54.1783L517.449 53.9551C516.263 53.6621 517.156 53.2715 517.017 52.6996C516.779 51.7509 516.068 50.886 516.459 49.5328C512.58 51.2626 509.051 52.5461 504.684 52.1555C505.256 53.7319 504.684 55.5734 504.684 57.2196C504.684 60.4282 505.131 62.7998 504.754 66.134C504.601 67.5291 505.326 67.8918 503.708 69.3427C501.601 71.24 500.68 68.7567 498.783 67.9616C498.699 65.5481 498.016 63.1486 497.834 60.763C497.667 58.5449 498.072 56.2151 497.932 54.0667C497.848 52.7414 497.109 51.6393 497.123 50.7046C497.235 45.7242 498.141 39.6557 498.644 34.5777C499.174 29.2346 499.941 21.6454 502.578 17.1812C503.666 15.3397 503.624 16.107 504.921 15.4095C505.117 15.3118 505.089 14.8096 505.479 14.6562C506.874 14.126 511.353 14.4608 512.525 15.3397C513.208 15.842 512.915 16.386 513.041 16.5116C513.348 16.8046 513.864 16.7069 514.087 16.9162V16.9022ZM508.59 21.7152C508.381 21.5199 507.363 21.7431 507.349 22.2732C507.153 25.147 506.121 27.993 505.675 30.7412C505.005 34.8567 505.465 40.4927 505.326 44.7616C505.298 45.4731 504.866 46.1567 504.991 46.8961C508.325 45.8219 511.98 45.5708 515.454 46.2404C515.37 45.3336 515.58 44.3152 515.482 43.4363C515.412 42.8644 514.966 42.9899 514.896 42.7946C514.031 39.9905 514.003 36.9772 513.25 34.201C512.357 30.8808 510.599 25.0354 508.674 22.5662C508.465 22.3011 508.632 21.7431 508.576 21.7012L508.59 21.7152Z" fill="#E3E3DB"/>
<path d="M270.3 14.0005C274.862 15.7443 278.865 21.8268 279.075 26.7793C279.172 29.0393 277.945 31.5644 279.591 33.5035C277.959 35.0102 274.457 24.6309 274.025 23.9334C273.829 23.6265 271.179 20.4039 270.955 20.2364C270.272 19.7063 267.175 18.6042 266.296 18.4787C263.673 18.102 258.232 21.3525 256.363 23.2079C247.923 31.5644 245.161 47.1612 249.137 58.2101C249.848 60.1771 251.159 62.758 252.08 64.5297C254.257 68.7149 255.54 69.4404 259.53 71.5748C262.962 73.4163 264.761 74.5881 268.96 74.4347C269.56 74.4068 270.16 74.2952 270.704 74.0301L270.732 72.6769C268.807 70.1239 266.952 67.6965 264.413 65.6876C262.027 63.7903 259.349 62.5208 256.712 61.1258C255.47 60.4701 254.326 59.7447 253.168 58.9495L252.75 54.4434C254.215 54.834 254.787 53.0484 255.094 52.853C255.191 52.7972 255.679 53.1181 256.028 52.9786C264.831 49.5607 271.569 48.4725 281.07 48.5283C282.004 48.5283 285.171 49.1143 285.422 48.333C285.687 47.496 284.92 45.6824 286.12 45.9335C288.38 51.4161 282.995 50.6907 279.186 51.9184C274.331 53.4808 269.811 55.1409 264.887 56.5221C263.924 56.7871 262.92 56.9685 261.915 57.0661C262.32 58.1264 263.562 58.1543 264.371 58.7123C268.528 61.5722 272.741 65.6597 275.308 69.6636C275.531 70.0123 275.964 70.1518 276.187 70.6541C276.619 71.6585 275.922 76.7365 275.155 77.6712C273.592 79.5825 271.332 79.3872 269.281 79.4848C260.758 79.8894 251.034 74.1138 246.877 66.4131C240.976 55.4897 240.613 40.2417 246.04 29.2207C247.602 26.0539 248.788 22.6081 251.759 20.7108C251.801 20.6829 251.55 20.1667 251.704 19.8598C252.052 19.1762 253.615 17.6416 254.173 17.2371C255.666 16.1489 258.232 15.0468 260.06 14.1958C260.241 14.1121 260.227 13.6796 260.534 13.568C262.46 12.8984 268.402 13.2751 270.3 14.0145V14.0005Z" fill="#E3E3DB"/>
<path d="M30.7672 29.2342C32.6506 29.9038 39.1795 34.4656 40.1839 36.335C40.4769 36.8652 40.2397 37.4929 40.449 38.037C42.6811 43.7707 43.5739 46.9375 44.0761 52.8107C44.5505 58.4049 45.3177 67.9053 41.6069 72.7741C41.1465 73.374 37.0032 77.894 36.6684 78.0195C36.0266 78.2428 35.4407 77.9637 35.1059 78.1033C34.1154 78.4939 30.9207 81.005 29.5675 81.298C22.8572 82.7488 19.1742 84.0881 12.9523 79.9587C9.33905 77.5592 5.41892 73.6111 3.45188 70.1653C0.0479217 64.1945 -0.258992 60.6929 0.131626 53.8431C0.550145 46.5051 4.02385 38.1347 9.17164 32.3033C9.4367 31.9964 8.93448 31.1593 10.2598 31.4384L9.60411 30.7966C10.9573 30.9919 10.9992 29.7364 11.7665 29.1923C12.2268 28.8714 14.445 28.2158 15.003 28.2297C16.2167 28.2437 17.0119 29.3737 17.2909 29.3876C17.5839 29.4155 20.6949 28.3134 21.4901 28.2576C22.1178 28.2158 22.5364 28.6482 22.8433 28.6343C25.6194 28.6203 28.0608 28.2855 30.7812 29.2481L30.7672 29.2342ZM25.5636 34.5912C25.4102 34.6749 23.0246 34.2006 22.3131 34.2285C19.1603 34.3959 15.5471 35.6515 12.2966 35.7491C12.0176 35.9305 9.4088 40.8411 9.11584 41.5526C8.57176 42.8081 8.15324 44.1613 7.70682 45.389C5.94904 50.2717 4.79114 56.424 6.20015 61.1951C7.59522 65.9662 10.2598 70.5141 13.9846 73.7925C15.1146 74.783 17.4304 76.4431 18.9231 76.6663C21.4761 77.0709 23.9454 75.6898 26.303 74.8109C27.2238 74.4621 31.5903 72.9555 32.3018 72.3277C32.6227 72.0347 32.4413 71.5604 32.5808 71.4209C32.8598 71.1419 33.6411 71.3232 34.0735 70.9047C34.8269 70.1514 34.4362 68.4773 35.9569 68.3936C35.9569 66.9985 37.2124 65.3384 37.4077 64.2782C38.1611 60.093 37.2403 51.0669 36.3335 47.0491C35.8174 44.7752 35.1198 41.0364 33.8503 39.4321C33.4876 38.9717 32.818 38.1068 32.7482 38.037C31.4787 36.5582 27.9771 34.3122 26.0519 34.075C25.466 34.0053 25.7031 34.5354 25.5776 34.6052L25.5636 34.5912Z" fill="#E3E3DB"/>
<path d="M158.22 18.9248C160.173 23.8633 159.476 29.4435 159.741 34.8564C160.229 44.7613 161.401 53.8432 161.429 63.6924L162.029 63.9714C161.791 66.622 162.628 70.2073 163.005 72.551C163.452 75.3272 162.238 78.3545 163.047 81.1725C164.498 81.2423 164.163 80.0146 165.181 79.3868C165.698 75.8852 167.176 71.6582 167.553 68.2263C167.776 66.2035 167.26 65.7571 167.874 63.3436C168.446 61.0836 168.153 55.7684 168.279 53.2154C168.669 45.5286 169.157 37.7302 168.809 30.0155C168.683 27.3091 167.665 24.8119 168.418 21.9242C168.892 20.0966 169.953 18.1435 172.003 18.0319L173.203 19.9711L171.571 19.3154C171.599 19.7758 171.473 20.2919 171.571 20.7244C171.599 20.836 173.022 22.2171 173.078 22.3427C173.273 22.7751 173.203 24.3516 173.273 24.4771C175.296 28.3972 174.807 36.3352 174.821 41.0644C174.849 47.6352 174.682 54.2199 174.166 60.7488C173.719 66.3011 173.231 71.714 172.157 77.3221C171.376 81.3957 168.697 86.4738 165.14 88.6501C164.651 88.943 164.024 89.0128 163.535 89.3336C162.824 88.3013 161.275 87.9944 160.299 87.0457C159.322 86.111 159.211 84.7997 158.792 83.7115C153.114 69.44 153.895 44.0359 154.244 28.3414C154.328 24.7561 154.091 21.1569 154.202 17.5576L155.681 16.6787C156.434 17.1391 158.22 16.9996 158.429 17.9343C158.513 18.3109 158.15 18.7434 158.234 18.9527L158.22 18.9248Z" fill="#E3E3DB"/>
<path d="M345.535 17.9344C345.87 18.1855 347.474 19.3992 347.544 19.4969C347.67 19.6782 348.981 23.2217 349.079 23.6542C349.693 26.4024 348.186 29.8622 347.642 32.5128C347.209 32.5965 347.112 31.899 347.07 31.62C346.693 29.1926 347.251 27.3929 345.982 24.9237C345.772 24.533 345.033 24.2122 344.838 23.9192C344.754 23.7937 344.921 23.4449 344.712 23.1938C343.638 21.9243 341.992 20.3479 340.262 20.1386C340.094 20.1246 337.904 20.2223 337.779 20.2641C337.625 20.306 335.044 21.4779 334.891 21.5616C334.333 21.8824 334.179 22.6079 333.747 23.0403C332.687 24.0727 331.696 24.7144 331.11 26.2908C330.217 28.7182 331.459 32.4989 333.426 34.1311C340.164 39.7253 351.269 38.8185 357.77 47.4121C365.15 57.1496 364.996 71.449 355.775 80.0984C353.864 81.8841 352.371 83.1118 349.734 83.5582C348.869 83.7117 348.214 83.3071 347.502 83.335C347.014 83.3489 346.498 83.8233 346.093 83.8372C345.549 83.8512 345.131 83.1118 344.587 82.8328C342.843 81.9399 343.066 81.8423 341.866 80.6286C340.234 78.9824 338.811 78.5081 337.276 76.5689C336.983 76.2062 337.472 75.4389 336.188 75.704C336.802 74.6298 335.84 73.9741 335.435 73.0952C334.151 70.2772 332.366 64.6969 331.961 61.4464C331.18 55.0152 336.593 52.8807 342.075 52.797V53.7736C339.16 54.4153 335.198 55.2803 336.356 59.019C336.914 60.8187 338.937 63.1066 339.885 64.669C341.266 66.9151 342.494 69.1751 344.029 71.2956L343.373 71.7839C344.642 71.4769 344.224 72.3698 344.545 72.7186C346.219 74.4624 347.251 74.5879 349.567 74.7274C349.692 73.3882 351.422 71.9652 352.859 72.1047C352.678 71.7141 352.831 70.1098 352.957 69.8866C353.208 69.4541 355.315 67.3057 355.398 67.1383C355.649 66.7058 355.343 65.9664 355.454 65.4642C355.538 65.1015 356.305 65.241 356.459 64.4319C357.072 61.1256 355.677 56.3684 354.408 53.3551C354.101 52.6296 354.352 52.1972 353.515 51.0951C349.023 45.1102 340.792 43.8268 334.584 40.4089C332.729 39.3905 328.474 36.6282 327.316 34.8984C326.562 33.7684 325.265 28.2579 325.404 26.807C325.656 23.8913 329.101 18.7156 332.212 17.7391L332.282 16.8602C337.388 15.1861 340.89 14.4467 345.521 17.9204L345.535 17.9344Z" fill="#E3E3DB"/>
<path d="M151.217 19.3438C151.538 23.4871 149.306 22.5803 146.502 24.2126L146.669 23.236C141.089 23.3197 135.969 26.0261 130.319 26.1796C130.123 26.9469 131.114 27.1282 131.226 27.6863C131.295 28.0769 130.919 28.7465 130.947 29.2906C131.058 32.4295 131.56 36.8797 132.049 40.0047C132.23 41.1765 133.639 43.6179 132.286 44.0225L132.9 44.3433C132.16 45.6547 133.109 47.0219 133.179 47.9007C133.234 48.7657 132.9 53.6484 133.276 54.0111C134.643 53.6903 144.883 52.8253 145.065 53.8577C145.134 54.6389 144.772 54.9319 144.144 55.2248C141.047 56.6618 136.931 57.5825 133.597 58.2661C133.848 59.7309 134.016 61.2515 134.127 62.7303C134.518 67.9199 135.132 76.8483 134.267 82.3309C134.058 83.712 132.83 85.7349 132.76 87.3671C132.063 89.3899 129.286 87.5345 128.882 86.4324C128.756 86.1115 129.049 85.6791 128.952 85.3443C127.236 79.5408 127.082 74.393 126.761 68.2268C126.399 61.1957 126.65 53.7321 126.106 46.6452C126.05 46.0035 125.506 46.2267 125.478 46.0035C125.213 43.7993 125.562 41.037 125.422 38.8189C125.213 35.3312 124.501 31.8296 124.432 28.3559C124.404 27.1143 124.306 22.3292 125.129 21.6596L125.673 21.8689C125.757 21.827 125.743 21.3248 126.148 21.1992C129.789 19.9297 135.006 19.6228 138.815 19.1903C143.014 18.716 147.087 17.6976 151.231 19.3717L151.217 19.3438Z" fill="#E3E3DB"/>
<path d="M294.56 5.40664C294.629 5.44849 295.508 6.7459 295.508 6.8296C295.508 6.99701 295.09 7.27602 295.09 7.48528C295.146 8.68504 295.871 10.6242 295.955 12.0611C296.22 17.1112 295.955 22.6217 295.955 27.7416C295.955 28.6066 296.931 29.6947 295.592 30.0574C296.485 31.2851 295.997 33.4474 295.997 34.968C295.983 44.9846 296.164 54.9454 296.889 65.0875C296.987 66.4965 296.61 69.6493 297.531 70.2911C296.513 71.5187 297.406 72.5511 297.392 73.4579C297.364 77.5035 297.322 83.4047 296.889 87.3248C296.429 91.496 294.434 88.5106 293.555 86.4041C292.174 83.0699 289.956 72.9696 289.789 69.2866C289.747 68.4077 290.458 67.0545 290.361 66.4267C290.319 66.2035 289.789 66.2593 289.719 66.0082C289.203 64.2923 289.105 56.5078 289.035 54.2618C289.007 53.2434 289.035 53.1318 289.189 52.1273C289.747 48.6536 288.938 42.6967 289.021 38.8742C289.063 37.0048 289.412 26.4861 289.747 25.4677C289.816 25.2305 290.416 25.4119 290.347 25.1607C289.272 24.1842 290.319 23.3472 290.361 22.2032C290.556 17.8506 290.026 11.81 290.793 7.55504C290.891 6.98306 291.574 6.27158 291.365 5.40664C291.742 5.01602 294.378 5.32294 294.518 5.40664H294.56Z" fill="#E3E3DB"/>
<path d="M315.834 31.955C316.462 33.0292 318.876 34.8567 319.322 35.8053C319.601 36.3913 319.489 37.0888 319.727 37.6887C319.88 38.0793 320.382 38.0514 320.578 38.4978C321.289 40.0742 320.968 43.7293 321.805 45.3755C321.931 45.6266 322.196 45.6545 322.447 45.6266L321.498 46.8124C322.74 49.8955 322.573 54.3876 322.238 57.7497C321.931 60.8467 320.801 66.9432 319.448 69.6077C318.22 72.0072 315.514 75.7042 312.472 75.4252C311.566 75.3414 308.594 74.1277 307.757 73.5697C299.414 68.0871 297.559 52.0718 301.27 43.5619C302.386 41.0089 303.865 39.3348 305.162 37.0469C305.497 36.461 306.334 36.0285 306.111 34.8148L306.753 35.1497C307.966 31.1458 312.444 31.5643 315.848 31.9689L315.834 31.955ZM313.379 40.9252C313.254 40.6323 313.533 40.2835 313.421 40.0463C313.114 39.3906 312.375 38.8884 312.305 38.0793C311.328 38.442 312.807 39.7534 312.64 40.3672L310.449 38.456C308.315 38.1909 307.018 40.5765 306.195 42.2645C305.664 43.3526 304.325 46.2265 304.953 47.2449L306.376 47.9424L306.432 49.1979L304.632 48.2214C304.088 48.612 304.102 49.2258 304.018 49.8118C303.321 54.4992 304.813 60.8328 306.78 64.9761C306.92 65.2691 307.394 65.297 307.534 65.6458C307.715 66.148 307.436 66.7479 307.492 66.8176C307.548 66.9013 308.273 67.1664 308.58 67.5012C309.445 68.4359 309.766 69.4403 311.189 69.4264C312.514 69.4264 312.11 68.7567 312.542 68.2127C314.3 65.9666 315.806 58.2938 315.932 55.2246C316.127 50.7046 314.997 44.8174 313.393 40.9113L313.379 40.9252Z" fill="#E3E3DB"/>
<path d="M64.7788 28.2723C64.7788 28.2723 65.5879 29.4581 65.6298 29.5418C66.9969 32.1087 66.3691 34.285 66.8574 36.4474C66.8993 36.6148 68.1688 36.9217 67.1643 38.4423L67.834 38.7771C66.5644 47.0917 67.541 56.1596 66.1041 64.5579C65.7832 66.4692 63.7325 72.9841 62.5048 74.2118C62.3653 74.3513 59.7844 75.8161 59.617 75.7882C57.6081 74.9232 54.9157 73.4584 53.6182 71.6588C52.4185 69.9987 50.2422 66.0367 49.3773 64.1255C45.8059 56.2573 44.4527 46.8127 46.3221 37.8982C46.7545 35.8475 47.6474 34.3129 50.0329 35.3453C50.5352 36.0568 49.5865 45.4874 49.7121 47.5242C49.8097 49.1146 50.8421 55.1552 51.4978 56.4107C53.5206 60.289 54.5948 64.3347 57.5244 68.1014C57.7616 68.4083 57.5523 68.9663 57.8732 69.064C58.5428 68.506 58.9892 67.9758 59.2125 67.1248C60.5238 62.005 59.91 56.9967 60.0076 51.8907C60.1192 45.4037 60.3983 39.2096 60.9981 32.5691C61.0818 31.6344 60.6912 27.3237 61.5422 27.1562C62.9512 27.226 63.7743 27.2539 64.8206 28.2863L64.7788 28.2723Z" fill="#E3E3DB"/>
<path d="M220.538 65.8688C220.622 65.9106 220.608 66.3012 220.677 66.3292C221.054 66.4408 221.431 65.8827 222.114 66.7337C222.575 67.3196 222.421 67.7242 222.616 68.1427C222.756 68.4496 223.188 68.4078 223.244 68.645C224.332 73.8904 220.37 83.2513 217.483 87.6876C216.953 88.5107 215.39 90.5754 214.665 91.0776C212.07 92.8912 209.405 89.7523 209.838 89.3617L212.307 90.0034C212.949 89.9894 214.162 87.6457 214.483 86.9621C215.474 84.7998 216.98 79.359 217.357 77.3502C217.831 74.839 217.706 71.7978 218.362 69.2309L217.859 68.4217L216.06 70.054C215.753 68.5752 219.38 65.2829 220.566 65.8967L220.538 65.8688Z" fill="#E3E3DB"/>
</svg>
