<?xml version="1.0" encoding="UTF-8"?><svg id="Layer_1" xmlns="http://www.w3.org/2000/svg" viewBox="0 0 161.57 70.01"><path d="M24.58,68.71c-1.33-.1-2.67-.26-3.96-.41-.88-.1-1.76-.21-2.65-.29-.93-.09-1.91-.13-2.95-.17-1.54-.06-3.14-.12-4.66-.36-.98-.16-1.42-.39-1.89-.68-.13-.08-.28-.17-.49-.27-.21-.09-.41-.15-.59-.2-.76-.22-2.17-.62-2.22-2.81,0-.33.11-.66.34-.91.43-.47,1.04-.66,1.68-.73-.01-.05-.03-.09-.04-.14-.25-1.03-.28-2.29-.3-3.5-.02-.99-.04-2-.19-2.71-.14-.07-.28-.17-.41-.31-1.06-1.11-1.55-3.77-2.01-6.63l-.11-.69c-1.73-10.17-1.56-20.9-1.4-31.27.02-1.41.04-2.82.06-4.22,0-.43.05-.88.1-1.33.06-.59.12-1.15.07-1.64-.01-.1-.06-.24-.11-.39-.05-.16-.12-.36-.16-.6-.36-.04-.7-.23-.91-.54-.61-.86-.49-1.52-.28-1.93.16-.32.58-.85,1.56-.87.05-.44.2-.86.54-1.23.59-.64,1.43-.72,2.01-.72.08,0,.17,0,.26,0,5.17.21,10.4.58,15.45.94,5.52.39,11.23.8,16.84.99,4.04.14,8.3.21,12.65.21,13.66,0,27.16-.67,39.72-1.4l3.56-.21c11.91-.69,23.15-1.35,34.91-1.56.58-.01,1.16-.01,1.75-.01.85,0,1.7,0,2.56.02.85,0,1.7.02,2.55.02,2.06,0,3.62-.05,5.06-.17.43-.04.89-.12,1.38-.2.74-.13,1.51-.27,2.32-.27.63,0,1.2.08,1.74.25.42.13.74.47.86.88.18-.06.45-.18.7-.29.51-.22,1.08-.48,1.61-.6.17-.04,1.06-.23,1.92-.23.3,0,1.08,0,1.7.42.31-.34.79-.67,1.49-.67,1.68,0,2.08,1.19,2.23,1.71.76.15,1.47.69,1.55,2.22.05.94-.06,1.83-.16,2.7-.07.6-.14,1.16-.15,1.69,0,.24.07.63.14.98.08.39.15.79.17,1.17.27,5.93.06,11.92-.15,17.71l-.02.6s0,.11-.02.17c.08.03.16.07.24.12.72.01,1.31.44,1.58,1.14.06.17.09.35.08.53l-.27,5.3c0,.11-.03.22-.06.33-.29.92-.3,1.97-.3,3.09,0,.57,0,1.13-.04,1.67-.01.17-.07.65-.15,1.22-.07.52-.19,1.43-.26,2.06.37.19.77.49,1.03.96.27.48.24,1.68.2,2.35-.04.68-.14,1.39-.24,2.07-.06.4-.11.79-.16,1.17l-.14,1.21c-.15,1.27-.3,2.46-.36,3.74-.02.48-.02,1.08-.03,1.75,0,2.94-.07,5.31-.83,6.76-.21.41-.86,1.65-2.2,1.65-.75,0-1.38-.39-1.96-.82-1.45-1.07-1.41-2.59-1.38-3.7,0-.17,0-.34,0-.51,0-.6.04-1.18.08-1.75.03-.44.07-.87.08-1.29-.59-.1-1.2-.12-1.75-.12-.36,0-.72,0-1.08.02-.38,0-.75.02-1.12.02h-.31c-1.85-.03-3.73-.04-5.61-.04-7.6,0-15.89.21-24.66.63-9,.43-18.09,1.47-26.89,2.48-3.77.43-7.66.88-11.52,1.28-2,.21-4,.37-6,.53-2.4.19-4.88.39-7.32.67-8.03.92-17.09,1.53-27.72,1.87-.28,0-.56.01-.84.01-.47,0-.96-.01-1.44-.02-.47,0-.94-.02-1.41-.02-1.01,0-2.19.04-3.26.33-.12.03-.23.05-.35.05-.19,0-.37-.04-.53-.12-.1.01-.2.02-.3.02-.33,0-.61-.05-.87-.1-.15-.03-.3-.06-.47-.06-.09,0-.17.03-.25.06-.22.06-.49.13-.82.14-.1,0-.69,0-.69,0-.52,0-.9,0-1.17.02-.2.73-.66,1.55-1.88,1.75-.07.01-.14.02-.21.02-.03,0-.06,0-.1,0ZM16.49,59.95c2,.09,3.98.17,5.92.17,2.21,0,4.17-.11,6.18-.33,5.32-.6,10.74-1.38,15.99-2.14,7.46-1.08,15.18-2.19,22.82-2.82,16.68-1.36,34.79-1.99,56.98-1.99,5.3,0,10.93.04,17.22.11.64,0,1.29,0,1.96.01,2.67,0,5.43.01,7.81.37.3.04.62.09.97.15-.04-.85-.02-2.16.03-2.57.03-.18.11-.53.38-.83.02-.29.02-.6.02-.93,0-.48,0-.98.07-1.46.03-.2.08-.38.13-.54-.26-.22-.48-.45-.61-.76-.51-1.21-.44-3.15-.31-5.21l.04-.67c0-.07-.02-.14-.03-.21-.04-.21-.08-.47-.06-.77.05-.67.18-1.49.33-2.36.13-.79.28-1.66.33-2.32-.14-.19-.21-.38-.25-.51-.09-.36-.1-.8-.12-1.31,0-.2-.02-.47-.03-.7-.1-.06-.21-.13-.3-.23-1.62-1.56-1.78-3.36-1.8-4.93,0-.26.07-.52.21-.73-.02-.1-.03-.21-.05-.32-.07-.43-.15-.87-.17-1.35-.12-2.74.27-5.51.64-8.19.43-3.04.83-5.92.54-8.73-.27-.06-.66-.09-1.18-.09-.34,0-.7.01-1.04.02-.37.01-.73.02-1.07.02-.93,0-1.53-.09-2.03-.3-.44-.17-2.62-.42-6.39-.55h-.26c-1.06,0-2.42.2-3.74.39-.91.13-1.84.27-2.68.35-15.9,1.35-34.28,2.81-51.25,3.01-1.91.02-3.86.15-5.63.38-.06,0-.11.01-.17.01-.28,0-.56-.09-.78-.26-1.81.07-3.62.16-5.43.24-5.14.24-10.46.48-15.73.48-1.25,0-2.49-.01-3.74-.04-3.26-.08-6.55-.32-9.73-.56-3.83-.28-7.79-.58-11.67-.58-1.57,0-3.02.05-4.43.14-.03,0-.16,0-.18,0-.12.12-.28.24-.46.33-.44.22-.99.32-1.8.32-.6,0-1.25-.05-1.82-.1-.42-.03-.79-.07-1.06-.07-.95,0-1.86.03-2.75.05-1.02.03-2.02.05-3.03.05-1.45,0-2.69-.05-3.91-.16-.29-.03-.53-.12-.7-.21-.02,0-.04,0-.06.01,0,.41,0,.83.02,1.27.01.54.03,1.08.01,1.61-.06,2.1-.14,4.21-.22,6.32-.08,2.2-.17,4.39-.23,6.56-.03.9-.01,1.79,0,2.69.01.69.02,1.39.01,2.1,1,.79,1.04,2.15,1.06,2.89,0,.21,0,.42.04.61.44,3.07.84,6.15,1.24,9.22.14,1.11.29,2.23.44,3.35.26-.21.59-.34.91-.34.66,0,1.22.37,2.46,1.66.31.32.44.78.33,1.22-.02.07-.04.15-.07.21,1.49,3.33,1.84,6.97,1.89,9.81ZM12.28,57.55c.19.12.36.29.47.48-.18-2.34-.56-4.33-1.18-6.24.22,1.56.44,3.12.68,4.66.05.33.04.62.03.87,0,.08,0,.17,0,.24Z" style="fill:#e11c84;"/><path d="M154.61,2.6c1.05,0,.84.72,1.2,1.39.38.71,1.2-.38,1.28,1.31.07,1.45-.29,2.92-.32,4.3-.01.68.29,1.6.31,2.23.28,6.07.05,12.13-.17,18.2-.01.41-.46,1.65,0,1.65,0,0,.02,0,.02,0,.11,0,.49-.23.71-.23.03,0,.05,0,.07,0,.11.04.08.28.19.29,0,0,.02,0,.02,0,.12,0,.3-.08.47-.08.16,0,.3.06.39.3l-.27,5.3c-.52,1.62-.29,3.43-.4,5.06-.04.53-.58,4.03-.43,4.21.08.11.94.24,1.22.75.06.1.05,1.39.04,1.63-.06,1.01-.28,2.14-.4,3.18-.2,1.72-.43,3.3-.51,5.04-.1,2.03.18,6.27-.71,7.97-.35.66-.66.95-1.05.95-.32,0-.7-.2-1.19-.56-1.07-.78-.84-1.95-.84-3.17,0-1.35.25-2.69.13-4.04-.96-.34-1.99-.41-3.02-.41-.74,0-1.48.04-2.2.04-.09,0-.19,0-.28,0-1.86-.03-3.74-.04-5.63-.04-8.19,0-16.62.24-24.72.63-12.89.61-25.59,2.44-38.47,3.76-4.46.46-8.88.69-13.33,1.2-8.91,1.02-18.39,1.56-27.61,1.86-.26,0-.53.01-.8.01-.93,0-1.89-.04-2.84-.04-1.24,0-2.47.07-3.61.38l-.14-.3c-.23.16-.46.21-.69.21-.42,0-.85-.17-1.33-.17-.02,0-.04,0-.05,0-.35,0-.7.18-1.07.2-.1,0-.26,0-.46,0h-.14c-.86,0-2.21,0-2.34.2-.08.7-.1,1.45-.95,1.58-2.2-.16-4.38-.49-6.58-.7-2.38-.23-5.1-.12-7.53-.52-1.22-.2-1.22-.48-2.07-.86-1.09-.49-2.01-.22-2.05-1.85.24-.27.85-.34,1.54-.34.8,0,1.7.1,2.23.1.21,0,.37-.02.43-.06.23-.17.1-.62-.13-.75-.19.19-.41.26-.63.26-.65,0-1.35-.66-1.49-1.26-.47-1.92-.04-5.11-.65-6.76-.1-.26-.41-.18-.58-.35-.99-1.05-1.51-5.07-1.78-6.64-1.94-11.43-1.46-23.58-1.32-35.26.01-1,.27-2.09.15-3.13-.09-.83-.73-1.37.13-2.21l-1.4-.38-.15.45c-.42-.59-.15-.74.28-.74s1.03.15,1.22.15c.03,0,.05,0,.06-.01-.1-1.35-.27-2.09,1.21-2.09.07,0,.13,0,.21,0,10.8.44,21.52,1.56,32.31,1.93,4.23.15,8.47.21,12.7.21,13.26,0,26.53-.63,39.79-1.4,12.91-.75,25.49-1.53,38.42-1.77.57-.01,1.15-.01,1.73-.01,1.69,0,3.4.03,5.11.03s3.46-.03,5.16-.17c1.18-.1,2.39-.47,3.59-.47.45,0,.9.05,1.35.19l-.05,1.17c.5-.2,1.03-.11,1.54-.24.58-.15,1.62-.74,2.35-.9.32-.07,1.02-.2,1.63-.2.76,0,1.4.19,1.07.9.17.06.32.09.45.09.87,0,.86-1.23,1.67-1.23h0M154.41,3.75h-.3s0,.22,0,.22l.22.22.07-.44M152.63,4.19h.3v-.15h-.3v.15M75.89,9.81l-.13-.28c-7.25.28-14.51.75-21.81.75-1.23,0-2.47-.01-3.71-.04-7.15-.17-14.27-1.13-21.43-1.13-1.5,0-3.01.04-4.51.14-.01,0-.02,0-.03,0-.2,0-.43-.11-.55-.11,0,0-.02,0-.02,0-.15.02-.26.44-.54.58-.27.14-.71.18-1.22.18-.99,0-2.22-.17-2.89-.17,0,0-.02,0-.02,0-2.01.01-3.86.1-5.75.1-1.23,0-2.48-.04-3.79-.16-.24-.02-.44-.23-.62-.25-.02,0-.04,0-.06,0-.24,0-.53.12-.81.12-.15,0-.31-.03-.45-.14-.16.09-.16.15-.18.32-.14,1.26,0,2.62-.03,3.89-.13,4.27-.33,8.62-.46,12.88-.06,1.87.06,3.75,0,5.62,1.33.34.98,1.89,1.13,2.89,1.04,7.23,1.86,14.51,2.96,21.64.12.75-.27,1.56.66,2.03l.75,2.13c.36-.13-.05-.89.29-1.12.1-.07.25-.1.41-.1.36,0,.82.13,1.08.18-.1-3-.46-5.74-1.41-8.59-.35-1.05-1.28-2.83-.86-2.83.19,0,.64.35,1.53,1.27l-.44.15c1.85,3.48,2.26,7.59,2.22,11.49.14-.1.27-.13.4-.13.24,0,.46.12.72.13,2.15.1,4.13.18,6.11.18s4.09-.09,6.32-.34c12.87-1.45,25.79-3.9,38.78-4.95,18.82-1.53,37.89-1.99,56.87-1.99,5.75,0,11.48.04,17.2.11,3.13.04,6.72-.06,9.59.37,1.14.17,2.28.37,3.38.7.05-.6-.82-.93-.89-1.42-.07-.45-.07-2.38-.01-2.81.04-.28.29-.19.31-.31.16-.91.05-2.02.16-2.92.04-.36.37-.84.29-1.17-.02-.11-.77-.58-.86-.8-.51-1.21-.23-3.99-.17-5.31.02-.33-.12-.66-.1-.96.1-1.46.75-4.06.68-5.4,0-.09-.27-.07-.3-.18-.13-.56-.03-2.19-.29-2.61-.11-.17-.39-.11-.53-.25-1.19-1.14-1.38-2.4-1.4-4.01l.3.07c-.02-.84-.27-1.67-.3-2.51-.25-5.62,1.76-11.45,1.17-17.03-.03-.27-.12-.54-.16-.8-.26-.12-.54-.23-.82-.29-.43-.1-.95-.13-1.49-.13-.7,0-1.45.05-2.11.05-.62,0-1.16-.04-1.53-.19-1-.42-5.53-.6-6.84-.65-.1,0-.2,0-.31,0-1.92,0-4.54.58-6.52.75-16.84,1.43-34.53,2.81-51.16,3-1.91.02-3.89.15-5.78.39M7.6,7.01c.17,0,.35,0,.52-.03.2-.02.91-.08.98-.28l-1.78-.15v.44c.09,0,.18,0,.27,0M81.7,58.42s-.02,0-.02,0c-.82-.05-1.38-.13-2.08-.13-.32,0-.68.02-1.11.06-.98.09-1.66.14-2.65.16-3.1.06-6.63.44-9.93.73-8.33.72-16.61,2.05-24.71,3.19-.27.04-.54.05-.83.05s-.55,0-.83,0c-.22,0-.45,0-.66.03,0,0-.02,0-.02,0-.1,0-.17-.05-.21-.05-.05,0-.06.06-.04.29l9.21-.36c14.4-.84,28.83-2.17,43.19-3.79,2.55-.29,5.1-.62,7.64-.89-.06-.26-.29-.3-.51-.3-.01,0-.03,0-.04,0-1.11,0-2.69.35-3.85.41-3.78.2-7.87.04-11.66.34-.3.02-.63.29-.89.29M154.61,0h0c-.68,0-1.24.2-1.67.46-.42-.13-.92-.21-1.52-.21-.97,0-1.93.2-2.2.26-.55.12-1.08.34-1.57.55-.26-.23-.58-.41-.93-.52-.67-.21-1.36-.31-2.12-.31-.93,0-1.79.15-2.55.29-.46.08-.89.16-1.26.19-1.4.11-2.92.17-4.95.17-.85,0-1.69,0-2.54-.02-.86,0-1.72-.02-2.57-.02-.59,0-1.19,0-1.78.01-11.78.22-23.03.87-34.94,1.57l-3.58.21c-12.54.72-26.01,1.39-39.64,1.39-4.34,0-8.59-.07-12.61-.21-5.59-.19-11.29-.6-16.8-.99-5.07-.36-10.3-.73-15.49-.94-.11,0-.21,0-.31,0-1.27,0-2.27.38-2.96,1.14-.29.31-.49.64-.62.97-1,.32-1.49,1.05-1.67,1.41-.25.48-.7,1.76.38,3.28.24.34.55.6.9.79.02.05.04.1.05.16.03.35-.02.83-.07,1.33-.05.46-.1.94-.1,1.45-.02,1.4-.04,2.81-.06,4.22-.16,10.43-.33,21.21,1.42,31.51.03.19.07.42.11.67.6,3.78,1.15,6.07,2.35,7.33.05.05.1.1.15.15.06.59.08,1.38.09,2.01.02.89.04,1.8.14,2.66-.41.18-.81.44-1.14.81-.45.49-.69,1.14-.67,1.81.08,3.14,2.4,3.81,3.17,4.03.17.05.32.09.42.14.13.06.21.1.34.19.55.34,1.15.66,2.37.86,1.6.26,3.24.32,4.82.38,1.02.04,1.99.07,2.88.16.87.09,1.74.19,2.62.29,1.31.15,2.66.31,4.03.42.06,0,.13,0,.19,0,.14,0,.28-.01.41-.03.88-.14,1.9-.58,2.54-1.75.11,0,.22,0,.34,0h.14c.24,0,.44,0,.56,0,.47-.02.85-.12,1.1-.18,0,0,0,0,0,0,.04,0,.09.02.14.03.28.05.66.13,1.11.13.04,0,.08,0,.12,0,.23.07.47.1.71.1.23,0,.46-.03.69-.09.93-.26,2.05-.29,2.91-.29.46,0,.92,0,1.38.02.49.01.98.02,1.46.02.3,0,.59,0,.88-.01,10.66-.34,19.76-.95,27.82-1.87,2.42-.28,4.88-.47,7.27-.67,1.97-.16,4.01-.32,6.04-.53,3.86-.4,7.76-.84,11.53-1.28,8.77-1.01,17.84-2.05,26.8-2.47,8.74-.42,17.02-.63,24.6-.63,1.9,0,3.78.01,5.59.04h.32c.38,0,.77,0,1.15-.02.35,0,.7-.02,1.05-.02.12,0,.25,0,.38,0,0,0,0,0,0,0-.04.59-.09,1.2-.09,1.85,0,.16,0,.32,0,.47-.03,1.16-.09,3.31,1.91,4.78.72.53,1.6,1.07,2.73,1.07.97,0,2.34-.41,3.35-2.35.89-1.71.97-4.24.98-7.36,0-.64,0-1.25.02-1.69.06-1.23.2-2.39.35-3.63.05-.41.1-.82.15-1.23.04-.37.1-.75.15-1.14.1-.71.21-1.45.25-2.18.13-2.17-.2-2.77-.36-3.06-.22-.4-.5-.71-.79-.95.06-.46.12-.94.16-1.26.1-.72.14-1.07.16-1.31.04-.6.04-1.19.05-1.76,0-1.01,0-1.97.24-2.7.07-.21.11-.43.12-.65l.27-5.3c.02-.36-.04-.72-.17-1.06-.32-.84-.92-1.45-1.69-1.76.2-5.74.41-11.68.14-17.58-.02-.48-.11-.94-.19-1.36-.05-.24-.12-.59-.12-.72,0-.45.07-.99.14-1.55.11-.88.23-1.87.17-2.92-.1-1.94-1-2.81-1.86-3.19-.75-1.61-2.13-1.97-3.22-1.97h0ZM75.89,12.41c.11,0,.22,0,.33-.02,1.72-.22,3.61-.35,5.48-.37,17.02-.19,35.43-1.66,51.35-3.01.87-.07,1.83-.22,2.76-.35,1.27-.19,2.58-.38,3.54-.38.07,0,.14,0,.21,0,3.58.13,5.53.35,6,.48.82.32,1.7.37,2.47.37.35,0,.73-.01,1.11-.02.32-.01.65-.02.97-.02.09,2.31-.25,4.76-.61,7.34-.38,2.74-.78,5.57-.65,8.43.02.52.1.99.17,1.41-.11.3-.17.61-.16.94.02,1.94.3,3.98,2.14,5.79,0,.03,0,.07,0,.1.02.56.04,1.08.16,1.56.03.13.08.31.18.5-.07.56-.18,1.25-.28,1.8-.15.9-.3,1.75-.35,2.49-.03.46.04.84.08,1.09v.04c0,.16-.01.34-.02.53-.14,2.3-.21,4.32.41,5.79.11.25.24.47.39.66-.07.55-.07,1.1-.08,1.59,0,.17,0,.34,0,.5-.2.33-.33.7-.38,1.1-.03.25-.06.71-.06,1.23-2.34-.29-4.94-.3-7.46-.31-.66,0-1.31,0-1.94-.01-6.29-.07-11.92-.11-17.23-.11-22.23,0-40.37.63-57.08,2-7.69.63-15.43,1.75-22.91,2.83-5.24.76-10.65,1.54-15.95,2.14-1.96.22-3.87.32-6.03.32-1.53,0-3.08-.05-4.66-.12-.12-2.62-.54-5.72-1.77-8.66.14-.81-.12-1.64-.7-2.24-1.11-1.15-2-1.97-3.21-2.05-.08-.63-.17-1.26-.25-1.89-.4-3.02-.8-6.15-1.24-9.23-.01-.08-.02-.29-.02-.46-.02-.66-.06-2.24-1.06-3.41,0-.53,0-1.06-.02-1.57-.01-.91-.03-1.77,0-2.63.06-2.16.15-4.34.23-6.52.08-2.12.16-4.25.23-6.36.01-.47,0-.93,0-1.37,1.04.08,2.12.11,3.35.11,1.03,0,2.06-.03,3.06-.05.88-.02,1.78-.04,2.71-.05h0c.2,0,.59.03.96.06.6.05,1.28.11,1.93.11,1.03,0,1.76-.14,2.39-.46.13-.07.25-.14.36-.21,1.31-.08,2.67-.12,4.13-.12,3.83,0,7.77.29,11.57.57,3.2.24,6.5.48,9.79.56,1.21.03,2.48.04,3.77.04,5.3,0,10.64-.25,15.8-.48,1.68-.08,3.36-.15,5.04-.22.34.16.71.24,1.1.24h0Z" style="fill:#e11c84;"/><path d="M22.41,62.72c-2.03,0-4.08-.09-6.17-.18-.23,0-.42-.06-.56-.09-.16.06-.32.09-.49.09-.21,0-.42-.05-.61-.15-.43-.23-.7-.68-.69-1.16,0-.07,0-.2,0-.2l-.13-.03c-.17.6-.57.88-.94,1.01-.14.05-.3.08-.45.08-.19,0-.38-.04-.56-.12-.31-.15-.56-.42-.67-.74l-.61-1.71c-.9-.73-.87-1.75-.86-2.28,0-.13.01-.26,0-.39-.64-4.12-1.19-8.37-1.73-12.47-.4-3.06-.8-6.13-1.24-9.19-.04-.27-.05-.58-.06-.9,0-.3-.02-.81-.1-.95-.59-.15-.99-.66-.97-1.27.03-.92.02-1.88,0-2.81-.01-.94-.03-1.87,0-2.81.06-2.18.15-4.38.23-6.58.08-2.1.16-4.21.22-6.3.01-.48,0-.97-.01-1.46-.02-.83-.04-1.68.05-2.53.03-.24.1-.91.86-1.32.19-.1.41-.16.62-.16.19,0,.38.04.55.12.02,0,.04-.01.06-.02.18-.04.39-.09.65-.09.04,0,.14,0,.19,0,.34.03.6.17.76.26,1.09.09,2.22.14,3.53.14.99,0,1.97-.02,2.96-.05.91-.02,1.83-.05,2.78-.05h0c.36,0,.81.04,1.31.08.52.04,1.12.09,1.61.09.25,0,.41-.01.52-.03.2-.28.5-.64,1.05-.72.07-.01.15-.02.22-.02.24,0,.44.06.58.1.01,0,.03,0,.03,0,1.4-.09,2.88-.14,4.48-.14,3.98,0,7.98.3,11.86.58,3.15.23,6.41.47,9.6.55,1.23.03,2.45.04,3.68.04,5.21,0,10.5-.24,15.61-.48,2.05-.09,4.1-.19,6.15-.27.02,0,.03,0,.05,0,.25,0,.5.07.7.21,1.66-.18,3.44-.29,5.19-.31,16.88-.19,35.21-1.65,51.06-3,.75-.06,1.61-.19,2.51-.33,1.41-.21,2.87-.43,4.12-.43.12,0,.24,0,.35,0,3.99.14,6.45.39,7.3.75.05.02.28.09,1.02.09.31,0,.65-.01.99-.02.38-.01.76-.02,1.13-.02.74,0,1.31.05,1.78.16.33.08.69.2,1.07.37.4.18.68.55.75.98.01.08.03.17.05.25.05.2.09.41.11.61.33,3.14-.12,6.32-.55,9.4-.38,2.68-.73,5.21-.62,7.71.01.32.07.67.13,1.04.08.48.16.97.17,1.51,0,.29-.09.58-.26.8.07.86.27,1.47.79,2.04.27.08.64.26.9.67.32.51.37,1.17.41,2.21,0,.11,0,.23.01.36.31.32.36.7.37.85.05.93-.17,2.22-.38,3.46-.14.8-.26,1.56-.3,2.1,0,.03.02.09.03.15.04.2.08.47.07.78l-.04.7c-.06,1-.18,3,.05,3.87.06.05.13.11.2.16.35.28.68.54.79,1.04.13.58-.07,1.1-.2,1.44-.03.07-.06.14-.08.21-.04.3-.04.7-.04,1.13,0,.6-.01,1.22-.12,1.83-.03.15-.1.42-.33.67-.01.54,0,1.41.01,1.83.02.02.04.04.06.05.33.32.94.92.86,1.87-.04.39-.24.74-.56.96-.22.15-.47.23-.73.23-.12,0-.25-.02-.37-.05-1.12-.33-2.3-.53-3.2-.66-2.2-.33-4.86-.33-7.44-.34-.67,0-1.33,0-1.98-.01-6.27-.07-11.89-.11-17.19-.11-22.12,0-40.16.63-56.77,1.98-7.56.62-15.24,1.73-22.66,2.8-5.27.76-10.72,1.55-16.08,2.15-2.11.24-4.16.35-6.47.35Z" style="fill:#e11c84;"/><path d="M139.35,5.67c.1,0,.21,0,.31,0,1.32.05,5.85.23,6.84.65.37.15.91.19,1.53.19.66,0,1.41-.05,2.11-.05.54,0,1.06.03,1.49.13.28.06.56.17.82.29.04.26.13.54.16.8.58,5.58-1.43,11.41-1.17,17.03.04.84.29,1.67.3,2.51l-.3-.07c.02,1.61.21,2.86,1.4,4.01.14.14.42.07.53.25.27.42.16,2.05.29,2.61.03.11.29.09.3.18.07,1.34-.58,3.94-.68,5.4-.02.3.11.63.1.96-.06,1.32-.34,4.1.17,5.31.09.22.84.7.86.8.07.33-.25.81-.29,1.17-.11.91,0,2.02-.16,2.92-.02.12-.27.03-.31.31-.06.44-.06,2.36.01,2.81.07.49.94.82.89,1.42-1.1-.33-2.24-.53-3.38-.7-2.88-.43-6.46-.33-9.59-.37-5.72-.07-11.46-.11-17.2-.11-18.98,0-38.05.45-56.87,1.99-12.99,1.06-25.91,3.51-38.78,4.95-2.23.25-4.27.34-6.32.34s-3.96-.08-6.11-.18c-.25-.01-.48-.13-.72-.13-.13,0-.26.03-.4.13.03-3.9-.38-8-2.22-11.49l.44-.15c-.89-.92-1.34-1.27-1.53-1.27-.42,0,.5,1.77.86,2.83.96,2.85,1.31,5.59,1.41,8.59-.26-.05-.71-.18-1.08-.18-.17,0-.31.03-.41.1-.33.23.08.99-.29,1.12l-.75-2.13c-.92-.47-.54-1.28-.66-2.03-1.1-7.13-1.93-14.41-2.96-21.64-.14-1.01.2-2.56-1.13-2.89.06-1.87-.05-3.75,0-5.62.13-4.26.33-8.61.46-12.88.04-1.28-.11-2.63.03-3.89.02-.16.02-.23.18-.32.14.11.3.14.45.14.29,0,.57-.12.81-.12.02,0,.04,0,.06,0,.18.02.38.22.62.25,1.32.12,2.56.16,3.79.16,1.89,0,3.74-.09,5.75-.1,0,0,.02,0,.02,0,.67,0,1.9.17,2.89.17.51,0,.95-.04,1.22-.18.28-.14.39-.56.54-.58,0,0,.01,0,.02,0,.12,0,.35.11.55.11.01,0,.02,0,.03,0,1.51-.1,3.01-.14,4.51-.14,7.15,0,14.27.96,21.43,1.13,1.24.03,2.47.04,3.7.04,7.3,0,14.56-.47,21.81-.75l.13.28c1.89-.24,3.87-.37,5.78-.39,16.63-.19,34.32-1.57,51.16-3,1.98-.17,4.6-.75,6.52-.75M139.35,3.06h0c-1.35,0-2.85.22-4.31.44-.89.13-1.72.26-2.43.32-15.83,1.35-34.12,2.8-50.97,2.99-1.66.02-3.35.11-4.94.28-.29-.11-.61-.17-.94-.17-.03,0-.07,0-.1,0-2.05.08-4.1.17-6.15.27-5.1.23-10.38.48-15.56.48-1.25,0-2.48-.01-3.64-.04-3.16-.08-6.4-.32-9.53-.55-3.9-.29-7.93-.59-11.96-.59-1.53,0-2.96.04-4.35.13-.2-.05-.45-.1-.74-.1-.13,0-.29.01-.42.03-.67.1-1.15.42-1.47.73-.42,0-.93-.05-1.39-.09-.5-.04-.98-.08-1.39-.08-1,0-1.93.03-2.85.05-1.01.03-1.96.05-2.93.05-1.17,0-2.19-.04-3.17-.11-.25-.12-.58-.24-.99-.28-.1-.01-.21-.02-.31-.02-.24,0-.45.03-.63.06-.21-.05-.42-.08-.63-.08-.42,0-.85.1-1.24.31-.62.34-1.39,1.01-1.53,2.31-.1.95-.08,1.85-.06,2.72.01.49.02.96.01,1.39-.06,2.09-.14,4.21-.22,6.32-.08,2.2-.17,4.39-.23,6.57-.03.97-.01,1.93,0,2.86.01.95.03,1.85,0,2.74-.03.89.39,1.7,1.07,2.2,0,.04,0,.07,0,.1,0,.32.02.67.07,1.05.44,3.05.84,6.16,1.24,9.17.54,4.1,1.09,8.34,1.73,12.47,0,.06,0,.13,0,.19-.02.54-.06,1.97,1.04,3.07l.5,1.4c.23.65.72,1.19,1.34,1.49.35.17.73.25,1.11.25.3,0,.6-.05.89-.16.05-.02.11-.04.18-.07.16.14.34.27.53.37.38.2.8.3,1.21.3.18,0,.36-.02.53-.05.14.02.29.04.46.05,2.11.1,4.17.19,6.23.19,2.36,0,4.46-.11,6.61-.36,5.37-.61,10.83-1.39,16.11-2.16,7.41-1.07,15.06-2.18,22.59-2.79,16.57-1.35,34.58-1.98,56.66-1.98,5.29,0,10.91.04,17.17.11.65,0,1.31,0,1.99.01,2.53,0,5.15.01,7.25.33.86.13,1.99.31,3.03.62.24.07.49.11.74.11.52,0,1.03-.15,1.46-.45.65-.44,1.06-1.14,1.13-1.92.11-1.23-.48-2.1-.93-2.6,0-.27,0-.58,0-.86.15-.26.26-.55.31-.86.13-.71.13-1.42.14-2.04,0-.32,0-.62.02-.86,0,0,0-.01,0-.02.17-.43.47-1.23.26-2.19-.18-.82-.67-1.3-1.07-1.62-.08-.83.01-2.41.06-3.07.02-.27.03-.51.04-.72.02-.45-.05-.83-.09-1.06.05-.47.16-1.15.27-1.81.22-1.31.45-2.67.4-3.75-.02-.38-.14-.82-.38-1.23-.04-1.02-.08-1.98-.6-2.81-.3-.47-.7-.83-1.21-1.06-.11-.17-.19-.38-.24-.69.15-.34.22-.71.22-1.09-.01-.63-.11-1.2-.19-1.7-.05-.33-.11-.64-.12-.88-.11-2.38.24-4.85.61-7.47.44-3.15.9-6.42.56-9.71-.03-.31-.1-.58-.14-.78-.01-.05-.03-.11-.04-.16-.15-.85-.71-1.61-1.5-1.96-.47-.21-.89-.36-1.31-.46-.57-.13-1.23-.19-2.07-.19-.38,0-.78.01-1.17.03-.32.01-.64.02-.94.02-.36,0-.54-.02-.61-.03-.5-.2-1.78-.6-7.67-.82-.13,0-.26,0-.4,0h0Z" style="fill:#e11c84;"/><path d="M38.61,64.02c-.66,0-1.22-.5-1.29-1.17-.03-.27-.09-.82.34-1.29.25-.27.62-.44.99-.44.09,0,.21.02.32.04.19-.01.38-.02.58-.02h.83c.22,0,.44,0,.65-.03,1.74-.24,3.5-.5,5.26-.75,6.37-.92,12.95-1.87,19.53-2.44l2.06-.19c2.68-.25,5.45-.5,7.96-.54.94-.02,1.59-.07,2.55-.16.47-.04.87-.06,1.23-.06.52,0,.96.04,1.47.08.16.01.33.03.51.04,0,0,.02,0,.02-.01.2-.09.51-.23.88-.26,2.18-.17,4.47-.2,6.68-.22,1.67-.02,3.4-.04,5.02-.12.46-.02,1.03-.1,1.62-.19.78-.11,1.6-.22,2.3-.22,1.15,0,1.69.69,1.82,1.33.08.36,0,.74-.22,1.04-.22.3-.55.49-.92.53-1.45.15-2.92.33-4.38.51-1.08.13-2.17.26-3.25.38-15.71,1.77-29.86,3.01-43.26,3.79,0,0-9.27.37-9.29.37Z" style="fill:#e11c84;"/><path d="M98.11,57.38s.03,0,.04,0c.23,0,.46.05.51.3-2.54.27-5.09.6-7.64.89-14.36,1.62-28.79,2.95-43.19,3.79l-9.21.36c-.02-.23-.01-.29.04-.29s.12.05.21.05c0,0,.02,0,.02,0,.21-.02.43-.03.66-.03.27,0,.55,0,.83,0s.56,0,.83-.05c8.11-1.13,16.39-2.46,24.71-3.19,3.3-.29,6.83-.67,9.93-.73.99-.02,1.67-.07,2.65-.16.43-.04.78-.06,1.11-.06.7,0,1.26.07,2.08.13,0,0,.02,0,.02,0,.25,0,.59-.26.89-.29,3.79-.3,7.88-.15,11.66-.34,1.16-.06,2.74-.41,3.85-.41M98.11,54.78c-.8,0-1.65.12-2.48.24-.54.08-1.1.15-1.51.18-1.6.08-3.23.1-4.97.12-2.23.02-4.54.05-6.77.23-.41.03-.76.14-1.02.25-.06,0-.13-.01-.19-.02-.51-.04-.99-.08-1.57-.08-.43,0-.87.02-1.35.07-.95.09-1.55.13-2.45.15-2.55.05-5.34.3-8.03.55-.7.06-1.39.13-2.08.19-6.6.57-13.21,1.53-19.59,2.45-1.76.25-3.51.51-5.26.75-.15.02-.39.02-.47.02-.12,0-.25,0-.37,0-.15,0-.3,0-.45,0-.17,0-.32,0-.47,0-.13-.02-.27-.03-.43-.03-.74,0-1.47.32-1.96.87-.81.9-.7,1.95-.66,2.29.14,1.33,1.26,2.33,2.59,2.33.03,0,.07,0,.1,0l9.21-.36c13.46-.78,27.64-2.03,43.38-3.8,1.08-.12,2.16-.25,3.23-.38,1.46-.18,2.93-.35,4.39-.51.74-.08,1.4-.47,1.84-1.07s.59-1.36.43-2.08c-.23-1.07-1.17-2.33-3.03-2.35,0,0-.05,0-.06,0h0Z" style="fill:#e11c84;"/><path d="M7.6,8.31c-.11,0-.23,0-.35,0-.69-.04-1.23-.61-1.23-1.3v-.44c0-.36.15-.71.42-.96.24-.22.56-.34.88-.34.04,0,.07,0,.11,0l1.78.15c.41.03.77.26.99.6s.26.77.12,1.16c-.36.95-1.46,1.05-2.06,1.11-.24.02-.45.03-.67.03Z" style="fill:#e11c84;"/><path d="M7.33,6.56l1.78.15c-.08.2-.78.26-.98.28-.17.02-.35.03-.52.03-.09,0-.18,0-.27,0v-.44M7.33,3.96c-.65,0-1.28.24-1.76.69-.54.49-.84,1.19-.84,1.91v.44c0,1.38,1.08,2.53,2.46,2.6.14,0,.28.01.42.01.25,0,.51-.01.77-.04.7-.07,2.52-.24,3.17-1.94.29-.76.21-1.62-.23-2.31-.44-.69-1.17-1.14-1.99-1.21l-1.78-.15c-.07,0-.15,0-.22,0h0Z" style="fill:#e11c84;"/><path d="M154.34,5.49c-.34,0-.68-.13-.92-.39l-.22-.22c-.24-.24-.38-.57-.38-.92v-.22c0-.72.58-1.3,1.3-1.3h.29c.38,0,.75.17.99.46s.35.68.29,1.05l-.07.44c-.08.48-.42.88-.89,1.03-.13.04-.26.06-.4.06Z" style="fill:#e11c84;"/><path d="M154.41,3.75l-.07.44-.22-.22v-.22s.29,0,.29,0M154.41,1.14h-.3c-.69,0-1.35.28-1.84.77s-.76,1.15-.76,1.85v.22c0,.68.27,1.34.75,1.82l.22.22c.5.5,1.17.77,1.85.77.26,0,.53-.04.79-.12.93-.3,1.62-1.09,1.78-2.06l.07-.44c.12-.75-.09-1.52-.58-2.11-.49-.58-1.22-.92-1.98-.92h0ZM154.41,6.35h0,0Z" style="fill:#e11c84;"/><path d="M152.63,2.74h.3c.72,0,1.3.58,1.3,1.3v.15c0,.72-.58,1.3-1.3,1.3h-.29c-.72,0-1.3-.58-1.3-1.3v-.14c0-.72.58-1.3,1.3-1.3Z" style="fill:#e11c84;"/><path d="M152.93,4.04v.15h-.3v-.15h.3M152.93,1.44h-.3c-1.44,0-2.6,1.17-2.6,2.6v.15c0,1.44,1.17,2.6,2.6,2.6h.3c1.44,0,2.6-1.17,2.6-2.6v-.15c0-1.44-1.17-2.6-2.6-2.6h0Z" style="fill:#e11c84;"/><path d="M39.42,55.4c-.72,0-1.47-.28-2.36-.9-.51-.35-.83-.8-1.06-1.13-.07-.1-.13-.2-.2-.27-.33-.23-.49-.58-.5-.98-.05-1.3-.25-2.61-.47-3.99-.2-1.26-.4-2.56-.48-3.86-.07-1.17-.13-2.31-.18-3.44-.23-4.57-.46-8.89-1.15-13.38-.03.07-.06.15-.09.22-.56,1.33-.92,2.53-1.27,3.69-.62,2.07-1.27,4.21-2.79,6.37-.03.35-.14.83-.52,1.31-.92,1.16-1.97,1.41-2.69,1.41-1.72,0-3.08-1.34-3.75-2.14-.7-.84-1.21-1.8-1.59-2.84-.24,3.23-.32,6.8-.26,10.93,0,.26.05.67.1,1.16.27,2.69.68,6.75-1.91,7.46-.16.04-.32.06-.49.06-1.03,0-2.43-.88-2.9-1.61-.92-1.42-.93-4.01-.94-6.09,0-.48,0-.92-.02-1.27-.3-7.07-.38-17.46,2.37-26.03.09-.29.21-.6.32-.9.21-.56.45-1.18.45-1.55,0-.47.26-.88.64-1.11.01-.48.28-.91.71-1.13.84-.42,2.14-.47,2.66-.47,1.11,0,2.59.17,3.32.99,1.19,1.34,1.47,4.15,1.67,7.43.25-.66.53-1.3.84-1.87.11-.19.22-.31.51-.61.12-.13.27-.27.39-.4,0-.03,0-.06,0-.09.02-.4.05-.99.43-1.61.27-.44.64-.65.86-.78,0,0,0,0,.01,0,.45-.65.88-1.38,1.3-2.09.33-.56.66-1.11,1-1.64.15-.23.67-.97,1.33-1.09.08-.01.15-.02.23-.02.12,0,.24.02.36.05.23-.13.57-.3,1.03-.34.06,0,.36-.01.72-.01,1.38,0,1.46.03,1.67.1.26.09.88.5.89.5.8.53,1.38.92,1.41,1.87,0,.04,0,.08.04.16.03.07.08.13.12.19.16.24.38.57.47,1.01.24,1.1.3,2.34.37,3.54.07,1.33.14,2.7.45,3.61.56,1.63.72,3.45.76,4.76.52,1.53.65,3.09.71,4.79.24.2.4.47.46.79.07.39-.05.79-.31,1.09.02.08.06.19.09.28.1.3.24.67.27,1.11.21,2.58.1,5.13-.02,7.84-.04.85-.08,1.71-.1,2.58-.01.42.01.96.04,1.55.07,1.63.15,3.49-.33,4.69-.68,1.72-1.79,2.09-2.61,2.09Z" style="fill:#e11c84;"/><path d="M35.06,14.14c.52,0,1.18,0,1.23.03.04.01.5.3.59.36,1.25.83.62.53.97,1.42.14.36.46.65.54,1.01.49,2.24.18,5.33.86,7.3.48,1.39.67,3.09.69,4.58.62,1.69.68,3.53.72,5.34l.46.23c-.77.8-.03,1.51.04,2.37.27,3.3-.02,6.71-.13,10.27-.05,1.48.33,4.45-.21,5.81-.36.9-.83,1.26-1.4,1.26-.48,0-1.02-.26-1.62-.67-.57-.39-.81-1.08-1.19-1.36-.09-2.62-.79-5.27-.94-7.88-.36-6.26-.49-11.83-1.48-17.82-.15-.92-.43-1.83-.44-2.78-.88.86-1.54,2.48-2.03,3.65-1.55,3.69-1.69,6.8-4.13,10.04-.03.04.12.46-.24.93-.51.65-1.09.91-1.67.91-1,0-2.01-.78-2.75-1.67-2.52-3.04-2.31-8.26-2.37-11.99-.03-.03-.06-.05-.08-.05-.31,0-.49,2.31-.53,2.51-1.06,6.04-1.26,12.27-1.17,18.47.02,1.44,1.06,6.83-.86,7.36-.04.01-.09.02-.15.02-.55,0-1.55-.62-1.81-1.02-.91-1.4-.68-4.97-.75-6.71-.35-8.24-.2-17.77,2.31-25.58.3-.93.83-2,.84-2.84l.63-.04v-1.05c.42-.21,1.24-.33,2.08-.33,1,0,2.01.17,2.35.55,1.21,1.36,1.27,6.04,1.43,7.92.09,1.05.03,2.23.21,3.33.05.3.12.75.36.95.39-.36.32-.89.51-1.36.64-1.58,1.26-3.94,2.12-5.51.05-.1.9-.88.98-1.1.16-.42-.02-1,.32-1.55.19-.31.58-.37.75-.61.85-1.22,1.6-2.64,2.4-3.89.04-.07.44-.51.47-.51.15.08.27.11.39.11.4,0,.67-.37,1.11-.41.05,0,.31,0,.61,0M35.06,11.53c-.63,0-.74,0-.83.02-.45.04-.84.16-1.13.29-.05,0-.1,0-.14,0-.15,0-.31.01-.46.04-1.11.2-1.86,1.13-2.2,1.67-.36.56-.7,1.13-1.03,1.68-.37.63-.73,1.23-1.1,1.79-.3.2-.72.53-1.05,1.06-.11.18-.2.35-.27.52-.29-1.47-.74-2.7-1.5-3.55-.84-.95-2.28-1.42-4.29-1.42-.76,0-2.2.08-3.25.61-.65.33-1.12.91-1.32,1.59-.45.47-.74,1.1-.74,1.8-.02.18-.23.73-.37,1.1-.12.33-.25.65-.35.97-2.81,8.77-2.73,19.31-2.43,26.48.01.34.02.76.02,1.22.01,2.86.1,5.18,1.15,6.79.69,1.06,2.46,2.2,3.99,2.2.29,0,.57-.04.84-.11,3.65-1.01,3.16-5.92,2.86-8.85-.04-.41-.09-.87-.09-1.05-.03-2.41-.02-4.62.05-6.68,1.29,1.33,2.78,2.05,4.25,2.05s2.74-.68,3.71-1.9c.39-.49.64-1.04.75-1.63,1.12-1.66,1.77-3.27,2.29-4.85.21,2.48.34,4.98.47,7.54.06,1.13.12,2.27.18,3.44.08,1.37.29,2.7.49,3.99.21,1.34.41,2.61.45,3.83.03.71.34,1.38.87,1.85.02.03.04.06.07.09.25.37.68.98,1.39,1.47.7.48,1.79,1.13,3.1,1.13.8,0,2.78-.28,3.82-2.91.58-1.47.5-3.46.42-5.23-.02-.57-.05-1.11-.04-1.46.03-.87.07-1.72.1-2.57.12-2.63.24-5.34.02-8-.04-.45-.14-.83-.24-1.13.19-.45.25-.96.17-1.46-.07-.4-.23-.77-.46-1.08-.06-1.56-.22-3.03-.69-4.51-.05-1.39-.24-3.25-.82-4.95-.25-.75-.32-2.02-.38-3.26-.06-1.25-.13-2.55-.39-3.75-.14-.64-.43-1.11-.63-1.4-.17-1.43-1.16-2.1-1.97-2.64-.22-.15-.78-.51-1.18-.65-.43-.15-.71-.17-2.09-.17h0Z" style="fill:#e11c84;"/><path d="M62.19,51.71c-.52,0-1-.21-1.35-.58-.77-.82-.67-2.14-.57-3.41.02-.33.06-.82.04-.98-.03-.1-.04-.15-.04-.26l-.07-1.34c-.44-8.34-.89-16.96.45-25.19.3-1.87,2.04-3.02,4.53-3.02,1.62,0,3.3.49,4.28,1.24.24.19.4.44.47.72.08.1.15.21.2.34.14.33.15.64.16.86,0,.03,0,.06,0,.1.41.91.84,1.83,1.25,2.78.29-2.04.61-4.14,1.35-5.96.36-.87.89-1.58,1.36-2.2.18-.24.36-.47.52-.71,0-.01,0-.02,0-.04.07-.47.17-1.1.62-1.55.5-.49,2.86-1.05,2.89-1.06.21-.04.43-.05.65-.05.39,0,.76.05,1.08.1.24.03.48.07.72.07.1,0,.19,0,.26-.03.11-.03.22-.04.32-.04.33,0,.66.13.91.37.09.09.17.19.23.3,1.18.71,1.83,2.43,1.84,2.45.18.53.14,1.14.11,1.78-.02.33-.04.74,0,.93.06.36.24.86.42,1.36.25.69.5,1.41.59,2.1.27,2.13.61,4.36.95,6.51.94,6.06,1.9,12.32,1.63,18.47-.22,4.95-2.37,5.69-3.63,5.69-1.34-.04-3.11-1.93-3.38-2.63-.92-2.38-1.15-5.61-1.37-8.73-.15-2.09-.29-4.06-.62-5.63l-.61-3.27c-.85,3.72-1.74,6.07-2.68,7.13-.37.42-.79.67-1.13.87-.15.09-.3.17-.44.28-.24.2-.53.3-.83.3s-.57-.09-.81-.28c-.13-.1-.44-.22-.69-.31-.3-.11-.61-.23-.9-.4-.4-.24-1.98-1.63-2.27-2.02-.12-.17-.28-.47-.25-.86-.43-.72-.86-1.64-1.24-2.55-.06.95-.1,1.91-.15,2.9-.12,2.57-.25,5.23-.57,7.8,0,.06-.84,6.29-3.09,7.38-.4.2-.77.29-1.14.29h0Z" style="fill:#e11c84;"/><path d="M78.93,12.7c.59,0,1.2.17,1.8.17.2,0,.39-.02.58-.07l-.1.43c.07-.04.14-.06.22-.06.66,0,1.47,1.4,1.63,1.86.19.55-.08,1.8.05,2.52.17,1,.86,2.36,1,3.4,1.02,8.02,2.93,16.54,2.57,24.75-.06,1.36-.38,4.44-2.33,4.44-.02,0-.04,0-.06,0-.53-.02-1.95-1.38-2.11-1.8-1.44-3.72-1.07-10.12-1.92-14.15l-1.89-10.19c0-.07-.02-.14-.04-.21l.04.21c.08.72-.41,1.29-.54,1.94-.07.31.15.63.1.92-.43,2.41-1.64,8.84-3.2,10.6-.4.45-.96.63-1.42,1.01-.49-.39-1.29-.54-1.73-.81-.29-.17-1.73-1.46-1.89-1.68-.04-.06.14-.26.08-.34-.82-1.18-1.81-3.67-2.41-5.31-.15-.43-.65-3.04-.86-3.19-.78.23-.19.93-.24,1.36-.64,4.94-.5,10.3-1.13,15.37-.17,1.36-1.13,5.77-2.37,6.37-.23.11-.41.16-.57.16-1.23,0-.38-3.18-.63-3.99-.45-8.63-1.02-17.72.37-26.25.23-1.4,1.69-1.93,3.24-1.93,1.33,0,2.73.39,3.48.97-.29.48.17.31.27.54.1.24.01.62.14.91.78,1.72,1.55,3.4,2.27,5.17.05.11.34,1.91.74,1.91.06,0,.12-.04.18-.12,0-.37-.06-.76.02-1.13.61-2.78.73-6.32,1.82-8.98.46-1.11,1.3-1.95,1.89-2.89.09-.14.1-.96.33-1.18.08-.08,1.93-.65,2.19-.7.14-.02.28-.03.42-.03M81.31,12.81h0M78.93,10.1c-.3,0-.59.02-.87.07-.03,0-2.72.56-3.58,1.42-.65.64-.84,1.43-.94,2.01-.1.14-.21.28-.32.43-.49.65-1.11,1.46-1.53,2.49-.24.57-.43,1.17-.6,1.77-.17-.44-.45-.85-.85-1.15-1.21-.93-3.16-1.51-5.07-1.51-3.17,0-5.4,1.58-5.81,4.12-1.36,8.37-.91,17.07-.47,25.48l.07,1.33c0,.12.02.25.05.37,0,.16-.03.48-.04.7-.1,1.4-.23,3.15.92,4.39.6.64,1.42,1,2.31,1,.56,0,1.13-.14,1.71-.42,2.8-1.36,3.66-7.23,3.81-8.39.25-1.99.38-4.02.49-6.02.69.67,1.68,1.5,2.04,1.71.39.23.77.38,1.11.5.13.05.31.11.4.16.46.35,1.01.52,1.56.52.59,0,1.17-.2,1.65-.59.04-.03.18-.11.27-.17.37-.22.93-.55,1.44-1.12.4-.45.86-1.11,1.36-2.31.11,1.02.19,2.15.27,3.31.23,3.22.46,6.55,1.45,9.11.4,1.03,2.5,3.4,4.46,3.46h.13c1.39,0,4.65-.67,4.93-6.93.28-6.27-.7-12.6-1.65-18.72-.35-2.24-.67-4.36-.94-6.48-.11-.83-.4-1.65-.65-2.37-.15-.42-.32-.89-.36-1.14,0-.08.01-.41.03-.63.04-.7.09-1.5-.17-2.27,0-.03-.69-1.93-2.13-2.97-.47-.62-1.21-1.03-2.05-1.04,0,0-.02,0-.03,0-.04,0-.08,0-.12,0-.16,0-.32.03-.47.06-.13,0-.33-.03-.52-.06-.35-.05-.79-.11-1.27-.11h0Z" style="fill:#e11c84;"/><path d="M100.16,50.47c-1.68,0-3.24-.26-4.64-.77-.91-.33-1.65-.91-2.13-1.67-.15-.24-.22-.52-.2-.8.06-.74-.06-1.51-.18-2.32-.08-.54-.17-1.11-.2-1.69-.45-7.1-.7-14-.74-19.96,0-1.32.11-2.64.22-3.92.1-1.16.19-2.26.21-3.36,0-.19.05-.38.13-.55.34-.71.99-1.12,1.77-1.12.29,0,.55.06.76.1.05.01.1.02.15.03.22-.17.52-.54.73-.81.25-.32.51-.64.81-.9.8-.68,2.55-1.96,4.06-2.5,1.56-.56,3.04-.84,4.41-.84,1.61,0,3.02.4,4.19,1.18.9.61,1.88,2.93,1.98,3.28.47,1.59-.02,3.89-.35,5.13-.83,3.1-2.61,6.36-3.87,8.54-.34.58-.79,1.09-1.22,1.57-.16.18-.32.36-.47.53,2.38.45,3.56,1.8,4.8,3.48l.18.24c.53.71.99,1.34,1.22,1.85,1.84,4.03,1.5,9.65-2.7,12.61-2.37,1.66-5.7,2.66-8.91,2.66ZM99.61,38.52c.2.24.32.56.3.89l-.17,3.98c.71-.21,1.52-.48,2.02-.65.13-.21.32-.43.62-.59.14-.07.38-.18.66-.31.33-.15,1.02-.46,1.37-.65.05-.23.12-.57.36-.9.19-.27.42-.44.58-.57.04-.03.09-.07.12-.09.02-.68-.86-2.61-1.41-3.13-.11.01-.19.02-.26.02-.12,0-.33-.03-.44-.06-.11-.03-.25-.08-.39-.17-.34.1-.77.24-1.05.33-.93.3-1.32.42-1.67.42-.06,0-.13,0-.19-.01-.14-.02-.36-.1-.61-.21.09.54.18,1.11.16,1.71ZM98.4,27.1c.28-.3.59-.45.77-.54.24-.33.44-.88.62-1.36.19-.52.37-1.01.64-1.4.25-.36.59-.5.83-.6.05-.02.12-.05.18-.08.18-.32.39-.66.6-1.01.53-.88,1.07-1.79,1.42-2.49.31-.62,1.03-2.74,1.25-3.71-.13,0-.27,0-.4-.02-.11,0-.21-.01-.31-.01,0,0-.07,0-.09,0-.24.08-1.32.67-1.67.87l-.32.18c-1.66.9-3.08,1.94-4.22,3.1l.72,7.08Z" style="fill:#e11c84;"/><path d="M105.32,10.7c1.23,0,2.43.27,3.46.96.42.28,1.3,2.03,1.46,2.57.36,1.2-.03,3.22-.36,4.42-.75,2.77-2.31,5.75-3.74,8.23-.76,1.3-2.47,2.4-2.67,4.11.28-.12.57-.19.87-.19.05,0,.11,0,.16,0,2.46.19,3.49,1.27,4.83,3.08.35.48,1.03,1.35,1.26,1.86,1.66,3.64,1.27,8.52-2.27,11.01-2.19,1.54-5.23,2.42-8.16,2.42-1.47,0-2.9-.22-4.19-.69-.6-.22-1.13-.6-1.48-1.14.11-1.43-.29-2.8-.38-4.2-.41-6.45-.7-13.4-.74-19.88-.01-2.41.4-4.84.42-7.26.14-.3.35-.38.6-.38.32,0,.69.14,1.02.14.11,0,.22-.02.32-.06.81-.36,1.42-1.5,1.96-1.97.9-.76,2.47-1.84,3.66-2.27,1.22-.44,2.61-.76,3.97-.76M104.81,14.61c-.28,0-.56-.03-.81-.03-.12,0-.24,0-.34.03-.43.09-1.86.9-2.36,1.17-1.86,1-3.56,2.24-4.96,3.78l1.2,11.8,1.56-2.42c0-1.25.69-1.1.99-1.43.74-.84,1-2.36,1.43-2.97.1-.14.76-.24,1.01-.67.65-1.12,1.58-2.61,2.11-3.67.4-.8,1.43-3.84,1.45-4.65,0-.46-.3-.69-.47-1.08-.25.1-.52.13-.79.13M98.42,45.05c.52,0,3.87-1.09,4.25-1.27.1-.05.13-.39.28-.46.48-.24,2.2-.95,2.49-1.27.27-.3.19-.74.38-1.01.19-.27.69-.42.88-.96.37-1.07-1.05-4.1-2.02-4.73-.19-.13-.36-.16-.51-.16s-.28.03-.38.03c-.03,0-.06,0-.09-.01-.12-.03-.1-.31-.15-.33-.03,0-.06-.01-.1-.01-.6,0-2.82.86-3.2.86,0,0-.02,0-.02,0-.1-.01-1.52-.76-1.7-.88-.22-.14-.15-.51-.4-.51-.02,0-.04,0-.07,0-.42,1.65.56,3.27.16,4.82l.4.18-.25,5.68s.03.01.06.01M105.32,8.1h0c-1.52,0-3.15.31-4.85.92-1.58.56-3.39,1.83-4.46,2.73-.4.34-.71.73-.99,1.08-.05.06-.11.14-.17.21-.14-.02-.29-.03-.46-.03-1.28,0-2.38.69-2.94,1.85-.17.34-.25.72-.26,1.11-.01,1.05-.1,2.13-.2,3.27-.11,1.3-.23,2.65-.22,4.03.03,5.99.29,12.92.74,20.03.04.64.13,1.23.21,1.8.11.74.22,1.44.17,2.03-.04.56.1,1.13.4,1.6.64,1,1.6,1.76,2.78,2.19,1.54.56,3.25.85,5.08.85,3.52,0,7.04-1.06,9.66-2.9,4.79-3.37,5.2-9.7,3.14-14.22-.29-.63-.79-1.32-1.37-2.1l-.17-.22c-.97-1.31-2-2.55-3.59-3.33.2-.26.39-.53.56-.83,1.3-2.25,3.13-5.61,4-8.85.45-1.67.87-4.04.34-5.84,0-.03-1.05-3.01-2.5-3.98-1.38-.93-3.04-1.41-4.92-1.41h0ZM99.04,20.52c.97-.9,2.14-1.72,3.48-2.45l.2-.11c-.17.47-.32.87-.42,1.07-.33.65-.88,1.58-1.37,2.4-.13.23-.27.45-.39.66-.33.16-.8.43-1.17.96-.02.03-.04.06-.06.09l-.27-2.62h0ZM100.97,38.25c.36-.08.78-.21,1.34-.39.15-.05.36-.11.56-.18.05.02.09.03.13.04.13.04.26.06.4.08.23.38.48.91.63,1.34-.11.12-.23.25-.34.41-.18.26-.3.52-.39.75-.29.14-.62.29-.81.37-.3.14-.56.25-.71.33-.26.13-.48.29-.66.47l.09-1.99c.02-.43-.07-.85-.24-1.22h0Z" style="fill:#e11c84;"/><path d="M131.41,52.51c-.87,0-1.48-.52-1.93-.91-.07-.06-.14-.12-.21-.18-.21,0-.5-.07-.68-.17-.08-.04-.86-.48-.66-1.48-.88-2.13-1.32-4.11-1.73-6.11-.09-.43-.13-1-.17-1.59-.02-.29-.05-.72-.09-1.03-.23-.13-.47-.34-.63-.68-.18-.41-.27-1.01-.45-2.63-.11-.91-.25-2.12-.39-2.7l-.02-.02c-.11-.13-.29-.35-.44-.64-1.35.02-3.36.23-4.4.41-.13,1.09-.16,2.22-.19,3.4-.03,1.3-.07,2.65-.25,3.98-.49,3.5-2.15,4.03-3.09,4.03-.62,0-1.26-.23-1.91-.67-1.13-.77-1.77-1.9-1.95-3.44-.11-.89-.14-3.95-.02-4.94.73-6.24,1.99-12.57,3.85-19.34l.13-.5c.28-1.02.4-1.49.91-2.71l.18-.45c.93-2.27,1.98-4.84,5.68-5.12.11,0,.23-.01.35-.01.31,0,3.06.05,3.97,1.71.26.48,1.29,2.97,1.42,3.62.24,1.15.4,2.99.58,5.11.23,2.68.54,6.26,1.04,7.67.23.15.49.39.67.74.6,1.16.6,2.04.6,2.75,0,.21,0,.39.02.56.23.15.47.38.63.74.41.98.74,2.85,1.06,4.66.15.84.28,1.61.41,2.14.07.29.19.78.35,1.35.91,3.48,1.32,5.29,1.17,6.17-.07.44-.09.73-.11,1.01-.02.26-.03.51-.08.83-.07.54-1.19,3.04-1.69,3.53-.62.61-1.24.9-1.9.9ZM121.87,22.34c-.21.85-.39,1.7-.58,2.55-.12.55-.24,1.12-.37,1.68.21-.01.42-.02.64-.02.16,0,.37-.01.57-.02-.04-.07-.07-.14-.1-.2-.16-.44-.09-.85-.02-1.22.02-.1.04-.2.04-.29-.07-.81-.13-1.64-.19-2.48Z" style="fill:#e11c84;"/><path d="M123.29,10.32c.92,0,2.42.3,2.82,1.03.24.45,1.19,2.8,1.29,3.26.59,2.86.75,11.31,1.87,13.44.02.04.39.13.53.42.77,1.49.24,2.3.61,3.51.07.23.48.18.59.44.54,1.28,1.03,5,1.4,6.59.3,1.28,1.67,6.02,1.51,7.02-.14.85-.1,1.2-.19,1.89-.04.33-1.05,2.51-1.31,2.77-.39.38-.71.53-.99.53-.57,0-1.01-.6-1.64-1.04-.07-.05-.16-.06-.25-.06s-.17.01-.24.01c-.04,0-.07,0-.09-.01-.03-.01.13-.36.04-.58-.86-2.03-1.31-3.92-1.77-6.12-.16-.8-.16-2.58-.37-3.14-.11-.29-.53-.26-.61-.44-.25-.56-.46-4.15-.83-5.32-.1-.32-.79-.72-.53-1.35-.09-.06-.43-.09-.91-.09-1.7,0-5.15.35-5.78.68-.48,2.7-.19,5.53-.57,8.23-.17,1.24-.63,2.91-1.81,2.91-.33,0-.72-.13-1.17-.44-.91-.62-1.27-1.47-1.4-2.52-.1-.85-.13-3.77-.02-4.63.76-6.43,2.07-12.81,3.81-19.15.38-1.38.44-1.73.99-3.05.99-2.38,1.66-4.54,4.76-4.76.08,0,.16,0,.26,0M119.8,28.14c.77-.59,3.6.05,3.83-.88.01-.06,0-1.16-.01-1.22-.03-.16-.35-.13-.36-.17-.07-.2.13-.78.1-1.12-.25-2.87-.36-5.77-.57-8.66-2.03,3.53-2.5,7.89-3.51,11.76l.53.29M123.29,7.71c-.16,0-.31,0-.45.02-4.5.33-5.83,3.56-6.79,5.92l-.18.44c-.54,1.3-.68,1.82-.96,2.86l-.14.5c-1.87,6.83-3.15,13.22-3.89,19.54-.13,1.11-.1,4.25.03,5.25.24,1.93,1.06,3.36,2.51,4.35.87.6,1.76.9,2.64.9,1.1,0,3.73-.5,4.38-5.15.2-1.4.23-2.79.27-4.13.02-.79.04-1.55.09-2.29.74-.09,1.65-.18,2.46-.22.1.6.22,1.59.29,2.19.2,1.69.29,2.41.56,3.01.14.32.33.59.58.83.01.16.02.32.03.45.05.64.09,1.25.2,1.76.39,1.89.84,3.9,1.68,6.03-.06,1.16.6,2.04,1.38,2.45.24.13.49.21.75.26.54.46,1.41,1.14,2.68,1.14,1,0,1.95-.43,2.81-1.27.75-.73,1.97-3.48,2.08-4.3.05-.35.06-.63.08-.91.02-.29.03-.52.1-.88.19-1.11-.15-2.73-1.2-6.71-.15-.56-.27-1.03-.34-1.32-.11-.48-.25-1.25-.39-2.07-.41-2.31-.71-3.9-1.14-4.93-.13-.32-.32-.6-.54-.85,0-.76-.02-1.88-.74-3.29-.2-.39-.45-.69-.71-.92-.38-1.47-.69-5-.86-7.01-.19-2.17-.35-4.04-.6-5.26-.17-.84-1.26-3.44-1.55-3.97-1.23-2.28-4.47-2.39-5.11-2.39h0Z" style="fill:#e11c84;"/><path d="M52.18,52.83c-.49,0-1.01-.13-1.63-.41-2.93-1.3-4.02-5.25-4.75-7.87l-.04-.13c-1.85-6.68-2.54-14.56-1.81-20.55.11-.92.45-3.73,2.58-3.73.51,0,1.03.19,1.54.57,1.03.76.93,2.04.88,2.81-.01.18-.03.36-.02.5.08.75.16,1.55.24,2.38.53,5.4,1.24,12.76,3.04,17.39l.18-.48c.21-2.05.32-4.22.43-6.32.1-1.87.2-3.8.37-5.68l.03-.32c.6-6.84.98-7.63,1.54-8.13.36-.32.81-.48,1.31-.48,1.2,0,2.48,1,2.95,1.73.85,1.32.83,4.23.55,8.19v.17c-.73,9.95-1.93,15.79-3.68,17.86-.36.42-.79.59-1.05.69h-.02c-.13.15-.24.3-.34.43-.42.54-1.06,1.37-2.3,1.37Z" style="fill:#e11c84;"/><path d="M46.54,21.46c.22,0,.47.09.76.31.64.47.27,1.71.34,2.4.61,5.95,1.24,14.95,3.48,20.42.31.75,1.03,1.09.72,2.23l.68-.15,1.15-3.04c.42-3.94.46-8.15.82-12.19.1-1.15.59-7.11,1.13-7.59.12-.11.28-.15.45-.15.66,0,1.57.69,1.86,1.13.82,1.27.45,5.87.33,7.57-.27,3.75-1.1,14.45-3.36,17.11-.25.3-.7.31-.91.52-.71.72-.95,1.5-1.81,1.5-.29,0-.64-.09-1.11-.29-2.42-1.07-3.41-4.82-4.06-7.15-1.68-6.07-2.54-13.78-1.77-20.04.1-.82.35-2.58,1.29-2.58M46.54,18.85h0c-1.5,0-3.38.85-3.87,4.87-.75,6.15-.04,14.21,1.85,21.05l.04.13c.74,2.68,1.98,7.16,5.47,8.71.78.35,1.49.52,2.16.52,1.88,0,2.85-1.26,3.32-1.87.04-.05.07-.09.11-.14.35-.16.84-.43,1.27-.94,1.34-1.58,3-5.12,3.97-18.61v-.17c.39-5.19.19-7.54-.74-8.99-.62-.96-2.29-2.32-4.05-2.32-.81,0-1.59.29-2.18.81-.93.83-1.34,1.82-1.97,8.99l-.03.31c-.14,1.51-.23,3.05-.31,4.56-.51-3.23-.84-6.63-1.12-9.48-.08-.82-.16-1.61-.23-2.35,0-.1.01-.2.02-.31.06-.9.2-2.77-1.4-3.95-.74-.54-1.51-.82-2.31-.82h0Z" style="fill:#e11c84;"/><path d="M140.96,46.55c-.98,0-1.7-.53-2.28-.96-.3-.22-.59-.43-.87-.54-.39-.16-.68-.49-.78-.9-.67-2.68-1.27-5.61-1.2-8.83,0-.03,0-.09,0-.09-.06-.41.07-.82.35-1.11-.01-.11-.02-.22-.04-.33-.12-1.09-.24-2.21-.25-3.26,0-.57.11-1.11.2-1.59.05-.26.12-.58.11-.71,0-1.66-.15-3.32-.3-5.08-.26-3.1-.53-6.31-.02-9.49.33-2.11,2.28-2.27,3.01-2.33.21-.02.41-.03.59-.03,3.14,0,3.38,2.42,3.53,3.86.04.42.09.85.17,1.26.08.39.17,1.09.23,1.64.03.22.05.41.07.52.45,1.38.73,2.71.88,4.18.04.41.05.94.06,1.5,0,.31,0,.74.03,1.09.15.11.28.24.38.41.22.36.24.87.07,1.25-.06.14-.15.27-.26.39,0,.14.06.38.1.55.07.33.15.71.15,1.11,0,1.24.02,2.48.05,3.72.04,2.4.09,4.87-.04,7.2-.03.44-.28,4.36-1.74,5.62-.73.63-1.45.94-2.2.94Z" style="fill:#e11c84;"/><path d="M139.5,12.61c2.53,0,1.99,1.98,2.42,4.08.12.58.27,2.11.31,2.22.4,1.21.7,2.49.86,3.99.09.86,0,2.74.18,3.36.07.22.53.06.45.23-.76.64-.13,1.72-.13,2.57,0,3.7.2,7.4,0,10.85-.06,1.11-.45,3.98-1.29,4.7-.53.45-.96.63-1.35.63-.94,0-1.62-.99-2.66-1.41-.69-2.8-1.23-5.56-1.16-8.49l.43-.22-.45-.09.44-.25c-.13-1.35-.35-2.9-.36-4.25,0-.8.32-1.72.32-2.31-.03-4.74-1.09-9.61-.34-14.36.16-1,.9-1.16,1.83-1.24.17-.01.33-.02.48-.02M139.5,10h0c-.22,0-.45,0-.7.03-3.05.25-3.96,2-4.19,3.42-.53,3.34-.25,6.63.01,9.8.14,1.72.28,3.34.29,4.94-.01.1-.06.32-.09.49-.1.52-.23,1.16-.23,1.86,0,1.06.12,2.16.24,3.23-.25.46-.36.99-.31,1.53-.07,3.38.59,6.53,1.24,9.16.2.81.78,1.48,1.56,1.79.12.05.37.23.58.38.65.48,1.64,1.21,3.05,1.21,1.06,0,2.09-.42,3.06-1.26,1.78-1.54,2.12-5.39,2.18-6.53.13-2.37.08-4.88.04-7.29-.02-1.23-.05-2.46-.05-3.7,0-.53-.1-.98-.17-1.36.03-.05.05-.11.08-.16.35-.79.3-1.71-.14-2.45-.05-.09-.12-.19-.21-.3,0-.19,0-.39,0-.55,0-.6-.02-1.16-.06-1.62-.16-1.5-.46-2.92-.9-4.33-.01-.1-.03-.24-.05-.39-.09-.74-.17-1.33-.25-1.75-.07-.35-.11-.73-.15-1.13-.14-1.38-.51-5.03-4.82-5.03h0Z" style="fill:#e11c84;"/><path d="M155.8,3.99c.38.71,1.2-.38,1.28,1.31.07,1.45-.29,2.92-.32,4.3-.01.68.29,1.6.31,2.23.28,6.07.05,12.13-.17,18.2-.01.41-.48,1.7.03,1.65.12-.01.58-.29.78-.22.11.04.08.28.19.29.21.02.69-.3.89.22l-.27,5.3c-.52,1.62-.29,3.43-.4,5.06-.04.53-.58,4.03-.43,4.21.08.11.94.24,1.22.75.06.1.05,1.39.04,1.63-.06,1.01-.28,2.14-.4,3.18-.2,1.72-.43,3.3-.51,5.04-.1,2.03.18,6.27-.71,7.97-.63,1.21-1.17,1.17-2.23.39s-.84-1.95-.84-3.17c0-1.35.25-2.69.13-4.04-1.73-.62-3.69-.35-5.51-.38-9.9-.15-20.38.12-30.35.59-12.89.61-25.59,2.44-38.47,3.76-4.46.46-8.88.69-13.33,1.2-8.91,1.02-18.39,1.56-27.61,1.86-2.38.08-4.98-.27-7.25.35l-.14-.3c-.67.45-1.31.02-2.07.04-.35,0-.7.18-1.07.2-.5.02-2.77-.05-2.95.2-.08.7-.1,1.45-.95,1.58-2.2-.16-4.38-.49-6.58-.7-2.38-.23-5.1-.12-7.53-.52-1.22-.2-1.22-.48-2.07-.86-1.09-.49-2.01-.22-2.05-1.85.64-.7,3.86-.05,4.19-.3.23-.17.1-.62-.13-.75-.74.73-1.92-.19-2.12-1-.47-1.92-.04-5.11-.65-6.76-.1-.26-.41-.18-.58-.35-.99-1.05-1.51-5.07-1.78-6.64-1.94-11.43-1.46-23.58-1.32-35.26.01-1,.27-2.09.15-3.13-.09-.83-.73-1.37.13-2.21l-1.4-.38-.15.45c-.91-1.27,1.43-.48,1.56-.59-.1-1.41-.28-2.15,1.41-2.08,10.8.44,21.52,1.56,32.31,1.93,17.49.6,35-.18,52.49-1.19,12.91-.75,25.49-1.53,38.42-1.77,3.95-.07,8.04.17,12-.16,1.62-.13,3.31-.78,4.95-.27l-.05,1.17c.5-.2,1.03-.11,1.54-.24.58-.15,1.62-.74,2.35-.9s3.29-.58,2.7.7c1.34.48,1.19-1.14,2.12-1.14,1.06,0,.84.72,1.2,1.39ZM154.41,3.75h-.3s0,.22,0,.22l.22.22.07-.44ZM152.93,4.04h-.3v.15h.3v-.15ZM146.5,6.32c-1-.42-5.53-.6-6.84-.65-1.94-.07-4.74.57-6.83.74-16.84,1.43-34.53,2.81-51.16,3-1.91.02-3.89.15-5.78.39l-.13-.28c-8.48.33-16.97.91-25.52.7-8.66-.21-17.26-1.57-25.94-.99-.22.01-.49-.13-.6-.11-.15.02-.26.44-.54.58-.79.4-3.13,0-4.13.01-3.31.02-6.21.25-9.55-.06-.24-.02-.44-.23-.62-.25-.37-.04-.89.3-1.32-.02-.16.09-.16.15-.18.32-.14,1.26,0,2.62-.03,3.89-.13,4.27-.33,8.62-.46,12.88-.06,1.87.06,3.75,0,5.62,1.33.34.98,1.89,1.13,2.89,1.04,7.23,1.86,14.51,2.96,21.64.12.75-.27,1.56.66,2.03l.75,2.13c.36-.13-.05-.89.29-1.12s1.11,0,1.49.08c-.1-3-.46-5.74-1.41-8.59-.51-1.52-2.21-4.54.67-1.56l-.44.15c1.85,3.48,2.26,7.59,2.22,11.49.41-.28.72-.02,1.11,0,4.37.2,8.05.34,12.43-.16,12.87-1.45,25.79-3.9,38.78-4.95,24.52-2,49.46-2.17,74.07-1.88,3.13.04,6.72-.06,9.59.37,1.14.17,2.28.37,3.38.7.05-.6-.82-.93-.89-1.42-.07-.45-.07-2.38-.01-2.81.04-.28.29-.19.31-.31.16-.91.05-2.02.16-2.92.04-.36.37-.84.29-1.17-.02-.11-.77-.58-.86-.8-.51-1.21-.23-3.99-.17-5.31.02-.33-.12-.66-.1-.96.1-1.46.75-4.06.68-5.4,0-.09-.27-.07-.3-.18-.13-.56-.03-2.19-.29-2.61-.11-.17-.39-.11-.53-.25-1.19-1.14-1.38-2.4-1.4-4.01l.3.07c-.02-.84-.27-1.67-.3-2.51-.25-5.62,1.76-11.45,1.17-17.03-.03-.27-.12-.54-.16-.8-.26-.12-.54-.23-.82-.29-1.5-.35-4.06.17-5.13-.27ZM9.11,6.71l-1.78-.15v.44c.27.01.53,0,.8-.02.2-.02.91-.08.98-.28ZM98.66,57.68c-.06-.26-.29-.3-.51-.3-1.11,0-2.72.35-3.89.41-3.78.2-7.87.04-11.66.34-.31.02-.65.3-.91.28-1.21-.08-1.84-.2-3.19-.07-.98.09-1.66.14-2.65.16-3.1.06-6.63.44-9.93.73-8.33.72-16.61,2.05-24.71,3.19-.74.1-1.57,0-2.31.06-.21.02-.32-.24-.27.24l9.21-.36c14.4-.84,28.83-2.17,43.19-3.79,2.55-.29,5.1-.62,7.64-.89Z"/><path d="M146.5,6.32c1.07.45,3.63-.07,5.13.27.28.06.56.17.82.29.04.26.13.54.16.8.58,5.58-1.43,11.41-1.17,17.03.04.84.29,1.67.3,2.51l-.3-.07c.02,1.61.21,2.86,1.4,4.01.14.14.42.07.53.25.27.42.16,2.05.29,2.61.03.11.29.09.3.18.07,1.34-.58,3.94-.68,5.4-.02.3.11.63.1.96-.06,1.32-.34,4.1.17,5.31.09.22.84.7.86.8.07.33-.25.81-.29,1.17-.11.91,0,2.02-.16,2.92-.02.12-.27.03-.31.31-.06.44-.06,2.36.01,2.81.07.49.94.82.89,1.42-1.1-.33-2.25-.53-3.38-.7-2.88-.43-6.46-.33-9.59-.37-24.61-.28-49.56-.12-74.07,1.88-12.99,1.06-25.91,3.51-38.78,4.95-4.38.49-8.06.36-12.43.16-.39-.02-.7-.28-1.11,0,.03-3.9-.38-8-2.22-11.49l.44-.15c-2.89-2.98-1.18.04-.67,1.56.96,2.85,1.31,5.59,1.41,8.59-.38-.08-1.17-.31-1.49-.08s.08.99-.29,1.12l-.75-2.13c-.92-.47-.54-1.28-.66-2.03-1.1-7.13-1.93-14.41-2.96-21.64-.14-1.01.2-2.56-1.13-2.89.06-1.87-.05-3.75,0-5.62.13-4.26.33-8.61.46-12.88.04-1.28-.11-2.63.03-3.89.02-.16.02-.23.18-.32.43.32.95-.01,1.32.02.18.02.38.22.62.25,3.34.3,6.23.08,9.55.06.99,0,3.33.39,4.13-.01.28-.14.39-.56.54-.58.12-.02.38.13.6.11,8.68-.58,17.29.78,25.94.99,8.55.21,17.04-.37,25.52-.7l.13.28c1.89-.24,3.87-.37,5.78-.39,16.63-.19,34.32-1.57,51.16-3,2.09-.18,4.89-.81,6.83-.74,1.32.05,5.85.23,6.84.65Z" style="fill:#fff;"/><path d="M98.66,57.68c-2.54.27-5.09.6-7.64.89-14.36,1.62-28.79,2.95-43.19,3.79l-9.21.36c-.05-.48.06-.22.27-.24.74-.07,1.58.04,2.31-.06,8.11-1.13,16.39-2.46,24.71-3.19,3.3-.29,6.83-.67,9.93-.73.99-.02,1.67-.07,2.65-.16,1.35-.13,1.98,0,3.19.07.26.02.6-.26.91-.28,3.79-.3,7.88-.15,11.66-.34,1.18-.06,2.78-.42,3.89-.41.23,0,.46.05.51.3Z" style="fill:#fff;"/><path d="M9.11,6.71c-.08.2-.78.26-.98.28-.27.03-.53.03-.8.02v-.44s1.78.15,1.78.15Z" style="fill:#fff;"/><polygon points="154.41 3.75 154.34 4.19 154.11 3.97 154.11 3.75 154.41 3.75" style="fill:#fff;"/><rect x="152.63" y="4.04" width=".3" height=".15" style="fill:#fff;"/><path d="M36.29,14.16s.5.3.59.36c1.25.83.62.53.97,1.42.14.36.46.65.54,1.01.49,2.24.18,5.33.86,7.3.48,1.39.67,3.09.69,4.58.62,1.69.68,3.53.72,5.34l.46.23c-.77.8-.03,1.51.04,2.37.27,3.3-.02,6.71-.13,10.27-.05,1.48.33,4.45-.21,5.81-.66,1.66-1.71,1.49-3.02.6-.57-.39-.81-1.08-1.19-1.36-.09-2.62-.79-5.27-.94-7.88-.36-6.26-.49-11.83-1.48-17.82-.15-.92-.43-1.83-.44-2.78-.88.86-1.54,2.48-2.03,3.65-1.55,3.69-1.69,6.8-4.13,10.04-.03.04.12.46-.24.93-1.41,1.78-3.25.64-4.41-.75-2.52-3.04-2.31-8.26-2.37-11.99-.36-.45-.57,2.24-.61,2.46-1.06,6.04-1.26,12.27-1.17,18.47.02,1.44,1.06,6.83-.86,7.36-.5.14-1.67-.56-1.95-1-.91-1.4-.68-4.97-.75-6.71-.35-8.24-.2-17.77,2.31-25.58.3-.93.83-2,.84-2.84l.63-.04v-1.05c.91-.46,3.8-.48,4.42.22,1.21,1.36,1.27,6.04,1.43,7.92.09,1.05.03,2.23.21,3.33.05.3.12.75.36.95.39-.36.32-.89.51-1.36.64-1.58,1.26-3.94,2.12-5.51.05-.1.9-.88.98-1.1.16-.42-.02-1,.32-1.55.19-.31.58-.37.75-.61.85-1.22,1.6-2.64,2.4-3.89.04-.07.44-.51.47-.51.65.35.92-.25,1.5-.3.15-.01,1.75-.01,1.84.02Z"/><path d="M81.31,12.81l-.1.43c.69-.38,1.67,1.29,1.84,1.8.19.55-.08,1.8.05,2.52.17,1,.86,2.36,1,3.4,1.02,8.02,2.93,16.54,2.57,24.75-.06,1.38-.39,4.5-2.38,4.44-.53-.02-1.95-1.38-2.11-1.8-1.44-3.72-1.07-10.12-1.92-14.15l-1.93-10.39c.21.82-.36,1.43-.51,2.14-.07.31.15.63.1.92-.43,2.41-1.64,8.84-3.2,10.6-.4.45-.96.63-1.42,1.01-.49-.39-1.29-.54-1.73-.81-.29-.17-1.73-1.46-1.89-1.68-.04-.06.14-.26.08-.34-.82-1.18-1.81-3.67-2.41-5.31-.16-.43-.65-3.04-.86-3.19-.78.23-.19.93-.24,1.36-.64,4.94-.5,10.3-1.13,15.37-.17,1.36-1.13,5.77-2.37,6.37-2.03.99-.92-2.92-1.2-3.83-.45-8.63-1.02-17.72.37-26.25.42-2.59,5.09-2.22,6.73-.96-.29.48.17.31.27.54.1.24.01.62.14.91.78,1.72,1.55,3.4,2.27,5.17.05.13.42,2.46.92,1.79,0-.37-.06-.76.02-1.13.61-2.78.73-6.32,1.82-8.98.46-1.11,1.3-1.95,1.89-2.89.09-.14.1-.96.33-1.18.08-.08,1.93-.65,2.19-.7.92-.16,1.89.31,2.81.07Z"/><path d="M108.78,11.67c.42.28,1.3,2.03,1.46,2.57.36,1.2-.03,3.22-.36,4.42-.75,2.77-2.31,5.75-3.74,8.23-.76,1.3-2.47,2.4-2.67,4.11.33-.14.67-.21,1.03-.18,2.46.19,3.49,1.27,4.83,3.08.35.48,1.03,1.35,1.26,1.86,1.66,3.64,1.27,8.52-2.27,11.01-3.29,2.31-8.49,3.14-12.36,1.73-.6-.22-1.13-.6-1.48-1.14.11-1.43-.29-2.8-.38-4.2-.41-6.45-.7-13.4-.74-19.88-.01-2.41.4-4.84.42-7.26.39-.82,1.31-.02,1.93-.3.81-.36,1.42-1.5,1.96-1.97.9-.76,2.47-1.84,3.66-2.27,2.34-.84,5.27-1.26,7.43.2ZM105.6,14.48c-.64.26-1.43.02-1.95.13-.43.09-1.86.9-2.36,1.17-1.86,1-3.56,2.24-4.96,3.78l1.2,11.8,1.56-2.42c0-1.25.69-1.1.99-1.43.74-.84,1-2.36,1.43-2.97.1-.14.76-.24,1.01-.67.65-1.12,1.58-2.61,2.11-3.67.4-.8,1.43-3.84,1.45-4.65,0-.46-.3-.69-.47-1.08ZM103.54,34.88c-.38-.15-3,.89-3.32.85-.1-.01-1.52-.76-1.7-.88-.24-.15-.14-.57-.47-.5-.42,1.65.56,3.27.16,4.82l.4.18-.25,5.68c.16.15,3.91-1.06,4.31-1.26.1-.05.13-.39.28-.46.48-.24,2.2-.95,2.49-1.27.27-.3.19-.74.38-1.01s.69-.42.88-.96c.37-1.07-1.05-4.1-2.02-4.73-.45-.29-.77-.08-.98-.14-.12-.03-.1-.31-.15-.33Z"/><path d="M129.28,28.04s.39.13.53.42c.77,1.49.24,2.3.61,3.51.07.23.48.18.59.44.54,1.28,1.03,5,1.4,6.59.3,1.28,1.67,6.02,1.51,7.02-.14.85-.1,1.2-.19,1.89-.04.33-1.05,2.51-1.31,2.77-1.19,1.16-1.68.14-2.64-.51-.18-.12-.48-.01-.57-.06-.03-.01.13-.36.04-.58-.86-2.03-1.31-3.92-1.77-6.12-.16-.8-.16-2.58-.37-3.14-.11-.29-.53-.26-.61-.44-.25-.56-.46-4.15-.83-5.32-.1-.32-.79-.72-.53-1.35-.42-.29-5.89.16-6.69.59-.48,2.7-.19,5.53-.57,8.23-.22,1.58-.91,3.88-2.98,2.47-.91-.62-1.27-1.47-1.4-2.52-.1-.85-.13-3.77-.02-4.63.76-6.43,2.07-12.81,3.81-19.15.38-1.38.44-1.73.99-3.05.99-2.38,1.66-4.54,4.76-4.76.86-.06,2.64.21,3.08,1.02.24.45,1.19,2.8,1.29,3.26.59,2.86.75,11.31,1.87,13.44ZM123.25,25.86c-.07-.2.13-.78.1-1.12-.25-2.87-.36-5.77-.57-8.66-2.03,3.53-2.5,7.89-3.51,11.76l.53.29c.77-.59,3.6.05,3.83-.88.01-.06,0-1.16-.01-1.22-.03-.16-.35-.13-.36-.17Z"/><path d="M47.31,21.77c.64.47.27,1.71.34,2.4.61,5.95,1.24,14.95,3.48,20.42.31.75,1.03,1.09.72,2.23l.68-.15,1.15-3.04c.42-3.94.46-8.15.82-12.19.1-1.15.59-7.11,1.13-7.59.59-.53,1.95.42,2.3.97.82,1.27.45,5.87.33,7.57-.27,3.75-1.1,14.45-3.36,17.11-.25.3-.7.31-.91.52-.95.97-1.06,2.03-2.91,1.21-2.42-1.07-3.41-4.82-4.06-7.15-1.68-6.07-2.54-13.78-1.77-20.04.12-1.01.48-3.44,2.05-2.27Z"/><path d="M142.23,18.92c.4,1.21.7,2.49.86,3.99.09.86,0,2.74.18,3.36.07.22.53.06.45.23-.76.64-.13,1.72-.13,2.57,0,3.7.2,7.4,0,10.85-.06,1.11-.45,3.98-1.29,4.7-1.79,1.55-2.54-.19-4.01-.78-.69-2.8-1.23-5.56-1.16-8.49l.43-.22-.45-.09.44-.25c-.13-1.35-.35-2.9-.36-4.25,0-.8.32-1.72.32-2.31-.03-4.74-1.09-9.61-.34-14.36.16-1,.9-1.16,1.83-1.24,3.09-.26,2.45,1.83,2.91,4.06.12.58.27,2.11.31,2.22Z"/></svg>