<?xml version="1.0" encoding="UTF-8"?><svg id="Layer_1" xmlns="http://www.w3.org/2000/svg" viewBox="0 0 951.78 211.42"><path d="M45.12,97.21c12.91-.49,32.76,1.96,41.33,12.71,1.99,2.5,2.63,6.76,4.27,9.82,4.66,8.68,2.35-2.19,2.49-4.91.5-9.62-.22-21.61,1.37-30.58,1.02-5.76,4.19-8.53,9.53-4.58,3.84,2.84,1.81,24.65,2.16,29.48.91,12.6,2.81,29.3,11.82,38.58,2.42-8.87-4.53-57.03.14-60.19,6.06-4.11,10.48,8.89,11.77,12.53,5.54,15.65,11.05,49.16-.65,62.41-12.2,13.81-27.1-4.06-31.57-16.18-2.67-7.24-2.56-15.35-5.64-22.4-2.77,4.17-2.68,8.96-5.53,13.46-4.48,7.09-36.96,29.27-45.42,32.41-13.15,4.87-26.99,5.48-36.56-6.11-4.79-5.81-8.4-15.72,2.59-14.5l-2.6,3.49c3.72,5.39,8.77,7.14,15.23,6.3l-3.27-7.25c-3.06-30.61-.65-61.35-.96-92.33l-11.21,10.53,2.79,2.08-5.63.78c-3.6-2.49,1.22-11.12,2.87-13.74,4.05-6.42,14.78-8.85,12.59-17.89,9.82,2.99,16.05-4.27,24.65-6.92,6.55-2.02,16.94-3.37,23.62-1.36,30.94,9.29-8.99,52.84-20.19,64.39l.01-.03ZM60.34,44.11c-11.63-1.82-21.77,1.53-31.78,7.09l2.54,34.8c2.03.41,2.59-.03,4.1-.98,2.68-1.69,18.61-20.3,20.89-23.82,2.01-3.1,8.36-14.46,4.25-17.08v-.01ZM68.5,115.93c-6.74-5.66-26.19-5.69-34.4-3.07l1.21,37.67,18.56-9.81c2.51-4.65,20.08-13.04,18.67-18.37-1.38-1.75-2.49-5.12-4.04-6.42Z" style="fill:#e3e3db;"/><path d="M533.25,174.07c-6.68,3.86-11.9-1.84-13.14-8.05-2.24-11.23-.17-41.5.75-54.12.37-5.03,1.97-9.77,2.85-14.67l-25.25,2.81c1.95,9.56-1.41,19.47-2.3,28.99-1.52,16.41-.31,38.06-5.07,54.13-1.55,5.25-8.67,11.79-13.01,6.67-2.44-2.88-4.48-23.46-4.29-28.03.14-3.19,1.84-6.3,2.05-9.31,3.6-49.77,12.67-97.88,21.05-147.02l5.58-.62c6.11,13.83.85,29.27,2.43,43.74l-5.05,40.22,22.99,1.5c2.38-9.97,4.6-20.36,6.31-30.45,1.71-10.05,5.23-53.2,9.26-58.02,3.42-4.09,9.55-.65,11.12,4.08,1.23,3.72.36,22.28.13,27.57-.06,1.44-1.25,2.67-1.33,4.12-1.63,27.36-4.56,54.46-6.55,81.21-.93,12.48-.42,36.97-4.32,47.57-.43,1.16-3.83,7.48-4.21,7.7v-.02Z" style="fill:#e3e3db;"/><path d="M273.89,151.23c-.65,7.1-3.41,19.55-6.01,26.25-1.02,2.63-1.89,5.33-3.81,7.51-1.38.83-6.28-.48-7.15-1.7-6.28-8.8,1.93-68.54,2.93-82.57,1.36-18.99-.78-46.79,3.13-64.21,2.28-10.16,8.38-1.99,10.16-2.41,8.41-12.98,27.31-17.4,35.59-1.86,13.54,25.41.2,64.58-29.21,71.28l40.47,56.34c9.25,17.75-5.36,29.54-17.97,12.04-8.55-11.87-16.27-26.6-24.15-38.68-.93-1.43-2.22-3.34-3.98-3.73-.47,7.06.64,14.78,0,21.74h0ZM275.31,90.21c18.52-4.59,24.99-23.88,23.82-41.37-1.57-23.58-13.03-17.4-25.87-4.99l2.05,46.36Z" style="fill:#e3e3db;"/><path d="M661.24,48.11l-4.3-21.62c-7.37-10.48-24.23,11.87-26.85,19.24-4.76,13.41-4.98,24.45,8.85,31.02,24.47,11.62,45.7,10.77,49.69,45.7,3.76,32.94-41.15,54.04-69.16,45.28-38.08-11.9-14.38-56.07,16.53-57.87-4.11,5.79-11.44,7.03-16.19,12.56-20.04,23.35,15.07,31.14,33.6,23.76,5.54-2.2,18.52-13.7,19.9-19.51.61-2.56-.63-10.07-1.5-12.64-8.55-25.36-54.31-20.1-58.17-45.65-3.21-21.26,15.77-59.07,40.97-54.98,19.61,3.18,12.92,22.45,6.63,34.72v-.01Z" style="fill:#e3e3db;"/><path d="M159.14,210.54c-4.51-10.24-5.84-20.07-5.75-31.07.22-25.74,7.48-53.43,11.87-78.8-.28-1.88-13.91-14.07-16.31-17.12-1.34-1.71-1.85-4.99-3.58-7.28-5.66-7.54-19.13-18.6-13.91-28.17,17.77,3.9,25.44,20.66,35.35,33.32.89,1.14-.04,2.58,3.21,1.77L186.88,6.04c13.95-2.54,10.51,15.55,9.75,24.44-3.58,41.78-15.88,83.54-20.81,125.13-1.6,13.47-.57,30.21-3.16,43.17-1.45,7.27-4.55,15.37-13.52,11.76Z" style="fill:#e3e3db;"/><path d="M343,127.01c-4.97,11.43,2.14,34.69-16.98,31.73-2.53-1.58-.36-25.75-.02-29.88,1.77-21.63,5.31-51.39,10.34-72.33.83-3.44,7.95-25.53,9.36-26.41,14.44-3.01,17.32,7.86,20.43,19.1,5.83,21.08,6.39,45.45,10.31,66.84,1.38,7.53,5.37,17.43,6.59,25.68,1.19,8.11,4.61,20.01-3.97,24.8-19.55,10.93-17.13-35.54-21.64-42.7-1.3-2.06-11.53,3.35-14.41,3.15l-.01.02ZM342.67,118.26l11.3-2.01,1.33-2.9-4.24-54c-2.72,1.4-3.58,7.87-4.05,10.66-2.56,15.42-2.91,32.59-4.35,48.24l.01.01Z" style="fill:#e3e3db;"/><path d="M440.49,179.59c-3.57,4.42-12.35,4.81-13.53-3.2-1.25-8.47-1.35-21.92-1.6-30.76-1.04-36.43,4.77-71.9,8.54-108.01,2.22-8.36,8.09-.27,9.09-.72,19.87-25.26,37.62-3.73,37.87,20.91.13,12.89-9.33,40.03-22.31,45.14-4.64,1.83-15.2.08-16.15,3.57-.43,1.6,1.2,4.59,1.23,6.89.26,16.31,1.4,39.15.13,54.71-.27,3.28-1.26,8.97-3.28,11.47h.01ZM461.93,38.32c-4.35-3.08-12.13,10.98-13.31,14.01-1.74,4.44-8.28,37.09-6.3,39.28,19.05-7.69,28.66-34.97,19.62-53.28l-.01-.01Z" style="fill:#e3e3db;"/><path d="M948.28,70.57c.25.04,3.17,1.43,3.5,2.1-3.02,6.97-40.63,8.89-48.96,10.68-2.23,1.86.76,30.79.48,35.63-.47,7.88-1.5,15.73-2.14,23.66-.49,6.13-6.09,26.05-14.76,19.24-8.36-6.57-2.2-41.59-1.92-51.26.84-29.22-.63-57.96.06-87.02.15-6.31-3.99-13.48.57-20.36,1-1.61,2.42-1.42,4.03-1.35,4.39.18,31.23,9.5,35.98,11.87,3.25,1.62,6.21,5.21,2.59,7.53-2.95,1.89-25.66-4.32-30.65-5.41l4.2,54.71c14.5,1.53,33.05-2.06,47.02,0v-.02Z" style="fill:#e3e3db;"/><path d="M828.28,15.87l2.04,60.38c1.5,2.47,9.45-1.19,12.7-1.45,8.85-.7,19.01.29,25.93,6.29l-5.19,3.2-35.48,4.53c2.23,4.37-.55,7.41-.86,10.71-.72,7.66.59,30.22-.57,34.67-.27,1.03-2.74.85-2.87,1.78-.82,6.13,1.56,13.03-1.45,22.14-2.25,6.81-11.97,17.14-14.88,6.78-6.25-22.29,5.45-84.63,7.11-111,.61-9.72-2.07-44.54,4.26-49.37,5.62-4.29,30.39,5.08,36.41,8.75,4.53,2.76,8.64,9.29.92,9.03-9.78-.32-18.35-6.81-28.07-6.43v-.01Z" style="fill:#e3e3db;"/><path d="M701.96,29.9c-5.64-.38-30.01,7.4-32.25.63-.39-1.89-.03-2.87,1.35-4.17,3.75-3.53,38.81-9.97,45.66-10.48,6.15-.45,16.45-1.7,20.3,3.49-.06,3.26-23.28,3.65-26.57,8.39.81,1.49,1.94,3.18,2.1,4.87,1.35,13.87-1.55,31.33-1.38,45.65.3,25.48,6.66,57.73,1.29,82.06-3,13.58-10.66,22.17-14.36,3.15-2.96-15.24-4.41-34.36-4.63-50.08-.4-27.77,2.53-56.43,8.48-83.51h.01Z" style="fill:#e3e3db;"/><path d="M394.66,6.11c12.99-2.63,12.3,19.41,12.59,28.62.94,29.61-.93,59.35-.57,88.65.12,10.2,3.17,48.45-3.56,54.54-5.98,5.41-9.04-.25-11.36-5.63-12.38-28.7-1.4-101.29,1.42-133.3.98-11.14,0-22.08,1.48-32.88h0Z" style="fill:#e3e3db;"/><path d="M756.71,129.48c1.83,1.44,9.59-19.26,10.21-21.34,4.92-16.39,6.81-35.86,6.6-53l-1.39,4.21c-2.64.1-2.88.66-2.85-2.14.04-3.26,2.17-18.32,4.21-19.66,5.88-3.87,14.31,4.02,16.14,9.22,3.56,10.11-.36,35.44-2.4,46.58-2.63,14.35-10.11,42.03-22.07,50.88-16.25,12.03-20.71-7.79-23.5-20.05-3.84-16.87-5.9-45.52-4.65-62.79.46-6.44,1.56-21.5,9.31-11.23-1.38,26.46,3.52,53.83,10.41,79.31l-.02.01Z" style="fill:#e3e3db;"/></svg>