<svg width="418" height="91" viewBox="0 0 418 91" fill="none" xmlns="http://www.w3.org/2000/svg">
<path d="M166.209 18.5399C162.72 18.2776 164.265 20.6027 164.28 22.4336C164.376 34.5989 162.72 47.0366 160.423 58.8034C159.807 61.9557 159.584 65.1534 158.438 68.2048C158.135 68.4419 157.11 67.0347 156.893 66.611C155.808 64.5179 154.025 59.6154 153.222 57.2046C152.212 54.1633 148.138 35.7489 146.719 35.1184C145.875 34.5182 141.185 34.8057 140.978 35.5774C140.937 39.1079 141.129 42.6637 141.028 46.1943C140.917 50.2796 141.068 54.2137 140.988 58.2486C140.972 58.8488 140.77 61.2193 140.043 61.4211C136.484 49.5483 134.439 37.3124 133.267 24.9706C132.979 24.2947 130.692 24.0879 130.354 24.9857C129.677 31.6584 130.47 38.8457 131.464 45.5487C132.585 53.1041 135.075 64.3414 138.236 71.2159C139.084 73.0618 141.073 76.0124 143.447 75.271C146.855 74.2068 146.315 64.1497 146.345 61.184L147.304 57.5476C147.981 62.4248 151.511 72.9761 155.727 75.7451H155.722V75.7552C164.099 81.2578 166.543 65.8746 167.517 60.5687C169.37 50.4864 171.91 32.2536 170.577 22.4336C170.264 20.1236 168.446 18.7063 166.209 18.5399Z" fill="white"/>
<path d="M33.269 26.2867C27.3158 21.1523 19.8427 21.7575 13.2785 25.4948C11.8091 26.3321 8.5119 29.5449 7.45658 29.8425C4.86625 30.5688 -3.2582 29.4491 3.91697 33.6L2.49304 37.4029C3.2353 38.7294 4.24013 37.8669 5.37624 37.6904L6.85066 54.4001C6.68403 56.7908 -1.00113 55.4643 0.109737 58.6872C0.730811 60.4827 6.05286 57.5574 7.24956 59.7867C7.2748 64.8757 7.88073 69.7025 8.27963 74.731C8.70378 80.0874 7.81509 85.9532 11.4405 90.4622C14.455 89.2064 14.7226 86.8005 15.0559 83.9206C15.677 78.5188 14.4399 74.0199 14.1016 68.9107C13.8945 65.7735 14.4096 62.5708 13.839 59.4488C18.4592 57.9104 22.3724 57.0228 26.624 54.3244C35.3493 48.7966 42.6255 34.3566 33.269 26.2867ZM30.406 40.4442C28.5024 44.686 20.8576 49.5481 16.5253 51.4949C15.8436 51.7975 13.6875 52.544 13.1725 52.1758C12.3292 45.7855 11.8192 39.2388 9.88028 33.0603C14.9044 28.9699 22.7057 24.4811 28.6337 29.212C32.5621 32.3492 32.3298 36.147 30.406 40.4442Z" fill="white"/>
<path d="M72.3766 26.1597C70.6195 20.4755 65.4489 18.5337 61.7528 23.8447C55.1179 33.3772 54.2797 55.2768 54.7846 66.9831C54.9462 70.6297 55.4511 78.1195 56.2792 81.4685C56.971 84.2526 60.5662 85.9826 61.7629 82.7748C62.6667 80.3539 60.8641 72.395 60.6065 69.4041C60.3793 66.7259 60.8742 63.8762 60.1117 61.425C63.2019 61.6217 66.6557 60.6231 69.6298 60.4768C70.1903 60.4465 70.6649 60.386 71.0436 60.9055L71.2506 76.4249L69.8065 74.9773H69.8015C69.0592 77.8522 72.5079 83.5011 75.5779 81.4837C78.8802 79.3098 78.0824 73.5197 78.0471 69.8631C77.9209 56.8201 76.2142 38.5823 72.3766 26.1597ZM70.2408 55.0801H70.2357L60.6015 57.0673C60.6015 56.457 60.1824 55.9072 60.137 55.307C59.9804 53.1938 60.4248 47.5499 60.6217 45.1794C61.1519 38.7184 62.7374 32.2121 65.9336 26.5683C66.6759 26.4876 66.6254 27.8594 66.7415 28.4142C67.9231 34.0682 69.0087 40.5089 69.7409 46.2385C69.9125 47.5751 70.8416 54.7422 70.2408 55.0801Z" fill="white"/>
<path d="M104.895 12.8553C103.971 15.821 103.714 20.8445 103.083 24.1128C102.31 28.1073 101.058 32.0868 100.795 36.1167C95.9226 33.0753 92.3325 28.6167 87.9546 24.9904C86.7731 24.0119 80.2493 18.9934 79.3455 19.2204C78.179 19.5129 78.0427 20.5822 78.2245 21.601C78.7951 24.7836 88.5101 34.074 91.3226 36.8833L91.3175 36.8883C92.1406 37.7105 93.3423 38.23 94.2108 39.0823C95.0339 39.8843 99.1441 44.4084 99.1643 45.0742C97.4727 51.4998 97.5182 58.3037 96.9223 64.921C96.5941 68.6079 95.6802 72.9707 95.458 76.5618C95.3368 78.5389 96.3669 88.6817 97.2001 89.8317C99.134 92.4947 100.482 88.0462 100.952 86.3717C103.194 78.3472 102.451 68.8803 103.234 60.5734C104.476 47.3741 107.253 33.4234 108.066 20.3804C108.167 18.7463 108.384 13.0671 107.592 12.1492C106.592 10.9942 105.355 11.3826 104.895 12.8553Z" fill="white"/>
<path d="M239.839 34.0506C239.683 31.4884 238.819 19.5955 237.784 18.4556V18.4657C237.062 17.694 235.239 17.9765 234.739 18.8288C234.538 19.1718 234.038 25.2494 233.987 26.3439C233.952 27.0551 234.341 27.7713 234.325 28.3563C234.184 33.2335 234.007 38.1108 233.967 42.988L220.425 44.2892C220.086 44.0421 219.561 37.2332 219.49 36.0126C219.379 34.0254 220.116 25.2444 218.253 24.6492L216.814 25.1183C215.082 26.8987 215.501 41.2126 215.123 44.4859C214.87 44.7533 210.972 43.1494 211.74 44.723L215.143 46.7506L216.582 66.0274L215.118 61.4326C214.259 61.3419 214.603 63.0718 214.648 63.5964C214.815 65.402 216.39 74.1326 218.329 74.4705C220.137 74.2335 220.318 70.9753 220.445 69.4067C220.702 66.1888 220.157 62.9306 220.975 59.743L220.455 47.8702C224.969 48.9496 229.483 47.6332 234.017 47.381C234.437 53.7562 233.846 61.2309 235.608 67.3388C236.098 69.0385 238.971 76.9016 240.839 72.8465C242.384 69.4975 240.481 57.9021 240.304 53.4637C240.041 47.0179 240.238 40.4914 239.839 34.0506Z" fill="white"/>
<path d="M237.779 18.4473L237.787 18.4549V18.4473H237.779Z" fill="white"/>
<path d="M204.478 59.2758L199.171 24.1769H199.186L214.158 19.4863C215.445 19.6881 222.227 19.6578 221.429 17.1259C221.222 16.4753 217.531 15.9709 216.778 15.9608C210.482 15.8751 203.297 17.7816 197.121 18.9719L183.397 23.6574L185.094 21.4836C180.898 21.297 177.313 26.1137 183.473 27.3443C187.416 28.1362 192.365 25.6547 196.233 25.1201C195.617 34.9098 196.238 45.4965 197.828 55.2358C198.384 58.6453 200.969 70.4525 202.989 72.697C204.054 73.8822 205.079 73.4434 205.21 71.8547C205.528 67.9206 203.716 63.3057 204.478 59.2808V59.2758Z" fill="white"/>
<path d="M45.5792 29.2243C45.4378 27.3229 44.9935 20.8569 42.0042 21.7395H41.9992C41.2468 21.9665 41.2721 22.7533 41.1963 23.3888C40.2117 31.9378 41.3579 42.2975 40.7217 50.9827C42.1254 60.6917 41.4589 70.7437 42.7364 80.483C43.0747 83.0654 44.7107 94.1614 48.0281 87.3424C51.3557 80.5082 46.7607 54.9924 46.074 46.1609C45.6398 40.5927 45.9831 34.6816 45.5792 29.2243Z" fill="white"/>
<path d="M183.644 56.8152C183.2 50.0466 182.968 40.5595 181.19 34.0935C180.115 30.1695 177.312 29.1103 177.307 34.0582C177.292 43.0409 177.055 55.3021 177.888 64.0226C178.05 65.7122 179.832 75.8953 183.043 72.4354H183.038C185.3 70.0044 183.856 60.0381 183.644 56.8152Z" fill="white"/>
<path d="M336.302 71.4298L335.439 63.0422C335.151 60.243 334.075 57.3227 334.535 54.5285C334.762 53.1415 334.898 52.1479 334.202 51.0282C334.277 50.5591 334.353 50.0144 334.388 49.6815C334.414 49.4092 333.363 48.9805 333.313 48.7081L332.263 43.5535C331.591 40.265 331.339 37.1077 330.576 34.8229L329.586 31.8472C328.794 29.4615 328.062 27.2019 326.996 24.9626L325.294 21.3765C324.042 18.7387 321.553 15.4452 318.564 16.237C315.171 17.1298 313.736 23.6663 312.6 26.6169C311.803 28.6949 310.99 30.7073 310.621 32.9568L309.859 37.6625C309.692 38.6763 309.374 39.8414 309.263 40.9207L308.904 44.305L308.44 48.5467L308.167 54.6798C308.051 57.2521 308.147 59.6882 308.031 62.3613L307.899 65.4178L307.945 69.6847C307.96 71.5055 307.662 73.4674 308.864 75.0209C309.742 76.1608 311.313 76.3676 312.686 75.7976C313.524 75.4496 314.686 74.2946 314.666 73.1598C314.63 71.1373 314.736 69.4981 314.832 67.6269L315.019 64.0005L315.196 60.0311C315.271 58.3314 315.352 56.6065 315.691 55.0732L319.538 55.3506C321.008 55.4565 322.356 55.7945 323.744 55.7541L328.006 55.6331C328.304 57.1663 328.607 58.6593 328.733 60.0311C329.147 64.5049 329.723 66.0432 330.071 70.4362C329.056 69.8612 328.274 69.2509 327.471 69.609C326.794 69.9066 327.072 71.0162 327.536 71.4601C332.985 76.7004 329.268 76.534 330.96 79.3786C331.359 80.0444 332.692 80.5387 333.661 80.5437C334.919 80.5487 336.06 79.7972 336.656 78.6826C337.06 77.926 336.565 76.761 336.514 75.7573C336.438 74.3097 336.459 72.8673 336.307 71.4298H336.302ZM324.638 50.0951C322.623 50.0094 320.907 50.5844 319.043 50.6701L315.741 50.8315L316.039 48.118C316.09 47.6389 315.928 46.5545 315.888 46.0198C316.519 44.6026 316.675 43.3064 316.665 41.7781C316.655 40.376 317.039 38.8024 317.2 37.3599C317.71 32.9315 318.16 28.7604 320.068 24.6347C321.134 26.2336 321.578 27.8576 322.235 29.4867C323.078 31.595 323.77 33.5973 324.269 35.8367C324.86 38.4745 326.234 42.5296 326.39 44.1537L326.688 47.19L327.052 50.196L324.633 50.0901L324.638 50.0951Z" fill="white"/>
<path d="M417.582 75.9146L417.29 70.8155L417.128 65.8778L416.881 62.5237C416.78 61.1317 416.694 59.7447 416.522 58.4131C416.35 57.1119 416.249 56.1889 416.456 54.7968C416.542 54.2168 416.159 53.0265 416.138 52.4011L415.992 46.6816L415.916 42.344C415.941 41.6984 416.002 40.9016 415.982 40.2055L415.593 26.0782V23.4L415.633 18.6338L415.527 8.59186C415.507 6.86189 415.411 5.11678 414.452 4.10805C414.144 3.78525 412.811 3.64403 412.538 4.00717C410.705 6.43317 410.629 18.3917 410.569 21.9475L410.417 30.4309L410.246 32.6955L410.402 40.9621V43.9025C410.407 44.9617 410.69 46.3941 410.837 47.4734C407.59 47.307 405.732 47.534 402.667 48.3611L398.142 49.5867C398.117 47.1557 398.279 44.5885 398.067 42.2432C397.905 40.4073 397.622 38.8437 398.243 37.1188C397.35 32.1205 398.41 34.5112 398.198 30.4259C398.142 29.3768 398.193 28.358 398.238 27.2585L398.572 19.6677C398.612 18.6842 398.779 17.8318 398.849 16.8887L399.354 10.3117C399.541 7.87566 401.036 2.04015 398.885 0.330344C398.264 -0.163935 396.673 -0.123585 396.219 0.587571C394.482 3.31115 394.36 6.38274 394.047 9.45433L393.159 18.0437C393.022 19.3449 392.906 20.6361 392.856 21.9676L392.679 26.739L392.588 30.0426C392.553 31.3489 393.012 32.4534 392.835 33.7799L392.452 36.6901L392.942 39.7869C393.068 40.5939 392.326 42.0717 392.346 42.9342L392.426 46.3386C392.452 47.4331 392.578 51.9371 392.154 52.391C391.679 52.9004 391.018 53.6318 391.119 54.126C391.2 54.5346 391.75 55.1449 392.139 55.5988C393.26 58.4787 392.841 61.3637 392.871 65.101L392.901 68.5862L392.825 73.1255L392.901 79.3645C392.942 82.3302 392.396 87.7824 395.481 88.2666C398.455 88.7306 398.895 83.581 398.859 81.6039L398.673 70.2103L398.577 67.0277C398.536 65.6911 398.647 64.0974 398.491 62.8617C398.203 60.6273 397.996 58.509 398.324 56.2948C398.39 55.861 398.132 54.9835 398.38 54.7363C398.587 54.5295 399.243 54.2723 399.561 54.2067L404.01 53.2787C406.141 52.8349 408.504 52.971 410.619 52.85L410.907 56.9253C411.013 58.4131 410.968 59.7951 411.079 61.2981L411.463 66.4023C411.523 67.2143 411.316 68.3391 411.513 69.0301C412.377 72.0815 411.609 70.8912 411.978 75.3598C412.154 77.4832 411.927 79.6722 412.417 81.6543C412.76 83.0413 414.311 84.6099 415.724 84.2367C419.148 83.3238 417.729 78.1793 417.603 75.9298L417.582 75.9146Z" fill="white"/>
<path d="M374.93 15.3013C370.461 14.3682 365.73 16.9304 362.13 18.9327C356.187 17.1574 360.585 19.5077 355.768 26.1553C354.121 28.43 353.516 31.5923 356.136 32.9844C356.485 30.9518 356.621 29.4185 357.934 28.314L358.474 55.1008L360.66 79.4163C360.837 81.4187 362.554 82.7805 364.099 82.6392C365.624 82.5031 366.634 80.6419 366.477 78.8464L364.291 54.7427C371.951 55.3782 379.03 53.3759 384.201 48.0902C389.598 42.5774 390.457 34.4924 387.755 27.5725C385.448 21.6563 381.459 16.6681 374.935 15.3013H374.93ZM381.499 42.4312C378.247 46.799 373.127 49.0989 367.957 49.0888L370.128 47.4748C370.557 47.1571 371.143 46.5216 371.34 46.2643C371.592 45.9214 369.966 45.3414 369.517 45.533L364.059 47.8127L363.675 41.5637L362.685 23.5427C364.7 20.6829 370.194 19.4018 373.673 20.3752C382.948 22.9677 385.821 36.641 381.499 42.4362V42.4312Z" fill="white"/>
<path d="M349.117 70.2547C348.263 65.1707 347.819 59.9858 348.107 54.4428C348.814 41.0771 349.374 26.748 349.263 13.7404C349.253 12.7166 347.622 11.2741 346.9 11.2589C342.765 11.1631 340.866 55.0682 341.083 58.5382L341.846 70.6733C341.992 73.0388 342.189 75.8935 343.537 77.6537C344.481 78.8894 347.117 79.6661 348.304 79.1719C351.212 77.9664 352.338 70.6178 349.117 70.2597V70.2547Z" fill="white"/>
<path d="M296.857 63.3465C293.751 61.3845 290.863 59.5839 287.576 59.0694L280.709 54.1821L288.561 53.1078C291.176 52.7447 292.782 51.1559 294.519 49.0073C296.928 46.0366 297.69 43.0709 297.165 38.8897C296.317 32.1161 293.075 26.7648 288.399 22.7954C278.422 14.3271 262.046 19.5675 255.725 30.2651C254.255 32.7466 254.023 36.9681 257.356 37.9617L257.421 33.957C258.209 32.2271 260.415 30.719 262.37 30.0482C262.743 37.8709 263.617 44.7253 263.496 52.0587C263.41 57.2235 262.168 72.5562 266.838 74.0239C268.136 74.4324 270.317 74.0592 270.868 72.6823C272.337 69.0105 271.342 65.3084 271.15 61.5862L270.893 56.6586L278.73 63.0136C280.578 64.5115 282.658 65.6111 284.849 66.2667C288.52 70.5589 290.424 69.7267 294.726 72.8386L298.341 75.4563C300.578 77.0803 302.835 77.9781 304.86 75.0982C306.35 72.9899 306.077 69.6662 304.224 67.4318C301.639 64.3098 300.043 65.3538 296.852 63.3313L296.857 63.3465ZM277.321 46.5208L269.782 46.2989L269.171 38.4106C268.893 34.9053 267.949 31.5815 267.409 27.6726C274.458 25.0197 279.709 24.3438 285.647 29.5085C287.803 31.3848 292.822 38.9856 290.596 43.535C288.167 46.2031 280.658 46.6166 277.316 46.5208H277.321Z" fill="white"/>
</svg>
