<?xml version="1.0" encoding="UTF-8"?><svg id="Layer_1" xmlns="http://www.w3.org/2000/svg" xmlns:xlink="http://www.w3.org/1999/xlink" viewBox="0 0 252.268 241.581"><defs><mask id="mask" x="194.203" y="89.916" width="59" height="152" maskUnits="userSpaceOnUse"><g id="path-1-outside-1_329_165"><rect x="194.203" y="89.916" width="59" height="152" style="fill:#fff;"/><path d="M198.296,226.162c-2.253-.813-3.04-2.533-3.066-4.4l-.027-2.906.4-5.227.387-5.12.36-4.48.466-5.587.427-6.466.187-3.067c.146-2.427.186-5.16.706-7.44.294-1.253.64-2.213.64-3.44l-.04-6.227c-.813-.64-1.52-1.68-1.373-2.68.12-.733,1.107-1.467,2.28-1.96l.24-5.707.693-4.733.347-4.56.28-4.413.4-4.52.387-4.08.346-4.813.64-6.667.827-14.467-2.227-.493c-.533-1.027-.386-2.413-.08-3.667.814-3.32,2.12-7.507,4.587-7.72.773-.067,2.187.813,2.413,1.76.947,3.96,1.24,7.88,1.4,11.933l.294,7.573-.08,5.933.146,6.627-.026,3.267-.16,6.453-.587,10.667v3.027l-.453,6.387,7.36-1.84,7.72-1.92,3.48-.893,4.44-1.093,5.906-1.213-2.92-1.827c-.346-.213-.626-1.08-.586-1.453.04-.373,1.133-.84,1.506-.68l4.4,1.907.413-4.067.587-7.853.693-5.84.64-6.453.987-9.08.293-3.787.707-7.027.547-5.88.413-4.187c.08-.773-.027-2.387-.147-3.133l-.773-5c-.16-1.053.973-2.373,1.8-2.613,1.267-.373,2.667.32,3.093,1.64,2.107,6.493,2.054,13.08,1.814,19.787l-.24,6.467-.147,3.507-.333,9.507-.32,7.52-.054,5.747-.266,8.96-.28,8.52-.467,7.08-.347,6.427-.253,7.2-1.12,15.786-.28,3.147-.467,5.4-.88,6.427-1.92,9.773-1.506,6.16-.787,4.04-1.333,4.987c-.2.746-1.44,1.573-2.147,1.706-.707.134-2.493-.2-2.826-.893-.6-1.2-.614-2.667-.56-3.867l.213-4.573.707-4.173c.253-1.507.133-2.787.32-4.334l.346-2.826.467-4.427.52-5.227.787-10.04.253-4.92.293-5.479.387-7.387.413-7.053.267-5.187.133-7.427-3.826,1.373-4.027,1.2-4.413,1.2-3.467.88-7.173,1.307-8.92,1.12c.12,1.24.453,2.907.266,3.88l-.706,3.8c-.334,1.76-.44,2.88-.24,4.627.226,1.88-.2,4.187-.427,6.12l-.52,4.493-.387,5.853-.333,5.32-.32,5.227-.453,4.36-.72,5.36c-.24,1.813-.747,3.427-1.654,5.133-.72,1.334-2.893,2.44-4.36,1.907v.013Z"/></g></mask></defs><path d="M181.678,88.908l-.032,4.34v.017s-.388,5.264-.388,5.264v.003l-.429,4.959v.002c-.1,1.07-.491,2.122-.863,3.183-.667,1.894-1.203,3.195-2.12,4.108-.926.921-2.21,1.418-4.294,1.8l-.035.007-.037-.004c-2.204-.235-3.769-.918-4.926-2.544h0s-4.469-6.339-4.469-6.339l-.01-.013-.007-.014-3.437-6.507-.005-.009h0s-3.254-6.878-3.254-6.878l-.003-.007-.004-.008-2.993-7.557-.002-.006-1.43-3.922-.002-.004-1.656-4.785-2.036-5.414-.005-.011-.002-.012-1.022-3.8-1.091-3.57-3.378-9.9c-.083.382-.163.752-.231,1.106-.119.618-.185,1.133-.15,1.498l.336,3.347v.024s.035,6.244.035,6.244l.323,7.81v.01h-.25s.25,0,.25,0l.022,4.883.267,8.041v.002l.158,6.037v.009l-.25-.002.249.002-.064,7.076,1.397.645.003.002c.114.055.182.149.222.24.039.089.056.187.063.281.014.188-.012.407-.057.615-.046.21-.114.424-.193.606-.074.17-.173.351-.299.455l-.616.51.047-.169c-.351.193-.768.372-1.195.512-.698.228-1.471.366-2.08.27l-.096-.015-.061-.077c-1.346-1.713-1.556-3.903-1.757-5.866l-.562-5.592-.002-.01-.469-7.531-.148-3.067-.393-3.474-.002-.013-.661-10.684-.42-5.946v-.011s-.124-4.483-.124-4.483l-.496-3.964v-.014s-.002-.014-.002-.014l-.113-6.508h0s-.124-8.95-.124-8.95v-.013s0,0,0,0l.207-5.669h0c.037-.912.536-1.776,1.165-2.432.627-.654,1.421-1.141,2.105-1.263l.402-.057c1.981-.205,3.535.749,4.756,2.227,1.294,1.568,2.237,3.751,2.961,5.852l1.056,3.073,1.943,4.941h-.001s1.716,4.307,1.716,4.307l.003.009.004.01,5.037,16.225,2.463,7.608h0s1.55,4.814,1.55,4.814l1.53,4.11,2.935,7.255,2.477,5.359,3.377,5.872-.02-8.106v-.007l.203-7.618c-.444-1.469-.569-3.015-.455-4.566l-.103-4.869-.249-3.218v-.013l-.273-10.931v-.004l-.061-6.804-.072-5.654v-.015s.198-4.48.198-4.48h0s.256-5.185.256-5.185l-.299-7.043v-.015s0-.015,0-.015l.438-5.793-.583-3.089-1.337-.833c-.214-.132-.342-.323-.4-.551-.054-.218-.043-.462-.001-.714.085-.499.312-1.128.545-1.823.474-1.416,1.014-3.213.735-5.24-.396-2.889-.115-5.74,1.051-8.367.942-2.135,3.964-2.964,5.823-1.153h.001c2.601,2.545,2.988,6.651,2.876,10.113l.43,6.712.002.017-.002.018-.312,4,.437,6.313c.177,2.565-.281,5.044-.611,7.53l.249,4.075v.014s.053,9.393.053,9.393v.003s-.051,7.797-.051,7.797l.183,9.341.111,4.798.367,4.865c.123,1.44.098,2.867-.141,4.267l.554,5.411.145,2.996Z" style="stroke:#000; stroke-width:.5px;"/><path d="M81.132,7.035c1.419-.682,3.12-1.08,4.612-.923,1.502.158,2.821.887,3.38,2.472l.087.279c.369,1.392-.195,2.697-1.165,3.849-1.033,1.227-2.56,2.327-4.049,3.256l-4.405,2.748-.006.003-4.299,2.523-4.011,2.623-.01.006h0s-2.136,1.26-2.136,1.26h0s-3.485,2.184-3.485,2.184l-.011.007-6.059,3.348h0s-3.024,1.815-3.024,1.815c.086.303.237.637.423.987.222.417.474.829.706,1.235h0s2.228,3.87,2.228,3.87l.004.008,2.878,5.426.006.012,1.995,4.295.007.012.004.013,2.767,8.128.003.01.002.011,1.227,4.959v.007s.003.008.003.008l1.661,8.995.003.013v.013s.311,3.668.311,3.668l.884,7.288.029.276c.059.665.057,1.473.034,2.271-.013.458-.033.917-.052,1.349-.019.432-.037.837-.046,1.188l-.148,5.506c-.026,1.02-.264,2.495-.611,3.957-.347,1.462-.809,2.935-1.293,3.949h0c-.2.419-.387.854-.575,1.298-.188.442-.377.895-.579,1.337-.403.884-.865,1.748-1.496,2.472h0s-1.923,2.203-1.923,2.203c-1.969,2.239-5.14,3.77-8.132,4.44h.001c-4.922,1.117-10.133.286-14.654-2.032l-.016-.009-.015-.01-3.345-2.387-.007-.006-.007-.006-2.975-2.472-.009-.008-.008-.008-1.935-1.936c-1.502-1.506-2.426-2.983-3.247-4.382-.823-1.403-1.534-2.709-2.621-3.927l-.033-.036-.016-.047-.69-1.939c-2.62-4.81-3.716-10.57-1.576-15.734,1.33-3.211,3.479-5.293,6.973-6.227h0c.963-.255,2.136-.502,3.296-.541,1.156-.039,2.327.129,3.263.732,2.331,1.492,3.135,4.208,2.297,6.555h0c-.251.694-.873,1.284-1.522,1.62-.327.17-.676.283-1.006.309-.33.025-.66-.036-.922-.24h0c-.36-.282-.636-.791-.858-1.307-.186-.432-.35-.908-.495-1.325-.925.479-1.539,1.49-1.869,2.746-.311,1.186-.358,2.549-.19,3.776l.084.516c.646,3.378,1.598,6.796,3.819,9.464l.024-.013.134.156,1.372,1.602.003.004,2.388,2.892,3.466,3.336,2.762,1.625.221.125c2.281,1.244,4.391.931,6.848.222,2.415-.696,3.836-2.274,4.808-4.31.98-2.051,1.493-4.541,2.097-7.048h0c.295-1.213.653-2.32.632-3.559l-.063-3.8v-.007s.039-4.717.039-4.717l-.303-3.802h0s-.367-4.021-.367-4.021l-.904-8.827-1.049-4.649h0s-1.456-5.897-1.456-5.897l-1.969-6.138-1.789-4.438h0s-2.892-6.627-2.892-6.627l-2.122,1.075c-1.664.845-3.061,1.489-4.557,2.639l-.021.016-.022.011-2.269,1.11-3.44,1.843c-1.532.819-2.969,1.703-4.453,2.552-1.47.841-2.975,1.64-4.62,2.278-2.453,1.689-5.063,2.978-7.941,3.725-2.926,2.165-6.162,3.938-9.896,3.654h0c-.536-.039-1.109-.406-1.537-.827-.219-.216-.412-.457-.554-.7-.14-.239-.242-.498-.254-.743-.03-.615.227-1.149.606-1.597.377-.445.887-.819,1.398-1.123l6.818-4.158,6.829-4.41,3.083-2.107.013-.008,6.148-3.652,2.977-2.142.011-.008.135.21-.134-.211,4.156-2.656,4.484-2.976.01-.007,5.424-3.224,2.086-1.261,5.361-3.353,2.444-1.571.003-.002h0s2.812-1.751,2.812-1.751l.011-.007.013-.005,4.334-2.076c.277-.253.648-.636,1.058-1.03.404-.388.848-.784,1.21-.972h.003s5.524-2.803,5.524-2.803l.005-.002,3.405-1.633Z" style="stroke:#000; stroke-width:.5px;"/><path d="M95.284,54.475c3.312-.365,6.13,1.044,8.716,2.642l.514.321c2.572,1.633,4.007,3.811,5.381,6.463.077.125.177.277.291.449.115.173.241.365.363.559.239.382.481.806.58,1.153h0s1.106,3.83,1.106,3.83l.003.012.003.013,1.049,5.701.002.014v.014s.201,2.767.201,2.767l.002.024-.004.025-.471,3.731c.266,5.064-.549,9.784-3.615,13.976-.418,2.534-2.007,4.167-3.788,5.752l-.073.064c-2.018,2.787-5.114,4.324-8.383,4.782-3.112.436-6.398-.102-9.094-1.482l-.531-.287-3.006-1.725c-2.692-1.547-4.546-4.053-6.116-6.628-.638-1.041-1.484-2.257-1.846-3.483v-.002s-2.361-8.268-2.361-8.268l-.009-.031v-.032s-.18-7.892-.18-7.892v-.022s.003-.023.003-.023l.624-3.953v-.011s.004-.011.004-.011l.771-3.12.109-.402c.583-1.98,1.735-3.511,2.945-5.08,1.595-2.084,3.567-3.442,5.625-5.026l.396-.315c.395-.322.785-.664,1.185-1.009.531-.458,1.076-.923,1.651-1.346,1.151-.847,2.439-1.541,4.026-1.714l3.93-.43ZM94.019,62.442c-.368-.002-.756.078-1.319.281-.542.196-1.244.381-1.892.677-.624.285-1.093.631-1.257,1.081.287,1.599,1.279,2.286,2.226,2.86.469.284.964.56,1.305.909.176.18.32.388.405.637.085.25.105.528.054.841h0c-.035.211-.169.419-.321.593-.158.181-.36.357-.574.504-.213.147-.448.272-.672.345-.214.07-.466.108-.681.013h-.002s-4.449-2.016-4.449-2.016c-.637-.288-1.174-.9-1.656-1.556-.244-.332-.481-.687-.714-1.031-.165-.244-.33-.482-.494-.71-1.776,2.583-2.788,5.401-2.949,8.358l-.156,3.129h0c-.103,1.928.128,3.681.454,5.551l.145.81v.002c.856,4.875,2.972,9.079,6.84,12.303l.201.166-.011.011c1.358,1.113,2.873,2.116,4.646,2.536,3.251.771,5.785-1.431,7.483-4.108.847-1.333,1.729-2.477,2.095-3.979l1.048-4.282.929-4.351c.06-3.356-.472-6.465-1.075-9.846v-.002c-.087-.509-.334-1.149-.624-1.803-.144-.325-.296-.647-.44-.953-.143-.304-.279-.594-.389-.85l-.132-.286c-1.389-2.914-3.69-4.659-6.755-5.591h0c-.531-.159-.9-.244-1.271-.246Z" style="stroke:#000; stroke-width:.5px;"/><path d="M122.146,59.311c.494-.106.958.077,1.357.387.399.31.76.767,1.068,1.268.614,1.002,1.056,2.251,1.173,3.078l3.483,23.802v.009s.802,7.205.802,7.205l.415,3.371.002.009.335,3.829.013-.013.05.568c.122,1.396-.182,2.659-.903,3.595-.723.939-1.846,1.523-3.302,1.593-1.242.06-2.416-.595-3.21-1.578-.783-.969-1.216-2.283-.981-3.616-.589-1.853-.794-3.638-.661-5.527l-.577-4.825v-.014s-.312-4.777-.312-4.777l-.28-5.817-.278-13.534v-.007l.057-7.116v-.003c.004-.214.095-.43.211-.621.118-.195.276-.389.447-.561.171-.173.361-.33.544-.452.179-.12.372-.219.547-.255h0Z" style="stroke:#000; stroke-width:.5px;"/><path d="M118.012,22.07c.442-.124.966-.089,1.443.08.481.17.94.484,1.239.942l.119.206v.002l2.634,5.371.127.266c.3.66.62,1.582.606,2.339-.006.431-.268.841-.626,1.213-.339.353-.8.706-1.319,1.058l.085,1.753c.012.252-.09.603-.228.892-.072.149-.16.296-.262.415-.098.115-.229.231-.393.274-.168.044-.347.003-.494-.052-.154-.058-.311-.147-.455-.249-.145-.102-.284-.221-.397-.344-.11-.119-.213-.257-.264-.397l-2.738-7.516c-.415-1.139-.926-2.388-.994-3.481-.035-.555.043-1.093.317-1.567.276-.476.735-.863,1.415-1.144l.185-.063Z" style="stroke:#000; stroke-width:.5px;"/><path d="M198.296,226.162c-2.253-.813-3.04-2.533-3.066-4.4l-.027-2.906.4-5.227.387-5.12.36-4.48.466-5.587.427-6.466.187-3.067c.146-2.427.186-5.16.706-7.44.294-1.253.64-2.213.64-3.44l-.04-6.227c-.813-.64-1.52-1.68-1.373-2.68.12-.733,1.107-1.467,2.28-1.96l.24-5.707.693-4.733.347-4.56.28-4.413.4-4.52.387-4.08.346-4.813.64-6.667.827-14.467-2.227-.493c-.533-1.027-.386-2.413-.08-3.667.814-3.32,2.12-7.507,4.587-7.72.773-.067,2.187.813,2.413,1.76.947,3.96,1.24,7.88,1.4,11.933l.294,7.573-.08,5.933.146,6.627-.026,3.267-.16,6.453-.587,10.667v3.027l-.453,6.387,7.36-1.84,7.72-1.92,3.48-.893,4.44-1.093,5.906-1.213-2.92-1.827c-.346-.213-.626-1.08-.586-1.453.04-.373,1.133-.84,1.506-.68l4.4,1.907.413-4.067.587-7.853.693-5.84.64-6.453.987-9.08.293-3.787.707-7.027.547-5.88.413-4.187c.08-.773-.027-2.387-.147-3.133l-.773-5c-.16-1.053.973-2.373,1.8-2.613,1.267-.373,2.667.32,3.093,1.64,2.107,6.493,2.054,13.08,1.814,19.787l-.24,6.467-.147,3.507-.333,9.507-.32,7.52-.054,5.747-.266,8.96-.28,8.52-.467,7.08-.347,6.427-.253,7.2-1.12,15.786-.28,3.147-.467,5.4-.88,6.427-1.92,9.773-1.506,6.16-.787,4.04-1.333,4.987c-.2.746-1.44,1.573-2.147,1.706-.707.134-2.493-.2-2.826-.893-.6-1.2-.614-2.667-.56-3.867l.213-4.573.707-4.173c.253-1.507.133-2.787.32-4.334l.346-2.826.467-4.427.52-5.227.787-10.04.253-4.92.293-5.479.387-7.387.413-7.053.267-5.187.133-7.427-3.826,1.373-4.027,1.2-4.413,1.2-3.467.88-7.173,1.307-8.92,1.12c.12,1.24.453,2.907.266,3.88l-.706,3.8c-.334,1.76-.44,2.88-.24,4.627.226,1.88-.2,4.187-.427,6.12l-.52,4.493-.387,5.853-.333,5.32-.32,5.227-.453,4.36-.72,5.36c-.24,1.813-.747,3.427-1.654,5.133-.72,1.334-2.893,2.44-4.36,1.907v.013Z"/><g style="mask:url(#mask);"><path d="M198.296,226.162c-2.253-.813-3.04-2.533-3.066-4.4l-.027-2.906.4-5.227.387-5.12.36-4.48.466-5.587.427-6.466.187-3.067c.146-2.427.186-5.16.706-7.44.294-1.253.64-2.213.64-3.44l-.04-6.227c-.813-.64-1.52-1.68-1.373-2.68.12-.733,1.107-1.467,2.28-1.96l.24-5.707.693-4.733.347-4.56.28-4.413.4-4.52.387-4.08.346-4.813.64-6.667.827-14.467-2.227-.493c-.533-1.027-.386-2.413-.08-3.667.814-3.32,2.12-7.507,4.587-7.72.773-.067,2.187.813,2.413,1.76.947,3.96,1.24,7.88,1.4,11.933l.294,7.573-.08,5.933.146,6.627-.026,3.267-.16,6.453-.587,10.667v3.027l-.453,6.387,7.36-1.84,7.72-1.92,3.48-.893,4.44-1.093,5.906-1.213-2.92-1.827c-.346-.213-.626-1.08-.586-1.453.04-.373,1.133-.84,1.506-.68l4.4,1.907.413-4.067.587-7.853.693-5.84.64-6.453.987-9.08.293-3.787.707-7.027.547-5.88.413-4.187c.08-.773-.027-2.387-.147-3.133l-.773-5c-.16-1.053.973-2.373,1.8-2.613,1.267-.373,2.667.32,3.093,1.64,2.107,6.493,2.054,13.08,1.814,19.787l-.24,6.467-.147,3.507-.333,9.507-.32,7.52-.054,5.747-.266,8.96-.28,8.52-.467,7.08-.347,6.427-.253,7.2-1.12,15.786-.28,3.147-.467,5.4-.88,6.427-1.92,9.773-1.506,6.16-.787,4.04-1.333,4.987c-.2.746-1.44,1.573-2.147,1.706-.707.134-2.493-.2-2.826-.893-.6-1.2-.614-2.667-.56-3.867l.213-4.573.707-4.173c.253-1.507.133-2.787.32-4.334l.346-2.826.467-4.427.52-5.227.787-10.04.253-4.92.293-5.479.387-7.387.413-7.053.267-5.187.133-7.427-3.826,1.373-4.027,1.2-4.413,1.2-3.467.88-7.173,1.307-8.92,1.12c.12,1.24.453,2.907.266,3.88l-.706,3.8c-.334,1.76-.44,2.88-.24,4.627.226,1.88-.2,4.187-.427,6.12l-.52,4.493-.387,5.853-.333,5.32-.32,5.227-.453,4.36-.72,5.36c-.24,1.813-.747,3.427-1.654,5.133-.72,1.334-2.893,2.44-4.36,1.907v.013Z" style="fill:none; stroke:#000; stroke-width:1.5px;"/></g><path d="M31.875,116.009c1.836-1.031,3.472-.953,5.355-.887h0c2.649.095,4.601.588,6.309,1.552,1.487.84,2.766,2.024,4.148,3.564l.6.681.301.36c3.062,3.787,4.644,9.503,4.71,14.213h0s.067,5.24.067,5.24v.028l-.004.028-.44,3.16-.002.018-.005.018-1.413,5.92-.008.033-.013.03-2.813,6.427h0c-.929,2.114-2.042,4.102-3.627,5.823h0s-2.68,2.895-2.68,2.895c-3.378,3.651-7.62,5.368-12.34,6.602h0l-3.267.852h0s-4.053,1.061-4.053,1.061l-2.026.904c.312.86,1.036,1.645,1.894,2.331l.419.32h.002s0,0,0,0l3.827,2.84.017.013.016.016c1.603,1.504,3.345,2.804,5.079,4.146,1.512,1.17,3.014,2.371,4.378,3.75l.575.603.017.018.014.021,4.44,6.293.021.031.016.034,1.24,2.826.293.637c.299.624.615,1.217.922,1.826.355.705.694,1.423.958,2.203l.109.337,2.053,6.8h.001c.37,1.239.328,2.624-.041,3.853-.368,1.226-1.074,2.336-2.075,2.984-.967.626-1.857.837-2.713.758-.844-.078-1.617-.433-2.36-.869h0c-.986-.584-1.483-1.25-1.797-2.03-.152-.378-.259-.779-.36-1.192-.103-.419-.199-.848-.333-1.319h0s-1.192-4.148-1.192-4.148l-2.29-5.401-3.288-5.466-4.471-5.238-4.896-4.391.031,4.233h.013l.003.372c.014,1.778-.095,3.398-.378,5.232l-.399,2.602c.727,2.085.911,3.895.683,6.14l-.225,2.252.332,6.33c.092,1.752.129,3.954-1.285,5.486h0c-1.071,1.168-2.797,1.65-4.37,1.48-1.576-.17-3.102-1.009-3.686-2.603h0c-.166-.452-.357-1.092-.506-1.723-.148-.624-.264-1.273-.264-1.727v-3.961c.014-2.3.226-4.198-.037-6.408h0c-.188-1.615.127-2.958.363-4.26.237-1.307.406-2.612.005-4.255h0c-.121-.505-.273-1.176-.392-1.832-.117-.649-.207-1.312-.192-1.788l.093-3.375-.319-11.016v-.028s.003-.028.003-.028c.182-1.479.103-2.912-.219-4.211l-.021-.082.017-.083c.522-2.556.445-4.942-.144-7.467l-.022-.09.024-.09.465-1.785-.184-4.09c-.09-1.972-.254-3.915.611-5.983l-.588-1.583-.023-.062v-.066l-.062-14.734c-3.243,3.616-5.807,7.624-7.229,12.209-.003.203-.017.43-.007.684.005.131.018.235.036.306.002.009.006.017.008.023l1.289.702.007.003.006.004,1.048.624h0c.139.08.206.208.237.306.031.097.036.197.033.28-.006.169-.049.353-.106.515-.058.162-.14.332-.242.467-.051.067-.118.141-.202.197-.083.055-.208.109-.359.092h0s-.009,0-.009,0h-.003s-1.281-.132-1.281-.132h0c-.915-.091-1.649-.417-2.192-.957-.541-.537-.866-1.258-1.021-2.087-.307-1.646.04-3.804.813-6.118,1.548-4.641,4.872-10.115,8.587-13.836l4.986-5,.016-.015.017-.014,6.627-5.267.502-.391c2.477-1.883,4.443-2.761,6.036-3.284.841-.276,1.583-.455,2.208-.625.556-.152,1.02-.297,1.427-.498l.171-.09ZM33.082,122.191h0c-.126.003-.364.055-.722.173-.347.114-.773.279-1.257.485-.968.412-2.151.979-3.368,1.605-2.443,1.257-4.983,2.734-6.181,3.658l-4.613,3.561h0s-2.478,2.084-2.478,2.084c.921.756,1.626,1.885,2.176,3.206.628,1.51,1.07,3.312,1.392,5.191.642,3.756.817,7.897,1.016,10.769l.186,2.736.595,6.182h.024l.023.351.301,4.807,2.316-.842.011-.004,8.568-2.83c2.359-1.246,4.65-2.385,6.282-4.223,4.732-5.352,7.464-11.814,8.415-18.815h0c.235-1.707.257-3.787.046-5.794-.211-2.012-.652-3.92-1.318-5.299l-1.573-3.254h0c-.517-1.077-1.559-2.058-2.803-2.764-1.242-.705-2.639-1.109-3.821-1.078l-3.213.094Z" style="stroke:#000; stroke-width:.75px;"/><path d="M164.957,127.243c3.146.165,5.598,1.377,8.145,2.892,1.293.771,2.28,1.834,3.27,2.708l.541.482c2.675,2.416,4.846,4.877,6.239,8.353l2.426,6.053c1.468,3.653,1.625,7.869,1.319,11.794l-.067.781-.267,2.787c-.161,1.681-.539,3.848-1.271,5.49h0s-2.067,4.601-2.067,4.601l-.014.032-.019.028-2.08,3c-1.46,2.103-3.134,4.191-5.316,5.632h-.001s-3.799,2.493-3.799,2.493h0c-3.276,2.162-7.367,3.363-11.232,3.66h.001s-4.094.321-4.094.321l-.03.003-.031-.003-5.36-.474.301,1.108.026.095-.024.095c-.254,1.018-.308,2.125-.282,3.366l.267,10.515.319,8.493v.009s.107,7.64.107,7.64v.016l-.146,5.066-.002.02-.586,7.24v.008s-.002.007-.002.007l-.479,3.96-.002.016-.004.017-.734,3.427-.101.473-.094-.047c-.385.923-1.249,1.37-2.162,1.503-1.041.152-2.222-.081-3.084-.512-1.724-.863-2.261-2.882-2.247-4.952l.027-4.259-.054-4.494v-.006l.093-13.854-.053-3.538v-.003l-.08-12.071-.239-3.546-.002-.025.002-.026.267-3.946c.233-3.466-.188-4.742-.714-5.348-.263-.303-.576-.469-.96-.661-.375-.188-.823-.402-1.221-.812l-.002-.002-2.599-2.706h-.001c-.504-.528-.913-1.53-1.139-2.506-.115-.498-.188-1.011-.2-1.483-.012-.467.035-.923.181-1.29.592-1.483,1.849-2.402,3.26-2.815,1.294-.379,2.742-.34,3.997.087.371-.82.425-1.726.376-2.714-.027-.556-.084-1.108-.128-1.691-.043-.574-.072-1.164-.037-1.749v-.002l.64-10.053v-.011s.002-.01.002-.01l.343-2.907-.033-2.667-.789.461h0c-.119.071-.251.089-.357.091-.111.002-.227-.015-.342-.041-.23-.053-.495-.155-.771-.296-.555-.282-1.199-.739-1.769-1.343-1.142-1.209-2.028-3.062-1.195-5.292,1.363-3.662,3.437-6.59,5.892-9.697l-.46-3.562-.015-.16c-.027-.382.019-.822.123-1.216.113-.431.322-.908.677-1.154.189-.131.444-.202.686-.242.252-.042.535-.055.81-.04.273.015.554.057.797.137.23.075.489.202.643.428l1.516,2.203c.307-.165.628-.346.961-.538.434-.252.89-.518,1.356-.764.928-.489,1.933-.921,2.967-1.021l10.12-1.04.028-.003.03.002ZM159.828,133.432c-2.764.079-5.565,1.062-9.37,2.72l.72,14.46v.017l.04,6.133v.011l-.052,2.427.04,7.457v.05l-.013.049c-.698,2.599-.458,5.186-.032,7.979l.005.032v.031l-.075,4.008c2.215.337,5.525.142,8.748-.451,3.386-.623,6.581-1.665,8.262-2.905h.001l2.653-1.947.578-.425c2.309-1.994,3.49-4.888,4.491-7.692l1.265-3.585h0c.784-2.208,1.107-4.472.873-6.757l-.305-2.997-.795-3.899c-.428-2.1-1.271-3.831-2.431-5.676h0c-.236-.375-.467-.789-.696-1.208-.232-.423-.463-.851-.706-1.265-.429-.73-.874-1.378-1.379-1.832l-.221-.183-2.194-1.665c-3.804-2.119-6.609-2.966-9.408-2.886ZM142.474,175.74c-.036.005-.061.01-.075.013-.009.007-.02.017-.034.03-.019.018-.038.037-.056.059.041.027.084.054.128.081l.037-.183ZM144.659,141.463c-1.036,1.29-1.814,2.608-2.168,4.285-.034.163,0,.359.116.583.117.224.308.454.544.663.351.311.755.534,1.092.637l.416-6.168Z" style="stroke:#000; stroke-width:.75px;"/><path d="M75.609,141.595c.404.014.809.058,1.169.142.352.082.698.21.947.419l3.2,2.681.054.045.034.062c1.756,3.221,2.977,6.628,3.82,10.174l.163.711h0s1.066,4.868,1.066,4.868l.002.008v.008s2.055,11.8,2.055,11.8l.002.015.002.014.319,3.347.053.448c.061.45.144.904.22,1.368.099.608.183,1.231.169,1.828h0c-.019.73.051,1.387.146,2.073.095.68.219,1.406.293,2.231l.227,2.52v.004l.372,4.673h0l.413,4.16h0s.626,6.514.626,6.514l.413,3.572.05.468c.216,2.338-.039,4.63-.263,6.943l-.386,4.202-.015.152-.116.099-2.36,2c-.92.782-1.951.849-2.963.455-.984-.384-1.959-1.203-2.868-2.201-1.825-2.001-3.506-4.859-4.597-6.939v-.002c-.077-.146-.116-.325-.14-.486-.024-.17-.035-.355-.038-.532-.005-.351.022-.712.062-.918l.023-.086c.029-.082.072-.152.112-.206.056-.076.125-.145.195-.207.14-.122.315-.235.489-.324.173-.087.367-.162.55-.194.091-.016.197-.025.302-.009.08.012.173.041.259.101l.083.071.005.005,2.194,2.412-.712-7.818-.094-1.032.05.05-.535-9.383-7.071.557-.019.002h-.018l-4.693-.094c-.487-.009-.795.1-1,.249-.207.151-.35.373-.452.665-.103.297-.157.643-.196,1.018-.028.268-.051.565-.084.843l-.037.269-.973,6.133v.006s-1.908,10.96-1.908,10.96c-.206,1.181-.582,2.276-1.245,3.169-.669.9-1.614,1.574-2.919,1.928h0c-.751.206-1.619.101-2.354-.27-.74-.374-1.37-1.03-1.601-1.945h0c-.54-2.078-.866-4.247-.812-6.462h0s.134-4.815.134-4.815v-.012l.254-4.094v-.004l.653-8.84v-.004l.76-9.094v-.008s.002-.007.002-.007l.813-6.494.786-6.412.121-.931c.632-4.636,1.678-8.995,3.326-13.46.19-.519.637-.992,1.128-1.317.489-.324,1.099-.553,1.656-.484h.006c.268.037.504.178.701.346.2.17.386.39.557.627.171.237.334.504.486.777l1.38-4.358.003-.01.004-.009,1.333-3.533h0c.349-.921.798-1.979,1.432-2.895.634-.917,1.472-1.717,2.604-2.077l.005-.002c.533-.163,1.38-.25,2.181-.223ZM74.482,152.953c-1.495,4.391-2.644,8.413-3.28,12.771h0s-.439,2.987-.439,2.987v.005s-1.081,6.707-1.081,6.707l-.571,4.665v.007s-.688,4.896-.688,4.896l5.133-.122h.009s0,0,0,0h.03l6.174.273-1.388-12.372-1.584-9.772-1.503-7.459-.812-2.585ZM65.455,159.633c.048-.12.101-.234.146-.336.097-.219.165-.386.188-.527.021-.125,0-.185-.041-.233-.027-.032-.074-.073-.157-.117l-.136,1.214Z" style="stroke:#000; stroke-width:.75px;"/><path d="M108.612,108.887c.698-.114,1.274.12,1.721.575.431.439.739,1.077.968,1.786.401,1.244.598,2.83.721,4.295l.049.619h0s.373,5.16.373,5.16v.019s0,.019,0,.019l-.226,9.026v.005l-.441,11.866v.016s-.32,4.08-.32,4.08v.002s-.894,10.453-.894,10.453v.012s-.374-.043-.374-.043l.372.043-.771,6.721-.266,5.786v.023s-.004.022-.004.022l-.811,4.776-.225,5.19v.015s-.003.014-.003.014l-1.972,16.533-.581,6.393,2.226-.458.022-.004,2.746-.398,2.93-.676h0c3.029-.694,6.534-1.371,9.743-1.317h0l4.359.08h.014s4.506.242,4.506.242h-.001c.258.012.496.009.741.009.238,0,.483.005.722.037.485.064.941.244,1.375.696.955.562,1.663,1.362,1.979,2.317.323.976.224,2.073-.373,3.173l-.054.1-.099.052c-3.27,1.744-6.588,2.054-10.07,2.307l-3.736.783-.025.004-6.614.92h-.006s-3.51.439-3.51.439l-8.367,2.047h0c-.42.102-.824.239-1.233.38-.404.14-.818.285-1.233.394-.843.22-1.73.298-2.712-.111h-.002c-2.043-.863-2.77-3.03-2.905-5.418-.136-2.409.316-5.2.79-7.549h0s.467-2.294.467-2.294l.729-5.613,2.159-17.132.003-.02.004-.02.893-3.826c.181-.771.155-1.632.141-2.537-.013-.877-.015-1.81.272-2.61h0c.412-1.148.601-2.271.721-3.411.06-.571.103-1.142.149-1.725.045-.58.093-1.17.164-1.769l1.066-9.08.532-5.485.334-3.493.507-5.227v-.005l.692-6.162.28-6.239v-.003l.653-12.92c.021-.455.316-.902.616-1.217.159-.166.337-.315.516-.43.174-.112.373-.207.571-.238h0Z" style="stroke:#000; stroke-width:.75px;"/></svg>