<?xml version="1.0" encoding="UTF-8"?><svg id="Layer_1" xmlns="http://www.w3.org/2000/svg" viewBox="0 0 138.57 74.56"><path d="M30.14,73.26c-10.67,0-17.86-.74-21.35-2.2-2.77-1.16-4.13-2.97-4.55-6.06-.76-5.63-.91-11.85-1.05-17.87-.1-4.36-.21-8.86-.55-13.03-.19-2.27-.43-4.22-.67-6.11-.67-5.27-1.2-9.43.21-16.08.09-.42.1-.72.1-1.07.01-.7.03-1.49.69-2.82.12-.23.26-.36.43-.52.27-.25.44-.42.52-.53.12-.55.59-.96,1.16-1.02l13.46-1.18c.48-.03.9-.03,1.34-.03.58,0,1.16.02,1.74.03.56.01,1.12.03,1.67.03.45,0,.9,0,1.34-.04l1.5-.09c16.81-1.06,34.2-2.15,51.27-2.68,1.77-.05,3.6-.12,5.47-.18,7.15-.24,15.25-.51,23.09-.51,9.22,0,16.73.37,22.97,1.14l1.06.12c3.6.41,6.99.8,7.19,5.69.34,8.29-.32,23.08-1.82,31.03-1.26,6.7-3.02,14.39-4.57,21.18l-.6,2.62c-.07.29-.13.6-.2.9-.65,3.06-1.54,7.24-6.63,7.91-2.82.37-7.37.4-11.4.4h-2.34c-1.15,0-2.23,0-3.17.02-.98.02-1.95.02-2.92.02-5.88,0-11.87-.25-17.67-.5-5.78-.24-11.75-.5-17.61-.5-2.86,0-5.48.06-8,.18-3.21.15-6.51.46-9.7.76-3.85.36-7.83.73-11.75.84-2.06.06-5.2.14-8.65.14Z" style="fill:#e11c84;"/><path d="M105.95,2.6c7.99,0,15.86.28,22.81,1.13,4.21.52,6.94.43,7.11,4.58.33,8.13-.32,22.9-1.8,30.74-1.42,7.53-3.43,16.18-5.16,23.75-.71,3.13-1.1,7.21-5.73,7.82-2.75.36-7.19.39-11.22.39-.81,0-1.6,0-2.35,0-1.16,0-2.24,0-3.18.02-.97.01-1.93.02-2.9.02-11.72,0-23.52-.99-35.28-.99-2.69,0-5.38.05-8.06.18-7.11.34-14.3,1.39-21.43,1.6-2.14.06-5.21.14-8.61.14-7.55,0-16.72-.37-20.85-2.1-2.59-1.08-3.45-2.72-3.77-5.04-1.31-9.64-.77-20.9-1.59-30.83-.71-8.66-2.35-13.04-.48-21.81.31-1.47-.16-1.89.69-3.59.04-.07,1-.81,1.05-1.35l13.46-1.18c.41-.02.81-.03,1.22-.03,1.14,0,2.28.06,3.41.06.48,0,.95-.01,1.42-.04,17.53-1.1,35.17-2.23,52.72-2.77,8.71-.27,18.7-.68,28.51-.68M105.95,0c-7.86,0-15.97.27-23.13.51-1.86.06-3.69.12-5.46.18-17.09.53-34.49,1.62-51.31,2.68l-1.5.09c-.38.02-.79.04-1.26.04-.54,0-1.09-.01-1.64-.03-.59-.02-1.18-.03-1.77-.03-.49,0-.94.01-1.35.03-.03,0-.06,0-.09,0l-13.46,1.18c-1.01.09-1.86.75-2.21,1.67-.08.08-.18.18-.23.22-.21.19-.49.45-.71.9-.73,1.47-.81,2.44-.83,3.38,0,.32-.01.53-.07.83C-.54,18.51.02,22.98.68,28.16c.24,1.87.48,3.8.67,6.05.34,4.13.44,8.62.54,12.96.14,6.05.29,12.31,1.06,18.01.3,2.21,1.18,5.35,5.34,7.09,3.7,1.55,10.85,2.3,21.85,2.3,3.46,0,6.62-.08,8.69-.14,3.96-.11,7.96-.49,11.83-.85,3.18-.3,6.46-.6,9.64-.75,2.5-.12,5.1-.18,7.94-.18,5.83,0,11.79.25,17.56.5,5.81.25,11.81.5,17.72.5.98,0,1.96,0,2.94-.02.93-.01,2-.02,3.14-.02h1.14s1.22,0,1.22,0c4.26,0,8.66-.03,11.56-.41,6.01-.79,7.09-5.89,7.74-8.93.06-.3.13-.6.19-.88l.6-2.61c1.56-6.8,3.32-14.51,4.58-21.24,1.51-8.04,2.19-22.96,1.84-31.33-.25-6.01-4.74-6.52-8.35-6.93-.34-.04-.69-.08-1.05-.12-6.29-.77-13.86-1.15-23.13-1.15h0Z" style="fill:#e11c84;"/><path d="M4.15,8.6c.04-.07,1-.81,1.05-1.35l13.46-1.18c2.01-.1,4.05.12,6.06,0,17.53-1.1,35.17-2.23,52.72-2.77,15.8-.49,35.83-1.46,51.33.45,4.21.52,6.94.43,7.11,4.58.33,8.13-.32,22.9-1.8,30.74-1.42,7.53-3.43,16.18-5.16,23.75-.71,3.13-1.1,7.21-5.73,7.82-4.14.54-12.13.34-16.76.41-15.35.23-30.86-1.53-46.24-.79-7.11.34-14.3,1.39-21.43,1.6s-23.47.54-29.46-1.96c-2.59-1.08-3.45-2.72-3.77-5.04-1.31-9.64-.77-20.9-1.59-30.83-.71-8.66-2.35-13.04-.48-21.81.31-1.47-.16-1.89.69-3.59ZM12,65.8c3.16.43,6.24,1.39,9.46,1.66,17.52,1.46,36.6-1.63,54.63-1.2,13.89.33,27.93,1.24,41.92,1.05.88-.01,5.07-.25,5.45-.44.47-.34.67-.8.82-1.29,1.46-4.7,1.65-12.16,2.52-17.28.69-4.04,2.22-8.35,2.72-12.35.74-5.94.25-12.59.61-18.6.08-1.43,1.42-8.78,1.05-9.34-.53-.46-1.19-.62-1.92-.74-10.66-1.76-27.29-.71-38.28-.43-23.31.6-46.69,1.57-69.93,2.83-4.12.22-8.3.84-12.46.91-1.51,7.34-.67,15.11.09,22.58.75,7.4,2.28,14.75,2.76,22.19.1,1.6-.37,9.79.56,10.43Z"/><path d="M12,65.8c-.93-.65-.46-8.83-.56-10.43-.48-7.44-2.01-14.79-2.76-22.19-.76-7.48-1.6-15.24-.09-22.58,4.16-.07,8.35-.69,12.46-.91,23.23-1.26,46.62-2.23,69.93-2.83,10.99-.28,27.62-1.34,38.28.43.72.12,1.39.27,1.92.74.37.56-.96,7.92-1.05,9.34-.35,6.01.13,12.66-.61,18.6-.5,4-2.03,8.31-2.72,12.35-.87,5.11-1.06,12.57-2.52,17.28-.15.49-.34.95-.82,1.29-.38.19-4.57.43-5.45.44-13.99.19-28.03-.72-41.92-1.05-18.03-.43-37.11,2.65-54.63,1.2-3.22-.27-6.3-1.23-9.46-1.66ZM116.49,45.72c1.39-.39,6.58-2.25,6.03-3.79-.49-1.38-6.28.09-7.24-.99-2.65-8.5-.1-19.19-5.49-27.03-2.03-2.94-5.89-4.34-8.04-.71-2.51,4.23-4.25,12.55-5.23,17.35-.63,3.09-.67,8.27-1.63,10.9-.34.94-1.75.93-1.79,1.3,2.25,3.5,1.03,6.99,1.4,10.68.17,1.68,1.37,5.63,4.03,3.79,1.62-1.12-.12-8.81,1.08-10.95l10.02-.14c1.51.43,2.21,16.99,7.77,14.03,3.46-1.84-.87-11.46-.9-14.44ZM67.91,28.64c4.69-3.24,5.83-14.29-2.56-13.88-4.8.23-10.44,5.61-12.05,9.22-1.73,3.87-1.55,9.69,1.98,12.81,5.57,4.93,15.16,2.19,14.03,12.27-.18,1.63-2.03,4.87-3.44,5.99-3.84,3.05-9.14-4.36-7.93-6.88l2.5-1.69c-8.26-.07-5.29,10.18-.89,13.23,8.99,6.23,15.25-5.32,14.86-11.79-.06-1.04-1.8-6.6-2.43-7.28-.13-.14-2.9-2.11-3.17-2.25-3.35-1.77-8.26-1.59-10.7-4.79-1.72-2.25-1.05-6.56.24-8.91.91-1.66,7.28-7.63,9.01-4.87,1.07,1.72.6,6.71.56,8.83ZM20.29,25.48l-2.59.37c-1.5,8.42-3.53,23.81,3.54,30.72,5.78,5.65,9.67.48,11.55-4.44,2.11-5.55,3.38-17.55,3.84-23.68.11-1.4.56-6.54-.65-7.37l-3.01-.28c-1.51.78-2.16,12.87-2.45,15.15-.56,4.48-.85,11.38-2.45,15.35-1.34,3.35-2.36,5.37-4.6.99-3.9-7.62-2.69-18.64-3.19-26.81ZM45.95,50.45c-4-1.1-4.64,3.05-3.72,5.54,2.35.92,4.05-5.22,3.72-5.54ZM84.66,50.88c-4.09-.85-5.18,1.81-3.15,4.46,2.94,3.85,4.6-2.16,3.15-4.46Z" style="fill:#fff;"/><path d="M116.49,45.72c.03,2.98,4.36,12.6.9,14.44-5.56,2.95-6.26-13.61-7.77-14.03l-10.02.14c-1.2,2.14.54,9.82-1.08,10.95-2.66,1.84-3.86-2.11-4.03-3.79-.37-3.69.85-7.17-1.4-10.68.04-.37,1.45-.36,1.79-1.3.96-2.63,1-7.81,1.63-10.9.98-4.8,2.72-13.12,5.23-17.35,2.15-3.63,6.01-2.23,8.04.71,5.4,7.84,2.85,18.53,5.49,27.03.96,1.08,6.75-.39,7.24.99.54,1.54-4.64,3.4-6.03,3.79ZM108.92,40.47c-1.13-8.1,1.09-17.04-3.43-24.5-3.56,7.81-4.65,16.43-5.72,24.77.25,1.18,7.91,0,9.15-.27Z"/><path d="M67.91,28.64c.03-2.12.51-7.12-.56-8.83-1.72-2.76-8.1,3.21-9.01,4.87-1.29,2.36-1.96,6.67-.24,8.91,2.44,3.2,7.35,3.02,10.7,4.79.28.15,3.05,2.11,3.17,2.25.64.69,2.37,6.24,2.43,7.28.39,6.47-5.88,18.02-14.86,11.79-4.4-3.05-7.37-13.3.89-13.23l-2.5,1.69c-1.21,2.52,4.1,9.94,7.93,6.88,1.41-1.12,3.25-4.36,3.44-5.99,1.14-10.07-8.45-7.34-14.03-12.27-3.53-3.12-3.71-8.94-1.98-12.81,1.61-3.6,7.25-8.98,12.05-9.22,8.38-.41,7.25,10.64,2.56,13.88Z"/><path d="M20.29,25.48c.5,8.18-.71,19.19,3.19,26.81,2.24,4.38,3.26,2.36,4.6-.99,1.6-3.97,1.88-10.88,2.45-15.35.29-2.29.94-14.37,2.45-15.15l3.01.28c1.2.83.75,5.96.65,7.37-.46,6.13-1.73,18.13-3.84,23.68-1.87,4.92-5.76,10.1-11.55,4.44-7.07-6.91-5.04-22.3-3.54-30.72l2.59-.37Z"/><path d="M84.66,50.88c1.44,2.29-.21,8.31-3.15,4.46-2.02-2.65-.93-5.31,3.15-4.46Z"/><path d="M45.95,50.45c.33.32-1.37,6.45-3.72,5.54-.92-2.48-.28-6.64,3.72-5.54Z"/><path d="M108.92,40.47c-1.24.28-8.9,1.46-9.15.27,1.06-8.34,2.16-16.96,5.72-24.77,4.52,7.46,2.3,16.4,3.43,24.5Z" style="fill:#fff;"/></svg>