<?xml version="1.0" encoding="UTF-8"?><svg id="Layer_1" xmlns="http://www.w3.org/2000/svg" viewBox="0 0 117.28 71.43"><path d="M7.55,7.06v.14c.32-.03.67-.05,1.01-.06h.08c-.04.32-.22.33-.39.35-.54.09-1.19.08-1.75.16v-.68s1.05.08,1.05.08Z" style="fill:#e11c84;"/><path d="M1.05,7.06v.14c-.03.9.15,1.73.56,2.51.26.81.71,1.5,1.35,2.09,1.2,1.1,2.91,2.07,4.6,1.91.36-.03.73-.09,1.09-.06L2.37,5.41l-.03.12.66-1.55-.04.08,1.02-1.32-.05.06,1.32-1.02-.06.04,1.55-.66c-.11.04-.23.05-.35.07l1.73-.23c-1.12.13-2.21.22-3.34.37l8.24,6.27v-.68c-2.17,2.17-4.34,4.34-6.51,6.51l1.05.08c.9.03,1.73-.15,2.51-.56.81-.26,1.5-.71,2.09-1.35.63-.59,1.08-1.29,1.35-2.09.41-.78.59-1.61.56-2.51-.08-1.68-.63-3.43-1.91-4.6l-1.32-1.02c-1.01-.59-2.11-.88-3.28-.89l-1.05-.08c-.9-.03-1.73.15-2.51.56-.81.26-1.5.71-2.09,1.35C.74,3.64,0,5.21,0,6.97v.68c0,1.17.3,2.27.89,3.28.41.76.97,1.37,1.68,1.83.63.58,1.37.96,2.21,1.16,1.15.31,2.31.31,3.46,0l.14-.02-1.73.23c1.1-.12,2.15-.18,3.27-.37.07-.01.14-.02.21-.04.39-.09,1.34-.52,1.68-.72l1.32-1.02c.39-.43.74-.89,1.07-1.38.32-.54.58-1.14.72-1.75.31-1.15.31-2.31,0-3.46-.2-.85-.59-1.58-1.16-2.21-.46-.71-1.07-1.27-1.83-1.68-1.01-.59-2.11-.88-3.28-.89-.35-.03-.73.02-1.09.06l6.51,6.51v-.14c0-1.67-.73-3.42-1.91-4.6-.59-.63-1.29-1.08-2.09-1.35-.78-.41-1.61-.59-2.51-.56-1.68.08-3.43.63-4.6,1.91s-1.91,2.84-1.91,4.6Z" style="fill:#e11c84;"/><path d="M43.83,39.93h.87c.72,0,1.3.58,1.3,1.3v.43c0,.72-.58,1.3-1.3,1.3h-.87c-.72,0-1.3-.58-1.3-1.3v-.43c0-.72.58-1.3,1.3-1.3Z" style="fill:#e11c84;"/><path d="M44.7,41.23v.43h-.87v-.43h.87M44.7,38.63h-.87c-1.44,0-2.6,1.17-2.6,2.6v.43c0,1.44,1.17,2.6,2.6,2.6h.87c1.44,0,2.6-1.17,2.6-2.6v-.43c0-1.44-1.17-2.6-2.6-2.6h0Z" style="fill:#e11c84;"/><path d="M43.83,39.93h.87c.72,0,1.3.58,1.3,1.3v.43c0,.72-.58,1.3-1.3,1.3h-.87c-.72,0-1.3-.58-1.3-1.3v-.43c0-.72.58-1.3,1.3-1.3Z" style="fill:#e11c84;"/><path d="M44.7,41.23v.43h-.87v-.43h.87M44.7,38.63h-.87c-1.44,0-2.6,1.17-2.6,2.6v.43c0,1.44,1.17,2.6,2.6,2.6h.87c1.44,0,2.6-1.17,2.6-2.6v-.43c0-1.44-1.17-2.6-2.6-2.6h0Z" style="fill:#e11c84;"/><path d="M7.75,70.13c-.36,0-1.04-.12-1.63-.93-1.09-1.51-1.6-5.35-1.99-8.83l-.03-.31c-.96-8.47-1.28-17.47-1.48-25.94-.17-7.2-.11-14.57-.06-21.69v-.35c0-.57.38-1.06.92-1.23l.18-.06.06-2.74c-.15-.1-.28-.22-.38-.38-.63-.96-.35-1.71-.19-1.99.11-.21.26-.39.45-.53-.09-1.54-.07-2.69.56-3.37.3-.32.7-.5,1.13-.5.38,0,.75.14,1.1.41.29.22.47.56.5.92l.06.75c.12.08.24.18.34.3.28.32.46.72.53,1.24l5.37.42c.07,0,.14.02.2.03,5.07,1.22,10.25,1.39,14.64,1.39,1.52,0,3.05-.02,4.57-.04h.46c4.95-.07,10.33-.35,17.43-.88,18.47-1.4,37.21-1.91,53.1-2.22h.49c1.5,0,3,.12,4.46.25,1.17.1,2.28.19,3.38.23.02-.01.03-.02.05-.03.25-.14.63-.36,1.13-.36,1.41,0,1.85,1.52,2,2.02.82,2.81.31,5.64-.13,8.13-.19,1.08-.38,2.1-.46,3.09-.08.95-.07,2.02-.06,3.16.01,1.16.02,2.37-.06,3.49-.05.64-.18,1.26-.32,1.87-.12.56-.26,1.19-.23,1.51,0,.1.04.18.06.26.06.22.11.44.13.65l.06.77c.08,1.02.16,2.06.2,2.99.01.32-.03.71-.07,1.13-.01.1-.02.21-.03.3.1.13.2.3.26.51.08.28.06.44-.02,1.34-.04.42-.11,1.28-.1,1.49.01.23.18,2.06.21,2.29.31,1.94.44,3.71.58,5.58.07.93.14,1.89.24,2.91.05.56.12,1.18.2,1.82.26,2.25.56,4.79.33,6.89-.16,1.46-.38,1.95-.7,2.54-.12.22-.22.41-.35.8-.08.25-.17.71-.25,1.11-.07.37-.14.72-.21.98-.48,1.76-1.4,2.12-2.09,2.12-.88,0-1.51-.62-1.9-1.08-.1-.11-.18-.25-.29-.43-.29.04-.55.07-.64.07-8.32.08-16.46,1.08-24.32,2.05-6.47.8-13.03,1.42-19.36,2.02l-2.92.28c-2.01.19-4.01.39-6,.58-11.26,1.11-21.9,2.16-32.99,2.16-1.92,0-3.82-.03-5.66-.1-1.17-.04-2.33-.12-3.49-.19-1.64-.11-3.34-.22-4.99-.22h-.15c-.03.11-.08.23-.13.35-.5,1.08-1.34,1.2-1.68,1.2ZM9.37,62.65c.1.01.21.02.33.02.42,0,.88-.08,1.37-.17.4-.07.81-.15,1.22-.18,3.32-.32,6.85-.47,11.14-.47,2.77,0,5.58.06,8.29.12,2.7.06,5.49.12,8.23.12,1.28,0,2.57-.01,3.85-.05,8.63-.22,17.44-1.42,25.95-2.59,6.9-.94,14.04-1.92,21.09-2.38,5.89-.38,11.25-.58,16.37-.6h1.88c-.02-1.96.04-3.91.09-5.63v-.29c.03-.52.04-.95.04-1.41,0-3.85-.13-7.83-.26-11.68-.21-6.4-.43-13.01-.06-19.34.16-2.69.45-5.39.74-7.99.03-.28.06-.56.09-.84-1.51.14-3.16.24-5.05.3-1.47.05-3.06.07-5,.07-1.23,0-2.46,0-3.7-.02-1.23,0-2.45-.02-3.68-.02-1.31,0-2.62,0-3.91.04-9.84.23-19.95.86-28.55,1.44-7.65.52-16.53,1.07-25.17,1.1h-.17c-2.73,0-5.38-.25-7.93-.49-1.33-.12-2.66-.25-4.02-.34-.89-.06-1.85-.09-2.93-.09-1.02,0-2.03.03-3.04.05-1.02.03-2.03.05-3.05.05-2.26,0-4.08-.13-5.82-.42l-.04,9.22c-.88,13.87-.36,27.3,1.57,41.13.06.42.12.86.15,1.31Z" style="fill:#e11c84;"/><path d="M5.28,2.6c.08,0,.18.04.3.13l.14,1.67c.08-.02.15-.03.21-.03.6,0,.68.83.58,1.74l6.57.52c4.96,1.2,9.95,1.42,14.95,1.42,1.68,0,3.37-.03,5.05-.05,5.79-.08,11.69-.44,17.51-.88,17.66-1.34,35.38-1.87,53.02-2.21.15,0,.31,0,.47,0,2.65,0,5.36.42,7.97.48,0,0,0,0,.01,0,.37,0,.71-.39,1.04-.39.26,0,.5.24.75,1.08,1.06,3.64-.36,7.34-.64,10.75-.16,2.02.04,4.53-.12,6.66-.09,1.23-.62,2.66-.55,3.58.03.35.17.63.19.91.1,1.25.21,2.56.26,3.72.02.48-.17,1.59-.11,1.86.06.24.27.22.31.37.03.12-.19,2.06-.16,2.57.02.26.19,2.21.22,2.4.46,2.87.52,5.4.81,8.42.23,2.45.81,5.91.53,8.44-.23,2.06-.53,1.69-.99,3.07-.19.57-.34,1.61-.49,2.15-.22.82-.51,1.17-.84,1.17-.27,0-.58-.23-.91-.62-.13-.16-.52-.94-.58-.97,0,0-.03,0-.06,0-.24,0-1.12.16-1.29.16-8.23.08-16.25,1.04-24.48,2.06-7.43.91-14.77,1.58-22.24,2.29-13.08,1.25-25.84,2.74-38.87,2.74-1.86,0-3.73-.03-5.61-.1-2.84-.1-5.68-.41-8.53-.41-.3,0-.6,0-.91.01-.62.02-.27.48-.56,1.1-.14.31-.32.44-.5.44-.19,0-.39-.15-.57-.39-1.03-1.43-1.55-6.41-1.79-8.52-.94-8.28-1.27-17.24-1.47-25.82-.17-7.3-.11-14.69-.06-22l1.07-.34.12-5.04-.51-.27-.11.51c-.39-.59-.08-.88.31-.88.06,0,.13,0,.2.02.09-.13-.41-3.51.35-3.51M6.51,7.65c.56-.09,1.2-.07,1.75-.16.17-.03.35-.04.39-.35l-2.13-.17v.68M111.19,7.83c-2.2.27-4.38.4-6.56.47-1.64.05-3.3.07-4.96.07-2.46,0-4.92-.03-7.38-.03-1.32,0-2.64,0-3.95.04-9.52.22-19.16.8-28.61,1.44-8.35.57-16.75,1.07-25.08,1.1-.06,0-.11,0-.17,0-4.06,0-7.85-.55-11.87-.83-1.02-.07-2.03-.09-3.02-.09-2.06,0-4.07.1-6.09.1s-3.93-.09-5.99-.47c-.34-.06-.69-.09-1.03-.09-.03,0-.06,0-.09,0l-.05,10.66c-.89,14.09-.34,27.59,1.59,41.32.1.69.18,1.36.16,2.07.54.29,1.08.38,1.61.38.9,0,1.8-.28,2.71-.36,3.69-.36,7.35-.46,11.01-.46,5.52,0,11.01.24,16.53.24,1.29,0,2.59-.01,3.89-.05,15.71-.4,31.38-3.95,47.09-4.97,5.42-.35,10.85-.57,16.29-.6h3.2c-.06-2.26,0-4.6.07-6.89.02-.68.04-1.18.04-1.74,0-10.25-.91-20.87-.33-30.95.2-3.49.64-6.93,1-10.38M5.28,0h0c-.8,0-1.54.32-2.08.91-.87.93-1,2.17-.93,3.76-.1.13-.19.26-.26.41-.55,1.03-.46,2.24.25,3.33.05.07.1.14.15.2l-.03,1.36c-.68.47-1.11,1.26-1.11,2.11v.33c-.06,7.14-.12,14.52.06,21.75.2,8.5.52,17.54,1.49,26.05l.03.31c.54,4.77,1.07,7.84,2.23,9.44.69.95,1.64,1.47,2.68,1.47s2.05-.57,2.64-1.54c1.38.02,2.77.11,4.23.21,1.15.08,2.34.15,3.53.2,1.85.06,3.77.1,5.7.1,11.16,0,22.33-1.1,33.13-2.16,1.99-.2,3.99-.39,5.99-.58l2.89-.27c6.35-.6,12.93-1.22,19.43-2.02,7.83-.97,15.93-1.96,24.18-2.04,0,0,0,0,0,0,.85.95,1.79,1.44,2.81,1.44.75,0,2.59-.3,3.35-3.08.09-.32.16-.68.23-1.07.06-.31.15-.78.21-.95.09-.28.16-.4.26-.59.43-.79.68-1.48.85-3.02.24-2.24-.06-4.87-.33-7.18-.07-.63-.14-1.24-.2-1.79-.1-1-.17-1.95-.23-2.88-.14-1.89-.27-3.68-.59-5.68-.04-.32-.18-1.96-.2-2.19,0-.17.06-.93.09-1.29.09-1,.11-1.3-.02-1.8-.04-.14-.09-.3-.17-.47.04-.41.08-.82.06-1.2-.04-.97-.13-2.03-.21-3.05l-.06-.75c-.03-.39-.11-.7-.17-.9,0-.02,0-.03-.01-.05.01-.21.13-.74.21-1.09.13-.62.29-1.33.34-2.05.09-1.18.08-2.41.07-3.6,0-1.11-.02-2.16.05-3.05.07-.92.25-1.91.44-2.96.47-2.63,1.01-5.61.1-8.72-.75-2.57-2.36-2.96-3.25-2.96-.64,0-1.16.2-1.5.38-.95-.04-1.93-.12-2.96-.21-1.48-.12-3.02-.25-4.57-.25-.17,0-.34,0-.52,0-15.91.31-34.66.81-53.17,2.22-7.08.54-12.43.81-17.35.87h-.47c-1.52.03-3.03.05-4.55.05-4.32,0-9.4-.16-14.34-1.35-.13-.03-.27-.05-.41-.06l-4.47-.35c-.13-.31-.31-.6-.56-.88-.02-.02-.04-.04-.05-.06l-.02-.23c-.06-.73-.42-1.4-1-1.84-.72-.56-1.43-.68-1.9-.68h0ZM99.66,10.97c1.96,0,3.56-.02,5.05-.07,1.28-.04,2.45-.1,3.55-.18-.26,2.39-.52,4.86-.67,7.33-.37,6.39-.15,13.04.06,19.47.13,3.84.26,7.81.26,11.63,0,.44-.01.85-.03,1.35v.3c-.05,1.42-.09,2.89-.1,4.37h-.57c-5.15.02-10.53.22-16.46.6-7.09.46-14.25,1.44-21.17,2.38-8.48,1.16-17.25,2.36-25.81,2.58-1.2.03-2.45.05-3.82.05-2.73,0-5.51-.06-8.21-.12-2.72-.06-5.53-.12-8.32-.12-4.32,0-7.9.15-11.26.47-.48.05-.93.13-1.32.2-.1.02-.2.04-.3.05,0-.04-.01-.08-.02-.12-1.92-13.74-2.44-27.09-1.57-40.79,0-.05,0-.1,0-.15l.03-7.74c1.37.15,2.82.23,4.52.23,1.04,0,2.08-.03,3.09-.05.99-.02,2-.05,3.01-.05,1.05,0,1.98.03,2.84.09,1.34.09,2.68.22,3.99.34,2.59.24,5.26.49,8.05.49h.18c8.69-.03,17.59-.59,25.25-1.11,8.58-.58,18.68-1.21,28.49-1.44,1.16-.03,2.4-.04,3.88-.04,1.22,0,2.44,0,3.67.02,1.24,0,2.47.02,3.71.02h0Z" style="fill:#e11c84;"/><path d="M9.7,65.27c-.81,0-1.54-.17-2.22-.53-.44-.23-.71-.69-.69-1.19.02-.63-.06-1.23-.14-1.85-1.96-14.01-2.48-27.61-1.6-41.58l.05-10.58c0-.71.57-1.28,1.28-1.3,0,0,.11,0,.12,0,.42,0,.85.04,1.26.11,1.7.31,3.48.45,5.76.45,1,0,1.99-.02,2.99-.05,1.03-.03,2.06-.05,3.1-.05,1.14,0,2.16.03,3.11.1,1.38.09,2.74.22,4.08.35,2.61.24,5.08.48,7.69.48h.16c8.56-.03,17.4-.58,25-1.1,8.63-.58,18.78-1.21,28.67-1.44,1.32-.03,2.65-.04,3.97-.04,1.23,0,2.46,0,3.7.02,1.23,0,2.46.02,3.68.02h0c1.91,0,3.48-.02,4.92-.07,2.52-.08,4.56-.23,6.45-.46.05,0,.11,0,.16,0,.34,0,.67.13.91.37.28.28.42.67.38,1.06-.09.82-.18,1.64-.27,2.46-.28,2.57-.58,5.23-.73,7.86-.36,6.21-.14,12.77.07,19.11.13,3.87.26,7.87.26,11.76,0,.49-.01.94-.03,1.5v.28c-.07,2.07-.14,4.48-.08,6.83,0,.35-.12.69-.37.94-.25.25-.58.39-.93.39,0,0-3.2,0-3.2,0-5.06.02-10.36.21-16.2.59-6.96.45-14.05,1.42-20.9,2.36-8.58,1.17-17.46,2.39-26.24,2.61-1.31.03-2.61.05-3.92.05-2.77,0-5.58-.06-8.29-.12-2.7-.06-5.49-.12-8.23-.12-4.2,0-7.65.14-10.89.46-.33.03-.67.09-1,.16-.58.11-1.18.22-1.83.22Z" style="fill:#e11c84;"/><path d="M111.19,7.83c-.36,3.45-.8,6.89-1,10.38-.58,10.08.33,20.7.33,30.95,0,.55-.02,1.06-.04,1.74-.07,2.29-.13,4.63-.07,6.9h-3.2c-5.44.01-10.87.24-16.29.59-15.71,1.02-31.38,4.56-47.09,4.97-1.3.03-2.59.05-3.89.05-5.52,0-11.01-.24-16.53-.24-3.65,0-7.32.11-11.01.46-.91.09-1.8.36-2.71.36-.53,0-1.07-.1-1.61-.38.02-.71-.06-1.38-.16-2.07-1.92-13.73-2.48-27.23-1.59-41.32l.05-10.66s.06,0,.09,0c.34,0,.69.03,1.03.09,2.06.37,4.03.47,5.99.47s4.03-.1,6.09-.1c.99,0,2,.02,3.02.09,4.01.27,7.8.83,11.87.83.06,0,.11,0,.17,0,8.33-.03,16.74-.54,25.08-1.1,9.44-.64,19.09-1.22,28.61-1.44,1.31-.03,2.62-.04,3.94-.04,2.45,0,4.92.03,7.38.03,1.66,0,3.32-.02,4.96-.07,2.18-.07,4.37-.2,6.56-.47M111.19,5.23c-.11,0-.21,0-.32.02-1.84.23-3.85.37-6.33.45-1.43.05-2.98.07-4.88.07-1.22,0-2.45,0-3.67-.02-1.24,0-2.47-.02-3.71-.02-1.53,0-2.8.01-4.01.04-9.91.23-20.08.86-28.72,1.45-7.58.51-16.38,1.06-24.92,1.1h-.16c-2.55,0-4.99-.23-7.57-.47-1.34-.12-2.72-.25-4.12-.35-.98-.07-2.03-.1-3.2-.1-1.07,0-2.12.03-3.14.05-1.02.03-1.98.05-2.96.05-2.2,0-3.9-.13-5.53-.43-.49-.09-.99-.13-1.49-.13h-.14c-1.42.02-2.55,1.18-2.56,2.59l-.05,10.58c-.89,14.03-.36,27.7,1.61,41.77.08.56.15,1.11.13,1.63-.03.99.51,1.91,1.39,2.38.87.46,1.79.68,2.82.68.77,0,1.46-.13,2.07-.24.32-.06.63-.11.89-.14,3.19-.31,6.61-.45,10.76-.45,2.73,0,5.51.06,8.2.12,2.72.06,5.53.12,8.32.12,1.41,0,2.71-.02,3.96-.05,8.85-.23,17.76-1.44,26.38-2.62,6.83-.93,13.9-1.9,20.8-2.35,5.83-.38,11.1-.57,16.13-.59h3.18s0,0,0,0c.7,0,1.37-.28,1.86-.78.49-.5.76-1.18.74-1.88-.05-2.09-.01-4.21.07-6.75v-.3c.03-.56.04-1.02.04-1.52,0-3.91-.13-7.92-.26-11.8-.21-6.31-.43-12.84-.07-18.99.15-2.59.44-5.22.72-7.77.09-.83.18-1.66.27-2.49.08-.79-.2-1.57-.77-2.13-.49-.48-1.15-.75-1.82-.75h0ZM111.19,10.43h0,0Z" style="fill:#e11c84;"/><path d="M7.55,8.5c-.32,0-.63-.12-.87-.34-.27-.25-.43-.6-.43-.97v-.62c0-.36.15-.7.41-.94.24-.23.56-.36.9-.36.02,0,3.03.16,3.03.16.38.02.73.2.96.5.23.3.32.69.24,1.06-.09.45-.43,1.21-1.64,1.34-.45.05-.9.07-1.36.09-.38.02-.76.03-1.11.07-.04,0-.09,0-.13,0Z" style="fill:#e11c84;"/><path d="M7.55,6.58l2.96.16c-.06.28-.31.29-.54.32-.76.08-1.65.07-2.42.15v-.62M7.55,3.98c-.66,0-1.31.25-1.79.71-.52.49-.81,1.17-.81,1.89v.62c0,.74.31,1.44.86,1.93.48.43,1.1.67,1.74.67.09,0,.18,0,.26-.01.3-.03.65-.04,1.03-.06.46-.02.94-.04,1.41-.09,2.19-.23,2.7-1.88,2.8-2.37.15-.74-.02-1.52-.49-2.12-.46-.6-1.17-.97-1.92-1.01l-2.96-.16s-.09,0-.14,0h0Z" style="fill:#e11c84;"/><path d="M51.06,53.09c-.99,0-2.05-.49-2.91-1.36-.18-.18-.3-.41-.35-.66-.4-1.94-.31-3.84-.22-5.68.04-.79.07-1.57.07-2.35v-.96c0-2.36-.02-4.81-.26-7.14-.02-.23.01-.46.1-.66-.06-.54.05-1.06.13-1.46.04-.2.08-.39.09-.56.04-1.06.06-2.13.08-3.21.04-2.2.07-4.48.31-6.71.21-2.01.63-4,1.04-5.92.11-.54.23-1.08.34-1.62.02-.1.05-.19.09-.28.47-1.05,1.25-1.58,2.31-1.58.24,0,.49.03.77.06.13.02.26.03.41.05.21.02.41.08.59.2,1.11.7,1.12,2.32.58,7.18-.06.57-.13,1.17-.13,1.34,0,.28.04.57.09.88.05.34.11.69.11,1.08v2.64c.09-.08.19-.16.29-.24.19-.16.42-.35.58-.5.06-.28.17-.65.46-1.02.24-.31.51-.49.75-.62.04-.27.16-.52.35-.72.22-.22.5-.36.8-.39.52-.74,1.97-2.28,2.65-2.67.3-.17.59-.23.81-.28,0,0,0,0,0,0,.13-.26.32-.64.69-.99.4-.38.82-.62,1.28-.7.16-.16.35-.28.57-.36.66-.24,1.11-.33,1.56-.33.37,0,.67.07.97.13.12.03.26.06.43.09h.08c.13-.02.28-.03.42-.03.91,0,1.62.48,1.9,1.29.25.72.2,1.4-.12,1.91.05.27.07.57-.02.92-.27,1.04-3.06,3.39-3.18,3.49-.72.61-1.46,1.21-2.19,1.8-1.56,1.26-3.17,2.57-4.62,3.98-.05.05-.17.18-.31.34l1.64,1.13c.16.11.3.26.39.43.47.83,1.15,1.54,1.98,2.06.33.21.54.54.59.9.24.23.39.47.48.62.02.03.03.06.05.08.54.12.94.56,1.02,1.09l.13.05c.34.12.61.38.75.7.31.26.54.62.68,1.1,0,.01,0,.02,0,.03.01,0,.02.02.03.02.16.11.39.28.58.52.33.15.59.45.7.81.26.89.98,1.88,1.68,2.83.29.4.59.82.87,1.23.26.14.45.33.58.58.29.58.17,1.23-.05,2.17,0,0,0,.02,0,.03.09.2.16.47.13.79-.05.62-.59,2.08-1.44,2.64-.58.38-1.16.57-1.74.57-.99,0-1.71-.54-2.28-.97-.27-.2-.52-.39-.78-.52-.35-.18-.6-.5-.68-.88-.06-.19-.57-.59-.81-.78-.25-.2-.48-.39-.64-.56-.33-.35-.43-.76-.46-1.11-.17-.08-.34-.2-.5-.39-.26-.31-.34-.67-.43-1.04-.03-.12-.05-.26-.09-.36-.24-.43-.67-.9-1.09-1.36-.28-.31-.54-.6-.77-.9-.03-.02-.06-.04-.09-.05-.45-.26-.72-.56-.87-.87-.03-.03-.06-.07-.09-.11-.3-.37-.62-.73-.94-1.09-.82-.92-1.67-1.87-2.25-3.06,0,1.08-.06,2.26-.1,3.32l-.05,1.16c-.13,3.32-.32,6.94-.77,8.55-.39,1.41-1.41,2.25-2.72,2.25Z" style="fill:#e11c84;"/><path d="M51.87,14.24c.31,0,.66.07,1.07.1.79.5-.14,6.43-.16,7.4-.01.74.2,1.37.2,1.98v6.72c.27-.15.56-.73.69-1.01.14-.29,0-.57.02-.58.02-.01.05-.02.09-.02.04,0,.08,0,.12,0,.1,0,.22-.02.33-.12.18-.18.27-.71.45-.94.34-.43,1.23-.97,1.62-1.51.13-.17.05-.52.31-.85.43-.55,1.26-.27,1-1.24l.71.18c0-.23.05-.45.17-.64.31-.52,1.8-2.09,2.28-2.37.3-.17.77-.14,1.05-.39.25-.22.31-.7.71-1.08.35-.34.61-.38.8-.38.07,0,.12,0,.18,0s.1,0,.14-.03c.06-.03.06-.3.27-.37.53-.19.85-.26,1.12-.26.36,0,.65.11,1.26.22.03,0,.07,0,.11,0,.15,0,.34-.03.53-.03.28,0,.55.07.67.42.33.93-.33,1-.34,1.07-.03.29.27.61.16,1.01-.11.42-2.26,2.41-2.75,2.82-2.31,1.94-4.71,3.74-6.88,5.84-.18.18-1.29,1.45-1.26,1.57l2.76,1.9c.59,1.04,1.43,1.9,2.42,2.52l-.17.52c.97.04.69,1.09,1.72,1.25l-.09.7,1.06.39-.18.35c.92,0,.67.62,1.01,1.07.25.32.96.52.6.91l.52.02c.48,1.63,1.96,3.2,2.89,4.69.08.12.3.13.32.17.15.29-.21,1.45-.24,1.74-.02.21.21.34.19.56-.04.42-.48,1.41-.86,1.66-.39.25-.72.36-1.02.36-.88,0-1.51-.86-2.47-1.35-.19-.87-1.33-1.49-1.79-1.97-.19-.2-.06-.88-.21-1.09-.19-.26-.56-.19-.7-.34-.13-.15-.18-.83-.36-1.16-.53-.96-1.5-1.8-1.99-2.47-.35-.49-1.11-.4-.73-1.16l-.32.14c-1.16-1.44-2.62-2.68-3.28-4.47l-1.69-2.13-.62.28c-.44.5.08,1.79.08,2.42.02,1.54-.09,3.37-.15,4.89-.08,2-.25,6.64-.73,8.35-.26.94-.83,1.3-1.47,1.3s-1.42-.4-1.99-.97c-.53-2.58-.11-5.19-.12-7.78-.01-2.69.02-5.51-.27-8.23l.34-.08c-.53-.63-.04-1.64-.01-2.43.12-3.22.04-6.58.38-9.83.26-2.5.86-4.96,1.36-7.42.3-.66.67-.81,1.13-.81M51.87,11.63h0c-1.57,0-2.81.83-3.5,2.34-.08.18-.14.36-.18.55-.11.54-.22,1.07-.34,1.61-.41,1.95-.84,3.97-1.06,6.05-.24,2.28-.28,4.59-.31,6.82-.02,1.1-.04,2.14-.08,3.18,0,.05-.04.23-.07.36-.07.36-.18.91-.16,1.53-.09.31-.12.65-.09.99.24,2.27.24,4.68.25,7.01v.96c0,.74-.03,1.49-.07,2.28-.09,1.92-.18,3.91.25,6,.1.5.35.95.71,1.31,1.1,1.11,2.5,1.74,3.83,1.74,1.9,0,3.42-1.23,3.97-3.2.49-1.74.68-5.28.82-8.84v-.12s.03-.62.03-.62c.04.04.07.08.11.12.32.36.62.7.89,1.03,0,0,.02.02.02.03.25.43.62.83,1.17,1.17.22.27.45.53.68.78.3.33.64.71.85,1.02,0,.04.02.08.03.12.1.43.23,1.03.7,1.58.1.12.21.23.32.32.11.4.32.84.7,1.24.25.26.51.47.77.67.13.1.33.26.44.37.22.62.68,1.14,1.27,1.44.16.08.36.23.58.4.65.49,1.64,1.23,3.06,1.23.83,0,1.66-.26,2.45-.78,1.19-.78,1.94-2.6,2.03-3.62.03-.37-.01-.69-.08-.96.19-.86.33-1.8-.14-2.73-.15-.3-.4-.66-.82-.95-.24-.35-.49-.7-.74-1.03-.63-.87-1.29-1.76-1.49-2.44-.18-.62-.59-1.14-1.12-1.47-.12-.13-.24-.24-.35-.33-.2-.48-.45-.85-.74-1.13-.21-.36-.51-.66-.86-.88-.25-.53-.68-.97-1.23-1.23-.06-.09-.13-.18-.21-.28-.19-.54-.56-1.03-1.08-1.35-.64-.4-1.17-.95-1.53-1.6-.19-.34-.46-.64-.79-.86l-.34-.24c1.16-1.06,2.41-2.07,3.72-3.13.74-.6,1.48-1.2,2.2-1.81,2.14-1.8,3.35-3.2,3.6-4.16.1-.37.12-.72.1-1.02.31-.76.33-1.66.01-2.57-.47-1.33-1.66-2.16-3.13-2.16-.14,0-.29,0-.43.02-.08-.02-.16-.03-.22-.05-.33-.07-.74-.16-1.25-.16-.76,0-1.44.21-2,.41-.2.07-.46.19-.73.39-.57.17-1.1.49-1.58.96-.29.28-.5.56-.66.82-.18.06-.38.15-.58.26-.76.43-2.02,1.72-2.76,2.64-.36.13-.7.34-.97.62-.1.11-.2.22-.28.34-.01-.08-.03-.16-.04-.24-.04-.26-.08-.48-.07-.65,0-.15.07-.75.12-1.23.54-4.85.71-7.23-1.18-8.42-.36-.22-.76-.36-1.18-.39-.12,0-.24-.03-.35-.04-.27-.03-.58-.07-.93-.07h0Z" style="fill:#e11c84;"/><path d="M91.8,54.29c-.28,0-.6,0-.92-.18-.34-.19-.5-.48-.58-.66l-.04-.03c-1.62-1.02-3.16-1.98-4.21-4.11-1.68-3.41-3.34-10.66-2.97-14.91.27-3.07.68-5.3,1.42-7.7.03-.12.05-.28.07-.46.07-.52.14-1.06.4-1.52.12-.21.28-.39.48-.52.89-2.16,4.44-5.43,6.18-6.22.53-.24,1.25-.37,2.12-.37,1.83,0,5.11.62,6.35,1.96.19.2.83,1.22.86,1.29.26.47.89,1.92,1.07,2.46,1.52,4.54.49,9.84-.43,14.52-.14.71-.27,1.4-.39,2.07-.08.44-.14.89-.19,1.35-.1.81-.2,1.64-.42,2.45-.26.98-.66,1.88-1.05,2.75-.39.88-.75,1.71-.96,2.55-.21.88-2.97,4.16-3.38,4.48-.37.29-1.21.61-1.53.69-.37.09-1.87.1-1.88.1ZM92.51,23.2c-.56.8-1.65,2.87-1.86,3.42-1.34,3.45-1.22,8.15-.66,11.4.51,2.94.95,5.1,2.19,7.14.07-.11.11-.22.19-.43.08-.2.17-.43.32-.74,1.22-2.61,1.4-3.67,1.81-5.99.07-.42.15-.88.25-1.39.1-.53.24-1.06.38-1.58.14-.52.27-1.01.35-1.49.09-.52.14-1.03.19-1.53.09-.92.19-1.87.48-2.8.24-.76-.04-3.29-.47-4.23-.17-.37-.38-.74-.55-.98-.17,0-.38-.05-.54-.11-.16-.07-.34-.19-.5-.37-.53-.17-1.07-.27-1.59-.3Z" style="fill:#e11c84;"/><path d="M93.75,18.91c1.93,0,4.6.69,5.39,1.55.05.06.61.91.68,1.03.22.39.81,1.76.97,2.25,1.63,4.88.04,10.97-.87,15.94-.22,1.19-.27,2.52-.59,3.7-.49,1.84-1.57,3.49-2.01,5.33-.1.42-2.54,3.46-2.92,3.76-.16.12-.8.39-1.02.45-.1.02-1.09.07-1.59.07-.15,0-.26,0-.28-.02-.04-.03-.09-.35-.31-.49-1.7-1.07-3.06-1.85-4-3.75-1.68-3.4-3.18-10.42-2.84-14.22.24-2.72.61-4.95,1.37-7.44.13-.42.14-1.33.36-1.72.06-.1.15-.13.25-.13.07,0,.15.01.2.01.03,0,.06,0,.08-.02.02-.01-.09-.23-.05-.35.54-1.71,4.01-4.99,5.58-5.71.38-.17.94-.25,1.58-.25M92.21,47.81c.83-.15.67-1.44.82-1.62.46-.58.44-.81.83-1.65,1.52-3.25,1.54-4.32,2.16-7.69.19-1.03.56-2.06.74-3.09.25-1.46.23-2.87.63-4.17.36-1.16,0-4.01-.52-5.15-.22-.48-.8-1.58-1.26-1.79-.04-.02-.08-.02-.12-.02-.12,0-.24.07-.33.07-.02,0-.03,0-.05,0-.04-.02-.04-.21-.07-.22-.88-.35-1.85-.57-2.81-.57-.09,0-.17,0-.26,0-.49.14-2.27,3.57-2.53,4.25-1.4,3.59-1.37,8.39-.73,12.1.55,3.19,1.06,5.77,2.79,8.27.24.35.53.91.72,1.3M93.75,16.31h0c-1.08,0-1.95.16-2.66.49-1.87.85-5.44,4.07-6.68,6.57-.22.2-.41.44-.56.71-.38.67-.48,1.4-.56,1.98-.01.11-.03.21-.04.3-.76,2.48-1.18,4.78-1.46,7.92-.4,4.53,1.31,11.97,3.1,15.6,1.16,2.35,2.82,3.46,4.45,4.48.24.37.54.65.91.86.62.35,1.21.35,1.56.35.02,0,1.62,0,2.18-.14.4-.09,1.44-.47,2.02-.92.44-.34,3.52-3.82,3.85-5.21.18-.73.52-1.5.88-2.33.41-.92.82-1.86,1.11-2.94.24-.9.36-1.82.46-2.63.06-.46.11-.89.18-1.28.12-.67.26-1.35.39-2.05.94-4.83,2.01-10.31.38-15.18-.21-.61-.87-2.14-1.16-2.67,0-.01-.71-1.18-1.05-1.55-1.6-1.73-5.33-2.38-7.3-2.38h0ZM93.68,23.8h0,0ZM92.16,41.92c-.37-1.2-.62-2.54-.9-4.13-.53-3.08-.66-7.5.59-10.71.16-.39.8-1.63,1.31-2.49.08.02.17.04.25.06.25.21.5.34.66.41.08.03.16.06.24.09.06.11.12.23.17.35.29.64.54,2.72.4,3.33-.32,1.03-.42,2.05-.52,3.03-.05.51-.1.98-.18,1.45-.07.41-.19.88-.33,1.37-.14.53-.29,1.09-.4,1.69-.1.52-.18.98-.25,1.41-.3,1.73-.47,2.69-1.05,4.14h0Z" style="fill:#e11c84;"/><path d="M75.51,58.05c-.25,0-.48-.05-.7-.16-.21-.1-.38-.25-.5-.44-.24-.08-.5-.2-.76-.41-1.36-1.13-1.52-3.6-1.2-4.92.09-.38.25-.72.39-1.01.1-.2.21-.43.23-.55,0-.11-.04-.53-.07-.78-.05-.45-.09-.88-.07-1.24.12-1.82.48-3.42.84-4.97.26-1.13.5-2.2.66-3.37.05-.37.09-.73.12-1.07.11-1.07.22-2.09.65-3.14.04-.2.09-1.24.05-1.53-.06-.37.04-.77.28-1.06.11-.14.25-.26.41-.34.06-.1.12-.19.21-.29,0-.49.07-.88.18-1.2-.05-.27-.01-.56.11-.82.06-.13.15-.24.24-.34,0-.19,0-.4.07-.62.36-1.23,1.09-2.76,1.5-3.57.07-.13.15-.24.23-.33,0-.17.01-.37.06-.58l-.1-.08c-.37-.3-.58-.48-.73-.64-.5-.55-1.01-1.15-1.52-1.76-.9-1.06-1.83-2.17-2.76-3.01-.19-.17-.6-.44-.96-.67-.55-.36-1.08-.7-1.44-1.07-.02-.03-2.49-2.64-2.06-4.48.06-.26.2-.5.41-.68.59-.52,1.35-.79,2.19-.79,1.32,0,2.62.65,3.47,1.19,1.67,1.06,3.26,2.1,3.9,2.75.34.35.76.68,1.21,1.04.47.38.96.77,1.39,1.21.1-.29.18-.53.23-.64l.14-.32c.39-.91.87-2.04,1.35-2.99.26-.53.56-1.02.85-1.49.35-.57.68-1.11.91-1.66.05-.11.11-.22.19-.31.51-.63,1.32-.96,2.35-.96.24,0,.47.02.67.05.08.01.16.03.23.05,1.95.65,1.09,3.4.46,5.41l-.1.32c-.53,1.84-1.1,3.67-1.68,5.51-.69,2.2-1.4,4.47-2.01,6.7-.2.71-.65,1.69-1.12,2.74-.34.75-.87,1.9-.92,2.22-.33,1.93-.73,3.97-1.12,5.93-.37,1.88-.76,3.83-1.08,5.69-.19,1.12-.34,2.28-.5,3.5-.23,1.8-.47,3.66-.87,5.41,0,.02-.68,2.32-.93,2.7-.35.55-1.89,1.85-3,1.85Z" style="fill:#e11c84;"/><path d="M87.48,11.26c.17,0,.34.01.49.03.84.28-.27,3.43-.47,4.13-1.17,4.08-2.57,8.14-3.7,12.23-.35,1.27-1.91,4.14-2.07,5.08-.64,3.76-1.54,7.8-2.2,11.62-.49,2.86-.71,6.01-1.35,8.85-.04.19-.69,2.18-.75,2.28-.23.36-1.41,1.25-1.91,1.25-.05,0-.09,0-.12-.02-.09-.51-.62-.37-1.01-.69-.84-.69-1.01-2.6-.77-3.61.13-.55.55-1.1.64-1.67.07-.45-.16-1.61-.12-2.14.19-2.98,1.1-5.37,1.49-8.25.2-1.46.19-2.7.69-3.89.14-.34.22-1.87.12-2.28l.52-.02c-.19-.56.35-.74.37-.83.12-.46-.18-1.62.54-1.67l-.35-.35s.06,0,.08,0c.53,0,.22-.86.32-1.18.28-.98.88-2.3,1.41-3.34.07-.14.31-.15.33-.27.11-.52-.1-1.01.35-1.55-.03-.16-1.19-1.02-1.42-1.27-1.42-1.55-2.84-3.47-4.37-4.86-.57-.51-1.84-1.18-2.34-1.69-.57-.59-1.92-2.43-1.72-3.27.38-.34.84-.47,1.33-.47.97,0,2.03.51,2.77.99.85.54,3.03,1.92,3.67,2.57.82.84,1.96,1.55,2.74,2.4.2.21.38.75.45.81,0,0,0,0,.01,0,.05,0,.21-.13.27-.13,0,0,.01,0,.02,0,.12.08.11.51.4.51.02,0,.05,0,.08,0,.27-.06.82-2.01.98-2.37.41-.95.94-2.21,1.46-3.25.55-1.1,1.31-2.09,1.79-3.22.3-.37.84-.48,1.34-.48M87.48,8.66c-1.42,0-2.61.51-3.36,1.44-.15.19-.28.4-.37.62-.2.47-.5.96-.82,1.49-.3.5-.62,1.01-.91,1.59-.37.75-.74,1.59-1.07,2.35-.02-.01-.03-.03-.05-.04-.42-.33-.81-.65-1.09-.94-.69-.71-2.13-1.68-4.09-2.92-1.04-.66-2.57-1.42-4.21-1.42-1.17,0-2.22.39-3.05,1.12-.41.36-.69.83-.81,1.36-.61,2.59,2.28,5.56,2.4,5.68.46.47,1.07.86,1.65,1.25.27.17.67.44.79.55.87.78,1.77,1.85,2.64,2.88.51.6,1.03,1.22,1.56,1.8.08.09.17.18.28.28-.44.87-1.16,2.4-1.54,3.69-.05.18-.08.35-.1.51-.05.07-.09.15-.13.23-.2.41-.29.85-.27,1.28-.06.22-.1.47-.13.73-.15.12-.29.26-.41.42-.45.58-.63,1.32-.51,2.04.01.23-.01.77-.05,1.05-.44,1.15-.55,2.24-.66,3.3-.03.33-.07.67-.12,1.03-.15,1.11-.39,2.15-.64,3.26-.37,1.6-.74,3.25-.87,5.18-.03.47.02.97.08,1.45.01.13.03.31.05.45-.03.06-.06.13-.09.18-.16.33-.36.75-.48,1.26-.38,1.57-.28,4.65,1.64,6.23.28.23.56.39.8.5.2.21.44.38.71.52.4.2.83.3,1.28.3,1.78,0,3.65-1.76,4.1-2.45.4-.63,1.09-3.09,1.1-3.11.41-1.81.65-3.7.89-5.52.16-1.21.3-2.35.49-3.45.32-1.85.7-3.79,1.08-5.67.39-1.96.79-3.98,1.12-5.92.09-.33.54-1.3.83-1.94.5-1.09.97-2.12,1.19-2.93.61-2.21,1.32-4.47,2-6.66.57-1.81,1.15-3.68,1.69-5.54.02-.07.05-.17.09-.29.65-2.09,1.87-5.98-1.3-7.03-.15-.05-.31-.09-.47-.11-.28-.04-.57-.06-.85-.06h0Z" style="fill:#e11c84;"/><path d="M40.55,51.76c-2.72-.31-5.06-1.67-6.96-4.05-.02-.03-.05-.06-.07-.09-2.35-3.55-3.21-7.41-2.72-12.14.34-3.23,1.34-5.77,2.39-8.45.22-.57.45-1.15.68-1.75.96-2.53,3.24-4.11,5.95-4.11,1.01,0,2.02.21,3.02.62,2.44,1.02,4.38,3.29,4.93,5.79.9,4.08.51,8.01-.05,11.66-.54,3.5-1.44,9.35-4.98,11.7-.55.37-1.35.81-1.99.83-.02,0-.03,0-.05,0-.05,0-.1,0-.15,0ZM39.35,44.79c.03-.2.11-.41.27-.62q.98-1.25,1.08-2.04c.04-.35.1-.81.22-1.44l.03-.18c.65-3.52,1.25-6.84.84-10.34-.03-.2-.27-1.37-.41-1.97-.44-.31-1.3-.85-1.72-1.08-.53.17-1.63,1.24-1.89,1.86-1.36,3.28-2.05,8.58-.74,12.36.27.77.67,1.28,1.13,1.86.27.34.54.69.8,1.08.06.09.12.21.17.37.07.05.15.1.23.15Z" style="fill:#e11c84;"/><path d="M39.82,22.47c.82,0,1.67.17,2.52.52,2.03.85,3.69,2.74,4.16,4.87.83,3.75.5,7.46-.07,11.18-.52,3.4-1.37,8.79-4.41,10.81-.3.2-.99.61-1.32.62-2.52-.29-4.54-1.62-6.09-3.57-2.3-3.48-2.95-7.12-2.51-11.29.39-3.73,1.74-6.55,2.99-9.87.81-2.15,2.65-3.27,4.73-3.27M39.63,46.39c.5,0,.71-.51,1.01-.97.09-.13-.04-.39,0-.45,1.59-2.03,1.1-1.56,1.56-4.06.67-3.64,1.33-7.16.88-10.91-.03-.25-.49-2.46-.56-2.57-.11-.17-2.33-1.59-2.6-1.63-.05,0-.11-.01-.17-.01-1.15,0-2.79,1.74-3.18,2.68-1.55,3.73-2.13,9.36-.77,13.28.51,1.47,1.37,2.15,2.06,3.22.04.06-.14.25-.11.29.06.08,1.59,1.08,1.68,1.11.07.01.13.02.18.02M39.82,19.87h0c-3.27,0-6.01,1.9-7.17,4.95-.22.59-.45,1.16-.67,1.73-1.04,2.65-2.12,5.38-2.48,8.79-.53,5.05.4,9.18,2.93,13,.04.06.09.13.14.19,2.09,2.62,4.8,4.19,7.83,4.53.1.01.19.02.29.02.03,0,.07,0,.1,0,.28-.01,1.14-.04,2.66-1.05,4.01-2.66,4.97-8.87,5.55-12.58.58-3.77.99-7.85.04-12.14-.65-2.95-2.84-5.52-5.7-6.71-1.15-.48-2.34-.72-3.52-.72h0ZM39.27,42.49s-.05-.07-.08-.1c-.44-.55-.73-.91-.92-1.48-1.05-3.01-.74-7.93.71-11.43.1-.19.41-.56.72-.82.18.11.36.23.53.34.12.53.25,1.16.28,1.37.39,3.29-.21,6.51-.83,9.92l-.03.18c-.12.68-.19,1.16-.23,1.51-.02.13-.04.29-.05.38-.02.04-.05.09-.09.14h0Z" style="fill:#e11c84;"/><path d="M23.75,55.19c-.17,0-.35-.02-.52-.06-.78-.18-1.96-1.27-2.15-2.16-.48-2.33-.47-4.69-.46-6.97,0-.5,0-1,0-1.49-.04-5.6.23-11.29.48-16.79l.03-.69-8.36,4.53c-.19.1-.4.16-.62.16-.06,0-.13,0-.19-.01-1.31-.2-2.21-.89-2.47-1.9-.26-1.01.2-2.09,1.24-2.89.82-.63,2.01-1.33,3.16-2.01.49-.29.95-.56,1.34-.8,4.87-3.02,10.1-5.46,15.48-7.9,1.23-.56,3.04-1.3,4.49-1.3.85,0,1.53.25,2.02.73,1.06,1.06.51,3.22-.2,3.99-.45.49-1.57,1.08-4.61,2.42l-.43.19c-.14.06-.3.1-.46.11h-.19c-1.09.69-2.25,1.13-3.37,1.55-.56.21-1.1.41-1.62.64.03.26.06.52.1.79.07.52.14,1.04.17,1.56.23,3.95.1,8.06-.02,12.05-.06,1.88-.11,3.74-.13,5.58,0,.7.03,1.41.07,2.16.06,1.15.12,2.34.02,3.55v.16c-.13,1.44-.39,4.82-2.81,4.82Z" style="fill:#e11c84;"/><path d="M35.2,16.19c.46,0,.85.1,1.1.36.42.42.13,1.78-.24,2.19-.46.51-3.75,1.91-4.6,2.29l-.54.03c-1.82,1.24-4,1.66-5.93,2.67.03,1.07.27,2.15.33,3.22.33,5.72-.09,11.76-.15,17.54-.02,1.84.25,3.74.09,5.61-.07.87-.23,3.78-1.51,3.78-.07,0-.14,0-.22-.03-.35-.08-1.1-.81-1.17-1.16-.56-2.69-.42-5.52-.43-8.21-.04-6.2.28-12.45.56-18.63.02-.41.18-.75.19-1.16l-10.52,5.71c-1.65-.25-1.9-1.5-.63-2.48,1.1-.85,3.11-1.94,4.39-2.73,4.84-3.01,10.17-5.48,15.33-7.82.81-.37,2.65-1.19,3.96-1.19M35.2,13.59h0c-1.69,0-3.57.76-5.03,1.42-5.42,2.46-10.7,4.92-15.63,7.98-.39.24-.84.51-1.32.79-1.18.7-2.41,1.42-3.29,2.1-1.46,1.13-2.1,2.72-1.7,4.25.4,1.52,1.72,2.59,3.54,2.86.13.02.26.03.38.03.43,0,.86-.11,1.24-.32l6.33-3.43c-.23,5.01-.44,10.16-.41,15.25,0,.49,0,.98,0,1.48-.01,2.35-.02,4.78.49,7.24.3,1.46,1.9,2.88,3.12,3.16.27.06.55.1.82.1,3.62,0,3.98-4.53,4.09-6.02v-.15c.12-1.3.06-2.53,0-3.72-.04-.73-.07-1.42-.07-2.08.02-1.82.08-3.72.13-5.56.12-4.01.24-8.16.01-12.16-.03-.51-.09-.99-.15-1.45.22-.08.44-.17.66-.25,1.04-.39,2.2-.83,3.31-1.48.27-.03.53-.1.77-.21l.42-.18c3.35-1.48,4.44-2.06,5.04-2.73,1.13-1.24,1.77-4.18.15-5.79-.51-.51-1.43-1.11-2.94-1.11h0Z" style="fill:#e11c84;"/><path d="M7.55,7.06v.14c.32-.03.67-.05,1.01-.06h.08c-.04.32-.22.33-.39.35-.54.09-1.19.08-1.75.16v-.68s1.05.08,1.05.08Z" style="fill:#e11c84;"/><path d="M5.96,7.06v.14c0,.22.04.43.14.62.06.2.17.37.33.51.29.27.71.51,1.13.47.21-.02.41-.03.62-.05.16,0,.31-.02.47-.01l-1.54-2.02c0,.05-.02.1-.04.15l.16-.38s-.02.04-.03.06l.25-.32s-.04.04-.06.06l.32-.25s-.04.03-.07.04l.38-.16c-.11.04-.22.05-.33.06l.42-.06c-.27.04-.55.05-.82.07-.4.03-.8.07-1.2.13l2.02,1.54v-.68c-.53.53-1.07,1.07-1.6,1.6.35.03.7.06,1.05.08.22,0,.43-.04.62-.14.2-.06.37-.17.51-.33.16-.14.27-.32.33-.51.1-.19.15-.4.14-.62-.02-.41-.15-.84-.47-1.13l-.32-.25c-.25-.14-.52-.22-.81-.22l-1.05-.08c-.22,0-.43.04-.62.14-.2.06-.37.17-.51.33-.29.31-.47.7-.47,1.13v.68c0,.29.07.56.22.81.1.19.24.34.41.45.15.14.34.24.54.29.28.08.57.08.85,0,.04,0,.07-.01.11-.02l-.42.06c.47-.06.95-.06,1.42-.12.23-.03.46-.06.68-.09.19-.03.36-.11.53-.2.25-.12.41-.3.57-.51.05-.06.1-.12.14-.19.07-.12.13-.28.18-.41.02-.05.03-.1.04-.15.08-.28.08-.57,0-.85-.05-.21-.14-.39-.29-.54-.11-.17-.26-.31-.45-.41-.25-.14-.52-.22-.81-.22-.16-.01-.31,0-.47.01-.21.01-.41.02-.62.05l1.6,1.6v-.14c0-.41-.18-.84-.47-1.13-.14-.16-.32-.27-.51-.33-.19-.1-.4-.15-.62-.14-.41.02-.84.15-1.13.47s-.47.7-.47,1.13Z" style="fill:#e5007e;"/><path d="M44.7,41.23h-.87v.43h.87v-.43Z"/><rect x="43.83" y="41.23" width=".87" height=".43" style="fill:#fff;"/><path d="M5.58,2.73l.14,1.67c.79-.2.9.71.79,1.71l6.57.52c6.63,1.6,13.31,1.46,20,1.37,5.79-.08,11.69-.44,17.51-.88,17.66-1.34,35.38-1.87,53.02-2.21,2.8-.05,5.67.41,8.44.47.66.02,1.23-1.26,1.8.69,1.06,3.64-.36,7.34-.64,10.75-.16,2.02.04,4.53-.12,6.66-.09,1.23-.62,2.66-.55,3.58.03.35.17.63.19.91.1,1.25.21,2.56.26,3.72.02.48-.17,1.59-.11,1.86.06.24.27.22.31.37.03.12-.19,2.06-.16,2.57.02.26.19,2.21.22,2.4.46,2.87.52,5.4.81,8.42.23,2.45.81,5.91.53,8.44-.23,2.06-.53,1.69-.99,3.07-.19.57-.34,1.61-.49,2.15-.41,1.49-1.01,1.42-1.75.54-.13-.16-.52-.94-.58-.97-.09-.05-1.16.16-1.35.16-8.23.08-16.25,1.04-24.48,2.06-7.43.91-14.77,1.58-22.24,2.29-14.95,1.42-29.48,3.17-44.48,2.64-3.14-.11-6.28-.48-9.44-.4-.62.02-.27.48-.56,1.1s-.73.52-1.07.05c-1.03-1.43-1.55-6.41-1.79-8.52-.94-8.28-1.27-17.24-1.47-25.82-.17-7.3-.11-14.69-.06-22l1.07-.34.12-5.04-.51-.27-.11.51c-.45-.68.04-.97.51-.85.1-.15-.53-4.3.65-3.38ZM8.64,7.14l-2.13-.17v.68c.56-.09,1.2-.07,1.75-.16.17-.03.35-.04.39-.35ZM111.19,7.83c-2.2.27-4.38.4-6.56.47-5.38.17-10.9-.05-16.28.07-9.52.22-19.16.8-28.61,1.44-8.35.57-16.75,1.07-25.08,1.1-4.12.02-7.96-.55-12.03-.83-5.2-.35-9.89.48-15.1-.46-.37-.07-.75-.1-1.12-.09l-.05,10.66c-.89,14.09-.34,27.59,1.59,41.32.1.69.18,1.36.16,2.07,1.47.77,2.87.16,4.31.02,10.56-1.02,20.93,0,31.42-.27,15.71-.4,31.38-3.95,47.09-4.97,5.42-.35,10.85-.57,16.29-.6h3.2c-.06-2.26,0-4.6.07-6.89.02-.68.04-1.18.04-1.74,0-10.25-.91-20.87-.33-30.95.2-3.49.64-6.93,1-10.38Z"/><path d="M111.19,7.83c-.36,3.45-.8,6.89-1,10.38-.58,10.08.33,20.7.33,30.95,0,.55-.02,1.06-.04,1.74-.07,2.29-.13,4.63-.07,6.9h-3.2c-5.44.01-10.87.24-16.29.59-15.71,1.02-31.38,4.56-47.09,4.97-10.49.27-20.86-.75-31.42.27-1.44.14-2.85.76-4.31-.02.02-.71-.06-1.38-.16-2.07-1.92-13.73-2.48-27.23-1.59-41.32l.05-10.66c.37,0,.75.02,1.12.09,5.21.94,9.9.1,15.1.46,4.07.28,7.91.84,12.03.83,8.33-.03,16.74-.54,25.08-1.1,9.44-.64,19.09-1.22,28.61-1.44,5.39-.13,10.9.1,16.28-.07,2.18-.07,4.37-.2,6.56-.47Z" style="fill:#fff;"/><path d="M10.51,6.74c-.06.28-.31.29-.54.32-.76.08-1.65.07-2.42.15v-.62s2.96.16,2.96.16Z" style="fill:#fff;"/><path d="M52.94,14.34c.79.5-.14,6.43-.16,7.4-.01.74.2,1.37.2,1.98v6.72c.27-.15.56-.73.69-1.01s0-.57.02-.58c.09-.05.34.06.54-.13.18-.18.27-.71.45-.94.34-.43,1.23-.97,1.62-1.51.13-.17.05-.52.31-.85.43-.55,1.26-.27,1-1.24l.71.18c0-.23.05-.45.17-.64.31-.52,1.8-2.09,2.28-2.37.3-.17.77-.14,1.05-.39.25-.22.31-.7.71-1.08.59-.57.92-.3,1.12-.4.06-.03.06-.3.27-.37,1.22-.44,1.31-.22,2.38-.04.34.06,1.08-.25,1.31.39.33.93-.33,1-.34,1.07-.03.29.27.61.16,1.01-.11.42-2.26,2.41-2.75,2.82-2.31,1.94-4.71,3.74-6.88,5.84-.18.18-1.29,1.45-1.26,1.57l2.76,1.9c.59,1.04,1.43,1.9,2.42,2.52l-.17.52c.97.04.69,1.09,1.72,1.25l-.09.7,1.06.39-.18.35c.92,0,.67.62,1.01,1.07.25.32.96.52.6.91l.52.02c.48,1.63,1.96,3.2,2.89,4.69.08.12.3.13.32.17.15.29-.21,1.45-.24,1.74-.02.21.21.34.19.56-.04.42-.48,1.41-.86,1.66-1.51.99-2.2-.34-3.49-1-.19-.87-1.33-1.49-1.79-1.97-.19-.2-.06-.88-.21-1.09-.19-.26-.56-.19-.7-.34s-.18-.83-.36-1.16c-.53-.96-1.5-1.8-1.99-2.47-.35-.49-1.11-.4-.73-1.16l-.32.14c-1.16-1.44-2.62-2.68-3.28-4.47l-1.69-2.13-.62.28c-.44.5.08,1.79.08,2.42.02,1.54-.09,3.37-.15,4.89-.08,2-.25,6.64-.73,8.35-.54,1.91-2.34,1.45-3.46.33-.53-2.58-.11-5.19-.12-7.78s.02-5.51-.27-8.23l.34-.08c-.53-.63-.04-1.64-.01-2.43.12-3.22.04-6.58.38-9.83.26-2.5.86-4.96,1.36-7.42.5-1.11,1.19-.79,2.19-.71Z"/><path d="M99.14,20.46c.05.06.61.91.68,1.03.22.39.81,1.76.97,2.25,1.63,4.88.04,10.97-.87,15.94-.22,1.19-.27,2.52-.59,3.7-.49,1.84-1.57,3.49-2.01,5.33-.1.42-2.54,3.46-2.92,3.76-.16.12-.8.39-1.02.45-.13.03-1.78.1-1.87.05-.04-.03-.09-.35-.31-.49-1.7-1.07-3.06-1.85-4-3.75-1.68-3.4-3.18-10.42-2.84-14.22.24-2.72.61-4.95,1.37-7.44.13-.42.14-1.33.36-1.72.13-.23.42-.06.53-.13.02-.01-.09-.23-.05-.35.54-1.71,4.01-4.99,5.58-5.71s5.92.16,6.98,1.3ZM95.03,22.45c-.96-.38-2.03-.6-3.07-.56-.49.14-2.27,3.57-2.53,4.25-1.4,3.59-1.37,8.39-.73,12.1.55,3.19,1.06,5.77,2.79,8.27.24.35.53.91.72,1.3.83-.15.67-1.44.82-1.62.46-.58.44-.81.83-1.65,1.52-3.25,1.54-4.32,2.16-7.69.19-1.03.56-2.06.74-3.09.25-1.46.23-2.87.63-4.17.36-1.16,0-4.01-.52-5.15-.22-.48-.8-1.58-1.26-1.79-.19-.08-.39.08-.5.03-.04-.02-.04-.21-.07-.22Z"/><path d="M75.39,56.72c-.09-.51-.62-.37-1.01-.69-.84-.69-1.01-2.6-.77-3.61.13-.55.55-1.1.64-1.67.07-.45-.16-1.61-.12-2.13.19-2.98,1.1-5.37,1.49-8.25.2-1.46.19-2.7.69-3.89.14-.34.22-1.87.12-2.28l.52-.02c-.19-.56.35-.74.37-.83.12-.46-.18-1.62.54-1.67l-.35-.35c.64.09.3-.84.4-1.17.28-.98.88-2.3,1.41-3.34.07-.14.31-.15.33-.27.11-.52-.1-1.01.35-1.55-.03-.16-1.19-1.02-1.42-1.27-1.42-1.55-2.84-3.47-4.37-4.86-.57-.51-1.84-1.18-2.34-1.69-.57-.59-1.92-2.43-1.72-3.27,1.13-1,2.99-.19,4.11.52.85.54,3.03,1.92,3.67,2.57.82.84,1.96,1.55,2.74,2.4.2.21.38.75.45.81.04.03.25-.15.3-.12.13.09.11.59.48.5.27-.06.82-2.01.98-2.37.41-.95.94-2.21,1.46-3.25.55-1.1,1.31-2.09,1.79-3.22.4-.49,1.25-.52,1.84-.44.84.28-.27,3.43-.47,4.13-1.17,4.08-2.57,8.14-3.7,12.23-.35,1.27-1.91,4.14-2.07,5.08-.64,3.76-1.54,7.8-2.2,11.62-.49,2.86-.71,6.01-1.35,8.85-.04.19-.69,2.18-.75,2.28-.25.4-1.64,1.42-2.03,1.23Z"/><path d="M42.34,22.99c2.03.85,3.69,2.74,4.16,4.87.83,3.75.5,7.46-.07,11.18-.52,3.4-1.37,8.79-4.41,10.81-.3.2-.99.61-1.32.62-2.52-.29-4.54-1.62-6.09-3.57-2.3-3.48-2.95-7.12-2.51-11.29.39-3.73,1.74-6.55,2.99-9.87,1.13-2.99,4.25-3.99,7.25-2.74ZM42.52,27.44c-.11-.17-2.33-1.59-2.6-1.63-1.15-.19-2.94,1.68-3.35,2.67-1.55,3.73-2.13,9.36-.77,13.28.51,1.47,1.37,2.15,2.06,3.22.04.06-.14.25-.11.29.06.08,1.59,1.08,1.68,1.11.64.14.86-.44,1.2-.95.09-.13-.04-.39,0-.45,1.59-2.03,1.1-1.56,1.56-4.06.67-3.64,1.33-7.16.88-10.91-.03-.25-.49-2.46-.56-2.57Z"/><path d="M36.06,18.74c-.46.51-3.75,1.91-4.6,2.29l-.54.03c-1.82,1.24-4,1.66-5.93,2.67.03,1.07.27,2.15.33,3.22.33,5.72-.09,11.76-.15,17.54-.02,1.84.25,3.74.09,5.61-.08.92-.25,4.11-1.73,3.76-.35-.08-1.1-.81-1.17-1.16-.56-2.69-.42-5.52-.43-8.21-.04-6.2.28-12.45.56-18.63.02-.41.18-.75.19-1.16l-10.52,5.71c-1.65-.25-1.9-1.5-.63-2.48,1.1-.85,3.11-1.94,4.39-2.73,4.84-3.01,10.17-5.48,15.33-7.82,1.09-.49,4.07-1.81,5.06-.83.42.42.13,1.78-.24,2.19Z"/></svg>