<?xml version="1.0" encoding="UTF-8"?><svg id="Layer_1" xmlns="http://www.w3.org/2000/svg" viewBox="0 0 27.52 30.954"><path d="M24.183,10.39c.98,3.51.39,7.97-1.66,11.45-.47,1.22-1.41,2.23-2.45,3-1.77,1.56-4.06,2.55-6.83,2.56-6.82.03-10.03-5.83-10.71-11-.29-2.13-.72-3.4,1.03-4.84.36-.8.83-1.58,1.39-2.33.23-.44.48-.84.77-1.17,1.17-1.37,2.75-2.47,4.47-3.25,2.04-1.03,4.36-1.6,6.82-1.45,4.16.25,6.37,4.05,7.17,7.03Z" style="fill:#fff;"/><path d="M22.523,21.84c2.05-3.48,1.888-7.876.908-11.386-.8-2.98-2.258-6.844-6.418-7.094-2.46-.15-4.78.42-6.82,1.45-1.72.78-3.3,1.88-4.47,3.25-.29.33-.54.73-.77,1.17-.56.75-1.03,1.53-1.39,2.33-1.191,2.071-.458,3.466-.885,5.318.68,5.17,3.745,10.552,10.565,10.522,2.77-.01,5.06-1,6.83-2.56,1.04-.77,1.98-1.78,2.45-3ZM27.213,13.43c.73,3.01.09,5.66-1.21,7.82,0-.05-.02-.1-.03-.14-.16,3.03-1.87,5.68-4.44,7.2l.01.02c-3.12,1.85-5.95,3-9.66,2.51-3.79-.49-7.86-2.41-10.06-6.56-.91-1.73-1.23-3.61-1.1-5.46C-.947,13.49.293,7.28,4.263,3.95,10.563-1.35,20.313-1.98,24.883,6.18c1.08,1.93,1.81,5.1,2.33,7.25Z"/></svg>