<?xml version="1.0" encoding="UTF-8"?><svg id="Layer_1" xmlns="http://www.w3.org/2000/svg" viewBox="0 0 42.136 38.503"><path d="M41.181,13.875c-.958-4.019-3.753-7.368-7.698-8.823.057,0,.134,0,.192.019C31.357,2.468,28.121.535,23.832.267c-3.045-.191-7.545-.536-10.532.096C.642,3.062-2.537,16.209,1.887,26.716c2.777,6.603,10.475,10.794,18.211,10.775,2.394.938,4.998,1.282,7.66.784,6.396-1.205,10.609-5.798,12.811-10.602,2.164-4.708,1.8-8.918.632-13.799h-.019ZM7.919,26.467C3.246,19.08,4.836,6.238,12.553,5.071c1.321-.191,2.719-.364,4.117-.479-4.634,3.196-6.836,8.382-7.775,13.511-.708,3.923.249,8.057,2.317,11.578-1.398-.957-2.566-2.067-3.294-3.215ZM24.081,33.606c-6.798-.651-10.436-7.273-10.628-12.804-.077-2.277.613-3.56,2.489-4.899,2.47-4.555,8.139-8.306,14.17-7.292,4.117.689,5.955,4.919,6.472,8.153,1.206,7.292-3.6,17.703-12.523,16.842h.019Z"/></svg>