<svg xmlns="http://www.w3.org/2000/svg" viewBox="0 0 169 380"><path d="M59.4 7.5 104 6.3l21.2-.5c6.7-.1 13 .2 18.6 1.4 3.2.7 6.2 1.6 9 3.2 2.7 1.5 4.8 3.8 6 6.6 1.6 3.2 1.8 7.3 1.8 11.5l.4 13 1 25.6.6 6.4c.7 13.3.4 29.2.7 43.1.2 10.2-.1 18.9-.2 28.8l-.1 20c-.4 19.4-1.7 38.6-2.7 56.7l-1.8 40.7-.7 16.8c0 1.9-.5 4.3-.6 6.4-.3 5.3-.3 13.7-.5 21.6-.3 10.7-.9 19.6-.7 25.7.2 6.7 2 19.4 3 20 .8.5 2.6-5.4 3-10.5.5-5.7.2-15.4.8-20.7-.3-26.5.5-54.5 1.7-79.8.7-15.6 1.8-32 2.7-48.7.3-4.7.3-9.7.5-14.4.6-15.4 1.5-29.8 1.1-40.9-.2-7.9.2-15.8 0-24.8-.1-11-.8-22.6-1.1-33.7.4-14.4-1.2-37-1.6-54.5-.1-2.5-.4-5.3-1.2-8.2-.9-2.9-2.5-5.8-4.6-8a29 29 0 0 0-14.9-7.6A72.2 72.2 0 0 0 130.1 0c-2.6 0-5 0-7.6.2l-7.4.2C95 1.1 75 1.8 55.3 2c-10 .7-21.7.6-31 .8l-7.5.3-4 .3c-1.5.2-3.2.5-5 1.4a8.6 8.6 0 0 0-3.5 2.9A6.8 6.8 0 0 0 3 11.8c-.2 1.3-.1 2.4-.2 3.3V18l-.2 11.7C2.3 37.5 2 45.2 2 52.1c0 3.6.3 7 .3 10.4 0 3.3-.4 6.4-.4 9.6V89c0 18.8 0 33.8-.6 48.8.4 7 .1 17.7 0 26.4-.3 11.3-.7 22.7-.6 34.4l.3 8c0 11.5-.4 26.9-.6 36-.1 6.9.2 13.8.1 20.8L.3 272c-.2 7.7.2 16.2 0 24a1942 1942 0 0 0-.3 42.4c0 3 .6 1 .5 4a180.4 180.4 0 0 0 .5 19.7c.2 2.4.6 5.2 2.4 7.8 1.4 2 3.7 3.4 5.7 4 2.1.6 4.1.7 6 .8l11.1.2c7.4 0 15 .1 22.2.4 6.7.2 13.6 1 19.3.5a1246.6 1246.6 0 0 0 75.7 1.9c2 0 4.3-.2 6.5-.6a12 12 0 0 0 6.2-3 7.4 7.4 0 0 0 2.1-5c.3-2.3.3-4.3.4-6.2v-5.4c0-3.4 0-6-.4-8-.5-3.6-1.5-3.8-2.8 1.6l-1.2 9.3-.5 4.5c-.2 1.7-.3 3.3-.6 4-.3.8-.6 1.2-1.8 1.8-1.1.6-2.8 1-4.6 1.1-1.8.2-3.7.2-5.7.2h-5.9c-4-.2-7.8-.7-11.6-.8-6.3-.2-13.3 0-20-.2-3.3 0-6.5-.5-9.3-.5-3 0-5.6.2-8.6.1-3.5 0-7-.4-10.8-.6h-7.7c-9.5-.2-19.6-.7-29.3-1.1l-14.2-.5H17c-2 0-4 0-5.5-.3L9 366.8a5 5 0 0 1-1.3-2c-.7-1.9-1-5.4-1.3-8.2-.7-8.2-.2-16.7-.2-24.4 0-2.6-.3-4.7-.3-7.2 0-3.3.3-6.6.4-9.6l-.3-9.6.2-21.6c0-20.2-.2-40.5.1-62.4.1-6 .5-11.6.6-17.6.2-10.4 0-19.6-.1-29.5 0-9.7.5-20 .5-29.6l-.2-8c.1-5.7.5-10.7.5-16 0-11.2-.4-22 .1-32.8-.6-4.4.2-9.6-.4-15.2.8-13.7.9-33.3.3-45.6.2-3.9.3-8.9.3-13.9 0-2.4.6-3.3 2.5-4.1 1.8-.7 4.1-.8 6.4-1 13.3.5 27.7-.4 42.5-.9Z"/><path d="M62.4 47.4c-2.6.6-3.3.4-5-1.9-.8.5-.7 1-1.9 1.5l-1.2.9c-.5.4-1 .5-1.6.3a7.2 7.2 0 0 1-4.1-3c-.5 1.3-.6 2.6-1.4 3.7-.5.6-1.7 1.1-2.5 1.1-1.4 0-2.6-.8-3.5-1.7-.5-.5-.8-1-1.2-1.6a8.3 8.3 0 0 1-1.6-4.4c0-.9.4-1.8.5-2.7.2-1.3.7-2.3 1.6-3.2 1-.9 1.8-1.7 2.9-2.4l1.3-.8c.9-.3 1.8-.5 2.8 0 .6.2 1.1.8 1 1.4-.1.1-.4.4-.6.4-.2 0-.2-.4-.2-.6-.5.1-1.2.1-1.7.4L44 36a8.3 8.3 0 0 0-2.4 4.8v2a5.4 5.4 0 0 0 2.7 2.7c1 .1 1.8-.7 1.9-1.7.1-.5.3-1 .2-1.6l-.1-2.4c0-1.2.5-2.2.8-3.3.2-.4.7-.8 1.1-.7.6 0 .8.6 1 1l.9 3.2c.3 1 .6 1.8 1.4 2.5.5.5 1 1.2 1.9 1.4.3 0 .8-.4 1-.8.5-1.3.4-3.7.2-5.3l-.1-1.4-.6-2.9-.6-3.5-.5-3.3-.4-4.1c0-1.6-.3-3-.2-4.7.1-.9 0-1.9.4-2.8A7.9 7.9 0 0 1 55 12c.7-.6 1.8-.8 2.6-.4.7.4 1.2 1 1.7 1.4.5.5.9 1 1.1 1.7.3 1 .4 2.2.4 3.3v2c.3 2.1.1 4.2 0 6.4l-.1 1.6-.5 3-.4 2.7c-.3 1.9-.6 3.7-.7 5.6 0 .7.2 1.3.7 1.9l1 1c.6.7 1.8 1 2 .6a5 5 0 0 0 .8-2l.4-1.7c.3-1.4 0-2.9 0-4.3v-2c0-.4-.2-1 0-1.4.1-.6.8-.8 1.3-.8s1 .1 1.5.6c.9 1 .6 3 .7 4.6l.8-2.3a6.9 6.9 0 0 1 2.5-3.4c.9-.6 1.7-1 2.7-.7a7 7 0 0 1 3.9 2.8c1 1.4 1.2 2 1 3.7-.2 3.2-1.5 6-3.4 8.5-.9 1.2-2 2.2-3.5 2.2l-2.1-.1-1.8-.6v11l.2 5.4c0 .3-.2.8-.5 1-1 .4-3-.7-3.3-1.6-.5-1.8-.5-3.6-.5-5.4l.1-3.3.2-4.2.1-2.6c-.3.7-.8 1-1.6 1.2Zm-5.7-15.1.5 2.4c.4-1.8.8-3.4.9-5.2l-.2-5.2-.3-6.4c0-.9-.2-1.8-.6-2.6-.1-.3-.6-.4-.8-.2-.6.6-.6 1.3-.6 2l-.3 3 .1 2.7.7 4.6.3 2.3.3 2.6Zm16.7 6.1.3-2.7v-1.3c0-.5 0-1.3-.6-1.6-.4-.2-1.1.3-1.3.7-.6 1-1.2 2-1.5 3.2l-.5 2c-.3 1.4-.2 2.7 0 4 .5.4 1.4.6 1.8 0 1.3-1.6 1.3-2.4 1.8-4.3Zm19.4 13.2c-2.3.2-4.7-2.4-4.8-3.8l-.1-1.5.2-3.9c0-.9.2-1.7.4-2.6l1-4.1-.1-.4c-.1-.3-1.3.3-1.6.8-.9 1.4-1.7 2.8-2.4 4.3L84 43.8c-.4 1-.6 2-.8 3.1l-.3 1.7c0 .2-.3.4-.5.4-.6 0-.7-.7-1.4-.7-1.3 0-2.2-1-2-2.4V44l.4-3 .6-3a54 54 0 0 0 1.3-7v-2.4l-.1-3c0-1-.2-2.1-.4-3.2l-.3-2c0-.2.2-.8.5-1 .4-.1 1 .2 1.3.4.7.5 1.1 1 1.5 1.8a14 14 0 0 1 1 6.8v2.3c-.1 1.2-.3 2.4-.6 3.5l-.7 3.7 1.1-1.5.9-1.4c.6-1 1.4-1.8 2.6-2.1.8-.2 1.7-.6 2.5-.4 1.5.4 2.6 2.1 2.4 3.6l-.3 2-.4 3.1a11 11 0 0 0 .1 4.8c.2.8.8 1.5 1.3 2.2.4.7 2 1.2 1.3 2.3l-.5 1-1.7.2Z"/><path d="M32 53.2c-.4-.5-.5-1.2-.6-1.8-.2-1-.7-2-1.2-2.9-.5-1-1-2.1-1.4-3.3l-.6-1.6-.8-2.3-1-2.5c-.3-.5-.5-1.1-.3-1.6.5-.6 1.7-1.1 2.4-.7 1 .4 1.4 1.4 2 2.2l.7-1.9 1.4-1.6.4-.5 3.3-3.1c.8-.7 3-1.6 3.7-.9.1.2.4.8.2 1-.6.7-1.3 1.2-2 1.8L37 34.7c-2.4 2.2-3 6.9-3 10.2 0 .9 0 1.8.2 2.7 0 .6.3 1.2.6 1.7l.6 1.5.8 1.7c.4.9.7 1.7.9 2.6-.8.5-1.6.5-2.4.6-.7.2-1.2 0-1.6-.6l-1-1.9Zm77.7-27.7.2-2.6v-3c0-1 0-2.1-.2-3.3l-2 .5-3.9 1c-1 .3-2.2.3-3.3.6L99 19a2 2 0 0 1-2.3-1.2c-.4-.9.2-1.6 1-2.3 1-1 2.4-2 4-2.2l1.9-.1c1.8-.2 3.6 0 5.4-.7.7-.2 1.8.2 2.5 0l2.6-.4 3.1-.7c1.8-.5 5-.7 6.7.4.4.3.4 1.4.2 2-1 2.1-8.8 2.1-11 2.8l.1 5v3l.2 2.2v3l.1 2.4.2 3.4c.1.9-.7 1.7-1.4 1.8-2.8.4-2.5-4.3-2.6-5.7v-6.2Z"/><path d="m123 25.6-2-3.4c-.7-1.3-2.6-4.2-1.6-5 .3-.3 1.3-.5 1.6-.2 1 .9 1.9 2 2.6 3.3l.8 1 1.8 2.3a85 85 0 0 0 5 5.7c1.3-4.7.6-4 2.6-8.2.6-1.4 1.3-2.4 2.2-3.6 1.6-2 1.5-4.6 3.5-4.8.5 0 1.3.6 1.4 1.2.4 1.8-.8 3.7-2 5l-1.4 2.2c-.6.7-1 1.4-1.2 2.3l-1.4 5.6-.8 4a2.6 2.6 0 0 1-3 2.1c-.4 0-.8-.5-1.1-1-1.5-2.3-1.5-.7-3-3.4-.8-1.6-2-1.5-4-5.1Z"/></svg>