<?xml version="1.0" encoding="UTF-8"?><svg id="Layer_1" xmlns="http://www.w3.org/2000/svg" viewBox="0 0 1198.409 117.598"><path d="M1125.366,37.706c-4.71-1.538-8.37-2.697-11.71-6.021-5.72-5.711-3.77-13.77,4.55-16.215,2.52-.466,6.2-.83,8.99-.698,8.44.428,24.27,6.367,23.42,13.293-.3,2.398-1.71,4.746-3.22,6.551-4.38,5.187-13.23,5.971-22.03,3.09ZM1142.886,33.141c2.01-1.882,3.5-4.636,2.86-7.331-.83-3.543-14.85-7.638-19.7-8.6-4.73-.93-8.15.695-10.2,3.029-2.74,3.071-2.25,6.594,1.31,10.41,6.82,4.467,19.74,8.131,25.73,2.492Z"/><path d="M1159.496,64.482c-3.43.287-6.45-.631-8.25-3.712-3.33-5.742-.88-13.053,5.82-15.847,2.83-1.186,5.8-.746,8.67-.268,4.98.823,7.32,5.914,7.01,7.12-1.47,5.971-6.53,12.133-13.25,12.688M1158.826,61.65c4.81-.383,7.89-3.655,9.84-7.617.43-.842,1.63-2.239.89-3.158l-3.09-3.923c-5.07-.689-9.34-1.053-12.56,3.693-2.09,3.082-1.67,7.445,1.19,9.895.73.631,2.76,1.186,3.71,1.11"/><path d="M298.97,111.931c-5.297,3.904-16.238,6.717-25.429,5.291-1.529-.235-3.384-.599-3.839-1.3-1.197-1.856-1.076-4.088,1.671-6.195,4.76-3.664,7.413-3.634,14.772-4.806,5.715-.912,10.792-.327,12.393,1.481,1.486,1.667,1.208,3.561.431,5.522M286.609,115.09c6.265-1.523,9.622-3.899,8.24-6.16-.512-.848-1.057-2.307-3.447-2.579-4.595-.3-9.939.777-14.346,1.881-3.625,2.247-5.286,4.636-3.332,6.625.955.977,4.669,1.082,7.476,1.094,1.89.003,3.497-.4,5.39-.858"/><path d="M927.518,92.962c1.175,3.142-1.734,7.043-10.555,8.667-5.182.952-9.689.559-14.215-.608-6.78-1.746-9.765-5.268-3.698-7.759,3.525-1.445,8.937-2.426,13.868-3.099l6.76.215c4.276.136,7.223.909,7.859,2.584M920.603,98.273c1.618-1.289,3.602-4.717,1.367-5.812-1.252-.623-6.76-.193-10.478-.695-3.717.602-7.916,1.589-10.246,3.021-.886.551-.925,1.911-.366,2.512,1.656,1.782,5.778,3.171,10.998,3.085,3.255-.05,7.3-.995,8.686-2.104"/><path d="M43.072.357c2.669.515,5.174,1.45,6.131,3.529.474,1.029.405,5.389.137,6.81-2.638,14.719-32.738,30.57-45.803,22.315-8.217-5.192-.762-16.094,8.546-23.47,2.889-2.285,4.48-1.744,7.36-2.955C28.163,2.942,34.781-1.262,43.072.357ZM23.035,9.107C14.029,13.405,1.731,21.344,6.738,27.669c8.083,10.229,39.109-8.212,35.437-19.696-1.829-5.751-11.924-2.314-19.145,1.124l.005.01Z"/><path d="M189.834,98.274c2.033.908,4.808,3.222,4.925,4.498.294,3.385-9.323,7.662-16.691,8.279-13.232,1.105-16.965-6.188-12.509-10.455.626-.609,4.554-3.025,5.61-3.445,4.886-1.937,14.482-.737,18.665,1.123ZM186.551,101.213c-.333-.232-10.262-2.76-10.907-2.742-.43,1.516-4.847,1.748-5.433,2.082-2.091,1.191-2.033,4.79-.547,6.179,4.71,4.413,13.114-.018,17.825-1.903,1.055-.617-.137-3.085-.938-3.625v.009Z"/><path d="M54.773,73.972c-5.515,6.22-16.794,2.642-17.005-5.569-.115-4.402,4.634-11.904,9.211-12.21,10.475-.689,14.094,10.679,7.794,17.799v-.02ZM48.951,62.222c-.498-.326-.785-1.78-1.264-1.819-3.083,1.398-3.389,2.929-3.179,6.201l-1.992.058c-.191,6.698,8.809,6.813,9.67.248.555-4.191-1.111-3.253-3.236-4.669v-.019Z"/><path d="M78.683,88.797c-1.13.172-2.202.325-3.294.478-1.857.287-4.806.804-6.281,1.072-2.662.497-5.534.88-3.83.67,1.207-.173,9.326-.996,13.807-1.455,2.106-.249,4.921-.593,7.143-.88,4.404-.383,7.851-.67,11.872-1.015,4.06-.402,8.12-.803,11.567-1.148,2.891-.268,5.706-.344,8.559-.593,1.551-.115,3.122-.402,4.673-.536,7.257-.632,14.381-1.034,20.126-1.569,5.342-.498,9.172-1.091,14.285-1.646,2.03-.211,4.098-.23,6.07-.46,2.049-.248,3.868-.689,6.032-.995,3.504-.478,7.43-.325,11.068-.574,2.375-.191,4.864-.402,7.162-.612,1.992-.134,3.926-.498,6.051-.728,7.813-.823,15.684-1.11,23.439-.784,7.756.21,15.3,1.416,23.017,1.933,4.347,1.052,9.077,1.703,13.865,1.875,4.768.192,9.536-.057,14.113-.344,8.387-.555,16.774-1.168,25.2-1.914,2.03-.172,4.04-.632,6.051-.67.804,0,1.685.153,2.49.134,3.408-.153,6.702-.67,10.187-.67.747,0,1.455.287,2.183.326,1.034.057,2.106-.115,3.045-.058,2.298.172,4.615.498,6.855.708,2.834.211,5.611.249,8.292.574,1.436.192,2.681.536,4.098.709.785.095,1.378-.058,2.24.038,1.283.115,3.007.67,4.347.842.996.115,1.972.057,3.064.23,2.259.325,4.519,1.014,6.779,1.473,3.447.689,7.027,1.034,10.321,2.067,4.902.593,10.379,1.397,15.932,2.278,1.475.248,2.873.708,4.347.937,5.841,1.034,11.892,1.302,17.349,1.876,12.639,1.225,24.588,1.933,35.12,1.933,3.409.402,8.215.21,11.643.268,3.045,0,6.089.21,8.866.191,1.072-.038,2.202-.057,3.332-.096.594.02,1.34.039,1.934.077,3.6-.019,7.545-.057,11.087-.077h7.201c3.983-.114,7.64-.114,7.487-.095-1.743-.115-3.619-.249-5.821-.383-6.76-.536-12.754-.632-19.686-.861-4.213-.153-8.138-.594-10.8-.44-5.841-.479-12.102-.613-18.785-1.034-8.081-.517-17.331-1.474-23.918-1.837-6.223-1.244-12.275-1.34-17.981-2.297-1.666-.268-3.16-.727-4.845-1.033-7.219-1.206-15.396-2.565-23.036-3.943-7.526-2.277-15.53-2.985-23.765-4.784-3.466-.345-7.085-.383-10.685-.766-4.308-.44-8.828-1.167-13.232-1.378-2.011-.134-4.155.077-6.243-.019-.536-.038-1.168-.249-1.704-.249-.67,0-1.245.307-1.991.345-.422,0-1.934-.058-2.547-.077-4.213-.019-7.028.67-10.379.804-.824.038-1.647-.134-2.528-.057-1.283.095-2.604.516-3.868.631-5.419.44-10.819.498-16.219,1.206-2.662-.191-6.53-.134-9.786.096-3.695.287-7.813.134-12.083-.345-4.27-.478-8.732-1.244-13.136-1.78-2.356-.287-4.443-.268-6.185-.421-1.973-.172-4.194-.65-6.186-.708-6.53-.249-13.94.172-20.47.632-2.336.172-4.634.172-6.951.402-2.969.268-5.477.899-8.273,1.091-1.034.076-2.03-.039-3.064.038-.536.038-1.417.383-1.915.44-.478.057-1.206-.096-1.666-.057-2.106.134-5.093.612-7.161.861-7.335.995-14.362,1.933-21.18,2.851-4.634.555-9.191.766-13.787,1.455-.804.115-1.589.344-2.451.459-9.383,1.225-18.939,2.086-28.609,3.388-6.453.823-13.06,1.626-19.475,2.717-1.857.134-4.845.785-8.483,1.321v-.038Z"/><path d="M759.309,83.457c-1.072,0-2.01-.038-3.006-.172-1.685-.134-4.347-.804-5.573-1.378-2.298-.9-4.327-2.565-3.083-1.627.441.306,2.145,1.607,4.52,2.545,2.355.957,5.323,1.455,7.449,1.436,2.049.038,4.653-.46,6.721-1.149,3.638-1.129,6.396-2.794,8.924-5.32l-3.505-.249c.211.345.441.708.651,1.072,1.111,1.722,2.509,3.272,4.003,4.574,1.512,1.282,3.14,2.296,4.691,3.119,2.624,1.302,5.381,2.297,8.349,2.622,1.609.192,3.275.019,4.902-.172,1.896-.191,3.869-.765,5.439-1.301,1.589-.555,2.968-1.072,4.136-1.302,1.187-.249,1.972-.249,2.987-.076.996.172,2.107.516,3.294.899,1.091.345,2.26.747,3.409.995,1.148.249,2.221.594,3.331.728,1.092.153,2.184.344,3.313.459,1.13.076,2.279.172,3.505.268,1.953.057,3.925.287,5.802.153,1.953-.096,3.657-.555,5.668-.861,3.255-.498,6.855-.651,10.149-1.225,2.145-.383,4.347-.957,6.396-1.397,1.781-.383,3.447-.995,5.285-1.512,6.836-1.895,13.673-3.292,20.605-4.115,6.932-.861,13.883-1.416,20.662-2.545,8.004.268,16.641-.574,24.76-1.187,3.715-.248,7.468-.459,11.221-.574,3.754.019,7.526.038,11.298-.019,1.819.019,3.658-.249,5.458-.134.708.038,1.494.287,2.221.306,3.064.039,6.051-.287,9.192-.191.67.019,1.302.306,1.972.344.938.077,1.896-.095,2.739-.057,2.068.096,4.136.498,6.166.612,2.546.173,5.055.02,7.468.23,1.302.115,2.432.421,3.696.498.708.038,1.244-.134,2.01-.115,1.168.038,2.719.459,3.945.536.9.038,1.781-.096,2.757,0,2.03.172,4.1.689,6.15.976,3.12.402,6.35.478,9.34,1.301,4.43.249,9.37.727,14.36,1.416,1.34.192,2.59.613,3.91.842,5.25.9,10.65,1.302,15.53,2.029,11.26,1.703,21.87,3.273,31.27,4.23,3.01.669,7.32.918,10.36,1.301,2.7.306,5.4.727,7.89.976.96.077,1.97.134,2.97.211.53.057,1.17.191,1.72.248,3.22.268,6.74.555,9.9.823,2.22.23,4.39.364,6.44.517,3.58.134,6.85.364,6.7.383-.54-.077-1.04-.134-1.59-.211-1.15-.172-2.36-.363-3.58-.536-6.01-.899-11.34-1.569-17.48-2.315-3.76-.536-7.2-1.34-9.58-1.417-5.15-1.014-10.72-1.703-16.66-2.698-7.16-1.206-15.4-2.833-21.29-3.502-5.54-1.531-11.01-1.857-16.17-2.814-1.51-.287-2.85-.746-4.36-1.014-6.55-1.148-14.04-2.086-20.97-2.928-6.87-1.742-14.113-1.818-21.523-3.043-3.103-.115-6.32,0-9.537-.191-3.83-.23-7.832-.938-11.719-1.149-1.781-.115-3.677,0-5.515-.172-.479-.038-1.015-.306-1.494-.325-.574-.039-1.11.21-1.761.229-.364,0-1.705-.172-2.26-.21-3.715-.268-6.281.134-9.287-.019-.747-.019-1.456-.249-2.26-.249-1.168,0-2.375.306-3.524.306-4.921-.096-9.804-.191-14.744.459-2.432-.229-5.994-.114-8.981.288-6.779.899-15.243.822-23.152,1.703-2.106.229-3.925.67-5.457.88-1.743.23-3.754.153-5.496.421-5.726.823-12.294,2.22-18.001,3.636-2.029.479-4.078.843-6.089,1.359-2.566.67-4.711,1.608-7.162,2.125-.9.191-1.8.191-2.7.382-.459.096-1.206.517-1.647.632-.421.096-1.072.038-1.493.115-1.858.325-4.462.995-6.281,1.339-6.473,1.168-12.83,1.972-19.016,1.053-2.087-.249-4.097-.842-6.108-1.416-1.973-.632-3.907-1.34-5.936-1.455-.709-.038-1.398.096-2.126.211-1.991.287-3.887,1.167-5.898,1.952-1.991.823-4.213,1.397-6.434,1.531-4.443.287-8.962-.9-12.792-3.234-2.642-1.589-4.883-3.885-6.511-6.507l.671.057c-1.954,2.201-4.405,3.904-7.028,5.091-1.609.516-4.213,1.588-7.583,1.703l.057-.038Z"/><path d="M553.819,91.189c-.364-.039-.843-.096-1.168-.115-.632-.038-1.59-.077-2.26-.115-.957,0-1.972-.191-1.379-.077,1.417.326,3.619.843,4.883,1.149.766.153,1.743.229,2.547.363,1.57.287,2.777.651,4.194.862,1.436.21,2.891.382,4.117.516,1.034.115,2.011.402,3.025.555.556.077,1.111,0,1.666.058,2.586.268,5.094.65,7.143.708,1.896.057,3.275-.153,5.094-.23.728-.038,1.455.134,2.164.077.727-.058,1.398-.364,2.164-.46,1.263-.172,2.623.288,3.925.326.843.038,1.724-.077,2.547-.058.709.02,1.398-.21,2.164-.287,5.591-.631,11.26.46,16.679-.88,3.14.746,6.587.249,9.804.057,2.949-.172,5.917.039,8.924-.114.728-.039,1.455-.383,2.164-.326.287.019.593.249.881.23,1.206-.019,2.393-.555,3.638-.632.268,0,.517.23.785.23.364,0,.747-.211,1.072-.211.824,0,1.647.173,2.452.134,1.014-.057,1.991-.382,2.949-.401.517,0,.976.172,1.474.114.268-.019.479-.268.785-.306.46-.076,1.092.192,1.57.134.364-.038.69-.268,1.092-.306.804-.058,1.628.21,2.451.23,1.245.057,2.508-.287,3.715.134,1.742-.326,3.715-.498,5.687-.498.536,0,1.034.249,1.57.306,2.088.153,4.232-.191,6.186-.153,4.481.096,8.713.268,12.447.077,1.206.325,2.91.095,4.117.114,1.072,0,2.144.192,3.14.211.383,0,.766-.077,1.168-.077.211,0,.46.077.69.077,1.264.038,2.661,0,3.925.057.805.039,1.705.096,2.547.134,1.417-.038,2.7.019,2.643.058-.039,0-.958-.23-2.049-.498-2.375-.651-4.5-.88-6.951-1.148-1.494-.192-2.873-.651-3.811-.498-2.068-.516-4.29-.536-6.645-.804-2.872-.325-6.166-.822-8.521-.689-2.241-.765-4.405-.325-6.454-.554-.593-.077-1.149-.345-1.761-.402-2.624-.249-5.592-.154-8.33-.096-2.758-.88-5.592-.038-8.522-.536-1.225.211-2.47.651-3.734.708-1.513.058-3.083-.229-4.596-.268-.689,0-1.436.211-2.163.172-.192,0-.403-.248-.594-.248-.23,0-.44.287-.689.325-.154,0-.671-.115-.881-.134-1.456-.153-2.451.345-3.639.268-.287-.019-.574-.249-.88-.249-.46,0-.939.326-1.379.326-1.915,0-3.83-.383-5.783.038-.939-.345-2.337-.402-3.524-.153-2.681.574-5.994.153-9.115.421-.823.076-1.551.363-2.164.44-.689.076-1.474-.172-2.164-.115-2.259.23-4.863.593-7.161.746-.824.058-1.628-.057-2.452,0-1.053.077-1.953.517-2.948.498-.364,0-.709-.191-1.073-.191-.191,0-.517.268-.689.287-.173,0-.421-.192-.594-.192-.747-.019-1.819.192-2.547.268-2.623.287-5.113.785-7.564.957-1.646.115-3.255-.134-4.902.038-.287.039-.574.173-.881.192-3.351.191-6.74-.134-10.187-.192-2.298-.076-4.653-.306-6.951-.267-.651-.173-1.724-.039-3.026-.134l-.057.019Z"/><path d="M238.143,102.959c-.881.229-1.723.44-2.566.669-1.436.383-3.715,1.091-4.844,1.455-2.049.67-4.29,1.225-2.949.899.938-.248,7.295-1.588,10.819-2.277,1.666-.383,3.791-.899,5.572-1.263,3.447-.689,6.186-.995,9.307-1.608,3.198-.536,6.338-1.167,9.057-1.569,2.279-.364,4.481-.555,6.741-.842,1.226-.153,2.432-.479,3.638-.651,5.707-.727,11.298-1.263,15.818-1.741,4.193-.498,7.2-1.015,11.221-1.493,1.609-.172,3.236-.134,4.787-.325,1.609-.192,3.045-.575,4.749-.785,2.777-.383,5.86,0,8.732-.096,1.877-.057,3.849-.115,5.669-.172,1.57-.019,3.102-.23,4.806-.306,12.447-.651,25.066,1.301,37.245.976,6.971,1.339,14.707,1.569,21.926,2.028,6.626.441,13.252,1.264,19.973,1.723,1.628.115,3.274-.077,4.864.115.632.076,1.321.363,1.953.421,2.719.229,5.4-.058,8.177.115.593.038,1.13.325,1.723.382.824.096,1.685-.057,2.432,0,1.819.153,3.677.517,5.477.632,2.26.153,4.481.019,6.626.191,1.148.096,2.163.364,3.274.421.632.039,1.111-.172,1.781-.153,1.034.019,2.413.402,3.504.44.804.02,1.57-.134,2.451-.076,1.8.096,3.639.536,5.458.746,2.777.306,5.649.23,8.33.9,3.925.038,8.33.248,12.772.67,1.188.114,2.298.459,3.486.612,4.672.593,9.498.67,13.844,1.11,10.035,1.014,19.494,2.067,27.863,2.641,2.68.574,6.491.689,9.21.957,2.394.287,4.826.574,7.009.842.862.077,1.743.077,2.643.172.459.077,1.053.153,1.532.23,2.834.287,5.955.593,8.77.88,1.934.23,3.868.46,5.687.67,3.16.249,6.051.574,5.917.593-.478-.095-.938-.172-1.398-.268-1.034-.21-2.087-.44-3.159-.65-5.285-1.129-9.996-1.78-15.473-2.584-3.332-.498-6.396-1.244-8.502-1.282-4.596-.919-9.556-1.416-14.841-2.163-6.396-.918-13.749-2.105-19.015-2.43-4.96-1.206-9.823-1.225-14.419-1.876-1.341-.191-2.547-.574-3.907-.765-5.84-.785-12.485-1.283-18.632-1.818-6.109-1.436-12.504-1.187-19.034-2.297-2.739-.038-5.573.153-8.407-.058-3.37-.248-6.894-.861-10.283-1.205-1.551-.153-3.236-.077-4.845-.287-.421-.058-.881-.326-1.302-.364-.517-.038-.977.191-1.57.172-.326,0-1.475-.248-1.953-.306-3.237-.44-5.515-.153-8.139-.478-.651-.077-1.264-.364-1.953-.421-1.015-.096-2.106.134-3.102.038-4.29-.383-8.541-1.167-12.945-1.148-2.087-.536-5.209-.881-7.89-.881-6.032,0-13.442-1.091-20.489-1.378-1.877-.076-3.524.115-4.883.077-1.551-.038-3.294-.402-4.845-.44-5.113-.096-10.992,0-16.181.038-1.858,0-3.677-.134-5.534-.057-2.375.095-4.405.478-6.645.535-.824,0-1.609-.172-2.432-.133-.421,0-1.149.306-1.532.325-.383.019-.957-.172-1.321-.153-1.685.038-4.079.363-5.726.516-5.898.632-11.432,1.531-16.851,2.316-3.677.479-7.296.727-10.915,1.397-.632.134-1.245.364-1.934.479-7.392,1.301-14.937,2.354-22.52,4.019-5.036,1.091-10.245,2.143-15.204,3.579-1.456.248-3.754.995-6.588,1.779l-.115.039Z"/><path d="M947.4,104.854c-.689.057-1.398.133-2.049.191-1.129.134-2.891.364-3.887.478-1.647.23-3.447.345-2.374.287,1.742-.038,6.051-.114,8.598-.172,1.34-.057,3.025-.229,4.442-.306,2.739-.115,4.883-.057,7.373-.211,2.508-.172,5.017-.344,7.161-.497,1.801-.134,3.543-.077,5.305-.192.957-.057,1.915-.267,2.872-.344,4.481-.344,8.885-.555,12.409-.938,3.294-.363,5.63-.88,8.756-1.359,1.24-.191,2.52-.172,3.73-.382,1.24-.211,2.35-.651,3.66-.919,2.14-.44,4.57-.268,6.79-.478,1.46-.192,2.99-.383,4.39-.555,1.23-.115,2.39-.498,3.7-.728,9.57-1.722,19.49-1.665,28.72-3.904,5.51.23,11.43-.88,16.95-1.474,5.07-.535,10.18-.516,15.32-.478,1.24.019,2.5-.249,3.71-.077.48.077,1,.326,1.48.383,2.06.192,4.15-.057,6.28.192.46.057.84.363,1.3.459.63.115,1.3,0,1.88.115,1.39.249,2.77.708,4.15.938,1.72.287,3.47.325,5.09.631.89.172,1.63.498,2.49.632.48.076.88-.096,1.4-.039.79.077,1.82.555,2.66.651.62.077,1.25-.038,1.9.057,1.4.192,2.78.709,4.15.977,2.13.401,4.37.421,6.4,1.148,3.05.134,6.45.383,9.88.823.92.115,1.76.478,2.68.631,3.6.594,7.34.651,10.71,1.072,7.75.957,15.07,1.952,21.52,2.469,2.05.555,5.02.651,7.1.899,1.86.23,3.7.613,5.41.804.67.077,1.34.077,2.04.153.37.039.81.173,1.17.211,2.2.268,4.62.555,6.78.823,1.48.21,2.99.421,4.39.631,2.45.23,4.67.536,4.57.555-.38-.095-.72-.172-1.07-.249-.84-.229-1.67-.44-2.43-.631-4.06-1.11-7.7-1.722-11.91-2.469-2.57-.478-4.92-1.206-6.55-1.225-3.52-.899-7.37-1.378-11.43-2.086-4.92-.88-10.59-2.009-14.67-2.315-3.81-1.187-7.58-1.149-11.11-1.799-1.03-.192-1.95-.575-2.99-.747-4.48-.785-9.57-1.32-14.24-1.971-4.58-1.569-9.46-1.55-14.31-3.043-2.08-.211-4.31-.211-6.49-.593-2.58-.46-5.26-1.302-7.95-1.799-1.22-.23-2.56-.211-3.83-.44-.32-.058-.67-.345-1.01-.383-.4-.058-.8.191-1.26.153-.27-.019-1.19-.249-1.57-.326-2.63-.44-4.47-.038-6.57-.21-.52-.038-1.02-.287-1.59-.287-.83,0-1.69.287-2.47.287-3.43,0-6.88-.23-10.29.421-1.7-.23-4.15-.096-6.2.345-4.61.976-10.4,1.129-15.8,1.932-1.43.211-2.66.632-3.69.823-1.19.192-2.57.077-3.76.287-3.88.632-8.35,1.474-12.33,2.067-1.42.211-2.83.249-4.25.479-1.8.287-3.33.899-5.04,1.072-.63.076-1.26-.058-1.89.019-.33.038-.86.382-1.15.421-.29.038-.75-.096-1.04-.077-1.3.134-3.12.574-4.38.804-4.5.842-8.73,1.856-12.926,2.565-2.834.459-5.649.593-8.464,1.148-.498.095-.977.306-1.494.383-5.745.956-11.643,1.435-17.598,2.22-3.964.478-8.062.861-12.026,1.473-1.149,0-2.987.421-5.247.651l.019-.057Z"/></svg>