<svg xmlns="http://www.w3.org/2000/svg" viewBox="0 0 976.3 676.9"><path d="M967.3 6.4 960.1 5s-52.2-.4-77.3-1.3c-25-.8-218.2-.8-242.4 0-24.2.9-231-1.3-292 0C287.1 5.1 3.1 12.3 3.1 12.3S4 37.8 4.4 57.7c.4 20 8.5 220.7 10.6 259.7 2.1 39 5.5 241.8 6 261.3.3 19.6 4.6 70 4.6 70l5 3S49 653 54.2 653s135.5.8 154.6.4c19-.4 379.5-.8 402.4-.8s277.7-1.3 284-2.1c6.4-1 52.7-1.7 54-3.9a61 61 0 0 0 4.6-15.2c.4-4.3 1.7-65 2.2-75.1.4-10.2 5-107.4 5-119.7s6.8-136.2 7.3-142.6c.4-6.3 0-151 .8-170 .8-19.2 2.6-94.7 2.6-94.7l.8-20-5-3ZM708.3 332c-.4 15.3-2.5 193-4.2 204.5s-.9 16.6-14 18.3c-13.2 1.6-193.6 13.5-206.4 12.3-12.7-1.3-73-.5-73-.5-60.7-.4-289.5-12.7-296.3-17-6.8-4.2-14-17.8-14-25.8s-6.8-174-6.8-174-7.2-157-7.2-175.6S73.7 106.8 102 105c28.4-1.7 239-8 275-9 36.2-.8 209-.3 235.7 0 26.7.5 65.8 1 72.2 2.2 6.3 1.3 22.9 7.2 24.6 17 1.7 9.8-.8 201.5-1.3 216.8Z" style="fill:#fff"/><path d="M751.6 68.6s-8-1.2-33.1-.4c-25 .9-78.5.4-113 0-34.3-.4-121.8 2.1-148 2.1s-164.8.5-226.8.5-156.6.8-172 .8S43.2 83 41.9 90.3s.4 46.6.4 59 1.7 137 1.3 159.9c-.4 23 3.8 149 3.8 149L53 585.7l5.5 3s50 1.3 59.8 2.1c9.8.9 120.6 2.6 134.6 3s25.5-.4 34-.4 448.7-3.8 454.2-4.2c5.5-.5 9.3-1.3 10.6-3.9 1.3-2.5-.4-17.8 0-28.4.4-10.6.9-73.4 0-91.7-.9-18.2 5-228.6 5.5-238.4.5-9.8 1.3-149.3 1.3-149.3l.4-7.3-7.2-1.7Zm-43.3 263.5c-.4 15.3-2.5 193-4.2 204.5s-.9 16.6-14 18.3c-13.2 1.6-193.6 13.5-206.4 12.3-12.7-1.3-73-.5-73-.5-60.7-.4-289.5-12.7-296.3-17-6.8-4.2-14-17.8-14-25.8s-6.8-174-6.8-174-7.2-157-7.2-175.6S73.7 106.8 102 105c28.4-1.7 239-8 275-9 36.2-.8 209-.3 235.7 0 26.7.5 65.8 1 72.2 2.2 6.3 1.3 22.9 7.2 24.6 17 1.7 9.8-.8 201.5-1.3 216.8Z" style="fill:#d9d9d9"/><path d="M743.6 104.7c0-12-11.9-19.1-18.7-21.3-6.8-2-24.6-2.5-42.4-3-17.9-.3-93-1.2-105.3-1.6-12.3-.4-121.4 1.7-141.8 2.1s-217.4 3-224.2 3.4c-6.8.4-107 2.1-107 2.1s-31.4.5-36.9 1.3-8.9 9.8-9.8 17.4c-.8 7.6 1 90.8.5 113.3s5.9 129 5.9 135.7 5.1 117.6 5.5 124.4c.4 6.8.4 73.8.4 79.7s9.4 21.7 13.6 23.4c4.3 1.6 17.8.8 24.6.8s44.6 1.3 44.6 1.3 65.4.4 111.7.4 185.1-.8 209.7-.8 236-3.4 250.5-4.3c14.4-.9 10.2-22.5 11-29.3.9-6.8-1.7-104.8-1.7-124.3s3.9-106.9 3.9-123.5 5.9-185.4 5.9-197.2ZM708.3 332c-.4 15.3-2.5 193-4.2 204.5s-.9 16.6-14 18.3c-13.2 1.6-193.6 13.5-206.4 12.3-12.7-1.3-73-.5-73-.5-60.7-.4-289.5-12.7-296.3-17-6.8-4.2-14-17.8-14-25.8s-6.8-174-6.8-174-7.2-157-7.2-175.6S73.7 106.8 102 105c28.4-1.7 239-8 275-9 36.2-.8 209-.3 235.7 0 26.7.5 65.8 1 72.2 2.2 6.3 1.3 22.9 7.2 24.6 17 1.7 9.8-.8 201.5-1.3 216.8Z" style="fill:#b4b4b4"/><path d="M257 572.2a33 33 0 0 0-5.2-.3l5.1.3Zm66.2 1.8h2.9c-.3.2 0 .2.2.3h-2.7c.7-.1.3-.2-.4-.3Zm1 .8c1-.2 5 0 6.8 0-1 .2-5 0-6.7 0Zm72.4-1.6c.7 0 1.7 0 1.5.1h-1.5Zm114.7-1c.6-.2 1.8-.2 3-.2-.7.1-2.1 0-3 .2Zm3-.4 3-.1-1.4.1h2.5c.7 0 .3-.1.2-.2 1.6 0 2.1.2 4 .1-2.2.2-5 .3-7.3.3l-1-.2Zm28.8-1.9 2.9-.2c-.4.2-2 .2-3 .2Zm4.7.6c.3-.1 1.3-.2 1.7-.1h-1.7Zm2 .1.4-.2h2.3c-.4.2-1.7.2-2.7.2Zm5.6-.3h.4c.1-.2-.8-.2-.2-.3h1.7-1l.8.1-1.8.2Zm9.5-.7h1.1-1.1Zm1.8.1 1.3-.1-1.3.1Zm2.2-.3 2.2-.2c-.1.2-1.3.1-2.2.2Zm1.8.6h.2c1.1-.2 2.6-.2 3.4-.3 6-.1 13.4-1 18.9-1l-22.5 1.3Zm25.6-1.5c.6-.2 2.7-.2 4-.3-.6.2-2.7.2-4 .3Zm5.3-.3c.3-.2 2.4-.2 3.4-.3-.5.2-2.2.2-3.4.3Zm5.3-1.9c1.3-.1 3-.3 4.7-.3-.8.2-3.2.2-4.7.3Zm5.3-.3c.1 0 2-.2 1.8 0h-1.8Zm17.9-.3c.5-.2 2.4-.3 3.3-.3l-3.3.3Zm24.3-3c0-.2.8-.3 1-.3l-1 .2Zm12.6.2h.2c2.3-.4 4.9-.6 7.7-.9 4.2-.4 9-1 11.8-1l-19.8 2Zm43.6-16.1c-1 .4-2.2.8-2 1.2 0 .2.6.5-.2 1-.5.2-1.5.4-1.7.6 0 .1.5.2.5.4s-1 .5-1.2.7c-.1.3.4.4.3.6-.2.3-1.3.7-1.6 1l1.3.1c-.1.2-1.1.4-1.5.6 1.4.1-.5.6-1.2 1h1.1c-.3.3-2 .6-1.2.9-1.7.4-3.4.9-1.9 1-.2.2-1.2.3-1.5.5-.2.2 1.3 0 .8.3 0 .2-1.8.2-2 .4-.7.2.5.2 0 .3-2.4.3-3 .7-5.2 1-.5.2 0 .1 0 .3l-9.1 1-9.3 1-18 1.7c-1.5-.1-4 .2-6.6.4-2.6.2-5.2.5-7 .4-1.3.2 0 .3.8.3l-21.8 1.8c.6-.2 2.3-.2 3.1-.4l-24.6 1.7c.5.2 3.3-.3 4.6-.2-4 .4-8.8.6-13 .9-.4-.2.6-.1.4-.2-2.4.1-5.5.2-7.1.4 1.1.1 4.2-.3 5.5-.2-13 1-29.3 1.7-44.9 2.5l2.2-.2a55.8 55.8 0 0 0-6 .4c-11.6.7-25.9 1-37.6 1.4-1.1 0 0-.2-.9-.1-2.7 0-6.5.3-9.8.3-1.1.3-3.8.4-6 .4-1.2 0-1.9-.2-2.9-.1-.7 0-.1.1-.4.1-1.2-.1-2.4.3-3.8 0-1.2.3-3.9.3-6 .4-.7 0-.6-.1-1.2-.2l-15.5.5-1.4-.1c-1.3.2-4.8.3-6.7.2-2.3.3-8.2 0-10.4.3-1.9-.1-4.5.2-7.2 0-1.3.2-3 .3-4.4.1-4 0-9.2.1-12.3 0l-1 .1c-4.2.2-9.3 0-12.1 0-.1-.2 2.1 0 1.8-.2h-12.5c-3 0-6.5 0-8.7.2-1.1-.2-1.8 0-3.1 0l-1.6.1h-2.7l-1.1-.1h-2.7c-.8 0-1.4.2-2.9.2-.7 0 .2-.2-.6-.2-2.9 0-8.2-.3-10 0-1.2 0-.7-.2-1.6-.2a48 48 0 0 0-7 .3c-3.8 0-8-.2-10.2 0l-2-.1h-5.4c-2.1.2-8.7 0-11.5-.4l-1.6.1-2-.2c-8.8-.3-16-.2-22.7-.6l-1.6.1c-1-.3-4.1-.3-4 0-6.8-.1-13.5-.6-20-1h-3l-10.5-.6-13.8-.6-14.2-.9c-9.5-.6-19-1-28.5-1.9 9.6 1.2 21.4 1.5 30.5 2.3h1.7c4.2.5 9.6 1 13.4.9 1 0 .9.1 1.8.2 14.6 1 26.4 1.4 41.9 2.2-1.8.2-5.4-.3-7 0h2.3c.9.5 4.4.3 5.5.6l-11.3-.4c1 .2 3.5.3 5.5.4-7.1-.1-18-.8-25.4-1.2-1-.1.6-.1.7-.2-6.2-.4-14.7-.7-21-1 2.1.3 6.4.3 9 .6-5.5.2-14.5-.9-20.2-1l-15.8-1-15.6-1.3-31-2.8-4-.4c-4.9-.5-9.3-1.2-13.6-1.5-3.6-.7-9-1.2-13.3-2-.8-.1 1.2-.1 1.2-.4 3.2.5 3.8.1 6.7.5-.8-.7-5-1.1-8.8-1.6-.4 0-.1.3-.7.2-2.3-.3-4-.5-6-1 .8-.1 3.8.5 5.4.5.2-.3-4-.8-4.6-1.2-5.5-.9-5.9-1.9-10.7-2.8l2-.2c-.4-.5-4.3-1-6.3-1.4 0-.2.7 0 .8-.2-.5-.3-2-.6-1.3-.8-2.6-1.3-7.3-2.9-8.5-4.5-.4-.5-.5-1-1-1.6-1-.8-3.6-2.1-1.3-2.4 1.8-.2 6 .6 8.9.9 9.7 2 22 3.8 33 5 4.5.7 10 1.3 15 1.8l6.5.7c9 1 20.7 1.8 29.2 2.8 1.8 0 4 .4 6.2.5l2.6.1 6.4.6 3.1.2 8.3.5 6.8.4 7.6.4 1.7.2c2.3.2 4.6.2 7 .3l17.7.9 6.4.4h3.3c5 .3 10.8.8 16.2.9l41.3 1.2 11.1.1 4.2.1h7l18.8.4 5.8-.1h18.2l20.9-.2 16.8-.1c4 0 8.4-.3 12.5-.2h2.2l2-.1h2.4c5.5 0 10.4-.4 15.8-.4l1.5-.1c3.2 0 6.1-.2 8.7-.3 3.8-.2 7.7 0 11.5-.4h2.7l4.9-.1 3-.2c8.3-.4 19.9-.7 28.7-1 2.7-.1 5.5-.4 7.7-.4 4.2 0 10-.5 14.4-.7 3.5-.2 7.1-.3 10.2-.6l7.3-.4 14-.6c17-1.1 35.8-2.2 54-3.7l14.3-1.2c5.2-.4 10.4-1 15.1-1.5 9.3-1 18.7-1.6 28-3l17.2-1.3c.7.1 1.6.1 2 .3l.2-.1Zm-484.9 23.5c-1.3 0-4-.5-4.7-.2 2 .1 3.8.3 4.7.2Zm3.6.2h-1.6c.4 0 1.8.2 1.6 0Zm2.2.1h-1.7c.3 0 2 .2 1.7 0Zm4 .3c-.8 0-2.5-.3-2.4-.1 1 0 2.4.2 2.4 0Zm26.1 1.4c-.4-.2-1.2-.2-1.8-.2v.1c.5 0 1.4.2 1.8 0Zm4 .2c.1-.2-3-.3-3.3-.2l3.3.2Zm4.7.2c-.5-.2-1.7-.2-2-.1.4 0 2 .2 2 0Zm3.8.2c-.1 0-1.3-.2-1.1 0h1.1Zm14-1c-.8 0-1.5 0-1.4.1h1.3Zm24.9.4a8 8 0 0 0-2.2 0c.4 0 2.4.2 2.2 0Zm65.3 1h-1 1Zm36.3-.4-1.1.1c.6 0 1.4 0 1.1-.1Zm4.9 0h-1.1 1.1Zm142-4.1c-.6 0-2.3 0-2.4.2.8 0 2 0 2.4-.2Zm35.2-2c-.9 0-2.2 0-2.5.2.7 0 2 0 2.5-.2Zm36.8-2.6c-1.2.2-2.6 0-2.9.3 1.1 0 2.5-.2 3-.3Zm6.2-.4c.4-.2-1.4 0-1 0h1Zm2.5-.2v-.1l-1 .1h1Zm3-.8-3.3.3c.9 0 2.6-.1 3.4-.3Zm21-1.4h.6c0-.2-.3-.2-1-.1l.3.1Zm2.6-.4c-.4 0-1.3.1-1.1.2.6 0 1 0 1-.2Zm-100.6 8.6c.9-.2 2-.1 3.8-.2.7-.1-.5-.2 0-.2l29.1-1.8-2.4.3h2c-11.2.9-21.3 1.5-32.5 2Zm85-5.8 7.7-1c-.4 0-2.8.4-2.9.3l28-3c.4.1-.2.3.7.2l4.6-.5c-2.3.5-6 1-8.2 1l-1.7.4c-9 .7-18.3 1.7-28.2 2.6Z"/><path d="M96.5 515.5c.2 4.2-.3 8-.2 12 .2 3.3.3 7.8.8 11.7a20 20 0 0 0 3 9c1 1.4 2.7 2.4 4.2 2.6 1.5.3 2.6-.2 2.8-1 .7-1.4-1.2-2.5-.5-4l.7-.6c.3-.2.4-.4.4-.6v-.7l-.3-2.8a67 67 0 0 1-.3-5.5V528c-.1-5.1-.3-10-.6-14-.5-7.7-2.1-17.6-2.5-25.7-.4-16-.2-28.3-1-42.8l-2.2-41.6c-.5-10.5-.2-20.6-.6-30.8-.3-5.6-1-11.3-1.3-16.9-1-26.2-1.5-51.7-2.5-72.4-.9-19.3-2.2-33.2-3-51.6-.5-7.4-.2-14.7-.6-21.8-.4-7.4-1.4-14-1.8-21.8-.7-12.7.3-26.7.3-39.7v-25.7c.2-3.5 0-7.6.2-9.6 0-1 .3-1.5.2-1.6v-.1c.1-.1.4-.3 1-.4a30 30 0 0 1 4.3-.5l5.3-.4 10.6-.7 21.3-1.2c14.2-.8 28.4-1.3 42.6-1.8 28.3-1 56.4-2 83.8-4 32 .7 66.8-1 99.4-1.7 30-.8 60-.3 90.5-.5 7.4 0 14.7-.7 22-.5 2.8 0 6 .5 8.9.5 12.3 0 24.3-.9 36.8-1 2.7 0 5.3.6 8 .7 3.7 0 7.5-.4 11-.3 8.2.1 16.6.6 24.8.7 10.2.2 20.2-.3 29.8 0 5.3 0 9.9.6 15 .6 2.8 0 4.8-.4 8-.4 4.6 0 11 .7 15.8.8 3.7 0 7-.4 11-.3 8.2.1 16.6 1 24.8 1.4 6.3.3 12.7.4 19 .5 3.2.1 6.4.2 9.4 1a10 10 0 0 1 6.8 5.4c2.2 3.7 2.3 8.5 2.8 13a397.4 397.4 0 0 1 2.3 44c0 5.5-.6 10.7-.8 16-.5 21.3-.1 43-.7 62.7-1.2 45.5-2.9 88.5-2.8 126.3-1.6 12.2-.9 29.5-1.1 41.7-.2 11-1.4 21.8-1.6 31.8 0 4 .5 7.9.4 12 0 2.2-.6 4.7-.7 7-.4 12.8 0 27-.6 39.7-.3 9-1.2 17.6-1.8 25.8.3 14.3 3.4 27.5 7 27 2.6-.3 5-9.6 5.9-20.7 2.1-24.2-.4-45.8-.1-70.7.1-15.1 2-29.2.5-38.7 1.7-21 1-43.6 1.7-67.7.7-29 2.1-62.6 1.7-86.5 2.2-22.8 1-44.7 1.7-65.6.2-6.2 1-11.8 1-18a685.5 685.5 0 0 0-1.9-64l-.4-5.5c-.2-1.7-.3-3.7-.7-6-.5-2.4-1.1-5.1-2.6-8a19 19 0 0 0-6.9-7.4 24.1 24.1 0 0 0-8-3.5c-2.4-.6-4.6-.8-6.7-1l-5.4-.3-5.4-.3-21.4-.7c-14.4-.3-29-.4-44-1.4-12.3.2-25 .9-37.9.7-15.3-.1-31.4-1-46.8-1.2-7-.1-14.6.3-22 .2-1.9 0-4-.6-6-.6-2.2 0-4.3.6-7 .6l-8.9-.3c-14.8-.4-24.9.6-36.8.4-3 0-5.8-.5-9-.5-4.6 0-9.4.6-14 .6-19.4 0-39-.8-58.7.3-9.7-.6-24-.5-35.9.1-27.1 1.6-60.9 1.4-92.6 2.6-8.4.3-15.7 1.2-21.9 1.5-7 .3-15 0-21.9.3-22.9 1.1-49.3 2.9-72.6 4.3-8.3.4-16.6.5-24.8 1-2.6.2-5.7.2-8.9 1.8-1.5.8-3 2-3.9 3.5a13 13 0 0 0-1.8 4.4c-.6 2.9-.4 5.5-.4 8v7.3c-.2 3.8-.8 7.3-.8 11 0 2 .6 5.2.6 7 0 1.7-.5 4.2-.5 6-.2 7.5.4 18.3.5 25.8.8 26.7 2.6 51.8 3.6 76.6.8 16.7.5 33.1 1.6 49.7.2 2.9.7 5.8 1 9 1.8 33.8 2.3 68.3 4 103.3 1.1 23.3 1.1 47.2 3.3 70.5-1 6.7 1.3 17.5 1.9 30.8Z"/><path d="M96.3 560.7c1-1.1 2.4-1.8 3.3-2.5.2-.2.3-.7.6-.8.8-.2 2-.2 2.2-1.1l-.2-.7c.1-.8 1.5-.4 1.7-1 .2-.6 1-.3 1.2-.7.2-.3 0-1 .2-1.3.3-1 1.4-1.2 2-1.7.6-.3 1-1 1.6-1.1.3 0 .4-.4.7-.3l.8.5c.4 0 .5-.4 1-.4.6-.1 1.6.5 1.6.1 0-.5-1.5-3.4-2.5-4.7-1-1.3-3.3-3.8-4.1-4.4-.9-.7-.9 0-1.7-.7-.7 1.2-1.8 2-2.7 2.7-.5.4-1.3.7-2 1-.2.1-.1.6-.3.8-.6.4-1.6.2-1.5 1.1.1.7-.6.4-.9.7-.3.4-.3 1.4-.7 1.7-1.5-.8-1.4 1-2.4 1-2.2.2-2.1 3.5-4.5 3.5.1 1-.8.8-1.2 1-.2 0 0 .7-.2 1-.3.7-1.4.5-1.8 1v1s-.5-.2-.6-.1c-.2 0-.2.5-.3.8-.5.9-.8 1.6-1.8 1.4.2.8-.3 1-.7 1.1-.5.2-1.3.1-1.4.8 0 .2.1.7 0 .8-.1.6-1 .7-1.4.9-.3 0 0 .9-.3 1.1-.1.1-.5-.2-.6-.1-.3.2-.1 1.1-.5 1.2-.7.2-1 .9-1.4 1.4-.2 0 .6 1 .4.9a4 4 0 0 0-2-.5c-.8 0-.6 1.4-1.2 1.8-.3.2-1.2-.3-.7.6-1.8-.6-2.4 1-2.7 2.2.6 1.2 0 1.3.7 2.7-.9.2 1.5 3.5 4.3 6 .8.5 1.7 1.2 2 1 .2 0-.3-1.3 0-1.5.1 0 .7.3.8.2.3 0 0-.9.3-1.1.1-.1.6.2.6 0 .1 0-.2-.6 0-.7h.6v-.6c.7-.6 2.5 0 2.1-1.7 1.2 1.2.8 0 1-.1.3-.3 1.2.3 1.5 0 0-.1-.3-.7-.2-.8 0-.1.5.2.6.1.1-.1 0-.6 0-.8 0-.5.4-.5.6-.8.5-.9.7-2.2 1.6-2.7.2-.2.8.2 1 0 .5-.2.4-1 .6-1.5.1-.5 1-.3 1.2-.7v-.6c.2-.2.7.2.8-.1.3-.5.1-1.6 1-1.3-.7-1.2.3-.3-.2-1.3 1.3.6 1.7-.4 1.4-1.7.5 0 .9-.4 1-1 1.3.7 1.2-.5 1.7-1Zm600.5-8 1.6.2c1 .1 1.4 1 2 1.4l1.4 1.2a7 7 0 0 1 1.7 1.3c.7 1 1.8 1.4 2.7 2 .6.5 1 1.3 1.6 1.9l1 .6 2.7 2.4 1.2.8 2 2.3c.4.3.8.4 1 .7.2.1.3.4.4.6.2.1.1.4.3.6h.3c.3.3.4.6.6 1l.4.1c.6.6.8 1.6 1.5 2.2.7.7 1.4 1.3 1.8 2.2.1.5.6.6.9.9l1.1.7.9.4 2 .4c.5.2 1 .7 1.7.5.3.2.4.6.6 1 .3.2 1 0 2.2-1.1a860.9 860.9 0 0 1 3.9-3.5l.3-.4.6-.6c.2-.3 0-.3 0-.6v-.4c-.5-.5-1-.8-1.7-1-1.1-.5-1.8-1.3-2.8-2-.7-.4-1-1-1.4-1.7-.7-1-2.1-1.5-2.2-3-.4-.2-.4-.6-.7-.9h-.4c-.2-.3-.2-.7-.7-.6a4 4 0 0 0-2.5-2.6c.1-.7-1-.6-.8-1.4h-.3c-.4-.8-1.6-1-2.3-1.6-.2-.1-.2-.4-.3-.4h-.3v-.4l-.6-.1c-.2-.3-.2-.7-.5-.8l-.7-.1c.3-.5-.3-.2-.2-.6-.6.2-.5-.6-1.1-.5 0-.2-.3-.2-.3-.3-.1-.1-.1-.4-.3-.5l-1.5-1.4h-.3v-.3c-.3-.2-.7-.2-1-.3-.6-.2-.8-1-1.3-1.3-.3-.1-.7-.2-.9-.4v-.4l-.5-.2c-.1-.4-.7-.5-1-.8-.3-.2-.4-.8-.7-1l-.3.1v-.3h-.2c-.3-.3-.3-.6-.8-.4.2-.6-.9.1-.6-.6-.4.3-.3 0-.4-.1h-.4l-.4-.1-1.1.2-.7.1c-.7.8-1 .5-1.5 1-.3.4-.1.4-.4.7l-.7.5-.3.5c-.3 0-.5.4-1 .9-.5.4-.7.5-1.2 1.2l-1 .9-.5.7c.2 0 .2.5.4.5ZM96.7 101h-1.9c-1-.1-1.4-1-2.2-1.4-.5-.4-1-1-1.5-1.2-.7-.3-1.4-.7-1.9-1.2-.8-1-2-1.2-3-1.7-.8-.4-1.3-1.2-2-1.6l-1.1-.5-3.4-1.6-1.4-.5c-1-.5-1.7-1.3-2.7-1.7-.4-.2-.9 0-1.2-.3-.2 0-.3-.3-.5-.5-.2 0-.2-.4-.4-.5H73c-.3 0-.5-.4-.8-.6H72c-.8-.4-1.4-1.3-2.2-1.7-.9-.3-1.8-.6-2.4-1.4-.3-.4-.8-.3-1.2-.4-.5-.2-.9-.2-1.4-.2h-1c-.6.1-1.4.6-2 .7-.7 0-1.2-.1-1.9.4-.4 0-.6-.4-1-.5-.2-.1-.8.5-1.7 2.3l-1 2.3c-.5 1-1.4 2.8-1.7 3.7l-.2.7-.4.9.1.6c.1.2.1.4.3.4.5.2 1 .2 1.8.1 1.2-.2 2 .2 3.2.3.7.1 1.2.6 1.7 1 .9.8 2.4.5 2.8 2 .4 0 .5.4.8.6l.4-.2c.2.2.3.6.8.3.5 1.1 1.6 1.6 2.8 1.5 0 .8 1.1 0 1 1.1l.3-.2c.5.7 1.8.3 2.5.7l.3.4s.2-.2.3-.1l.1.2c.1.2.5-.1.6 0 .2.2.3.6.5.7l.7-.2c-.2.6.3 0 .2.5.7-.5.6.4 1.3 0 0 .4.2.2.3.3 0 .1 0 .4.2.4.6.3 1 .8 1.6 1h.3v.3c.3.2.7 0 1 0 .6 0 .9.8 1.4 1 .2.1.7 0 .8.3v.4h.5c0 .5.6.4 1 .7.2.1.3.8.6.8l.3-.1-.1.3h.3c.2.3.2.6.7.3-.2.8 1-.3.6.6.4-.5.2 0 .4 0l.4-.2.4.1 1.2-.4c.2 0 .4 0 .7-.3.9-1 1-.7 1.8-1.4l.5-.7c.4-.4.4-.2.8-.7l.5-.7c.2 0 .6-.5 1.2-1l1.4-1.6 1.3-1.1.6-.9c-.2 0-.2-.5-.4-.6ZM711 115.5v-.6l.1-.7c.2-.8 1-.7 1.7-1.1.4-.3 1-.4 1.5-.8s1.1-.8 1.8-.9c1-.2 1.9-1 2.8-1.6.7-.4 1.6-.3 2.3-.6l1-.7 3.2-1.7c.4-.3.7-.6 1.2-.8l1.5-.6 1-.3.4-.3.4-.2c.4-.2.6-.7 1-.9l.7-.1c.2-.2.5 0 .7-.1l.2-.4 1-.4c.2 0 .2-.3.3-.3.8-.6 2-.6 2.7-1.2.8-.6 1.5-1.3 2.5-1.4.5-.1.7-.6 1-.9l.8-1 .4-.9c.2-.6.2-1.6.5-2.1.2-.6.6-1 .5-1.8.2-.4.7-.3 1-.5.2-.2 0-1-1-2.8l-1.4-2c-.6-1-1.6-2.7-2.2-3.4l-.5-.6-.6-.8c-.3-.3-.3 0-.6-.2h-.5a4 4 0 0 0-1.2 1.6c-.5 1.2-1.4 1.8-2 2.8-.5.6-1.2.8-1.9 1-1 .4-1.5 1.9-3 1.4-.2.4-.6.3-.9.4v.5c-.3 0-.7-.1-.6.5-1.2-.2-2 .4-2.6 1.4-.3-.2-.5.1-.6.2 0 .1-.2.3-.6-.1 0 0 .1.3 0 .4-.8-.1-1.3 1.2-2 1.5h-.5l-.1.4h-.3c-.2 0-.2.4-.3.5-.3 0-.7-.2-1 0 0 0 0 .5-.2.7-.4-.6-.3.2-.6-.2 0 .9-.8.3-.8 1-.3-.2-.3.1-.4.1h-.5c-.6.4-1.3.4-2 .8v.3l-.4-.1c-.2 0-.3.5-.5.7-.5.6-1.3.4-1.7.8-.3.2-.5.6-.8.6l-.3-.2c-.2 0-.2.2-.3.4-.5-.1-.8.4-1.2.6-.3.2-.9 0-1.2.2v.3l-.3-.2s0 .2-.2.2c-.3.2-.6 0-.6.7-.6-.6-.2 1-.9.3.2.6-.1.2-.2.3v.5c0 .2-.3.2-.4.3l-.1 1.4c0 .3-.2.4 0 .8.5 1.2.2 1.3.6 2.2l.6.7c.2.4 0 .4.4 1l.5.5c0 .3.4.8.8 1.5.4.6.5.9 1.2 1.7l1 1.4c0 .2.3.5.6.8l.3.1h-.1Z"/><path d="m69.3 562.9-.2 3.8c0 2.2.5 5.6.8 7.3.7 3.1 2.8 6.2 3.8 4.1a67 67 0 0 0 .6-15.8c-.2-2.4-.9-5.6-1-8.2 0-5 .4-9 .3-13.7l-.3-13.4c0-3.4.3-6.6.3-10 0-1.8-.4-3.7-.4-5.5 0-8.5 0-16.9-.4-23.5-.3-6.3-1-10.8-1.4-16.7-.1-2.4 0-4.8-.2-7.1-.2-2.4-.7-4.5-1-7-.4-4.1 0-8.7-.1-12.9l-.5-8.3c0-2.4-.4-4.6-.6-7.1-1.3-18.3-.7-37-2.6-54.6.5-10.3-.3-21.6-.8-32.1-.4-9.7-.4-19.4-.8-29.2 0-2.4-.5-4.8-.5-7l.2-3c-.1-4-.7-7.8-.9-11.8l.2-2.6c0-1.2-.3-2.4-.3-3.5v-8c-.1-3.4-.6-6.6-.7-9.7 0-1.7.2-3.2 0-4.8 0-1-.2-1.6-.3-2.6v-5c0-1.2-.3-2.3-.4-3.6l.1-8c0-4-.5-8.2 0-12.2-.5-5.7-.9-12.1-1-18.6 0-1.8.2-3.4.3-5.2 0-6.8-.6-13.8-.7-20.2-.1-14.7 0-28.6-.7-40.8.6-4 0-9.5 0-13.5-.1-3.5.3-7 .3-10.3 0-1.2-.3-2.5-.3-3.8l.2-2.3c0-4.1-.2-8.7-.1-12.8 0-3 .4-5.7.7-8.4-.2-4.6-1.8-9-3.6-8.9-1.2 0-2.4 3.1-2.9 6.8a47 47 0 0 0 0 11.4c.3 3.8.7 7.6.7 11.6.1 4.9-.6 9.5.2 12.6-.5 6.8.2 14 .3 21.8 0 9.4-.1 20.3.5 28-.7 7.4.3 14.5.3 21.2 0 2-.3 3.8-.3 5.8.1 8.6.6 18.3 1 27.3-.6 9.1.6 18.3.3 28 .4 4 1 8 1.2 12.2.2 5 0 10.1.1 15 0 2.3.4 4.8.4 7.1l-.2 2c0 .7.3 1.4.4 2.2v2.9c0 4.8.5 8 .5 11.9l-.2 2.9c0 1.5.4 3 .5 4.5.1 6.3-.1 12.5.5 19-.3 3-.3 7.6 0 11.5.8 8.7.7 19.6 1.1 29.8l.7 7.1v7c.4 7.5 1 16 1.3 23.5.1 2.7 0 5.4.2 8 .1 3.5.7 6.4.7 9.7l-.1 3.5c0 .6.4 1.7.4 2.2l-.2 2c0 2.4.4 6 .5 8.3l2 24.7c.2 5.4 0 10.7.5 16l.3 3c.7 11 .2 22.1.4 33.4 0 7.5-.4 15.3.3 22.8-.5 2.1.4 5.6.6 9.9Z"/><path d="M107.6 579.7c-3.2 0-6-.4-9-.5a319.3 319.3 0 0 0-13.7 0h-1l-1.4-.2-1.1-.4-.9-.4a30.4 30.4 0 0 1-9.5-8l-.6-1.2-.5-2c-.2-.3-.4-.2-.6.5a6 6 0 0 0-.2 1.5c0 .5 0 1.2.2 1.8a16 16 0 0 0 4 7 24 24 0 0 0 6.3 4.9l1.2.5a21.4 21.4 0 0 0 2.7.6h1.2l1.4.1c7.3.5 16 .9 22 .9s13.5-.4 19.7-.3c12 .4 21.3 1 32.3 1.2l31.7.3c7.9.1 15.5.6 23.3.8 4.2 0 8.6-.2 12.8-.1 19.9.3 39.3.8 55 .9 14.6 0 25.2-.2 39.2-.3l16.6.2c5.6 0 10.6-.4 16.5-.5 9.7-.2 20.3.5 30.2.5H405c5.4 0 10.7-.1 16.6-.4 42.9-1.1 86.5-.8 128-2.9 24.2.3 50.7-.6 75.4-1.2 22.6-.5 45.4-1 68.5-1.3 5.5-.2 11-.6 16.5-.7 2.2 0 4.5.3 6.7.4 2.4.1 4.7.2 7 0a32 32 0 0 0 7.2-.9c.6-.2 1.2-.3 1.8-.7l1-.7.7-.8c.7-1.3.8-2.6 1.1-3.6.7-2.2 1.5-4.4 2-6.8l.4-1.6.1-1.5.2-3-.2-8.3v-18.8c0-7.8-.4-15.3-.5-22.6 0-4 .2-7.5.1-11.3 0-2.1-.3-3.7-.4-6 0-3.5.2-8.4.1-12 0-2.8-.3-5.4-.3-8.4-.1-6.1.1-12.5.2-18.8l-.1-14.3c0-4.8.2-9.6.6-14.2 0-13.4 0-28.5.5-43.7.1-4.1.5-8 .7-12 .6-16.1.5-32.5 1-47.5.9-34.4 2-67 2.2-95.5 1-9.3.7-22.3.9-31.6.2-8.3.8-16.5 1-24v-9.1l.3-5.3c.3-9.7.2-20.4.6-30 .2-6.8.7-13.4 1.1-19.6 0-10.9-1.6-20.9-3.3-20.5-1.3.2-2.5 7.2-3.1 15.6-1.3 18.3-.1 34.7-.5 53.5-.1 11.5-1.2 22.1-.5 29.4-1 15.8-.8 33-1.3 51.2-.6 22-1.6 47.4-1.5 65.4-1.3 17.3-.8 33.9-1.4 49.7-.1 4.6-.5 8.9-.7 13.5-.6 20.1-.8 43-1.2 64l-.4 8c-.2 3-.2 5.5-.2 8.3l.1 16.2c.2 10.9.4 22 .2 33.3.3 9.3.9 18.9 1 28.5.2 11.6 0 23.8 0 35.4v5.6l-.4 1.5-1.1 3.8-.7 2-.3 1.3-.2.7-.2.4v.2l1.1.9-.1-.1-.2-.2-.7-1c-.1-.1-.1 0-.2 0l-.4.1c-1 .3-2.4.8-4.2 1-1 0-4.8 0-6.5-.2-2.7-.1-5.2-.3-8-.2l-6.9.2c-4.4.2-8.6.4-13.1.4-2.2 0-4.4-.2-6.8-.1-3.5 0-7.1.4-10.5.5-14.8.3-29.5.2-44.4.8-7.4-.2-18 0-27.2.3-20.5 1-46 1-70 1.5-6.4.1-11.9.5-16.5.7H499c-17.4.6-37.3 1.2-55 1.5l-18.8.1c-8 .2-15 .6-22.6.6-2.8 0-5.5-.3-8.3-.4l-5.2.3-4.5-.3H365c-20.2.1-39.3.5-58 .4-12.7 0-25-.6-37.7-.5l-6.7.2c-25.8 0-51.8-.9-78.4-1.3-17.6-.3-35.7-1.1-53.4-1-5-.7-13.3 0-23.4-.2Z"/><path d="M78.6 84.2c-1.9 0-3.5-.3-5.3-.2-3 0-7.8.7-10.1 1.2-4.3 1.1-8.4 4.3-5.5 5.9a143.5 143.5 0 0 0 21.6.7c3.4-.3 7.8-1.3 11.4-1.4 7 .1 12.6.7 19 .5l18.8-.7c4.7-.2 9.2.3 13.8.2 2.5 0 5.1-.6 7.6-.6 11.7-.3 23.2-.2 32.4-.5 8.6-.3 14.8-.9 23.1-1.2 3.4 0 6.7.2 9.9 0 3.3-.2 6.3-.8 9.8-1 5.7-.5 12 .3 17.9.3l11.6-.3c3.2 0 6.3-.4 9.8-.6 25.4-1.2 51.2.4 75.8-1.7 14.4 1.2 30 .4 44.6.1 13.5-.2 27 .1 40.6 0 3.3-.1 6.6-.6 9.9-.6 1.2 0 2.7.4 4 .4 5.5 0 10.8-.8 16.5-1 1.2 0 2.3.4 3.5.4 1.7 0 3.4-.3 5-.3l11 .2c4.7-.1 9.1-.7 13.5-.7 2.3 0 4.4.2 6.7 0 1.2 0 2.2-.4 3.5-.5 2.1-.2 5 .2 7.2 0 1.6 0 3.1-.4 4.9-.5 3.6-.1 7.4.3 11.1.3 5.7.1 11.4-.5 17 .2 7.9-.5 16.8-.9 25.8-.8 2.4 0 4.7.5 7.1.5 9.6.4 19.3-.2 28.2 0 20.4.3 39.6 1.1 56.6.9 5.5 1.1 13.2.6 18.7.7 5 .2 9.8 1 14.3 1.3 1.7.1 3.5-.2 5.3-.2l3.1.6c5.8.5 12.2.5 17.9 1.2a96 96 0 0 1 11.4 2.4c3.2.2 6.4 0 9-.2l3.7-.3c1.3 0 2.2 0 2.5-.7.3-.4 0-1.2-.8-2.2l-1.2-1.2-1.4-1.2c-2-1.5-4.6-2.6-7.3-3.4a60 60 0 0 0-16.5-2c-5.3 0-10.6.2-16.2 0-7-.4-13.2-1.8-17.6-.8-9.4-1.3-19.6-.8-30.5-1.1-13-.5-28.1-1.2-38.9-.5-10.2-1.5-20-.2-29.5-.5-2.7-.1-5.2-.6-8-.6-12-.2-25.5.3-38 .6-12.6-1.2-25.4.4-39 0l-8.2.9-8.5.6c-6.9.2-14-.2-21-.2-3.1 0-6.5.3-9.8.3-.8 0-1.8-.4-2.7-.4-1 0-2 .5-3 .5l-4.1-.2c-6.6-.2-11.2.6-16.5.5-1.3 0-2.6-.4-4-.4-2.1 0-4.3.5-6.3.5-8.7 0-17.4-.6-26.3 0-4.3-.5-10.7-.6-16-.3-12.2.8-27.3.1-41.5.5-3.8 0-7 .5-9.8.6-3.2 0-6.7-.4-9.8-.3-10.3.3-22.1.8-32.6 1-3.8 0-7.4-.2-11.2-.1-4.7 0-8.8.8-13.3.7-1.7 0-3.3-.4-5-.4-.8 0-2.3.5-3 .5l-2.7-.3c-3.4-.1-8.3.3-11.6.4-12 .4-23.3 1.4-34.4 1.6-7.5.1-14.9-.4-22.3.1l-4 .5c-15.2.8-30.7.5-46.4 1-10.4.2-21.2-.4-31.6.6-3-.9-7.9.5-13.8.7h.1Zm153.5 547.4c-1.1-.2-4.9-.2-6-.2l6 .2Zm77.8.5h3.4c-.3.2 0 .1.2.2h-3.1c.8 0 .3-.1-.5-.2Zm1.3.6c1-.2 5.8 0 7.8 0-1.2.3-5.7.1-7.8 0Zm84.8-1.5c.8 0 2 0 1.8.1-.6 0-2 0-1.8-.1Zm134.7-.1c.8-.2 2.1 0 3.7-.1h-3.7Zm3.7-.3h3.4-1.6 2.9c.8 0 .3 0 .3-.1l4.7.2-8.7.1-1-.2Zm33.7-1.3c.3-.2 2.3-.1 3.4-.2-.4.2-2.2.1-3.4.2Zm5.5.6c.4 0 1.6-.2 2.1-.1h-2Zm2.4.1.5-.2h2.6c-.4.2-2 .2-3.1.2Zm6.5-.2h.5c.2-.2-.9-.1-.2-.2h2-1.2l1 .1-2 .1Zm11.3-.5h1.3-1.3Zm2 .2 1.6-.1H596Zm2.7-.3 2.6-.1c-.2.2-1.6 0-2.6 0Zm2 .6h.3l4-.3c7.1 0 15.7-.5 22.2-.5l-26.4.8Zm30.2-1 4.7-.1-4.7.2Zm6.2-.1c.4-.2 2.8 0 4-.2-.6.2-2.6.1-4 .2Zm6.3-1.6 5.5-.2c-1 .2-3.8.1-5.5.2Zm6.2-.2c.2 0 2.4-.2 2.1 0h-2Zm21 0 4-.1-4 .2Zm28.7-2.2h1.3-1.3Zm14.7.7.3-.1c2.7-.3 5.8-.3 9.1-.5 4.9-.2 10.5-.7 13.9-.7-6.6.5-16.3 1-23.3 1.3Zm52.6-13.2c-1.2.4-2.7.7-2.6 1 0 .3.8.5-.2.9-.6.2-1.9.3-2 .5-.1.2.5.2.5.4s-1.3.4-1.5.7c-.2.1.5.3.3.4-.3.3-1.6.6-2 .8l1.6.2c-.2.2-1.4.3-1.8.5 1.5.2-.7.5-1.6.8l1.4.1c-.5.3-2.4.5-1.5.7-2.1.3-4.1.7-2.3 1-.4 0-1.5.1-1.9.3-.2.2 1.5 0 .8.3.2.1-2 .1-2.3.2-.9.2.6.3 0 .4-2.8.1-3.6.5-6.2.6-.6.2 0 .2 0 .3-14.2.9-29.4 1.6-42.9 2.3-3.5-.3-12 .7-16 .4-1.6.2 0 .3.9.4-8.3.3-17.4.8-25.6 1l3.6-.2-29 1c.6.2 3.9-.2 5.5 0l-15.5.5c-.3-.1.9-.1.6-.2-2.9 0-6.5 0-8.4.3 1.4.1 5-.3 6.5-.1-15.4.6-34.5 1-52.8 1.5.3-.2 2.1 0 2.6-.2a87.6 87.6 0 0 0-7 .2c-13.7.6-30.5.6-44.3.8h-1a4274.5 4274.5 0 0 0-18.6.4c-1.4 0-2.2-.2-3.4-.1-.8 0-.2.1-.5.1-1.3-.1-2.8.2-4.5 0-1.3.2-4.5.2-7 .2l-1.4-.1-18.3.3-1.5-.2a51 51 0 0 1-7.9.1c-2.7.3-9.7 0-12.3.3h-8.3c-1.6.1-3.6.2-5.3 0-4.6 0-10.8.1-14.4-.1l-1.3.1h-14.1c-.1-.2 2.5 0 2.1-.2H391l-10.3.1h-3.6c-1 0-1.2.2-1.8.2H372l-1.3-.1h-3.1l-3.4.1c-.9 0 .1-.1-.8-.2-3.4.1-9.6-.2-11.8.1-1.3 0-.8-.2-1.8-.2-2.9.1-6.3.1-8.1.4-4.5 0-9.5-.2-12 0l-2.4-.1H321c-2.6.2-10.2 0-13.6-.2h-4.1c-10.3-.2-18.7 0-26.7-.3h-1.9c-1.1-.2-4.8-.2-4.7.1l-23.5-.4H243l-12.3-.3c-21.5-.5-44.1-.6-66.5-1.3 11.4.6 25.3.6 35.9 1h2c5 .2 11.4.4 15.8.3l2 .2c17.3.6 31 .6 49.2 1.1-2 .2-6.3-.2-8.1 0h2.6c1.1.4 5.2.2 6.5.5l-13.3-.2c1.2.2 4.2.2 6.5.3-8.4 0-21.1-.3-29.8-.6-1.3 0 .7 0 .8-.1a955 955 0 0 0-24.6-.5c2.4.2 7.4.1 10.4.3-6.3.2-17-.3-23.5-.2-25-.5-49-1.3-73.3-2h-4.7c-5.8-.2-11-.5-16-.4-4.3-.5-10.5-.5-15.6-.9-1-.1 1.4-.3 1.3-.4 3.8.1 4.4-.2 7.9-.1-1-.5-6-.6-10.5-.8-.5 0 0 .2-.8.2-2.6-.1-4.8-.1-7-.4.9-.2 4.4 0 6.3 0 .2-.4-4.8-.4-5.5-.7-6.5-.3-7.1-1.1-12.8-1.5l2.4-.4c-.6-.4-5.3-.4-7.6-.7 0-.1.8 0 .8-.2-.5-.2-2.4-.3-1.5-.6-3.3-1-9-1.9-10.7-3.2-.5-.4-.6-.9-1.5-1.3-1.2-.7-4.4-1.6-1.7-2 2-.4 7-.1 10.4-.1 11.7.8 26.4 1.2 39.5 1.7a20373.3 20373.3 0 0 0 25.3.7L156 619c2.2-.1 4.8.1 7.4.2h3l7.7.3h3.6l9.7.2 8.1.1h8.9l2 .2 8.2.1 20.9.4 7.6.3h3.9c6 0 12.7.2 19 .4 15 .1 32.2.2 48.7.5l13 .1h13.1l22.3.2h28.1l24.6-.1h19.8l14.6-.2h7.9l18.5-.2 1.8-.1c3.7.1 7.2 0 10.2-.2 4.5-.1 9 0 13.6-.2 1.1.1 1.8 0 3.2 0h5.7l3.7-.2 33.6-.5c3.3 0 6.5-.3 9.2-.3 4.8 0 11.6-.3 17-.4l12-.3c2.5-.2 5.8-.2 8.6-.3l16.4-.4 31.3-1c10.7-.3 21.6-1 32.3-1.3l17-.7 18-1 16.5-.9c5.6-.2 11.1-.6 16.7-1l20.4-.6 2.3.3h.3Zm-570.9 18.3c-1.5 0-4.8-.2-5.5 0 2.2.1 4.4.2 5.5 0Zm4.2.1h-1.8 1.8Zm2.6 0h-2c.4 0 2.3.2 2 0Zm4.7 0c-1 0-3 0-2.8.1h2.8Zm30.6.8v-.1h-2 2Zm4.7 0c0-.1-3.6-.2-3.9 0h4Zm5.5 0h-2.3c.4.1 2.3.2 2.3 0Zm4.5.2H251h1.3Zm16.2-1.1H267c.5.1 1.9.2 1.5 0Zm29.4 0h-2.7 2.7Zm76.6.6v-.1h-1 1Zm42.7-.4c-.7 0-1.4 0-1.3.1h1.3Zm5.7 0h-1.3 1.3Zm167-2.1h-3 3Zm41.2-1.3-2.8.1h2.8Zm43.4-1.6c-1.4.1-3 0-3.4.2 1.3 0 3 0 3.4-.2Zm7.4-.2h-1.4 1.4Zm2.8-.1v-.1h-1 1Zm3.7-.6Zm24.5-.8.8-.1h-1 .2Zm3.2-.3c-.4 0-1.5 0-1.3.1h1.3Zm-118.4 5.7c1-.2 2.4-.1 4.4-.2.9 0-.6-.1 0-.2l34.3-1-2.9.1c0 .2 2 0 2.4.2-13.3.5-25.1 1-38.2 1.1Zm99.9-3.7 9.1-.6c-.5 0-3.3.3-3.4.1l33-1.8c.4 0-.3.2.7.1 1.7 0 4.5-.3 5.5-.2-2.7.3-7 .6-9.6.7l-2.1.2-33.2 1.5Z"/><path d="M35.8 281.3c-.2 2.1 0 9 0 11.1v-11ZM34.4 137v-6.3l.1-.5v5.8c0-1.4-.1-.6-.1 1Zm.5-2.4c-.2-2 0-11 0-14.7v14.7Zm64.2-90c1.6 0 3.8 0 3.4.2-1.1 0-3.8 0-3.4-.1Zm250.6 3.7c1.5-.2 4 0 6.8 0h-6.8Zm6.8-.2h6.3-3l5.4.1c1.6 0 .7 0 .5-.2l8.8.2h-18Zm62.8-1h6.3-6.3Zm10.2.6h3.9-3.9Zm4.4.1 1-.1h4.8c-.7.2-3.7.1-5.8.1Zm12.1 0 1-.1c.3-.1-1.7-.1-.5-.2h4-2.5l2 .1-4 .1Zm21-.4h2.4-2.4Zm3.9 0Zm4.8-.1 4.9-.1h-4.9Zm4 .5h.4l7.3-.2 41.4-.3-49.2.5Zm55.9-.6 8.7-.1-8.7.1Zm11.6 0c.7-.2 5.1-.1 7.3-.2l-7.2.1Zm11.7-1.3 10.3-.2c-1.7.2-7 .1-10.3.2Zm11.7-.2h3.9-3.9Zm39 .5ZM663 45h2.5-2.5Zm27.3 1.2h17.5a3452.6 3452.6 0 0 0-17.5 0Zm86.4 16.7-5.2 2.6.2-.2h.9l2.1-.3h2.5v-.4l-.1-.7-.1-1.7c-.1-1-.2-1.6-.4-1.5-.2.1-.4 1.4-.7-.5 0-1.2-.1-3.7-.3-4-.1-.3-.2 1-.3 1-.2 0-.4-2.6-.6-3-.2-.4-.3.8-.4.5-.2-.6-.6-3.3-.9-4v3c-.1-.4-.3-2.7-.6-3.5.1 3-.4-1.3-1.3-3 0-.1.6 2.4.5 2.6l-.8-2.4c-.4-.8-.7-1.2-.5-.4a4 4 0 0 0-.9-1.4l-.7-.5h-.8c-.9-.1-1.6-.2-2.1-.1-1 0-1.2.1.4.4h-3.4c-.5 0 2.8.3 1.5.3.2.1-3.8-.2-4.4-.1-1.6 0 1.1.2 0 .2-5.2-.2-6.8 0-11.7-.1-1 0 .2.1 0 .2-26.3-.8-54.5-.8-79.7-.8-6.5-.4-22.4.1-29.7-.2-3 .1-.2.3 1.5.3l-47.7.4 6.8-.1c-18 0-37.2.2-54 .4 1.2.2 7.2 0 10.2 0-8.9.2-19.3.2-28.7.3-.6 0 1.6 0 1-.1l-15.6.1H525l-98.3 1c.5-.1 4 0 4.9-.2a384 384 0 0 0-13.2.2c-25.5.4-56.6.3-82.2.4-2.5 0 0-.1-2-.1l-21.4-.3h-13.2c-2.6-.2-4.1-.4-6.3-.4-1.6 0-.3.2-1 .2-2.4-.2-5 0-8.3-.2l-13-.1c-1.4 0-1.2-.2-2.5-.2l-34-.5-3-.2c-2.9.1-10.5 0-14.6-.1-5.1.1-18-.4-22.8-.2-4-.2-9.9 0-15.6-.2l-9.7-.1-26.8-.4h-28.7c-.2-.2 4.7 0 4-.2H89.8c-6.6.1-14.2.1-19 .3l-6.7.2c-1.8 0-2.2.1-3.4.2l-5.8.1h-2.5c-2.6.2-3.6.3-5.7.3l-6.2.6c-1.5 0 .3-.2-1.4 0l-2.4.2-1.2.2-.4.2H35l.4-.2.1-.2v.2l-.3.3-.5.8-.5 1L34 50a35 35 0 0 0-.8 9.3l-.1 3.3c0 2.6.2 5.6.1 8.5v6.7a291 291 0 0 0 .1 22.2v6.4l.2 9.7a486.6 486.6 0 0 1 0 25.3c0 2.2.2 2.2.2 3.4v4.4l.4 49.6.1 3.4c-.1 2.2 0 9 .3 8.7l.2 43.8v29.1c.1 19.8.8 40.3 1.5 61l2 62.3c-.4-21.1-1.5-46.8-2-66.5l-.2-4c0-9-.4-21-.7-29v-4c-.1-8-.3-15.5-.2-22.9v-22l-.1-46.4c.2 3.7 0 11.8.2 15v-4.8c.2-2 0-9.7.1-12.2l.3 24.9V223c.3 15.6.3 39.3.1 55.5 0 2.3 0-1.3-.1-1.4-.2 13.3.3 32 .8 45.5 0-4.6-.4-13.8-.4-19.4.5 11.6.8 31.4 1.3 43.6 1.6 46.3 3 91.1 4.9 136l.4 8.8.6 15.4.3 7.2.4 6.8c.2 8 1 19.7 1.4 29.2 0 1.8-.4-2.5-.6-2.4-.3-7.1-.7-8.2-1-14.6-.4 2 .2 11.3.7 19.5 0 1 .2.2.3 1.5l.6 13.1c-.3-1.7-.6-8.2-1-11.6-.2-.4.4 8.8.2 10.2.7 12.1.1 13.3.6 23.9l-.7-4.4c-.2 1.2.4 9.8.5 14.1-.1.2-.2-1.4-.3-1.4-.1 1 0 4.5-.3 3-.1 3-.6 7 .8 9.8 1.4 3 4.4 4.8 5.6 5.8.8.7 1 1.2 2.3 2 2.1 1.3 8 3.2 3 2.6-2-.3-5.3-1-8.9-3-1.8-1-3.6-2.3-5-4a14 14 0 0 1-2.6-5.8c-.3-1.6-.4-3.1-.5-4.6l-.1-4.2-.4-8.8-1-18.5-2-37.6-1-16a6185.3 6185.3 0 0 1-1.4-31.2c-.7-20-1.8-45.4-2.3-64.1-.3-4-.3-8.8-.5-13.6L30 404l-.4-14.2-.3-6.7-.6-18L28 350a10248 10248 0 0 0-1.1-35.5c-.3-12.9-.6-25.5-.6-39l.2-14.1-.1-7.3c0-11 0-23.7-.2-35.5-.3-27.6-.8-59.6-.7-90.5a6627 6627 0 0 0-.5-33.5V79.5l.3-9.9v-10c0-3.5 0-7.2 1-11.3a16 16 0 0 1 3.2-6.6l.7-.8.3-.2a10.7 10.7 0 0 1 1.6-.9l1-.4a188.5 188.5 0 0 1 17-1.6h4.4l6.9-.3 7.8-.1 13.6-.2h7.4a4047.7 4047.7 0 0 1 82.8.2l27.2.3 4.9.1h4.4l5.3.2c12 .2 22.6.1 34.6.4h3.4l19 .3c8.3 0 16.8.4 25.3.4l5.8.1 10.7.3h69.5l17-.2 31.6-.2c7.5-.1 15.5-.1 22.3-.3l16-.1 30.7-.3 118.8-1.1 65.2-.3c20.6-.1 41.4.2 62.4.7 6.1.2 12.5.5 19.3 1l1.3.2 1.6.1 1.8.5 1.4.8 1.1.9a7.9 7.9 0 0 1 1.8 2.3l.3.6.3.6c1 2.8 1 4.6 1.3 6.5a88.8 88.8 0 0 1 0 12.4l-.2 1v.3h-.8l-2.2.2h-1l-.6.1h-.3l-.5.1h-.2l-.1.1 5-2.5.2-.1ZM37.2 349.2c.2 2.8.2 8.9.4 10.2a241 241 0 0 0-.4-10.2Zm-.2-7.8Zm-.2-4.8Zm-.3-8.8c.1 2 .1 5.6.3 5.4-.1-2-.1-5.3-.3-5.4Zm-.8-56.7-.1 4 .1-4Zm0-8.7v7.3-7.3Zm0-10.3Zm0-8.3v2.5-2.5Zm-1.4-30.1c0 1.5 0 3.2.1 2.9 0-1 0-3.6-.1-3Zm-.9-54.5Zm26-114V45a10 10 0 0 0-2 .1h2Zm79.1-.7h-2.4 2.4Zm10.7 0Zm310.5 2.1-5.4.1h5.4Zm76.8-.8-5.3.1h5.3Zm80.8-.7-6.3.1h6.3Zm13.6 0h-2.4 2.4Zm5.4 0v-.2l-2 .1h2Zm6.8-.5Zm45.7.3h1.5c.1-.1-.7-.1-2-.1h.5Zm5.9 0h-2.5 2.5Zm-220.4 2.5c1.8-.2 4.5-.1 8.2-.2 1.7 0-1.2-.1 0-.1l63.8-.7-5.4.1c0 .2 3.7 0 4.4.2l-71 .7ZM660 45.7l17-.1h-6.3c21-.2 39.8-.3 61.3.2.9.1-.5.1 1.5.2 3 .1 8.2.1 10.2.3-5 0-13.1-.1-18-.3h-3.9c-19.6-.3-40.1-.2-61.7-.3Z"/><path d="M773.2 479.3Zm.3-64.3v-2.8c.1.3 0 0 .2-.2v2.6c-.1-.6-.2-.3-.2.4Zm.6-1c-.2-1 0-4.9 0-6.5v6.5Zm-1-70.1v-1.5 1.5Zm2.4-111.2v-3 3Zm0-3V227v1.3l.1-2.4v-.2l.2-3.9c0 2.2 0 5-.2 7.2l-.1.8Zm0-27.8c-.2-.3 0-2 0-2.9v2.9Zm.6-4.6v-1.7 1.7Zm.2-1.9-.1-.4.1-2.2v2.6Zm0-5.4v-.4c0-.1 0 .7-.1.2v-1.7 1l.2-.8v1.7Zm.1-9.3v-1 1Zm.2-1.7v-1.3 1.3Zm-.2-2.2v-2.1c.2.1 0 1.3 0 2.1Zm.7-1.7-.1-.2v-3.2l.4-18.4-.3 21.8Zm.4-24.8v-3.9 3.9Zm.1-5.2c-.1-.3 0-2.2 0-3.2v3.2Zm-1-5.2v-4.5 4.5Zm0-5.2V133v1.7Zm1-17.2v-3.3 3.3Zm-.5-23.8v-1 1Zm1.2-12v-8c0-4-.2-8.7 0-11.4v19.2Zm-5.5-43.2a8.8 8.8 0 0 1-3.3 1.4l-.6.2.3.2c.1.2.2.5.4.4.2 0 .4-.5.7 0 .2.4.4 1.4.6 1.5l.2-.4c.2 0 .4 1 .6 1 .2.2.3-.3.4-.2.2.2.5 1.3.7 1.7l.2-1.3.4 1.4c.1-1.3.4.5.7 1.2v-1c.3.3.5 1.9.7 1.2.2 1.7.5 3.4.7 1.9l.3 1.5c.1.2.1-1.2.2-.7.2 0 .1 1.7.2 2 .1.7.2-.5.3 0 0 2.3.3 3 .4 5.2 0 .5 0-.1.2 0V91c-.4 2.9 0 10-.4 13.2 0 1.3.2 0 .3-.7 0 6.8 0 14.4-.3 21.2v-3c-.3 8-.4 16.5-.4 24 .2-.6 0-3.3.1-4.6l-.1 12.7c-.1.3 0-.7-.2-.4 0 2.3-.2 5.3 0 6.9l.1-5.4-.7 43.6-.1-2.2a75 75 0 0 0 0 5.9c-.1 11.3-.6 25-.8 36.4 0 1.1-.1 0-.1.9a2496.4 2496.4 0 0 0-.2 15.3l-.2 2.8c0 .7.2.2.2.5-.2 1 0 2.2-.2 3.7.2 1 0 3.7 0 5.8l-.1 1-.2 15.2-.2 1.2v6.5c.1 2.3-.3 8 0 10.1-.2 1.8 0 4.4-.2 7 .1 1.2.2 2.9 0 4.3 0 3.8 0 8.9-.3 11.8l.1 1.1-.1 11.7c-.2 0 0-2-.1-1.8-.2 3.4-.1 7.9-.1 12.1v16.6l-.1 2.7c0 .8.2 1.4.1 2.8 0 .7 0-.2-.1.6 0 2.8-.3 7.9 0 9.7 0 1-.1.7-.2 1.6 0 2.3 0 5.2.3 6.7v10l-.1 1.9v5.1a93 93 0 0 1-.2 11.3l.1 1.5-.1 2c-.1 8.4 0 15.4-.2 22v1.5c-.1 1 0 4 .2 3.9a7602.2 7602.2 0 0 0-.3 22.2l-.2 10.2-.2 27.2-.2 13.9c0 4.5 0 9.3-.4 13.7.5-4.5.4-9.8.6-15l.1-14.5v-1.7c.2-4 .3-9.4.2-13l.1-1.7.8-40.7c.1 1.7-.2 5.3 0 6.7v-2c.3-1 .1-4.3.4-5.4l-.2 11c.2-1 .2-3.5.2-5.4 0 7-.1 17.5-.3 24.7 0 1 0-.6-.1-.7-.2 6-.3 14.3-.3 20.3.2-2 0-6.1.2-8.6.2 5.2-.2 14 0 19.5l-.2 15.3a946.5 946.5 0 0 1-.5 15c-.4 9.7-.3 19.7-.3 29.7v4l-.2 13.3c-.4 3.6-.5 9-1.2 13.3-.1.9-.1-1.1-.3-1.1.4-3.3.1-3.8.3-6.7-.5.8-.7 5-1.1 8.9v.7c-.3 2.3-.5 4.2-1 6.2-.1-.9.6-4 .6-5.6-.2-.2-.8 4.2-1.2 4.8-.6 2.9-1.3 4.5-2 6l-1.5 2.5-1.2 1.5-1.6 1.6.2-.3.4-.6 1-1.4c-.2 0-.6.5-1 1l-.5.4-.3.3-.8.6-3 2.5.4-.6c-.5.1-1.9 1-1.4.4-1.4.6-3.2 1.5-5 2-1.7.5-3.4.8-4.2.5-.6-.1-.9-.5-1.6-.5-1.2-.2-3.7-.3-1.9-1.2 1.5-.7 5-2 7.1-3.5 2-1.1 3.9-2.6 5.8-4.3l.7-.6.5-.5.8-1.3c.5-1 1-2.3 1.3-3.5a96.2 96.2 0 0 0 2.2-16 280.8 280.8 0 0 0 .5-20.9c0-8.8 0-20.2.2-28.5l.2-6.1V533l.4-6.3v-25.1l.2-1.7v-6.7l.2-17.3.2-6.2v-3.2l.2-15.8c.1-12.2.2-26.5.5-40.1V389l.3-18.3v-20.1l.1-3.2.1-20.3.2-16.4v-12.1l.2-2.2v-4.3c.2-5.3 0-10 .2-15.3v-1.5c.2-3 .1-6 .1-8.5 0-3.7.3-7.4.2-11.2V253l.2-4.7v-3l.6-27.9V210c.2-4 .3-9.7.3-14l.2-10 .1-7 .3-13.7.8-52.6.3-28.8c0-9.1 0-18.2-.2-27.4a234.5 234.5 0 0 0-.3-15.8v-.5l.1-.1.5-.2a9.9 9.9 0 0 0 3.6-1.5Zm0 471c0 1.3-.2 4 0 4.6v-4.6Zm0-3.4v1.5-1.5Zm0-2.2v1.7-1.7Zm0-3.9v2.4c0-1 .2-2.4 0-2.4Zm.4-25.3v1.7-1.7Zm0-3.9v3.3-3.3Zm0-4.5v2c.1-.4.2-2 0-2Zm.1-3.7v1.1-1Zm-1-13.5c0 .7 0 1.5.1 1.3v-1.3Zm0-24.2v2.2-2.2Zm.7-63.3h-.1v.9-.9Zm0-35.2v1-1Zm0-4.8v1.1-1Zm2.6-137.7v2.4-2.4Zm.6-34v2.3-2.4Zm.6-36c0 1.3-.2 2.6 0 3v-3Zm.1-6v1.1-1Zm0-2.3v.8-.8Zm-.3-3Zm.5-20.3v-.7.9-.2Zm0-2.6v1-1Zm-.5 97.8v-3.7c0-.7-.1.6-.1 0 0-8.6.3-18.7.5-28.3v2.4l.2-2c0 11-.3 20.8-.6 31.6Zm1.2-82.5v-7.6l-.1 2.9V62.4l.1-4.6c.2 2.3.3 5.8.2 8V95Zm-480-52h-4.4 4.4Zm57.4-1.4h2.5c-.2.1 0 0 .2.2h-2.3c.5 0 .2-.1-.4-.1Zm1 .5c.7-.2 4.3 0 5.8 0h-5.8Zm62.6-2.2c.6 0 1.4 0 1.3.1h-1.3Zm99.5 1c.6-.2 1.6 0 2.7 0h-2.7Zm2.7-.2h2.5-1.2l2.2.2c.6 0 .2-.1.2-.2 1.4 0 1.8.3 3.4.3l-6.4-.1-.7-.1Zm25-.4h2.5-2.6Zm4 .7h1.5-1.5Zm1.7.2.4-.1h2c-.4.2-1.5 0-2.4 0Zm4.9 0h.3c.1-.1-.6-.1-.2-.2h1.6l-1 .1.8.1c0 .1-1 0-1.6 0Zm8.3 0h1-1Zm1.5.2c0-.2.7 0 1.2 0h-1.2Zm2-.2h1.9c-.1.2-1.2 0-2 0Zm1.5.6h3.1c5.3.1 11.6 0 16.4.3l-19.5-.3Zm22.2.4h3.5-3.5Zm4.7 0 2.8.1h-2.8Zm4.6-1 4 .1h-4Zm4.7.1s1.7 0 1.5.1h-1.5Zm15.4 1.2h2.9-3Zm21.3-.2h1-1Zm10.7 1.5h.2l6.8.1c3.6.2 7.8.2 10.2.5l-17.2-.6Zm39.8-6.8c-1 .2-2 .3-2 .6 0 .2.5.5-.2.7-.5.1-1.4.1-1.6.3l.4.3c0 .2-1 .3-1.2.5-.1.1.3.3.2.4-.2.2-1.2.3-1.6.5l1.2.3-1.4.2c1.2.3-.5.4-1.2.6 0 0 1 0 1 .2-.4.2-1.8.2-1.2.5-1.5 0-3 .2-1.7.5l-1.4.1c-.2.2 1.1.3.6.4h-1.8c-.6 0 .5.2 0 .3h-4.6c-.4 0 0 .1 0 .2-10.5-.5-21.7-.9-31.7-1.2-2.5-.5-8.9-.2-11.8-.7-1.2.1 0 .3.6.4l-19-.5h2.8c-7.1-.3-14.8-.5-21.5-.6.5.2 3 0 4 .2L589 41c-.2 0 .6 0 .4-.1-2.1 0-4.8-.2-6.2-.1 1 .2 3.7 0 4.8.2l-39-.6h2a51.3 51.3 0 0 0-5.3 0c-10.1 0-22.5-.3-32.7-.4h-.7l-8.5-.1c-1 .2-3.3.2-5.3.1-1 0-1.6-.2-2.5-.1-.6 0-.1.1-.4.1-1-.2-2 .1-3.2 0h-19.8c-.4 0-.5-.2-1.1-.2-1.2.1-4.2.2-5.8 0-2 .3-7.2 0-9.1.2h-6.2c-1.1 0-2.6.2-3.9 0l-10.6-.1-1 .1h-10.4c0-.2 1.9 0 1.6-.2L415 40c-2.6 0-5.6 0-7.5.2h-2.7l-1.4.1H398l-2.5.1c-.6 0 .2-.1-.5-.1-2.5 0-7-.1-8.7.2-1 0-.6-.2-1.4-.2-2.1.1-4.6.2-6 .4-3.3 0-7 0-8.9.2h-6.3c-2 .3-7.6.3-10.1.1l-1.4.1h-1.7c-7.6 0-13.8.3-19.7.3l-1.4.1c-.9-.2-3.5 0-3.5.2-5.8 0-11.6 0-17.3.2H306l-9 .2c-15.9.2-32.6.9-49 1.1 8.3.1 18.5-.4 26.4-.4l1.5-.1c3.6 0 8.4 0 11.6-.2h1.6c12.7 0 22.9-.3 36.3-.3-1.5.2-4.7 0-6 .2h2c.8.2 3.8 0 4.8.1l-9.9.2h4.8c-6.1.3-15.5.4-22 .4-.9 0 .6 0 .6-.1-5.4 0-12.8.1-18.2.3h7.8c-4.7.3-12.6.2-17.4.5l-54 1.3-3.5.2-11.8.4H191c-.7 0 1-.2 1-.4 2.8 0 3.2-.4 5.7-.4-.7-.4-4.4-.3-7.7-.2-.4 0 0 .2-.6.3h-5.2c.7-.2 3.3-.2 4.7-.4.1-.3-3.6 0-4.1-.3-4.8.2-5.3-.5-9.5-.5.3-.2 1.1-.3 1.7-.4-.4-.4-3.9-.1-5.6-.2l.6-.2c-.4-.2-1.8-.2-1.2-.5-2.4-.5-6.6-1-8-2-.4-.4-.5-.8-1.2-1-1-.6-3.3-1.2-1.4-1.7 1.5-.4 5.1-.4 7.7-.6 8.7.1 19.6-.5 29.2-.7a3751 3751 0 0 1 18.8-.6l25.5-.6c1.6-.2 3.5 0 5.4-.1l2.4-.2h8.3c2.3-.2 4.4-.2 7.1-.3 2 0 3.7 0 6-.2l6.6-.2h1.5l6-.2 15.5-.2h5.6l3-.2 14-.1 36-.5 9.7-.2h3.7l6-.1 16.4-.1h6.8a138.2 138.2 0 0 1 5.8-.1l5.4-.1h3l18.1-.2H480l7.6-.1h19.3l25 .2h6.8l12.5.1 9 .1h6.3l12.2.3 47.2 1 25.9.8 24.7.9 15.1 1.2c.6.1 1.4.2 1.7.4V37Zm-422.5 6.5-4 .1c1.6 0 3.2 0 4-.2Zm3-.1h-1.3 1.4Zm2 0h-1.5 1.5Zm3.5-.2c-.8 0-2.2 0-2.1.1h2Zm22.6-.4h-1.6 1.6Zm3.5 0c0-.2-2.7-.1-3 0h3Zm4-.2h-1.7 1.7Zm3.3 0h-1 1Zm12-1.3c-.6 0-1.3 0-1.2.1h1.2Zm21.6-.6h-2 2Zm56.6-.6h-.7.7Zm31.5-.4h-1 1Zm4.3 0h-1 1Zm123.3.7h-2.1 2.1Zm30.5.5h-2a8 8 0 0 0 2 0Zm32.1.8c-1 0-2.2-.2-2.5 0h2.5Zm5.4.2c.3-.1-1.2-.2-1 0h1Zm2.1 0h-.7.7Zm2.8-.3h-3 3Zm18.1 1h.6l-.8-.1h.2Zm2.3 0h-1 1Zm-87.5-1.2c.7-.2 1.8 0 3.3 0 .6 0-.5-.2 0-.2 7.7 0 16.7.3 25.3.5h-2.1c0 .1 1.4 0 1.7.2l-28.2-.5Zm73.8 1.6 6.8.1-2.6-.1c8.4.2 15.8.3 24.4.7.3.1-.2.2.6.2 1.2.1 3.2.1 4 .3-2 0-5.2 0-7.1-.3H666c-7.8-.4-15.9-.5-24.5-.9ZM5.1 30c0-1.9.3-3.4.3-5.1 0-2.8-.2-7.4-.5-9.7-.4-4-2.2-8.5-3.4-5.9C1 10.3.6 13.8.3 18 0 22.2 0 27 .1 30.4c0 3.3.7 7.5.8 11 0 6.6-.3 11.9 0 18L1.5 77v13l.6 7.1c.4 11 .5 21.8 1 30.6.4 8.1 1 14 1.6 21.8.2 3 0 6.2.3 9.2.2 3.1.8 5.9 1 9.2.5 5.3.2 11.2.4 16.7l.5 11c0 3 .5 5.9.7 9.1 1.6 23.8 1.2 48.1 3.4 71.2-.4 13.5.6 28.2 1.2 41.9.6 12.6.7 25.3 1.2 38 .1 3.2.6 6.3.6 9.3l-.2 3.8c.2 5.1.9 10.2 1.1 15.4l-.2 3.4c0 1.6.3 3.2.4 4.6v10.5c.2 4.3.6 8.4.6 12.5v6.3c0 1.2.2 2 .3 3.3 0 2-.2 4.7-.1 6.7 0 1.6.3 3 .4 4.7l-.2 10.4c0 5.3.4 10.7 0 16 .4 7.4.8 15.8.9 24.3l-.3 6.7c0 9 .6 18 .8 26.3.3 19.2.5 37.3 1.6 53.2-.4 5.2.4 12.4.7 17.6.2 4.6 0 9.2.2 13.4 0 1.7.4 3.3.5 5v3c.1 5.4.8 11.3 1 16.7v11c.7 5.9 2.8 11.3 4.6 11 1.2-.3 2-4.3 2-9 .2-10.2-1.8-19.1-2.5-29.5-.4-6.4 0-12.4-1-16.3.2-8.9-.7-18.3-1-28.4-.5-12.3-.5-26.4-1.3-36.4.6-9.6-.5-18.8-.5-27.6 0-2.6.3-5 .2-7.6 0-11.2-.6-23.8-.9-35.6.7-11.8-.4-23.8 0-36.4-.4-5.2-.9-10.5-1-16-.2-6.4-.1-13.2-.3-19.7 0-3-.4-6.1-.4-9.2l.1-2.5c0-1-.3-1.8-.4-3V370c0-6.3-.6-10.5-.7-15.5 0-1.3.2-2.5.1-3.8 0-2-.4-4-.5-5.8-.2-8.3 0-16.4-.7-24.8.2-4 .1-10-.3-15-.9-11.4-.9-25.6-1.5-39L15 257c-.2-3 0-6.3-.1-9.2-.5-9.7-1.2-20.7-1.6-30.6l-.3-10.4c-.2-4.5-.8-8.4-1-12.6l.2-4.6c0-.8-.4-2.2-.4-3l.1-2.4c0-3.2-.4-7.8-.6-11C10.5 162 9.5 151.5 9 141c-.4-7-.3-14-.8-21-.1-1.2-.4-2.4-.4-3.7-.9-14.3-1-28.9-1.4-43.6-.4-9.8-.1-20-.9-29.7.6-2.9-.4-7.5-.4-13Z"/><path d="M74.8 649.9c-4.3 0-8.1-.4-12.3-.5-6.9 0-18 0-23.5.2-10 .3-20.8 2-14.4 3.3 4.5.9 34.6 2 51.2 2 8 0 18.2-.5 26.6-.4 16.4.3 29.1.8 44 .8h43.1c10.8 0 21.2.3 31.8.4l17.4-.3c27 0 53.4.4 74.8.3 20-.1 34.3-.6 53.3-.7h22.5c7.7-.1 14.5-.5 22.6-.7 13.1-.2 27.5.3 41 .4h26.6c7.4 0 14.6-.3 22.6-.4 58.3-.5 117.7.5 174.2-.9 32.9.8 68.8.3 102.4.2l93.2-.2c7.6 0 15.2-.4 22.6-.3l9.2.2 18.9-.3 9.4-.2c3.2 0 6.4 0 9.7-.4 2.8-.3 5.6-.7 8.2-2.5 1.7-1.2 3-2.9 3.9-4.7.5-.9.7-1.9 1-2.7l.7-2.7c1.7-8.5 1.7-17.3 1.6-25.7-.4-10.5 0-20.7.3-30.7.1-5.4.5-10.1.7-15.4v-8.2c0-4.7.7-11.3.8-16.3l.1-11.3c.3-8.4 1-17 1.4-25.6.7-13 .9-26.2 1.9-38.8.5-18.2 1-38.7 2-59.4.4-5.5 1-10.8 1.3-16.3 1.3-21.9 2-44.2 3-64.5 1.2-23.4 2-46.2 2.4-68 .1-21.7 0-42.5-.1-62 .7-12.6.3-30.3.5-43 0-11.2.7-22.4.9-32.7 0-4-.2-8.1 0-12.3 0-2.3.3-4.9.4-7.2.4-13.2.5-27.8 1-41 .5-9 1.2-18 1.8-26.5.4-14.7-.5-28.3-2.3-27.8-1.3.3-3 9.9-3.9 21.3-2 25-1.3 47.2-1.8 72.9-.3 15.6-1.3 30.1-.7 40-.9 21.6-.5 44.8-.6 69.6l-.2 46.6-.7 42.4c-1.7 23.4-2 45.9-3.3 67.4l-1.4 18.4a2452 2452 0 0 0-2 43l-1.6 44c-2 28.8-2.4 58.3-4 89-.3 12.7-.3 25.7-.7 39-.3 8 .1 16.1-.1 24-.1 4-.4 7.8-1 11.5l-.5 2.8c-.2.8-.3 1.7-.7 2.3-.5 1.6-1.2 2.7-2 3.7-1.6 1.6-4.3 2.5-7.7 2.9-3.4.3-7.1.1-11 .1l-6.2-.2c-2.4 0-4.4.3-7.1.3l-9.3-.1c-15.2-.1-25.6.4-37.9.3l-9.2-.2-14.3.3c-20.1 0-40.1-.3-60.5.1a799 799 0 0 0-36.9-.2c-27.9.6-62.6 0-95.3.3-8.7 0-16.2.3-22.5.4-7.2 0-15.4-.3-22.6-.2-23.6.2-50.7.5-74.8.5l-25.6-.1c-11 0-20.4.4-30.7.4-3.9 0-7.5-.3-11.3-.4-2 0-5.3.3-7.2.4l-6-.3-26.7.2-79 .9c-17.2 0-34-.4-51.2-.1l-9.2.3c-35 .3-70.4-.3-106.6-.3-24 0-48.6-.7-72.7-.3-6.9-.7-18.1 0-31.8 0l.1-.1Z"/><path d="M33 8.2 25.5 8c-4.3 0-11.2.2-14.6.5C4.6 9-2 10.8 1.9 12c2.9.9 21.6 1.6 32 1.3 4.9-.2 11.2-.8 16.5-.9 10.2 0 18 .4 27.4.2l26.7-.6h19.8c3.5 0 7.2-.3 10.8-.4 16.8-.2 33.2-.2 46.5-.5 12.3-.3 21.2-.9 33-1.3l14-.1c4.8-.2 9-.7 14-1 8.2-.3 17.2.1 25.6 0l16.5-.2c4.6 0 9.1-.4 14-.5C335 6.9 371.8 7.8 407 6.3c20.5.7 42.8.2 63.7 0 19.1-.2 38.4 0 58-.2 4.7 0 9.4-.3 14-.3l5.7.3c7.9 0 15.5-.5 23.6-.6l5 .2 7-.2 16 .2c6.5 0 12.9-.3 19.1-.3l9.6.2c1.8 0 3-.3 5-.4 3 0 7.1.3 10.2.2 2.4 0 4.5-.3 7-.3l16 .3c8 .1 16.3-.2 24.1.3 11.4-.3 24.1-.5 37-.4 3.5 0 6.8.4 10.2.5 13.6.3 27.5-.1 40.1 0 29.2.3 56.7.8 81 .5 7.8.7 18.8.3 26.7.3 7 0 14 .6 20.3.6L914 7l4.4.3h25.5c5.7.2 11.4.5 16.6 1.6 2.2.3 4.5.6 6.6 1.1a8 8 0 0 1 3 1.5 7 7 0 0 1 2 2.6c.8 1.8 1 3.2 1.5 4.2.4 1 .8 1.6 1.2 1.5.4 0 .7-.5 1-1.3a10.3 10.3 0 0 0 .4-5.7 10.4 10.4 0 0 0-3.4-6c-2.6-2.2-5-2.9-7-3.5a69.7 69.7 0 0 0-6.4-1.4 54 54 0 0 0-6.1-.5c-4-.1-7.7 0-11.4.1-7.3.3-14.8.6-22.7.6-9.8 0-18.8-.8-24.9 0-13.4-.8-27.9-.3-43.3-.5-18.7-.2-40.2-.7-55.4-.2-14.6-1-28.6-.2-42-.4L742 .5c-17-.2-36.3 0-54.2.2-18-1-36.3 0-55.4-.5-7.9.2-16 .7-24.2.8l-30-.3-14 .2-3.8-.3c-1.5 0-2.8.3-4.4.3h-5.8c-9.4-.2-15.9.3-23.5.2-2 0-3.8-.3-5.8-.3-3 0-6 .3-8.9.3-12.5 0-25-.4-37.6 0a291 291 0 0 0-23 0c-17.3.5-38.9 0-59.2.4-5.4 0-10 .4-14 .4h-14l-46.5.8h-16c-6.7.2-12.6.7-19 .7l-7-.2c-1.3 0-3.4.4-4.5.4l-3.8-.2c-4.9 0-11.8.3-16.6.4-17 .4-33.2 1.2-49 1.6-10.7.3-21.2 0-31.9.5-1.8 0-3.7.3-5.7.3-21.7.7-43.8.5-66.2 1-15 .2-30.3-.2-45.2.6-4.3-.6-11.3.4-19.8.4Z"/><path d="M181 8c-1.4 0-2.6-.2-4-.3-2.2 0-5.8.2-7.6.4-3.3.5-6.7 2.3-4.7 3.5a63 63 0 0 0 16.7 1.5c2.6 0 5.9-.7 8.6-.7 5.3 0 9.5.4 14.3.3l14-.4c3.5 0 6.9.3 10.3.2l5.6-.3c8.8-.2 17.4 0 24.3-.3 6.5-.2 11.1-.8 17.3-1 2.5-.2 5 0 7.3-.2 2.5-.1 4.7-.6 7.3-.8 4.3-.3 9 .2 13.3.2l8.7-.3c2.4 0 4.7-.3 7.3-.4 19-1 38.2.1 56.5-1.3 10.7.8 22.4.3 33.3.1 10-.2 20.1 0 30.3 0 2.4 0 5-.4 7.3-.3l3 .2c4.1 0 8.1-.5 12.3-.6l2.7.2 3.6-.2 8.3.2c3.5 0 6.8-.4 10-.4l5 .2c1 0 1.6-.3 2.7-.4l5.3.2c1.2 0 2.3-.3 3.6-.3 2.8-.1 5.6.2 8.4.2 4.2 0 8.5-.3 12.6.2 6-.4 12.6-.6 19.3-.6 1.8 0 3.5.3 5.3.3 7.1.3 14.4-.2 21-.2 15.2 0 29.6.2 42.2-.4 4.1.6 9.9 0 14 0 3.7-.1 7.3.3 10.7.2 1.3 0 2.6-.3 4-.3l2.3.2c4.3 0 9-.4 13.3-.4 3 0 5.9.3 8.6.5 4.8-.4 9.2-2.2 9-4-.2-1.2-3.3-2.2-7-2.5-8.1-.7-15.3 1-23.6 1.2-5 .2-9.8-.5-13 .3-7-.5-14.5.2-22.6.2-9.7 0-21-.2-29 .3-7.6-.8-14.9.2-21.9 0-2 0-3.9-.3-6-.4-8.9 0-19 .3-28.2.5-9.4-.9-19 .2-29-.3-4.1.3-8.3.8-12.6.9l-15.6-.2-7.4.2c-.6 0-1.3-.3-2-.3s-1.4.3-2.3.3l-3-.1c-5-.2-8.3.4-12.3.3l-3-.3-4.6.3c-6.5 0-13-.4-19.7 0a79 79 0 0 0-12-.1c-9 .5-20.3 0-30.9.3-2.8 0-5.2.3-7.3.4l-7.3-.2-24.3.8h-8.3c-3.6 0-6.6.5-10 .5-1.2 0-2.4-.3-3.7-.3-.6 0-1.7.4-2.3.4l-2-.2-8.6.3L269 6.4c-5.5.2-11-.1-16.6.2-1 0-2 .3-3 .4-11.3.5-22.9.2-34.6.4-7.8.2-15.8-.3-23.6.4-2.2-.7-5.9.3-10.3.3ZM43 157.3l.2-13.6c0-7.7-.4-20-.6-26-.5-11.2-2.1-23-2.8-15.9-.4 5-.5 38.3-.2 56.7.1 8.8.6 20.1.7 29.5v48.8l.8 47.7c0 12 .2 23.4.3 35.2L42 339l.7 22.3.7 21.4.8 39c.6 22.2 1.6 38 2.5 59.1l.9 25 1.3 24.9c.4 7.2.6 14.9.8 22.5.3 7.6 0 15.3.3 23a78.7 78.7 0 0 0 1.3 10c.3.7 1 2 2.3 2.8 1.2.8 2.3.8 3 .9h2l7.4.3 7.2.4 25 .7c64.6 2.4 130.5 4.3 193 3.8 36.5.9 76.4 0 113.6-.3l103.3-.7c8.4 0 16.8-.4 25-.4 3.3 0 7 .2 10.3.1 14 0 27.6-.6 42-.7h9l12.5-.2 28.4-.1 34-.6h17c3.3 0 5.7-.3 9.2-.3h18.1l12.5-.4h21.3a7 7 0 0 0 3.5-.8c1-.6 1.7-1.8 2.1-2.9 1.1-3.5 1-7.1 1-10.7v-10.9c0-7.2 0-14.4.2-21.4-.2-20.2 0-42.9.3-65.8.1-6.2.5-12.1.6-18.2l.8-36.4.5-35c.9-52 1.6-101 1.7-144.2.7-14 .6-33.6.7-47.6.1-12.5.6-25 .8-36.3v-13.6l.3-8c.3-14.7.5-30.8 1-45.4l.2-7.6c.1-2.4.1-5 .4-7.4.3-2.5.5-4.9.2-7.3a8.3 8.3 0 0 0-1-3.3 4 4 0 0 0-2.7-1.9c-2-.4-4-.1-6-.1l-5.8.2-10 .5c-5.6.5-9.2 1.1-8.9 1.8.5.8 11.2 1.6 23.9 1.9h2.6a24.7 24.7 0 0 1 3.4.3l.3-.8c0-.1.2-.2 0 0l-.2.1-.5.5s.4 1.1.4 2.4v4.3l-.2 2.5-.1 1.4V83l-.1 4.9-.2 9.9-.3 40.6c-.2 17.3-1 33.3-.6 44.2-.8 24-.7 49.7-1 77.2-.5 33.2-1 71.5-1.1 98.7-.9 26-.8 51-1.4 74.8-.2 7-.6 13.4-.7 20.5-.7 30.3-1 64.7-1 96.5-.2 8-.2 16-.2 24.2v5.9c-.1 1.9-.3 3.8-.6 5.3-.2.8-.4 1.4-.6 1.6l-.6.3-2.2.2h-3c-16.5.2-33.2.5-50.2.4-14 .3-28.5.8-43.1 1l-53.4.3-25 .3c-2.2 0-4.6-.2-6.8-.1l-8 .3h-10.2c-16.8 0-28.3.4-42 .4h-10.2l-15.9.2c-22.2.2-44.4 0-67 .5-11-.2-27.2-.1-40.8.1-15.5.3-32.8.6-50.9.4l-54.7-.3h-25l-25-.5c-26.1-.4-56.2-1-82.8-1.8-9.5-.3-18.9-.8-28.4-1.2-12-.4-22.6-.5-34-1.1-4.2-.2-8.2-.7-12.5-.7a6 6 0 0 1-1.6-.2c-.4 0-.7-.3-1-.9a11 11 0 0 1-.8-3.5c-.3-2-.3-4.8-.4-6.8-.2-4.3-.1-9.5-.2-14.7l-.6-14.7-3.9-87.3c-.8-19.1-.9-37.8-1.4-56.8L47 391c-.5-19.3-1.5-38.8-1.8-58.5-.4-19.7-.6-39.5-.9-59.5-.3-26.6-.2-53.9-.8-80.5.4-7.6-.4-20-.5-35.2Z"/><path d="m719.2 70 6 .2c3.3 0 8.6 0 11.2-.2 4.8-.3 10-1.5 7-2.4-2.2-.6-16.6-1.3-24.6-1.2-3.8 0-8.7.4-12.7.4-7.9-.1-14-.4-21.1-.4l-20.6.2-15.2-.2-8.4.2H605c-9.5.1-16.3.4-25.5.6h-10.8c-3.6.2-6.9.5-10.7.6-6.3.2-13.2-.2-19.7-.2l-12.7.2-10.8.2c-28 .6-56.3-.2-83.4.8-15.7-.6-33-.2-49-.1h-44.6l-10.8.2-4.4-.2c-6.1 0-12 .4-18.2.4l-4-.1-5.3.1-12.3-.1-14.7.2h-7.4l-3.9.1H249l-5.4.2-12.3-.3c-6.2 0-12.6.3-18.6-.1-8.7.2-18.5.4-28.5.4l-7.8-.3c-10.5-.2-21.2.2-30.9.1-22.5 0-43.6-.3-62.3 0-6-.4-14.5 0-20.6 0h-4c-1.3 0-2.6 0-4 .2-2.5.2-5 1-7 2.3a13 13 0 0 0-3.8 4.3l-.9 1.4-.7 1.5c-.7 1.4-1 3-1.4 4.6l-.8 4.8c-.4 3.3-.5 6.6-.7 9.7L39 111c.4 7 2 13.4 3.2 13 .9-.1 1.4-4.8 1.5-10.2l-.1-17v-4c0-1.4.2-2.7.3-4.1 0-1.4.3-2.7.5-4l.5-2 .5-1.8c1.1-3 2.8-5 4.8-6 2-1.3 4.5-1.5 6.5-2.1h32.9c14.4 0 31 .2 42.7-.2 11.3.7 22 0 32.4.2l8.8.2c13.1.1 28-.1 41.7-.2 13.8.6 28-.1 42.6.2 6.1-.2 12.4-.5 18.7-.6l23 .2 10.8-.1 3 .2c1.1 0 2.1-.3 3.4-.3l4.4.1c7.3.1 12.2-.2 18.1-.1l4.4.1 6.9-.2c9.6 0 19.2.3 29 0 4.7.3 11.6.3 17.6.2 13.3-.4 30 0 45.6-.2 4.1 0 7.7-.2 10.8-.3l10.8.2 35.8-.5h12.2c5.2 0 9.8-.3 14.7-.3l5.4.2 3.4-.2 3 .1 12.7-.1 37.8-.9c8.2 0 16.3.2 24.5 0l4.4-.3c16.8-.3 33.7 0 51 0 11.5 0 23.3.3 34.8 0 3.3.4 8.7-.2 15.2-.2h.1ZM888 424.4c4.8-.1 10 0 13.7 0 1 0 2.2-.2 3.2-.1 2.5 0 5.4.2 8 0l1-.2H925l3.1-.2c3-.2 6-.1 8.8-.2h8.9l1 .2h3.4c1.6 0 3 .3 4 .2 1-.1 3-1 3-1.4 0-.4-.8-1.3-1.6-1.5-1-.2-2.4 0-3.2-.3-4.1.2-8.5.2-12.4.3h-7.6l-2.2.1c-2.4 0-4.6-.1-6.3.1-1.3.2-2.5 0-3.9 0l-5.2.3c-2.2-.3-5.7 0-8.4 0-6-.3-12.6.4-19 0-1.5.3-3.4 0-5 0l-2.4.2h-7l-1.7.2-1.5-.2-2.6.2c-2.9 0-5.2.2-7.5 0-1.1.2-2.8 0-4.1 0h-5.4l-1.2.2-5.6-.1-3.2.1h-11.6c-.5 0-.2.4-.6.3a48 48 0 0 0-4.1-.4c-2.3-.2-4.7.1-7 0-1.2 0-2.3-.2-3.2 0a71 71 0 0 0-11.3 0c-1 .2-2.8.1-3.6.5-2.6-.1-4.4.8-2.7 1.8 1 .2 1.7.5 3 .5l3.8-.2 1.9.2 3.2-.1 1.5.1 1.3-.1h3c3 0 6.5.5 9 0 .9.5 2 .2 2.9.2 1.3 0 2.6.3 3.8.3l1.2-.2 1.5.1 1.4-.1h3.4c3.1-.1 6.3-.3 9.7-.3l2.7.2 4.6-.2h8.3c1.7 0 3.4-.3 5 0 .7-.4 1.5 0 2.4-.4 2.1.3 5.2.2 7 0 1.3 0 3.1 0 4.5-.2 2.2.4 4.5.1 6.9 0v.1Zm-3.1 8.9h16.8c2.5.2 5.4.4 8 .3l1-.2c2-.1 4.5.2 6.6.1l4.5.1 3-.2c3.1-.1 6 0 8.9.1h6.3l2.6.2 1 .2 3.4.1c1.6.1 3 .4 4 .3 1 0 3-.8 3-1.3.1-.4-.8-1.2-1.6-1.5-.9-.2-2.4-.1-3.2-.4h-12.4l-7.6-.2-2.2.1c-2.4 0-4.6-.3-6.3 0l-3.9-.1-5.2.2c-2.2-.4-5.7-.1-8.4-.3-6-.4-12.6.3-19-.2-1.6.2-3.4 0-4.9 0l-2.5.1c-2.3.1-4.9-.1-7-.1l-1.6.1h-15.8c-1.7 0-3.5-.2-5.3-.1l-1.3.1h-20.4c-.5 0-.2.3-.6.3l-4.1-.4c-2.3-.2-4.7 0-7 0-1.2 0-2.3-.2-3.2 0-3.1-.4-7.8-.3-11.3-.1-1 .3-2.8.2-3.6.6-2.6-.1-4.4.9-2.7 1.8 1 .2 1.7.5 3 .6 1.2 0 2.5-.3 3.8-.3l1.9.2 3.2-.1 1.5.1 1.3-.1h3c3 0 6.5.5 9 0 .9.5 2 .2 2.9.2 1.3 0 2.6.3 3.8.3l1.1-.2 1.5.2 1.5-.2h3.4c3 0 6.2-.3 9.6-.2l2.8.2 4.5-.2 4.6.1h3.7c1.8 0 3.4-.2 5.1 0 .7-.4 1.5 0 2.4-.3 2 .4 5.1.3 7 0h4.5c2.1.4 4.4.1 6.8.1Zm-.2 9.2h13.9c1 0 2.1-.1 3.2 0h8.1l1-.2c2-.2 4.6 0 6.8 0 1.6-.2 3 0 4.5 0l3.2-.4c3-.2 6-.1 9-.2 2 0 4.3-.2 6.3-.1h2.7l1 .2h3.4c1.7 0 3.1.2 4 0 1 0 3-1 3.1-1.3.1-.5-.8-1.3-1.7-1.5-.9-.2-2.4 0-3.2-.3-4.2.3-8.6.4-12.6.5h-7.7l-2.2.3c-2.5 0-4.7-.1-6.4 0-1.3.3-2.5.1-4 .1l-5.2.4c-2.3-.4-5.9 0-8.6-.1-6.2-.3-12.8.4-19.2 0-1.7.3-3.6 0-5 0l-2.6.2c-2.3.1-5-.1-7.1-.1l-1.7.1h-4.1c-3 0-5.3.1-7.7-.1-1.1.2-2.8 0-4.2 0-1.8 0-3.6-.2-5.4-.1l-1.2.1c-1.8 0-4.3 0-5.7-.2-1 0-2.2.2-3.3.1l-1.4-.1H831l-6.7-.1c-.5 0-.2.3-.6.2l-4.2-.5c-2.3-.2-4.8 0-7.1-.1-1.1 0-2.2-.4-3.2-.1-3.2-.6-8-.5-11.4-.5-1 .2-2.9 0-3.7.4-2.7-.2-4.6.7-2.8 1.7 1 .3 1.7.6 3 .7 1.2 0 2.6-.2 3.9-.1l1.8.3h6.2l1.8.2h1.2c3.2 0 6.6.6 9.2.3.9.4 2 .1 3 .2 1.3 0 2.6.3 3.8.3l1.2-.1 1.5.1 1.5-.1h13.2l2.8.2 4.7-.1c1.5 0 3.1.2 4.6.1h9c.7-.3 1.5 0 2.4-.2 2.1.3 5.2.2 7.2 0l4.5-.1c2.2.3 4.5.1 7 0Zm.9 15.8h13.6c1.1 0 2.2-.2 3.3-.1 2.5 0 5.3.2 8 0l1-.1c2-.2 4.5.1 6.6 0h4.5l3.1-.2c3-.2 6 0 8.9 0h8.9l1 .2h3.4c1.6.1 3 .4 4 .3 1 0 3-.9 3-1.3.1-.4-.8-1.3-1.6-1.5-.9-.3-2.4-.2-3.2-.4l-12.5.1h-9.8c-2.4 0-4.6-.1-6.3.1-1.3.2-2.5 0-3.9 0l-5.2.2c-2.2-.4-5.8 0-8.5 0-6-.4-12.7.3-19 0-1.6.2-3.5 0-5 0l-2.5.2h-7l-1.7.1-1.5-.1-2.6.1c-2.9.1-5.2.2-7.6 0-1 .3-2.7.2-4 .2-1.8 0-3.6-.2-5.4 0l-1.2.1h-5.6l-3.3.2-1.3-.1c-1.2 0-2.5.2-3.8.1l-6.5.1c-.5 0-.2.3-.7.3a49 49 0 0 0-4-.4c-2.3-.1-4.8.2-7.1.2-1.1 0-2.2-.3-3.1 0a70 70 0 0 0-11.4 0c-1 .3-2.8.3-3.6.7-2.6-.1-4.4.9-2.7 1.8 1.1.2 1.8.5 3 .5 1.3 0 2.6-.3 3.8-.3l2 .2 3.1-.2 1.5.1 1.4-.2 1.7.1h1.3c3-.1 6.5.3 9-.1.9.4 2 .1 3 0l3.8.3 1-.2 1.6.1 1.5-.1 3.3-.1c3.2-.1 6.3-.4 9.7-.3l2.8.1 4.6-.2h4.6l1.2-.1h2.5c1.7 0 3.4-.2 5 0 .8-.4 1.6 0 2.4-.4 2.2.4 5.2.2 7.1 0 1.2 0 3 0 4.5-.2 2.2.4 4.5.1 6.8 0v.2Zm-6.2 85.6H896c2.5.1 5.3.3 7.8.2l1-.2c2 0 4.5.2 6.7.1l4.4.1 3-.2h15.3c.8.1 1.8 0 2.6.2l1 .2h3.2c1.7.2 3 .5 4 .4 1-.1 3-.9 3-1.3.2-.4-.7-1.3-1.5-1.5-.9-.3-2.4-.2-3.2-.5-4 .2-8.4.1-12.3 0h-9.7c-2.4 0-4.6-.2-6.3 0h-3.8l-5.2.2c-2.2-.5-5.7-.1-8.3-.3-6-.3-12.6.3-18.8 0-1.6.1-3.5 0-5-.1l-2.4.1h-12.7c-2.9.1-5.2.2-7.5 0-1.1.2-2.7.1-4 .1-1.8 0-3.6-.2-5.4 0h-1.2c-1.7.2-4.1 0-5.5 0l-3.2.1h-11.6c-.5 0-.1.3-.6.3a41 41 0 0 0-4-.4c-2.3-.1-4.7.1-7 .1-1.1 0-2.2-.2-3.1 0a68 68 0 0 0-11.2 0c-1 .2-2.8.2-3.6.5-2.6 0-4.4 1-2.7 1.9 1.1.2 1.8.5 3 .5s2.5-.3 3.8-.3l1.8.2 3.2-.1h1.5l1.4-.1 1.7.1h1.2c3 0 6.4.4 9 0 .8.4 1.9.1 2.8.1 1.3 0 2.6.3 3.8.3l1.1-.2 1.5.1 1.5-.1h3.3c3-.1 6.2-.4 9.6-.3l2.7.2 4.5-.2 4.6.1 1.2-.1 2.5.1c1.7 0 3.3-.3 5 0 .7-.4 1.5 0 2.3-.3 2.1.3 5.1.2 7-.1h4.5c2 .3 4.4.1 6.7 0Zm5-95.1 13.4-.1c1 0 2.1-.1 3.2 0 2.4 0 5.3.2 7.8 0l1-.2c2-.1 4.4.2 6.6 0l4.3.1 3-.2c3-.2 6 0 8.7 0h8.8l1 .3h3.3c1.6.1 3 .4 3.9.3 1 0 3-.8 3-1.3.2-.4-.7-1.2-1.5-1.5-.9-.2-2.4 0-3.2-.4l-12.2.1-7.4-.1-2.2.1c-2.4 0-4.6-.2-6.3 0-1.2.2-2.4 0-3.8 0l-5 .3c-2.3-.4-5.7 0-8.4-.2-6-.3-12.4.5-18.6.2-1.6.2-3.5 0-5 0l-2.4.2c-2.2.2-4.8 0-7 0l-1.5.2h-4c-2.9.2-5.2.4-7.5.2-1 .2-2.7.2-4 .2h-5.2l-1.3.2h-5.5c-1 0-2 .3-3.1.3l-1.4-.1-3.6.2-6.5.2c-.4 0-.1.3-.6.3a25 25 0 0 0-4-.3c-2.3-.1-4.7.2-7 .3-1 0-2.1-.2-3 0a68 68 0 0 0-11.1.4c-1 .3-2.8.3-3.6.7-2.6 0-4.3 1-2.6 2 1.1.1 1.8.4 3 .4s2.5-.4 3.7-.4h1.9l3.1-.2 1.5.1 1.3-.2h3c3-.2 6.3.2 8.9-.3.8.4 1.9 0 2.8 0 1.3 0 2.6.3 3.8.2l1-.2 1.5.1 1.5-.2 3.3-.1c3-.2 6.1-.5 9.5-.5l2.6.1c1.6 0 3-.2 4.5-.3h4.6l1.2-.1h2.4c1.7 0 3.4-.3 5-.1.7-.4 1.5 0 2.3-.4 2.1.3 5.1.2 7-.2h4.4c2 .3 4.3 0 6.7 0Zm.5 17.1c4.7-.2 9.9-.1 13.7-.1l3.2-.1c2.6 0 5.4.2 8 .1l1-.2c2-.1 4.5.2 6.7.1l4.5.1 3.1-.2 8.8.2c2 0 4.3 0 6.4.2l2.6.1 1 .2 3.3.2c1.7.2 3 .5 4 .5s3-.8 3.1-1.2c.1-.4-.7-1.3-1.5-1.5-1-.3-2.4-.3-3.2-.6-4.2 0-8.6-.2-12.5-.3l-7.6-.3-2.2.1c-2.5 0-4.7-.2-6.4 0H917l-5.2.1c-2.2-.4-5.8 0-8.5-.2-6.1-.3-12.7.5-19 .2-1.6.2-3.5 0-5 0l-2.5.2h-7.1l-1.6.2H864c-3 .2-5.3.3-7.6.2-1.1.2-2.8.1-4.1.1H847l-1.3.2c-1.8.2-4.2 0-5.6 0l-3.2.2h-1.4l-3.7.1h-6.6c-.5 0-.2.3-.6.3a58 58 0 0 0-4.1-.4c-2.3-.1-4.8.1-7.1.1-1 0-2.2-.2-3.1 0-3.2-.5-7.9-.3-11.3-.2-1 .3-2.8.2-3.7.5-2.6-.1-4.4.8-2.7 1.8 1 .2 1.7.5 3 .6l3.8-.2 1.9.2 3.2-.1 1.5.1 1.4-.1 1.7.1h1.3c3 0 6.5.3 9 0 .9.4 2 .1 3 .1l3.8.2 1.1-.1h1.5l1.5-.1h3.4c3.1-.2 6.3-.4 9.7-.4l2.7.1 4.6-.2h4.6l1.3-.2c.9 0 1.6.2 2.5.1 1.7 0 3.4-.3 5-.2.7-.3 1.6 0 2.4-.3 2.2.3 5.2.1 7.1-.2l4.5-.1c2.1.3 4.5 0 6.9 0h-.1Zm.3 9.4h13.6l3.3-.1c2.5 0 5.3.2 7.9 0l1-.1c2-.2 4.5 0 6.7 0h4.5c1.1 0 2-.2 3-.3 3-.2 6-.1 8.9-.1 2 0 4.2-.2 6.3-.1h2.6l1 .2h3.3c1.7 0 3 .3 4 .2 1-.1 3-1 3-1.4.1-.4-.8-1.2-1.6-1.5-.9-.2-2.4 0-3.2-.3-4.1.2-8.5.2-12.4.3h-7.5l-2.3.1c-2.4 0-4.6-.1-6.3.1-1.2.2-2.4 0-3.8 0l-5.2.3c-2.2-.3-5.8 0-8.5 0-6-.3-12.6.4-19 0-1.5.3-3.4.1-4.9 0l-2.4.2H870l-1.6.2-1.5-.1h-2.6c-3 .2-5.2.3-7.6 0-1 .3-2.7.2-4 .2-1.8 0-3.6-.2-5.4 0h-1.2c-1.8.2-4.2 0-5.6 0l-3.2.2-1.4-.2-3.7.2h-6.6c-.5 0-.1.3-.6.2l-4-.4c-2.3-.2-4.8.1-7.1.1-1.1 0-2.2-.3-3.1 0a69 69 0 0 0-11.3-.2c-1 .3-2.8.2-3.6.6-2.6-.1-4.5.8-2.8 1.8 1.1.2 1.8.5 3 .6 1.3 0 2.6-.3 3.8-.3l1.9.2 3.2-.1 1.5.1 1.4-.1h3c3 0 6.4.5 9 0 .8.5 2 .2 2.8.2l3.9.3 1.1-.2 1.5.1 1.5-.1h3.3c3.2-.1 6.3-.3 9.7-.3l2.7.2 4.6-.2h8.4c1.8 0 3.4-.2 5.1 0 .7-.4 1.5 0 2.4-.4 2 .3 5.1.2 7 0 1.2 0 3 0 4.5-.2 2.1.4 4.4.1 6.8 0v.1Zm-3.2 8.9 13.6.1h3.3c2.5 0 5.3.3 7.9.2l1-.2c2-.1 4.5.2 6.7.1l4.4.1 3.1-.2c3-.1 6 0 8.8.1h6.4l2.6.2 1 .2 3.3.1c1.7.1 3 .4 4 .3 1 0 3-.8 3-1.2.2-.5-.8-1.3-1.5-1.6-1-.2-2.4-.1-3.3-.4-4 .1-8.4 0-12.3 0l-7.6-.2-2.2.1c-2.4 0-4.6-.2-6.3 0h-9.1c-2.2-.3-5.8 0-8.4-.2-6-.4-12.7.3-19-.2-1.6.2-3.5 0-5 0l-2.4.1c-2.3.1-5-.1-7-.1l-1.7.2-1.5-.2-2.6.1c-3 0-5.2.2-7.6 0h-4c-1.8 0-3.6-.2-5.4-.1l-1.2.2-5.6-.2-3.2.2-1.4-.2-3.7.2h-6.6c-.4 0-.1.2-.6.2l-4-.4c-2.3-.2-4.8.1-7.1 0-1.1 0-2.2-.2-3.1 0a71 71 0 0 0-11.3 0c-1 .2-2.8.1-3.6.5-2.6-.1-4.5.9-2.8 1.8 1.1.2 1.8.5 3 .6 1.3 0 2.6-.3 3.8-.3l1.9.2 3.2-.1 1.5.1 1.4-.1 1.7.1 1.2-.1c3 0 6.5.5 9 .1.9.4 2 .1 3 .1l3.8.3 1-.2 1.6.2 1.5-.2h3.3c3.1 0 6.3-.3 9.7-.2l2.7.2 4.6-.2 4.6.1h3.7c1.7 0 3.4-.2 5 0 .7-.4 1.5 0 2.4-.3 2.1.4 5.2.3 7 0h4.5c2.2.4 4.5.1 6.9.1Zm-.1 9.2H907l1-.2c2.1-.2 4.7 0 6.9 0 1.5-.2 3 0 4.5 0l3.1-.4c3.1-.2 6.1-.1 9-.2 2 0 4.3-.2 6.4-.1h2.6l1 .2h3.5c1.6 0 3 .2 4 0 1 0 3-1 3.1-1.3 0-.4-.9-1.3-1.7-1.5-.9-.2-2.4 0-3.3-.3-4.1.3-8.5.4-12.5.5h-7.7l-2.3.3c-2.4 0-4.6-.1-6.4.1-1.2.2-2.5 0-3.9 0l-5.3.4c-2.2-.4-5.8 0-8.5-.1-6.2-.3-12.9.4-19.3 0-1.6.3-3.5 0-5 0l-2.5.2c-2.3.1-5-.1-7.2-.1l-1.6.2-1.5-.2-2.7.1c-3 0-5.3.1-7.7-.1-1 .2-2.8 0-4.1 0-1.8 0-3.6-.2-5.4-.1l-1.3.1c-1.8 0-4.2 0-5.6-.2-1.1 0-2.2.2-3.3.1l-1.4-.1h-10.4c-.5-.1-.2.2-.7.1l-4.1-.5c-2.3-.2-4.8 0-7.2-.1-1 0-2.2-.4-3.1-.1-3.2-.6-8-.5-11.5-.5-1 .2-2.8 0-3.6.4-2.7-.2-4.6.7-2.9 1.7 1.1.3 1.8.6 3 .7 1.3 0 2.6-.2 4-.1l1.8.3h3.3l1.5.1 1.4-.1 1.8.2h1.2c3.1 0 6.6.6 9.2.3.8.4 2 .2 2.9.2l4 .3 1-.1 1.5.1 1.6-.1h13.2l2.8.2 4.6-.1c1.6 0 3.2.2 4.7.1h9c.6-.3 1.5 0 2.4-.2 2.1.3 5.2.2 7.1 0l4.6-.1c2.1.3 4.5.1 6.9 0Zm.8 15.8c4.8-.1 10 0 13.7 0 1 0 2.1-.2 3.2-.1 2.5 0 5.4.2 8 0l1-.1c2-.2 4.5.1 6.7 0h4.5l3-.2c3.1-.2 6.1 0 9 0h8.9l1 .2h3.3c1.7.1 3 .4 4 .3 1 0 3-.9 3-1.3.2-.4-.8-1.3-1.5-1.5-1-.3-2.5-.2-3.3-.4l-12.4.1H925c-2.4 0-4.7-.1-6.4.1-1.2.2-2.4 0-3.8 0l-5.3.3c-2.2-.4-5.7 0-8.4-.2-6.1-.3-12.7.4-19 .1-1.7.2-3.6 0-5 0l-2.5.2h-7.1l-1.6.1h-4.1c-3 .1-5.3.2-7.6 0-1.1.3-2.8.2-4.1.2-1.8 0-3.5-.2-5.3 0l-1.3.1H838l-3.2.2-1.4-.1-3.7.2H823c-.5 0-.2.3-.6.3l-4.1-.4c-2.3-.1-4.7.2-7.1.2-1 0-2.2-.3-3.1 0a71 71 0 0 0-11.3 0c-1 .3-2.8.3-3.6.7-2.7-.1-4.5.9-2.8 1.8 1.2.2 1.8.5 3 .5l3.9-.3 1.9.2 3.2-.2 1.5.1 1.3-.2 1.8.1h1.2c3.1-.1 6.5.3 9.1-.1.8.4 2 .1 2.9 0 1.3 0 2.6.3 3.8.3l1.1-.2 1.5.1 1.5-.1 3.4-.1c3.1-.1 6.3-.4 9.7-.3l2.7.1 4.6-.2h4.6l1.2-.1h2.5c1.8 0 3.4-.2 5.1 0 .7-.4 1.5 0 2.4-.3 2.1.3 5.2.1 7-.2h4.6c2.1.3 4.4 0 6.8 0Zm-1.2-9.5H895l3.2-.2c2.5 0 5.3.3 7.8.1l1-.2c2-.1 4.4.2 6.6 0l4.4.1 3-.2c3-.2 6 0 8.7 0h8.8l1 .3h3.2l4 .4c1-.1 2.9-1 3-1.4 0-.4-.8-1.2-1.6-1.4-.8-.3-2.3-.2-3.2-.5-4 .2-8.3.1-12.2.1l-7.4-.1-2.2.1c-2.4 0-4.5-.2-6.2 0-1.2.2-2.4 0-3.8 0l-5.2.3c-2.1-.4-5.6 0-8.2-.2-6-.3-12.5.5-18.7.2-1.6.2-3.4 0-4.9 0l-2.4.2c-2.3.2-4.9 0-7 0l-1.6.2h-1.4l-2.6.1c-2.8.1-5.1.3-7.4.1-1.1.2-2.7.2-4 .2h-5.3l-1.2.2h-5.5c-1 0-2.1.3-3.2.3l-1.3-.1-3.7.2-6.5.2c-.4 0 0 .3-.6.3a25 25 0 0 0-4-.3c-2.3-.1-4.6.3-7 .3-1 0-2.1-.2-3 0a68 68 0 0 0-11.1.4c-1 .3-2.8.3-3.5.7-2.6 0-4.4 1-2.7 2 1.1.1 1.8.4 3 .4s2.5-.4 3.7-.4h1.9l3.1-.2c.5 0 1 .2 1.5.1l1.4-.2h2.9c3-.2 6.4.2 8.9-.3.8.4 1.9.1 2.8 0 1.3 0 2.6.3 3.8.2l1-.2c.6 0 1 .2 1.5.1l1.5-.2 3.3-.1c3-.2 6.2-.5 9.5-.5l2.7.1c1.6 0 3-.2 4.5-.3h4.5l1.2-.1h2.4c1.8 0 3.4-.3 5-.1.7-.4 1.5 0 2.4-.4 2 .3 5 .2 7-.2h4.3c2.1.3 4.4 0 6.7 0Zm.5 17.1c4.8-.2 10-.1 13.7-.1l3.3-.1c2.5 0 5.3.2 8 .1l1-.2c2 0 4.5.2 6.7.1 1.5 0 2.9.2 4.4.1l3.2-.2 8.8.2c2 0 4.3 0 6.3.2l2.6.1 1 .3 3.4.1c1.6.2 3 .5 4 .5s3-.8 3-1.2c.2-.4-.7-1.3-1.5-1.5-.9-.3-2.4-.3-3.2-.6-4.2 0-8.5-.2-12.5-.3l-7.6-.2h-2.2c-2.4 0-4.6-.2-6.4 0h-3.8l-5.3.1c-2.2-.4-5.7 0-8.4-.1-6.1-.3-12.8.4-19.1 0-1.6.3-3.5.1-5 .1l-2.5.2c-2.3.2-4.9 0-7 0l-1.7.2h-4.1c-3 .2-5.2.3-7.6.2-1 .2-2.7.2-4 .2-1.8 0-3.6-.2-5.4 0l-1.2.1c-1.8.2-4.2 0-5.6 0l-3.3.2h-1.3c-1.3 0-2.6.2-3.8.1h-6.6c-.4 0-.1.3-.6.3l-4-.4c-2.4-.1-4.8.2-7.2.1-1 0-2.1-.2-3 0-3.2-.5-8-.3-11.4-.2-1 .3-2.8.2-3.6.5-2.6-.1-4.5.8-2.8 1.8 1.1.2 1.7.5 3 .6l3.8-.2 2 .2 3.1-.1c.6 0 1 .2 1.5.1l1.4-.1 1.8.1h1.2c3 0 6.5.4 9.1 0 .8.4 2 .1 2.9.1 1.3 0 2.6.3 3.8.2l1.2-.1h3c1-.2 2.2-.1 3.3-.2 3.2 0 6.3-.3 9.7-.3l2.8.1 4.6-.2h4.6l1.2-.2c1 0 1.7.2 2.5.1 1.8 0 3.4-.3 5.1-.2.7-.3 1.5 0 2.4-.3 2.1.3 5.2.2 7-.2l4.5-.1c2.2.3 4.5 0 6.9 0Zm2 8.8h13.6c1 0 2.1-.2 3.2-.1 2.5 0 5.4.2 8 0l1-.2h11l3.1-.2c3-.2 6-.1 8.8-.2h9l1 .2h3.3c1.7 0 3 .3 4 .2 1-.1 3-1 3-1.4.1-.4-.8-1.3-1.6-1.5-.9-.2-2.4 0-3.2-.3-4.1.2-8.5.2-12.4.3h-7.6l-2.2.1h-6.3c-1.2.2-2.5 0-3.9.1l-5.1.3c-2.3-.4-5.8 0-8.5 0-6-.3-12.6.4-19 0-1.5.2-3.4 0-4.9 0l-2.4.2h-7.1l-1.6.1H863c-3 .1-5.2.2-7.6 0-1 .2-2.7.2-4 .2-1.8 0-3.6-.2-5.4-.1l-1.3.2-5.5-.1-3.2.1h-11.7c-.5 0-.1.3-.6.3l-4-.4c-2.3-.2-4.8 0-7.1 0-1.1 0-2.2-.2-3.1 0a69 69 0 0 0-11.3-.1c-1 .3-2.8.2-3.6.6-2.6-.2-4.5.8-2.8 1.8 1.1.2 1.8.5 3 .5l3.8-.2 1.9.2 3.2-.1h6c3 0 6.4.4 9 0 .8.5 2 .2 2.8.2l3.9.3 1.1-.2 1.5.1 1.5-.1h3.3c3.2-.2 6.3-.4 9.7-.3l2.7.2 4.6-.2h4.6l1.2-.1c1 0 1.7.2 2.5.1 1.8 0 3.4-.3 5-.1.8-.3 1.6 0 2.4-.3 2.2.3 5.2.2 7.1-.1h4.5c2.1.3 4.4 0 6.8 0Zm-3.3 8.8 13.7.2c1 0 2.1-.1 3.2 0 2.5 0 5.4.3 8 .1l1-.1c2-.1 4.4.2 6.6.1l4.4.1 3.2-.2c3-.1 6 0 8.8.1h6.3l2.6.1c.3 0 .6.3 1 .3h3.3c1.7.2 3 .5 4 .4 1 0 3-.9 3-1.3.2-.4-.7-1.2-1.5-1.5-1-.3-2.4-.1-3.2-.4h-12.4l-7.6-.2h-2.2c-2.4 0-4.6-.2-6.3 0-1.3.2-2.5 0-3.9 0l-5.2.2c-2.2-.5-5.7-.1-8.4-.3-6-.4-12.7.2-19-.2-1.6.2-3.5 0-5 0l-2.4.1c-2.3 0-5-.2-7-.1l-1.7.1-1.5-.1H860c-2.9.2-5.2.2-7.5 0-1.1.2-2.8.1-4.1 0H843l-1.2.1H836c-1-.1-2.1 0-3.2 0h-11.6c-.5 0-.2.3-.7.3l-4-.5c-2.3 0-4.8.2-7.1.1-1 0-2.2-.2-3.1 0-3.2-.4-7.9-.3-11.3-.1-1 .3-2.8.2-3.6.6-2.6-.1-4.5.8-2.8 1.8 1.2.2 1.8.5 3 .5l3.9-.2 1.8.2c1 0 2.2-.2 3.2-.1h6c3 0 6.4.4 9 0 .8.5 2 .2 2.8.2l3.9.3 1-.2 1.6.2 1.5-.2h3.3c3.1 0 6.3-.3 9.7-.2l2.7.2 4.6-.2h5.8c1 0 1.7.2 2.5.1 1.7 0 3.4-.2 5 0 .7-.4 1.6 0 2.4-.3 2.2.3 5.2.2 7.1 0h4.5c2 .3 4.4 0 6.8 0Z"/><path d="M880.6 543.7h13.8l3.3-.1c2.6 0 5.5.2 8 0l1-.1c2.1-.2 4.6 0 6.9 0 1.5-.2 3 0 4.5-.1 1.2 0 2.1-.2 3.1-.3 3.1-.2 6.1-.1 9-.2l6.4-.2h2.6l1 .3 3.5-.1c1.6 0 3 .3 4 .1 1 0 3-1 3.1-1.4 0-.4-.9-1.2-1.7-1.4-.9-.2-2.4 0-3.3-.3-4.1.3-8.5.4-12.5.5h-7.7l-2.3.2c-2.4.1-4.6 0-6.4.2H913c-1.7 0-3.5.3-5.3.3-2.2-.3-5.8 0-8.5 0-6.2-.3-12.9.4-19.3 0-1.6.2-3.5 0-5 0l-2.5.2c-2.4 0-5-.2-7.2-.1l-1.6.1-1.5-.1h-2.7c-3 .2-5.3.2-7.7 0-1 .2-2.8 0-4.1 0-1.8 0-3.6-.2-5.4-.1l-1.3.1-5.6-.2-3.3.1-1.4-.1h-3.8l-6.6-.1c-.5 0-.2.3-.7.2l-4.1-.5c-2.3-.2-4.8 0-7.2-.1-1 0-2.2-.4-3.1-.1-3.2-.6-8-.6-11.5-.5-1 .2-2.8 0-3.6.4-2.7-.2-4.6.7-2.9 1.7 1.1.3 1.8.6 3 .7 1.3 0 2.6-.2 4-.1l1.8.2h3.3l1.5.2c.5 0 1-.2 1.4-.1l1.8.1h1.2c3.1.1 6.6.6 9.2.3.8.5 2 .2 2.9.2 1.3 0 2.7.4 3.9.4l1.1-.1 1.5.1 1.6-.1h3.4c3.1 0 6.3-.2 9.8 0l2.8.2 4.6-.1 4.7.1h3.8c1.7 0 3.4-.2 5.2 0 .6-.3 1.5 0 2.3-.2 2.2.3 5.3.2 7.2-.1h4.6c2.1.3 4.5.1 6.9 0Zm.8 15.8c4.8-.1 10 0 13.7 0l3.2-.2c2.6.1 5.4.3 8 .1l1-.2c2 0 4.5.2 6.7 0 1.6 0 3 .2 4.5.1l3.1-.2c3-.2 6 0 8.8 0 2 0 4.3-.2 6.4 0h2.6l1 .2h3.3c1.7 0 3 .4 4 .3 1-.1 3-1 3.1-1.4 0-.4-.8-1.2-1.6-1.4-1-.3-2.4-.2-3.3-.4l-12.4.1h-9.8c-2.4 0-4.6-.1-6.4 0-1.2.2-2.4 0-3.8 0l-5.2.3c-2.3-.4-5.8 0-8.5-.1-6.1-.3-12.7.4-19 0-1.7.3-3.6.1-5 0l-2.5.3h-7.1l-1.6.1-1.5-.1-2.6.1c-3 .1-5.3.2-7.6 0-1 .2-2.7.2-4 .2-1.8 0-3.6-.2-5.4 0l-1.3.1h-5.6l-3.2.2-1.4-.2c-1.2 0-2.5.3-3.7.2l-6.6.1c-.5 0-.1.3-.6.2a49 49 0 0 0-4.1-.3c-2.3-.2-4.7.2-7 .1-1.2 0-2.3-.2-3.2 0a70 70 0 0 0-11.3 0c-1 .4-2.8.3-3.6.7-2.6 0-4.5 1-2.7 1.9 1 .2 1.7.5 3 .5l3.8-.3 1.9.2 3.2-.2h5.9c3-.1 6.5.3 9-.1.9.4 2 0 2.9 0 1.3 0 2.6.3 3.8.3l1.1-.2 1.5.1 1.5-.2h3.4c3.1-.1 6.3-.4 9.7-.4l2.7.2c1.7 0 3-.2 4.6-.3h8.4c1.7 0 3.4-.2 5 0 .7-.4 1.5 0 2.4-.4 2.1.3 5.2.2 7-.1h4.6c2.1.3 4.4 0 6.8 0Zm-1.2-9.5 13.4-.1c1.1 0 2.2-.1 3.2 0h7.8l1-.2h11l3-.1c3-.2 6 0 8.7 0h8.8l1 .2 3.2.1c1.7.1 3 .4 4 .3 1 0 3-.9 3-1.3.1-.4-.8-1.2-1.6-1.5-.8-.2-2.3-.1-3.1-.4h-28.1c-1.2.2-2.4 0-3.8 0l-5.1.3c-2.2-.4-5.7 0-8.3-.1-6-.3-12.5.4-18.7.2-1.6.2-3.4 0-4.9 0l-2.4.2h-7l-1.6.2h-4c-2.8.2-5.1.3-7.4.2-1 .2-2.7.2-4 .2-1.8 0-3.5-.2-5.3 0l-1.2.2h-5.5l-3.2.3-1.3-.1-3.7.2-6.4.2c-.5 0-.2.3-.7.3a42 42 0 0 0-4-.4c-2.2 0-4.6.3-7 .4-1 0-2-.2-3 0a68 68 0 0 0-11.1.4c-1 .3-2.7.3-3.5.7-2.6 0-4.4 1-2.6 1.9 1 .2 1.7.5 2.9.4 1.2 0 2.5-.3 3.8-.3h1.8l3.2-.2h1.4l1.4-.1h2.9c3-.2 6.4.2 8.9-.3.8.4 2 0 2.8 0l3.8.2 1.1-.2h1.5l1.4-.1 3.3-.2c3-.1 6.2-.4 9.5-.4l2.7.1c1.6 0 3-.2 4.5-.3h4.5l1.2-.1h2.5c1.7 0 3.3-.3 5-.2.6-.3 1.4 0 2.3-.3 2 .3 5 .2 7-.2l4.3-.1c2.1.3 4.4 0 6.7 0Zm.6 17h13.6l3.3-.1c2.5 0 5.4.2 8 0h1c2-.2 4.5 0 6.7 0l4.5.1 3-.2 8.9.2 6.3.1 2.6.2 1 .2 3.4.2c1.6.2 3 .5 4 .5s3-.8 3-1.2c.2-.4-.7-1.3-1.5-1.6-.8-.3-2.4-.2-3.2-.5l-12.4-.3-7.6-.3-2.3.1c-2.4 0-4.6-.3-6.3 0l-4-.1-5.1.2c-2.3-.4-5.8 0-8.5-.2-6.1-.3-12.7.5-19 .1-1.7.3-3.6.1-5 .1l-2.5.2h-7.2l-1.6.2h-4.1c-2.9.2-5.2.3-7.5.2-1.1.2-2.8.1-4.1.1h-5.4l-1.2.2H836l-3.3.2-1.3-.1-3.8.2H821c-.4 0-.1.3-.6.3l-4-.4c-2.3-.2-4.8.1-7.1.1-1.1 0-2.2-.3-3.2 0-3.1-.5-7.8-.3-11.3-.2-1 .3-2.8.2-3.6.5-2.6-.2-4.5.8-2.8 1.8 1.1.2 1.8.5 3 .6l3.9-.2 1.8.2 3.3-.1 1.5.1 1.3-.1h3c3 0 6.5.4 9.1 0 .8.5 2 .2 2.9.2l3.9.2 1-.2 1.6.2 1.5-.2h3.3c3.2-.2 6.3-.5 9.8-.4l2.7.1c1.6 0 3-.2 4.6-.3h8.3c1.8-.1 3.4-.4 5.1-.2.7-.3 1.5 0 2.4-.3 2.1.3 5.2.1 7-.2l4.6-.1c2.1.3 4.4 0 6.8 0Zm1.5 7.6c4.8-.1 9.9 0 13.7 0 1 0 2.1-.2 3.2-.1 2.5 0 5.4.2 8 0l1-.2h11.1l3-.2c3.1-.2 6-.1 8.9-.2h8.9l1 .2h3.3c1.7 0 3 .3 4 .2 1-.1 3-1 3-1.4.2-.4-.7-1.3-1.6-1.5-.8-.2-2.3 0-3.2-.3-4 .2-8.4.2-12.4.3h-7.5l-2.2.1c-2.4 0-4.7-.1-6.4 0-1.2.2-2.4 0-3.8.1l-5.2.3c-2.2-.4-5.7 0-8.4 0-6.1-.4-12.7.4-19 0-1.6.2-3.5 0-5 0l-2.4.2h-7l-1.7.1h-4.1c-2.9.1-5.2.2-7.6 0-1 .2-2.7.2-4 .2-1.8 0-3.6-.2-5.4-.1l-1.2.1h-5.6l-3.2.1h-11.7c-.4 0-.1.3-.6.3a47 47 0 0 0-4-.4c-2.3-.2-4.8 0-7.1 0-1 0-2.2-.2-3.1 0a69 69 0 0 0-11.3-.1c-1 .3-2.8.2-3.6.6-2.6-.2-4.4.8-2.8 1.8 1.2.2 1.8.5 3 .5l3.9-.2 1.8.2 3.2-.2 1.5.2 1.4-.2 1.7.2 1.3-.1c3 0 6.5.4 9 0 .8.5 2 .2 2.9.2 1.3 0 2.6.3 3.8.2l1.1-.1 1.5.1 1.5-.1h3.4c3-.2 6.3-.4 9.6-.3l2.8.2c1.6 0 3-.2 4.5-.3 1.5 0 3.1.2 4.6.1l1.3-.1 2.4.1c1.8 0 3.4-.3 5.1-.1.7-.4 1.5 0 2.4-.3 2.1.3 5.1.2 7-.1h4.5c2.1.3 4.5 0 6.8 0Zm-3.2 8.9H896c2.5.2 5.4.4 8 .3l1-.2c2-.1 4.4.2 6.6.1l4.5.1 3-.2c3-.1 6 0 8.9.1h6.3l2.6.2 1 .2 3.3.1c1.7 0 3 .4 4 .3 1 0 3-.8 3-1.3.2-.4-.7-1.2-1.5-1.5-.9-.2-2.4-.1-3.2-.4H931l-7.6-.2h-2.2c-2.4 0-4.6-.2-6.3 0-1.3.2-2.5 0-3.9 0l-5.2.2c-2.2-.5-5.7-.1-8.4-.3-6-.4-12.7.3-19-.2-1.6.2-3.5 0-5 0l-2.4.1c-2.3.1-4.9-.1-7-.1l-1.7.1h-15.7c-1.8 0-3.6-.2-5.4-.1l-1.2.1h-5.6c-1-.1-2.1 0-3.2 0h-11.6c-.5 0-.2.3-.7.3a47 47 0 0 0-4-.4c-2.3-.2-4.8 0-7.1 0-1 0-2.2-.2-3.1 0-3.2-.4-7.9-.3-11.3-.1-1 .3-2.8.2-3.6.6-2.6-.1-4.5.8-2.7 1.8 1 .2 1.7.5 3 .6 1.2 0 2.5-.3 3.8-.3l1.8.2 3.2-.1 1.5.1 1.4-.1h3c3 0 6.4.4 9 0 .8.5 2 .2 2.9.2 1.3 0 2.6.3 3.8.3l1.1-.2 1.5.2 1.5-.2h3.3c3.2 0 6.3-.3 9.7-.2l2.7.2 4.6-.2 4.6.1 1.2-.1c1 0 1.7.2 2.5.1 1.8 0 3.4-.2 5 0 .8-.4 1.6 0 2.4-.3 2.2.4 5.2.3 7.1 0h4.5c2.1.4 4.4.1 6.8.1Zm-.1 9.2h13.9c1 0 2.1-.1 3.2 0h8l1-.2c2.2-.2 4.7 0 6.9 0 1.6-.2 3 0 4.5 0l3.2-.4c3-.2 6-.1 9-.2 2 0 4.2-.2 6.3-.1h2.7l1 .2h3.4c1.7 0 3 .2 4 0 1 0 3-1 3.1-1.4.1-.4-.9-1.2-1.7-1.4-.9-.2-2.4 0-3.2-.3-4.2.3-8.6.4-12.6.5H924l-2.2.3c-2.5 0-4.7-.1-6.4 0-1.3.3-2.5.1-4 .1l-5.2.3c-2.3-.3-5.9 0-8.6 0-6.2-.3-12.8.4-19.2 0-1.7.3-3.6 0-5 0l-2.6.2c-2.3.1-5-.2-7.1-.1l-1.7.1h-4c-3 0-5.4.1-7.7-.1-1.1.2-2.8 0-4.2 0-1.8 0-3.6-.2-5.4-.1l-1.2.1c-1.8 0-4.3 0-5.7-.2l-3.3.1-1.4-.1h-3.7l-6.7-.1c-.5 0-.2.3-.6.2l-4.2-.5c-2.3-.2-4.8 0-7.2-.1-1 0-2.2-.4-3.1-.1-3.2-.6-8-.6-11.4-.5-1 .2-2.9 0-3.7.4-2.7-.2-4.6.7-2.9 1.7 1.2.3 1.8.6 3 .7 1.3 0 2.7-.2 4-.1l1.8.3h6.1l1.8.2 1.2-.1c3.1.1 6.6.7 9.2.3.9.5 2 .2 3 .3l3.8.3 1.2-.1 1.5.1 1.5-.1h13.2l2.8.2 4.7-.1c1.5 0 3 .2 4.6.1h3.8c1.8 0 3.4-.2 5.2 0 .7-.3 1.5 0 2.4-.2 2.1.3 5.2.2 7.1 0l4.6-.1c2.1.3 4.5.1 7 0h-.1Zm.8 15.8c4.8-.1 10 0 13.7 0l3.2-.2c2.6.1 5.4.3 8 .1l1-.1c2-.2 4.5.1 6.7 0h4.5l3.1-.2c3-.2 6 0 8.8 0 2 0 4.3-.2 6.4 0h2.6l1 .2h3.3c1.7.1 3 .4 4 .3 1-.1 3-.9 3.1-1.3 0-.4-.8-1.3-1.6-1.5-.9-.3-2.4-.2-3.2-.4l-12.5.1h-9.8c-2.4 0-4.6-.1-6.4 0-1.2.2-2.4 0-3.8 0l-5.2.3c-2.3-.4-5.8 0-8.5 0-6-.4-12.7.3-19 0-1.6.2-3.5 0-5 0l-2.5.2h-7l-1.7.1-1.5-.1-2.6.1c-3 .1-5.2.2-7.6 0-1 .3-2.7.2-4 .2-1.8 0-3.6-.2-5.4 0l-1.3.1H835l-3.2.2-1.4-.1c-1.2 0-2.5.2-3.7.1l-6.6.1c-.5 0-.1.3-.6.3-1.2-.2-2.6-.4-4-.4-2.4-.1-4.8.2-7.2.2-1 0-2.2-.3-3 0-3.2-.4-8-.2-11.4 0-1 .3-2.8.2-3.6.7-2.6-.1-4.5.9-2.7 1.8 1.1.2 1.7.5 3 .5l3.8-.3 1.9.2 3.2-.2h5.9c3-.1 6.5.3 9-.1.9.4 2 .1 2.9 0 1.3 0 2.6.3 3.8.3l1.2-.2 1.4.1 1.5-.1 3.4-.1c3.1-.1 6.3-.4 9.7-.3l2.7.1 4.6-.2h4.6l1.3-.1h2.5c1.7 0 3.4-.2 5 0 .7-.4 1.6 0 2.4-.4 2.1.3 5.2.2 7.1 0 1.2 0 3 0 4.5-.2 2.1.4 4.4.1 6.8 0v.2Zm-1.2-9.5 13.5-.1H903l1-.2c2-.1 4.5.2 6.6 0l4.4.1 3-.2c3-.2 6 0 8.7 0h8.8l1 .3h3.2c1.7.1 3 .4 4 .3 1 0 3-.8 3-1.3.1-.4-.8-1.2-1.6-1.5-.8-.2-2.3 0-3.1-.4l-12.2.1-7.5-.1-2.2.1c-2.3 0-4.5-.2-6.2 0-1.2.2-2.4 0-3.8 0l-5.1.2c-2.2-.4-5.7 0-8.3 0-6-.4-12.5.4-18.7 0-1.6.3-3.4.1-4.9.1l-2.4.2c-2.3.2-4.8 0-7 0l-1.5.2H858c-2.8.2-5.1.4-7.4.2-1 .2-2.7.2-4 .2h-5.3l-1.2.2h-5.5c-1 0-2.1.3-3.2.3l-1.3-.1-3.7.2-6.4.2c-.5 0-.2.3-.6.3a26 26 0 0 0-4-.3c-2.3-.1-4.7.2-7 .3-1 0-2.2-.2-3 0a68 68 0 0 0-11.2.4c-1 .3-2.7.3-3.5.7-2.6 0-4.4 1-2.6 2 1 .1 1.7.4 2.9.3 1.3 0 2.5-.3 3.8-.3h1.8l3.2-.2 1.4.1 1.4-.2h2.9c3-.2 6.4.2 9-.3.7.4 1.8 0 2.7 0 1.3 0 2.6.3 3.8.2l1.1-.2 1.5.1 1.4-.2 3.3-.1c3-.2 6.2-.5 9.5-.5l2.7.1c1.6 0 3-.2 4.5-.3h4.5l1.2-.1h2.5c1.7 0 3.3-.3 5-.1.6-.4 1.4 0 2.3-.4 2 .3 5 .2 7-.2h4.3c2.1.3 4.4 0 6.7 0Zm.6 17h13.7l3.2-.1c2.5 0 5.4.2 8 .1l1-.2c2-.1 4.5.2 6.7.1l4.5.1 3-.2 8.9.2c2 0 4.3 0 6.3.2h2.7c.2.1.6.3 1 .3l3.3.2c1.6.2 3 .5 4 .5s3-.8 3.1-1.2c.1-.4-.8-1.3-1.5-1.5-1-.4-2.5-.3-3.3-.6l-12.4-.3-7.6-.3-2.3.1c-2.4 0-4.6-.2-6.3 0h-3.9l-5.2.1c-2.3-.4-5.8 0-8.5-.2-6.1-.3-12.7.5-19 .2-1.7.2-3.6 0-5 0l-2.5.2H864l-1.6.2h-4.1c-3 .2-5.3.3-7.6.2-1.1.2-2.8.1-4.1.1h-5.4l-1.2.2c-1.8.2-4.2 0-5.6 0l-3.2.2h-1.4l-3.8.1h-6.5c-.5 0-.2.3-.7.3l-4-.4c-2.3-.1-4.8.1-7.1.1-1.1 0-2.2-.2-3.1 0-3.2-.5-8-.3-11.4-.2-1 .3-2.8.2-3.6.5-2.6-.1-4.5.8-2.8 1.8 1.1.2 1.8.5 3 .6l3.9-.2 1.8.2 3.3-.1 1.5.1 1.3-.1 1.8.1h1.2c3.1 0 6.5.3 9.1 0 .9.4 2 .1 2.9.1l3.9.2 1.1-.1h1.5l1.5-.1h3.4c3.1-.2 6.3-.4 9.7-.4l2.7.1 4.6-.2h4.6l1.3-.2c.8 0 1.6.2 2.5.1 1.7 0 3.4-.3 5-.2.7-.3 1.5 0 2.4-.3 2.1.3 5.2.1 7-.2l4.6-.1c2.1.3 4.4 0 6.8 0Zm-704.5 39.5c-.5.4-1.9.5-1.7 1.2 0 .3.9.6 1 1 .3.8-.3 1.9-.4 2.7 0 .4.5.9.5 1.3 0 1.5-.8 3-.8 4.3 0 .4.2.7.4.8.2.1.2 0 .5.3h.2-.2l-.1-.1-.7-.4c-.2.1-.3 1.3-.8 1.7a20 20 0 0 1-11.7 3.2c-3 0-6.2-.6-9.4-.1-3.6.6-7.3-.3-10.2-1-.8-.2-1.6-.8-1.4-2-1 0-1.9-.8-2-1.6-1.2 0-1.8-.4-2.1-1.1-.4-.7-.5-1.5-1-2.3-1.2-1.8-1.6-4-2.4-5.9-.4-.8-1.3-1.8-1.2-2.7.1-.5 1.4-1 .9-1.6-.7-.6-5.2-.9-6.7.1-.5 1.7 1 3.4 1.4 5.3.2 1.2-.4 2.8.4 4 .3.5 1.2.8 1.5 1.2.9 1.5 1 3.6 2.3 5.3 1 1.3 3.1 1.6 3.9 2.7.9 1.3 1.8 2.7 3.3 3.2 1 .3 2 .2 2.9.3 3.5.4 6.6 2 9.9 1.6 1-.1 1.9-1 2.8-.8 2.3.4 4.9 1 7.3.4 1.8-.4 3.8.2 5.7-.2 1.8-.4 3.6-1 5.3-1.8.7-.3 1.1-1 1.7-1.3.3-.2.9 0 1.2-.1.3-.3.3-1 .6-1.2l1.5-1.8a4 4 0 0 0 1.2-2.1c.4-1.5.7-2.9.7-4.3 0-.4-.6-.8-.6-1.2.1-1.1.6-2 .9-3 .2-.7-.2-1.5 0-2 .1-.3.7-.5.8-.8.3-.5.2-1.2.3-1.8 0-.6 1-1.3-1.4-2-3.4-.1-2.9 1.7-4.3 2.6Zm665.2-.4c-.5.4-1.8.7-1.7 1.3.1.3 1 .6 1.1.9.5.9-.1 2 0 2.8 0 .4.5.8.6 1.2 0 1.6-.6 3-.5 4.4l.2.7.2.2h.2l.9.1 1.4.4s-.2 0-.4-.4l-.8-1-.5-.7c-.4.1-.8 1.3-1.3 1.6a29 29 0 0 1-12.7 2c-3-.1-6.1-.8-9.2-.5-3.5.4-7.4-.9-11-1-1 0-2-.4-2.6-1.7a4 4 0 0 1-3.1-.5l-1 .5 1.4 2c-.9-1.3-.2-2.6-.6-4.2-.6-2.3-.6-4.5-1.3-6.4-.3-1-1.1-2-1-2.8.2-.5 1.5-1 1-1.6-.6-.6-5.2-1-6.7-.1-.6 1.6 1 3.2 1 5 0 1.1-.7 2.3-.2 3.5.2.4 1 .8 1.2 1.2.6 1.5 0 3.2.3 4.8 0 .3.2.5.3.8l2 3.5h.5c1.2-.2 2.4-.8 3.3-.4 1.2.6 2.3 1.5 3.6 1.6.8 0 1.7-.3 2.5-.4 3.4 0 6.2 1.8 9.5 1.7 1 0 2-.9 3-.7 2.2.5 4.7 1.1 7.1.7 1.8-.4 3.8.4 5.6.1a36 36 0 0 0 5.4-1c.6-.3 1.2-1 1.8-1 .4-.2.8.2 1.1 0 .4-.1.6-.8.9-1a17 17 0 0 1 1.8-1.3l1-1c.3-.4.4-.9.5-1.3.1-1.5.3-2.8 0-4.2 0-.4-.5-.8-.6-1.2 0-1.1.5-2 .6-3.1.1-.7-.3-1.4-.1-2 0-.3.6-.5.7-.8.2-.5 0-1.2 0-1.8.1-.6 1-1.4-1.5-1.9-3.3.3-2.7 2-4 3Z"/></svg>