<?xml version="1.0" encoding="UTF-8"?><svg id="Layer_1" xmlns="http://www.w3.org/2000/svg" viewBox="0 0 38.308 26.619"><path d="M11.108,23.494c-.495-2.9-.55-5.7-.473-8.6l.077-3.235.033-3.916c1.66-.178,3.287-.557,4.991-.569,3.848-.033,7.619.067,11.467-.39l5.431-.167,2.748.022c.154,3.28.165,6.537-.088,9.827.198,2.187.242,4.217.011,6.425l-4.111.436-2.166-.023-3.177.179-4.574.39-1.924.056h-1.528l-3.199.1-3.09.212c-.11,0-.396-.1-.451-.189-.055-.09-.022-.313.033-.547l-.011-.011ZM12.768,9.539c-.143.335.352,1.74,1.352,1.696.495-.023,1.045-.268,1.198-.859.088-.335.033-.837-.209-1.06-.517-.491-2.034-.491-2.342.223Z" style="fill:#fff;"/><path d="M4.741,5.699l2.86.92c.272.089.449.289.662.577l1.737.266c-.343,1.254-.473,2.618-.544,3.971l-.142,2.928-.083,1.509c-.118,2.018.024,3.993.284,5.967l.284,2.163-4.148-1.398-3.651-1.375c.378-2.118.236-4.115.213-6.222l-.035-3.272.154-6.733,2.399.71.012-.011Z" style="fill:#fff;"/><path d="M6.743,3.538c.066,0,.253-.234.209-.256l-.451-.201,2.803-.078,7.025-.212,5.926-.29,7.102-.101,1.111.759,3.309,2.22-2.913-.023-3.87.268c-3.672.257-7.201.536-10.862.625-1.66.033-3.232.424-4.849.691-.539-.446-1.143-.792-1.792-1.004-1.803-.591-3.474-1.227-5.068-2.253l2.331-.145h-.011Z" style="fill:#fff;"/><path d="M30.427.5c.452.007.831.203,1.125.397.168.111.33.236.467.34.072.055.138.105.2.149l.177.117.004.002,4.09,2.487.002.002c1.04.642,1.304,1.833,1.316,2.885v.054l-.01.052c-.285,1.393-.131,2.514-.166,4.028l-.154,7.205v.026s-.453,5.968-.453,5.968v.008c-.014.164-.081.306-.143.409-.066.108-.148.208-.234.292-.085.084-.184.163-.291.225-.096.055-.236.117-.397.128h0s-.006.001-.009.001c-.001,0-.003.001-.005.001h0c-.253.016-.515-.06-.72-.147-.144-.061-.287-.141-.418-.231l-2.323.33-.022.002h-.023s-2.034.101-2.034.101h0s-5.268.268-5.268.268l-4.139.335-.035.002-5.047.043h-1.246l-2.946.134-.074.003-.071-.017-.73-.186h-1.384l-.135-.103c-.651-.5-1.357-.914-2.142-1.23l-.007.008-.303-.111-3.749-1.373h-.005c-.543-.205-.767-.348-1.197-.348-.345,0-.71-.051-1.062-.153l-.349-.101-.012-.363c-.024-.705.047-1.278.148-1.894.223-1.369.236-2.759.203-4.202v-.002l-.066-3.491v-.037s.078-1.395.078-1.395h0c.143-2.496.294-4.864.164-7.307h0c-.024-.427.015-.96.325-1.39l.005-.008.07-.082c.161-.168.383-.287.559-.364.214-.094.469-.171.69-.188l2.753-.245c6.319-.559,12.569-.727,18.898-.738h3.176l2.721-.287.198-.009ZM27.219,7.272c-3.872.458-7.675.358-11.488.391-.819.011-1.627.106-2.448.222-.669.094-1.36.204-2.053.291l-.029,3.476v.008l-.077,3.235c-.064,2.826-.022,5.551.44,8.35l.094.095-.063.268c-.01.043-.018.082-.024.118l3.011-.206h.01s.011,0,.011,0l3.199-.089h.014s0,0,0,0h1.511l1.921-.068,4.552-.388h.015s3.178-.18,3.178-.18h.017s.017,0,.017,0l2.138.02,3.673-.387c.182-2.015.136-3.897-.048-5.926l-.003-.042.003-.042c.239-3.106.229-6.186.105-9.293l-2.256-.019-5.415.167ZM3.174,11.654h0l.032,3.29c.02,1.958.14,3.906-.145,5.948l3.019,1.23,3.09,1.125-.165-1.365-.086-.752c-.188-1.756-.28-3.527-.182-5.337l.077-1.516.132-2.941v-.002c.058-1.189.158-2.401.4-3.563l-1.092-.181-.206-.034-.12-.17c-.209-.294-.291-.367-.372-.397l-2.363-.822-.004.005-.293-.094-1.594-.51-.129,6.086ZM22.252,3.001h0s-5.907.289-5.907.289h-.01s-7.025.213-7.025.213h0l-1.949.054c-.004.006-.007.014-.012.022-.018.029-.044.07-.073.113-.027.04-.068.097-.117.149-.024.025-.062.063-.113.098-.037.026-.133.083-.27.094v.004s-.638.039-.638.039c1.106.549,2.262.98,3.498,1.385l.271.095c.547.21,1.045.508,1.498.852,1.507-.268,3.065-.626,4.708-.659,3.646-.078,7.158-.366,10.839-.623l3.87-.269h.02s.019-.001.019-.001l1.248.009-1.926-1.291-.004-.002-.98-.67-6.943.099Z" style="stroke:#000;"/><path d="M12.768,9.54c.308-.703,1.825-.703,2.342-.223.242.223.297.736.209,1.059-.154.592-.704.837-1.198.859-1,.045-1.495-1.372-1.352-1.695Z"/></svg>