<?xml version="1.0" encoding="UTF-8"?><svg id="Layer_1" xmlns="http://www.w3.org/2000/svg" viewBox="0 0 33.882 111.022"><path d="M25.775,54.242c.233-1.479.095-2.79-.04-4.056l-.186-1.826c-.013-.117-.031-.389-.019-.882.026-.789-.041-1.486-.106-2.161l-.318-3.489c-.121-1.32-.235-2.567-.294-3.86l-.174-3.796-.175-5.754-.516-5.875-.027-2.333c-.01-.749-.02-1.523-.151-2.368l-.85-5.593-.1-.589c-.073-.421-.151-.857-.187-1.255l-.031-.378c-.184-2.184-.374-4.441-1.627-6.573-.956-1.63-2.641-2.892-4.396-3.293-1.452-.333-2.908-.072-4.105.729-.989.664-1.686,1.73-2.132,3.263-.322,1.112-.387,1.489-.366,2.12.005.154.011.33-.041.807-.099.868-.135,1.728-.114,2.704l.064,3.193.002,1.737.205,3.885.428,3.228c.048.359.021.839-.007,1.348-.024.429-.046.857-.038,1.228v1.457c.009.965.06,1.356.145,1.691.003.042.011.239-.031,1-.067,1.205-.067,2.396-.067,3.549v4.269c0,.184-.005.368-.009.55-.01.398-.018.794.003,1.201.036.678.028,1.347.02,2.055l-.078,5.091c-.002.119-.014.237-.024.353-.026.306-.06.7-.016,1.146l-.301,1.802.03.283c.16,1.491.182,2.949.182,4.178v4.923c0,1.62-.056,2.99-.176,4.312l-.008.1.27,1.912c-.034.423-.005.797.02,1.11.011.14.023.279.023.453l.066,4.591c.018.925.033,1.724-.017,2.58-.021.369-.013.743-.003,1.119.004.165.009.331.009.511l.009,4.653c0,1.025-.002,2.085.08,3.172.041.511.027.899-.056,1.545-.115.923-.083,2.369-.032,4.026.015.495.031.903.026,1.109l-.423,3.09-.24,4.226.029,1.504-.083,3.748c-.017.586-.036,1.249.101,1.977.034.177.038.45.042.741.007.558.017,1.251.248,1.964l.403,1.254c.66,2.078,2.599,3.378,4.766,3.378.525,0,1.064-.077,1.602-.237,1.539-.463,3.135-1.729,3.969-3.143,1.293-2.172,1.479-4.404,1.66-6.562l.03-.361c.036-.376.106-.778.175-1.179.048-.282.096-.563.134-.824l.831-5.476c.131-.902.149-1.723.149-2.459l.018-2.334.519-5.766.098-3.277.247-6.248c.072-1.409.191-2.77.317-4.156l.304-3.325c.066-.646.135-1.312.106-2.104-.016-.311-.012-.642.012-.864l.18-1.785c.125-1.299.255-2.642.038-4.167-.115-.767-.111-1.734.007-2.514ZM21.583,57.167l-.065,2.307-.046,2.887c-.055,3.111-.074,3.951-.516,7.034-.313,2.168-.166,3.56-.267,5.876l-.267,6.456c-.055,1.504-.516,3.503-.424,5.007.028.467.101.71-.129,1.168-.267.542-.074,1.261-.064,1.868.028,1.784.037,1.915-.267,3.69l-.249,1.43c-.092.541-.249,1.13-.286,1.681-.037.551-.037,1.056-.12,1.57l-.442,2.811c-.166,1.084-.147,2.121-.644,3.177-.497,1.055-1.335,2.036-2.514,2.186-1.51.187-1.97-2.009-1.989-2.653l-.083-3.027-.074-3.737.037-3.428c.009-.701.525-3.457.552-4.914l.101-4.513v-1.868l.092-1.952v-4.148c.009-.766.138-1.523-.074-2.27.341-.907.009-1.85.028-2.738l.12-4.689-.074-3.214c-.018-.766-.166-1.495-.101-2.289l.147-1.831v-8.585h-.018l-.147-2.037c-.055-.775.157-1.494.101-2.232-.074-.99.074-2.055.055-3.522l-.028-2.392c-.009-.682-.147-1.42-.074-2.055.101-.934.175-1.812,0-2.737.12-.71.092-1.401.037-2.149-.037-.532.018-1.149.018-1.728l-.046-3.513-.065-2.391v-1.43l-.055-2.905c-.037-1.971-.58-4.783-.58-5.568l-.028-3.438.074-3.456c.028-1.364-.304-6.278,2.118-5.876,1.169.196,1.943,1.093,2.449,2.139.506,1.046.506,2.158.681,3.279l.405,2.597c.092.561.12,1.065.129,1.654.009.523.184,1.13.276,1.672l.267,1.56c.313,1.794.304,1.831.267,3.606-.009.645-.221,1.392.083,1.981.212.42.147.644.12,1.083-.092,1.654.35,3.363.414,4.933l.276,6.474c.028.813.074,1.513.055,2.354-.065,3.316.599,4.989.644,7.558l.092,4.596.055,2.485.037,3.419v2.747Z"/><path d="M29.489,14.2v.121c0,.028.037-.131.064-.14.037-.009.129.112.184.121.046,0,.166-.102.184-.093.028,0,.055.159.092.159.028,0,.055-.14.064-.112,0,0-.009.103.037.168.046.065.092-.047.12-.037.018,0,.009.121.018.13.147.103.276-.13.387.14.055-.28.064-.102.092-.102.138.009.267-.066.405-.112.046-.019.092-.131.147-.103l.028.261h.037c.055-.56.083.15.147,0l.055.468-.064.14c-.009.215.046.355.046.373.018.309-.064.766-.147.841-.028.019-.046-.028-.064-.019-.064.038-.083,0-.12.019-.037.019-.12.243-.138.234-.018-.01-.037-.168-.083-.159-.046.009-.138.121-.175.252l-.037-.215c-.101.28-.11.094-.184.066-.046-.019-.111.112-.147.084-.018-.019-.018-.187-.037-.206-.037-.028-.129.224-.147-.093l-.203.289-.018-.149c-.064.112-.083.103-.111-.14-.064.224-.101.018-.184.018-.184,0-.359.243-.516,0-.037-.056-.138.197-.184.206-.083-.262-.295-.121-.424-.075l-.037-.149s-.037.093-.055.103c-.046.028-.101.084-.111-.113-.055,0-.249.309-.276.299-.018,0,0-.158-.046-.196-.046-.037-.129.168-.175.187-.055.028-.424.084-.451.056-.064-.047,0-.121-.129-.084-.092.019-.212-.121-.295.103l-.018-.15-.074.15-.018-.15c-.046.112-.083.01-.12.019-.018,0-.157.131-.166.121-.018-.018-.037-.149-.046-.177-.018-.037-.028.093-.055.084-.074-.028-.037-.084-.129-.065-.23.046-.479-.047-.681.242l-.018-.14c-.083-.037-.304-.046-.396.028-.074.066-.074.337-.12-.028-.074.234-.074.038-.129.028-.055-.009-.249.028-.295.075-.037.028-.065.168-.074.168,0,0-.046-.121-.092-.131-.064,0-.092.122-.111.122s-.055-.14-.083-.159c-.046-.028-.193.122-.212.122s-.101-.187-.138-.178c-.055.009-.092.131-.12.15-.064.046-.239-.057-.322-.028-.064.018-.239.345-.267.345-.009,0,0-.112-.018-.14-.064-.103-.221,0-.276.215-.028-.327-.157-.037-.221.075-.018-.29-.074-.066-.129-.075-.028,0-.129-.178-.147-.196-.009,0-.184.112-.212.14-.028.019-.046.103-.055.112-.028,0-.055-.168-.074-.168-.028,0-.055.289-.074-.028-.046.093-.129.243-.147,0-.046.261-.074.037-.111.018-.092-.028-.138.066-.203.103-.129.066-.221-.149-.341-.112-.101.037-.055.009-.147-.019-.064-.028-.129.131-.184.159-.147.056-.258-.308-.414-.196-.046.037-.083.234-.101.234,0,0-.055-.141-.092-.122-.046.019-.074.14-.092.14-.028,0-.046-.13-.074-.149-.046-.028-.074.121-.12.112-.037-.009-.064-.122-.092-.112-.028.009-.046.14-.074.149-.009,0-.009-.205-.055-.196-.055.224-.101.103-.147.131-.064.047-.138.28-.23.196v-.215c-.092.112-.193.178-.249.43l-.028-.28c-.092-.01-.175.065-.249.271l-.055-.131c-.046.187-.12.14-.184.224-.028.037-.046.178-.055.178s-.037-.141-.074-.131c-.037.009-.111.299-.166.289-.009,0,0-.149-.037-.158-.074,0-.166.074-.221.224l-.037-.206c-.11.262-.239.15-.35.355l-.037-.289-.184.289-.028-.28c-.083,0-.138,0-.212.215l-.055-.224s-.055.13-.074.14c-.028.009-.046-.14-.064-.122-.018.01-.037.159-.055.131-.018-.019-.018-.177-.028-.205-.046-.122-.175.037-.193.037s-.028-.112-.055-.103c-.028,0-.055.15-.092.131-.037-.009-.046-.159-.083-.206-.12-.158-.203-.074-.313-.037-.083.028-.267-.028-.331.019-.028.018-.046.14-.074.149-.009,0,0-.159-.055-.159-.083,0-.101.337-.147-.065l-.092.149-.037-.149c-.12.121-.267-.065-.387.215l-.028-.28c-.074-.019-.221.495-.203,0l-.101.149-.018-.149-.092.214-.037-.214c-.065.224-.101.046-.157.084-.037.018-.083.205-.111.205,0,0,0-.112-.037-.159-.101-.158-.138.103-.184.141-.018.009-.046-.057-.064-.038-.037.028-.037.28-.074-.084-.092.206-.101-.149-.12-.149-.037-.019-.092.196-.11.205-.028.009-.046-.14-.083-.121-.037.018-.074.233-.092.205l-.028-.205c-.055.187-.12.018-.138.018-.028.01-.037.262-.064-.093-.018-.056-.147.205-.147-.065h-.028c-.018.093-.111.242-.129.261-.009,0-.138-.065-.175-.037-.018.009-.037.121-.055.131,0,0-.028-.253-.101-.281-.046-.018-.064.168-.11.131v-.215s-.129.187-.138.187c-.018,0-.037-.14-.092-.121-.037.018-.064.149-.092.214l-.055-.214s-.055.168-.083.186c-.009.01-.138-.102-.157-.112-.046-.009-.092.187-.11.187-.009,0-.037-.121-.074-.121-.046,0-.064.149-.092.159-.009,0,0-.113-.028-.141-.055-.13-.083.075-.12.066-.046,0-.138-.084-.203-.075-.028,0-.12.019-.147.037-.064.038-.12.243-.138.253-.037.018-.046-.187-.083-.206-.064-.019-.166.308-.239.355l-.064-.261c-.046-.066-.092.168-.12.158-.018,0-.046-.186-.092-.186-.028,0-.147.252-.184.28h-.028v-.215c-.037.093-.074-.056-.101-.047-.083.01-.239.019-.313.066-.028.018-.055.149-.074.13-.018-.018-.018-.158-.037-.186-.055-.15-.322-.047-.414-.047-.018,0-.037-.084-.064-.084-.037,0-.111.168-.12.159-.018,0-.028-.131-.046-.159s-.055.037-.092,0c-.037-.028-.064-.168-.083-.178-.028-.018-.046.131-.074.159-.064.075-.092-.065-.138-.075-.046,0-.166.056-.184.038-.028-.028-.046-.187-.055-.187-.018,0-.037.103-.055.103-.064-.019-.074,0-.11,0-.019,0-.046-.168-.074-.178-.018,0-.046.103-.074.131-.092.075-.083-.14-.092-.14-.101-.019-.221.364-.332-.056l-.193.271-.028-.196c-.074,0-.322.214-.368.177-.018-.019-.018-.149-.028-.177,0-.019-.111.056-.138.056s-.046-.113-.055-.113c-.018,0-.166.159-.203.169-.037,0-.064-.187-.11-.178-.046.009-.083.224-.147.206-.037,0-.028-.14-.037-.15-.037-.019-.157,0-.184.14l-.037-.224c-.055,0-.101.234-.166.224-.037,0-.018-.13-.037-.149-.046-.038-.12.112-.156.121-.221.038-.414-.121-.635.028l-.018-.149c-.157.112-.433.056-.58-.15-.018-.028-.018-.149-.046-.177-.055-.047-.111.075-.147.187.009-.159-.092-.271-.12-.281-.028-.009-.055.075-.083.056-.101-.074-.212-.317-.332-.336-.046,0-.101,0-.147-.028-.028-.019-.055-.121-.101-.103-.028.01-.055.112-.074.103-.018,0-.037-.177-.074-.187-.046-.009-.129.15-.175.168-.101.047-.221-.056-.322-.028-.037.01-.23.187-.239.187-.019,0-.046-.121-.083-.14-.074-.037-.156,0-.23,0-.378-.056-.737-.187-1.123-.149-.184.018-.405.168-.589.112-.064-.019-.332-.168-.378-.243-.249-.383.157-.682.239-.738.635-.411,1.344-.439,1.98-.523.525-.066.958-.14,1.492.028.479.159.967.364,1.455.233.064-.018.046,0,.092,0,.028,0,.064-.308.129-.046l.018-.15c.285.094.58.047.866.037.479-.009.985-.112,1.455-.093.064,0,.203-.019.258.047.037.037.028.159.037.149.009-.009.028-.112.055-.121.037-.019.092.093.129.093.129.01.258-.018.377,0,.064,0,.055.355.138.038l.018.14c.092-.103.184,0,.258-.15l.037.15c.129-.262.276-.019.405-.019.111,0,.23-.131.35-.121.396.028.718-.187,1.096-.271.074-.019.239-.187.267.046.193-.224.396-.121.58-.177.147-.037.313-.187.46-.187.009,0,0,.159.046.178.055.037.11-.159.147-.169.028,0,.046.141.064.122.018-.01.028-.131.055-.14.009,0,0,.121.018.14.055.065.175-.206.184.065.074-.046.322-.233.368-.196.092.075.221.037.322.037.064,0,.147-.102.184-.102.046,0,.064.345.147-.028.074.523.12.093.147.084.028,0,.064.233.129-.019l.037.215.304-.075c.018.262.074.084.129.084.23,0,.46.047.69.047.055,0,.147-.122.184-.103.028.019.055.159.074.178.037.028.203-.112.276-.103.083,0,.276,0,.332.009.018,0,.028.112.055.103.046-.028.037-.28.101.159l.138-.224-.018.214.064-.074.018.149c.129-.308.276-.037.405,0,.258.075.58.131.866,0,.258-.112.497-.373.755-.476.193-.075.396-.122.571-.131.018,0,.037-.103.055-.093.019.009.064.252.092.27.009,0,0-.102.018-.149.046-.112.193.009.258,0,.488-.093.939-.047,1.418.093.074.019.157.113.212-.084v.15c.092-.159.175,0,.249.028.055.019.175-.122.184.112.064-.28.147-.019.202,0,.157.056.341-.047.507-.037.47.018.921-.262,1.39-.299.534-.038,1.068,0,1.602-.225l.018.141c.166-.271.387-.028.552-.038.046,0,.157-.243.166.038.295-.271.681.046.976-.094.037-.019.028-.261.083.103.147-.252.322-.122.47-.168.396-.131.7-.243,1.105-.262.074,0,.166-.121.221-.112.028,0,.046.112.074.112.037,0,.046-.168.074-.196,0,0,.166.047.166.065l-.074.01Z"/><path d="M29.489,23.374v.121c0,.028.037-.131.064-.131.037-.009.129.112.184.122.046,0,.166-.103.184-.094.028,0,.055.159.092.159.028,0,.055-.131.064-.112,0,0-.009.103.037.168.046.066.092-.047.12-.037.018,0,.009.121.018.131.147.102.276-.131.387.14.055-.281.064-.103.092-.094.138,0,.267-.065.405-.112.046-.018.092-.131.147-.103l.028.262h.037c.055-.551.083.149.147,0l.055.458-.064.14c-.009.205.046.346.046.364.018.309-.064.748-.147.822-.028.019-.046-.028-.064-.018-.064.037-.083,0-.12.018-.037.019-.12.243-.138.234s-.037-.159-.083-.15c-.046.01-.138.122-.175.253l-.037-.215c-.101.28-.11.084-.184.065-.046-.019-.111.112-.147.084-.018-.018-.018-.187-.037-.196-.037-.028-.129.215-.147-.093l-.203.289-.018-.149c-.064.112-.083.103-.111-.14-.064.215-.101.018-.184.018-.184,0-.359.243-.516,0-.037-.056-.138.187-.184.197-.083-.253-.295-.122-.424-.075l-.037-.15s-.037.094-.055.103c-.046.028-.101.084-.111-.103-.055,0-.249.299-.276.29-.018,0,0-.159-.046-.196-.046-.038-.129.168-.175.187-.055.028-.424.084-.451.056-.064-.047,0-.112-.129-.084-.092.018-.212-.122-.295.102l-.018-.149-.074.14-.018-.14c-.046.103-.083.009-.12.019-.018,0-.157.121-.166.121-.018-.019-.037-.14-.046-.168-.018-.038-.028.093-.055.084-.074-.028-.037-.084-.129-.066-.23.047-.479-.046-.681.234l-.018-.14c-.083-.037-.304-.047-.396.028-.074.065-.074.327-.12-.028-.074.233-.074.037-.129.028-.055-.009-.249.028-.295.075-.037.028-.065.168-.074.168,0,0-.046-.122-.092-.131-.064,0-.092.121-.111.121s-.055-.14-.083-.158c-.046-.028-.193.112-.212.112s-.101-.178-.138-.168c-.055.009-.092.121-.12.149-.064.047-.239-.056-.322-.028-.064.019-.239.336-.267.346-.009,0,0-.112-.018-.14-.064-.103-.221,0-.276.205-.028-.318-.157-.037-.221.075-.018-.29-.074-.066-.129-.075-.028,0-.129-.177-.147-.196-.009,0-.184.112-.212.131-.028.018-.046.102-.055.112-.028,0-.055-.168-.074-.168-.028,0-.055.289-.074-.028-.046.093-.129.243-.147,0-.046.261-.074.037-.111.018-.092-.028-.138.066-.203.103-.129.065-.221-.149-.341-.103-.101.028-.055.01-.147-.018-.064-.019-.129.13-.184.149-.147.056-.258-.308-.414-.187-.046.038-.083.224-.101.234,0,0-.055-.14-.092-.112-.046.018-.074.14-.092.14-.028,0-.046-.131-.074-.14-.046-.028-.074.121-.12.112-.037-.01-.064-.122-.092-.112-.028.009-.046.14-.074.149-.009,0-.009-.205-.055-.187-.055.215-.101.103-.147.131-.064.047-.138.28-.23.196v-.215c-.092.103-.193.178-.249.421l-.028-.28c-.092-.01-.175.065-.249.27l-.055-.13c-.046.187-.12.14-.184.224-.028.037-.046.177-.055.177s-.037-.14-.074-.13c-.037.009-.111.299-.166.289-.009,0,0-.149-.037-.149-.074,0-.166.074-.221.224l-.037-.206c-.11.253-.239.141-.35.346l-.037-.29-.184.29-.028-.28c-.083,0-.138,0-.212.205l-.055-.224s-.055.131-.074.14c-.028.01-.046-.131-.064-.121-.018.009-.037.149-.055.131-.018-.019-.018-.178-.028-.206-.046-.121-.175.037-.193.037s-.028-.112-.055-.102c-.028,0-.055.149-.092.13-.037-.009-.046-.158-.083-.196-.12-.159-.203-.065-.313-.037-.083.019-.267-.028-.331.019-.028.018-.046.14-.074.14-.009,0,0-.159-.055-.15-.083,0-.101.327-.147-.065l-.092.149-.037-.149c-.12.121-.267-.066-.387.215l-.028-.281c-.074-.018-.221.496-.203,0l-.101.15-.018-.15-.092.215-.037-.215c-.065.225-.101.047-.157.085-.037.018-.083.205-.111.205,0,0,0-.112-.037-.159-.101-.159-.138.103-.184.131-.018.009-.046-.056-.064-.037-.037.028-.037.271-.074-.075-.092.205-.101-.15-.12-.15-.037-.018-.092.197-.11.206-.028.009-.046-.14-.083-.121-.037.018-.074.233-.092.205l-.028-.205c-.055.186-.12.018-.138.018-.028.01-.037.252-.064-.093-.018-.056-.147.205-.147-.066h-.028c-.018.094-.111.243-.129.253-.009,0-.138-.066-.175-.038-.018.01-.037.122-.055.122,0,0-.028-.252-.101-.271-.046-.019-.064.168-.11.131v-.215s-.129.187-.138.187c-.018,0-.037-.141-.092-.113-.037.019-.064.15-.092.215l-.055-.215s-.055.159-.083.187c-.009.01-.138-.102-.157-.102-.046-.01-.092.177-.11.177-.009,0-.037-.121-.074-.121-.046,0-.064.149-.092.149-.009,0,0-.103-.028-.14-.055-.121-.083.075-.12.065-.046,0-.138-.084-.203-.074-.028,0-.12.018-.147.028-.064.037-.12.233-.138.252-.037.019-.046-.187-.083-.196-.064-.019-.166.299-.239.345l-.064-.252c-.046-.065-.092.168-.12.159-.018,0-.046-.187-.092-.187-.028,0-.147.252-.184.28h-.028v-.215c-.037.094-.074-.056-.101-.046-.083.009-.239.018-.313.065-.028.01-.055.15-.074.131-.018-.019-.018-.15-.037-.187-.055-.149-.322-.047-.414-.047-.018,0-.037-.084-.064-.084-.037,0-.111.168-.12.159-.018,0-.028-.131-.046-.149-.018-.028-.055.037-.092,0-.037-.028-.064-.168-.083-.178-.028-.009-.046.131-.074.159-.064.065-.092-.065-.138-.075-.046,0-.166.056-.184.038-.028-.028-.046-.178-.055-.187-.018,0-.037.103-.055.103-.064-.019-.074,0-.11,0-.019,0-.046-.169-.074-.178-.018,0-.046.103-.074.131-.092.075-.083-.14-.092-.14-.101-.019-.221.355-.332-.056l-.193.271-.028-.197c-.074,0-.322.215-.368.178-.018-.019-.018-.15-.028-.178,0-.018-.111.056-.138.047-.028,0-.046-.112-.055-.112-.018,0-.166.159-.203.159s-.064-.187-.11-.168c-.046.018-.083.224-.147.205-.037,0-.028-.14-.037-.149-.037-.019-.157,0-.184.14l-.037-.215c-.055,0-.101.224-.166.224-.037,0-.018-.131-.037-.14-.046-.037-.12.112-.156.121-.221.038-.414-.121-.635.029l-.018-.15c-.157.112-.433.047-.58-.14-.018-.028-.018-.15-.046-.178-.055-.037-.111.075-.147.178.009-.159-.092-.262-.12-.28-.028-.01-.055.074-.083.056-.101-.066-.212-.309-.332-.327-.046,0-.101,0-.147-.028-.028-.019-.055-.112-.101-.103-.028.009-.055.103-.074.103s-.037-.178-.074-.187c-.046-.009-.129.14-.175.168-.101.047-.221-.056-.322-.028-.037.009-.23.187-.239.178-.019,0-.046-.122-.083-.141-.074-.037-.156,0-.23,0-.378-.046-.737-.186-1.123-.149-.184.019-.405.168-.589.112-.064-.019-.332-.168-.378-.243-.249-.383.157-.673.239-.719.635-.411,1.344-.439,1.98-.514.525-.065.958-.14,1.492.028.479.149.967.364,1.455.234.064-.019.046,0,.092,0,.028,0,.064-.309.129-.047l.018-.15c.285.094.58.047.866.038.479-.01.985-.103,1.455-.094.064,0,.203-.018.258.047.037.037.028.159.037.15.009-.01.028-.113.055-.122.037-.009.092.093.129.093.129.01.258-.018.377,0,.064,0,.055.346.138.038l.018.14c.092-.103.184,0,.258-.14l.037.149c.129-.261.276-.018.405-.018.111,0,.23-.131.35-.122.396.019.718-.187,1.096-.271.074-.018.239-.187.267.047.193-.215.396-.121.58-.168.147-.038.313-.187.46-.187.009,0,0,.149.046.177.055.038.11-.158.147-.168.028,0,.046.131.064.122.018-.01.028-.131.055-.131.009,0,0,.121.018.14.055.066.175-.196.184.066.074-.047.322-.225.368-.187.092.074.221.037.322.037.064,0,.147-.103.184-.103.046,0,.064.337.147-.018.074.523.12.093.147.084.028,0,.064.233.129-.019l.037.206.304-.066c.018.262.074.084.129.084.23,0,.46.047.69.047.055,0,.147-.122.184-.103.028.019.055.159.074.168.037.028.203-.112.276-.102.083,0,.276,0,.332.009.018,0,.028.112.055.103.046-.028.037-.271.101.158l.138-.214-.018.214.064-.074.018.149c.129-.299.276-.037.405,0,.258.075.58.131.866,0,.258-.112.497-.373.755-.467.193-.075.396-.121.571-.121.018,0,.037-.094.055-.094.019,0,.064.243.092.262.009,0,0-.103.018-.14.046-.112.193.009.258,0,.488-.094.939-.047,1.418.084.074.018.157.112.212-.084v.14c.092-.159.175,0,.249.028.055.019.175-.112.184.103.064-.281.147-.019.202,0,.157.056.341-.047.507-.038.47.019.921-.261,1.39-.289.534-.038,1.068,0,1.602-.225l.018.141c.166-.262.387-.028.552-.028.046,0,.157-.234.166.037.295-.271.681.047.976-.094.037-.018.028-.261.083.103.147-.243.322-.121.47-.168.396-.131.7-.243,1.105-.262.074,0,.166-.121.221-.112.028,0,.046.112.074.112.037,0,.046-.168.074-.196,0,0,.166.047.166.066l-.074-.084Z"/><path d="M29.489,41.731v.121c0,.028.037-.131.064-.131.037-.009.129.112.184.122.046,0,.166-.103.184-.094.028,0,.055.159.092.15.028,0,.055-.131.064-.112,0,0-.009.102.037.168.046.056.092-.047.12-.038.018,0,.009.122.018.131.147.103.276-.131.387.14.055-.28.064-.102.092-.093.138,0,.267-.066.405-.112.046-.019.092-.131.147-.103l.028.252h.037c.055-.551.083.15.147,0l.055.458-.064.14c-.009.206.046.346.046.364.018.309-.064.748-.147.823-.028.018-.046-.028-.064-.019-.064.037-.083,0-.12.019-.037.018-.12.233-.138.233s-.037-.159-.083-.149c-.046.009-.138.121-.175.243l-.037-.206c-.101.28-.11.084-.184.065-.046-.018-.111.113-.147.084-.018-.018-.018-.186-.037-.196-.037-.028-.129.215-.147-.093l-.203.289-.018-.149c-.064.112-.083.103-.111-.14-.064.215-.101.019-.184.019-.184,0-.359.242-.516,0-.037-.056-.138.186-.184.196-.083-.252-.295-.122-.424-.066l-.037-.14s-.037.094-.055.103c-.046.028-.101.084-.111-.103-.055,0-.249.299-.276.29-.018,0,0-.159-.046-.196-.046-.038-.129.168-.175.186-.055.029-.424.085-.451.057-.064-.047,0-.113-.129-.085-.092.019-.212-.121-.295.103l-.018-.14-.074.14-.018-.14c-.046.103-.083.009-.12.019-.018,0-.157.121-.166.121-.018-.018-.037-.14-.046-.168-.018-.037-.028.093-.055.084-.074-.028-.037-.084-.129-.065-.23.046-.479-.047-.681.233l-.018-.14c-.083-.037-.304-.047-.396.028-.074.066-.074.327-.12-.028-.074.234-.074.038-.129.028-.055-.009-.249.028-.295.075-.037.028-.065.168-.074.168,0,0-.046-.121-.092-.121-.064,0-.092.121-.111.121s-.055-.14-.083-.159c-.046-.028-.193.112-.212.112s-.101-.177-.138-.168c-.055.01-.092.122-.12.15-.064.037-.239-.056-.322-.028-.064.018-.239.336-.267.336-.009,0,0-.112-.018-.14-.064-.103-.221,0-.276.205-.028-.317-.157-.037-.221.075-.018-.289-.074-.065-.129-.075-.028,0-.129-.177-.147-.196-.009,0-.184.112-.212.131-.028.019-.046.103-.055.103-.028,0-.055-.168-.074-.159-.028,0-.055.28-.074-.028-.046.093-.129.233-.147,0-.046.261-.074.037-.111.019-.092-.028-.138.065-.203.093-.129.065-.221-.14-.341-.103-.101.028-.055.01-.147-.018-.064-.019-.129.13-.184.149-.147.056-.258-.299-.414-.187-.046.038-.083.224-.101.234,0,0-.055-.131-.092-.112-.046.018-.074.14-.092.14-.028,0-.046-.131-.074-.14-.046-.028-.074.121-.12.112-.037-.01-.064-.122-.092-.112-.028.009-.046.14-.074.149-.009,0-.009-.205-.055-.187-.055.215-.101.103-.147.131-.064.047-.138.28-.23.196v-.215c-.092.103-.193.178-.249.421l-.028-.28c-.092-.01-.175.065-.249.27l-.055-.13c-.046.186-.12.14-.184.224-.028.037-.046.177-.055.177s-.037-.14-.074-.13c-.037.009-.111.299-.166.289-.009,0,0-.149-.037-.149-.074,0-.166.074-.221.215l-.037-.206c-.11.252-.239.14-.35.346l-.037-.29-.184.28-.028-.271c-.083,0-.138,0-.212.206l-.055-.215s-.055.131-.074.14c-.028.01-.046-.131-.064-.121-.018.009-.037.149-.055.131-.018-.019-.018-.169-.028-.197-.046-.121-.175.038-.193.038s-.028-.112-.055-.103c-.028,0-.055.149-.092.131-.037-.01-.046-.159-.083-.196-.12-.159-.203-.066-.313-.038-.083.019-.267-.028-.331.019-.028.019-.046.14-.074.14-.009,0,0-.159-.055-.149-.083,0-.101.327-.147-.066l-.092.15-.037-.15c-.12.122-.267-.065-.387.215l-.028-.28c-.074-.019-.221.486-.203,0l-.101.14-.018-.14-.092.205-.037-.215c-.065.225-.101.047-.157.085-.037.018-.083.205-.111.205,0,0,0-.112-.037-.159-.101-.159-.138.103-.184.131-.018.009-.046-.056-.064-.037-.037.028-.037.271-.074-.075-.092.205-.101-.15-.12-.15-.037-.018-.092.187-.11.206-.028.009-.046-.14-.083-.121-.037.018-.074.224-.092.205l-.028-.205c-.055.177-.12.018-.138.018-.028.01-.037.252-.064-.093-.018-.056-.147.205-.147-.066h-.028c-.018.094-.111.243-.129.253-.009,0-.138-.056-.175-.038-.018.01-.037.122-.055.122,0,0-.028-.253-.101-.271-.046-.019-.064.168-.11.131v-.215s-.129.187-.138.187c-.018,0-.037-.141-.092-.113-.037.019-.064.15-.092.215l-.055-.215s-.055.159-.083.187c-.009.01-.138-.102-.157-.102-.046-.01-.092.177-.11.177-.009,0-.037-.121-.074-.121-.046,0-.064.149-.092.149-.009,0,0-.103-.028-.14-.055-.122-.083.075-.12.065-.046,0-.138-.084-.203-.074-.028,0-.12.018-.147.028-.064.037-.12.233-.138.242-.037.019-.046-.186-.083-.196-.064-.018-.166.299-.239.346l-.064-.252c-.046-.066-.092.168-.12.159-.018,0-.046-.187-.092-.187-.028,0-.147.252-.184.28h-.028v-.215c-.037.094-.074-.056-.101-.047-.083.01-.239.019-.313.066-.028.009-.055.149-.074.121-.018-.018-.018-.149-.037-.187-.055-.149-.322-.046-.414-.046-.018,0-.037-.084-.064-.084-.037,0-.111.158-.12.158-.018,0-.028-.13-.046-.149-.018-.028-.055.037-.092,0-.037-.028-.064-.159-.083-.168-.028-.01-.046.121-.074.159-.064.065-.092-.066-.138-.075-.046,0-.166.056-.184.037-.028-.028-.046-.177-.055-.187-.018,0-.037.103-.055.103-.064-.019-.074,0-.11,0-.019,0-.046-.168-.074-.177-.018,0-.046.102-.074.121-.092.075-.083-.14-.092-.14-.101-.019-.221.355-.332-.056l-.193.271-.028-.196c-.074,0-.322.215-.368.177-.018-.019-.018-.149-.028-.177,0-.019-.111.056-.138.046-.028,0-.046-.112-.055-.112-.018,0-.166.159-.203.159s-.064-.187-.11-.168c-.046.019-.083.224-.147.205-.037,0-.028-.14-.037-.149-.037-.019-.157,0-.184.14l-.037-.215c-.055,0-.101.224-.166.224-.037,0-.018-.13-.037-.14-.046-.037-.12.112-.156.122-.221.037-.414-.122-.635.028l-.018-.15c-.157.112-.433.047-.58-.14-.018-.028-.018-.149-.046-.177-.055-.038-.111.074-.147.177.009-.149-.092-.261-.12-.28-.028-.009-.055.075-.083.056-.101-.065-.212-.308-.332-.327-.046,0-.101,0-.147-.028-.028-.019-.055-.112-.101-.103-.028.01-.055.103-.074.103s-.037-.178-.074-.187c-.046-.009-.129.14-.175.168-.101.047-.221-.056-.322-.028-.037.01-.23.187-.239.178-.019,0-.046-.122-.083-.14-.074-.038-.156,0-.23,0-.378-.047-.737-.187-1.123-.15-.184.019-.405.159-.589.112-.064-.018-.332-.168-.378-.243-.249-.373.157-.663.239-.719.635-.402,1.344-.43,1.98-.514.525-.065.958-.14,1.492.028.479.15.967.355,1.455.224.064-.018.046,0,.092,0,.028,0,.064-.298.129-.046l.018-.15c.285.084.58.047.866.038.479-.01.985-.103,1.455-.094.064,0,.203-.018.258.047.037.037.028.159.037.149.009-.009.028-.112.055-.121.037-.009.092.084.129.093.129.01.258-.018.377,0,.064,0,.055.346.138.038l.018.14c.092-.103.184,0,.258-.14l.037.149c.129-.252.276-.018.405-.018.111,0,.23-.122.35-.122.396.019.718-.187,1.096-.261.074-.019.239-.178.267.046.193-.215.396-.121.58-.168.147-.037.313-.187.46-.187.009,0,0,.15.046.178.055.037.11-.159.147-.159.028,0,.046.131.064.121.018-.009.028-.13.055-.13.009,0,0,.121.018.14.055.065.175-.196.184.065.074-.047.322-.224.368-.187.092.075.221.038.322.038.064,0,.147-.094.184-.103.046,0,.064.336.147-.019.074.514.12.094.147.084.028,0,.064.234.129-.018l.037.205.304-.065c.018.261.074.084.129.084.23,0,.46.037.69.046.055,0,.147-.121.184-.102.028.018.055.159.074.168.037.028.203-.112.276-.103.083,0,.276,0,.332.009.018,0,.028.113.055.103.046-.028.037-.271.101.159l.138-.215-.018.206.064-.075.018.149c.129-.299.276-.037.405,0,.258.075.58.131.866,0,.258-.112.497-.373.755-.467.193-.074.396-.112.571-.121.018,0,.037-.094.055-.094.019,0,.064.243.092.262.009,0,0-.103.018-.14.046-.112.193.009.258,0,.488-.094.939-.047,1.418.084.074.019.157.112.212-.084v.14c.092-.159.175,0,.249.028.055.019.175-.112.184.103.064-.28.147-.019.202,0,.157.056.341-.047.507-.038.47.019.921-.261,1.39-.289.534-.038,1.068,0,1.602-.224l.018.13c.166-.261.387-.028.552-.028.046,0,.157-.233.166.038.295-.271.681.046.976-.094.037-.018.028-.261.083.103.147-.243.322-.112.47-.168.396-.131.7-.243,1.105-.262.074,0,.166-.121.221-.112.028,0,.046.112.074.112.037,0,.046-.168.074-.186,0,0,.166.046.166.065l-.074-.065Z"/><path d="M29.59,69.663v.103c0,.018.037-.112.064-.112.037,0,.129.093.184.102.046,0,.166-.084.184-.074.028,0,.055.14.092.13.028,0,.055-.112.065-.093,0,0-.009.093.037.14.046.056.092-.037.12-.028.018,0,.009.103.018.112.147.084.276-.112.387.122.055-.234.064-.084.092-.084.138,0,.267-.057.405-.094.046-.009.092-.112.147-.084l.028.215h.037c.055-.467.083.131.147,0l.055.392-.064.112c-.009.178.046.299.046.309.018.261-.064.635-.147.7-.028.019-.046-.028-.064-.018-.064.028-.083,0-.12.018-.037.019-.12.206-.138.197-.018-.01-.037-.141-.083-.131-.046.009-.138.102-.175.215l-.037-.178c-.101.234-.111.075-.184.056-.046-.009-.11.094-.147.075-.018-.019-.018-.159-.037-.168-.037-.019-.129.187-.147-.084l-.202.243-.018-.122c-.064.094-.083.084-.11-.121-.064.186-.101.018-.184.009-.184,0-.359.205-.516,0-.037-.047-.138.159-.184.168-.083-.215-.295-.103-.424-.056l-.037-.121s-.037.074-.055.084c-.046.018-.101.065-.11-.094-.055,0-.249.253-.276.243-.018,0,0-.131-.046-.168-.046-.037-.129.14-.175.159-.055.019-.424.065-.451.047-.064-.038,0-.094-.129-.075-.092.018-.212-.103-.295.084l-.018-.122-.074.122-.018-.122c-.046.094-.083,0-.12.01-.018,0-.156.103-.166.103-.018-.01-.037-.122-.046-.15-.018-.028-.028.075-.055.065-.074-.028-.037-.074-.129-.056-.23.038-.479-.037-.681.197l-.018-.122c-.083-.028-.304-.037-.396.028-.074.056-.074.28-.12-.028-.074.196-.074.028-.129.019-.055-.009-.249.028-.295.056-.037.028-.064.14-.074.14,0,0-.046-.103-.092-.103-.064,0-.092.103-.11.103s-.055-.121-.083-.14c-.046-.028-.193.103-.212.103s-.101-.15-.138-.15c-.055.01-.092.103-.12.122-.064.037-.239-.047-.322-.028-.064.018-.239.289-.267.289-.009,0,0-.093-.018-.121-.064-.084-.221,0-.276.177-.028-.271-.157-.028-.221.066-.018-.243-.074-.056-.129-.066-.028,0-.129-.149-.147-.168-.009,0-.184.094-.212.112-.028.01-.046.094-.055.094-.028,0-.055-.141-.074-.141-.028,0-.055.243-.074-.018-.046.084-.129.205-.147,0-.046.224-.074.028-.11.018-.092-.028-.138.057-.203.085-.129.056-.221-.122-.341-.094-.101.028-.055.009-.147-.019-.064-.018-.129.113-.184.131-.147.047-.258-.261-.414-.159-.046.028-.083.197-.101.197,0,0-.055-.112-.092-.103-.046.019-.074.112-.092.112-.028,0-.046-.112-.074-.121-.046-.019-.074.102-.12.093-.037,0-.064-.103-.092-.093-.028.009-.046.121-.074.121-.009,0-.009-.178-.055-.159-.055.187-.101.084-.147.112-.064.038-.138.234-.23.168v-.177c-.092.093-.193.149-.249.364l-.028-.233c-.092,0-.175.056-.249.233l-.055-.112c-.046.159-.12.122-.184.187-.028.028-.046.149-.055.149s-.037-.121-.074-.112c-.037.01-.11.253-.166.243-.009,0,0-.121-.037-.131-.074,0-.166.057-.221.187l-.037-.177c-.111.215-.239.121-.35.289l-.037-.242-.184.242-.028-.233c-.083,0-.138,0-.212.177l-.055-.186s-.055.112-.074.112c-.028.009-.046-.112-.064-.103-.018,0-.037.131-.055.112-.018-.009-.018-.15-.028-.168-.046-.103-.175.028-.193.028-.019,0-.028-.094-.055-.084-.028,0-.055.121-.092.112-.037-.009-.046-.131-.083-.168-.12-.131-.203-.056-.313-.028-.083.018-.267-.019-.331.018-.028.019-.046.122-.074.122-.009,0,0-.131-.055-.131-.083,0-.101.28-.147-.056l-.092.131-.037-.122c-.12.103-.267-.056-.387.178l-.028-.234c-.074-.009-.221.421-.203,0l-.101.122-.018-.122-.092.178-.037-.178c-.064.187-.101.047-.157.075-.037.019-.083.177-.11.177,0,0,0-.093-.037-.13-.101-.131-.138.084-.184.112-.018.009-.046-.047-.064-.028-.037.028-.037.233-.074-.066-.092.178-.101-.121-.12-.13-.037-.01-.092.158-.111.177-.028.009-.046-.121-.083-.103-.037.019-.074.197-.092.178l-.028-.178c-.055.159-.12.019-.138.019-.028,0-.037.215-.064-.075-.018-.046-.147.168-.147-.056h-.028c-.018.075-.11.206-.129.215-.009,0-.138-.056-.175-.028-.018.009-.037.103-.055.103,0,0-.028-.215-.101-.234-.046-.009-.064.14-.111.112v-.177s-.129.159-.138.159c-.018,0-.037-.122-.092-.103-.037.009-.064.121-.092.177l-.055-.177s-.055.14-.083.159c-.009.009-.138-.084-.157-.094-.046,0-.092.159-.111.15-.009,0-.037-.103-.074-.103-.046,0-.065.121-.092.131-.009,0,0-.094-.028-.122-.055-.102-.083.056-.12.056-.046,0-.138-.074-.203-.065-.028,0-.12.019-.147.028-.064.037-.12.196-.138.215-.037.019-.046-.159-.083-.168-.064-.019-.166.252-.239.299l-.064-.215c-.046-.056-.092.14-.12.14-.018,0-.046-.159-.092-.159-.028,0-.147.215-.184.234h-.028v-.178c-.037.084-.074-.046-.101-.046-.083.009-.239.018-.313.056-.028.009-.055.121-.074.112-.018-.019-.018-.131-.037-.159-.055-.131-.322-.038-.414-.038-.018,0-.037-.074-.064-.065-.037,0-.11.14-.12.131-.018,0-.028-.112-.046-.131-.018-.019-.055.037-.092,0-.037-.028-.064-.14-.083-.149-.028-.01-.046.112-.074.13-.064.056-.092-.056-.138-.065-.046,0-.166.047-.184.028-.028-.028-.046-.149-.055-.159-.018,0-.037.084-.055.084-.064-.009-.074,0-.11,0-.019,0-.046-.14-.074-.149-.018,0-.046.084-.074.112-.092.065-.083-.112-.092-.122-.101-.009-.221.309-.331-.046l-.193.224-.028-.168c-.074,0-.322.177-.368.149-.018-.009-.018-.13-.028-.149,0-.019-.11.047-.138.047s-.046-.094-.055-.094c-.018,0-.166.131-.203.14-.037,0-.064-.159-.111-.149-.046.009-.083.187-.147.177-.037,0-.028-.121-.037-.121-.037-.01-.157,0-.184.112l-.037-.187c-.055,0-.101.196-.166.187-.037,0-.018-.112-.037-.122-.046-.028-.12.094-.157.103-.221.028-.414-.103-.635.019l-.018-.122c-.157.094-.433.047-.58-.121-.018-.019-.018-.131-.046-.149-.055-.038-.11.065-.147.158.009-.13-.092-.224-.12-.233-.028-.01-.055.065-.083.047-.101-.057-.212-.262-.331-.281-.046,0-.101,0-.147-.028-.028-.018-.055-.103-.101-.084-.028,0-.055.094-.074.084-.018,0-.037-.149-.074-.159-.046-.009-.129.122-.175.141-.101.037-.221-.047-.322-.028-.037,0-.23.158-.239.149-.018,0-.046-.103-.083-.121-.074-.028-.157,0-.23,0-.378-.047-.737-.159-1.123-.122-.184.019-.405.14-.589.094-.064-.019-.331-.141-.377-.206-.249-.327.156-.57.239-.617.635-.345,1.344-.364,1.98-.439.525-.056.958-.121,1.492.028.479.131.967.309,1.455.197.064-.019.046,0,.092,0,.028,0,.064-.262.129-.038l.018-.121c.286.075.58.037.866.028.479,0,.985-.094,1.455-.075.064,0,.202-.009.258.047.037.037.028.131.037.131.009-.01.028-.094.055-.103.037-.01.092.075.129.075.129.009.258-.019.378,0,.064,0,.055.298.138.028l.018.121c.092-.084.184,0,.258-.121l.037.13c.129-.215.276-.018.405-.009.11,0,.23-.103.35-.103.396.019.718-.159,1.096-.224.074-.009.239-.159.267.037.193-.186.396-.102.58-.149.147-.028.313-.159.46-.159.009,0,0,.131.046.15.055.028.111-.131.147-.141.028,0,.046.113.065.103.018,0,.028-.112.055-.112.009,0,0,.103.018.122.055.056.175-.169.184.056.074-.038.322-.197.368-.159.092.065.221.028.322.037.064,0,.147-.084.184-.084.046,0,.064.29.147-.019.074.439.12.075.147.075s.064.196.129-.019l.037.178.304-.056c.018.224.074.065.129.065.23,0,.46.038.69.038.055,0,.147-.103.184-.084.028.009.055.13.074.149.037.028.203-.093.276-.084.083,0,.276,0,.331.009.019,0,.028.094.055.084.046-.028.037-.233.101.141l.138-.187-.018.177.064-.065.018.121c.129-.252.276-.037.405,0,.258.066.58.112.866,0,.258-.093.497-.317.755-.401.193-.066.396-.103.571-.103.018,0,.037-.084.055-.084.019,0,.064.205.092.224.009,0,0-.084.018-.122.046-.093.193.01.258,0,.488-.084.939-.037,1.418.075.074.019.157.094.212-.075v.122c.092-.131.175,0,.249.028.055.019.175-.103.184.093.064-.233.147-.018.202,0,.157.047.341-.037.506-.028.47.019.921-.224,1.39-.252.534-.037,1.068,0,1.602-.187l.018.112c.166-.224.387-.028.553-.028.046,0,.156-.205.166.028.295-.233.681.038.976-.084.037-.018.028-.224.083.084.147-.205.322-.102.47-.14.396-.112.7-.205,1.105-.224.074,0,.166-.103.221-.093.028,0,.046.093.074.093.037,0,.046-.14.074-.159,0,0,.166.038.166.056l-.074-.009Z"/><path d="M29.489,78.444v.15c0,.028.037-.159.064-.168.037-.01.129.14.184.149.046,0,.166-.121.184-.112.028.009.055.196.092.196.028,0,.055-.168.064-.14,0,0-.009.131.037.215.046.075.092-.065.12-.037.018,0,.009.149.018.158.147.131.276-.158.387.178.055-.346.064-.121.092-.121.138.009.267-.075.405-.141.046-.018.092-.158.147-.13l.028.327h.037c.055-.692.083.186.147,0l.055.569-.064.169c-.009.261.046.429.046.457.018.383-.064.944-.147,1.028-.028.028-.046-.037-.064-.028-.064.047-.083,0-.12.028-.037.028-.12.299-.138.29-.018-.01-.037-.206-.083-.197-.046.01-.138.15-.175.309l-.037-.262c-.101.346-.11.112-.184.075-.046-.019-.111.14-.147.103-.018-.019-.018-.234-.037-.253-.037-.028-.129.271-.147-.121l-.203.364-.018-.187c-.064.141-.083.131-.111-.177-.064.271-.101.019-.184.019-.184,0-.359.299-.516,0-.037-.075-.138.233-.184.252-.083-.318-.295-.15-.424-.084l-.037-.178s-.037.112-.055.131c-.046.037-.101.103-.111-.131-.055,0-.249.374-.276.365-.018-.01,0-.197-.046-.243-.046-.047-.129.205-.175.233-.055.028-.424.103-.451.075-.064-.065,0-.14-.129-.103-.092.028-.212-.149-.295.131l-.018-.177-.074.177-.018-.177c-.046.13-.083.009-.12.018-.018,0-.157.159-.166.15-.018-.019-.037-.178-.046-.215-.018-.047-.028.112-.055.103-.074-.038-.037-.103-.129-.075-.23.056-.479-.056-.681.289l-.018-.177c-.083-.037-.304-.056-.396.037-.074.075-.074.411-.12-.037-.074.29-.074.047-.129.028-.055-.019-.249.037-.295.084-.037.037-.065.206-.074.206,0,0-.046-.15-.092-.159-.064-.01-.092.149-.111.149s-.055-.177-.083-.205c-.046-.038-.193.149-.212.14-.018-.009-.101-.224-.138-.215-.055.019-.092.159-.12.187-.064.056-.239-.075-.322-.038-.064.028-.239.421-.267.43-.009,0,0-.14-.018-.177-.064-.122-.221.009-.276.261-.028-.401-.157-.046-.221.094-.018-.365-.074-.084-.129-.094-.028,0-.129-.224-.147-.243-.009,0-.184.141-.212.169-.028.018-.046.13-.055.13-.028,0-.055-.205-.074-.205-.028,0-.055.355-.074-.028-.046.121-.129.299-.147,0-.046.327-.074.046-.111.028-.092-.038-.138.084-.203.121-.129.084-.221-.177-.341-.131-.101.038-.055.019-.147-.028-.064-.028-.129.169-.184.187-.147.066-.258-.383-.414-.243-.046.047-.083.281-.101.29,0,0-.055-.168-.092-.14-.046.028-.074.168-.092.168-.028,0-.046-.159-.074-.177-.046-.038-.074.149-.12.14-.037-.01-.064-.15-.092-.14-.028.009-.046.177-.074.186-.009,0-.009-.252-.055-.233-.055.271-.101.121-.147.168-.064.056-.138.346-.23.243v-.262c-.092.131-.193.215-.249.533l-.028-.346c-.092-.009-.175.084-.249.336l-.055-.158c-.046.233-.12.177-.184.28-.028.047-.046.224-.055.224s-.037-.177-.074-.159c-.037.019-.111.374-.166.365-.009,0,0-.187-.037-.187-.074-.01-.166.084-.221.28l-.037-.262c-.11.318-.239.178-.35.43l-.037-.364-.184.355-.028-.346c-.083,0-.138,0-.212.262l-.055-.271s-.055.159-.074.168c-.028.019-.046-.168-.064-.149-.018.009-.037.186-.055.168-.018-.019-.018-.215-.028-.253-.046-.149-.175.047-.193.038-.018-.01-.028-.14-.055-.131-.028,0-.055.187-.092.168-.037-.019-.046-.196-.083-.252-.12-.196-.203-.084-.313-.047-.083.028-.267-.028-.331.028-.028.028-.046.178-.074.178-.009,0,0-.196-.055-.187-.083,0-.101.411-.147-.084l-.092.187-.037-.187c-.12.149-.267-.075-.387.261l-.028-.345c-.074-.019-.221.616-.203,0l-.101.177-.018-.177-.092.261-.037-.261c-.065.28-.101.065-.157.103-.037.028-.083.261-.111.252,0,0,0-.14-.037-.196-.101-.197-.138.121-.184.168-.018.018-.046-.066-.064-.047-.037.037-.037.346-.074-.103-.092.252-.101-.187-.12-.187-.037-.018-.092.243-.11.253-.028.018-.046-.178-.083-.15-.037.019-.074.29-.092.252l-.028-.261c-.055.224-.12.019-.138.028-.028.009-.037.317-.064-.112-.018-.066-.147.252-.147-.084l-.028-.019c-.018.131-.111.318-.129.336-.009,0-.138-.074-.175-.046-.018.018-.037.149-.055.158,0,0-.028-.308-.101-.345-.046-.019-.064.205-.11.159v-.262s-.129.234-.138.234c-.018,0-.037-.178-.092-.15-.037.019-.064.187-.092.262l-.055-.271s-.055.205-.083.233c-.009.019-.138-.13-.157-.13-.046-.01-.092.224-.11.224-.009,0-.037-.15-.074-.159-.046,0-.064.187-.092.187-.009,0,0-.131-.028-.178-.055-.159-.083.094-.12.084-.046-.009-.138-.102-.203-.093-.028,0-.12.019-.147.037-.064.047-.12.299-.138.309-.037.028-.046-.234-.083-.243-.064-.019-.166.373-.239.429l-.064-.317c-.046-.084-.092.205-.12.196-.018,0-.046-.234-.092-.234-.028,0-.147.318-.184.346h-.028v-.262c-.037.122-.074-.065-.101-.065-.083.019-.239.028-.313.075-.028.018-.055.187-.074.159-.018-.019-.018-.187-.037-.234-.055-.187-.322-.056-.414-.056-.018,0-.037-.103-.064-.103-.037,0-.111.206-.12.196-.018,0-.028-.168-.046-.196-.018-.037-.055.047-.092,0-.037-.037-.064-.205-.083-.215-.028-.018-.046.159-.074.197-.064.084-.092-.085-.138-.094-.046-.009-.166.066-.184.047-.028-.038-.046-.224-.055-.234-.018,0-.037.131-.055.122-.064-.019-.074,0-.11,0-.019,0-.046-.206-.074-.224-.018,0-.046.13-.074.158-.092.094-.083-.168-.092-.177-.101-.019-.221.448-.332-.075l-.193.336-.028-.242c-.074,0-.322.27-.368.214-.018-.018-.018-.186-.028-.224,0-.018-.111.066-.138.066s-.046-.141-.055-.141c-.018,0-.166.197-.203.206-.037,0-.064-.234-.11-.215-.046.019-.083.28-.147.252-.037-.009-.028-.177-.037-.186-.037-.019-.157.009-.184.168l-.037-.271c-.055,0-.101.28-.166.28-.037,0-.018-.168-.037-.177-.046-.047-.12.14-.156.149-.221.047-.414-.149-.635.028l-.018-.187c-.157.14-.433.066-.58-.177-.018-.028-.018-.187-.046-.225-.055-.056-.111.094-.147.225.009-.196-.092-.327-.12-.346-.028-.019-.055.093-.083.065-.101-.084-.212-.383-.332-.411-.046,0-.101,0-.147-.037-.028-.028-.055-.14-.101-.131-.028.01-.055.131-.074.131s-.037-.224-.074-.234c-.046-.018-.129.178-.175.206-.101.056-.221-.075-.322-.037-.037.009-.23.233-.239.224-.019,0-.046-.159-.083-.178-.074-.046-.156,0-.23,0-.378-.065-.737-.233-1.123-.187-.184.029-.405.206-.589.131-.064-.028-.332-.205-.378-.299-.249-.476.157-.84.239-.906.635-.514,1.344-.542,1.98-.644.525-.075.958-.178,1.492.037.479.196.967.448,1.455.29.064-.019.046,0,.092,0,.028,0,.064-.383.129-.057l.018-.186c.285.112.58.056.866.046.479-.009.985-.13,1.455-.112.064,0,.203-.018.258.066.037.046.028.196.037.186.009-.018.028-.14.055-.149.037-.019.092.112.129.112.129.019.258-.028.377,0,.064,0,.055.439.138.047l.018.177c.092-.121.184,0,.258-.177l.037.187c.129-.318.276-.028.405-.019.111,0,.23-.159.35-.149.396.028.718-.234,1.096-.337.074-.018.239-.224.267.056.193-.271.396-.149.58-.215.147-.046.313-.233.46-.233.009,0,0,.196.046.224.055.047.11-.196.147-.205.028,0,.046.168.064.149.018-.009.028-.168.055-.168.009,0,0,.149.018.177.055.084.175-.252.184.084.074-.056.322-.28.368-.242.092.093.221.046.322.046.064,0,.147-.121.184-.131.046,0,.064.421.147-.028.074.654.12.113.147.113s.064.289.129-.019l.037.261.304-.084c.018.327.074.103.129.103.23,0,.46.056.69.056.055,0,.147-.159.184-.131.028.019.055.197.074.215.037.038.203-.14.276-.131.083,0,.276-.009.332.019.018,0,.028.14.055.122.046-.038.037-.337.101.196l.138-.271-.018.261.064-.093.018.187c.129-.383.276-.047.405,0,.258.093.58.159.866,0,.258-.14.497-.467.755-.589.193-.093.396-.149.571-.159.018,0,.037-.121.055-.121.019,0,.064.308.092.327.009.009,0-.131.018-.178.046-.14.193.019.258,0,.488-.121.939-.056,1.418.113.074.028.157.14.212-.103v.177c.092-.196.175,0,.249.038.055.028.175-.15.184.13.064-.345.147-.028.202,0,.157.075.341-.056.507-.046.47.018.921-.327,1.39-.365.534-.046,1.068,0,1.602-.28l.018.168c.166-.327.387-.037.552-.037.046,0,.157-.299.166.047.295-.337.681.056.976-.122.037-.028.028-.327.083.122.147-.309.322-.15.47-.206.396-.159.7-.299,1.105-.327.074,0,.166-.159.221-.14.028,0,.046.14.074.14.037,0,.046-.205.074-.243,0-.009.166.056.166.084l-.074.084Z"/><path d="M29.489,87.628v.149c0,.028.037-.159.064-.168.037-.009.129.14.184.149.046,0,.166-.121.184-.112.028.01.055.196.092.196.028,0,.055-.168.064-.14,0,0-.009.131.037.215.046.075.092-.065.12-.037.018,0,.009.149.018.159.147.13.276-.159.387.177.055-.346.064-.121.092-.121.138.009.267-.075.405-.14.046-.019.092-.159.147-.131l.028.327h.037c.055-.692.083.187.147,0l.055.57-.064.168c-.009.261.046.429.046.457.018.384-.064.944-.147,1.028-.028.028-.046-.037-.064-.028-.064.047-.083,0-.12.028-.037.028-.12.299-.138.29-.018-.01-.037-.206-.083-.196-.046.009-.138.149-.175.308l-.037-.262c-.101.346-.11.112-.184.075-.046-.019-.111.14-.147.103-.018-.019-.018-.234-.037-.253-.037-.028-.129.271-.147-.121l-.203.364-.018-.186c-.064.14-.083.13-.111-.178-.064.271-.101.019-.184.019-.184,0-.359.299-.516,0-.037-.075-.138.233-.184.252-.083-.318-.295-.15-.424-.084l-.037-.178s-.037.113-.055.131c-.046.038-.101.103-.111-.131-.055,0-.249.374-.276.365-.018-.01,0-.196-.046-.243-.046-.047-.129.205-.175.233-.055.028-.424.103-.451.075-.064-.065,0-.14-.129-.103-.092.028-.212-.149-.295.131l-.018-.177-.074.177-.018-.177c-.046.13-.083.009-.12.018-.018,0-.157.159-.166.15-.018-.019-.037-.178-.046-.215-.018-.047-.028.112-.055.103-.074-.038-.037-.103-.129-.075-.23.056-.479-.056-.681.29l-.018-.178c-.083-.037-.304-.056-.396.037-.074.075-.074.411-.12-.037-.074.29-.074.047-.129.028-.055-.019-.249.037-.295.084-.037.038-.065.206-.074.206,0,0-.046-.15-.092-.159-.064-.009-.092.149-.111.149s-.055-.177-.083-.205c-.046-.038-.193.149-.212.14-.018-.009-.101-.224-.138-.215-.055.019-.092.159-.12.187-.064.056-.239-.075-.322-.037-.064.028-.239.42-.267.429-.009,0,0-.14-.018-.177-.064-.122-.221.009-.276.261-.028-.401-.157-.046-.221.094-.018-.365-.074-.084-.129-.094-.028,0-.129-.224-.147-.243-.009,0-.184.141-.212.169-.028.018-.046.13-.055.13-.028,0-.055-.205-.074-.205-.028,0-.055.355-.074-.028-.046.121-.129.299-.147,0-.046.327-.074.047-.111.028-.092-.037-.138.084-.203.121-.129.084-.221-.177-.341-.13-.101.037-.055.018-.147-.028-.064-.028-.129.168-.184.186-.147.066-.258-.383-.414-.243-.046.047-.083.281-.101.29,0,0-.055-.168-.092-.14-.046.028-.074.168-.092.168-.028,0-.046-.159-.074-.177-.046-.038-.074.149-.12.14-.037-.01-.064-.15-.092-.14-.028.009-.046.177-.074.186-.009,0-.009-.252-.055-.233-.055.271-.101.121-.147.168-.064.056-.138.346-.23.243v-.262c-.092.131-.193.215-.249.533l-.028-.346c-.092-.009-.175.084-.249.337l-.055-.159c-.046.233-.12.177-.184.28-.028.047-.046.224-.055.224s-.037-.177-.074-.159c-.037.019-.111.374-.166.365-.009,0,0-.187-.037-.187-.074-.009-.166.084-.221.28l-.037-.261c-.11.317-.239.177-.35.429l-.037-.364-.184.355-.028-.346c-.083,0-.138,0-.212.262l-.055-.271s-.055.159-.074.168c-.028.019-.046-.168-.064-.149-.018.009-.037.186-.055.168-.018-.019-.018-.215-.028-.252-.046-.15-.175.046-.193.037-.018-.009-.028-.14-.055-.131-.028,0-.055.187-.092.168-.037-.018-.046-.196-.083-.252-.12-.196-.203-.084-.313-.047-.083.028-.267-.028-.331.028-.028.028-.046.178-.074.178-.009,0,0-.196-.055-.187-.083,0-.101.411-.147-.084l-.092.187-.037-.187c-.12.149-.267-.075-.387.262l-.028-.346c-.074-.019-.221.616-.203,0l-.101.177-.018-.177-.092.261-.037-.261c-.065.28-.101.065-.157.103-.037.028-.083.261-.111.252,0,0,0-.14-.037-.196-.101-.196-.138.121-.184.168-.018.019-.046-.066-.064-.047-.037.037-.037.346-.074-.103-.092.253-.101-.186-.12-.186-.037-.019-.092.242-.11.252-.028.018-.046-.178-.083-.15-.037.019-.074.29-.092.253l-.028-.262c-.055.224-.12.019-.138.028-.028.009-.037.318-.064-.112-.018-.066-.147.252-.147-.084l-.028-.019c-.018.131-.111.318-.129.336-.009,0-.138-.074-.175-.046-.018.018-.037.149-.055.159,0,0-.028-.309-.101-.346-.046-.019-.064.205-.11.159v-.262s-.129.234-.138.234c-.018,0-.037-.178-.092-.15-.037.019-.064.187-.092.262l-.055-.271s-.055.205-.083.233c-.009.019-.138-.13-.157-.13-.046-.01-.092.224-.11.224-.009,0-.037-.15-.074-.159-.046,0-.064.187-.092.187-.009,0,0-.131-.028-.178-.055-.158-.083.094-.12.084-.046-.009-.138-.102-.203-.093-.028,0-.12.019-.147.037-.064.047-.12.299-.138.309-.037.028-.046-.234-.083-.243-.064-.019-.166.373-.239.429l-.064-.317c-.046-.084-.092.205-.12.196-.018,0-.046-.234-.092-.234-.028,0-.147.318-.184.346h-.028v-.261c-.037.121-.074-.066-.101-.066-.083.019-.239.028-.313.075-.028.019-.055.187-.074.159-.018-.019-.018-.187-.037-.234-.055-.187-.322-.056-.414-.056-.018,0-.037-.103-.064-.103-.037,0-.111.206-.12.197-.018,0-.028-.169-.046-.197-.018-.037-.055.047-.092,0-.037-.037-.064-.205-.083-.214-.028-.019-.046.158-.074.196-.064.084-.092-.084-.138-.094-.046-.009-.166.066-.184.047-.028-.037-.046-.224-.055-.234-.018,0-.037.131-.055.122-.064-.019-.074,0-.11,0-.019,0-.046-.206-.074-.224-.018,0-.046.13-.074.158-.092.094-.083-.168-.092-.177-.101-.019-.221.448-.332-.075l-.193.337-.028-.243c-.074,0-.322.271-.368.215-.018-.019-.018-.187-.028-.225,0-.018-.111.066-.138.066s-.046-.14-.055-.14c-.018,0-.166.196-.203.205-.037,0-.064-.233-.11-.215-.046.019-.083.281-.147.252-.037-.009-.028-.177-.037-.186-.037-.019-.157.009-.184.168l-.037-.271c-.055,0-.101.28-.166.28-.037,0-.018-.168-.037-.177-.046-.047-.12.14-.156.149-.221.047-.414-.149-.635.028l-.018-.187c-.157.14-.433.066-.58-.177-.018-.028-.018-.187-.046-.224-.055-.056-.111.093-.147.224.009-.196-.092-.327-.12-.346-.028-.019-.055.094-.083.066-.101-.085-.212-.383-.332-.412-.046,0-.101,0-.147-.037-.028-.028-.055-.14-.101-.131-.028.01-.055.131-.074.131s-.037-.224-.074-.233c-.046-.019-.129.177-.175.205-.101.056-.221-.075-.322-.037-.037.009-.23.233-.239.224-.019,0-.046-.159-.083-.178-.074-.046-.156,0-.23,0-.378-.065-.737-.233-1.123-.186-.184.028-.405.205-.589.13-.064-.028-.332-.205-.378-.299-.249-.476.157-.84.239-.906.635-.514,1.344-.542,1.98-.644.525-.075.958-.178,1.492.037.479.196.967.448,1.455.29.064-.019.046,0,.092,0,.028,0,.064-.383.129-.056l.018-.187c.285.112.58.056.866.046.479-.009.985-.13,1.455-.112.064,0,.203-.018.258.066.037.046.028.196.037.187.009-.019.028-.141.055-.15.037-.019.092.112.129.112.129.019.258-.028.377,0,.064,0,.055.439.138.047l.018.177c.092-.121.184,0,.258-.177l.037.187c.129-.318.276-.028.405-.019.111,0,.23-.159.35-.149.396.028.718-.234,1.096-.337.074-.018.239-.224.267.056.193-.271.396-.149.58-.215.147-.046.313-.233.46-.233.009,0,0,.196.046.224.055.047.11-.196.147-.205.028,0,.046.168.064.149.018-.009.028-.168.055-.168.009,0,0,.149.018.177.055.085.175-.252.184.085.074-.057.322-.281.368-.243.092.093.221.046.322.046.064,0,.147-.121.184-.13.046,0,.064.42.147-.028.074.653.12.112.147.112s.064.289.129-.019l.037.262.304-.085c.018.327.074.103.129.103.23,0,.46.056.69.056.055,0,.147-.159.184-.131.028.019.055.197.074.215.037.038.203-.14.276-.13.083,0,.276-.01.332.018.018,0,.028.14.055.122.046-.038.037-.337.101.196l.138-.271-.018.262.064-.094.018.187c.129-.383.276-.047.405,0,.258.093.58.159.866,0,.258-.14.497-.467.755-.589.193-.093.396-.149.571-.158.018,0,.037-.122.055-.122.019,0,.064.308.092.327.009.009,0-.131.018-.177.046-.141.193.018.258,0,.488-.122.939-.056,1.418.112.074.028.157.14.212-.103v.177c.092-.196.175,0,.249.038.055.028.175-.15.184.131.064-.346.147-.028.202,0,.157.074.341-.056.507-.047.47.019.921-.327,1.39-.364.534-.047,1.068,0,1.602-.281l.018.168c.166-.327.387-.037.552-.037.046,0,.157-.299.166.047.295-.337.681.056.976-.122.037-.028.028-.327.083.122.147-.308.322-.15.47-.206.396-.159.7-.299,1.105-.327.074,0,.166-.159.221-.14.028,0,.046.14.074.14.037,0,.046-.205.074-.243,0-.009.166.056.166.084l-.074.085Z"/><path d="M31.561,97.885l-.055-.57c-.064.187-.092-.691-.147,0h-.037l-.028-.318c-.055-.037-.101.113-.147.131-.138.066-.267.159-.405.14-.028,0-.037-.224-.092.122-.111-.336-.239-.047-.387-.178,0,0,0-.149-.018-.158-.028-.019-.074.121-.12.037-.046-.084-.037-.206-.037-.215-.009-.028-.037.14-.064.14-.037,0-.064-.187-.092-.196-.018,0-.138.121-.184.112-.055,0-.138-.159-.184-.149-.028,0-.055.196-.064.168v-.15c0-.028-.157-.093-.166-.084-.028.038-.037.234-.074.243-.028,0-.046-.131-.074-.14-.055-.019-.147.14-.221.14-.405.019-.709.168-1.114.327-.156.065-.322-.093-.47.206-.055-.449-.037-.15-.083-.122-.295.178-.672-.215-.976.122-.009-.337-.12-.047-.166-.047-.166,0-.387-.29-.552.037l-.018-.168c-.534.29-1.068.234-1.602.28-.47.047-.921.393-1.39.365-.157,0-.35.121-.507.046-.055-.028-.138-.345-.202,0-.009-.28-.129-.112-.184-.13-.074-.028-.157-.234-.239-.038v-.177c-.064.243-.147.131-.221.103-.479-.159-.93-.225-1.418-.113-.055.019-.212-.14-.258,0-.018.047,0,.187-.018.178-.028-.019-.074-.327-.092-.327-.018,0-.037.112-.055.121-.166,0-.378.066-.571.159-.258.122-.497.449-.755.589-.285.149-.599.084-.866,0-.129-.047-.285-.374-.405,0l-.018-.187-.064.093v-.149h-.037l-.083.159c0-.066-.018-.112-.018-.159-1.077.028-2.201.056-3.259-.066-.396-.046-.755-.112-1.105-.205-.028.009-.055.028-.074.037-.193.056-.396-.065-.58.215-.028-.289-.193-.075-.267-.056-.378.103-.7.364-1.096.336-.12,0-.23.159-.35.15-.129,0-.285-.299-.405.019l-.037-.187c-.074.177-.166.056-.258.177l-.018-.177c-.083.392-.074-.038-.138-.047-.11-.019-.249.019-.377,0-.046,0-.092-.131-.129-.112-.028.009-.046.14-.055.149,0,0,0-.14-.037-.186-.055-.085-.193-.056-.258-.066-.46-.019-.976.103-1.455.112-.285,0-.58.066-.866-.046l-.018.186c-.064-.327-.101.066-.129.056-.055,0-.037-.018-.092,0-.488.159-.976-.093-1.455-.289-.525-.215-.967-.112-1.492-.038-.635.094-1.354.131-1.98.645-.083.065-.479.43-.239.906.046.094.313.271.378.299.184.066.405-.112.589-.131.387-.046.746.122,1.123.187.074.01.156-.037.23,0,.037.019.064.168.083.178.009,0,.202-.215.239-.224.101-.038.221.093.322.037.046-.028.129-.224.175-.206.037.01.055.225.074.234.009,0,.037-.112.074-.131.037-.019.064.103.101.131.046.028.101.028.147.037.12.019.23.318.332.411.028.028.055-.084.083-.065.028.019.129.159.12.346.037-.131.101-.281.147-.225.037.038.028.197.046.225.157.242.424.317.58.177v.094c.064,0,.12.009.175.018.157-.028.313.075.479.038.037,0,.11-.187.156-.15.019.019,0,.178.037.178.055,0,.101-.271.166-.281l.037.271c.019-.159.147-.187.184-.168.018,0,0,.168.037.187.074.019.11-.243.147-.252.037-.019.064.215.11.215.037,0,.184-.206.203-.206.009,0,.028.14.055.14.018,0,.129-.084.138-.065.009.037,0,.205.028.224.055.047.304-.215.368-.215l.028.243.193-.336c.111.523.23.056.332.074,0,0,0,.271.092.178.028-.028.055-.168.074-.159.028.009.055.224.074.224.037,0,.046-.018.11,0,.018,0,.037-.13.055-.121.018,0,.037.196.055.233.019.028.138-.056.184-.046.037,0,.074.177.138.093.028-.037.055-.215.074-.196.018.009.055.177.083.215.037.037.074-.038.092,0,.009.019.018.084.028.14h.046c.028-.056.064-.14.092-.14.018,0,.037.103.064.103.083,0,.322-.103.396.037.249-.037.497-.047.755-.019.147.019.285.019.433.028.028-.056.055-.102.074-.093.018,0,.028.047.037.093.037,0,.074-.009.11-.018.018-.056.046-.112.074-.141.018-.018.111-.037.147-.037.064-.009.157.084.203.094.037,0,.064-.234.12-.085,0,.019,0,.057.009.085h.055c.018-.047.028-.094.055-.094.018,0,.037.037.046.084h.064c.018-.065.046-.149.074-.14.009,0,.083.075.12.112h.046c.019-.056.046-.205.074-.205l.037.186h.037c.018-.084.046-.168.074-.186.055-.028.074.14.092.149,0,0,.129-.271.138-.233v.233h.046c.018-.056.037-.131.074-.121.028.009.037.056.055.102h.009c.12-.018.239-.028.35-.037.018-.056.037-.112.046-.159l.028.019c0,.075,0,.112.018.14h.064c.028-.028.064-.075.074-.047v.038c.175-.019.35-.038.525-.056.737-.066,1.464-.103,2.21-.047.451.037.875.14,1.28.271.074,0,.138-.019.212-.019.497-.018.598-.028,1.114-.149.046-.038.101-.047.138-.224l.055.158c.074-.252.157-.355.249-.336l.028.29h.018c.055-.262.147-.346.221-.477v.262c.101.103.184-.187.239-.243.046-.037.083.112.147-.168.046-.019.046.243.055.233.028,0,.046-.168.074-.187.028-.009.055.122.092.141.046.018.074-.169.12-.141.028.019.055.178.074.178s.046-.14.092-.168c.037-.028.092.149.092.14.018,0,.055-.252.101-.29.157-.14.267.309.414.243.055-.028.11-.224.184-.187.092.038.046.066.147.028.064-.028.129.038.184.094.083-.019.157-.028.239-.038.037-.037.074-.065.12-.046,0,0,.009.009.018.018.028,0,.055,0,.092-.009v-.037.037c.046,0,.092-.009.138-.019v-.018.018c.12-.018.249-.037.368-.056.028-.018.046-.028.046-.028,0,0,0,.01.009.019.304-.037.617-.075.921-.103.046-.084.092-.168.12-.177.083-.028.258.093.322.037.037-.028.064-.168.12-.187.028,0,.074.103.111.168.037,0,.074-.018.11-.028.046-.046.111-.093.129-.074,0,0,.009.028.018.046.12-.018.23-.037.35-.046.055-.047.239-.094.285-.084.009,0,.028.028.037.046h.064c0-.018.019-.028.028-.074v.065h.101s.009-.019.019-.028c.083-.094.313-.075.396-.037v.018c.055,0,.111-.009.175-.018.175-.131.359-.075.534-.122.083-.019.074.028.111.065h.037c.018-.037.028-.112.037-.074,0,.009.009.037.018.074.111,0,.212-.018.322-.028.359-.028.727-.046,1.087-.065.028-.056.064-.103.083-.084.009.009.018.047.028.075.055,0,.101,0,.157-.01.055-.093.12-.186.147-.186,0,.233.064.168.11.13.019-.018.037-.112.055-.13l.037.158h.046c.101-.056.23-.121.322-.009h.138c.037-.084.083-.168.101-.121.037.065.074.102.111.121h.12c.092-.037.184-.121.285-.112.083,0,.12.252.184-.019,0,.056.009.084.018.122h.249l.064-.112c0,.046,0,.084.009.112h.902c.018-.038.028-.066.037-.066.037-.018.055.019.12-.028.018-.009.037.056.064.028.083-.093.166-.644.147-1.027,0-.028-.064-.197-.046-.458l.074-.168.028-.131Z"/><path d="M18.458,35.574c.838-.037,1.759.028,2.431.037.193,0,.387-.056.571-.028.451.056.958.178,1.418.094.055-.01.12-.094.175-.112.368-.084.81.112,1.188.056.276-.047.525.065.792.046.212-.018.368-.112.552-.14.534-.093,1.068,0,1.565.019.359.009.764-.037,1.123.019.157.018.331,0,.46.046.055.019.12.131.175.15.147.046.378,0,.599.046.295.057.543.243.709.197.184-.056.525-.57.534-.85.009-.262-.166-.813-.304-.972-.157-.178-.433-.093-.58-.271-.727.075-1.501.047-2.201.037-.433,0-.893-.056-1.344-.093-.129,0-.267.075-.396.065-.424,0-.819-.14-1.123-.018-.212.093-.433-.019-.681-.01-.304.019-.617.131-.921.141-.396-.271-1.022-.038-1.501-.131-1.087-.224-2.247.205-3.37-.047-.285.131-.617.009-.884-.009-.147-.019-.285.084-.442.102-.405.066-.875-.093-1.261-.056-.101,0-.184.103-.286.103-.092,0-.175-.075-.267-.075-.147,0-.313.047-.46.066-.516.056-.93.112-1.344-.019-.193.131-.488.084-.727.066-.313-.029-.626-.122-.948-.047-.064.018-.147.093-.221.112-.313.056-.737-.028-.994-.047-.193-.018-.377.103-.571.103-.083,0-.166-.075-.239-.075-.212-.009-.442.131-.663.103-.368-.047-.783,0-1.169.019-.083-.028-.018.177-.11.149-.221-.121-.47-.215-.727-.271-.405-.084-.838.112-1.252.094-.193,0-.387-.169-.552,0-.571-.281-1.4-.15-2.007-.028-.166.205-.497.149-.635.401-.47-.065-.783.58-.47,1.187.202.14.313.327.534.345.23.019.46-.177.681-.177.111,0,.23.103.331.112.184.019.377-.103.571-.103.092,0,.184.084.267.075.083-.009.157-.103.239-.112.101,0,.203.075.313.075.074,0,.147-.075.221-.075.543,0,1.16.271,1.611.019.147.27.35.084.506.084.23,0,.47.168.691.158.074,0,.129-.102.193-.112.092,0,.184.084.267.075.083,0,.175-.084.267-.112.184-.047.387-.009.599-.028.552-.047,1.114-.196,1.722-.159.166.009.322.103.488.122.285.018.543-.094.81-.141.267-.037.553.075.82.047.074,0,.147-.075.221-.075.157,0,.295.103.442.085.304-.038.599-.187.902-.066.12-.224.267,0,.414-.177.387.205.921.149,1.252-.056.221.065.543.056.792-.028.387.233.792.074,1.215.056l-.009.009Z"/><path d="M18.247,54.314c.838-.037,1.759.028,2.431.038.193,0,.387-.057.571-.028.451.056.958.177,1.418.093.055-.009.12-.093.175-.112.368-.084.81.112,1.188.056.276-.047.525.065.792.047.212-.019.368-.113.552-.141.534-.093,1.068,0,1.565.019.359.009.764-.037,1.123.019.157.019.332,0,.46.047.055.018.12.13.175.149.147.047.377,0,.598.047.295.056.543.243.709.196.184-.056.525-.57.534-.85.009-.262-.166-.813-.304-.972-.157-.177-.433-.093-.58-.271-.727.075-1.501.047-2.201.038-.433,0-.893-.056-1.344-.094-.129,0-.267.075-.396.066-.424,0-.819-.14-1.123-.019-.212.093-.433-.019-.681-.009-.304.018-.617.13-.921.14-.396-.271-1.022-.038-1.501-.131-1.087-.224-2.247.205-3.37-.047-.285.131-.617.01-.884-.009-.147-.019-.285.084-.442.103-.405.065-.875-.094-1.261-.056-.101,0-.184.102-.285.102-.092,0-.175-.074-.267-.074-.147,0-.313.046-.46.065-.516.056-.93.112-1.344-.019-.193.131-.488.084-.727.066-.313-.028-.626-.122-.948-.047-.064.019-.147.093-.221.112-.313.056-.737-.028-.994-.047-.193-.018-.377.103-.571.103-.083,0-.166-.075-.239-.075-.212-.009-.442.131-.663.103-.368-.046-.783,0-1.169.019-.083-.028-.019.177-.111.149-.221-.121-.47-.214-.727-.271-.405-.084-.838.113-1.252.094-.193,0-.387-.168-.552,0-.571-.28-1.4-.15-2.007-.028-.166.205-.497.149-.635.402-.47-.066-.783.579-.47,1.186.203.14.313.327.534.346.23.018.46-.178.681-.178.111,0,.23.103.332.112.184.019.377-.103.571-.103.092,0,.184.085.267.075.083-.009.157-.103.239-.112.101,0,.202.075.313.075.074,0,.147-.075.221-.075.543,0,1.16.271,1.611.019.147.271.35.084.507.084.23,0,.47.168.69.159.074,0,.129-.103.193-.112.092,0,.184.084.267.074.083,0,.175-.084.267-.112.184-.046.387-.009.599-.028.552-.047,1.114-.196,1.722-.159.166.01.322.103.488.122.285.019.543-.094.81-.14.267-.038.553.074.82.046.074,0,.147-.074.221-.074.157,0,.295.102.442.084.304-.038.598-.187.902-.066.12-.224.267,0,.414-.177.387.205.921.149,1.252-.056.221.065.543.056.792-.028.387.233.792.075,1.215.056l-.009.009Z"/><path d="M19.425,63.311c.994-.066,2.062-.028,2.854-.047.23,0,.451-.065.672-.056.525.037,1.123.131,1.657.028.064-.009.138-.103.203-.121.433-.094.948.074,1.399,0,.332-.057.608.037.93,0,.249-.029.442-.131.645-.169.635-.13,1.262-.056,1.842-.074.414-.01.893-.094,1.326-.066.184.01.387-.018.543.01.055.009.138.121.212.14.175.037.442-.028.7,0,.35.037.635.205.829.14.221-.066.626-.617.644-.888.019-.261-.175-.803-.34-.953-.185-.168-.507-.056-.673-.224-.856.14-1.767.159-2.596.206-.506.028-1.04,0-1.584,0-.157,0-.313.084-.47.093-.497.019-.967-.093-1.326.047-.258.103-.516,0-.801.028-.359.028-.727.168-1.087.187-.47-.252-1.206.009-1.768-.066-1.271-.177-2.652.29-3.968.075-.331.14-.727.028-1.04.009-.166-.009-.332.085-.516.122-.479.075-1.022-.065-1.482-.028-.111.009-.221.103-.341.112-.111.009-.203-.075-.313-.075-.175,0-.368.056-.543.075-.608.065-1.096.121-1.584,0-.23.131-.58.093-.856.075-.368-.028-.737-.122-1.114-.047-.083.019-.175.093-.258.112-.368.056-.875-.028-1.169-.056-.221-.019-.451.103-.672.103-.092,0-.193-.075-.285-.075-.249-.009-.525.131-.783.094-.433-.057-.921,0-1.372,0-.101-.038-.028.177-.129.149-.258-.121-.552-.224-.856-.28-.479-.094-.985.093-1.482.065-.221-.009-.451-.177-.645-.019-.663-.289-1.648-.186-2.357-.084-.202.197-.58.131-.755.374-.552-.084-.93.551-.58,1.168.23.149.368.336.617.364.267.019.543-.159.81-.149.129,0,.267.112.387.13.212.028.451-.093.672-.084.11,0,.212.094.313.084.101,0,.184-.102.285-.102.12,0,.23.084.359.084.083,0,.175-.066.258-.066.635.01,1.354.299,1.897.056.175.271.405.084.598.094.276,0,.552.168.801.168.083,0,.156-.103.23-.103.111,0,.212.084.313.084s.212-.084.313-.102c.221-.047.46,0,.7-.019.654-.047,1.317-.196,2.026-.159.193.009.378.103.571.121.341.019.635-.102.958-.14.313-.037.645.075.957.047.083,0,.175-.075.258-.075.184,0,.341.094.516.075.368-.047.709-.187,1.068-.075.138-.224.313,0,.497-.187.442.206,1.077.131,1.482-.074.258.056.635.037.939-.047.442.224.93.056,1.427.019l.037-.028Z"/></svg>