<?xml version="1.0" encoding="UTF-8"?><svg id="Layer_1" xmlns="http://www.w3.org/2000/svg" viewBox="0 0 8.443 104.545"><path d="M.829,48.015v8.687l-.147,1.853c-.064.803.083,1.541.101,2.316l.074,3.252-.12,4.745c-.019.899.313,1.853-.028,2.77.212.756.083,1.522.074,2.297v4.197l-.092,1.975v1.89l-.101,4.567c-.028,1.474-.543,4.263-.552,4.972l-.037,3.469.074,3.781.083,3.063c.018.652.479,2.874,1.989,2.684,1.179-.152,2.016-1.144,2.514-2.212.497-1.069.479-2.118.644-3.215l.442-2.844c.083-.52.083-1.031.12-1.589.037-.558.193-1.154.285-1.701l.249-1.447c.304-1.796.295-1.929.267-3.734-.009-.614-.203-1.342.064-1.89.23-.463.157-.709.129-1.182-.092-1.522.368-3.545.424-5.066l.267-6.533c.101-2.343-.046-3.752.267-5.946.442-3.12.46-3.97.516-7.117l.046-2.921.064-2.334v-2.78l-.037-3.46-.055-2.514-.092-4.651c-.046-2.599-.709-4.292-.644-7.648.018-.851-.028-1.559-.055-2.382l-.276-6.551c-.064-1.589-.506-3.318-.414-4.992.028-.444.092-.671-.12-1.096-.304-.596-.092-1.352-.083-2.004.037-1.796.046-1.833-.267-3.649l-.267-1.578c-.092-.548-.267-1.163-.276-1.692-.009-.596-.037-1.106-.129-1.674l-.405-2.628c-.175-1.134-.175-2.259-.681-3.318C4.134,1.13,3.361.222,2.191.024-.23-.383.101,4.589.074,5.969l-.074,3.497.028,3.479c0,.794.543,3.64.58,5.634l.055,2.939v1.447l.064,2.419.046,3.555c0,.586-.055,1.21-.018,1.748.055.757.083,1.456-.037,2.174.175.936.101,1.824,0,2.769-.074.643.064,1.389.074,2.079l.028,2.42c.018,1.484-.129,2.562-.055,3.564.055.747-.156,1.474-.101,2.258l.147,2.061h.018Z" style="fill:#fff;"/></svg>